<svg width="20" height="20" viewBox="0 0 20 20" fill="none" xmlns="http://www.w3.org/2000/svg">
<path d="M1.375 2.3992C1.375 2.12306 1.59886 1.8992 1.875 1.8992H9.21371C9.48985 1.8992 9.71371 2.12306 9.71371 2.3992C9.71371 2.67534 9.48985 2.8992 9.21371 2.8992H1.875C1.59886 2.8992 1.375 2.67534 1.375 2.3992Z" fill="white"/>
<path fill-rule="evenodd" clip-rule="evenodd" d="M12.3589 9.78195C11.2254 9.78195 10.3065 10.7008 10.3065 11.8344C10.3065 12.9679 11.2254 13.8868 12.3589 13.8868C13.4924 13.8868 14.4113 12.9679 14.4113 11.8344C14.4113 10.7008 13.4924 9.78195 12.3589 9.78195ZM11.3065 11.8344C11.3065 11.2531 11.7776 10.7819 12.3589 10.7819C12.9401 10.7819 13.4113 11.2531 13.4113 11.8344C13.4113 12.4156 12.9401 12.8868 12.3589 12.8868C11.7776 12.8868 11.3065 12.4156 11.3065 11.8344Z" fill="white"/>
<path fill-rule="evenodd" clip-rule="evenodd" d="M11.1771 5.81984C11.2662 5.6644 11.4316 5.56853 11.6108 5.56853H13.0986C13.2769 5.56853 13.4417 5.66345 13.5311 5.81767L14.1773 6.93179L14.5361 7.07979L15.7759 6.7457C15.9486 6.69915 16.1331 6.74843 16.2595 6.87492L17.3102 7.9256C17.4358 8.0512 17.4854 8.23401 17.4404 8.40584L17.113 9.65568L17.2612 10.015L18.3737 10.6528C18.5292 10.7419 18.625 10.9074 18.625 11.0866V12.5743C18.625 12.7526 18.5301 12.9174 18.3759 13.0068L17.2618 13.653L17.1132 14.0133L17.4402 15.2544C17.4855 15.4264 17.436 15.6095 17.3102 15.7353L16.2595 16.786C16.1338 16.9118 15.9506 16.9613 15.7786 16.9159L14.5375 16.5889L14.1773 16.7375L13.5311 17.8516C13.4417 18.0059 13.2769 18.1008 13.0986 18.1008H11.6108C11.4316 18.1008 11.2662 18.0049 11.1771 17.8495L10.5392 16.737L10.1799 16.5888L8.93008 16.9161C8.75825 16.9611 8.57545 16.9116 8.44985 16.786L7.39917 15.7353C7.27268 15.6088 7.2234 15.4244 7.26994 15.2517L7.60403 14.0118L7.45604 13.653L6.34191 13.0068C6.1877 12.9174 6.09277 12.7526 6.09277 12.5743V11.0866C6.09277 10.9074 6.18864 10.7419 6.34408 10.6528L7.45657 10.015L7.60419 9.65711L7.26975 8.40852C7.22353 8.23599 7.27287 8.05191 7.39917 7.9256L8.44985 6.87492C8.57615 6.74862 8.76024 6.69929 8.93277 6.7455L10.1814 7.07995L10.5392 6.93232L11.1771 5.81984ZM11.9005 6.56853L11.3217 7.57803C11.2666 7.67419 11.1811 7.7493 11.0786 7.79156L10.4062 8.06894C10.3047 8.11081 10.1922 8.11811 10.0861 8.0897L8.95285 7.78613L8.31038 8.42861L8.61394 9.5619C8.64235 9.66796 8.63506 9.78043 8.59319 9.88194L8.31581 10.5544C8.27354 10.6568 8.19843 10.7423 8.10228 10.7975L7.09277 11.3763V12.2863L8.10445 12.8731C8.19958 12.9283 8.27387 13.0133 8.31581 13.1149L8.59319 13.7874C8.63516 13.8891 8.64238 14.0019 8.61375 14.1081L8.31073 15.2327L8.95416 15.8761L10.0888 15.5789C10.1941 15.5513 10.3056 15.5589 10.4062 15.6004L11.0786 15.8778C11.1811 15.92 11.2666 15.9951 11.3217 16.0913L11.9005 17.1008H12.8106L13.3973 16.0891C13.4525 15.994 13.5375 15.9197 13.6392 15.8778L14.3116 15.6004C14.4125 15.5588 14.5242 15.5513 14.6297 15.5791L15.7556 15.8757L16.4 15.2313L16.1033 14.1054C16.0755 13.9999 16.083 13.8882 16.1246 13.7874L16.402 13.1149C16.4439 13.0133 16.5182 12.9283 16.6134 12.8731L17.625 12.2863V11.3763L16.6155 10.7975C16.5194 10.7423 16.4443 10.6568 16.402 10.5544L16.1246 9.88194C16.0831 9.78131 16.0756 9.66989 16.1032 9.56459L16.4003 8.42992L15.7569 7.78649L14.6324 8.0895C14.5261 8.11814 14.4134 8.11091 14.3116 8.06894L13.6392 7.79156C13.5375 7.74962 13.4525 7.67534 13.3973 7.5802L12.8106 6.56853H11.9005Z" fill="white"/>
<path d="M1.375 5.02007C1.375 4.74392 1.59886 4.52007 1.875 4.52007H5.54436C5.8205 4.52007 6.04435 4.74392 6.04435 5.02007C6.04435 5.29621 5.8205 5.52007 5.54436 5.52007H1.875C1.59886 5.52007 1.375 5.29621 1.375 5.02007Z" fill="white"/>
<path d="M1.875 7.1412C1.59886 7.1412 1.375 7.36506 1.375 7.6412C1.375 7.91735 1.59886 8.1412 1.875 8.1412H3.44758C3.72372 8.1412 3.94758 7.91735 3.94758 7.6412C3.94758 7.36506 3.72372 7.1412 3.44758 7.1412H1.875Z" fill="white"/>
</svg>
