<svg width="20" height="20" viewBox="0 0 20 20" fill="none" xmlns="http://www.w3.org/2000/svg">
<path fill-rule="evenodd" clip-rule="evenodd" d="M5.33818 7.71484C4.38237 6.49482 4.23417 4.29033 4.23417 4.29033C4.23417 4.29033 4.08597 6.49482 3.13016 7.71484C3.03579 7.83531 2.93354 7.94618 2.82278 8.04437C2.72008 8.13543 2.60238 8.22241 2.47464 8.30499C1.51848 8.92322 0 9.29572 0 9.29572C0 9.29572 1.51848 9.66823 2.47464 10.2865C2.60238 10.369 2.72008 10.456 2.82278 10.5471C2.93354 10.6453 3.03579 10.7561 3.13016 10.8766C4.08597 12.0966 4.23417 14.3011 4.23417 14.3011C4.23417 14.3011 4.38237 12.0966 5.33818 10.8766C5.43255 10.7561 5.5348 10.6453 5.64556 10.5471C5.74826 10.456 5.86597 10.369 5.9937 10.2865C6.94987 9.66823 8.46834 9.29572 8.46834 9.29572C8.46834 9.29572 6.94986 8.92322 5.9937 8.30499C5.86596 8.22241 5.74826 8.13543 5.64556 8.04437C5.5348 7.94618 5.43255 7.83531 5.33818 7.71484Z" fill="white"/>
<path fill-rule="evenodd" clip-rule="evenodd" d="M9.87973 0C9.87973 0 9.97853 1.57463 10.6157 2.44608C10.6438 2.4844 10.6728 2.52137 10.703 2.55677C10.7405 2.60087 10.7797 2.64256 10.8207 2.68146C10.8408 2.70055 10.8617 2.7194 10.8835 2.73798C10.9358 2.78271 10.9926 2.82594 11.0528 2.86762C11.6902 3.30921 12.7025 3.57528 12.7025 3.57528C12.7025 3.57528 11.6902 3.84135 11.0528 4.28294C10.9926 4.32462 10.9358 4.36785 10.8835 4.41257C10.8617 4.43116 10.8408 4.45 10.8207 4.4691C10.7797 4.508 10.7405 4.54969 10.703 4.59378C10.6728 4.62919 10.6438 4.66615 10.6157 4.70448C9.97853 5.57592 9.87973 7.15055 9.87973 7.15055C9.87973 7.15055 9.78093 5.57592 9.14373 4.70448C9.11571 4.66615 9.08664 4.62919 9.0565 4.59378C9.01897 4.54969 8.97976 4.508 8.93881 4.4691C8.91871 4.45 8.89774 4.43116 8.876 4.41257C8.82369 4.36785 8.76687 4.32462 8.70671 4.28294C8.06927 3.84135 7.05695 3.57528 7.05695 3.57528C7.05695 3.57528 8.06927 3.30921 8.70671 2.86762C8.76687 2.82594 8.82369 2.78271 8.876 2.73798C8.89774 2.7194 8.9187 2.70055 8.93881 2.68146C8.97976 2.64256 9.01897 2.60087 9.0565 2.55677C9.08664 2.52136 9.11571 2.4844 9.14373 2.44608C9.78093 1.57463 9.87973 0 9.87973 0Z" fill="white"/>
<path fill-rule="evenodd" clip-rule="evenodd" d="M11.4043 8.74128C11.6358 8.60586 11.9229 8.61459 12.146 8.76382L19.6831 13.8062C19.8872 13.9428 20.007 14.1767 19.9997 14.4244C19.9924 14.6721 19.859 14.8983 19.6471 15.0222L16.7603 16.711L18.0231 18.9273C18.218 19.2693 18.1023 19.7066 17.7648 19.9041C17.4273 20.1015 16.9957 19.9844 16.8008 19.6424L15.538 17.4261L12.6512 19.1149C12.4394 19.2388 12.1793 19.2428 11.9639 19.1254C11.7486 19.0079 11.6085 18.7859 11.5939 18.5385L11.0528 9.40338C11.0367 9.13303 11.1728 8.87671 11.4043 8.74128ZM12.5462 10.7452L12.9343 17.2979L17.9526 14.3622L12.5462 10.7452Z" fill="white"/>
</svg>
