<svg width="20" height="20" viewBox="0 0 20 20" fill="none" xmlns="http://www.w3.org/2000/svg">
<path fill-rule="evenodd" clip-rule="evenodd" d="M1.375 1.875C1.375 1.59886 1.59886 1.375 1.875 1.375H18.125C18.4011 1.375 18.625 1.59886 18.625 1.875V18.125C18.625 18.4011 18.4011 18.625 18.125 18.625H1.875C1.59886 18.625 1.375 18.4011 1.375 18.125V1.875ZM2.375 2.375V17.625H17.625V2.375H2.375Z" fill="white"/>
<path fill-rule="evenodd" clip-rule="evenodd" d="M6.59819 4.625C6.59819 4.34886 6.82205 4.125 7.09819 4.125H12.9018C13.1779 4.125 13.4018 4.34886 13.4018 4.625C13.4018 4.90115 13.1779 5.125 12.9018 5.125H7.09819C6.82205 5.125 6.59819 4.90115 6.59819 4.625Z" fill="white"/>
</svg>
