<svg width="20" height="20" viewBox="0 0 20 20" fill="none" xmlns="http://www.w3.org/2000/svg">
<path d="M15.625 16.125C15.9011 16.125 16.125 15.9011 16.125 15.625V11.875C16.125 11.5989 15.9011 11.375 15.625 11.375C15.3489 11.375 15.125 11.5989 15.125 11.875V15.125H11.875C11.5989 15.125 11.375 15.3489 11.375 15.625C11.375 15.9011 11.5989 16.125 11.875 16.125H15.625Z" fill="white"/>
<path fill-rule="evenodd" clip-rule="evenodd" d="M1.875 1.375C1.59886 1.375 1.375 1.59886 1.375 1.875V18.125C1.375 18.4011 1.59886 18.625 1.875 18.625H18.125C18.4011 18.625 18.625 18.4011 18.625 18.125V1.875C18.625 1.59886 18.4011 1.375 18.125 1.375H1.875ZM2.375 17.625V2.375H17.625V17.625H2.375Z" fill="white"/>
</svg>
