<svg width="20" height="20" viewBox="0 0 20 20" fill="none" xmlns="http://www.w3.org/2000/svg">
<path fill-rule="evenodd" clip-rule="evenodd" d="M1.25 1.92308C1.25 1.55135 1.55135 1.25 1.92308 1.25H18.0769C18.4487 1.25 18.75 1.55135 18.75 1.92308V18.0769C18.75 18.4487 18.4487 18.75 18.0769 18.75H1.92308C1.55135 18.75 1.25 18.4487 1.25 18.0769V1.92308ZM2.59615 2.59615V17.4038H17.4038V2.59615H2.59615Z" fill="white"/>
<path fill-rule="evenodd" clip-rule="evenodd" d="M6.29808 4.61538C6.29808 4.05779 6.7501 3.60577 7.30769 3.60577H12.6923C13.2499 3.60577 13.7019 4.05779 13.7019 4.61538C13.7019 5.17298 13.2499 5.625 12.6923 5.625H7.30769C6.7501 5.625 6.29808 5.17298 6.29808 4.61538Z" fill="white"/>
</svg>
