<svg width="20" height="20" viewBox="0 0 20 20" fill="none" xmlns="http://www.w3.org/2000/svg">
<path fill-rule="evenodd" clip-rule="evenodd" d="M18.75 18.0769C18.75 18.4487 18.4487 18.75 18.0769 18.75L1.92308 18.75C1.55135 18.75 1.25 18.4487 1.25 18.0769L1.25 1.92308C1.25 1.55135 1.55135 1.25 1.92308 1.25L18.0769 1.25C18.4487 1.25 18.75 1.55135 18.75 1.92308L18.75 18.0769ZM17.4038 17.4038L17.4038 2.59616L2.59616 2.59615L2.59616 17.4038L17.4038 17.4038Z" fill="white"/>
<path fill-rule="evenodd" clip-rule="evenodd" d="M13.7019 15.3846C13.7019 15.9422 13.2499 16.3942 12.6923 16.3942L7.30769 16.3942C6.7501 16.3942 6.29808 15.9422 6.29808 15.3846C6.29808 14.827 6.7501 14.375 7.30769 14.375L12.6923 14.375C13.2499 14.375 13.7019 14.827 13.7019 15.3846Z" fill="white"/>
</svg>
