<svg width="20" height="20" viewBox="0 0 20 20" fill="none" xmlns="http://www.w3.org/2000/svg">
<path d="M4.375 3.875C4.09886 3.875 3.875 4.09886 3.875 4.375V8.125C3.875 8.40114 4.09886 8.625 4.375 8.625C4.65114 8.625 4.875 8.40114 4.875 8.125V4.875H8.125C8.40114 4.875 8.625 4.65114 8.625 4.375C8.625 4.09886 8.40114 3.875 8.125 3.875H4.375Z" fill="white"/>
<path fill-rule="evenodd" clip-rule="evenodd" d="M1.875 1.375C1.59886 1.375 1.375 1.59886 1.375 1.875V18.125C1.375 18.4011 1.59886 18.625 1.875 18.625H18.125C18.4011 18.625 18.625 18.4011 18.625 18.125V1.875C18.625 1.59886 18.4011 1.375 18.125 1.375H1.875ZM2.375 17.625V2.375H17.625V17.625H2.375Z" fill="white"/>
</svg>
