<svg width="20" height="20" viewBox="0 0 20 20" fill="none" xmlns="http://www.w3.org/2000/svg">
<path fill-rule="evenodd" clip-rule="evenodd" d="M18.0769 1.25C18.4487 1.25 18.75 1.55135 18.75 1.92308L18.75 18.0769C18.75 18.4487 18.4487 18.75 18.0769 18.75L1.92308 18.75C1.55135 18.75 1.25 18.4487 1.25 18.0769L1.25 1.92308C1.25 1.55135 1.55135 1.25 1.92308 1.25L18.0769 1.25ZM17.4038 2.59615L2.59616 2.59615L2.59615 17.4038L17.4038 17.4038L17.4038 2.59615Z" fill="white"/>
<path fill-rule="evenodd" clip-rule="evenodd" d="M15.3846 3.60577C15.9422 3.60577 16.3942 4.05779 16.3942 4.61538L16.3942 9.32692C16.3942 9.88452 15.9422 10.3365 15.3846 10.3365C14.827 10.3365 14.375 9.88452 14.375 9.32692L14.375 5.625L10.6731 5.625C10.1155 5.625 9.66346 5.17298 9.66346 4.61538C9.66346 4.05779 10.1155 3.60577 10.6731 3.60577L15.3846 3.60577Z" fill="white"/>
</svg>
