<svg width="21" height="21" viewBox="0 0 21 21" fill="none" xmlns="http://www.w3.org/2000/svg">
<path fill-rule="evenodd" clip-rule="evenodd" d="M8.79221 2.5H3C2.72386 2.5 2.5 2.72386 2.5 3V8.79221C2.5 9.06835 2.72386 9.29221 3 9.29221H8.79221C9.06835 9.29221 9.29221 9.06835 9.29221 8.79221V3C9.29221 2.72386 9.06835 2.5 8.79221 2.5ZM3 2C2.44772 2 2 2.44772 2 3V8.79221C2 9.34449 2.44772 9.79221 3 9.79221H8.79221C9.34449 9.79221 9.79221 9.34449 9.79221 8.79221V3C9.79221 2.44772 9.34449 2 8.79221 2H3Z" fill="white"/>
<path fill-rule="evenodd" clip-rule="evenodd" d="M8.13089 3.53839C8.35712 3.69675 8.41213 4.00851 8.25378 4.23474L5.5265 8.13084C5.4346 8.26213 5.28532 8.34141 5.12508 8.34404C4.96484 8.34667 4.81305 8.27232 4.71689 8.14411L3.54806 6.58567C3.38237 6.36475 3.42714 6.05135 3.64806 5.88567C3.86897 5.71998 4.18237 5.76475 4.34806 5.98567L5.10293 6.99216L7.43455 3.66127C7.5929 3.43505 7.90467 3.38003 8.13089 3.53839Z" fill="white"/>
<path fill-rule="evenodd" clip-rule="evenodd" d="M8.79221 11.8506H3C2.72386 11.8506 2.5 12.0745 2.5 12.3506V18.1428C2.5 18.419 2.72386 18.6428 3 18.6428H8.79221C9.06835 18.6428 9.29221 18.419 9.29221 18.1428V12.3506C9.29221 12.0745 9.06835 11.8506 8.79221 11.8506ZM3 11.3506C2.44772 11.3506 2 11.7983 2 12.3506V18.1428C2 18.6951 2.44772 19.1428 3 19.1428H8.79221C9.34449 19.1428 9.79221 18.6951 9.79221 18.1428V12.3506C9.79221 11.7983 9.34449 11.3506 8.79221 11.3506H3Z" fill="white"/>
<path fill-rule="evenodd" clip-rule="evenodd" d="M8.13089 12.889C8.35712 13.0474 8.41213 13.3591 8.25378 13.5854L5.5265 17.4815C5.4346 17.6128 5.28532 17.692 5.12508 17.6947C4.96484 17.6973 4.81305 17.623 4.71689 17.4947L3.54806 15.9363C3.38237 15.7154 3.42714 15.402 3.64806 15.2363C3.86897 15.0706 4.18237 15.1154 4.34806 15.3363L5.10293 16.3428L7.43454 13.0119C7.5929 12.7857 7.90467 12.7307 8.13089 12.889Z" fill="white"/>
<path fill-rule="evenodd" clip-rule="evenodd" d="M18.1429 2.5H12.3506C12.0745 2.5 11.8506 2.72386 11.8506 3V8.79221C11.8506 9.06835 12.0745 9.29221 12.3506 9.29221H18.1429C18.419 9.29221 18.6429 9.06835 18.6429 8.79221V3C18.6429 2.72386 18.419 2.5 18.1429 2.5ZM12.3506 2C11.7984 2 11.3506 2.44772 11.3506 3V8.79221C11.3506 9.34449 11.7984 9.79221 12.3506 9.79221H18.1429C18.6951 9.79221 19.1429 9.34449 19.1429 8.79221V3C19.1429 2.44772 18.6951 2 18.1429 2H12.3506Z" fill="white"/>
<path fill-rule="evenodd" clip-rule="evenodd" d="M17.4815 3.53839C17.7078 3.69675 17.7628 4.00851 17.6044 4.23474L14.8771 8.13084C14.7852 8.26213 14.636 8.34141 14.4757 8.34404C14.3155 8.34667 14.1637 8.27232 14.0675 8.14411L12.8987 6.58567C12.733 6.36475 12.7778 6.05135 12.9987 5.88567C13.2196 5.71998 13.533 5.76475 13.6987 5.98567L14.4536 6.99216L16.7852 3.66127C16.9435 3.43505 17.2553 3.38003 17.4815 3.53839Z" fill="white"/>
<path fill-rule="evenodd" clip-rule="evenodd" d="M18.1429 11.8506H12.3506C12.0745 11.8506 11.8506 12.0745 11.8506 12.3506V18.1428C11.8506 18.419 12.0745 18.6428 12.3506 18.6428H18.1429C18.419 18.6428 18.6429 18.419 18.6429 18.1428V12.3506C18.6429 12.0745 18.419 11.8506 18.1429 11.8506ZM12.3506 11.3506C11.7984 11.3506 11.3506 11.7983 11.3506 12.3506V18.1428C11.3506 18.6951 11.7984 19.1428 12.3506 19.1428H18.1429C18.6951 19.1428 19.1429 18.6951 19.1429 18.1428V12.3506C19.1429 11.7983 18.6951 11.3506 18.1429 11.3506H12.3506Z" fill="white"/>
<path fill-rule="evenodd" clip-rule="evenodd" d="M17.4815 12.889C17.7078 13.0474 17.7628 13.3591 17.6044 13.5854L14.8771 17.4815C14.7852 17.6128 14.636 17.692 14.4757 17.6947C14.3155 17.6973 14.1637 17.623 14.0675 17.4947L12.8987 15.9363C12.733 15.7154 12.7778 15.402 12.9987 15.2363C13.2196 15.0706 13.533 15.1154 13.6987 15.3363L14.4536 16.3428L16.7852 13.0119C16.9435 12.7857 17.2553 12.7307 17.4815 12.889Z" fill="white"/>
</svg>
