<svg width="20" height="20" viewBox="0 0 20 20" fill="none" xmlns="http://www.w3.org/2000/svg">
<path fill-rule="evenodd" clip-rule="evenodd" d="M1.92308 18.75C1.55135 18.75 1.25 18.4487 1.25 18.0769L1.25 1.92308C1.25 1.55135 1.55135 1.25 1.92308 1.25L18.0769 1.25C18.4487 1.25 18.75 1.55135 18.75 1.92308L18.75 18.0769C18.75 18.4487 18.4487 18.75 18.0769 18.75L1.92308 18.75ZM2.59615 17.4038L17.4038 17.4038L17.4038 2.59615L2.59615 2.59615L2.59615 17.4038Z" fill="white"/>
<path fill-rule="evenodd" clip-rule="evenodd" d="M4.61538 16.3942C4.05779 16.3942 3.60577 15.9422 3.60577 15.3846L3.60577 10.6731C3.60577 10.1155 4.05779 9.66346 4.61538 9.66346C5.17298 9.66346 5.625 10.1155 5.625 10.6731L5.625 14.375L9.32692 14.375C9.88452 14.375 10.3365 14.827 10.3365 15.3846C10.3365 15.9422 9.88452 16.3942 9.32692 16.3942L4.61538 16.3942Z" fill="white"/>
</svg>
