<svg width="20" height="20" viewBox="0 0 20 20" fill="none" xmlns="http://www.w3.org/2000/svg">
<path d="M16.125 4.375C16.125 4.09886 15.9011 3.875 15.625 3.875H11.875C11.5989 3.875 11.375 4.09886 11.375 4.375C11.375 4.65114 11.5989 4.875 11.875 4.875H15.125V8.125C15.125 8.40114 15.3489 8.625 15.625 8.625C15.9011 8.625 16.125 8.40114 16.125 8.125V4.375Z" fill="white"/>
<path fill-rule="evenodd" clip-rule="evenodd" d="M1.875 1.375C1.59886 1.375 1.375 1.59886 1.375 1.875V18.125C1.375 18.4011 1.59886 18.625 1.875 18.625H18.125C18.4011 18.625 18.625 18.4011 18.625 18.125V1.875C18.625 1.59886 18.4011 1.375 18.125 1.375H1.875ZM2.375 17.625V2.375H17.625V17.625H2.375Z" fill="white"/>
</svg>
