<svg width="20" height="20" viewBox="0 0 20 20" fill="none" xmlns="http://www.w3.org/2000/svg">
<path fill-rule="evenodd" clip-rule="evenodd" d="M1.25 1.92308C1.25 1.55135 1.55135 1.25 1.92308 1.25H18.0769C18.4487 1.25 18.75 1.55135 18.75 1.92308V18.0769C18.75 18.4487 18.4487 18.75 18.0769 18.75H1.92308C1.55135 18.75 1.25 18.4487 1.25 18.0769V1.92308ZM2.59615 2.59615V17.4038H17.4038V2.59615H2.59615Z" fill="white"/>
<path fill-rule="evenodd" clip-rule="evenodd" d="M3.60577 4.61538C3.60577 4.05779 4.05779 3.60577 4.61538 3.60577H9.32692C9.88452 3.60577 10.3365 4.05779 10.3365 4.61538C10.3365 5.17298 9.88452 5.625 9.32692 5.625H5.625V9.32692C5.625 9.88452 5.17298 10.3365 4.61538 10.3365C4.05779 10.3365 3.60577 9.88452 3.60577 9.32692V4.61538Z" fill="white"/>
</svg>
