<svg width="20" height="20" viewBox="0 0 20 20" fill="none" xmlns="http://www.w3.org/2000/svg">
<path fill-rule="evenodd" clip-rule="evenodd" d="M18.75 18.0769C18.75 18.4487 18.4487 18.75 18.0769 18.75L1.92308 18.75C1.55135 18.75 1.25 18.4487 1.25 18.0769L1.25 1.92308C1.25 1.55135 1.55135 1.25 1.92308 1.25L18.0769 1.25C18.4487 1.25 18.75 1.55135 18.75 1.92308L18.75 18.0769ZM17.4038 17.4038L17.4038 2.59615L2.59615 2.59616L2.59615 17.4038L17.4038 17.4038Z" fill="white"/>
<path fill-rule="evenodd" clip-rule="evenodd" d="M16.3942 15.3846C16.3942 15.9422 15.9422 16.3942 15.3846 16.3942L10.6731 16.3942C10.1155 16.3942 9.66346 15.9422 9.66346 15.3846C9.66346 14.827 10.1155 14.375 10.6731 14.375L14.375 14.375L14.375 10.6731C14.375 10.1155 14.827 9.66346 15.3846 9.66346C15.9422 9.66346 16.3942 10.1155 16.3942 10.6731L16.3942 15.3846Z" fill="white"/>
</svg>
