<svg width="20" height="20" viewBox="0 0 20 20" fill="none" xmlns="http://www.w3.org/2000/svg">
<path d="M7.6822 3.66337C7.84056 3.43714 7.78554 3.12538 7.55931 2.96702C7.33309 2.80866 7.02132 2.86368 6.86297 3.0899L4.53135 6.42079L3.77648 5.4143C3.61079 5.19338 3.29739 5.14861 3.07648 5.3143C2.85557 5.47998 2.81079 5.79338 2.97648 6.0143L4.14531 7.57274C4.24147 7.70095 4.39326 7.7753 4.5535 7.77267C4.71375 7.77004 4.86302 7.69076 4.95493 7.55947L7.6822 3.66337Z" fill="white"/>
<path fill-rule="evenodd" clip-rule="evenodd" d="M1.42847 2.42857C1.42847 1.87629 1.87618 1.42857 2.42847 1.42857H8.22067C8.77296 1.42857 9.22067 1.87629 9.22067 2.42857V8.22078C9.22067 8.77307 8.77296 9.22078 8.22067 9.22078H2.42847C1.87618 9.22078 1.42847 8.77307 1.42847 8.22078V2.42857ZM2.42847 1.92857H8.22067C8.49682 1.92857 8.72067 2.15243 8.72067 2.42857V8.22078C8.72067 8.49692 8.49682 8.72078 8.22067 8.72078H2.42847C2.15232 8.72078 1.92847 8.49692 1.92847 8.22078V2.42857C1.92847 2.15243 2.15232 1.92857 2.42847 1.92857Z" fill="white"/>
<path d="M7.6822 13.014C7.84056 12.7878 7.78554 12.476 7.55931 12.3177C7.33309 12.1593 7.02132 12.2143 6.86297 12.4406L4.53135 15.7714L3.77648 14.7649C3.61079 14.544 3.29739 14.4993 3.07648 14.6649C2.85557 14.8306 2.81079 15.144 2.97648 15.3649L4.14531 16.9234C4.24147 17.0516 4.39326 17.1259 4.5535 17.1233C4.71375 17.1207 4.86302 17.0414 4.95493 16.9101L7.6822 13.014Z" fill="white"/>
<path fill-rule="evenodd" clip-rule="evenodd" d="M2.42847 10.7792C1.87618 10.7792 1.42847 11.2269 1.42847 11.7792V17.5714C1.42847 18.1237 1.87618 18.5714 2.42847 18.5714H8.22067C8.77296 18.5714 9.22067 18.1237 9.22067 17.5714V11.7792C9.22067 11.2269 8.77296 10.7792 8.22067 10.7792H2.42847ZM8.22067 11.2792H2.42847C2.15232 11.2792 1.92847 11.5031 1.92847 11.7792V17.5714C1.92847 17.8476 2.15232 18.0714 2.42847 18.0714H8.22067C8.49682 18.0714 8.72067 17.8476 8.72067 17.5714V11.7792C8.72067 11.5031 8.49682 11.2792 8.22067 11.2792Z" fill="white"/>
<path d="M17.033 3.66337C17.1914 3.43714 17.1364 3.12538 16.9101 2.96702C16.6839 2.80866 16.3722 2.86368 16.2138 3.0899L13.8822 6.42079L13.1273 5.4143C12.9616 5.19338 12.6482 5.14861 12.4273 5.3143C12.2064 5.47998 12.1616 5.79338 12.3273 6.0143L13.4961 7.57274C13.5923 7.70095 13.7441 7.7753 13.9043 7.77267C14.0646 7.77004 14.2139 7.69076 14.3058 7.55947L17.033 3.66337Z" fill="white"/>
<path fill-rule="evenodd" clip-rule="evenodd" d="M11.7793 1.42857C11.227 1.42857 10.7793 1.87629 10.7793 2.42857V8.22078C10.7793 8.77307 11.227 9.22078 11.7793 9.22078H17.5715C18.1238 9.22078 18.5715 8.77307 18.5715 8.22078V2.42857C18.5715 1.87629 18.1238 1.42857 17.5715 1.42857H11.7793ZM17.5715 1.92857H11.7793C11.5032 1.92857 11.2793 2.15243 11.2793 2.42857V8.22078C11.2793 8.49692 11.5032 8.72078 11.7793 8.72078H17.5715C17.8476 8.72078 18.0715 8.49692 18.0715 8.22078V2.42857C18.0715 2.15243 17.8476 1.92857 17.5715 1.92857Z" fill="white"/>
<path d="M17.033 13.014C17.1914 12.7878 17.1364 12.476 16.9101 12.3177C16.6839 12.1593 16.3722 12.2143 16.2138 12.4406L13.8822 15.7714L13.1273 14.7649C12.9616 14.544 12.6482 14.4993 12.4273 14.6649C12.2064 14.8306 12.1616 15.144 12.3273 15.3649L13.4961 16.9234C13.5923 17.0516 13.7441 17.1259 13.9043 17.1233C14.0646 17.1207 14.2139 17.0414 14.3058 16.9101L17.033 13.014Z" fill="white"/>
<path fill-rule="evenodd" clip-rule="evenodd" d="M11.7793 10.7792C11.227 10.7792 10.7793 11.2269 10.7793 11.7792V17.5714C10.7793 18.1237 11.227 18.5714 11.7793 18.5714H17.5715C18.1238 18.5714 18.5715 18.1237 18.5715 17.5714V11.7792C18.5715 11.2269 18.1238 10.7792 17.5715 10.7792H11.7793ZM17.5715 11.2792H11.7793C11.5032 11.2792 11.2793 11.5031 11.2793 11.7792V17.5714C11.2793 17.8476 11.5032 18.0714 11.7793 18.0714H17.5715C17.8476 18.0714 18.0715 17.8476 18.0715 17.5714V11.7792C18.0715 11.5031 17.8476 11.2792 17.5715 11.2792Z" fill="white"/>
</svg>
