<svg width="20" height="20" viewBox="0 0 20 20" fill="none" xmlns="http://www.w3.org/2000/svg">
<path d="M3.875 15.625C3.875 15.9011 4.09886 16.125 4.375 16.125H8.125C8.40114 16.125 8.625 15.9011 8.625 15.625C8.625 15.3489 8.40114 15.125 8.125 15.125H4.875V11.875C4.875 11.5989 4.65114 11.375 4.375 11.375C4.09886 11.375 3.875 11.5989 3.875 11.875V15.625Z" fill="white"/>
<path fill-rule="evenodd" clip-rule="evenodd" d="M1.875 1.375C1.59886 1.375 1.375 1.59886 1.375 1.875V18.125C1.375 18.4011 1.59886 18.625 1.875 18.625H18.125C18.4011 18.625 18.625 18.4011 18.625 18.125V1.875C18.625 1.59886 18.4011 1.375 18.125 1.375H1.875ZM2.375 17.625V2.375H17.625V17.625H2.375Z" fill="white"/>
</svg>
