<svg width="20" height="20" viewBox="0 0 20 20" fill="none" xmlns="http://www.w3.org/2000/svg">
<path fill-rule="evenodd" clip-rule="evenodd" d="M8.22077 1.92847H2.42856C2.15242 1.92847 1.92856 2.15232 1.92856 2.42847V8.22067C1.92856 8.49682 2.15242 8.72067 2.42856 8.72067H8.22077C8.49691 8.72067 8.72077 8.49682 8.72077 8.22067V2.42847C8.72077 2.15232 8.49691 1.92847 8.22077 1.92847ZM2.42856 1.42847C1.87627 1.42847 1.42856 1.87618 1.42856 2.42847V8.22067C1.42856 8.77296 1.87627 9.22067 2.42856 9.22067H8.22077C8.77305 9.22067 9.22077 8.77296 9.22077 8.22067V2.42847C9.22077 1.87618 8.77305 1.42847 8.22077 1.42847H2.42856Z" fill="white"/>
<path fill-rule="evenodd" clip-rule="evenodd" d="M7.55945 2.96689C7.78568 3.12525 7.84069 3.43701 7.68234 3.66324L4.95506 7.55934C4.86316 7.69064 4.71388 7.76992 4.55364 7.77254C4.3934 7.77517 4.24161 7.70082 4.14545 7.57261L2.97662 6.01417C2.81093 5.79326 2.8557 5.47986 3.07662 5.31417C3.29753 5.14848 3.61093 5.19326 3.77662 5.41417L4.53149 6.42066L6.8631 3.08978C7.02146 2.86355 7.33323 2.80853 7.55945 2.96689Z" fill="white"/>
<path fill-rule="evenodd" clip-rule="evenodd" d="M8.22077 11.2793H2.42856C2.15242 11.2793 1.92856 11.5032 1.92856 11.7793V17.5715C1.92856 17.8476 2.15242 18.0715 2.42856 18.0715H8.22077C8.49691 18.0715 8.72077 17.8476 8.72077 17.5715V11.7793C8.72077 11.5032 8.49691 11.2793 8.22077 11.2793ZM2.42856 10.7793C1.87627 10.7793 1.42856 11.227 1.42856 11.7793V17.5715C1.42856 18.1238 1.87627 18.5715 2.42856 18.5715H8.22077C8.77305 18.5715 9.22077 18.1238 9.22077 17.5715V11.7793C9.22077 11.227 8.77305 10.7793 8.22077 10.7793H2.42856Z" fill="white"/>
<path fill-rule="evenodd" clip-rule="evenodd" d="M7.55945 12.3177C7.78568 12.4761 7.84069 12.7878 7.68234 13.0141L4.95506 16.9102C4.86316 17.0415 4.71388 17.1207 4.55364 17.1234C4.3934 17.126 4.24161 17.0517 4.14545 16.9234L2.97662 15.365C2.81093 15.1441 2.8557 14.8307 3.07662 14.665C3.29753 14.4993 3.61093 14.5441 3.77662 14.765L4.53149 15.7715L6.8631 12.4406C7.02146 12.2144 7.33323 12.1594 7.55945 12.3177Z" fill="white"/>
<path fill-rule="evenodd" clip-rule="evenodd" d="M17.5714 1.92847H11.7792C11.5031 1.92847 11.2792 2.15232 11.2792 2.42847V8.22067C11.2792 8.49682 11.5031 8.72067 11.7792 8.72067H17.5714C17.8476 8.72067 18.0714 8.49682 18.0714 8.22067V2.42847C18.0714 2.15232 17.8476 1.92847 17.5714 1.92847ZM11.7792 1.42847C11.2269 1.42847 10.7792 1.87618 10.7792 2.42847V8.22067C10.7792 8.77296 11.2269 9.22067 11.7792 9.22067H17.5714C18.1237 9.22067 18.5714 8.77296 18.5714 8.22067V2.42847C18.5714 1.87618 18.1237 1.42847 17.5714 1.42847H11.7792Z" fill="white"/>
<path fill-rule="evenodd" clip-rule="evenodd" d="M16.9101 2.96689C17.1363 3.12525 17.1913 3.43701 17.033 3.66324L14.3057 7.55934C14.2138 7.69064 14.0645 7.76992 13.9043 7.77254C13.744 7.77517 13.5923 7.70082 13.4961 7.57261L12.3273 6.01417C12.1616 5.79326 12.2063 5.47986 12.4273 5.31417C12.6482 5.14848 12.9616 5.19326 13.1273 5.41417L13.8821 6.42066L16.2138 3.08978C16.3721 2.86355 16.6839 2.80853 16.9101 2.96689Z" fill="white"/>
<path fill-rule="evenodd" clip-rule="evenodd" d="M17.5714 11.2793H11.7792C11.5031 11.2793 11.2792 11.5032 11.2792 11.7793V17.5715C11.2792 17.8476 11.5031 18.0715 11.7792 18.0715H17.5714C17.8476 18.0715 18.0714 17.8476 18.0714 17.5715V11.7793C18.0714 11.5032 17.8476 11.2793 17.5714 11.2793ZM11.7792 10.7793C11.2269 10.7793 10.7792 11.227 10.7792 11.7793V17.5715C10.7792 18.1238 11.2269 18.5715 11.7792 18.5715H17.5714C18.1237 18.5715 18.5714 18.1238 18.5714 17.5715V11.7793C18.5714 11.227 18.1237 10.7793 17.5714 10.7793H11.7792Z" fill="white"/>
<path fill-rule="evenodd" clip-rule="evenodd" d="M16.9101 12.3177C17.1363 12.4761 17.1913 12.7878 17.033 13.0141L14.3057 16.9102C14.2138 17.0415 14.0645 17.1207 13.9043 17.1234C13.744 17.126 13.5923 17.0517 13.4961 16.9234L12.3273 15.365C12.1616 15.1441 12.2063 14.8307 12.4273 14.665C12.6482 14.4993 12.9616 14.5441 13.1273 14.765L13.8821 15.7715L16.2138 12.4406C16.3721 12.2144 16.6839 12.1594 16.9101 12.3177Z" fill="white"/>
</svg>
