<svg width="20" height="20" viewBox="0 0 20 20" fill="none" xmlns="http://www.w3.org/2000/svg">
<path d="M10 4.5625C9.58579 4.5625 9.25 4.89829 9.25 5.3125C9.25 5.58864 9.02614 5.8125 8.75 5.8125C8.47386 5.8125 8.25 5.58864 8.25 5.3125C8.25 4.346 9.0335 3.5625 10 3.5625C10.2761 3.5625 10.5 3.78636 10.5 4.0625C10.5 4.33864 10.2761 4.5625 10 4.5625Z" fill="white"/>
<path fill-rule="evenodd" clip-rule="evenodd" d="M10.5 9.02946C12.3347 8.78501 13.75 7.21404 13.75 5.3125C13.75 3.24143 12.0711 1.5625 10 1.5625C7.92893 1.5625 6.25 3.24143 6.25 5.3125C6.25 7.21404 7.66532 8.78501 9.5 9.02946V18.4375C9.5 18.7136 9.72386 18.9375 10 18.9375C10.2761 18.9375 10.5 18.7136 10.5 18.4375V9.02946ZM10 8.0625C11.5188 8.0625 12.75 6.83128 12.75 5.3125C12.75 3.79372 11.5188 2.5625 10 2.5625C8.48122 2.5625 7.25 3.79372 7.25 5.3125C7.25 6.83128 8.48122 8.0625 10 8.0625Z" fill="white"/>
</svg>
