<svg width="20" height="20" viewBox="0 0 20 20" fill="none" xmlns="http://www.w3.org/2000/svg">
<path fill-rule="evenodd" clip-rule="evenodd" d="M9.99997 2.5C8.61926 2.5 7.49997 3.61929 7.49997 5C7.49997 6.38071 8.61926 7.5 9.99997 7.5C11.3807 7.5 12.5 6.38071 12.5 5C12.5 3.61929 11.3807 2.5 9.99997 2.5ZM6.24997 5C6.24997 2.92893 7.9289 1.25 9.99997 1.25C12.071 1.25 13.75 2.92893 13.75 5C13.75 6.85812 12.3985 8.4006 10.625 8.69815C10.4217 8.73225 10.2129 8.75 9.99997 8.75C9.78702 8.75 9.57823 8.73225 9.37497 8.69815C7.6014 8.4006 6.24997 6.85812 6.24997 5Z" fill="white"/>
<path fill-rule="evenodd" clip-rule="evenodd" d="M9.99997 4.21875C9.5685 4.21875 9.21872 4.56853 9.21872 5C9.21872 5.25888 9.00885 5.46875 8.74997 5.46875C8.49109 5.46875 8.28122 5.25888 8.28122 5C8.28122 4.05076 9.05073 3.28125 9.99997 3.28125C10.2589 3.28125 10.4687 3.49112 10.4687 3.75C10.4687 4.00888 10.2589 4.21875 9.99997 4.21875Z" fill="white"/>
<path fill-rule="evenodd" clip-rule="evenodd" d="M9.99997 7.5C10.3451 7.5 10.625 7.77982 10.625 8.125L10.625 8.69815L10.625 18.125C10.625 18.4702 10.3451 18.75 9.99997 18.75C9.65479 18.75 9.37497 18.4702 9.37497 18.125L9.37497 8.69815L9.37497 8.125C9.37497 7.77982 9.65479 7.5 9.99997 7.5Z" fill="white"/>
</svg>
