<svg width="20" height="20" viewBox="0 0 20 20" fill="none" xmlns="http://www.w3.org/2000/svg">
<path fill-rule="evenodd" clip-rule="evenodd" d="M10 1C9.03341 1 8.24983 1.73407 8.24983 2.63961V3.30045C5.86209 4.06076 4.16425 6.33528 4.16425 8.96677L4.16725 13.2202H3.66729C2.74646 13.2202 2 13.9195 2 14.7823C2 15.6448 2.74646 16.3444 3.66729 16.3444H6.84936C7.01599 17.837 8.36299 19 10 19C11.637 19 12.984 17.837 13.1506 16.3444H16.3327C17.2535 16.3444 18 15.6448 18 14.7823C18 13.9195 17.2535 13.2202 16.3327 13.2202H15.8388L15.8358 8.96616C15.8356 6.33498 14.1378 4.06076 11.7502 3.30045V2.63961C11.7502 1.73407 10.9666 1 10 1ZM12.1421 16.3444H7.85793C8.01833 17.3177 8.91629 18.0627 10 18.0627C11.0837 18.0627 11.9817 17.3177 12.1421 16.3444ZM5.16798 13.6888C5.16798 13.6623 5.16563 13.6363 5.1611 13.611C5.16565 13.5854 5.16801 13.5592 5.16798 13.5326L5.16466 8.96616C5.16477 6.16534 7.37083 3.96771 10 3.96771C12.6292 3.96771 14.8353 6.16534 14.8353 8.96677L14.8387 13.5332C14.8387 13.5598 14.8341 13.5994 14.8387 13.6247C14.8341 13.6501 14.8387 13.6623 14.8387 13.6888C14.8387 13.9475 15.0626 14.1575 15.3389 14.1575H16.3327C16.701 14.1575 16.9996 14.4372 16.9996 14.7823C16.9996 15.1274 16.701 15.4071 16.3327 15.4071H3.66729C3.29898 15.4071 3.00041 15.1274 3.00041 14.7823C3.00041 14.4372 3.29898 14.1575 3.66729 14.1575H4.66777C4.94403 14.1575 5.16798 13.9475 5.16798 13.6888ZM10.7498 3.07865V2.63961C10.7498 2.25182 10.4141 1.93727 10 1.93727C9.58593 1.93727 9.25025 2.25182 9.25025 2.63961V3.07865C9.49537 3.04691 9.74558 3.03044 10 3.03044C10.2544 3.03044 10.5046 3.04691 10.7498 3.07865Z" fill="white"/>
</svg>
