<svg width="20" height="20" viewBox="0 0 20 20" fill="none" xmlns="http://www.w3.org/2000/svg">
<path fill-rule="evenodd" clip-rule="evenodd" d="M8.32495 3.0629C8.32495 2.13853 9.07252 1.375 10.0001 1.375C10.9276 1.375 11.6752 2.13853 11.6752 3.0629V3.83852C12.1792 3.98278 12.6178 4.19258 12.9979 4.45026C13.7443 4.9562 14.2357 5.6265 14.5583 6.28034C14.88 6.93245 15.0392 7.57842 15.1187 8.05709C15.1587 8.29761 15.179 8.49913 15.1894 8.64242C15.1946 8.71416 15.1974 8.77155 15.1988 8.81222C15.1995 8.83257 15.1999 8.84876 15.2001 8.86049L15.2003 8.87472L15.2004 8.87927L15.2004 8.88089L15.2004 8.88331L15.2004 12.8973H15.7462C16.6738 12.8973 17.4213 13.6608 17.4213 14.5852C17.4213 15.5096 16.6738 16.2731 15.7462 16.2731H12.783C12.5478 17.6035 11.3921 18.6249 10 18.6249C8.60804 18.6249 7.45226 17.6035 7.21707 16.2731H4.25372C3.32618 16.2731 2.57861 15.5096 2.57861 14.5852C2.57861 13.6608 3.32618 12.8973 4.25372 12.8973H4.79956V8.87961L4.79958 8.87843L4.7996 8.87681L4.79966 8.87226L4.79994 8.85803C4.80021 8.84629 4.80068 8.83011 4.8015 8.80976C4.80313 8.76909 4.80614 8.7117 4.8117 8.63998C4.82281 8.49669 4.84417 8.29521 4.8853 8.05472C4.96716 7.57611 5.12949 6.93036 5.45428 6.27857C5.77993 5.62508 6.27424 4.95534 7.02247 4.44983C7.39785 4.19621 7.82982 3.98894 8.32495 3.84496V3.0629ZM8.24132 16.2731C8.45842 17.0534 9.16971 17.6249 10 17.6249C10.8304 17.6249 11.5417 17.0534 11.7588 16.2731H8.24132ZM10.6752 3.0629V3.6514C10.4632 3.63064 10.2422 3.61984 10.0117 3.61984C9.77284 3.61984 9.54403 3.63144 9.32495 3.65371V3.0629C9.32495 2.68058 9.63498 2.375 10.0001 2.375C10.3651 2.375 10.6752 2.68058 10.6752 3.0629ZM14.2004 8.88498L14.2003 8.87879C14.2002 8.8725 14.1999 8.86194 14.1994 8.8474C14.1984 8.8183 14.1963 8.77335 14.1921 8.71483C14.1835 8.59763 14.1665 8.42699 14.1322 8.22095C14.0634 7.80646 13.9273 7.26156 13.6615 6.7228C13.3965 6.18578 13.0081 5.66521 12.4368 5.27801C11.8692 4.89323 11.0915 4.61984 10.0117 4.61984C8.93192 4.61984 8.15245 4.89323 7.58228 5.27844C7.00852 5.66608 6.6171 6.1872 6.34931 6.72458C6.08068 7.26365 5.94189 7.80878 5.87099 8.22331C5.83574 8.4294 5.8178 8.60006 5.80871 8.71728C5.80417 8.7758 5.80186 8.82076 5.80069 8.84986C5.80011 8.8644 5.79981 8.87496 5.79967 8.88126L5.79956 8.88673V13.8973H4.25372C3.88864 13.8973 3.57861 14.2029 3.57861 14.5852C3.57861 14.9675 3.88864 15.2731 4.25372 15.2731H15.7462C16.1113 15.2731 16.4213 14.9675 16.4213 14.5852C16.4213 14.2029 16.1113 13.8973 15.7462 13.8973H14.2004V8.88498Z" fill="white"/>
</svg>
