<svg width="20" height="20" viewBox="0 0 20 20" fill="none" xmlns="http://www.w3.org/2000/svg">
<path d="M3.69653 5.06696C3.69653 4.79081 3.92039 4.56696 4.19653 4.56696H8.83939C9.11553 4.56696 9.33939 4.79081 9.33939 5.06696C9.33939 5.3431 9.11553 5.56696 8.83939 5.56696H4.19653C3.92039 5.56696 3.69653 5.3431 3.69653 5.06696Z" fill="white"/>
<path fill-rule="evenodd" clip-rule="evenodd" d="M2.875 2.24553C2.04657 2.24553 1.375 2.9171 1.375 3.74553V7.5491C1.375 8.37753 2.04657 9.0491 2.875 9.0491H17.125C17.9534 9.0491 18.625 8.37753 18.625 7.5491V3.74553C18.625 2.9171 17.9534 2.24553 17.125 2.24553H2.875ZM2.375 3.74553C2.375 3.46939 2.59886 3.24553 2.875 3.24553H17.125C17.4011 3.24553 17.625 3.46939 17.625 3.74553V7.5491C17.625 7.82524 17.4011 8.0491 17.125 8.0491H2.875C2.59886 8.0491 2.375 7.82524 2.375 7.5491V3.74553Z" fill="white"/>
<path d="M4.19653 13.2723C3.92039 13.2723 3.69653 13.4962 3.69653 13.7723C3.69653 14.0485 3.92039 14.2723 4.19653 14.2723H14.643C14.9191 14.2723 15.143 14.0485 15.143 13.7723C15.143 13.4962 14.9191 13.2723 14.643 13.2723H4.19653Z" fill="white"/>
<path fill-rule="evenodd" clip-rule="evenodd" d="M2.875 10.9509C2.04657 10.9509 1.375 11.6225 1.375 12.4509V16.2545C1.375 17.0829 2.04657 17.7545 2.875 17.7545H17.125C17.9534 17.7545 18.625 17.0829 18.625 16.2545V12.4509C18.625 11.6225 17.9534 10.9509 17.125 10.9509H2.875ZM2.375 12.4509C2.375 12.1748 2.59886 11.9509 2.875 11.9509H17.125C17.4011 11.9509 17.625 12.1748 17.625 12.4509V16.2545C17.625 16.5306 17.4011 16.7545 17.125 16.7545H2.875C2.59886 16.7545 2.375 16.5306 2.375 16.2545V12.4509Z" fill="white"/>
</svg>
