<svg width="20" height="20" viewBox="0 0 20 20" fill="none" xmlns="http://www.w3.org/2000/svg">
<path fill-rule="evenodd" clip-rule="evenodd" d="M2.92279 10.9375H17.0772C18.0011 10.9375 18.75 11.717 18.75 12.6786V16.6964C18.75 17.658 18.0011 18.4375 17.0772 18.4375H2.92279C1.99894 18.4375 1.25 17.658 1.25 16.6964V12.6786C1.25 11.717 1.99894 10.9375 2.92279 10.9375ZM2.92279 12.0089H17.0772C17.4325 12.0089 17.7206 12.3087 17.7206 12.6786V16.6964C17.7206 17.0663 17.4325 17.3661 17.0772 17.3661H2.92279C2.56746 17.3661 2.27941 17.0663 2.27941 16.6964V12.6786C2.27941 12.3087 2.56746 12.0089 2.92279 12.0089Z" fill="white"/>
<path fill-rule="evenodd" clip-rule="evenodd" d="M3.05147 13.5268C3.05147 13.2309 3.28191 12.9911 3.56618 12.9911H14.4853C14.7696 12.9911 15 13.2309 15 13.5268C15 13.8227 14.7696 14.0625 14.4853 14.0625H3.56618C3.28191 14.0625 3.05147 13.8227 3.05147 13.5268Z" fill="white"/>
<path fill-rule="evenodd" clip-rule="evenodd" d="M2.92279 1.5625H17.0772C18.0011 1.5625 18.75 2.342 18.75 3.30357V7.32143C18.75 8.283 18.0011 9.0625 17.0772 9.0625H2.92279C1.99894 9.0625 1.25 8.283 1.25 7.32143V3.30357C1.25 2.342 1.99894 1.5625 2.92279 1.5625ZM2.92279 2.63393H17.0772C17.4325 2.63393 17.7206 2.93374 17.7206 3.30357V7.32143C17.7206 7.69126 17.4325 7.99107 17.0772 7.99107H2.92279C2.56746 7.99107 2.27941 7.69126 2.27941 7.32143V3.30357C2.27941 2.93374 2.56746 2.63393 2.92279 2.63393Z" fill="white"/>
<path fill-rule="evenodd" clip-rule="evenodd" d="M3.05147 4.15179C3.05147 3.85592 3.28191 3.61607 3.56618 3.61607H8.71324C8.9975 3.61607 9.22794 3.85592 9.22794 4.15179C9.22794 4.44765 8.9975 4.6875 8.71324 4.6875H3.56618C3.28191 4.6875 3.05147 4.44765 3.05147 4.15179Z" fill="white"/>
</svg>
