<svg width="22" height="22" viewBox="0 0 22 22" fill="none" xmlns="http://www.w3.org/2000/svg">
<path fill-rule="evenodd" clip-rule="evenodd" d="M4.12505 8.89934C4.12505 8.58292 4.35697 8.32642 4.64307 8.32642L14.1806 8.32642C14.4667 8.32642 14.6987 8.58292 14.6987 8.89934C14.6987 9.21575 14.4667 9.47226 14.1806 9.47226L4.64307 9.47226C4.35697 9.47226 4.12505 9.21575 4.12505 8.89934Z" fill="white"/>
<path fill-rule="evenodd" clip-rule="evenodd" d="M4.125 4.69792C4.125 4.38151 4.35693 4.125 4.64303 4.125L17.357 4.125C17.6431 4.125 17.875 4.38151 17.875 4.69792C17.875 5.01434 17.6431 5.27084 17.357 5.27084L4.64303 5.27084C4.35693 5.27084 4.125 5.01434 4.125 4.69792Z" fill="white"/>
<path fill-rule="evenodd" clip-rule="evenodd" d="M4.12505 13.1008C4.12505 12.7843 4.35697 12.5278 4.64307 12.5278L12.9399 12.5278C13.226 12.5278 13.4579 12.7843 13.4579 13.1008C13.4579 13.4172 13.226 13.6737 12.9399 13.6737L4.64307 13.6737C4.35697 13.6737 4.12505 13.4172 4.12505 13.1008Z" fill="white"/>
<path fill-rule="evenodd" clip-rule="evenodd" d="M4.12505 17.3019C4.12505 16.9855 4.35697 16.729 4.64307 16.729L10.45 16.729C10.7361 16.729 10.968 16.9855 10.968 17.3019C10.968 17.6183 10.7361 17.8748 10.45 17.8748L4.64307 17.8748C4.35697 17.8748 4.12505 17.6183 4.12505 17.3019Z" fill="white"/>
</svg>
