<svg width="20" height="20" viewBox="0 0 20 20" fill="none" xmlns="http://www.w3.org/2000/svg">
<path fill-rule="evenodd" clip-rule="evenodd" d="M18.625 1.875C18.625 2.15114 18.4011 2.375 18.125 2.375H1.87503C1.59889 2.375 1.37503 2.15114 1.37503 1.875C1.37503 1.59886 1.59889 1.375 1.87503 1.375H18.125C18.4011 1.375 18.625 1.59886 18.625 1.875Z" fill="white"/>
<path fill-rule="evenodd" clip-rule="evenodd" d="M14.6489 7.29166C14.6489 7.5678 14.4251 7.79166 14.1489 7.79166L1.87503 7.79166C1.59888 7.79166 1.37503 7.5678 1.37503 7.29166C1.37503 7.01552 1.59888 6.79166 1.87503 6.79166L14.1489 6.79166C14.4251 6.79166 14.6489 7.01552 14.6489 7.29166Z" fill="white"/>
<path fill-rule="evenodd" clip-rule="evenodd" d="M9.9814 18.125C9.9814 18.4011 9.75754 18.625 9.4814 18.625H1.87503C1.59889 18.625 1.37503 18.4011 1.37503 18.125C1.37503 17.8489 1.59889 17.625 1.87503 17.625H9.4814C9.75754 17.625 9.9814 17.8489 9.9814 18.125Z" fill="white"/>
<path fill-rule="evenodd" clip-rule="evenodd" d="M12.0558 12.7083C12.0558 12.9845 11.832 13.2083 11.5558 13.2083H1.875C1.59886 13.2083 1.375 12.9845 1.375 12.7083C1.375 12.4322 1.59886 12.2083 1.875 12.2083H11.5558C11.832 12.2083 12.0558 12.4322 12.0558 12.7083Z" fill="white"/>
</svg>
