<svg width="20" height="20" viewBox="0 0 20 20" fill="none" xmlns="http://www.w3.org/2000/svg">
<path d="M4.37501 4.99994L4.37501 6.87494L15.625 6.87494L15.625 4.99994L13.75 4.99994L13.75 5.62494L11.875 5.62494L11.875 4.99994L10 4.99994L10 6.24994L8.12501 6.24994L8.12501 5.62494L6.25001 5.62494L6.25001 4.99994L4.37501 4.99994Z" fill="white"/>
<path d="M4.375 12.5L4.375 14.375L15.625 14.375L15.625 12.5L13.75 12.5L13.75 13.125L11.875 13.125L11.875 12.5L10 12.5L10 13.75L8.125 13.75L8.125 13.125L6.25 13.125L6.25 12.5L4.375 12.5Z" fill="white"/>
<path d="M4.375 9.37496L4.375 10.625L15.625 10.625L15.625 9.99996L13.75 9.99996L13.75 9.37496L11.875 9.37496L11.875 8.74996L10 8.74996L10 8.12496L8.125 8.12496L8.125 9.37496L4.375 9.37496Z" fill="white"/>
<path fill-rule="evenodd" clip-rule="evenodd" d="M15.8333 1.97917L4.16667 1.97917C2.95854 1.97917 1.97917 2.95854 1.97917 4.16667L1.97917 15.8333C1.97917 17.0415 2.95854 18.0208 4.16667 18.0208L15.8333 18.0208C17.0415 18.0208 18.0208 17.0415 18.0208 15.8333L18.0208 4.16667C18.0208 2.95854 17.0415 1.97917 15.8333 1.97917ZM4.16667 1.25C2.55584 1.25 1.25 2.55584 1.25 4.16667L1.25 15.8333C1.25 17.4442 2.55584 18.75 4.16667 18.75L15.8333 18.75C17.4442 18.75 18.75 17.4442 18.75 15.8333L18.75 4.16667C18.75 2.55584 17.4442 1.25 15.8333 1.25L4.16667 1.25Z" fill="white"/>
</svg>
