<svg width="20" height="20" viewBox="0 0 20 20" fill="none" xmlns="http://www.w3.org/2000/svg">
<path fill-rule="evenodd" clip-rule="evenodd" d="M15.1429 3.85715H4.85718C4.30489 3.85715 3.85718 4.30486 3.85718 4.85715V15.1429C3.85718 15.6951 4.30489 16.1429 4.85718 16.1429H15.1429C15.6952 16.1429 16.1429 15.6951 16.1429 15.1429V4.85715C16.1429 4.30486 15.6952 3.85715 15.1429 3.85715ZM4.85718 2.85715C3.75261 2.85715 2.85718 3.75258 2.85718 4.85715V15.1429C2.85718 16.2474 3.75261 17.1429 4.85718 17.1429H15.1429C16.2475 17.1429 17.1429 16.2474 17.1429 15.1429V4.85715C17.1429 3.75258 16.2475 2.85715 15.1429 2.85715H4.85718Z" fill="white"/>
</svg>
