<svg width="20" height="20" viewBox="0 0 20 20" fill="none" xmlns="http://www.w3.org/2000/svg">
<path fill-rule="evenodd" clip-rule="evenodd" d="M15.1429 3.85718H4.85715C4.30486 3.85718 3.85715 4.30489 3.85715 4.85718V15.1429C3.85715 15.6952 4.30486 16.1429 4.85715 16.1429H15.1429C15.6951 16.1429 16.1429 15.6952 16.1429 15.1429V4.85718C16.1429 4.30489 15.6951 3.85718 15.1429 3.85718ZM4.85715 2.85718C3.75258 2.85718 2.85715 3.75261 2.85715 4.85718V15.1429C2.85715 16.2475 3.75258 17.1429 4.85715 17.1429H15.1429C16.2474 17.1429 17.1429 16.2475 17.1429 15.1429V4.85718C17.1429 3.75261 16.2474 2.85718 15.1429 2.85718H4.85715Z" fill="white"/>
<path fill-rule="evenodd" clip-rule="evenodd" d="M7.14285 10.2144C7.14285 9.93821 7.36671 9.71436 7.64285 9.71436H12.0974C12.3735 9.71436 12.5974 9.93821 12.5974 10.2144C12.5974 10.4905 12.3735 10.7144 12.0974 10.7144H7.64285C7.36671 10.7144 7.14285 10.4905 7.14285 10.2144Z" fill="white"/>
</svg>
