<svg width="20" height="20" viewBox="0 0 20 20" fill="none" xmlns="http://www.w3.org/2000/svg">
<path d="M3.84204 5.35715C3.84204 5.21908 3.95397 5.10715 4.09204 5.10715H15.7688C15.9069 5.10715 16.0188 5.21908 16.0188 5.35715C16.0188 5.49522 15.9069 5.60715 15.7688 5.60715H4.09204C3.95397 5.60715 3.84204 5.49522 3.84204 5.35715Z" fill="white"/>
<path d="M4.09204 14.3929C3.95397 14.3929 3.84204 14.5048 3.84204 14.6429C3.84204 14.7809 3.95397 14.8929 4.09204 14.8929H15.7688C15.9069 14.8929 16.0188 14.7809 16.0188 14.6429C16.0188 14.5048 15.9069 14.3929 15.7688 14.3929H4.09204Z" fill="white"/>
<path d="M12.3286 8.39544C11.6746 8.79947 10.9145 9.2691 9.60708 9.52555C9.1825 9.61024 8.61439 9.56524 8.02632 9.4654C7.43024 9.3642 6.78412 9.20115 6.1904 9.03005C5.59589 8.85873 5.04959 8.67808 4.65216 8.54036C4.45332 8.47147 4.29146 8.41322 4.17912 8.37212C4.12294 8.35157 4.07913 8.3353 4.04925 8.32412L4.01506 8.31128L4.00617 8.30792L4.00383 8.30703C3.87482 8.25785 3.80921 8.11305 3.85839 7.98403C3.90758 7.85502 4.05203 7.7903 4.18105 7.83949L4.18356 7.84044L4.19172 7.84353L4.22437 7.8558C4.25321 7.86658 4.2959 7.88243 4.3509 7.90255C4.46091 7.94279 4.62006 8.00007 4.81586 8.06792C5.20771 8.2037 5.74524 8.38142 6.32885 8.5496C6.91325 8.71802 7.53957 8.87561 8.11001 8.97246C8.68803 9.07059 9.18013 9.10104 9.50992 9.03508C10.7227 8.79719 11.4072 8.37558 12.056 7.97564C12.1866 7.89512 12.3159 7.81542 12.4477 7.73832C12.8438 7.50666 13.2621 7.30035 13.7992 7.18484C14.3352 7.06957 14.9749 7.0477 15.8146 7.16384C15.9514 7.18275 16.0469 7.30896 16.028 7.44573C16.0091 7.5825 15.8829 7.67804 15.7461 7.65912C14.9493 7.54892 14.3702 7.57348 13.9043 7.67367C13.4396 7.77361 13.073 7.95179 12.7001 8.16991C12.5781 8.24126 12.4553 8.31713 12.3286 8.39544Z" fill="white"/>
<path fill-rule="evenodd" clip-rule="evenodd" d="M11.9323 11.4487C12.5167 10.9807 13.0323 10.7699 13.4702 10.7041C13.9075 10.6385 14.2833 10.7149 14.5929 10.8467C14.9046 10.9793 15.15 11.1686 15.3183 11.3265C15.402 11.4051 15.4655 11.4749 15.5074 11.5241C15.5283 11.5486 15.5437 11.5679 15.5534 11.5805L15.5638 11.5941L15.5658 11.5968C15.6463 11.7087 15.8021 11.7345 15.9142 11.6543C16.0266 11.574 16.0523 11.4176 15.972 11.3053L15.9712 11.3042L15.9697 11.3021L15.9649 11.2955C15.9609 11.2902 15.9554 11.2829 15.9484 11.2738C15.9343 11.2558 15.9142 11.2306 15.8881 11.1999C15.8359 11.1387 15.7597 11.0551 15.6604 10.962C15.4628 10.7764 15.1691 10.5485 14.7887 10.3866C14.4062 10.2239 13.937 10.1284 13.396 10.2097C12.9892 10.2707 12.551 10.4303 12.0862 10.7242C11.9335 10.8207 11.778 10.9317 11.6197 11.0585C10.4283 12.0127 9.58816 12.1941 8.93093 12.0973C8.37575 12.0156 7.92405 11.7387 7.44359 11.4443L7.44272 11.4437C7.32956 11.3744 7.21481 11.304 7.09672 11.2351L7.09512 11.2341C6.79845 11.0638 6.47186 10.9242 6.14801 10.8104C5.79737 10.6872 5.44995 10.5942 5.14725 10.5253C4.85404 10.4584 4.59838 10.4132 4.41567 10.3846C4.32424 10.3702 4.2509 10.36 4.20004 10.3534C4.1746 10.3501 4.15478 10.3476 4.14111 10.346L4.12529 10.3442L4.12097 10.3437L4.1191 10.3435C3.98184 10.3285 3.85846 10.4277 3.84352 10.5649C3.82858 10.7022 3.92839 10.8256 4.06562 10.8406L4.06868 10.8409L4.0819 10.8425C4.09379 10.8439 4.11177 10.8461 4.13528 10.8492C4.18231 10.8553 4.25142 10.8649 4.33828 10.8785C4.51212 10.9058 4.75629 10.949 5.03618 11.0128C5.59987 11.1412 6.29103 11.3491 6.84533 11.6673C6.94338 11.7246 7.0445 11.7869 7.14904 11.8513C7.63342 12.1499 8.19131 12.4938 8.85808 12.592C9.69817 12.7157 10.6745 12.4561 11.9323 11.4487ZM15.7688 11.4509L15.972 11.3053C15.9721 11.3054 15.9722 11.3055 15.7688 11.4509Z" fill="white"/>
<path fill-rule="evenodd" clip-rule="evenodd" d="M1.375 4.19643C1.375 2.6435 2.6435 1.375 4.19643 1.375H15.8036C17.3565 1.375 18.625 2.6435 18.625 4.19643V15.8036C18.625 17.3565 17.3565 18.625 15.8036 18.625H4.19643C2.6435 18.625 1.375 17.3565 1.375 15.8036V4.19643ZM4.19643 2.375C3.19579 2.375 2.375 3.19579 2.375 4.19643V15.8036C2.375 16.8042 3.19579 17.625 4.19643 17.625H15.8036C16.8042 17.625 17.625 16.8042 17.625 15.8036V4.19643C17.625 3.19579 16.8042 2.375 15.8036 2.375H4.19643Z" fill="white"/>
</svg>
