<svg width="20" height="20" viewBox="0 0 20 20" fill="none" xmlns="http://www.w3.org/2000/svg">
<path fill-rule="evenodd" clip-rule="evenodd" d="M15.8333 1.97917L4.16667 1.97917C2.95854 1.97917 1.97917 2.95854 1.97917 4.16667L1.97917 15.8333C1.97917 17.0415 2.95854 18.0208 4.16667 18.0208L15.8333 18.0208C17.0415 18.0208 18.0208 17.0415 18.0208 15.8333L18.0208 4.16667C18.0208 2.95854 17.0415 1.97917 15.8333 1.97917ZM4.16667 1.25C2.55584 1.25 1.25 2.55584 1.25 4.16667L1.25 15.8333C1.25 17.4442 2.55584 18.75 4.16667 18.75L15.8333 18.75C17.4442 18.75 18.75 17.4442 18.75 15.8333L18.75 4.16667C18.75 2.55584 17.4442 1.25 15.8333 1.25L4.16667 1.25Z" fill="white"/>
<path fill-rule="evenodd" clip-rule="evenodd" d="M12.458 5.44708C12.1732 5.30119 11.8312 5.34187 11.5867 5.55071L8.74128 7.98058C8.42448 8.25112 8.02515 8.39928 7.61277 8.39928L4.23083 8.39928C3.96531 8.39928 3.75007 8.1787 3.75007 7.90661C3.75007 7.63452 3.96531 7.41394 4.23083 7.41394L7.61277 7.41394C7.80022 7.41394 7.98173 7.3466 8.12573 7.22363L10.9711 4.79376C11.5092 4.3343 12.2616 4.24481 12.888 4.56578L15.9841 6.15218C16.2216 6.27386 16.3179 6.56979 16.1991 6.81316C16.0804 7.05653 15.7916 7.15517 15.5541 7.03349L12.458 5.44708ZM14.4167 9.05616C14.0962 9.05616 13.8065 9.25192 13.6802 9.55382L12.1817 13.137L13.0009 13.8086C13.3798 14.1192 13.9389 14.0162 14.1886 13.5899L15.3569 11.5945C15.4935 11.3611 15.7888 11.2855 16.0165 11.4255C16.2442 11.5655 16.318 11.8681 16.1814 12.1014L15.0131 14.0968C14.4639 15.0348 13.2337 15.2613 12.4003 14.578L11.7887 14.0767L11.599 14.5302C11.3213 15.1944 10.6839 15.625 9.97877 15.625L4.23083 15.625C3.96531 15.625 3.75007 15.4045 3.75007 15.1324C3.75007 14.8603 3.96531 14.6397 4.23083 14.6397L9.97877 14.6397C10.2993 14.6397 10.589 14.444 10.7153 14.1421L11.0097 13.438L7.83167 10.8326C7.57014 10.6182 7.20607 10.5931 6.91887 10.7697L4.47818 12.2704C4.2505 12.4104 3.95519 12.3347 3.81858 12.1014C3.68197 11.8681 3.7558 11.5655 3.98348 11.4255L6.42417 9.92481C7.056 9.53632 7.85696 9.59153 8.43233 10.0632L11.4027 12.4983L12.7965 9.16568C13.0742 8.50148 13.7116 8.07083 14.4167 8.07083L15.7691 8.07083C16.0346 8.07083 16.2499 8.29141 16.2499 8.5635C16.2499 8.83559 16.0346 9.05616 15.7691 9.05616L14.4167 9.05616Z" fill="white"/>
</svg>
