<svg width="20" height="20" viewBox="0 0 20 20" fill="none" xmlns="http://www.w3.org/2000/svg">
<path d="M7.64307 9.71426C7.36692 9.71426 7.14307 9.93812 7.14307 10.2143C7.14307 10.4904 7.36692 10.7143 7.64307 10.7143H12.0976C12.3738 10.7143 12.5976 10.4904 12.5976 10.2143C12.5976 9.93812 12.3738 9.71426 12.0976 9.71426H7.64307Z" fill="white"/>
<path fill-rule="evenodd" clip-rule="evenodd" d="M2.85693 4.85712C2.85693 3.75255 3.75236 2.85712 4.85693 2.85712H15.1426C16.2472 2.85712 17.1426 3.75255 17.1426 4.85712V15.1428C17.1426 16.2474 16.2472 17.1428 15.1426 17.1428H4.85694C3.75237 17.1428 2.85693 16.2474 2.85693 15.1428V4.85712ZM4.85693 3.85712H15.1426C15.6949 3.85712 16.1426 4.30483 16.1426 4.85712V15.1428C16.1426 15.6951 15.6949 16.1428 15.1426 16.1428H4.85694C4.30465 16.1428 3.85693 15.6951 3.85693 15.1428V4.85712C3.85693 4.30483 4.30465 3.85712 4.85693 3.85712Z" fill="white"/>
</svg>
