<svg width="20" height="20" viewBox="0 0 20 20" fill="none" xmlns="http://www.w3.org/2000/svg">
<path d="M12.0063 4.86781C11.9193 4.82313 11.8142 4.83328 11.7374 4.89381L8.03311 7.81163H4.19653C4.05846 7.81163 3.94653 7.92355 3.94653 8.06163C3.94653 8.1997 4.05846 8.31163 4.19653 8.31163H8.11975C8.17587 8.31163 8.23036 8.29274 8.27444 8.25802L11.9207 5.38592L15.1903 7.06526C15.3132 7.12834 15.4639 7.07991 15.527 6.95709C15.59 6.83427 15.5416 6.68357 15.4188 6.62049L12.0063 4.86781Z" fill="white"/>
<path d="M7.73386 9.79865C7.65345 9.73947 7.54555 9.73381 7.45939 9.78425L4.12814 11.7342C4.00898 11.804 3.96893 11.9571 4.03868 12.0763C4.10843 12.1955 4.26157 12.2355 4.38073 12.1658L7.57001 10.2989L11.2245 12.9882L10.5455 14.5204H4.19653C4.05846 14.5204 3.94653 14.6324 3.94653 14.7704C3.94653 14.9085 4.05846 15.0204 4.19653 15.0204H10.7081C10.807 15.0204 10.8966 14.9621 10.9367 14.8717L11.6369 13.2917L13.1947 14.438C13.3037 14.5182 13.4569 14.4971 13.5401 14.3902L15.5017 11.8715C15.5865 11.7625 15.567 11.6055 15.458 11.5206C15.3491 11.4358 15.192 11.4553 15.1072 11.5642L13.2951 13.8911L11.8444 12.8235L13.5404 8.99634H15.3046C15.4426 8.99634 15.5546 8.88441 15.5546 8.74634C15.5546 8.60827 15.4426 8.49634 15.3046 8.49634H13.3778C13.2789 8.49634 13.1893 8.55463 13.1492 8.64505L11.432 12.52L7.73386 9.79865Z" fill="white"/>
<path fill-rule="evenodd" clip-rule="evenodd" d="M4.19643 1.375C2.6435 1.375 1.375 2.6435 1.375 4.19643V15.8036C1.375 17.3565 2.6435 18.625 4.19643 18.625H15.8036C17.3565 18.625 18.625 17.3565 18.625 15.8036V4.19643C18.625 2.6435 17.3565 1.375 15.8036 1.375H4.19643ZM2.375 4.19643C2.375 3.19579 3.19579 2.375 4.19643 2.375H15.8036C16.8042 2.375 17.625 3.19579 17.625 4.19643V15.8036C17.625 16.8042 16.8042 17.625 15.8036 17.625H4.19643C3.19579 17.625 2.375 16.8042 2.375 15.8036V4.19643Z" fill="white"/>
</svg>
