<svg width="20" height="20" viewBox="0 0 20 20" fill="none" xmlns="http://www.w3.org/2000/svg">
<path fill-rule="evenodd" clip-rule="evenodd" d="M15.8333 1.97917H4.16667C2.95854 1.97917 1.97917 2.95854 1.97917 4.16667V15.8333C1.97917 17.0415 2.95854 18.0208 4.16667 18.0208H15.8333C17.0415 18.0208 18.0208 17.0415 18.0208 15.8333V4.16667C18.0208 2.95854 17.0415 1.97917 15.8333 1.97917ZM4.16667 1.25C2.55584 1.25 1.25 2.55584 1.25 4.16667V15.8333C1.25 17.4442 2.55584 18.75 4.16667 18.75H15.8333C17.4442 18.75 18.75 17.4442 18.75 15.8333V4.16667C18.75 2.55584 17.4442 1.25 15.8333 1.25H4.16667Z" fill="white"/>
<path fill-rule="evenodd" clip-rule="evenodd" d="M15.2792 9.9731C14.7472 9.96351 14.1486 9.96444 13.7964 9.99946C12.9103 10.0876 12.4145 10.4434 11.8376 10.8596L11.8351 10.8615C11.2427 11.2888 10.5703 11.7738 9.41591 11.875C8.20084 11.9815 6.72198 11.6454 5.58744 11.3058C5.01169 11.1334 4.50824 10.955 4.14857 10.8197C3.96856 10.752 3.82409 10.6948 3.72407 10.6544C3.67404 10.6342 3.6351 10.6181 3.60835 10.607L3.57749 10.594L3.56917 10.5905L3.56683 10.5895C3.56683 10.5895 3.56572 10.5891 3.74785 10.163L3.56683 10.5895C3.32879 10.4878 3.21721 10.2118 3.31898 9.97377C3.42073 9.73576 3.69615 9.62528 3.93417 9.72699L3.93573 9.72765L3.94204 9.73032L3.96872 9.7415C3.99262 9.75145 4.02855 9.76628 4.07542 9.78522C4.16918 9.82312 4.30655 9.87746 4.47874 9.94226C4.82349 10.072 5.30598 10.2429 5.85627 10.4076C6.9738 10.7421 8.30745 11.031 9.33407 10.9411C10.2196 10.8635 10.7148 10.5136 11.2891 10.0993L11.3088 10.0851C11.8944 9.66257 12.5632 9.17997 13.7036 9.06656C14.1184 9.02532 14.7697 9.02626 15.2961 9.03575C15.5638 9.04058 15.807 9.04781 15.9832 9.05383C16.0714 9.05685 16.143 9.05956 16.1926 9.06153L16.25 9.06386L16.2705 9.06474C16.5291 9.07612 16.7297 9.29502 16.7183 9.55366C16.7069 9.81229 16.488 10.0127 16.2294 10.0013L16.2107 10.0005L16.1555 9.99829C16.1073 9.99638 16.0375 9.99373 15.9512 9.99079C15.7785 9.98489 15.5406 9.97781 15.2792 9.9731Z" fill="white"/>
<path fill-rule="evenodd" clip-rule="evenodd" d="M16.3409 5.36384L16.3332 5.36579L16.3091 5.37189L16.2154 5.39599C16.1339 5.41715 16.0158 5.4482 15.8706 5.4876C15.6707 5.54183 15.4647 5.42375 15.4105 5.22387C15.3563 5.02399 15.4743 4.81799 15.6742 4.76376C15.8224 4.72356 15.9431 4.6918 16.027 4.67003L16.1241 4.64506L16.1498 4.63855L16.1583 4.63641C16.3592 4.58618 16.5636 4.70816 16.6138 4.90909C16.664 5.11001 16.5419 5.31361 16.3409 5.36384ZM15.1793 5.28972C15.2389 5.48805 15.1265 5.69719 14.9282 5.75685C14.6306 5.84638 14.312 5.94685 13.9983 6.05386C13.8023 6.12075 13.5892 6.01607 13.5223 5.82006C13.4554 5.62405 13.5601 5.41094 13.7561 5.34405C14.0804 5.23338 14.4081 5.13011 14.7121 5.03864C14.9105 4.97898 15.1196 5.0914 15.1793 5.28972ZM13.296 5.90131C13.3759 6.09241 13.2856 6.31204 13.0945 6.39186C12.9386 6.45699 12.795 6.52182 12.6677 6.58547C12.5344 6.65211 12.4096 6.72992 12.2904 6.81696C12.1231 6.93907 11.8885 6.90246 11.7664 6.73519C11.6443 6.56791 11.6809 6.33331 11.8481 6.2112C11.997 6.10255 12.1573 6.00212 12.3323 5.91465C12.4784 5.8416 12.638 5.76973 12.8055 5.6998C12.9966 5.61998 13.2162 5.7102 13.296 5.90131ZM11.5819 6.92371C11.7335 7.06478 11.7421 7.30207 11.601 7.45369C11.5298 7.53018 11.4562 7.61143 11.3809 7.6946C11.2267 7.86483 11.0652 8.0431 10.9025 8.20496C10.7557 8.35103 10.5182 8.35042 10.3721 8.2036C10.2261 8.05677 10.2267 7.81934 10.3735 7.67327C10.5232 7.52436 10.6608 7.37238 10.8062 7.21167C10.8848 7.12489 10.9656 7.03557 11.0519 6.94281C11.193 6.79118 11.4303 6.78263 11.5819 6.92371ZM3.38619 8.03411C3.43642 7.83319 3.64002 7.71103 3.84094 7.76126C4.07525 7.81983 4.31129 7.88606 4.54719 7.95426C4.74615 8.01178 4.86081 8.21969 4.80329 8.41865C4.74578 8.61761 4.53786 8.73227 4.3389 8.67475C4.10596 8.60741 3.88014 8.54414 3.65904 8.48886C3.45812 8.43863 3.33596 8.23503 3.38619 8.03411ZM10.1713 8.37824C10.2698 8.56041 10.202 8.78796 10.0198 8.88649C9.85409 8.97613 9.67562 9.05201 9.48145 9.1095C9.22823 9.18448 8.97854 9.23995 8.73239 9.27867C8.52779 9.31085 8.33585 9.17108 8.30367 8.96649C8.2715 8.7619 8.41126 8.56996 8.61586 8.53778C8.83013 8.50408 9.04759 8.45578 9.26852 8.39036C9.40977 8.34854 9.54019 8.29324 9.66303 8.2268C9.8452 8.12827 10.0728 8.19608 10.1713 8.37824ZM5.46304 8.61219C5.51297 8.41119 5.71638 8.28872 5.91738 8.33865C6.36308 8.44936 6.81346 8.53763 7.2736 8.57758C7.47993 8.5955 7.63267 8.77729 7.61476 8.98362C7.59684 9.18995 7.41505 9.34269 7.20872 9.32477C6.69665 9.2803 6.20538 9.18298 5.73658 9.06653C5.53558 9.01661 5.41311 8.81319 5.46304 8.61219ZM16.1764 11.6324C16.1068 11.6185 15.9886 11.6217 15.8129 11.6649C15.6118 11.7143 15.4087 11.5914 15.3592 11.3902C15.3098 11.1891 15.4328 10.986 15.6339 10.9366C15.859 10.8812 16.1 10.8523 16.3235 10.897C16.5266 10.9376 16.6583 11.1352 16.6177 11.3383C16.5771 11.5414 16.3795 11.6731 16.1764 11.6324ZM15.0699 11.5268C15.1645 11.711 15.0918 11.937 14.9076 12.0316C14.6081 12.1854 14.3009 12.3663 14.0134 12.5476C13.8383 12.6581 13.6067 12.6057 13.4962 12.4305C13.3857 12.2553 13.4381 12.0237 13.6133 11.9133C13.9129 11.7243 14.24 11.5313 14.565 11.3644C14.7493 11.2698 14.9753 11.3425 15.0699 11.5268ZM13.2345 12.6074C13.3546 12.7761 13.3152 13.0103 13.1465 13.1304C13.0168 13.2226 12.9117 13.2998 12.8392 13.3537C12.803 13.3806 12.775 13.4017 12.7562 13.4159L12.7457 13.4239L12.7334 13.4359C12.714 13.4546 12.686 13.4812 12.6499 13.5146C12.5779 13.5812 12.4737 13.6747 12.3425 13.7846C12.1837 13.9176 11.9472 13.8967 11.8142 13.7379C11.6812 13.5791 11.7021 13.3426 11.8609 13.2096C11.9816 13.1085 12.0765 13.0233 12.1407 12.964C12.1727 12.9343 12.197 12.9112 12.2129 12.8959L12.2304 12.8789L12.7116 12.5193M13.2345 12.6074C13.1144 12.4387 12.8803 12.3992 12.7116 12.5193ZM12.7116 12.5193C12.5771 12.615 12.4677 12.6953 12.3917 12.7518ZM12.3917 12.7518C12.3536 12.7801 12.3239 12.8025 12.3035 12.8179ZM12.3035 12.8179L12.2801 12.8358ZM12.2801 12.8358L12.2738 12.8406ZM12.2738 12.8406L12.2721 12.8419ZM12.2721 12.8419L12.7116 12.5193ZM3.38619 13.0487C3.43642 12.8477 3.64002 12.7256 3.84094 12.7758C4.09422 12.8391 4.32571 12.9239 4.54265 13.0217C4.73146 13.1068 4.81552 13.3288 4.7304 13.5176C4.64528 13.7064 4.42322 13.7905 4.23442 13.7054C4.05234 13.6233 3.86317 13.5544 3.65904 13.5034C3.45812 13.4532 3.33596 13.2496 3.38619 13.0487ZM5.24362 13.8394C5.35317 13.6637 5.58446 13.61 5.76022 13.7195C6.11836 13.9427 6.47534 14.1523 6.89614 14.3161C7.08913 14.3913 7.18468 14.6086 7.10955 14.8016C7.03442 14.9946 6.81705 15.0902 6.62405 15.0151C6.13581 14.825 5.73059 14.5848 5.36353 14.356C5.18776 14.2465 5.13408 14.0152 5.24362 13.8394ZM11.5563 13.93C11.669 14.1038 11.6194 14.336 11.4457 14.4487C11.1499 14.6405 10.8145 14.8315 10.4541 14.9908C10.2647 15.0745 10.0432 14.9888 9.95954 14.7993C9.87583 14.6099 9.96154 14.3885 10.151 14.3048C10.4671 14.1651 10.7672 13.9948 11.0376 13.8194C11.2114 13.7067 11.4436 13.7563 11.5563 13.93ZM9.6523 14.903C9.6877 15.107 9.55098 15.3012 9.34692 15.3366C9.15151 15.3705 8.95182 15.3896 8.74997 15.3896C8.49633 15.3896 8.25834 15.3768 8.03386 15.353C7.82791 15.3311 7.67867 15.1465 7.70053 14.9405C7.72239 14.7346 7.90707 14.5853 8.11302 14.6072C8.31006 14.6281 8.52162 14.6396 8.75001 14.6396C8.90445 14.6396 9.06105 14.625 9.21872 14.5976C9.42278 14.5622 9.6169 14.6989 9.6523 14.903Z" fill="white"/>
</svg>
