<svg width="20" height="20" viewBox="0 0 20 20" fill="none" xmlns="http://www.w3.org/2000/svg">
<path d="M4.77686 7.36516V5.62408H6.51793V6.20444H8.259V6.7848H10.0001V5.62408H11.7411V6.20444H13.4822V5.62408H15.2233V7.36516H4.77686Z" fill="white"/>
<path d="M4.77684 14.3759V12.6348H6.51791V13.2152H8.25899V13.7956H10.0001V12.6348H11.7411V13.2152H13.4822V12.6348H15.2233V14.3759H4.77684Z" fill="white"/>
<path d="M4.77684 9.73305V10.8938H15.2233V10.3134H13.4822V9.73305H11.7411V9.1527H10.0001V8.57234H8.25899V9.73305H4.77684Z" fill="white"/>
<path fill-rule="evenodd" clip-rule="evenodd" d="M4.19643 1.375C2.6435 1.375 1.375 2.6435 1.375 4.19643V15.8036C1.375 17.3565 2.6435 18.625 4.19643 18.625H15.8036C17.3549 18.625 18.625 17.3697 18.625 15.8036V4.19643C18.625 2.6435 17.3565 1.375 15.8036 1.375H4.19643ZM2.375 4.19643C2.375 3.19579 3.19579 2.375 4.19643 2.375H15.8036C16.8042 2.375 17.625 3.19579 17.625 4.19643V15.8036C17.625 16.8142 16.8058 17.625 15.8036 17.625H4.19643C3.19579 17.625 2.375 16.8042 2.375 15.8036V4.19643Z" fill="white"/>
</svg>
