<svg width="20" height="20" viewBox="0 0 20 20" fill="none" xmlns="http://www.w3.org/2000/svg">
<path fill-rule="evenodd" clip-rule="evenodd" d="M15.8333 1.97917H4.16667C2.95854 1.97917 1.97917 2.95854 1.97917 4.16667V15.8333C1.97917 17.0415 2.95854 18.0208 4.16667 18.0208H15.8333C17.0415 18.0208 18.0208 17.0415 18.0208 15.8333V4.16667C18.0208 2.95854 17.0415 1.97917 15.8333 1.97917ZM4.16667 1.25C2.55584 1.25 1.25 2.55584 1.25 4.16667V15.8333C1.25 17.4442 2.55584 18.75 4.16667 18.75H15.8333C17.4442 18.75 18.75 17.4442 18.75 15.8333V4.16667C18.75 2.55584 17.4442 1.25 15.8333 1.25H4.16667Z" fill="white"/>
<path fill-rule="evenodd" clip-rule="evenodd" d="M15.2792 7.31514C14.7472 7.30555 14.1486 7.30648 13.7964 7.34151C12.9103 7.42963 12.4145 7.7855 11.8376 8.2017L11.8351 8.2035C11.2427 8.63085 10.5703 9.11589 9.41591 9.21705C8.20084 9.32351 6.72198 8.98741 5.58744 8.64781C5.01169 8.47547 4.50824 8.29708 4.14857 8.16174C3.96856 8.094 3.82409 8.03687 3.72407 7.99644C3.67404 7.97622 3.6351 7.96016 3.60835 7.94902L3.57749 7.93609L3.56917 7.93257L3.56683 7.93157C3.56683 7.93157 3.56572 7.9311 3.74785 7.50508L3.56683 7.93157C3.32879 7.8298 3.21721 7.55386 3.31898 7.31582C3.42073 7.07781 3.69615 6.96733 3.93417 7.06904L3.93573 7.0697L3.94204 7.07237L3.96872 7.08355C3.99262 7.0935 4.02855 7.10832 4.07542 7.12727C4.16918 7.16517 4.30655 7.21951 4.47874 7.2843C4.82349 7.41403 5.30598 7.58496 5.85627 7.74968C6.9738 8.08419 8.30745 8.37308 9.33407 8.28313C10.2196 8.20554 10.7148 7.85569 11.2891 7.44139L11.3088 7.42718C11.8944 7.00461 12.5632 6.52202 13.7036 6.40861C14.1184 6.36736 14.7697 6.36831 15.2961 6.3778C15.5638 6.38262 15.807 6.38986 15.9832 6.39588C16.0714 6.39889 16.143 6.40161 16.1926 6.40357L16.25 6.40591L16.2705 6.40678C16.5291 6.41817 16.7297 6.63707 16.7183 6.8957C16.7069 7.15433 16.488 7.35476 16.2294 7.34338L16.2107 7.34259L16.1555 7.34034C16.1073 7.33843 16.0375 7.33578 15.9512 7.33283C15.7785 7.32693 15.5406 7.31986 15.2792 7.31514Z" fill="white"/>
<path fill-rule="evenodd" clip-rule="evenodd" d="M3.28124 5.00009C3.28124 4.7412 3.49111 4.53134 3.74999 4.53134H16.25C16.5089 4.53134 16.7187 4.7412 16.7187 5.00009C16.7187 5.25897 16.5089 5.46884 16.25 5.46884H3.74999C3.49111 5.46884 3.28124 5.25897 3.28124 5.00009ZM14.6954 11.2636C13.898 10.8496 12.8757 11.1066 12.1229 11.8102C11.6587 12.2442 11.0917 12.6914 10.5084 12.9331C9.06907 13.5295 7.9716 13.0097 6.97738 12.4569C6.88321 12.4045 6.78986 12.3519 6.69692 12.2995C5.79216 11.7895 4.79491 11.3022 3.74999 11.3022C3.49111 11.3022 3.28124 11.0923 3.28124 10.8334C3.28124 10.5745 3.49111 10.3647 3.74999 10.3647C5.18698 10.3647 6.26186 10.9743 7.15168 11.479C7.24752 11.5333 7.34122 11.5865 7.43299 11.6375C8.39348 12.1716 9.14025 12.4852 10.1495 12.067C10.577 11.8899 11.0458 11.5338 11.4827 11.1253C12.4234 10.2461 13.8676 9.77747 15.1274 10.4316C15.6562 10.7062 16.2166 11.0251 16.5524 11.3086C16.7502 11.4756 16.7752 11.7714 16.6081 11.9692C16.4411 12.167 16.1454 12.1919 15.9476 12.0249C15.7012 11.8169 15.2279 11.5401 14.6954 11.2636ZM3.28124 15.0001C3.28124 14.7412 3.49111 14.5313 3.74999 14.5313H16.25C16.5089 14.5313 16.7187 14.7412 16.7187 15.0001C16.7187 15.259 16.5089 15.4688 16.25 15.4688H3.74999C3.49111 15.4688 3.28124 15.259 3.28124 15.0001Z" fill="white"/>
</svg>
