<svg width="20" height="20" viewBox="0 0 20 20" fill="none" xmlns="http://www.w3.org/2000/svg">
<path d="M15.2745 12.2173C15.1365 12.215 15.0227 12.325 15.0204 12.4631C15.0181 12.6011 15.1282 12.7149 15.2662 12.7172C15.4288 12.7199 15.5997 12.7256 15.7808 12.7337C15.9187 12.7399 16.0356 12.6331 16.0418 12.4952C16.048 12.3573 15.9412 12.2404 15.8033 12.2342C15.6184 12.2259 15.4427 12.2201 15.2745 12.2173Z" fill="white"/>
<path d="M14.2538 12.7496C14.3912 12.7365 14.492 12.6144 14.4788 12.477C14.4657 12.3395 14.3436 12.2388 14.2062 12.2519C13.8353 12.2873 13.4896 12.3504 13.1394 12.449C13.0065 12.4864 12.929 12.6245 12.9665 12.7574C13.0039 12.8903 13.1419 12.9677 13.2748 12.9303C13.5947 12.8403 13.9108 12.7824 14.2538 12.7496Z" fill="white"/>
<path fill-rule="evenodd" clip-rule="evenodd" d="M4.22956 12.8148L4.22861 12.814C4.12242 12.7258 3.96477 12.7403 3.87655 12.8465C3.78831 12.9527 3.80292 13.1104 3.90911 13.1986L3.90993 13.1993L3.91171 13.2008L3.91797 13.2059L3.94103 13.2245C3.96102 13.2405 3.99013 13.2635 4.02772 13.2923C4.10287 13.35 4.21206 13.4312 4.35011 13.5271C4.46353 13.6058 4.6193 13.5777 4.69805 13.4643C4.77679 13.3509 4.74868 13.1951 4.63527 13.1164C4.50443 13.0255 4.40169 12.9491 4.33214 12.8957C4.29737 12.869 4.27093 12.8481 4.25346 12.8341L4.23406 12.8185L4.22956 12.8148ZM4.06883 13.0063C3.90905 13.1986 3.90911 13.1986 3.90911 13.1986L4.06883 13.0063Z" fill="white"/>
<path d="M12.3318 13.2782C12.458 13.2221 12.5148 13.0743 12.4586 12.9482C12.4025 12.822 12.2548 12.7652 12.1286 12.8213C11.8346 12.9522 11.5224 13.1074 11.1787 13.2897C11.0568 13.3545 11.0104 13.5058 11.0751 13.6278C11.1398 13.7497 11.2911 13.7961 11.4131 13.7314C11.7503 13.5525 12.0516 13.4029 12.3318 13.2782Z" fill="white"/>
<path d="M5.51198 13.6561C5.39057 13.5904 5.23885 13.6355 5.1731 13.7569C5.10735 13.8783 5.15247 14.03 5.27389 14.0958C5.57003 14.2561 5.90372 14.4163 6.26249 14.5543C6.39136 14.6038 6.536 14.5395 6.58555 14.4106C6.6351 14.2818 6.5708 14.1371 6.44192 14.0876C6.1068 13.9587 5.79283 13.8082 5.51198 13.6561Z" fill="white"/>
<path d="M10.5071 14.2306C10.6272 14.1626 10.6695 14.0101 10.6016 13.8899C10.5336 13.7698 10.3811 13.7274 10.2609 13.7954C10.1152 13.8778 9.9636 13.9643 9.80588 14.0547C9.66092 14.138 9.51362 14.2066 9.36471 14.2621C9.23535 14.3104 9.16958 14.4544 9.21782 14.5837C9.26606 14.7131 9.41005 14.7789 9.53941 14.7306C9.71368 14.6657 9.88567 14.5855 10.0548 14.4883C10.2119 14.3983 10.3624 14.3124 10.5071 14.2306Z" fill="white"/>
<path d="M7.41474 14.3731C7.27926 14.3464 7.14785 14.4347 7.12122 14.5702C7.09459 14.7056 7.18283 14.837 7.3183 14.8637C7.67865 14.9345 8.05272 14.9703 8.43032 14.9527C8.56824 14.9463 8.67485 14.8293 8.66844 14.6914C8.66202 14.5534 8.54502 14.4468 8.4071 14.4533C8.07601 14.4686 7.74254 14.4375 7.41474 14.3731Z" fill="white"/>
<path fill-rule="evenodd" clip-rule="evenodd" d="M13.5342 9.20902C13.6082 9.2025 13.6796 9.19848 13.7485 9.19667C14.3666 9.18049 14.7891 9.33539 15.2411 9.50108C15.3974 9.55838 15.5574 9.617 15.73 9.67025C15.862 9.71094 16.0019 9.63697 16.0426 9.50503C16.0833 9.37309 16.0093 9.23315 15.8774 9.19246C15.7449 9.15161 15.6092 9.10166 15.4671 9.04934C14.9975 8.87651 14.4579 8.67792 13.7354 8.69684C13.1123 8.71316 12.3542 8.88571 11.3509 9.33484L9.55839 10.4761L7.79359 10.9374L5.74132 10.7135L4.20868 9.74642C4.09428 9.66925 3.93896 9.69937 3.86171 9.81374C3.78442 9.92816 3.81452 10.0836 3.92894 10.1608L4.06887 9.95368C3.92894 10.1608 3.92894 10.1608 3.92894 10.1608L3.93009 10.1616L3.93237 10.1631L3.94026 10.1684L3.96909 10.1871C3.99401 10.2031 4.03018 10.2258 4.07672 10.2539C4.16976 10.3102 4.30447 10.388 4.47373 10.4761C4.81174 10.6521 5.29036 10.8708 5.85235 11.0403C6.97092 11.3779 8.45814 11.5314 9.81542 10.7135C11.5882 9.65306 12.7229 9.28054 13.5342 9.20902ZM11.3509 9.33484C10.8258 9.56992 10.2335 9.8808 9.55839 10.2847C8.37381 10.9987 7.05156 10.8799 5.99678 10.5617C5.47206 10.4033 5.02282 10.1983 4.70467 10.0326C4.54585 9.94994 4.42039 9.8774 4.33529 9.82598C4.29276 9.80029 4.26037 9.77989 4.23898 9.76618L4.21529 9.75081L4.20986 9.74721L4.20868 9.74642L5.74132 10.7135L7.79359 10.9374L9.55839 10.4761L11.3509 9.33484Z" fill="white"/>
<path d="M15.2745 5.04418C15.1365 5.04188 15.0227 5.15193 15.0204 5.28998C15.0181 5.42803 15.1282 5.54181 15.2662 5.54411C15.4288 5.54682 15.5997 5.55244 15.7808 5.56059C15.9187 5.5668 16.0356 5.46001 16.0418 5.32208C16.048 5.18415 15.9412 5.0673 15.8033 5.06109C15.6184 5.05278 15.4427 5.04698 15.2745 5.04418Z" fill="white"/>
<path d="M14.2538 5.57651C14.3912 5.56338 14.492 5.44132 14.4788 5.30387C14.4657 5.16643 14.3436 5.06565 14.2062 5.07878C13.8353 5.11421 13.4896 5.17729 13.1394 5.2759C13.0065 5.31331 12.929 5.45138 12.9665 5.58428C13.0039 5.71719 13.1419 5.7946 13.2748 5.75719C13.5947 5.66716 13.9108 5.60927 14.2538 5.57651Z" fill="white"/>
<path d="M4.22956 5.64167L4.22861 5.64089C4.12242 5.55272 3.96477 5.56722 3.87655 5.67338C3.78831 5.77958 3.80292 5.93725 3.90911 6.02549L3.90993 6.02617L3.91171 6.02764L3.91797 6.03277L3.94103 6.05139C3.96102 6.06738 3.99013 6.09036 4.02772 6.11921C4.10287 6.17689 4.21206 6.25814 4.35011 6.35399C4.46353 6.43273 4.6193 6.40462 4.69805 6.29121C4.77679 6.17779 4.74868 6.02202 4.63527 5.94327C4.50443 5.85244 4.40169 5.77595 4.33214 5.72257C4.29737 5.69588 4.27093 5.675 4.25346 5.66102L4.23406 5.64536L4.22956 5.64167Z" fill="white"/>
<path d="M12.3318 6.10507C12.458 6.04896 12.5148 5.9012 12.4586 5.77505C12.4025 5.64889 12.2548 5.59212 12.1286 5.64824C11.8346 5.77904 11.5224 5.93427 11.1787 6.11664C11.0568 6.18135 11.0104 6.33269 11.0751 6.45465C11.1398 6.57662 11.2911 6.62303 11.4131 6.55831C11.7503 6.3794 12.0516 6.22976 12.3318 6.10507Z" fill="white"/>
<path d="M5.51198 6.48299C5.39057 6.41724 5.23885 6.46237 5.1731 6.58378C5.10735 6.70519 5.15247 6.85691 5.27389 6.92266C5.57003 7.08304 5.90372 7.24322 6.26249 7.38116C6.39136 7.43071 6.536 7.36641 6.58555 7.23753C6.6351 7.10866 6.5708 6.96402 6.44192 6.91447C6.1068 6.78562 5.79283 6.63508 5.51198 6.48299Z" fill="white"/>
<path d="M10.5071 7.05751C10.6272 6.98953 10.6695 6.837 10.6016 6.71682C10.5336 6.59665 10.3811 6.55433 10.2609 6.62231C10.1152 6.70471 9.9636 6.79118 9.80588 6.88158C9.66092 6.96488 9.51362 7.03351 9.36471 7.08904C9.23535 7.13728 9.16958 7.28126 9.21782 7.41063C9.26606 7.54 9.41005 7.60577 9.53941 7.55753C9.71368 7.49254 9.88567 7.41241 10.0548 7.31524C10.2119 7.22517 10.3624 7.13932 10.5071 7.05751Z" fill="white"/>
<path d="M7.41474 7.19995C7.27926 7.17332 7.14785 7.26156 7.12122 7.39704C7.09459 7.53252 7.18283 7.66393 7.3183 7.69056C7.67865 7.76139 8.05272 7.79716 8.43032 7.7796C8.56824 7.77319 8.67485 7.65618 8.66844 7.51826C8.66202 7.38034 8.54502 7.27373 8.4071 7.28014C8.07601 7.29553 7.74254 7.26438 7.41474 7.19995Z" fill="white"/>
<path fill-rule="evenodd" clip-rule="evenodd" d="M4.19643 1.375C2.6435 1.375 1.375 2.6435 1.375 4.19643V15.8036C1.375 17.3565 2.6435 18.625 4.19643 18.625H15.8036C17.3565 18.625 18.625 17.3565 18.625 15.8036V4.19643C18.625 2.6435 17.3565 1.375 15.8036 1.375H4.19643ZM2.375 4.19643C2.375 3.19579 3.19579 2.375 4.19643 2.375H15.8036C16.8042 2.375 17.625 3.19579 17.625 4.19643V15.8036C17.625 16.8042 16.8042 17.625 15.8036 17.625H4.19643C3.19579 17.625 2.375 16.8042 2.375 15.8036V4.19643Z" fill="white"/>
</svg>
