<svg width="20" height="20" viewBox="0 0 20 20" fill="none" xmlns="http://www.w3.org/2000/svg">
<path d="M6.33228 15C6.33228 14.7239 6.55614 14.5 6.83228 14.5H13.1676C13.4438 14.5 13.6676 14.7239 13.6676 15C13.6676 15.2762 13.4438 15.5 13.1676 15.5H6.83228C6.55614 15.5 6.33228 15.2762 6.33228 15Z" fill="white"/>
<path d="M6.83228 11.3753C6.55614 11.3753 6.33228 11.5991 6.33228 11.8753C6.33228 12.1514 6.55614 12.3753 6.83228 12.3753H13.1676C13.4438 12.3753 13.6676 12.1514 13.6676 11.8753C13.6676 11.5991 13.4438 11.3753 13.1676 11.3753H6.83228Z" fill="white"/>
<path d="M6.33228 8.75029C6.33228 8.47415 6.55613 8.25029 6.83228 8.25029H9.36641C9.64255 8.25029 9.86641 8.47415 9.86641 8.75029C9.86641 9.02643 9.64255 9.25029 9.36641 9.25029H6.83228C6.55613 9.25029 6.33228 9.02643 6.33228 8.75029Z" fill="white"/>
<path fill-rule="evenodd" clip-rule="evenodd" d="M8.83827 2.62522C9.03376 2.18367 9.48033 1.87508 9.99997 1.87508C10.5196 1.87508 10.9662 2.18367 11.1617 2.62522H12.5341C12.8102 2.62522 13.0341 2.84908 13.0341 3.12522V3.87508H15.0186C15.847 3.87508 16.5186 4.54665 16.5186 5.37508V17.1252C16.5186 17.9536 15.847 18.6252 15.0186 18.6252H4.98144C4.15302 18.6252 3.48145 17.9536 3.48145 17.1252V5.37508C3.48145 4.54665 4.15302 3.87508 4.98145 3.87508H6.96582V3.12522C6.96582 2.84908 7.18968 2.62522 7.46582 2.62522H8.83827ZM6.96582 5.00024V4.87508H4.98145C4.7053 4.87508 4.48145 5.09893 4.48145 5.37508V17.1252C4.48145 17.4013 4.7053 17.6252 4.98144 17.6252H15.0186C15.2947 17.6252 15.5186 17.4013 15.5186 17.1252V5.37508C15.5186 5.09893 15.2947 4.87508 15.0186 4.87508H13.0341V5.00024C13.0341 5.27638 12.8102 5.50024 12.5341 5.50024H7.46582C7.18968 5.50024 6.96582 5.27638 6.96582 5.00024Z" fill="white"/>
</svg>
