<svg width="20" height="20" viewBox="0 0 20 20" fill="none" xmlns="http://www.w3.org/2000/svg">
<path d="M9.25 6.25C9.25 5.97386 9.02614 5.75 8.75 5.75C8.47386 5.75 8.25 5.97386 8.25 6.25V8.25H6.25C5.97386 8.25 5.75 8.47386 5.75 8.75C5.75 9.02614 5.97386 9.25 6.25 9.25H8.25V11.25C8.25 11.5261 8.47386 11.75 8.75 11.75C9.02614 11.75 9.25 11.5261 9.25 11.25V9.25H11.25C11.5261 9.25 11.75 9.02614 11.75 8.75C11.75 8.47386 11.5261 8.25 11.25 8.25H9.25V6.25Z" fill="white"/>
<path fill-rule="evenodd" clip-rule="evenodd" d="M1.375 2.875C1.375 2.04657 2.04657 1.375 2.875 1.375H14.625C15.4534 1.375 16.125 2.04657 16.125 2.875V3.875H17.125C17.9534 3.875 18.625 4.54657 18.625 5.375V17.125C18.625 17.9534 17.9534 18.625 17.125 18.625H5.375C4.54657 18.625 3.875 17.9534 3.875 17.125V16.125H2.875C2.04657 16.125 1.375 15.4534 1.375 14.625V2.875ZM15.125 2.875V14.625C15.125 14.9011 14.9011 15.125 14.625 15.125H2.875C2.59886 15.125 2.375 14.9011 2.375 14.625V2.875C2.375 2.59886 2.59886 2.375 2.875 2.375H14.625C14.9011 2.375 15.125 2.59886 15.125 2.875ZM14.625 16.125H4.875V17.125C4.875 17.4011 5.09886 17.625 5.375 17.625H17.125C17.4011 17.625 17.625 17.4011 17.625 17.125V5.375C17.625 5.09886 17.4011 4.875 17.125 4.875H16.125V14.625C16.125 15.4534 15.4534 16.125 14.625 16.125Z" fill="white"/>
</svg>
