<svg width="20" height="20" viewBox="0 0 20 20" fill="none" xmlns="http://www.w3.org/2000/svg">
<path fill-rule="evenodd" clip-rule="evenodd" d="M1.6875 17.0128C1.6875 17.7308 2.26953 18.3128 2.9875 18.3128H4.5125C5.23047 18.3128 5.8125 17.7308 5.8125 17.0128V2.98781C5.8125 2.26984 5.23047 1.68781 4.5125 1.68781H2.9875C2.26953 1.68781 1.6875 2.26984 1.6875 2.98781V17.0128ZM2.9875 17.3128C2.82181 17.3128 2.6875 17.1785 2.6875 17.0128V2.98781C2.6875 2.82212 2.82182 2.68781 2.9875 2.68781H4.5125C4.67819 2.68781 4.8125 2.82212 4.8125 2.98781V17.0128C4.8125 17.1785 4.67818 17.3128 4.5125 17.3128H2.9875Z" fill="white"/>
<path fill-rule="evenodd" clip-rule="evenodd" d="M9.2375 18.3128C8.51953 18.3128 7.9375 17.7308 7.9375 17.0128V2.98781C7.9375 2.26984 8.51953 1.68781 9.2375 1.68781H10.7625C11.4805 1.68781 12.0625 2.26984 12.0625 2.98781V17.0128C12.0625 17.7308 11.4805 18.3128 10.7625 18.3128H9.2375ZM8.9375 17.0128C8.9375 17.1785 9.07181 17.3128 9.2375 17.3128H10.7625C10.9282 17.3128 11.0625 17.1785 11.0625 17.0128V2.98781C11.0625 2.82212 10.9282 2.68781 10.7625 2.68781H9.2375C9.07182 2.68781 8.9375 2.82212 8.9375 2.98781V17.0128Z" fill="white"/>
<path fill-rule="evenodd" clip-rule="evenodd" d="M15.4875 18.3128C14.7695 18.3128 14.1875 17.7308 14.1875 17.0128V2.98781C14.1875 2.26984 14.7695 1.68781 15.4875 1.68781H17.0125C17.7305 1.68781 18.3125 2.26984 18.3125 2.98781V17.0128C18.3125 17.7308 17.7305 18.3128 17.0125 18.3128H15.4875ZM15.1875 17.0128C15.1875 17.1785 15.3218 17.3128 15.4875 17.3128H17.0125C17.1782 17.3128 17.3125 17.1785 17.3125 17.0128V2.98781C17.3125 2.82212 17.1782 2.68781 17.0125 2.68781H15.4875C15.3218 2.68781 15.1875 2.82212 15.1875 2.98781V17.0128Z" fill="white"/>
</svg>
