<svg width="20" height="20" viewBox="0 0 20 20" fill="none" xmlns="http://www.w3.org/2000/svg">
<path d="M8.26838 8.67588C8.32197 8.40498 8.14581 8.14194 7.87492 8.08835C7.60403 8.03476 7.34098 8.21091 7.28739 8.48181C7.21588 8.84328 7.17847 9.21663 7.17847 9.59821C7.17847 9.9798 7.21588 10.3531 7.28739 10.7146C7.34098 10.9855 7.60403 11.1617 7.87492 11.1081C8.14581 11.0545 8.32197 10.7914 8.26838 10.5206C8.20944 10.2226 8.17847 9.9143 8.17847 9.59821C8.17847 9.28213 8.20944 8.97378 8.26838 8.67588Z" fill="white"/>
<path fill-rule="evenodd" clip-rule="evenodd" d="M7.09821 3.875C3.93737 3.875 1.375 6.43737 1.375 9.59821C1.375 12.7591 3.93737 15.3214 7.09821 15.3214C10.2591 15.3214 12.8214 12.7591 12.8214 9.59821C12.8214 6.43737 10.2591 3.875 7.09821 3.875ZM2.375 9.59821C2.375 6.98966 4.48966 4.875 7.09821 4.875C7.81411 4.875 8.4928 5.03427 9.10079 5.31931C8.73688 5.64278 8.41454 6.01198 8.14275 6.41795C7.98913 6.64742 8.05061 6.95798 8.28008 7.1116C8.50954 7.26522 8.8201 7.20374 8.97372 6.97427C9.25503 6.55408 9.60203 6.18146 9.99993 5.87117C11.1085 6.7355 11.8214 8.0836 11.8214 9.59821C11.8214 11.1128 11.1085 12.4609 9.99993 13.3253C9.60203 13.015 9.25503 12.6423 8.97372 12.2222C8.8201 11.9927 8.50954 11.9312 8.28008 12.0848C8.05061 12.2385 7.98913 12.549 8.14275 12.7785C8.41454 13.1844 8.73688 13.5536 9.10079 13.8771C8.4928 14.1622 7.81411 14.3214 7.09821 14.3214C4.48966 14.3214 2.375 12.2068 2.375 9.59821Z" fill="white"/>
<path d="M12.9017 3.875C12.5201 3.875 12.1467 3.91241 11.7853 3.98393C11.5144 4.03752 11.3382 4.30056 11.3918 4.57145C11.4454 4.84235 11.7085 5.0185 11.9793 4.96491C12.2772 4.90598 12.5856 4.875 12.9017 4.875C13.2178 4.875 13.5261 4.90598 13.824 4.96491C14.0949 5.0185 14.358 4.84235 14.4115 4.57145C14.4651 4.30056 14.289 4.03752 14.0181 3.98392C13.6566 3.91241 13.2833 3.875 12.9017 3.875Z" fill="white"/>
<path d="M16.0819 4.83929C15.8525 4.68566 15.5419 4.74714 15.3883 4.97661C15.2347 5.20608 15.2962 5.51663 15.5256 5.67025C16.0409 6.01523 16.4847 6.45899 16.8296 6.97427C16.9833 7.20374 17.2938 7.26522 17.5233 7.1116C17.7528 6.95797 17.8142 6.64742 17.6606 6.41795C17.2429 5.79405 16.7058 5.25698 16.0819 4.83929Z" fill="white"/>
<path d="M18.516 8.48181C18.4624 8.21091 18.1993 8.03476 17.9284 8.08835C17.6575 8.14194 17.4814 8.40498 17.535 8.67588C17.5939 8.97378 17.6249 9.28213 17.6249 9.59821C17.6249 9.9143 17.5939 10.2226 17.535 10.5206C17.4814 10.7914 17.6576 11.0545 17.9284 11.1081C18.1993 11.1617 18.4624 10.9855 18.516 10.7146C18.5875 10.3531 18.6249 9.9798 18.6249 9.59821C18.6249 9.21663 18.5875 8.84328 18.516 8.48181Z" fill="white"/>
<path d="M17.6606 12.7785C17.8142 12.549 17.7528 12.2385 17.5233 12.0848C17.2938 11.9312 16.9833 11.9927 16.8296 12.2222C16.4847 12.7374 16.0409 13.1812 15.5256 13.5262C15.2962 13.6798 15.2347 13.9904 15.3883 14.2198C15.5419 14.4493 15.8525 14.5108 16.0819 14.3571C16.7058 13.9394 17.2429 13.4024 17.6606 12.7785Z" fill="white"/>
<path d="M14.0181 15.2125C14.289 15.1589 14.4651 14.8959 14.4115 14.625C14.358 14.3541 14.0949 14.1779 13.824 14.2315C13.5261 14.2905 13.2178 14.3214 12.9017 14.3214C12.5856 14.3214 12.2772 14.2905 11.9793 14.2315C11.7085 14.1779 11.4454 14.3541 11.3918 14.625C11.3382 14.8959 11.5144 15.1589 11.7853 15.2125C12.1468 15.284 12.5201 15.3214 12.9017 15.3214C13.2833 15.3214 13.6566 15.284 14.0181 15.2125Z" fill="white"/>
</svg>
