<svg width="20" height="20" viewBox="0 0 20 20" fill="none" xmlns="http://www.w3.org/2000/svg">
<path fill-rule="evenodd" clip-rule="evenodd" d="M11.3856 3.76502C11.7225 3.8399 11.935 4.17376 11.8601 4.51072L9.36012 15.7607C9.28524 16.0977 8.95138 16.3101 8.61442 16.2353C8.27746 16.1604 8.065 15.8265 8.13988 15.4896L10.6399 4.23955C10.7148 3.90259 11.0486 3.69014 11.3856 3.76502ZM6.72036 5.21357C6.94766 5.47334 6.92134 5.86819 6.66157 6.09549L2.19912 10.0001L6.66157 13.9048C6.92134 14.1321 6.94766 14.5269 6.72036 14.7867C6.49306 15.0465 6.09821 15.0728 5.83843 14.8455L0.838435 10.4705C0.7028 10.3518 0.625 10.1804 0.625 10.0001C0.625 9.81991 0.7028 9.64845 0.838435 9.52977L5.83843 5.15477C6.09821 4.92747 6.49306 4.9538 6.72036 5.21357ZM13.2796 5.21357C13.5069 4.9538 13.9018 4.92747 14.1616 5.15477L19.1616 9.52977C19.2972 9.64845 19.375 9.81991 19.375 10.0001C19.375 10.1804 19.2972 10.3518 19.1616 10.4705L14.1616 14.8455C13.9018 15.0728 13.5069 15.0465 13.2796 14.7867C13.0523 14.5269 13.0787 14.1321 13.3384 13.9048L17.8009 10.0001L13.3384 6.09549C13.0787 5.86819 13.0523 5.47334 13.2796 5.21357Z" fill="white"/>
</svg>
