<svg width="20" height="20" viewBox="0 0 20 20" fill="none" xmlns="http://www.w3.org/2000/svg">
<path fill-rule="evenodd" clip-rule="evenodd" d="M10.9375 2.5C10.9375 2.32741 10.7976 2.1875 10.625 2.1875L9.375 2.1875C9.20241 2.1875 9.0625 2.32741 9.0625 2.5L9.0625 17.5C9.0625 17.6726 9.20241 17.8125 9.375 17.8125L10.625 17.8125C10.7976 17.8125 10.9375 17.6726 10.9375 17.5L10.9375 2.5ZM17.8125 2.5C17.8125 2.32741 17.6726 2.1875 17.5 2.1875L16.25 2.1875C16.0774 2.1875 15.9375 2.32741 15.9375 2.5L15.9375 17.5C15.9375 17.6726 16.0774 17.8125 16.25 17.8125L17.5 17.8125C17.6726 17.8125 17.8125 17.6726 17.8125 17.5L17.8125 2.5ZM4.0625 2.5C4.0625 2.32741 3.92259 2.1875 3.75 2.1875L2.5 2.1875C2.32741 2.1875 2.1875 2.32741 2.1875 2.5L2.1875 17.5C2.1875 17.6726 2.32741 17.8125 2.5 17.8125L3.75 17.8125C3.92259 17.8125 4.0625 17.6726 4.0625 17.5L4.0625 2.5ZM17.5 1.25C18.1904 1.25 18.75 1.80964 18.75 2.5L18.75 17.5C18.75 18.1904 18.1904 18.75 17.5 18.75L16.25 18.75C15.5596 18.75 15 18.1904 15 17.5L15 2.5C15 1.80964 15.5596 1.25 16.25 1.25L17.5 1.25ZM10.625 1.25C11.3154 1.25 11.875 1.80964 11.875 2.5L11.875 17.5C11.875 18.1904 11.3154 18.75 10.625 18.75L9.375 18.75C8.68464 18.75 8.125 18.1904 8.125 17.5L8.125 2.5C8.125 1.80964 8.68464 1.25 9.375 1.25L10.625 1.25ZM5 2.5C5 1.80964 4.44036 1.25 3.75 1.25L2.5 1.25C1.80964 1.25 1.25 1.80964 1.25 2.5L1.25 17.5C1.25 18.1904 1.80964 18.75 2.5 18.75L3.75 18.75C4.44035 18.75 5 18.1904 5 17.5L5 2.5Z" fill="white"/>
</svg>
