<svg width="20" height="20" viewBox="0 0 20 20" fill="none" xmlns="http://www.w3.org/2000/svg">
<path d="M18.75 3.75C18.75 5.13071 17.6307 6.25 16.25 6.25C14.8693 6.25 13.75 5.13071 13.75 3.75C13.75 2.36929 14.8693 1.25 16.25 1.25C17.6307 1.25 18.75 2.36929 18.75 3.75Z" fill="white"/>
<path d="M4.375 17.1875C4.375 18.0504 3.67544 18.75 2.8125 18.75C1.94956 18.75 1.25 18.0504 1.25 17.1875C1.25 16.3246 1.94956 15.625 2.8125 15.625C3.67544 15.625 4.375 16.3246 4.375 17.1875Z" fill="white"/>
<path d="M10 13.75C12.0711 13.75 13.75 12.0711 13.75 10C13.75 7.92893 12.0711 6.25 10 6.25C7.92893 6.25 6.25 7.92893 6.25 10C6.25 12.0711 7.92893 13.75 10 13.75Z" fill="white"/>
</svg>
