<svg width="20" height="20" viewBox="0 0 20 20" fill="none" xmlns="http://www.w3.org/2000/svg">
<path fill-rule="evenodd" clip-rule="evenodd" d="M13.8872 1.95069C14.5768 1.26169 15.4414 1.30989 16.0744 1.49261L16.0776 1.49355C17.2342 1.83598 18.1593 2.7599 18.5026 3.91571C18.7031 4.5753 18.7287 5.41557 18.0663 6.11049L18.0579 6.11932L15.6236 8.55163L15.9206 8.84845C16.0145 8.94223 16.0672 9.06946 16.0672 9.20213C16.0672 9.3348 16.0145 9.46204 15.9206 9.55582L14.1642 11.3109C13.969 11.506 13.6526 11.506 13.4574 11.3109L12.6194 10.4736L6.21966 16.8685C5.97883 17.1092 5.6633 17.2607 5.32492 17.2983L3.85784 17.4612L3.15255 18.166C2.78355 18.5347 2.18468 18.5317 1.81935 18.1593C1.45872 17.7918 1.46164 17.2023 1.82589 16.8383L2.5381 16.1266L2.7104 14.6677C2.74996 14.3327 2.90122 14.0209 3.13978 13.7825L9.54143 7.38564L8.70395 6.54879C8.509 6.35398 8.50845 6.03814 8.70272 5.84265L10.4591 4.07526C10.5534 3.98045 10.6816 3.92732 10.8153 3.92771C10.9489 3.9281 11.0769 3.98199 11.1705 4.07734L11.468 4.38017C11.6287 4.21935 11.8345 4.01334 12.0658 3.78149C12.6154 3.23084 13.3088 2.53486 13.8854 1.95257L13.8872 1.95069ZM10.8117 5.13912L11.1081 5.44085C11.2015 5.53599 11.3291 5.58985 11.4624 5.59048C11.5958 5.5911 11.7239 5.53843 11.8182 5.44417L12.0898 5.17261C12.2599 5.00243 12.4987 4.76337 12.7737 4.48787C13.3231 3.93729 14.0172 3.24071 14.5949 2.65722C14.9121 2.34095 15.324 2.31716 15.7954 2.45291C16.6273 2.69985 17.2979 3.37045 17.5444 4.20164L17.5454 4.20518C17.6878 4.67259 17.6623 5.08188 17.3463 5.41653L14.5631 8.19765C14.4692 8.29143 14.4162 8.41896 14.4162 8.55163C14.4162 8.6843 14.4689 8.81154 14.5628 8.90532L14.8598 9.20213L13.8108 10.2504L12.9728 9.41303C12.7775 9.21794 12.4612 9.21794 12.2659 9.41303L5.51282 16.1611C5.43254 16.2414 5.32736 16.2919 5.21457 16.3044L3.57325 16.4866C3.54594 16.4897 3.51908 16.4949 3.4929 16.5023C3.50135 16.4744 3.50738 16.4456 3.51084 16.4163L3.7035 14.7849C3.71669 14.6733 3.76711 14.5694 3.84663 14.4899L10.6022 7.73933C10.6961 7.64555 10.7488 7.51831 10.7488 7.38564C10.7488 7.25297 10.6961 7.12574 10.6022 7.03196L9.76351 6.19387L10.8117 5.13912Z" fill="white"/>
</svg>
