<svg width="20" height="20" viewBox="0 0 20 20" fill="none" xmlns="http://www.w3.org/2000/svg">
<path fill-rule="evenodd" clip-rule="evenodd" d="M14.6739 1.15967C15.1211 0.99141 15.6073 0.955224 16.0744 1.05544L16.3185 1.10778C16.9468 1.24256 17.5227 1.55557 17.9771 2.00921L18.0061 2.03812C18.4805 2.51174 18.7999 3.11781 18.9222 3.77639L18.9567 3.96212C19.0364 4.39149 19.0057 4.83404 18.8674 5.24832C18.7405 5.62831 18.5268 5.97359 18.243 6.25681L15.9302 8.56581L16.1104 8.74574C16.3507 8.98563 16.3507 9.37459 16.1104 9.61449L14.2644 11.4574C14.0241 11.6973 13.6345 11.6973 13.3942 11.4574L12.5877 10.6523L5.95199 17.2769C5.64834 17.58 5.24832 17.768 4.82081 17.8084L3.78009 17.9069C3.63759 17.9204 3.50425 17.983 3.40303 18.0841L2.79322 18.6929C2.38299 19.1024 1.71789 19.1024 1.30767 18.6929C0.897445 18.2833 0.897444 17.6193 1.30767 17.2098L1.91023 16.6082C2.01365 16.505 2.07685 16.3684 2.0885 16.2228L2.17206 15.1791C2.20701 14.7425 2.39661 14.3326 2.70687 14.0228L9.33534 7.40549L8.53978 6.61126C8.29947 6.37136 8.29947 5.98241 8.53977 5.74251L10.3858 3.8996C10.5012 3.7844 10.6577 3.71968 10.8209 3.71968C10.9841 3.71968 11.1406 3.7844 11.256 3.8996L11.4362 4.07953L13.7921 1.72763C14.0422 1.47788 14.3429 1.28425 14.6739 1.15967ZM10.8209 5.20273L9.8451 6.17688L10.6407 6.97111C10.881 7.21101 10.881 7.59996 10.6407 7.83986L3.57708 14.8916C3.47367 14.9948 3.41046 15.1315 3.39881 15.277L3.31526 16.3207C3.30255 16.4794 3.2694 16.6347 3.21743 16.7828C3.36063 16.7318 3.51054 16.6983 3.664 16.6837L4.70472 16.5853C4.84722 16.5718 4.98056 16.5092 5.08178 16.4081L12.1526 9.34915C12.3929 9.10925 12.7825 9.10925 13.0228 9.34915L13.8293 10.1543L14.8051 9.18011L14.6248 9.00019C14.3845 8.76029 14.3845 8.37133 14.6248 8.13143L17.3728 5.38806C17.5214 5.2397 17.6334 5.05884 17.6999 4.8598C17.7723 4.6428 17.7884 4.41099 17.7467 4.18608L17.7122 4.00035C17.6352 3.58607 17.4343 3.20481 17.1358 2.90687L17.1069 2.87796C16.8201 2.59162 16.4565 2.39404 16.0599 2.30897L15.8159 2.25662C15.5798 2.20597 15.334 2.22426 15.108 2.30931C14.9407 2.37228 14.7887 2.47015 14.6623 2.59638L11.8713 5.38266C11.631 5.62256 11.2414 5.62256 11.0011 5.38266L10.8209 5.20273Z" fill="white"/>
</svg>
