<svg width="20" height="20" viewBox="0 0 20 20" fill="none" xmlns="http://www.w3.org/2000/svg">
<path d="M11.668 4.89786C11.7279 4.6283 11.558 4.36121 11.2884 4.3013C11.0188 4.2414 10.7517 4.41137 10.6918 4.68093L8.37041 15.1274C8.31051 15.3969 8.48047 15.664 8.75004 15.7239C9.01961 15.7838 9.2867 15.6139 9.3466 15.3443L11.668 4.89786Z" fill="white"/>
<path d="M6.91343 5.62075C7.09527 5.82857 7.07422 6.14445 6.8664 6.32629L2.65358 10.0125L6.8664 13.6987C7.07422 13.8806 7.09527 14.1964 6.91343 14.4043C6.73159 14.6121 6.41571 14.6331 6.20789 14.4513L1.56503 10.3888C1.45653 10.2938 1.39429 10.1567 1.39429 10.0125C1.39429 9.86832 1.45653 9.73116 1.56503 9.63622L6.20789 5.57372C6.41571 5.39187 6.73159 5.41293 6.91343 5.62075Z" fill="white"/>
<path d="M13.1251 14.4044C12.9433 14.1966 12.9644 13.8807 13.1722 13.6989L17.385 10.0127L13.1722 6.32648C12.9644 6.14464 12.9433 5.82875 13.1251 5.62094C13.307 5.41312 13.6229 5.39206 13.8307 5.5739L18.4735 9.6364C18.582 9.73134 18.6443 9.86851 18.6443 10.0127C18.6443 10.1569 18.582 10.294 18.4735 10.389L13.8307 14.4515C13.6229 14.6333 13.307 14.6123 13.1251 14.4044Z" fill="white"/>
</svg>
