<svg width="20" height="20" viewBox="0 0 20 20" fill="none" xmlns="http://www.w3.org/2000/svg">
<path d="M17.8536 2.85355C18.0488 2.65829 18.0488 2.34171 17.8536 2.14645C17.6583 1.95118 17.3417 1.95118 17.1464 2.14645L10 9.29289L2.85355 2.14645C2.65829 1.95118 2.34171 1.95118 2.14645 2.14645C1.95119 2.34171 1.95119 2.65829 2.14645 2.85355L9.29289 10L2.14645 17.1464C1.95118 17.3417 1.95118 17.6583 2.14645 17.8536C2.34171 18.0488 2.65829 18.0488 2.85355 17.8536L10 10.7071L17.1464 17.8536C17.3417 18.0488 17.6583 18.0488 17.8536 17.8536C18.0488 17.6583 18.0488 17.3417 17.8536 17.1464L10.7071 10L17.8536 2.85355Z" fill="white"/>
</svg>
