<svg width="20" height="20" viewBox="0 0 20 20" fill="none" xmlns="http://www.w3.org/2000/svg">
<path fill-rule="evenodd" clip-rule="evenodd" d="M1.23964 1.23964C1.55916 0.92012 2.0772 0.92012 2.39672 1.23964L10 8.84292L17.6033 1.23964C17.9228 0.92012 18.4408 0.92012 18.7604 1.23964C19.0799 1.55916 19.0799 2.0772 18.7604 2.39672L11.1571 10L18.7604 17.6033C19.0799 17.9228 19.0799 18.4408 18.7604 18.7604C18.4408 19.0799 17.9228 19.0799 17.6033 18.7604L10 11.1571L2.39672 18.7604C2.0772 19.0799 1.55916 19.0799 1.23964 18.7604C0.92012 18.4408 0.92012 17.9228 1.23964 17.6033L8.84292 10L1.23964 2.39672C0.92012 2.0772 0.92012 1.55916 1.23964 1.23964Z" fill="white"/>
</svg>
