<svg width="20" height="20" viewBox="0 0 20 20" fill="none" xmlns="http://www.w3.org/2000/svg">
<path fill-rule="evenodd" clip-rule="evenodd" d="M0.625 2.5C0.625 1.80964 1.18464 1.25 1.875 1.25L18.125 1.25C18.8154 1.25 19.375 1.80964 19.375 2.5L19.375 13.75C19.375 14.4404 18.8154 15 18.125 15L10.625 15L1.875 15C1.18464 15 0.625 14.4404 0.625 13.75L0.625 2.5ZM18.125 2.5L1.875 2.5L1.875 13.75L10 13.75L18.125 13.75L18.125 2.5Z" fill="white"/>
<path fill-rule="evenodd" clip-rule="evenodd" d="M3.28125 4.75C3.28125 4.28401 3.65901 3.90625 4.125 3.90625L6.875 3.90625C7.13388 3.90625 7.34375 4.11612 7.34375 4.375C7.34375 4.63388 7.13388 4.84375 6.875 4.84375L4.21875 4.84375L4.21875 6.25C4.21875 6.50888 4.00888 6.71875 3.75 6.71875C3.49112 6.71875 3.28125 6.50888 3.28125 6.25L3.28125 4.75Z" fill="white"/>
<path fill-rule="evenodd" clip-rule="evenodd" d="M10 15C10.3452 15 10.625 15 10.625 15L10.625 17.4999L14.375 17.4999C14.7202 17.4999 15 17.7797 15 18.1249C15 18.4701 14.7202 18.7499 14.375 18.7499L5.62499 18.7499C5.27982 18.7499 4.99999 18.4701 4.99999 18.1249C4.99999 17.7797 5.27982 17.4999 5.62499 17.4999L9.375 17.4999L9.375 15C9.375 15 9.65482 15 10 15Z" fill="white"/>
</svg>
