<svg width="20" height="20" viewBox="0 0 20 20" fill="none" xmlns="http://www.w3.org/2000/svg">
<path d="M3.69653 5.06696C3.69653 4.79081 3.92039 4.56696 4.19653 4.56696H7.67868C7.95482 4.56696 8.17868 4.79081 8.17868 5.06696C8.17868 5.3431 7.95482 5.56696 7.67868 5.56696H4.69653V7.38838C4.69653 7.66453 4.47268 7.88838 4.19653 7.88838C3.92039 7.88838 3.69653 7.66453 3.69653 7.38838V5.06696Z" fill="white"/>
<path fill-rule="evenodd" clip-rule="evenodd" d="M1.375 2.74553C1.375 2.46939 1.59886 2.24553 1.875 2.24553H18.125C18.4011 2.24553 18.625 2.46939 18.625 2.74553V14.3527C18.625 14.6288 18.4011 14.8527 18.125 14.8527H10.5V16.7545H14.6429C14.919 16.7545 15.1429 16.9783 15.1429 17.2545C15.1429 17.5306 14.919 17.7545 14.6429 17.7545H5.35718C5.08104 17.7545 4.85718 17.5306 4.85718 17.2545C4.85718 16.9783 5.08104 16.7545 5.35718 16.7545H9.50004V14.8527H1.875C1.59886 14.8527 1.375 14.6288 1.375 14.3527V2.74553ZM2.375 3.24553V13.8527H17.625V3.24553H2.375Z" fill="white"/>
</svg>
