<svg width="20" height="20" viewBox="0 0 20 20" fill="none" xmlns="http://www.w3.org/2000/svg">
<path fill-rule="evenodd" clip-rule="evenodd" d="M7.24309 1.69231C7.24309 1.30996 7.54835 1 7.9249 1H12.0751C12.4517 1 12.7569 1.30996 12.7569 1.69231V2.8382C12.7569 3.22055 12.4517 3.5305 12.0751 3.5305C11.6985 3.5305 11.3933 3.22055 11.3933 2.8382V2.38462H8.60672V2.8382C8.60672 3.22055 8.30146 3.5305 7.9249 3.5305C7.54835 3.5305 7.24309 3.22055 7.24309 2.8382V1.69231ZM2.65978 4.11171C2.78933 3.95513 2.98042 3.86472 3.18182 3.86472H16.8182C17.0196 3.86472 17.2107 3.95513 17.3402 4.11171C17.4698 4.26829 17.5245 4.47502 17.4898 4.67645L15.1182 18.4271C15.0611 18.7584 14.7778 19 14.4466 19H5.55336C5.22218 19 4.93889 18.7584 4.88177 18.4271L2.51023 4.67645C2.47548 4.47502 2.53023 4.26829 2.65978 4.11171ZM3.99342 5.24934L6.12616 17.6154H13.8738L16.0066 5.24934H3.99342ZM6.09132 7.30464C6.46665 7.27383 6.79551 7.55781 6.82585 7.93892L7.41873 15.3872C7.44907 15.7683 7.1694 16.1022 6.79406 16.133C6.41873 16.1638 6.08987 15.8799 6.05953 15.4987L5.46665 8.05047C5.43631 7.66936 5.71599 7.33544 6.09132 7.30464ZM13.9087 7.30464C14.284 7.33544 14.5637 7.66936 14.5334 8.05047L13.9405 15.4987C13.9101 15.8799 13.5813 16.1638 13.2059 16.133C12.8306 16.1022 12.5509 15.7683 12.5813 15.3872L13.1742 7.93892C13.2045 7.55781 13.5333 7.27383 13.9087 7.30464ZM10 7.24661C10.3766 7.24661 10.6818 7.55657 10.6818 7.93892V15.3872C10.6818 15.7695 10.3766 16.0795 10 16.0795C9.62344 16.0795 9.31818 15.7695 9.31818 15.3872V7.93892C9.31818 7.55657 9.62344 7.24661 10 7.24661Z" fill="white"/>
</svg>
