<svg width="20" height="20" viewBox="0 0 20 20" fill="none" xmlns="http://www.w3.org/2000/svg">
<path d="M12.9019 6.85352C13.178 6.85352 13.4019 7.07737 13.4019 7.35352V13.9812C13.4019 14.2573 13.178 14.4812 12.9019 14.4812C12.6257 14.4812 12.4019 14.2573 12.4019 13.9812V7.35352C12.4019 7.07737 12.6257 6.85352 12.9019 6.85352Z" fill="white"/>
<path d="M7.59814 7.35352C7.59814 7.07737 7.37429 6.85352 7.09814 6.85352C6.822 6.85352 6.59814 7.07737 6.59814 7.35352V13.9812C6.59814 14.2573 6.822 14.4812 7.09814 14.4812C7.37429 14.4812 7.59814 14.2573 7.59814 13.9812V7.35352Z" fill="white"/>
<path d="M9.90723 6.85352C10.1834 6.85352 10.4072 7.07737 10.4072 7.35352V13.9812C10.4072 14.2573 10.1834 14.4812 9.90723 14.4812C9.63108 14.4812 9.40723 14.2573 9.40723 13.9812V7.35352C9.40723 7.07737 9.63108 6.85352 9.90723 6.85352Z" fill="white"/>
<path fill-rule="evenodd" clip-rule="evenodd" d="M7.67847 1.37485C7.40232 1.37485 7.17847 1.59871 7.17847 1.87485V3.26709H3.52931C3.52562 3.26705 3.52193 3.26705 3.51823 3.26709H1.875C1.59886 3.26709 1.375 3.49095 1.375 3.76709C1.375 4.04323 1.59886 4.26709 1.875 4.26709H3.06187L4.05787 16.6331C4.15034 17.7871 5.15591 18.6251 6.29733 18.6251H13.517C14.675 18.6251 15.6642 17.7706 15.7564 16.6331L16.7524 4.26709H18.125C18.4011 4.26709 18.625 4.04323 18.625 3.76709C18.625 3.49095 18.4011 3.26709 18.125 3.26709H16.2961C16.2924 3.26705 16.2887 3.26705 16.285 3.26709H12.8213V1.87485C12.8213 1.59871 12.5975 1.37485 12.3213 1.37485H7.67847ZM11.8213 3.26709V2.37485H8.17847V3.26709H11.8213ZM15.7492 4.26709H4.06511L5.05464 16.5528C5.1016 17.1398 5.62812 17.6251 6.29733 17.6251H13.517C14.1929 17.6251 14.7126 17.1329 14.7597 16.5526L15.7492 4.26709Z" fill="white"/>
</svg>
