<svg width="20" height="20" viewBox="0 0 20 20" fill="none" xmlns="http://www.w3.org/2000/svg">
<path d="M12.2982 10.7294L10.5002 12.5275L10.5002 1.94946C10.5002 1.67332 10.2763 1.44946 10.0002 1.44946C9.72405 1.44946 9.50019 1.67332 9.50019 1.94946L9.50019 12.5276L7.70206 10.7294C7.5068 10.5342 7.19022 10.5342 6.99496 10.7294C6.79969 10.9247 6.79969 11.2413 6.99496 11.4365L9.64659 14.0882C9.84185 14.2835 10.1584 14.2835 10.3537 14.0882L13.0053 11.4365C13.2006 11.2413 13.2006 10.9247 13.0053 10.7294C12.8101 10.5342 12.4935 10.5342 12.2982 10.7294Z" fill="white"/>
<path d="M2.375 13.0502C2.375 12.7741 2.15114 12.5502 1.875 12.5502C1.59886 12.5502 1.375 12.7741 1.375 13.0502V18.0505C1.375 18.3266 1.59886 18.5505 1.875 18.5505H18.125C18.4011 18.5505 18.625 18.3266 18.625 18.0505V13.0502C18.625 12.7741 18.4011 12.5502 18.125 12.5502C17.8489 12.5502 17.625 12.7741 17.625 13.0502V17.5505H2.375V13.0502Z" fill="white"/>
</svg>
