<svg width="20" height="20" viewBox="0 0 20 20" fill="none" xmlns="http://www.w3.org/2000/svg">
<path fill-rule="evenodd" clip-rule="evenodd" d="M10 1C10.4248 1 10.7692 1.36632 10.7692 1.81819V12.9334L12.533 11.0575C12.8334 10.7379 13.3205 10.738 13.6209 11.0575C13.9213 11.377 13.9212 11.8951 13.6208 12.2146L10.5439 15.4872C10.2435 15.8067 9.75649 15.8067 9.45609 15.4872L6.37916 12.2146C6.07875 11.8951 6.07874 11.377 6.37914 11.0575C6.67953 10.738 7.16658 10.7379 7.46699 11.0575L9.23077 12.9334V1.81819C9.23077 1.36632 9.57517 1 10 1ZM2.01923 12.4547C2.44407 12.4547 2.78846 12.821 2.78846 13.2729V17.3636H17.2115V13.2729C17.2115 12.821 17.5559 12.4547 17.9808 12.4547C18.4056 12.4547 18.75 12.821 18.75 13.2729V18.1818C18.75 18.6337 18.4056 19 17.9808 19H2.01923C1.5944 19 1.25 18.6337 1.25 18.1818V13.2729C1.25 12.821 1.5944 12.4547 2.01923 12.4547Z" fill="#0091E4"/>
</svg>
