<svg width="20" height="20" viewBox="0 0 20 20" fill="none" xmlns="http://www.w3.org/2000/svg">
<path fill-rule="evenodd" clip-rule="evenodd" d="M1.25 1.875C1.25 1.52982 1.52982 1.25 1.875 1.25H7.00972C7.74178 1.25 8.46273 1.42756 9.11518 1.7673L10 2.22804L10.8848 1.7673C11.5373 1.42756 12.2582 1.25 12.9903 1.25H18.125C18.4702 1.25 18.75 1.52982 18.75 1.875V17.0673C18.75 17.4125 18.4702 17.6923 18.125 17.6923H12.9903C12.461 17.6923 11.9379 17.8206 11.4621 18.0683L10.2887 18.6793C10.1077 18.7736 9.89225 18.7736 9.71134 18.6793L8.53787 18.0683C8.06213 17.8206 7.53903 17.6923 7.00972 17.6923H1.875C1.52982 17.6923 1.25 17.4125 1.25 17.0673V1.875ZM9.375 3.3119L8.53787 2.876C8.06213 2.62828 7.53903 2.5 7.00972 2.5H2.5V16.4423H7.00972C7.74179 16.4423 8.46273 16.6199 9.11518 16.9596L9.375 17.0949V3.3119ZM10.625 17.0949L10.8848 16.9596C11.5373 16.6199 12.2582 16.4423 12.9903 16.4423H17.5V2.5H12.9903C12.461 2.5 11.9379 2.62828 11.4621 2.876L10.625 3.3119V17.0949ZM3.125 5.76923C3.125 5.42405 3.40482 5.14423 3.75 5.14423H5.9375C6.28268 5.14423 6.5625 5.42405 6.5625 5.76923C6.5625 6.11441 6.28268 6.39423 5.9375 6.39423H3.75C3.40482 6.39423 3.125 6.11441 3.125 5.76923ZM3.125 8.41346C3.125 8.06828 3.40482 7.78846 3.75 7.78846H7.91287C8.25805 7.78846 8.53787 8.06828 8.53787 8.41346C8.53787 8.75864 8.25805 9.03846 7.91287 9.03846H3.75C3.40482 9.03846 3.125 8.75864 3.125 8.41346ZM3.125 11.014C3.125 10.6689 3.40482 10.389 3.75 10.389H7.91287C8.25805 10.389 8.53787 10.6689 8.53787 11.014C8.53787 11.3592 8.25805 11.639 7.91287 11.639H3.75C3.40482 11.639 3.125 11.3592 3.125 11.014Z" fill="white"/>
</svg>
