<svg width="20" height="20" viewBox="0 0 20 20" fill="none" xmlns="http://www.w3.org/2000/svg">
<path fill-rule="evenodd" clip-rule="evenodd" d="M18.5529 9.50895C18.8157 9.78015 18.8157 10.2198 18.5529 10.491L13.1682 16.0466C12.9054 16.3178 12.4792 16.3178 12.2164 16.0466C11.9535 15.7754 11.9535 15.3357 12.2164 15.0645L17.125 10L12.2164 4.93549C11.9535 4.66429 11.9535 4.2246 12.2164 3.9534C12.4792 3.6822 12.9054 3.6822 13.1682 3.9534L18.5529 9.50895ZM7.78363 3.9534C8.04648 4.2246 8.04648 4.66429 7.78363 4.93549L2.87495 10L7.78363 15.0645C8.04648 15.3357 8.04648 15.7754 7.78363 16.0466C7.52078 16.3178 7.09461 16.3178 6.83175 16.0466L1.44714 10.491C1.32091 10.3608 1.25 10.1842 1.25 10C1.25 9.81582 1.32091 9.63919 1.44714 9.50895L6.83176 3.9534C7.09461 3.6822 7.52078 3.6822 7.78363 3.9534Z" fill="#0091E4"/>
</svg>
