<svg width="20" height="20" viewBox="0 0 20 20" fill="none" xmlns="http://www.w3.org/2000/svg">
<path d="M1.6777 9.64645C1.48243 9.84171 1.48243 10.1583 1.6777 10.3536L7.3027 15.9786C7.49796 16.1738 7.81454 16.1738 8.0098 15.9786C8.20507 15.7833 8.20507 15.4667 8.0098 15.2714L2.73836 10L8.0098 4.72855C8.20507 4.53329 8.20507 4.21671 8.0098 4.02145C7.81454 3.82618 7.49796 3.82618 7.3027 4.02145L1.6777 9.64645Z" fill="white"/>
<path d="M12.6973 15.9786L18.3223 10.3536C18.5176 10.1583 18.5176 9.84171 18.3223 9.64645L12.6973 4.02145C12.502 3.82618 12.1855 3.82618 11.9902 4.02145C11.7949 4.21671 11.7949 4.53329 11.9902 4.72855L17.2616 10L11.9902 15.2714C11.7949 15.4667 11.7949 15.7833 11.9902 15.9786C12.1855 16.1738 12.502 16.1738 12.6973 15.9786Z" fill="white"/>
</svg>
