<svg width="20" height="20" viewBox="0 0 20 20" fill="none" xmlns="http://www.w3.org/2000/svg">
<path fill-rule="evenodd" clip-rule="evenodd" d="M1.67578 1.875C1.67578 1.59886 1.89964 1.375 2.17578 1.375H6.88424C7.4276 1.375 7.9635 1.50151 8.44949 1.7445L9.99986 2.51969L11.5502 1.7445C12.0362 1.50151 12.5721 1.375 13.1155 1.375H17.8239C18.1001 1.375 18.3239 1.59886 18.3239 1.875V16.9213C18.3239 17.1974 18.1001 17.4213 17.8239 17.4213H13.1155C12.7274 17.4213 12.3446 17.5117 11.9974 17.6852L10.2235 18.5722C10.0827 18.6426 9.91701 18.6426 9.77625 18.5722L8.00228 17.6852C7.65514 17.5117 7.27236 17.4213 6.88424 17.4213H2.17578C1.89964 17.4213 1.67578 17.1974 1.67578 16.9213V1.875ZM9.49986 3.38772L8.00228 2.63893C7.65514 2.46536 7.27236 2.375 6.88424 2.375H2.67578V16.4213H6.88424C7.4276 16.4213 7.9635 16.5478 8.44949 16.7908L9.49986 17.316V3.38772ZM10.4999 17.316L11.5502 16.7908C12.0362 16.5478 12.5721 16.4213 13.1155 16.4213H17.3239V2.375H13.1155C12.7274 2.375 12.3446 2.46536 11.9974 2.63893L10.4999 3.38772V17.316Z" fill="white"/>
<path fill-rule="evenodd" clip-rule="evenodd" d="M3.48131 6.08796C3.48131 5.81182 3.70517 5.58796 3.98131 5.58796H5.78687C6.06301 5.58796 6.28687 5.81182 6.28687 6.08796C6.28687 6.3641 6.06301 6.58796 5.78687 6.58796H3.98131C3.70517 6.58796 3.48131 6.3641 3.48131 6.08796Z" fill="white"/>
<path fill-rule="evenodd" clip-rule="evenodd" d="M3.48131 8.49538C3.48131 8.21923 3.70517 7.99538 3.98131 7.99538H8.19427C8.47042 7.99538 8.69427 8.21923 8.69427 8.49538C8.69427 8.77152 8.47042 8.99538 8.19427 8.99538H3.98131C3.70517 8.99538 3.48131 8.77152 3.48131 8.49538Z" fill="white"/>
<path fill-rule="evenodd" clip-rule="evenodd" d="M3.48131 10.9028C3.48131 10.6266 3.70517 10.4028 3.98131 10.4028H8.19427C8.47042 10.4028 8.69427 10.6266 8.69427 10.9028C8.69427 11.1789 8.47042 11.4028 8.19427 11.4028H3.98131C3.70517 11.4028 3.48131 11.1789 3.48131 10.9028Z" fill="white"/>
</svg>
