<svg width="20" height="20" viewBox="0 0 20 20" fill="none" xmlns="http://www.w3.org/2000/svg">
<path fill-rule="evenodd" clip-rule="evenodd" d="M9.50895 1.44714C9.78015 1.18429 10.2198 1.18429 10.491 1.44714L16.0466 6.83176C16.3178 7.09461 16.3178 7.52078 16.0466 7.78363C15.7754 8.04648 15.3357 8.04648 15.0645 7.78363L10 2.87495L4.93549 7.78363C4.66429 8.04648 4.2246 8.04648 3.9534 7.78363C3.6822 7.52078 3.6822 7.09461 3.9534 6.83176L9.50895 1.44714ZM3.9534 12.2164C4.2246 11.9535 4.66429 11.9535 4.93549 12.2164L10 17.125L15.0645 12.2164C15.3357 11.9535 15.7754 11.9535 16.0466 12.2164C16.3178 12.4792 16.3178 12.9054 16.0466 13.1682L10.491 18.5529C10.3608 18.6791 10.1842 18.75 10 18.75C9.81582 18.75 9.63919 18.6791 9.50895 18.5529L3.9534 13.1682C3.6822 12.9054 3.6822 12.4792 3.9534 12.2164Z" fill="#0091E4"/>
</svg>
