<svg width="20" height="20" viewBox="0 0 20 20" fill="none" xmlns="http://www.w3.org/2000/svg">
<path d="M10.3536 1.6777C10.1583 1.48243 9.84171 1.48243 9.64645 1.6777L4.02145 7.3027C3.82618 7.49796 3.82618 7.81454 4.02145 8.0098C4.21671 8.20507 4.53329 8.20507 4.72855 8.0098L10 2.73836L15.2714 8.0098C15.4667 8.20507 15.7833 8.20507 15.9786 8.0098C16.1738 7.81454 16.1738 7.49796 15.9786 7.3027L10.3536 1.6777Z" fill="white"/>
<path d="M4.02145 12.6973L9.64645 18.3223C9.84171 18.5176 10.1583 18.5176 10.3536 18.3223L15.9786 12.6973C16.1738 12.502 16.1738 12.1855 15.9786 11.9902C15.7833 11.7949 15.4667 11.7949 15.2714 11.9902L10 17.2616L4.72855 11.9902C4.53329 11.7949 4.21671 11.7949 4.02145 11.9902C3.82618 12.1855 3.82618 12.502 4.02145 12.6973Z" fill="white"/>
</svg>
