<svg width="20" height="20" viewBox="0 0 20 20" fill="none" xmlns="http://www.w3.org/2000/svg">
<path fill-rule="evenodd" clip-rule="evenodd" d="M10 1C10.2999 1 10.5795 1.13916 10.7437 1.3701L17.8548 11.3701C17.9496 11.5033 18 11.659 18 11.8182C18 15.8062 14.3945 19 10 19C5.60549 19 2 15.8062 2 11.8182C2 11.659 2.05045 11.5033 2.14515 11.3701L9.25627 1.3701C9.42049 1.13916 9.70014 1 10 1ZM3.78335 12.0543C3.92191 14.9878 6.62978 17.3636 10 17.3636C13.3702 17.3636 16.0781 14.9878 16.2167 12.0543L10 3.31214L3.78335 12.0543Z" fill="#0091E4"/>
</svg>
