<svg width="20" height="20" viewBox="0 0 20 20" fill="none" xmlns="http://www.w3.org/2000/svg">
<path d="M5.9375 7.8125C6.80044 7.8125 7.5 7.11294 7.5 6.25C7.5 5.38706 6.80044 4.6875 5.9375 4.6875C5.07456 4.6875 4.375 5.38706 4.375 6.25C4.375 7.11294 5.07456 7.8125 5.9375 7.8125Z" fill="white"/>
<path d="M5.9375 15.3125C6.80044 15.3125 7.5 14.6129 7.5 13.75C7.5 12.8871 6.80044 12.1875 5.9375 12.1875C5.07456 12.1875 4.375 12.8871 4.375 13.75C4.375 14.6129 5.07456 15.3125 5.9375 15.3125Z" fill="white"/>
<path d="M15.625 6.25C15.625 7.11294 14.9254 7.8125 14.0625 7.8125C13.1996 7.8125 12.5 7.11294 12.5 6.25C12.5 5.38706 13.1996 4.6875 14.0625 4.6875C14.9254 4.6875 15.625 5.38706 15.625 6.25Z" fill="white"/>
<path d="M14.0625 15.3125C14.9254 15.3125 15.625 14.6129 15.625 13.75C15.625 12.8871 14.9254 12.1875 14.0625 12.1875C13.1996 12.1875 12.5 12.8871 12.5 13.75C12.5 14.6129 13.1996 15.3125 14.0625 15.3125Z" fill="white"/>
</svg>
