<svg width="20" height="20" viewBox="0 0 20 20" fill="none" xmlns="http://www.w3.org/2000/svg">
<path d="M6.25785 15.2047C6.05364 15.2047 5.86252 15.1687 5.68449 15.0967C5.50123 15.0195 5.34414 14.9166 5.21324 14.788C5.0771 14.6542 4.97237 14.4999 4.89906 14.3249C4.82052 14.15 4.78125 13.9622 4.78125 13.7616C4.78125 13.5558 4.82052 13.3654 4.89906 13.1905C4.97237 13.0104 5.0771 12.8561 5.21324 12.7275C5.34414 12.5937 5.50123 12.4882 5.68449 12.411C5.86252 12.3339 6.05364 12.2953 6.25785 12.2953C6.46207 12.2953 6.65319 12.3339 6.83122 12.411C7.00401 12.4882 7.15848 12.5937 7.29462 12.7275C7.42552 12.8561 7.53025 13.0104 7.60879 13.1905C7.6821 13.3654 7.71875 13.5558 7.71875 13.7616C7.71875 13.9622 7.6821 14.15 7.60879 14.3249C7.53025 14.4999 7.42552 14.6542 7.29462 14.788C7.15848 14.9166 7.00401 15.0195 6.83122 15.0967C6.65319 15.1687 6.46207 15.2047 6.25785 15.2047Z" fill="white"/>
<path d="M6.25785 7.90943C6.05364 7.90943 5.86252 7.87342 5.68449 7.80139C5.50123 7.72422 5.34414 7.62132 5.21324 7.49269C5.0771 7.35893 4.97237 7.20458 4.89906 7.02966C4.82052 6.85473 4.78125 6.66694 4.78125 6.46629C4.78125 6.2605 4.82052 6.07014 4.89906 5.89521C4.97237 5.71514 5.0771 5.56079 5.21324 5.43217C5.34414 5.2984 5.50123 5.19293 5.68449 5.11576C5.86252 5.03859 6.05364 5 6.25785 5C6.46207 5 6.65319 5.03859 6.83122 5.11576C7.00401 5.19293 7.15848 5.2984 7.29462 5.43217C7.42552 5.56079 7.53025 5.71514 7.60879 5.89521C7.6821 6.07014 7.71875 6.2605 7.71875 6.46629C7.71875 6.66694 7.6821 6.85473 7.60879 7.02966C7.53025 7.20458 7.42552 7.35893 7.29462 7.49269C7.15848 7.62132 7.00401 7.72422 6.83122 7.80139C6.65319 7.87342 6.46207 7.90943 6.25785 7.90943Z" fill="white"/>
<path d="M13.7579 15.2047C13.5536 15.2047 13.3625 15.1687 13.1845 15.0967C13.0012 15.0195 12.8441 14.9166 12.7132 14.788C12.5771 14.6542 12.4724 14.4999 12.3991 14.3249C12.3205 14.15 12.2812 13.9622 12.2812 13.7616C12.2812 13.5558 12.3205 13.3654 12.3991 13.1905C12.4724 13.0104 12.5771 12.8561 12.7132 12.7275C12.8441 12.5937 13.0012 12.4882 13.1845 12.411C13.3625 12.3339 13.5536 12.2953 13.7579 12.2953C13.9621 12.2953 14.1532 12.3339 14.3312 12.411C14.504 12.4882 14.6585 12.5937 14.7946 12.7275C14.9255 12.8561 15.0302 13.0104 15.1088 13.1905C15.1821 13.3654 15.2188 13.5558 15.2188 13.7616C15.2188 13.9622 15.1821 14.15 15.1088 14.3249C15.0302 14.4999 14.9255 14.6542 14.7946 14.788C14.6585 14.9166 14.504 15.0195 14.3312 15.0967C14.1532 15.1687 13.9621 15.2047 13.7579 15.2047Z" fill="white"/>
<path d="M13.7579 7.90943C13.5536 7.90943 13.3625 7.87342 13.1845 7.80139C13.0012 7.72422 12.8441 7.62132 12.7132 7.49269C12.5771 7.35893 12.4724 7.20458 12.3991 7.02966C12.3205 6.85473 12.2812 6.66694 12.2812 6.46629C12.2812 6.2605 12.3205 6.07014 12.3991 5.89521C12.4724 5.71514 12.5771 5.56079 12.7132 5.43217C12.8441 5.2984 13.0012 5.19293 13.1845 5.11576C13.3625 5.03859 13.5536 5 13.7579 5C13.9621 5 14.1532 5.03859 14.3312 5.11576C14.504 5.19293 14.6585 5.2984 14.7946 5.43217C14.9255 5.56079 15.0302 5.71514 15.1088 5.89521C15.1821 6.07014 15.2188 6.2605 15.2188 6.46629C15.2188 6.66694 15.1821 6.85473 15.1088 7.02966C15.0302 7.20458 14.9255 7.35893 14.7946 7.49269C14.6585 7.62132 14.504 7.72422 14.3312 7.80139C14.1532 7.87342 13.9621 7.90943 13.7579 7.90943Z" fill="white"/>
</svg>
