<svg width="20" height="20" viewBox="0 0 20 20" fill="none" xmlns="http://www.w3.org/2000/svg">
<path fill-rule="evenodd" clip-rule="evenodd" d="M10 1.6875C10.1672 1.6875 10.3233 1.77105 10.416 1.91015L16.666 11.2851C16.7294 11.3802 16.7583 11.494 16.7479 11.6078C16.6468 12.7207 16.1963 14.3766 15.1594 15.7676C14.108 17.1779 12.4521 18.3125 10 18.3125C7.54786 18.3125 5.89197 17.1779 4.84061 15.7676C3.80368 14.3766 3.35323 12.7207 3.25205 11.6078C3.24171 11.494 3.27062 11.3802 3.33398 11.2851L9.58398 1.91015C9.67671 1.77105 9.83282 1.6875 10 1.6875ZM4.26631 11.6894C4.38403 12.6557 4.78999 14.0265 5.64235 15.1699C6.53228 16.3637 7.90668 17.3125 10 17.3125C12.0933 17.3125 13.4677 16.3637 14.3577 15.1699C15.21 14.0265 15.616 12.6557 15.7337 11.6894L10 3.08889L4.26631 11.6894Z" fill="white"/>
</svg>
