<svg width="20" height="20" viewBox="0 0 20 20" fill="none" xmlns="http://www.w3.org/2000/svg">
<path fill-rule="evenodd" clip-rule="evenodd" d="M1.25 3.125C1.25 2.08947 2.08947 1.25 3.125 1.25H14.375C15.4105 1.25 16.25 2.08947 16.25 3.125V3.76969C16.2999 3.75684 16.3523 3.75 16.4062 3.75H16.875C17.9105 3.75 18.75 4.58947 18.75 5.625V16.875C18.75 17.9105 17.9105 18.75 16.875 18.75H5.625C4.58947 18.75 3.75 17.9105 3.75 16.875V16.4062C3.75 16.3523 3.75684 16.2999 3.76969 16.25H3.125C2.08947 16.25 1.25 15.4105 1.25 14.375V3.125ZM4.98031 16.25C4.99316 16.2999 5 16.3523 5 16.4062V16.875C5 17.2202 5.27982 17.5 5.625 17.5H16.875C17.2202 17.5 17.5 17.2202 17.5 16.875V5.625C17.5 5.27982 17.2202 5 16.875 5H16.4062C16.3523 5 16.2999 4.99316 16.25 4.98031V14.375C16.25 15.4105 15.4105 16.25 14.375 16.25H4.98031ZM3.125 2.5C2.77982 2.5 2.5 2.77982 2.5 3.125V14.375C2.5 14.7202 2.77982 15 3.125 15H14.375C14.7202 15 15 14.7202 15 14.375V3.125C15 2.77982 14.7202 2.5 14.375 2.5H3.125Z" fill="white"/>
</svg>
