<svg width="20" height="20" viewBox="0 0 20 20" fill="none" xmlns="http://www.w3.org/2000/svg">
<path fill-rule="evenodd" clip-rule="evenodd" d="M2.875 1.375C2.04657 1.375 1.375 2.04657 1.375 2.875V14.625C1.375 15.4534 2.04657 16.125 2.875 16.125H3.875V17.125C3.875 17.9534 4.54657 18.625 5.375 18.625H17.125C17.9534 18.625 18.625 17.9534 18.625 17.125V5.375C18.625 4.54657 17.9534 3.875 17.125 3.875H16.125V2.875C16.125 2.04657 15.4534 1.375 14.625 1.375H2.875ZM15.125 2.875C15.125 2.59886 14.9011 2.375 14.625 2.375H2.875C2.59886 2.375 2.375 2.59886 2.375 2.875V14.625C2.375 14.9011 2.59886 15.125 2.875 15.125H14.625C14.9011 15.125 15.125 14.9011 15.125 14.625V2.875ZM4.875 16.125H14.625C15.4534 16.125 16.125 15.4534 16.125 14.625V4.875H17.125C17.4011 4.875 17.625 5.09886 17.625 5.375V17.125C17.625 17.4011 17.4011 17.625 17.125 17.625H5.375C5.09886 17.625 4.875 17.4011 4.875 17.125V16.125Z" fill="white"/>
</svg>
