<svg width="20" height="20" viewBox="0 0 20 20" fill="none" xmlns="http://www.w3.org/2000/svg">
<path fill-rule="evenodd" clip-rule="evenodd" d="M15.5578 1.23964C15.8773 0.92012 16.3954 0.92012 16.7149 1.23964L18.7604 3.28509C19.0799 3.60461 19.0799 4.12265 18.7604 4.44217L6.48765 16.7149C6.42547 16.7771 6.35366 16.8288 6.27501 16.8681L2.1841 18.9136C1.86911 19.0711 1.48868 19.0094 1.23966 18.7603C0.99064 18.5113 0.928905 18.1309 1.0864 17.8159L3.13185 13.725C3.17118 13.6463 3.22293 13.5745 3.28511 13.5124L15.5578 1.23964ZM4.53608 14.5756L3.64771 16.3523L5.42445 15.4639L17.0247 3.86363L16.1364 2.97526L4.53608 14.5756Z" fill="white"/>
</svg>
