<svg width="20" height="20" viewBox="0 0 20 20" fill="none" xmlns="http://www.w3.org/2000/svg">
<path fill-rule="evenodd" clip-rule="evenodd" d="M1.09375 3.125C1.09375 2.00317 2.00317 1.09375 3.125 1.09375H8.75C9.18147 1.09375 9.53125 1.44353 9.53125 1.875C9.53125 2.30647 9.18147 2.65625 8.75 2.65625H3.125C2.86612 2.65625 2.65625 2.86612 2.65625 3.125V16.875C2.65625 17.1339 2.86612 17.3438 3.125 17.3438H16.875C17.1339 17.3438 17.3438 17.1339 17.3438 16.875V11.25C17.3438 10.8185 17.6935 10.4688 18.125 10.4688C18.5565 10.4688 18.9062 10.8185 18.9062 11.25V16.875C18.9062 17.9968 17.9968 18.9062 16.875 18.9062H3.125C2.00317 18.9062 1.09375 17.9968 1.09375 16.875V3.125Z" fill="white"/>
<path fill-rule="evenodd" clip-rule="evenodd" d="M16.1206 1.43306C16.3646 1.18898 16.7604 1.18898 17.0044 1.43306L18.5669 2.99556C18.811 3.23963 18.811 3.63536 18.5669 3.87944L9.19195 13.2544C9.14445 13.3019 9.0896 13.3415 9.02952 13.3715L5.90452 14.934C5.66391 15.0543 5.3733 15.0071 5.18308 14.8169C4.99285 14.6267 4.94569 14.3361 5.066 14.0955L6.6285 10.9705C6.65854 10.9104 6.69807 10.8555 6.74557 10.808L16.1206 1.43306ZM7.70117 11.6202L7.02256 12.9774L8.37979 12.2988L17.2411 3.4375L16.5625 2.75888L7.70117 11.6202Z" fill="white"/>
</svg>
