<svg width="20" height="20" viewBox="0 0 20 20" fill="none" xmlns="http://www.w3.org/2000/svg">
<path d="M2.875 1.375C2.04657 1.375 1.375 2.04657 1.375 2.875V17.125C1.375 17.9534 2.04657 18.625 2.875 18.625H17.125C17.9534 18.625 18.625 17.9534 18.625 17.125V11.25C18.625 10.9739 18.4011 10.75 18.125 10.75C17.8489 10.75 17.625 10.9739 17.625 11.25V17.125C17.625 17.4011 17.4011 17.625 17.125 17.625H2.875C2.59886 17.625 2.375 17.4011 2.375 17.125V2.875C2.375 2.59886 2.59886 2.375 2.875 2.375H8.75C9.02614 2.375 9.25 2.15114 9.25 1.875C9.25 1.59886 9.02614 1.375 8.75 1.375H2.875Z" fill="white"/>
<path fill-rule="evenodd" clip-rule="evenodd" d="M15.9786 2.14645C15.7833 1.95118 15.4667 1.95118 15.2714 2.14645L6.10187 11.316C6.05689 11.361 6.02091 11.4142 5.99585 11.4726L4.74545 14.3902C4.66491 14.5781 4.7069 14.7962 4.85147 14.9407C4.99604 15.0853 5.21406 15.1273 5.40198 15.0467L8.31958 13.7963C8.37804 13.7713 8.43119 13.7353 8.47617 13.6903L17.6458 4.52075C17.841 4.32549 17.841 4.0089 17.6458 3.81364L15.9786 2.14645ZM6.87706 11.955L15.625 3.20711L16.5851 4.1672L7.83715 12.9151L6.15699 13.6352L6.87706 11.955Z" fill="white"/>
</svg>
