<svg width="20" height="20" viewBox="0 0 20 20" fill="none" xmlns="http://www.w3.org/2000/svg">
<path fill-rule="evenodd" clip-rule="evenodd" d="M6.81471 6.81472C7.06767 6.56176 7.47779 6.56176 7.73074 6.81472L10 9.08398L12.2693 6.81471C12.5222 6.56176 12.9323 6.56176 13.1853 6.81471C13.4382 7.06767 13.4382 7.47779 13.1853 7.73074L10.916 10L13.1853 12.2693C13.4382 12.5222 13.4382 12.9323 13.1853 13.1853C12.9323 13.4382 12.5222 13.4382 12.2693 13.1853L10 10.916L7.73074 13.1853C7.47779 13.4382 7.06767 13.4382 6.81472 13.1853C6.56176 12.9323 6.56176 12.5222 6.81471 12.2693L9.08398 10L6.81472 7.73074C6.56176 7.47779 6.56176 7.06767 6.81471 6.81472ZM9.98915 9.98915C9.98936 9.99638 9.98936 10.0036 9.98915 10.0109C9.99276 10.0107 9.99638 10.0107 10 10.0107C10.0036 10.0107 10.0072 10.0107 10.0109 10.0109C10.0107 10.0072 10.0107 10.0036 10.0107 10C10.0107 9.99638 10.0107 9.99276 10.0109 9.98915C10.0036 9.98936 9.99638 9.98936 9.98915 9.98915Z" fill="#B83939"/>
<path fill-rule="evenodd" clip-rule="evenodd" d="M10 2.28571C6.02355 2.28571 2.28571 6.02355 2.28571 10C2.28571 13.9764 6.02355 17.7143 10 17.7143C13.9764 17.7143 17.7143 13.9764 17.7143 10C17.7143 6.02355 13.9764 2.28571 10 2.28571ZM1 10C1 5.02944 5.02944 1 10 1C14.9706 1 19 5.02944 19 10C19 14.9706 14.9706 19 10 19C5.02944 19 1 14.9706 1 10Z" fill="#B83939"/>
</svg>
