<svg width="20" height="20" viewBox="0 0 20 20" fill="none" xmlns="http://www.w3.org/2000/svg">
<path fill-rule="evenodd" clip-rule="evenodd" d="M10 2.375C5.78883 2.375 2.375 5.78883 2.375 10C2.375 14.2112 5.78883 17.625 10 17.625C14.2112 17.625 17.625 14.2112 17.625 10C17.625 5.78883 14.2112 2.375 10 2.375ZM1.375 10C1.375 5.23654 5.23654 1.375 10 1.375C14.7635 1.375 18.625 5.23654 18.625 10C18.625 14.7635 14.7635 18.625 10 18.625C5.23654 18.625 1.375 14.7635 1.375 10Z" fill="white"/>
<path d="M7.85355 7.14645C7.65829 6.95118 7.34171 6.95118 7.14645 7.14645C6.95118 7.34171 6.95118 7.65829 7.14645 7.85355L9.29289 10L7.14645 12.1464C6.95118 12.3417 6.95118 12.6583 7.14645 12.8536C7.34171 13.0488 7.65829 13.0488 7.85355 12.8536L10 10.7071L12.1464 12.8536C12.3417 13.0488 12.6583 13.0488 12.8536 12.8536C13.0488 12.6583 13.0488 12.3417 12.8536 12.1464L10.7071 10L12.8536 7.85355C13.0488 7.65829 13.0488 7.34171 12.8536 7.14645C12.6583 6.95118 12.3417 6.95118 12.1464 7.14645L10 9.29289L7.85355 7.14645Z" fill="white"/>
</svg>
