<svg width="20" height="20" viewBox="0 0 20 20" fill="none" xmlns="http://www.w3.org/2000/svg">
<path fill-rule="evenodd" clip-rule="evenodd" d="M10 18.75C14.8325 18.75 18.75 14.8325 18.75 10C18.75 5.16751 14.8325 1.25 10 1.25C5.16751 1.25 1.25 5.16751 1.25 10C1.25 14.8325 5.16751 18.75 10 18.75ZM6.6246 13.4375C7.03966 14.8519 7.77437 16.2832 8.92995 17.6767C6.34548 17.3198 4.16796 15.6885 3.05214 13.4375H6.6246ZM7.67142 13.4375C8.10097 14.7531 8.84275 16.086 10 17.388C11.1573 16.086 11.899 14.7531 12.3286 13.4375H7.67142ZM12.5975 12.4375H7.40249C7.13409 11.176 7.13348 9.94216 7.30709 8.77988C7.35612 8.45158 7.41913 8.12877 7.49408 7.8125H12.5059C12.5809 8.12877 12.6439 8.45158 12.6929 8.77988C12.8665 9.94216 12.8659 11.176 12.5975 12.4375ZM13.3754 13.4375C12.9603 14.8519 12.2256 16.2832 11.07 17.6767C13.6545 17.3198 15.832 15.6885 16.9479 13.4375H13.3754ZM17.3158 12.564V12.4375H13.6176C13.8691 11.1282 13.8631 9.84498 13.6819 8.63215C13.6405 8.35496 13.59 8.08157 13.5314 7.8125H17.437C17.6407 8.50623 17.75 9.24035 17.75 10C17.75 10.8986 17.5971 11.7615 17.3158 12.564ZM6.3824 12.4375H2.64108C2.38734 11.671 2.25 10.8516 2.25 10C2.25 9.24035 2.3593 8.50623 2.56302 7.8125H6.46858C6.40997 8.08157 6.35946 8.35496 6.31806 8.63215C6.1369 9.84498 6.13094 11.1282 6.3824 12.4375ZM6.72792 6.8125H2.93375C4.01801 4.4126 6.28896 2.66374 8.9984 2.31413C8.14155 3.45851 7.26888 5.01493 6.72792 6.8125ZM10 2.65246C9.18979 3.67302 8.32881 5.12167 7.77602 6.8125H12.224C11.6712 5.12167 10.8102 3.67302 10 2.65246ZM13.2721 6.8125H17.0663C15.982 4.41259 13.711 2.66374 11.0016 2.31413C11.8584 3.45851 12.7311 5.01493 13.2721 6.8125Z" fill="white"/>
</svg>
