<svg width="22" height="22" viewBox="0 0 22 22" fill="none" xmlns="http://www.w3.org/2000/svg">
<path fill-rule="evenodd" clip-rule="evenodd" d="M4.02896 8.89706C3.82839 9.56284 3.72059 10.2688 3.72059 11C3.72059 11.7312 3.82839 12.4372 4.02896 13.1029H7.49148C7.33838 12.3191 7.27941 11.6007 7.27941 11C7.27941 10.3993 7.33838 9.68092 7.49148 8.89706H4.02896ZM4.39935 7.92647H7.72315C8.09874 6.59861 8.75267 5.1561 9.82998 3.81412C7.41632 4.2041 5.40014 5.78085 4.39935 7.92647ZM11 3.93835C9.84272 5.21169 9.14025 6.62066 8.73527 7.92647H13.2647C12.8598 6.62066 12.1573 5.21169 11 3.93835ZM13.5182 8.89706H8.4818C8.31375 9.68486 8.25 10.4063 8.25 11C8.25 11.5937 8.31375 12.3151 8.4818 13.1029H13.5182C13.6862 12.3151 13.75 11.5937 13.75 11C13.75 10.4063 13.6862 9.68486 13.5182 8.89706ZM14.5085 13.1029C14.6616 12.3191 14.7206 11.6007 14.7206 11C14.7206 10.3993 14.6616 9.68092 14.5085 8.89706H17.971C18.1716 9.56284 18.2794 10.2688 18.2794 11C18.2794 11.7312 18.1716 12.4372 17.971 13.1029H14.5085ZM13.2647 14.0735H8.73527C9.14025 15.3793 9.84272 16.7883 11 18.0616C12.1573 16.7883 12.8598 15.3793 13.2647 14.0735ZM9.82998 18.1859C8.75267 16.8439 8.09874 15.4014 7.72315 14.0735H4.39935C5.40014 16.2192 7.41632 17.7959 9.82998 18.1859ZM12.17 18.1859C13.2473 16.8439 13.9013 15.4014 14.2768 14.0735H17.6006C16.5999 16.2192 14.5837 17.7959 12.17 18.1859ZM17.6006 7.92647H14.2768C13.9013 6.59861 13.2473 5.1561 12.17 3.81412C14.5837 4.2041 16.5999 5.78085 17.6006 7.92647ZM2.75 11C2.75 6.44365 6.44365 2.75 11 2.75C15.5563 2.75 19.25 6.44365 19.25 11C19.25 15.5563 15.5563 19.25 11 19.25C6.44365 19.25 2.75 15.5563 2.75 11Z" fill="white"/>
</svg>
