<svg width="20" height="20" viewBox="0 0 20 20" fill="none" xmlns="http://www.w3.org/2000/svg">
<path fill-rule="evenodd" clip-rule="evenodd" d="M1.25 3.125C1.25 2.08947 2.08947 1.25 3.125 1.25H11.875C12.9105 1.25 13.75 2.08947 13.75 3.125V6.25H16.875C17.9105 6.25 18.75 7.08947 18.75 8.125V16.875C18.75 17.9105 17.9105 18.75 16.875 18.75H8.125C7.08947 18.75 6.25 17.9105 6.25 16.875V13.75H3.125C2.08947 13.75 1.25 12.9105 1.25 11.875V3.125ZM7.5 13.75V16.875C7.5 17.2202 7.77982 17.5 8.125 17.5H16.875C17.2202 17.5 17.5 17.2202 17.5 16.875V8.125C17.5 7.77982 17.2202 7.5 16.875 7.5H13.75V11.875C13.75 12.9105 12.9105 13.75 11.875 13.75H7.5ZM12.5 7.5V11.875C12.5 12.2202 12.2202 12.5 11.875 12.5H7.5V8.125C7.5 7.77982 7.77982 7.5 8.125 7.5H12.5ZM12.5 6.25H8.125C7.08947 6.25 6.25 7.08947 6.25 8.125V12.5H3.125C2.77982 12.5 2.5 12.2202 2.5 11.875V3.125C2.5 2.77982 2.77982 2.5 3.125 2.5H11.875C12.2202 2.5 12.5 2.77982 12.5 3.125V6.25Z" fill="white"/>
</svg>
