<svg width="20" height="20" viewBox="0 0 20 20" fill="none" xmlns="http://www.w3.org/2000/svg">
<path d="M18.5198 1.56779C18.4949 1.53592 18.4664 1.50713 18.4347 1.48209C18.4045 1.45827 18.3723 1.43841 18.3387 1.42252C18.2739 1.39185 18.2014 1.37469 18.125 1.37469H14.0625C13.7864 1.37469 13.5625 1.59855 13.5625 1.87469C13.5625 2.15084 13.7864 2.37469 14.0625 2.37469H16.9179L8.74361 10.5489C8.54835 10.7442 8.54835 11.0608 8.74361 11.256C8.93888 11.4513 9.25546 11.4513 9.45072 11.256L17.625 3.08176V5.9372C17.625 6.21334 17.8489 6.4372 18.125 6.4372C18.4011 6.4372 18.625 6.21334 18.625 5.9372V1.87469C18.625 1.79075 18.6043 1.71164 18.5678 1.64217C18.5542 1.61633 18.5382 1.59142 18.5198 1.56779Z" fill="white"/>
<path d="M1.875 3.18073C1.59886 3.18073 1.375 3.40458 1.375 3.68073V18.1252C1.375 18.4013 1.59886 18.6252 1.875 18.6252H16.3195C16.5956 18.6252 16.8195 18.4013 16.8195 18.1252V11.2866C16.8195 11.0105 16.5956 10.7866 16.3195 10.7866C16.0433 10.7866 15.8195 11.0105 15.8195 11.2866V17.6252H2.375V4.18073H8.64584C8.92198 4.18073 9.14584 3.95687 9.14584 3.68073C9.14584 3.40458 8.92198 3.18073 8.64584 3.18073H1.875Z" fill="white"/>
</svg>
