<svg width="20" height="20" viewBox="0 0 20 20" fill="none" xmlns="http://www.w3.org/2000/svg">
<path fill-rule="evenodd" clip-rule="evenodd" d="M1.25 2.04545C1.25 1.60614 1.60614 1.25 2.04545 1.25H4.88636C5.32568 1.25 5.68182 1.60614 5.68182 2.04545C5.68182 2.48477 5.32568 2.84091 4.88636 2.84091H3.96585L8.57384 7.44889C8.88448 7.75954 8.88448 8.26319 8.57384 8.57383C8.26319 8.88448 7.75954 8.88448 7.44889 8.57383L2.84091 3.96585V4.88636C2.84091 5.32568 2.48477 5.68182 2.04545 5.68182C1.60614 5.68182 1.25 5.32568 1.25 4.88636V2.04545ZM16.0341 2.84091H15.1136C14.6743 2.84091 14.3182 2.48477 14.3182 2.04545C14.3182 1.60614 14.6743 1.25 15.1136 1.25H17.9545C18.3939 1.25 18.75 1.60614 18.75 2.04545V4.88636C18.75 5.32568 18.3939 5.68182 17.9545 5.68182C17.5152 5.68182 17.1591 5.32568 17.1591 4.88636V3.96585L12.5511 8.57383C12.2405 8.88448 11.7368 8.88448 11.4262 8.57383C11.1155 8.26319 11.1155 7.75954 11.4262 7.44889L16.0341 2.84091ZM8.57384 11.4262C8.88448 11.7368 8.88448 12.2405 8.57384 12.5511L3.96585 17.1591H4.88636C5.32568 17.1591 5.68182 17.5152 5.68182 17.9545C5.68182 18.3939 5.32568 18.75 4.88636 18.75H2.04545C1.60614 18.75 1.25 18.3939 1.25 17.9545V15.1136C1.25 14.6743 1.60614 14.3182 2.04545 14.3182C2.48477 14.3182 2.84091 14.6743 2.84091 15.1136V16.0341L7.44889 11.4262C7.75954 11.1155 8.26319 11.1155 8.57384 11.4262ZM11.4262 11.4262C11.7368 11.1155 12.2405 11.1155 12.5511 11.4262L17.1591 16.0341V15.1136C17.1591 14.6743 17.5152 14.3182 17.9545 14.3182C18.3939 14.3182 18.75 14.6743 18.75 15.1136V17.9545C18.75 18.3939 18.3939 18.75 17.9545 18.75H15.1136C14.6743 18.75 14.3182 18.3939 14.3182 17.9545C14.3182 17.5152 14.6743 17.1591 15.1136 17.1591H16.0341L11.4262 12.5511C11.1155 12.2405 11.1155 11.7368 11.4262 11.4262Z" fill="#0091E4"/>
</svg>
