<svg width="20" height="20" viewBox="0 0 20 20" fill="none" xmlns="http://www.w3.org/2000/svg">
<path fill-rule="evenodd" clip-rule="evenodd" d="M1.875 1.375C1.59886 1.375 1.375 1.59886 1.375 1.875V12.3214C1.375 12.5976 1.59886 12.8214 1.875 12.8214H7.17847V18.125C7.17847 18.4012 7.40232 18.625 7.67847 18.625H18.1249C18.401 18.625 18.6249 18.4012 18.6249 18.125V7.67858C18.6249 7.40244 18.401 7.17858 18.1249 7.17858H12.8214V1.875C12.8214 1.59886 12.5976 1.375 12.3214 1.375H1.875ZM11.8214 7.17858V2.375H2.375V11.8214H7.17847V7.67858C7.17847 7.40244 7.40232 7.17858 7.67847 7.17858H11.8214ZM8.17847 11.8214V8.17858H11.8214V11.8214H8.17847ZM8.17847 12.8214H12.3214C12.5976 12.8214 12.8214 12.5976 12.8214 12.3214V8.17858H17.6249V17.625H8.17847V12.8214Z" fill="white"/>
</svg>
