<svg width="20" height="20" viewBox="0 0 20 20" fill="none" xmlns="http://www.w3.org/2000/svg">
<path fill-rule="evenodd" clip-rule="evenodd" d="M17.5 2.04004H13.75C13.4739 2.04004 13.25 2.2639 13.25 2.54004C13.25 2.81618 13.4739 3.04004 13.75 3.04004H16.2929L8.81307 10.5198C8.61781 10.7151 8.61781 11.0317 8.81307 11.2269C9.00833 11.4222 9.32492 11.4222 9.52018 11.2269L17 3.74711V6.29004C17 6.56618 17.2239 6.79004 17.5 6.79004C17.7761 6.79004 18 6.56618 18 6.29004V2.54004C18 2.45405 17.9783 2.37313 17.9401 2.30246C17.928 2.28008 17.914 2.25843 17.8983 2.23772C17.8733 2.20482 17.8443 2.1751 17.812 2.14931C17.7809 2.12437 17.7474 2.1037 17.7125 2.0873C17.648 2.05698 17.576 2.04004 17.5 2.04004H17.5Z" fill="white"/>
<path fill-rule="evenodd" clip-rule="evenodd" d="M2 4.20679C2 3.93064 2.22386 3.70679 2.5 3.70679H8.75C9.02614 3.70679 9.25 3.93064 9.25 4.20679C9.25 4.48293 9.02614 4.70679 8.75 4.70679H3V17.0401H15.3333V11.2276C15.3333 10.9515 15.5572 10.7276 15.8333 10.7276C16.1095 10.7276 16.3333 10.9515 16.3333 11.2276V17.5401C16.3333 17.8163 16.1095 18.0401 15.8333 18.0401H2.5C2.22386 18.0401 2 17.8163 2 17.5401V4.20679Z" fill="white"/>
</svg>
