<svg width="20" height="20" viewBox="0 0 20 20" fill="none" xmlns="http://www.w3.org/2000/svg">
<path d="M2.1875 1.44154C1.91136 1.44154 1.6875 1.66539 1.6875 1.94154V4.95079C1.6875 5.22694 1.91136 5.45079 2.1875 5.45079C2.46364 5.45079 2.6875 5.22694 2.6875 4.95079V3.14991L7.84329 8.31334C8.03841 8.50875 8.35499 8.50898 8.5504 8.31387C8.74581 8.11875 8.74604 7.80217 8.55092 7.60676L3.39334 2.44154H5.1923C5.46845 2.44154 5.6923 2.21768 5.6923 1.94154C5.6923 1.66539 5.46845 1.44154 5.1923 1.44154H2.1875Z" fill="white"/>
<path d="M2.1875 18.6914C1.91136 18.6914 1.6875 18.4676 1.6875 18.1914V15.1822C1.6875 14.906 1.91136 14.6822 2.1875 14.6822C2.46364 14.6822 2.6875 14.906 2.6875 15.1822V16.9831L7.84329 11.8196C8.03841 11.6242 8.35499 11.624 8.5504 11.8191C8.74581 12.0142 8.74604 12.3308 8.55092 12.5262L3.39334 17.6914H5.1923C5.46845 17.6914 5.6923 17.9153 5.6923 18.1914C5.6923 18.4676 5.46845 18.6914 5.1923 18.6914H2.1875Z" fill="white"/>
<path d="M18.3125 1.94154C18.3125 1.66539 18.0886 1.44154 17.8125 1.44154H14.8077C14.5316 1.44154 14.3077 1.66539 14.3077 1.94154C14.3077 2.21768 14.5316 2.44154 14.8077 2.44154H16.6067L11.4491 7.60676C11.254 7.80217 11.2542 8.11875 11.4496 8.31387C11.645 8.50898 11.9616 8.50875 12.1567 8.31334L17.3125 3.14991V4.95079C17.3125 5.22694 17.5364 5.45079 17.8125 5.45079C18.0886 5.45079 18.3125 5.22694 18.3125 4.95079V1.94154Z" fill="white"/>
<path d="M17.8125 18.6914C18.0886 18.6914 18.3125 18.4676 18.3125 18.1914V15.1822C18.3125 14.906 18.0886 14.6822 17.8125 14.6822C17.5364 14.6822 17.3125 14.906 17.3125 15.1822V16.9831L12.1567 11.8196C11.9616 11.6242 11.645 11.624 11.4496 11.8191C11.2542 12.0142 11.254 12.3308 11.4491 12.5262L16.6067 17.6914H14.8077C14.5316 17.6914 14.3077 17.9153 14.3077 18.1914C14.3077 18.4676 14.5316 18.6914 14.8077 18.6914H17.8125Z" fill="white"/>
</svg>
