<svg width="20" height="20" viewBox="0 0 20 20" fill="none" xmlns="http://www.w3.org/2000/svg">
<path d="M2.34425 2.00178C2.1428 1.81291 1.81617 1.81291 1.61472 2.00178C1.41326 2.19064 1.41326 2.49686 1.61472 2.68572L16.0518 16.2205C16.2533 16.4094 16.5799 16.4094 16.7814 16.2205C16.9828 16.0317 16.9828 15.7255 16.7814 15.5366L2.34425 2.00178Z" fill="white"/>
<path d="M5.58959 2.39062C5.58959 2.11448 5.81345 1.89062 6.08959 1.89062L18.2501 1.89062C18.5262 1.89062 18.7501 2.11448 18.7501 2.39062C18.7501 2.66676 18.5262 2.89062 18.2501 2.89062L17.3705 2.89062L13.6894 9.07984C13.5483 9.31717 13.2414 9.39514 13.0041 9.25398C12.7668 9.11282 12.6888 8.80599 12.83 8.56865L16.207 2.89062L6.08959 2.89062C5.81345 2.89062 5.58959 2.66676 5.58959 2.39062Z" fill="white"/>
<path d="M6.87101 9.07418C7.10813 8.93265 7.41508 9.01014 7.5566 9.24726L8.99538 11.6578C9.04162 11.7353 9.06604 11.8238 9.06604 11.9141V17.1563H10.9328V13.9612C10.9328 13.6851 11.1567 13.4612 11.4328 13.4612C11.7089 13.4612 11.9328 13.6851 11.9328 13.9612V17.6563C11.9328 17.9324 11.7089 18.1563 11.4328 18.1563H8.56604C8.2899 18.1563 8.06604 17.9324 8.06604 17.6563V12.0519L6.69793 9.75977C6.5564 9.52266 6.63389 9.2157 6.87101 9.07418Z" fill="white"/>
</svg>
