<svg width="20" height="20" viewBox="0 0 20 20" fill="none" xmlns="http://www.w3.org/2000/svg">
<path fill-rule="evenodd" clip-rule="evenodd" d="M3.32072 2.08862L8.99454 11.6589C9.0403 11.7361 9.06445 11.8242 9.06445 11.9139V17.1561H10.9355V11.9139C10.9355 11.8242 10.9597 11.7361 11.0054 11.6589L16.6793 2.08862L17.5395 2.59859L11.9355 12.051V17.6561C11.9355 17.9323 11.7117 18.1561 11.4355 18.1561H8.56445C8.28831 18.1561 8.06445 17.9323 8.06445 17.6561V12.051L2.46053 2.59859L3.32072 2.08862Z" fill="white"/>
<path fill-rule="evenodd" clip-rule="evenodd" d="M1.25 2.39062C1.25 2.11448 1.47386 1.89062 1.75 1.89062H18.25C18.5261 1.89062 18.75 2.11448 18.75 2.39062C18.75 2.66677 18.5261 2.89062 18.25 2.89062H1.75C1.47386 2.89062 1.25 2.66677 1.25 2.39062Z" fill="white"/>
</svg>
