<svg width="20" height="20" viewBox="0 0 20 20" fill="none" xmlns="http://www.w3.org/2000/svg">
<path d="M3.125 1.99995C3.40114 1.99995 3.625 2.22381 3.625 2.49995V5.06727C4.4178 5.28608 5 6.01248 5 6.87486C5 7.73725 4.4178 8.46365 3.625 8.68246V17.5C3.625 17.7761 3.40114 18 3.125 18C2.84886 18 2.625 17.7761 2.625 17.5V8.68246C1.8322 8.46365 1.25 7.73725 1.25 6.87486C1.25 6.01248 1.8322 5.28608 2.625 5.06727V2.49995C2.625 2.22381 2.84886 1.99995 3.125 1.99995Z" fill="white"/>
<path d="M10 1.99995C10.2761 1.99995 10.5 2.22381 10.5 2.49995V11.3173C11.2928 11.5361 11.875 12.2625 11.875 13.1249C11.875 13.9873 11.2928 14.7137 10.5 14.9325V17.5C10.5 17.7761 10.2761 18 10 18C9.72386 18 9.5 17.7761 9.5 17.5V14.9325C8.7072 14.7137 8.125 13.9873 8.125 13.1249C8.125 12.2625 8.7072 11.5361 9.5 11.3173V2.49995C9.5 2.22381 9.72386 1.99995 10 1.99995Z" fill="white"/>
<path d="M17.375 2.49995C17.375 2.22381 17.1511 1.99995 16.875 1.99995C16.5989 1.99995 16.375 2.22381 16.375 2.49995V5.06727C15.5822 5.28608 15 6.01248 15 6.87486C15 7.73725 15.5822 8.46365 16.375 8.68246V17.5C16.375 17.7761 16.5989 18 16.875 18C17.1511 18 17.375 17.7761 17.375 17.5V8.68246C18.1678 8.46365 18.75 7.73725 18.75 6.87486C18.75 6.01248 18.1678 5.28608 17.375 5.06727V2.49995Z" fill="white"/>
</svg>
