<svg width="20" height="20" viewBox="0 0 20 20" fill="none" xmlns="http://www.w3.org/2000/svg">
<path fill-rule="evenodd" clip-rule="evenodd" d="M1.25 2.04545C1.25 1.60614 1.60614 1.25 2.04545 1.25H17.9545C18.3939 1.25 18.75 1.60614 18.75 2.04545C18.75 2.48477 18.3939 2.84091 17.9545 2.84091H2.04545C1.60614 2.84091 1.25 2.48477 1.25 2.04545ZM3.23864 7.34848C3.23864 6.90917 3.59477 6.55303 4.03409 6.55303H15.9659C16.4052 6.55303 16.7614 6.90917 16.7614 7.34848C16.7614 7.7878 16.4052 8.14394 15.9659 8.14394H4.03409C3.59477 8.14394 3.23864 7.7878 3.23864 7.34848ZM5.89015 12.6515C5.89015 12.2122 6.24629 11.8561 6.68561 11.8561H13.3144C13.7537 11.8561 14.1098 12.2122 14.1098 12.6515C14.1098 13.0908 13.7537 13.447 13.3144 13.447H6.68561C6.24629 13.447 5.89015 13.0908 5.89015 12.6515ZM7.21591 17.9545C7.21591 17.5152 7.57205 17.1591 8.01136 17.1591H11.9886C12.428 17.1591 12.7841 17.5152 12.7841 17.9545C12.7841 18.3939 12.428 18.75 11.9886 18.75H8.01136C7.57205 18.75 7.21591 18.3939 7.21591 17.9545Z" fill="white"/>
</svg>
