<svg width="20" height="20" viewBox="0 0 20 20" fill="none" xmlns="http://www.w3.org/2000/svg">
<path fill-rule="evenodd" clip-rule="evenodd" d="M2.63362 2.8907H1.75C1.47386 2.8907 1.25 2.66684 1.25 2.3907C1.25 2.11456 1.47386 1.8907 1.75 1.8907H18.25C18.5261 1.8907 18.75 2.11456 18.75 2.3907C18.75 2.66684 18.5261 2.8907 18.25 2.8907H17.3664L11.9355 12.0511V17.6562C11.9355 17.9324 11.7117 18.1562 11.4355 18.1562H8.56445C8.28831 18.1562 8.06445 17.9324 8.06445 17.6562V12.0511L2.63362 2.8907ZM3.79615 2.8907L8.99455 11.6591C9.04031 11.7363 9.06445 11.8243 9.06445 11.9141V17.1562H10.9355V11.9141C10.9355 11.8243 10.9597 11.7363 11.0055 11.6591L16.2038 2.8907H3.79615Z" fill="white"/>
</svg>
