<svg width="20" height="20" viewBox="0 0 20 20" fill="none" xmlns="http://www.w3.org/2000/svg">
<path d="M16.3366 6.62126C17.6696 6.62126 18.7501 5.54064 18.7501 4.20763C18.7501 2.87462 17.6696 1.79401 16.3366 1.79401C15.0037 1.79401 13.9231 2.87462 13.9231 4.20763C13.9231 5.54064 15.0037 6.62126 16.3366 6.62126Z" fill="white"/>
<path d="M0.75 3.42089C0.75 3.14475 0.973858 2.92089 1.25 2.92089H12.1731C12.4493 2.92089 12.6731 3.14475 12.6731 3.42089C12.6731 3.69703 12.4493 3.92089 12.1731 3.92089H3.10897L8.14 12.4073C8.18576 12.4845 8.2099 12.5726 8.2099 12.6623V17.7061H9.98168V12.6623C9.98168 12.5726 10.0058 12.4845 10.0516 12.4073L13.1327 7.21003C13.2735 6.97249 13.5802 6.89409 13.8178 7.03491C14.0553 7.17573 14.1337 7.48245 13.9929 7.71998L10.9817 12.7994V18.2061C10.9817 18.4823 10.7578 18.7061 10.4817 18.7061H7.7099C7.43376 18.7061 7.2099 18.4823 7.2099 18.2061V12.7994L1.94646 3.92089H1.25C0.973858 3.92089 0.75 3.69703 0.75 3.42089Z" fill="white"/>
</svg>
