<svg width="20" height="20" viewBox="0 0 20 20" fill="none" xmlns="http://www.w3.org/2000/svg">
<path fill-rule="evenodd" clip-rule="evenodd" d="M1.875 2.5C1.875 2.15482 2.15482 1.875 2.5 1.875H17.5C17.8452 1.875 18.125 2.15482 18.125 2.5C18.125 2.84518 17.8452 3.125 17.5 3.125H2.5C2.15482 3.125 1.875 2.84518 1.875 2.5Z" fill="white"/>
<path fill-rule="evenodd" clip-rule="evenodd" d="M4.375 7.5C4.375 7.15482 4.65482 6.875 5 6.875L15 6.875C15.3452 6.875 15.625 7.15482 15.625 7.5C15.625 7.84518 15.3452 8.125 15 8.125L5 8.125C4.65482 8.125 4.375 7.84518 4.375 7.5Z" fill="white"/>
<path fill-rule="evenodd" clip-rule="evenodd" d="M6.875 12.5C6.875 12.1548 7.15482 11.875 7.5 11.875L12.5 11.875C12.8452 11.875 13.125 12.1548 13.125 12.5C13.125 12.8452 12.8452 13.125 12.5 13.125L7.5 13.125C7.15482 13.125 6.875 12.8452 6.875 12.5Z" fill="white"/>
<path fill-rule="evenodd" clip-rule="evenodd" d="M8.125 17.5C8.125 17.1548 8.40482 16.875 8.75 16.875H11.25C11.5952 16.875 11.875 17.1548 11.875 17.5C11.875 17.8452 11.5952 18.125 11.25 18.125H8.75C8.40482 18.125 8.125 17.8452 8.125 17.5Z" fill="white"/>
</svg>
