<svg width="20" height="20" viewBox="0 0 20 20" fill="none" xmlns="http://www.w3.org/2000/svg">
<path fill-rule="evenodd" clip-rule="evenodd" d="M15.6987 5.70382C15.3937 5.55676 15.1174 5.35962 14.8804 5.12307L11.0054 11.6592C10.9597 11.7364 10.9355 11.8244 10.9355 11.9142V17.1564H9.06445V11.9142C9.06445 11.8244 9.0403 11.7364 8.99454 11.6592L3.79605 2.89062H14.002C14.0146 2.53844 14.0879 2.20172 14.2118 1.89062H1.75C1.47386 1.89062 1.25 2.11448 1.25 2.39062C1.25 2.66677 1.47386 2.89062 1.75 2.89062H2.63351L8.06445 12.0512V17.6564C8.06445 17.9325 8.28831 18.1564 8.56445 18.1564H11.4355C11.7117 18.1564 11.9355 17.9325 11.9355 17.6564V12.0512L15.6987 5.70382ZM19 3C19 4.10457 18.1046 5 17 5C15.8954 5 15 4.10457 15 3C15 1.89543 15.8954 1 17 1C18.1046 1 19 1.89543 19 3Z" fill="white"/>
</svg>
