<svg width="20" height="20" viewBox="0 0 20 20" fill="none" xmlns="http://www.w3.org/2000/svg">
<path fill-rule="evenodd" clip-rule="evenodd" d="M17.2572 2.07133C17.494 2.2134 17.5708 2.52053 17.4287 2.75732L12.9287 10.2573C12.7867 10.4941 12.4795 10.5709 12.2428 10.4288C12.006 10.2867 11.9292 9.97962 12.0713 9.74283L16.5713 2.24283C16.7133 2.00604 17.0205 1.92926 17.2572 2.07133ZM6.87097 9.07421C7.10809 8.93268 7.41504 9.01018 7.55657 9.24729L8.99534 11.6578C9.04159 11.7353 9.066 11.8239 9.066 11.9141V17.1563H10.9328V13.5001C10.9328 13.2239 11.1566 13.0001 11.4328 13.0001C11.7089 13.0001 11.9328 13.2239 11.9328 13.5001V17.6563C11.9328 17.9324 11.7089 18.1563 11.4328 18.1563H8.566C8.28986 18.1563 8.066 17.9324 8.066 17.6563V12.052L6.69789 9.75981C6.55636 9.52269 6.63385 9.21574 6.87097 9.07421Z" fill="white"/>
<path fill-rule="evenodd" clip-rule="evenodd" d="M4 2.39062C4 2.11448 4.22386 1.89063 4.5 1.89063L18.25 1.89063C18.5261 1.89063 18.75 2.11448 18.75 2.39063C18.75 2.66677 18.5261 2.89063 18.25 2.89063L4.5 2.89063C4.22386 2.89063 4 2.66677 4 2.39062Z" fill="white"/>
<path fill-rule="evenodd" clip-rule="evenodd" d="M1.61477 2.00188C1.81623 1.81302 2.14285 1.81302 2.34431 2.00188L16.7814 15.5367C16.9829 15.7256 16.9829 16.0318 16.7814 16.2206C16.58 16.4095 16.2533 16.4095 16.0519 16.2206L1.61477 2.68582C1.41331 2.49696 1.41331 2.19075 1.61477 2.00188Z" fill="white"/>
</svg>
