<svg width="20" height="20" viewBox="0 0 20 20" fill="none" xmlns="http://www.w3.org/2000/svg">
<path fill-rule="evenodd" clip-rule="evenodd" d="M3 1C3.35504 1 3.64286 1.30996 3.64286 1.69231V18.3077C3.64286 18.69 3.35504 19 3 19C2.64496 19 2.35715 18.69 2.35715 18.3077V1.69231C2.35715 1.30996 2.64496 1 3 1Z" fill="white"/>
<path fill-rule="evenodd" clip-rule="evenodd" d="M10 1C10.355 1 10.6429 1.30996 10.6429 1.69231V18.3077C10.6429 18.69 10.355 19 10 19C9.64496 19 9.35715 18.69 9.35715 18.3077V1.69231C9.35715 1.30996 9.64496 1 10 1Z" fill="white"/>
<path fill-rule="evenodd" clip-rule="evenodd" d="M17 1C17.355 1 17.6429 1.30996 17.6429 1.69231V18.3077C17.6429 18.69 17.355 19 17 19C16.645 19 16.3571 18.69 16.3571 18.3077V1.69231C16.3571 1.30996 16.645 1 17 1Z" fill="white"/>
<path d="M5 6.88462C5 8.03167 4.10457 8.96154 3 8.96154C1.89543 8.96154 1 8.03167 1 6.88462C1 5.73756 1.89543 4.80769 3 4.80769C4.10457 4.80769 5 5.73756 5 6.88462Z" fill="white"/>
<path d="M19 6.88462C19 8.03167 18.1046 8.96154 17 8.96154C15.8954 8.96154 15 8.03167 15 6.88462C15 5.73756 15.8954 4.80769 17 4.80769C18.1046 4.80769 19 5.73756 19 6.88462Z" fill="white"/>
<path d="M12 14.1538C12 15.3009 11.1046 16.2308 10 16.2308C8.89543 16.2308 8 15.3009 8 14.1538C8 13.0068 8.89543 12.0769 10 12.0769C11.1046 12.0769 12 13.0068 12 14.1538Z" fill="white"/>
</svg>
