<svg width="20" height="20" viewBox="0 0 20 20" fill="none" xmlns="http://www.w3.org/2000/svg">
<path fill-rule="evenodd" clip-rule="evenodd" d="M10.7849 4.02024L6.51327 10.6159H9.30515C9.6125 10.6159 9.84747 10.8902 9.80019 11.194L9.04149 16.0693L13.472 9.42355H10.5123C10.2041 9.42355 9.96914 9.14802 10.0175 8.84385L10.7849 4.02024ZM11.2277 1.49679C11.5219 1.04258 12.2281 1.31279 12.143 1.84784L11.097 8.42355H14.4044C14.8045 8.42355 15.0433 8.86945 14.8213 9.20246L8.61694 18.5089C8.31916 18.9556 7.62248 18.6845 7.70504 18.154L8.72249 11.6159H5.59559C5.19867 11.6159 4.95908 11.1761 5.17508 10.8426L11.2277 1.49679Z" fill="white"/>
</svg>
