<svg width="20" height="20" viewBox="0 0 20 20" fill="none" xmlns="http://www.w3.org/2000/svg">
<path fill-rule="evenodd" clip-rule="evenodd" d="M11.8747 1.28848C12.0944 1.38123 12.2231 1.62109 12.1841 1.86546L11.1587 8.29699H14.4944C14.6821 8.29699 14.8544 8.40575 14.9419 8.57946C15.0293 8.75316 15.0174 8.9632 14.911 9.12493L8.73126 18.5209C8.59699 18.725 8.34509 18.8043 8.12532 18.7115C7.90555 18.6188 7.77691 18.3789 7.81587 18.1345L8.84134 11.703H5.50562C5.31785 11.703 5.14555 11.5942 5.05814 11.4205C4.97072 11.2468 4.98259 11.0368 5.08897 10.8751L11.2687 1.47915C11.403 1.275 11.6549 1.19574 11.8747 1.28848ZM6.46681 10.646H9.4382C9.58683 10.646 9.72793 10.7143 9.824 10.8329C9.92007 10.9514 9.96138 11.1081 9.93694 11.2614L9.18758 15.9612L13.5332 9.35403H10.5618C10.4132 9.35403 10.2721 9.28568 10.176 9.16713C10.0799 9.04859 10.0386 8.89187 10.0631 8.73862L10.8124 4.03877L6.46681 10.646Z" fill="white"/>
</svg>
