<svg width="20" height="20" viewBox="0 0 20 20" fill="none" xmlns="http://www.w3.org/2000/svg">
<path d="M1.875 1.375C1.59886 1.375 1.375 1.59886 1.375 1.875V6.875C1.375 7.15114 1.59886 7.375 1.875 7.375C2.15114 7.375 2.375 7.15114 2.375 6.875V2.375H6.875C7.15114 2.375 7.375 2.15114 7.375 1.875C7.375 1.59886 7.15114 1.375 6.875 1.375H1.875Z" fill="white"/>
<path d="M1.375 18.125C1.375 18.4011 1.59886 18.625 1.875 18.625H6.875C7.15114 18.625 7.375 18.4011 7.375 18.125C7.375 17.8489 7.15114 17.625 6.875 17.625H2.375V13.125C2.375 12.8489 2.15114 12.625 1.875 12.625C1.59886 12.625 1.375 12.8489 1.375 13.125V18.125Z" fill="white"/>
<path d="M18.125 1.375C18.4011 1.375 18.625 1.59886 18.625 1.875V6.875C18.625 7.15114 18.4011 7.375 18.125 7.375C17.8489 7.375 17.625 7.15114 17.625 6.875V2.375H13.125C12.8489 2.375 12.625 2.15114 12.625 1.875C12.625 1.59886 12.8489 1.375 13.125 1.375H18.125Z" fill="white"/>
<path d="M18.125 18.625C18.4011 18.625 18.625 18.4011 18.625 18.125V13.125C18.625 12.8489 18.4011 12.625 18.125 12.625C17.8489 12.625 17.625 12.8489 17.625 13.125V17.625H13.125C12.8489 17.625 12.625 17.8489 12.625 18.125C12.625 18.4011 12.8489 18.625 13.125 18.625H18.125Z" fill="white"/>
</svg>
