<svg width="20" height="20" viewBox="0 0 20 20" fill="none" xmlns="http://www.w3.org/2000/svg">
<path fill-rule="evenodd" clip-rule="evenodd" d="M1.25 2.04545C1.25 1.60614 1.60614 1.25 2.04545 1.25H6.70455C7.14386 1.25 7.5 1.60614 7.5 2.04545C7.5 2.48477 7.14386 2.84091 6.70455 2.84091H2.84091V6.70455C2.84091 7.14386 2.48477 7.5 2.04545 7.5C1.60614 7.5 1.25 7.14386 1.25 6.70455V2.04545Z" fill="#0091E4"/>
<path fill-rule="evenodd" clip-rule="evenodd" d="M17.9545 1.25C18.3939 1.25 18.75 1.60614 18.75 2.04546V6.70455C18.75 7.14386 18.3939 7.5 17.9545 7.5C17.5152 7.5 17.1591 7.14386 17.1591 6.70455V2.84091L13.2955 2.84091C12.8561 2.84091 12.5 2.48477 12.5 2.04545C12.5 1.60614 12.8561 1.25 13.2955 1.25L17.9545 1.25Z" fill="#0091E4"/>
<path fill-rule="evenodd" clip-rule="evenodd" d="M18.75 17.9545C18.75 18.3939 18.3939 18.75 17.9545 18.75H13.2955C12.8561 18.75 12.5 18.3939 12.5 17.9545C12.5 17.5152 12.8561 17.1591 13.2955 17.1591L17.1591 17.1591L17.1591 13.2955C17.1591 12.8561 17.5152 12.5 17.9545 12.5C18.3939 12.5 18.75 12.8561 18.75 13.2955V17.9545Z" fill="#0091E4"/>
<path fill-rule="evenodd" clip-rule="evenodd" d="M2.04545 18.75C1.60614 18.75 1.25 18.3939 1.25 17.9545L1.25 13.2955C1.25 12.8561 1.60614 12.5 2.04546 12.5C2.48477 12.5 2.84091 12.8561 2.84091 13.2955L2.84091 17.1591L6.70455 17.1591C7.14386 17.1591 7.5 17.5152 7.5 17.9545C7.5 18.3939 7.14386 18.75 6.70455 18.75L2.04545 18.75Z" fill="#0091E4"/>
</svg>
