<svg width="20" height="20" viewBox="0 0 20 20" fill="none" xmlns="http://www.w3.org/2000/svg">
<path fill-rule="evenodd" clip-rule="evenodd" d="M10.5 3.64599C10.9415 3.4531 11.25 3.01258 11.25 2.5C11.25 1.80964 10.6904 1.25 10 1.25C9.30964 1.25 8.75 1.80964 8.75 2.5C8.75 3.01258 9.05852 3.4531 9.5 3.64599V7.55001C9.18082 7.6148 8.88372 7.7404 8.62132 7.91419L5.53891 4.83178C5.59448 4.69029 5.625 4.53621 5.625 4.375C5.625 3.68464 5.06536 3.125 4.375 3.125C3.68464 3.125 3.125 3.68464 3.125 4.375C3.125 5.06536 3.68464 5.625 4.375 5.625C4.53622 5.625 4.69032 5.59448 4.83182 5.5389L7.91421 8.62129C7.74041 8.88369 7.6148 9.18081 7.55001 9.5H3.64599C3.4531 9.05852 3.01258 8.75 2.5 8.75C1.80964 8.75 1.25 9.30964 1.25 10C1.25 10.6904 1.80964 11.25 2.5 11.25C3.01258 11.25 3.4531 10.9415 3.64599 10.5H7.55001C7.60473 10.7696 7.70283 11.0234 7.8367 11.2539L4.89927 13.8649C4.73983 13.7912 4.56222 13.75 4.375 13.75C3.68464 13.75 3.125 14.3096 3.125 15C3.125 15.6904 3.68464 16.25 4.375 16.25C5.06536 16.25 5.625 15.6904 5.625 15C5.625 14.8647 5.60349 14.7343 5.5637 14.6123L8.50125 12.0011C8.79168 12.219 9.13109 12.3751 9.5 12.45V16.354C9.05852 16.5469 8.75 16.9874 8.75 17.5C8.75 18.1904 9.30964 18.75 10 18.75C10.6904 18.75 11.25 18.1904 11.25 17.5C11.25 16.9874 10.9415 16.5469 10.5 16.354V12.45C10.8689 12.3751 11.2082 12.219 11.4987 12.0012L14.4363 14.6124C14.3965 14.7344 14.375 14.8647 14.375 15C14.375 15.6904 14.9346 16.25 15.625 16.25C16.3154 16.25 16.875 15.6904 16.875 15C16.875 14.3096 16.3154 13.75 15.625 13.75C15.4377 13.75 15.2601 13.7912 15.1006 13.865L12.1632 11.254C12.2971 11.0235 12.3953 10.7696 12.45 10.5H16.354C16.5469 10.9415 16.9874 11.25 17.5 11.25C18.1904 11.25 18.75 10.6904 18.75 10C18.75 9.30964 18.1904 8.75 17.5 8.75C16.9874 8.75 16.5469 9.05852 16.354 9.5H12.45C12.3852 9.18082 12.2596 8.88373 12.0858 8.62133L15.1682 5.53892C15.3097 5.59449 15.4638 5.625 15.625 5.625C16.3154 5.625 16.875 5.06536 16.875 4.375C16.875 3.68464 16.3154 3.125 15.625 3.125C14.9346 3.125 14.375 3.68464 14.375 4.375C14.375 4.53623 14.4055 4.69032 14.4611 4.83183L11.3787 7.91422C11.1163 7.74041 10.8192 7.6148 10.5 7.55001V3.64599ZM10 11.5C10.8284 11.5 11.5 10.8284 11.5 10C11.5 9.17157 10.8284 8.5 10 8.5C9.17157 8.5 8.5 9.17157 8.5 10C8.5 10.8284 9.17157 11.5 10 11.5Z" fill="white"/>
</svg>
