<svg width="20" height="20" viewBox="0 0 20 20" fill="none" xmlns="http://www.w3.org/2000/svg">
<path fill-rule="evenodd" clip-rule="evenodd" d="M2.5 15.9375C2.32741 15.9375 2.1875 16.0774 2.1875 16.25V17.5C2.1875 17.6726 2.32741 17.8125 2.5 17.8125H3.75C3.92259 17.8125 4.0625 17.6726 4.0625 17.5V16.25C4.0625 16.0774 3.92259 15.9375 3.75 15.9375H2.5ZM9.375 15.9375C9.20241 15.9375 9.0625 16.0774 9.0625 16.25V17.5C9.0625 17.6726 9.20241 17.8125 9.375 17.8125H10.625C10.7976 17.8125 10.9375 17.6726 10.9375 17.5V16.25C10.9375 16.0774 10.7976 15.9375 10.625 15.9375H9.375ZM16.25 15.9375C16.0774 15.9375 15.9375 16.0774 15.9375 16.25V17.5C15.9375 17.6726 16.0774 17.8125 16.25 17.8125H17.5C17.6726 17.8125 17.8125 17.6726 17.8125 17.5V16.25C17.8125 16.0774 17.6726 15.9375 17.5 15.9375H16.25ZM2.5 9.0625C2.32741 9.0625 2.1875 9.20241 2.1875 9.375V10.625C2.1875 10.7976 2.32741 10.9375 2.5 10.9375H3.75C3.92259 10.9375 4.0625 10.7976 4.0625 10.625V9.375C4.0625 9.20241 3.92259 9.0625 3.75 9.0625H2.5ZM9.375 9.0625C9.20241 9.0625 9.0625 9.20241 9.0625 9.375V10.625C9.0625 10.7976 9.20241 10.9375 9.375 10.9375H10.625C10.7976 10.9375 10.9375 10.7976 10.9375 10.625V9.375C10.9375 9.20241 10.7976 9.0625 10.625 9.0625H9.375ZM16.25 9.0625C16.0774 9.0625 15.9375 9.20241 15.9375 9.375V10.625C15.9375 10.7976 16.0774 10.9375 16.25 10.9375H17.5C17.6726 10.9375 17.8125 10.7976 17.8125 10.625V9.375C17.8125 9.20241 17.6726 9.0625 17.5 9.0625H16.25ZM2.5 2.1875C2.32741 2.1875 2.1875 2.32741 2.1875 2.5V3.75C2.1875 3.92259 2.32741 4.0625 2.5 4.0625H3.75C3.92259 4.0625 4.0625 3.92259 4.0625 3.75V2.5C4.0625 2.32741 3.92259 2.1875 3.75 2.1875H2.5ZM9.375 2.1875C9.20241 2.1875 9.0625 2.32741 9.0625 2.5V3.75C9.0625 3.92259 9.20241 4.0625 9.375 4.0625H10.625C10.7976 4.0625 10.9375 3.92259 10.9375 3.75V2.5C10.9375 2.32741 10.7976 2.1875 10.625 2.1875H9.375ZM16.25 2.1875C16.0774 2.1875 15.9375 2.32741 15.9375 2.5V3.75C15.9375 3.92259 16.0774 4.0625 16.25 4.0625H17.5C17.6726 4.0625 17.8125 3.92259 17.8125 3.75V2.5C17.8125 2.32741 17.6726 2.1875 17.5 2.1875H16.25ZM2.5 1.25C1.80964 1.25 1.25 1.80964 1.25 2.5V3.75C1.25 4.44036 1.80964 5 2.5 5H3.75C4.44036 5 5 4.44036 5 3.75V2.5C5 1.80964 4.44036 1.25 3.75 1.25H2.5ZM1.25 9.375C1.25 8.68464 1.80964 8.125 2.5 8.125H3.75C4.44036 8.125 5 8.68464 5 9.375V10.625C5 11.3154 4.44036 11.875 3.75 11.875H2.5C1.80964 11.875 1.25 11.3154 1.25 10.625V9.375ZM1.25 16.25C1.25 15.5596 1.80964 15 2.5 15H3.75C4.44036 15 5 15.5596 5 16.25V17.5C5 18.1904 4.44036 18.75 3.75 18.75H2.5C1.80964 18.75 1.25 18.1904 1.25 17.5V16.25ZM8.125 16.25C8.125 15.5596 8.68464 15 9.375 15H10.625C11.3154 15 11.875 15.5596 11.875 16.25V17.5C11.875 18.1904 11.3154 18.75 10.625 18.75H9.375C8.68464 18.75 8.125 18.1904 8.125 17.5V16.25ZM16.25 15C15.5596 15 15 15.5596 15 16.25V17.5C15 18.1904 15.5596 18.75 16.25 18.75H17.5C18.1904 18.75 18.75 18.1904 18.75 17.5V16.25C18.75 15.5596 18.1904 15 17.5 15H16.25ZM9.375 8.125C8.68464 8.125 8.125 8.68464 8.125 9.375V10.625C8.125 11.3154 8.68464 11.875 9.375 11.875H10.625C11.3154 11.875 11.875 11.3154 11.875 10.625V9.375C11.875 8.68464 11.3154 8.125 10.625 8.125H9.375ZM15 9.375C15 8.68464 15.5596 8.125 16.25 8.125H17.5C18.1904 8.125 18.75 8.68464 18.75 9.375V10.625C18.75 11.3154 18.1904 11.875 17.5 11.875H16.25C15.5596 11.875 15 11.3154 15 10.625V9.375ZM8.125 2.5C8.125 1.80964 8.68464 1.25 9.375 1.25H10.625C11.3154 1.25 11.875 1.80964 11.875 2.5V3.75C11.875 4.44036 11.3154 5 10.625 5H9.375C8.68464 5 8.125 4.44036 8.125 3.75V2.5ZM16.25 1.25C15.5596 1.25 15 1.80964 15 2.5V3.75C15 4.44036 15.5596 5 16.25 5H17.5C18.1904 5 18.75 4.44036 18.75 3.75V2.5C18.75 1.80964 18.1904 1.25 17.5 1.25H16.25Z" fill="white"/>
</svg>
