<svg width="20" height="20" viewBox="0 0 20 20" fill="none" xmlns="http://www.w3.org/2000/svg">
<path fill-rule="evenodd" clip-rule="evenodd" d="M14.3825 9.77027C14.4026 9.39048 14.315 9.00142 14.1094 8.65019C13.5474 7.69041 12.2964 7.34233 11.3062 7.90601C10.316 8.46969 9.99625 9.71197 10.5582 10.6718C10.8125 11.106 11.2078 11.415 11.6562 11.571L11.7553 15.1005C11.6726 15.1342 11.5912 15.1737 11.5114 15.2191C10.5213 15.7828 10.2015 17.0251 10.7635 17.9848C11.3255 18.9446 12.5765 19.2927 13.5666 18.729C14.5568 18.1653 14.8766 16.9231 14.3146 15.9633C14.0603 15.529 13.665 15.22 13.2166 15.064L13.1176 11.5345C13.2002 11.5008 13.2817 11.4613 13.3614 11.4159C13.5234 11.3237 13.6674 11.2134 13.7925 11.0891L15.3128 11.7555C15.2926 12.1353 15.3802 12.5243 15.5858 12.8755C16.1478 13.8353 17.3988 14.1834 18.389 13.6197C19.3792 13.056 19.699 11.8138 19.137 10.854C18.8573 10.3764 18.4071 10.0503 17.9033 9.91259L17.5181 6.00558C17.5565 5.98673 17.5946 5.96658 17.6324 5.9451C18.6225 5.38143 18.9423 4.13914 18.3803 3.17936C17.8183 2.21958 16.5673 1.87151 15.5771 2.43518C14.587 2.99886 14.2672 4.24114 14.8292 5.20092C15.1088 5.67849 15.5591 6.00461 16.0629 6.14232L16.4481 10.0493C16.4096 10.0682 16.3715 10.0883 16.3338 10.1098C16.1718 10.202 16.0278 10.3123 15.9027 10.4366L14.3825 9.77027ZM16.927 11.123C16.4998 11.3662 16.3707 11.8951 16.6051 12.2953C16.8394 12.6955 17.3685 12.8498 17.7958 12.6066C18.223 12.3633 18.3521 11.8344 18.1177 11.4342C17.8834 11.034 17.3543 10.8797 16.927 11.123ZM11.8995 8.91918C11.4722 9.16241 11.3431 9.69131 11.5775 10.0915C11.8118 10.4918 12.3409 10.646 12.7682 10.4028C13.1954 10.1595 13.3245 9.63063 13.0902 9.23041C12.8558 8.83019 12.3267 8.67595 11.8995 8.91918ZM12.1047 16.2323C11.6774 16.4755 11.5483 17.0044 11.7827 17.4046C12.017 17.8048 12.5461 17.9591 12.9734 17.7159C13.4007 17.4726 13.5297 16.9437 13.2954 16.5435C13.061 16.1433 12.532 15.989 12.1047 16.2323ZM16.1704 3.44835C15.7431 3.69158 15.6141 4.22048 15.8484 4.62071C16.0828 5.02093 16.6118 5.17517 17.0391 4.93193C17.4664 4.6887 17.5954 4.1598 17.3611 3.75958C17.1267 3.35936 16.5977 3.20512 16.1704 3.44835Z" fill="white"/>
<path fill-rule="evenodd" clip-rule="evenodd" d="M4.80699 3.14202C4.81196 3.05403 4.81115 2.96461 4.80422 2.87413C4.71804 1.7494 3.72081 0.927279 2.6006 1.01073C1.48039 1.09418 0.61977 2.05471 0.705952 3.17943C0.792134 4.30415 1.78935 5.12628 2.90956 5.04283C3.41654 5.00506 3.87035 4.78765 4.20729 4.45667L7.45304 5.88787C7.46082 5.8913 7.46863 5.89459 7.47646 5.89773C7.47147 5.98586 7.47227 6.07544 7.47921 6.16608C7.4933 6.3499 7.53172 6.52564 7.59103 6.69066L6.32309 7.75288C5.98463 7.57029 5.59102 7.47947 5.18093 7.51002C4.06072 7.59348 3.20009 8.554 3.28627 9.67873C3.37245 10.8034 4.36968 11.6256 5.48989 11.5421C6.61009 11.4587 7.47072 10.4981 7.38454 9.37342C7.37045 9.1896 7.33203 9.01386 7.27272 8.84884L8.54066 7.78662C8.87912 7.96921 9.27273 8.06003 9.68283 8.02948C10.803 7.94603 11.6637 6.9855 11.5775 5.86078C11.4913 4.73605 10.4941 3.91393 9.37387 3.99738C8.86667 4.03516 8.4127 4.25274 8.07572 4.58395C8.06714 4.57977 8.05844 4.57574 8.04963 4.57185L4.80699 3.14202ZM8.90673 6.61467C9.08202 6.79203 9.33194 6.89187 9.59416 6.87234C10.0609 6.83757 10.4316 6.43457 10.3943 5.94891C10.3571 5.46326 9.92931 5.11974 9.46253 5.15451C8.99575 5.18929 8.62514 5.59229 8.66235 6.07794C8.67528 6.24672 8.73539 6.39832 8.82791 6.52286C8.84189 6.53666 8.85542 6.55112 8.86845 6.56625C8.88202 6.582 8.89477 6.59816 8.90673 6.61467ZM6.2014 9.46156C6.16419 8.97591 5.73637 8.63239 5.26959 8.66716C4.80281 8.70193 4.4322 9.10493 4.46941 9.59059C4.50663 10.0762 4.93444 10.4198 5.40122 10.385C5.868 10.3502 6.23861 9.94722 6.2014 9.46156ZM3.62108 2.96227C3.58387 2.47661 3.15605 2.13309 2.68927 2.16787C2.22249 2.20264 1.85188 2.60564 1.88909 3.09129C1.9263 3.57695 2.35412 3.92046 2.8209 3.88569C3.28768 3.85092 3.65829 3.44792 3.62108 2.96227Z" fill="white"/>
</svg>
