<svg width="20" height="20" viewBox="0 0 20 20" fill="none" xmlns="http://www.w3.org/2000/svg">
<path fill-rule="evenodd" clip-rule="evenodd" d="M3.08449 4.91891C3.59479 4.91891 4.05643 4.71055 4.38897 4.37426L7.65695 5.66993C7.64986 5.73546 7.64622 5.80203 7.64622 5.86945C7.64622 6.17597 7.7214 6.46492 7.85432 6.71889L6.63358 7.7616C6.32028 7.51222 5.92353 7.3632 5.49198 7.3632C4.47882 7.3632 3.65749 8.18454 3.65749 9.1977C3.65749 10.2109 4.47882 11.0322 5.49198 11.0322C6.50514 11.0322 7.32647 10.2109 7.32647 9.1977C7.32647 8.9798 7.28848 8.77079 7.21877 8.5769L8.54251 7.44621C8.81702 7.6099 9.13789 7.70394 9.48072 7.70394C10.4939 7.70394 11.3152 6.88261 11.3152 5.86945C11.3152 4.85629 10.4939 4.03496 9.48072 4.03496C8.89212 4.03496 8.36827 4.31216 8.03259 4.74313L4.87382 3.49077C4.90338 3.36006 4.91898 3.22406 4.91898 3.08441C4.91898 2.07125 4.09765 1.24992 3.08449 1.24992C2.07133 1.24992 1.25 2.07125 1.25 3.08441C1.25 4.09758 2.07133 4.91891 3.08449 4.91891ZM3.08449 3.91891C3.54537 3.91891 3.91898 3.54529 3.91898 3.08441C3.91898 2.62354 3.54537 2.24992 3.08449 2.24992C2.62361 2.24992 2.25 2.62354 2.25 3.08441C2.25 3.54529 2.62361 3.91891 3.08449 3.91891ZM9.48072 6.70394C9.94159 6.70394 10.3152 6.33033 10.3152 5.86945C10.3152 5.40857 9.94159 5.03496 9.48072 5.03496C9.01984 5.03496 8.64622 5.40857 8.64622 5.86945C8.64622 6.33033 9.01984 6.70394 9.48072 6.70394ZM6.32647 9.1977C6.32647 9.65857 5.95285 10.0322 5.49198 10.0322C5.0311 10.0322 4.65749 9.65857 4.65749 9.1977C4.65749 8.73682 5.0311 8.3632 5.49198 8.3632C5.95285 8.3632 6.32647 8.73682 6.32647 9.1977Z" fill="white"/>
<path fill-rule="evenodd" clip-rule="evenodd" d="M18.0655 4.81446C18.0655 5.60873 17.5607 6.2851 16.8544 6.54029L17.244 10.3427C18.1004 10.4975 18.75 11.2468 18.75 12.1478C18.75 13.161 17.9286 13.9823 16.9155 13.9823C15.9023 13.9823 15.081 13.161 15.081 12.1478C15.081 12.0621 15.0869 11.9777 15.0983 11.8951L13.515 11.0907C13.2961 11.326 13.0161 11.5038 12.7003 11.5987L12.79 15.1262C13.6077 15.311 14.2183 16.042 14.2183 16.9156C14.2183 17.9288 13.397 18.7501 12.3838 18.7501C11.3707 18.7501 10.5493 17.9288 10.5493 16.9156C10.5493 16.1099 11.0687 15.4255 11.791 15.179L11.7004 11.6151C10.9154 11.4071 10.3369 10.6919 10.3369 9.84162C10.3369 8.82846 11.1582 8.00713 12.1714 8.00713C13.1846 8.00713 14.0059 8.82846 14.0059 9.84162C14.0059 9.96448 13.9938 10.0845 13.9708 10.2006L15.5019 10.9785C15.6992 10.7403 15.9556 10.5527 16.2486 10.4383L15.8564 6.61068C15.0229 6.43776 14.3965 5.69926 14.3965 4.81446C14.3965 3.80129 15.2178 2.97997 16.231 2.97997C17.2441 2.97997 18.0655 3.80129 18.0655 4.81446ZM16.231 5.64895C16.6919 5.64895 17.0655 5.27533 17.0655 4.81446C17.0655 4.35358 16.6919 3.97997 16.231 3.97997C15.7701 3.97997 15.3965 4.35358 15.3965 4.81446C15.3965 5.27533 15.7701 5.64895 16.231 5.64895ZM13.0059 9.84162C13.0059 10.3025 12.6323 10.6761 12.1714 10.6761C11.7105 10.6761 11.3369 10.3025 11.3369 9.84162C11.3369 9.38074 11.7105 9.00713 12.1714 9.00713C12.6323 9.00713 13.0059 9.38074 13.0059 9.84162ZM16.9155 12.9823C17.3764 12.9823 17.75 12.6087 17.75 12.1478C17.75 11.687 17.3764 11.3133 16.9155 11.3133C16.4546 11.3133 16.081 11.687 16.081 12.1478C16.081 12.6087 16.4546 12.9823 16.9155 12.9823ZM13.2183 16.9156C13.2183 17.3765 12.8447 17.7501 12.3838 17.7501C11.923 17.7501 11.5493 17.3765 11.5493 16.9156C11.5493 16.4547 11.923 16.0811 12.3838 16.0811C12.8447 16.0811 13.2183 16.4547 13.2183 16.9156Z" fill="white"/>
</svg>
