<svg width="20" height="20" viewBox="0 0 20 20" fill="none" xmlns="http://www.w3.org/2000/svg">
<path fill-rule="evenodd" clip-rule="evenodd" d="M2.25 1.25C1.69772 1.25 1.25 1.69772 1.25 2.25V4C1.25 4.55228 1.69772 5 2.25 5H4C4.55228 5 5 4.55228 5 4V2.25C5 1.69772 4.55228 1.25 4 1.25H2.25ZM4 2.25H2.25L2.25 4H4V2.25Z" fill="white"/>
<path fill-rule="evenodd" clip-rule="evenodd" d="M2.25 8.125C1.69772 8.125 1.25 8.57272 1.25 9.125V10.875C1.25 11.4273 1.69772 11.875 2.25 11.875H4C4.55228 11.875 5 11.4273 5 10.875V9.125C5 8.57272 4.55228 8.125 4 8.125H2.25ZM4 9.125H2.25L2.25 10.875H4V9.125Z" fill="white"/>
<path fill-rule="evenodd" clip-rule="evenodd" d="M1.25 16C1.25 15.4477 1.69772 15 2.25 15H4C4.55228 15 5 15.4477 5 16V17.75C5 18.3023 4.55228 18.75 4 18.75H2.25C1.69772 18.75 1.25 18.3023 1.25 17.75V16ZM2.25 16H4V17.75H2.25L2.25 16Z" fill="white"/>
<path fill-rule="evenodd" clip-rule="evenodd" d="M9.125 1.25C8.57272 1.25 8.125 1.69772 8.125 2.25V4C8.125 4.55228 8.57272 5 9.125 5H10.875C11.4273 5 11.875 4.55228 11.875 4V2.25C11.875 1.69772 11.4273 1.25 10.875 1.25H9.125ZM10.875 2.25H9.125V4H10.875V2.25Z" fill="white"/>
<path fill-rule="evenodd" clip-rule="evenodd" d="M8.125 9.125C8.125 8.57272 8.57272 8.125 9.125 8.125H10.875C11.4273 8.125 11.875 8.57272 11.875 9.125V10.875C11.875 11.4273 11.4273 11.875 10.875 11.875H9.125C8.57272 11.875 8.125 11.4273 8.125 10.875V9.125ZM9.125 9.125H10.875V10.875H9.125V9.125Z" fill="white"/>
<path fill-rule="evenodd" clip-rule="evenodd" d="M9.125 15C8.57272 15 8.125 15.4477 8.125 16V17.75C8.125 18.3023 8.57272 18.75 9.125 18.75H10.875C11.4273 18.75 11.875 18.3023 11.875 17.75V16C11.875 15.4477 11.4273 15 10.875 15H9.125ZM10.875 16H9.125V17.75H10.875V16Z" fill="white"/>
<path fill-rule="evenodd" clip-rule="evenodd" d="M15 2.25C15 1.69772 15.4477 1.25 16 1.25H17.75C18.3023 1.25 18.75 1.69772 18.75 2.25V4C18.75 4.55228 18.3023 5 17.75 5H16C15.4477 5 15 4.55228 15 4V2.25ZM16 2.25H17.75V4H16V2.25Z" fill="white"/>
<path fill-rule="evenodd" clip-rule="evenodd" d="M16 8.125C15.4477 8.125 15 8.57272 15 9.125V10.875C15 11.4273 15.4477 11.875 16 11.875H17.75C18.3023 11.875 18.75 11.4273 18.75 10.875V9.125C18.75 8.57272 18.3023 8.125 17.75 8.125H16ZM17.75 9.125H16V10.875H17.75V9.125Z" fill="white"/>
<path fill-rule="evenodd" clip-rule="evenodd" d="M15 16C15 15.4477 15.4477 15 16 15H17.75C18.3023 15 18.75 15.4477 18.75 16V17.75C18.75 18.3023 18.3023 18.75 17.75 18.75H16C15.4477 18.75 15 18.3023 15 17.75V16ZM16 16H17.75V17.75H16V16Z" fill="white"/>
</svg>
