<svg width="20" height="20" viewBox="0 0 20 20" fill="none" xmlns="http://www.w3.org/2000/svg">
<path fill-rule="evenodd" clip-rule="evenodd" d="M10.0986 2.91488V10.2844C10.0986 10.5605 9.87478 10.7844 9.59864 10.7844C9.3225 10.7844 9.09864 10.5605 9.09864 10.2844V5.30681C9.04833 5.10464 8.83201 4.72334 8.25597 4.72334C7.92958 4.72334 7.77894 4.83652 7.70031 4.93081C7.60683 5.04291 7.57191 5.18335 7.569 5.26298V12.0305C7.569 12.2432 7.43454 12.4325 7.2338 12.5026C7.03306 12.5727 6.80996 12.5081 6.67764 12.3417L5.80196 11.2404L5.73576 11.1538C5.38265 10.6927 4.7183 10.6145 4.26783 10.9811C3.83919 11.33 3.76229 11.955 4.09357 12.3974L4.36177 12.7555L8.07485 17.625H15.4469L16.6876 12.2364V6.66433C16.6372 6.46216 16.4209 6.08086 15.8449 6.08086C15.5185 6.08086 15.3679 6.19404 15.2892 6.28833C15.1957 6.40043 15.1608 6.54085 15.1579 6.62049V10.2844C15.1579 10.5605 14.9341 10.7844 14.6579 10.7844C14.3818 10.7844 14.1579 10.5605 14.1579 10.2844V4.18903C14.1076 3.98686 13.8913 3.60557 13.3152 3.60557C12.9889 3.60557 12.8382 3.71874 12.7596 3.81304C12.6661 3.92513 12.6312 4.06555 12.6283 4.14519V10.2844C12.6283 10.5605 12.4044 10.7844 12.1283 10.7844C11.8521 10.7844 11.6283 10.5605 11.6283 10.2844V2.95871C11.5779 2.75642 11.3616 2.375 10.7856 2.375C10.4593 2.375 10.3087 2.48819 10.23 2.58254C10.1365 2.69471 10.1016 2.83522 10.0986 2.91488ZM12.6021 2.73324C12.4754 2.21863 11.9655 1.375 10.7856 1.375C10.181 1.375 9.74206 1.60615 9.4619 1.9422C9.19831 2.25837 9.10476 2.63121 9.09877 2.8966L9.09864 3.89729C8.86646 3.79001 8.5877 3.72334 8.25597 3.72334C7.65145 3.72334 7.21249 3.95438 6.93231 4.29036C6.66869 4.60648 6.57513 4.97928 6.56913 5.2447L6.569 10.5971L6.52972 10.5458C5.83378 9.63697 4.52441 9.48297 3.63659 10.2056C2.79178 10.8931 2.64022 12.1249 3.29313 12.9968L3.56264 13.3567L7.42974 18.4282C7.52431 18.5522 7.67136 18.625 7.82733 18.625H15.8449C16.0778 18.625 16.2799 18.4642 16.3321 18.2372L17.6748 12.4054C17.6833 12.3686 17.6876 12.331 17.6876 12.2932V6.61351C17.6876 6.58488 17.6851 6.55631 17.6802 6.5281C17.5937 6.02892 17.0958 5.08086 15.8449 5.08086C15.5856 5.08086 15.3568 5.12336 15.1579 5.1984V4.13821C15.1579 4.10958 15.1555 4.08101 15.1506 4.0528C15.064 3.55362 14.5662 2.60557 13.3152 2.60557C13.0445 2.60557 12.807 2.6519 12.6021 2.73324Z" fill="white"/>
</svg>
