<svg width="20" height="20" viewBox="0 0 20 20" fill="none" xmlns="http://www.w3.org/2000/svg">
<path fill-rule="evenodd" clip-rule="evenodd" d="M10.3407 2.38462C9.96391 2.38462 9.65907 2.67469 9.66133 3.03112L9.69759 8.75596L9.69761 8.758L9.70644 10.1518C9.70886 10.5341 9.38314 10.8459 8.97893 10.8482C8.57472 10.8505 8.24508 10.5424 8.24266 10.1601L8.23385 8.76833L8.23383 8.76629L8.20086 5.27427C8.19792 4.96225 7.92967 4.71077 7.59979 4.71077C7.26781 4.71077 6.99869 4.96533 6.99869 5.27935V11.6615C6.99869 11.9639 6.7912 12.2313 6.48621 12.322C6.18123 12.4127 5.84932 12.3056 5.66645 12.0576L4.94578 11.0801C4.70794 10.7575 4.23409 10.6868 3.9029 10.9247L3.25329 11.3911C2.93555 11.6193 2.8695 12.0461 3.10477 12.3509L7.16941 17.6154H15.7664L17.0362 12.2496V6.89846C17.0362 6.51611 16.7085 6.20615 16.3043 6.20615H16.0469C15.6427 6.20615 15.315 6.51611 15.315 6.89846V10.1559C15.315 10.5383 14.9873 10.8482 14.5831 10.8482C14.1789 10.8482 13.8512 10.5383 13.8512 10.1559V4.52666C13.8512 4.16952 13.5451 3.88 13.1676 3.88C12.79 3.88 12.4839 4.16952 12.4839 4.52666V10.1559C12.4839 10.5383 12.1562 10.8482 11.752 10.8482C11.3478 10.8482 11.0201 10.5383 11.0201 10.1559V3.02727C11.0201 2.67234 10.7159 2.38462 10.3407 2.38462ZM12.4396 2.61507C12.2383 1.69309 11.3751 1 10.3407 1C9.15204 1 8.19043 1.91506 8.19756 3.03941L8.1999 3.40994C8.00996 3.35545 7.80846 3.32615 7.59979 3.32615C6.45937 3.32615 5.53489 4.20063 5.53489 5.27935V9.72952C4.78309 9.27177 3.77587 9.27748 3.01781 9.82182L2.3682 10.2883C1.41497 10.9728 1.21682 12.2533 1.92265 13.1675L6.20656 18.716C6.34436 18.8945 6.56397 19 6.79762 19H16.3526C16.6952 19 16.9919 18.7752 17.0668 18.4589L18.4823 12.4774C18.4941 12.4277 18.5 12.377 18.5 12.3262V6.89846C18.5 5.75141 17.5169 4.82154 16.3043 4.82154H16.0469C15.7903 4.82154 15.5439 4.86318 15.315 4.93972V4.52666C15.315 3.40482 14.3536 2.49538 13.1676 2.49538C12.912 2.49538 12.6669 2.5376 12.4396 2.61507Z" fill="white"/>
</svg>
