<svg width="20" height="20" viewBox="0 0 20 20" fill="none" xmlns="http://www.w3.org/2000/svg">
<path d="M6.61369 5.2437C6.62265 4.73793 6.80605 3.95826 7.3207 3.31609C7.81814 2.6954 8.65435 2.16454 10.0633 2.16454C11.4587 2.16454 12.2659 2.72436 12.7393 3.36199C13.2319 4.02557 13.3864 4.8087 13.3864 5.23485C13.3864 5.55687 13.3852 5.95515 13.2451 6.44688C13.1055 6.93656 12.8206 7.54146 12.2227 8.23986C11.9924 8.50897 11.7252 8.76657 11.4285 9.0527L11.3302 9.14757C11.0015 9.46518 10.6465 9.81466 10.3245 10.2153C9.66755 11.0328 9.15021 12.061 9.15021 13.5325C9.15021 13.8086 9.37407 14.0325 9.65021 14.0325C9.92636 14.0325 10.1502 13.8086 10.1502 13.5325C10.1502 12.3328 10.5595 11.5192 11.104 10.8417C11.3827 10.4948 11.6971 10.1835 12.025 9.86675L12.1251 9.77024C12.4158 9.49005 12.7188 9.19806 12.9824 8.8902C13.6683 8.08898 14.0254 7.35727 14.2068 6.72101C14.3864 6.09077 14.3864 5.57629 14.3864 5.24119V5.23485C14.3864 4.6324 14.1839 3.63036 13.5422 2.76594C12.8812 1.87556 11.7769 1.16454 10.0633 1.16454C8.36317 1.16454 7.23517 1.82378 6.54038 2.69072C5.8628 3.53618 5.62597 4.54166 5.61385 5.226C5.60896 5.5021 5.82882 5.72988 6.10492 5.73477C6.38102 5.73966 6.6088 5.5198 6.61369 5.2437Z" fill="white"/>
<path d="M9.65965 18.3354C10.2146 18.3354 10.6645 17.8856 10.6645 17.3306C10.6645 16.7756 10.2146 16.3257 9.65965 16.3257C9.10468 16.3257 8.65479 16.7756 8.65479 17.3306C8.65479 17.8856 9.10468 18.3354 9.65965 18.3354Z" fill="white"/>
</svg>
