<svg width="20" height="20" viewBox="0 0 20 20" fill="none" xmlns="http://www.w3.org/2000/svg">
<path fill-rule="evenodd" clip-rule="evenodd" d="M10 2.5C6.13401 2.5 2.5 6.13401 2.5 10C2.5 13.866 6.13401 17.5 10 17.5C13.866 17.5 17.5 13.866 17.5 10C17.5 6.13401 13.866 2.5 10 2.5ZM1.25 10C1.25 5.16751 5.16751 1.25 10 1.25C14.8325 1.25 18.75 5.16751 18.75 10C18.75 14.8325 14.8325 18.75 10 18.75C5.16751 18.75 1.25 14.8325 1.25 10Z" fill="white"/>
<path d="M9.04824 13.0649C9.05852 12.4647 9.12788 11.9906 9.25632 11.6426C9.38476 11.2946 9.64678 10.9087 10.0424 10.485L11.0519 9.46369C11.4835 8.98453 11.6993 8.47007 11.6993 7.92031C11.6993 7.39072 11.558 6.97714 11.2754 6.67956C10.9929 6.37693 10.5818 6.22562 10.0424 6.22562C9.51834 6.22562 9.09705 6.3618 8.77851 6.63416C8.45998 6.90652 8.30071 7.27219 8.30071 7.73117H6.875C6.88528 6.91409 7.18069 6.25588 7.76125 5.75656C8.34695 5.25219 9.10733 5 10.0424 5C11.0134 5 11.7687 5.25723 12.3081 5.77169C12.8527 6.2811 13.125 6.98218 13.125 7.87492C13.125 8.75757 12.7088 9.62761 11.8765 10.485L11.0365 11.3021C10.6615 11.7107 10.474 12.2983 10.474 13.0649H9.04824ZM8.98659 15.4632C8.98659 15.2362 9.05595 15.0471 9.19467 14.8958C9.33852 14.7394 9.54917 14.6612 9.8266 14.6612C10.104 14.6612 10.3147 14.7394 10.4585 14.8958C10.6024 15.0471 10.6743 15.2362 10.6743 15.4632C10.6743 15.6901 10.6024 15.8793 10.4585 16.0306C10.3147 16.1769 10.104 16.25 9.8266 16.25C9.54917 16.25 9.33852 16.1769 9.19467 16.0306C9.05595 15.8793 8.98659 15.6901 8.98659 15.4632Z" fill="white"/>
</svg>
