<svg width="20" height="20" viewBox="0 0 20 20" fill="none" xmlns="http://www.w3.org/2000/svg">
<path d="M8.99127 13.6135C9.00664 12.7521 9.12961 12.0586 9.36018 11.533C9.59074 11.0074 10.0865 10.3906 10.8473 9.68245C11.6082 8.96704 12.0962 8.46333 12.3114 8.17133C12.5343 7.87202 12.7034 7.54717 12.8187 7.19677C12.9416 6.83906 13.0031 6.43391 13.0031 5.9813C13.0031 5.06879 12.7457 4.35338 12.2307 3.83507C11.7235 3.30947 11.0126 3.04666 10.098 3.04666C9.17572 3.04666 8.43023 3.29852 7.8615 3.80222C7.30045 4.29863 7.01224 4.97389 6.99687 5.828H5.625C5.64037 4.63078 6.06692 3.67447 6.90464 2.95906C7.74237 2.23635 8.80682 1.875 10.098 1.875C11.4199 1.875 12.4613 2.24365 13.2222 2.98096C13.9907 3.71097 14.375 4.70378 14.375 5.9594C14.375 6.74781 14.1867 7.48877 13.8101 8.18228C13.4335 8.86849 12.7188 9.6715 11.6658 10.5913C10.7974 11.2848 10.3631 12.2922 10.3631 13.6135H8.99127ZM8.80682 17.2709C8.80682 17.0227 8.88752 16.8146 9.04891 16.6467C9.218 16.4715 9.4524 16.3839 9.75214 16.3839C10.0442 16.3839 10.2748 16.4715 10.4438 16.6467C10.6206 16.8146 10.709 17.0227 10.709 17.2709C10.709 17.5118 10.6206 17.7162 10.4438 17.8841C10.2748 18.0447 10.0442 18.125 9.75214 18.125C9.4524 18.125 9.218 18.0447 9.04891 17.8841C8.88752 17.7162 8.80682 17.5118 8.80682 17.2709Z" fill="white"/>
</svg>
