<svg width="20" height="20" viewBox="0 0 20 20" fill="none" xmlns="http://www.w3.org/2000/svg">
<path fill-rule="evenodd" clip-rule="evenodd" d="M9.19469 3.04481C9.68604 2.73213 10.314 2.73213 10.8053 3.04481L16.6803 6.78345C17.113 7.05878 17.375 7.53609 17.375 8.04894V15.875C17.375 16.7034 16.7034 17.375 15.875 17.375H12.875C12.0466 17.375 11.375 16.7034 11.375 15.875V12.25C11.375 11.9739 11.1511 11.75 10.875 11.75H9.125C8.84886 11.75 8.625 11.9739 8.625 12.25V15.875C8.625 16.7034 7.95343 17.375 7.125 17.375H4.125C3.29657 17.375 2.625 16.7034 2.625 15.875V8.04894C2.625 7.53609 2.88701 7.05878 3.31969 6.78345L9.19469 3.04481ZM10.2684 3.88847C10.1047 3.78425 9.89535 3.78425 9.73156 3.88847L3.85656 7.62711C3.71234 7.71889 3.625 7.87799 3.625 8.04894V15.875C3.625 16.1511 3.84886 16.375 4.125 16.375H7.125C7.40114 16.375 7.625 16.1511 7.625 15.875V12.25C7.625 11.4216 8.29657 10.75 9.125 10.75H10.875C11.7034 10.75 12.375 11.4216 12.375 12.25V15.875C12.375 16.1511 12.5989 16.375 12.875 16.375H15.875C16.1511 16.375 16.375 16.1511 16.375 15.875V8.04894C16.375 7.87799 16.2877 7.71889 16.1434 7.62711L10.2684 3.88847Z" fill="white"/>
</svg>
