<svg width="20" height="20" viewBox="0 0 20 20" fill="none" xmlns="http://www.w3.org/2000/svg">
<path d="M16.9006 6.82754L11.1051 2.91111C10.797 2.64571 10.4058 2.5 10.0014 2.5C9.59706 2.5 9.20587 2.64571 8.89773 2.91111L3.10227 6.82754C2.91377 6.98953 2.76227 7.19113 2.65828 7.41838C2.55428 7.64562 2.50027 7.89307 2.5 8.14357V15.7722C2.5 16.2304 2.67959 16.6699 2.99925 16.9939C3.31891 17.318 3.75247 17.5 4.20455 17.5H7.44318C7.81991 17.5 8.18121 17.3483 8.44759 17.0783C8.71398 16.8082 8.86364 16.442 8.86364 16.0601V12.3595C8.86438 12.1696 8.93915 11.9876 9.07165 11.8533C9.20415 11.719 9.38364 11.6432 9.57102 11.6424H10.4233C10.5166 11.6421 10.609 11.6603 10.6953 11.6961C10.7816 11.732 10.8601 11.7847 10.9263 11.8513C10.9926 11.9178 11.0452 11.997 11.0812 12.0842C11.1173 12.1714 11.136 12.2649 11.1364 12.3595V16.0601C11.1364 16.442 11.286 16.8082 11.5524 17.0783C11.8188 17.3483 12.1801 17.5 12.5568 17.5H15.7955C16.2475 17.5 16.6811 17.318 17.0007 16.9939C17.3204 16.6699 17.5 16.2304 17.5 15.7722V8.14357C17.5001 7.89329 17.4465 7.64599 17.343 7.41876C17.2395 7.19153 17.0886 6.9898 16.9006 6.82754ZM16.3636 15.7722C16.3636 15.9249 16.3038 16.0714 16.1972 16.1794C16.0907 16.2874 15.9461 16.3481 15.7955 16.3481H12.5568C12.4815 16.3481 12.4092 16.3178 12.3559 16.2638C12.3027 16.2098 12.2727 16.1365 12.2727 16.0601V12.3595C12.272 11.8641 12.0775 11.3891 11.7319 11.0388C11.3863 10.6885 10.9177 10.4913 10.429 10.4905H9.5767C9.33421 10.4902 9.09401 10.5382 8.86983 10.6319C8.64565 10.7256 8.44187 10.8632 8.27013 11.0368C8.0984 11.2103 7.96207 11.4164 7.86892 11.6434C7.77578 11.8704 7.72765 12.1137 7.72727 12.3595V16.0601C7.72727 16.1365 7.69734 16.2098 7.64406 16.2638C7.59079 16.3178 7.51853 16.3481 7.44318 16.3481H4.20455C4.05385 16.3481 3.90933 16.2874 3.80278 16.1794C3.69623 16.0714 3.63636 15.9249 3.63636 15.7722V8.14357C3.63636 8.06038 3.65413 7.97818 3.68846 7.90262C3.72279 7.82705 3.77286 7.75993 3.83523 7.70586L9.63068 3.78943C9.7334 3.70096 9.86379 3.65239 9.99858 3.65239C10.1334 3.65239 10.2638 3.70096 10.3665 3.78943L16.1619 7.70586C16.2248 7.75966 16.2754 7.82666 16.3103 7.90224C16.3451 7.97782 16.3633 8.06016 16.3636 8.14357V15.7722Z" fill="white"/>
</svg>
