<svg width="20" height="20" viewBox="0 0 20 20" fill="none" xmlns="http://www.w3.org/2000/svg">
<path d="M10.625 14.375C10.625 14.7202 10.3452 15 10 15C9.65482 15 9.375 14.7202 9.375 14.375C9.375 14.0298 9.65482 13.75 10 13.75C10.3452 13.75 10.625 14.0298 10.625 14.375Z" fill="white"/>
<path d="M9.5 5.59906L9.5 12.5H10.5L10.5 5.59906C10.5 5.32292 10.2761 5.09906 10 5.09906C9.72386 5.09906 9.5 5.32292 9.5 5.59906Z" fill="white"/>
<path fill-rule="evenodd" clip-rule="evenodd" d="M10 18.75C14.8325 18.75 18.75 14.8325 18.75 10C18.75 5.16751 14.8325 1.25 10 1.25C5.16751 1.25 1.25 5.16751 1.25 10C1.25 14.8325 5.16751 18.75 10 18.75ZM10 17.75C14.2802 17.75 17.75 14.2802 17.75 10C17.75 5.71979 14.2802 2.25 10 2.25C5.71979 2.25 2.25 5.71979 2.25 10C2.25 14.2802 5.71979 17.75 10 17.75Z" fill="white"/>
</svg>
