<svg width="20" height="21" viewBox="0 0 20 21" fill="none" xmlns="http://www.w3.org/2000/svg">
<path fill-rule="evenodd" clip-rule="evenodd" d="M10 18.25C14.2802 18.25 17.75 14.7802 17.75 10.5C17.75 6.21979 14.2802 2.75 10 2.75C5.71979 2.75 2.25 6.21979 2.25 10.5C2.25 14.7802 5.71979 18.25 10 18.25ZM10 19.25C14.8325 19.25 18.75 15.3325 18.75 10.5C18.75 5.66751 14.8325 1.75 10 1.75C5.16751 1.75 1.25 5.66751 1.25 10.5C1.25 15.3325 5.16751 19.25 10 19.25Z" fill="white"/>
<path d="M10.625 14.875C10.625 15.2202 10.3452 15.5 10 15.5C9.65482 15.5 9.375 15.2202 9.375 14.875C9.375 14.5298 9.65482 14.25 10 14.25C10.3452 14.25 10.625 14.5298 10.625 14.875Z" fill="white"/>
<path fill-rule="evenodd" clip-rule="evenodd" d="M9.5 13.0001L9.5 6.09912C9.5 5.82298 9.72386 5.59912 10 5.59912C10.2761 5.59912 10.5 5.82298 10.5 6.09912L10.5 13.0001L9.5 13.0001Z" fill="white"/>
</svg>
