<svg width="20" height="20" viewBox="0 0 20 20" fill="none" xmlns="http://www.w3.org/2000/svg">
<path d="M9.99998 1.375C8.38063 1.375 6.86823 1.82656 5.57032 2.59471C5.33268 2.73536 5.25405 3.04202 5.39469 3.27966C5.53534 3.5173 5.842 3.59593 6.07964 3.45529C7.23173 2.77344 8.56934 2.375 9.99998 2.375C11.5025 2.375 12.9088 2.80905 14.0919 3.57045C14.3241 3.7199 14.6335 3.6528 14.7829 3.42059C14.9324 3.18838 14.8653 2.87899 14.6331 2.72955C13.2912 1.86595 11.6975 1.375 9.99998 1.375Z" fill="white"/>
<path d="M3.40513 5.21517C3.63838 5.36297 3.70765 5.67188 3.55985 5.90514C2.80916 7.08981 2.375 8.49737 2.375 10C2.375 11.5146 2.80883 12.9085 3.57045 14.0919C3.7199 14.3241 3.6528 14.6335 3.42059 14.783C3.18838 14.9324 2.87899 14.8653 2.72955 14.6331C1.86617 13.2915 1.375 11.7104 1.375 10C1.375 8.30265 1.86584 6.71021 2.71515 5.36989C2.86296 5.13663 3.17187 5.06736 3.40513 5.21517Z" fill="white"/>
<path d="M17.4022 5.57757C17.2587 5.34164 16.9511 5.26672 16.7152 5.41022C16.4792 5.55372 16.4043 5.86131 16.5478 6.09724C17.2375 7.23111 17.625 8.56617 17.625 9.9999C17.625 11.4305 17.2266 12.7682 16.5447 13.9202C16.4041 14.1579 16.4827 14.4645 16.7203 14.6052C16.958 14.7458 17.2646 14.6672 17.4053 14.4296C18.1734 13.1317 18.625 11.6193 18.625 9.9999C18.625 8.38364 18.1875 6.8687 17.4022 5.57757Z" fill="white"/>
<path d="M14.6301 17.2848C14.8634 17.137 14.9326 16.8281 14.7848 16.5949C14.637 16.3616 14.3281 16.2923 14.0949 16.4401C12.9102 17.1908 11.5026 17.625 9.99999 17.625C8.56899 17.625 7.23221 17.2264 6.09409 16.5459C5.85709 16.4041 5.55007 16.4814 5.40836 16.7184C5.26664 16.9554 5.34389 17.2624 5.5809 17.4041C6.86778 18.1736 8.381 18.625 9.99999 18.625C11.6974 18.625 13.2898 18.1341 14.6301 17.2848Z" fill="white"/>
<path d="M12.3749 7.46079V6.25C12.3749 5.97386 12.1511 5.75 11.8749 5.75C11.5988 5.75 11.3749 5.97386 11.3749 6.25V8.75C11.3749 9.02614 11.5988 9.25 11.8749 9.25H14.3749C14.6511 9.25 14.8749 9.02614 14.8749 8.75C14.8749 8.47386 14.6511 8.25 14.3749 8.25H12.9999L17.7714 3.47855C17.9666 3.28329 17.9666 2.96671 17.7714 2.77145C17.5761 2.57618 17.2595 2.57618 17.0643 2.77145L12.3749 7.46079Z" fill="white"/>
<path d="M13.1641 12.375H14.3749C14.6511 12.375 14.8749 12.1511 14.8749 11.875C14.8749 11.5989 14.6511 11.375 14.3749 11.375H11.8749C11.5988 11.375 11.3749 11.5989 11.3749 11.875V14.375C11.3749 14.6511 11.5988 14.875 11.8749 14.875C12.1511 14.875 12.3749 14.6511 12.3749 14.375V13L17.1464 17.7714C17.3416 17.9667 17.6582 17.9667 17.8535 17.7714C18.0487 17.5762 18.0487 17.2596 17.8535 17.0643L13.1641 12.375Z" fill="white"/>
<path d="M8.24993 7.46079L8.24993 6.25C8.24993 5.97386 8.47378 5.75 8.74993 5.75C9.02607 5.75 9.24993 5.97386 9.24993 6.25L9.24993 8.75C9.24993 9.02614 9.02607 9.25 8.74993 9.25H6.24993C5.97378 9.25 5.74993 9.02614 5.74993 8.75C5.74993 8.47386 5.97378 8.25 6.24993 8.25H7.62493L2.85348 3.47855C2.65822 3.28329 2.65822 2.96671 2.85348 2.77145C3.04874 2.57618 3.36532 2.57618 3.56059 2.77145L8.24993 7.46079Z" fill="white"/>
<path d="M7.46071 12.375H6.24993C5.97378 12.375 5.74993 12.1511 5.74993 11.875C5.74993 11.5989 5.97378 11.375 6.24993 11.375H8.66733C8.667 11.375 8.66766 11.375 8.66733 11.375H8.74993C9.02607 11.375 9.24993 11.5989 9.24993 11.875V14.375C9.24993 14.6511 9.02607 14.875 8.74993 14.875C8.47378 14.875 8.24993 14.6511 8.24993 14.375V13L3.47848 17.7714C3.28322 17.9667 2.96663 17.9667 2.77137 17.7714C2.57611 17.5762 2.57611 17.2596 2.77137 17.0643L7.46071 12.375Z" fill="white"/>
</svg>
