<svg width="20" height="20" viewBox="0 0 20 20" fill="none" xmlns="http://www.w3.org/2000/svg">
<path fill-rule="evenodd" clip-rule="evenodd" d="M1.875 2.5C1.875 2.15482 2.15482 1.875 2.5 1.875H8.75C9.09518 1.875 9.375 2.15482 9.375 2.5C9.375 2.84518 9.09518 3.125 8.75 3.125H2.5C2.15482 3.125 1.875 2.84518 1.875 2.5ZM11.875 2.5C11.875 2.15482 12.1548 1.875 12.5 1.875H17.5C17.8452 1.875 18.125 2.15482 18.125 2.5C18.125 2.84518 17.8452 3.125 17.5 3.125H12.5C12.1548 3.125 11.875 2.84518 11.875 2.5ZM1.875 6.25C1.875 5.90482 2.15482 5.625 2.5 5.625H5C5.34518 5.625 5.625 5.90482 5.625 6.25C5.625 6.59518 5.34518 6.875 5 6.875H2.5C2.15482 6.875 1.875 6.59518 1.875 6.25ZM8.125 6.25C8.125 5.90482 8.40482 5.625 8.75 5.625H13.75C14.0952 5.625 14.375 5.90482 14.375 6.25C14.375 6.59518 14.0952 6.875 13.75 6.875H8.75C8.40482 6.875 8.125 6.59518 8.125 6.25ZM1.875 10C1.875 9.65482 2.15482 9.375 2.5 9.375H10C10.3452 9.375 10.625 9.65482 10.625 10C10.625 10.3452 10.3452 10.625 10 10.625H2.5C2.15482 10.625 1.875 10.3452 1.875 10ZM13.125 10C13.125 9.65482 13.4048 9.375 13.75 9.375H17.5C17.8452 9.375 18.125 9.65482 18.125 10C18.125 10.3452 17.8452 10.625 17.5 10.625H13.75C13.4048 10.625 13.125 10.3452 13.125 10ZM1.875 13.75C1.875 13.4048 2.15482 13.125 2.5 13.125H6.25C6.59518 13.125 6.875 13.4048 6.875 13.75C6.875 14.0952 6.59518 14.375 6.25 14.375H2.5C2.15482 14.375 1.875 14.0952 1.875 13.75ZM9.375 13.75C9.375 13.4048 9.65482 13.125 10 13.125H15C15.3452 13.125 15.625 13.4048 15.625 13.75C15.625 14.0952 15.3452 14.375 15 14.375H10C9.65482 14.375 9.375 14.0952 9.375 13.75ZM1.875 17.5C1.875 17.1548 2.15482 16.875 2.5 16.875H10C10.3452 16.875 10.625 17.1548 10.625 17.5C10.625 17.8452 10.3452 18.125 10 18.125H2.5C2.15482 18.125 1.875 17.8452 1.875 17.5ZM13.125 17.5C13.125 17.1548 13.4048 16.875 13.75 16.875H16.25C16.5952 16.875 16.875 17.1548 16.875 17.5C16.875 17.8452 16.5952 18.125 16.25 18.125H13.75C13.4048 18.125 13.125 17.8452 13.125 17.5Z" fill="white"/>
</svg>
