<svg width="20" height="20" viewBox="0 0 20 20" fill="none" xmlns="http://www.w3.org/2000/svg">
<path fill-rule="evenodd" clip-rule="evenodd" d="M10 2.5C6.13401 2.5 2.5 6.13401 2.5 10C2.5 13.866 6.13401 17.5 10 17.5C13.866 17.5 17.5 13.866 17.5 10C17.5 6.13401 13.866 2.5 10 2.5ZM1.25 10C1.25 5.16751 5.16751 1.25 10 1.25C14.8325 1.25 18.75 5.16751 18.75 10C18.75 14.8325 14.8325 18.75 10 18.75C5.16751 18.75 1.25 14.8325 1.25 10Z" fill="white"/>
<path d="M10.8646 8.44277V15.6248H9.13559V8.44277H10.8646ZM11.1236 6.34977C11.1236 6.49911 11.0933 6.63911 11.0326 6.76978C10.9719 6.90044 10.8903 7.01477 10.7876 7.11277C10.6896 7.21077 10.5729 7.29011 10.4376 7.35077C10.3023 7.40678 10.1576 7.43477 10.0036 7.43477C9.85426 7.43477 9.71192 7.40678 9.57659 7.35077C9.44592 7.29011 9.33159 7.21077 9.23359 7.11277C9.13559 7.01477 9.05626 6.90044 8.99559 6.76978C8.93959 6.63911 8.91159 6.49911 8.91159 6.34977C8.91159 6.19577 8.93959 6.05111 8.99559 5.91578C9.05626 5.78044 9.13559 5.66377 9.23359 5.56577C9.33159 5.46778 9.44592 5.39077 9.57659 5.33477C9.71192 5.27411 9.85426 5.24377 10.0036 5.24377C10.1576 5.24377 10.3023 5.27411 10.4376 5.33477C10.5729 5.39077 10.6896 5.46778 10.7876 5.56577C10.8903 5.66377 10.9719 5.78044 11.0326 5.91578C11.0933 6.05111 11.1236 6.19577 11.1236 6.34977Z" fill="white"/>
</svg>
