<svg width="20" height="20" viewBox="0 0 20 20" fill="none" xmlns="http://www.w3.org/2000/svg">
<path fill-rule="evenodd" clip-rule="evenodd" d="M3.125 2.125C2.98895 2.125 2.85984 2.15203 2.74228 2.20078C2.61474 2.25367 2.46847 2.19315 2.41558 2.06561C2.3627 1.93807 2.42321 1.79181 2.55075 1.73892C2.72796 1.66543 2.92207 1.625 3.125 1.625H3.67188C3.80995 1.625 3.92188 1.73693 3.92188 1.875C3.92188 2.01307 3.80995 2.125 3.67188 2.125H3.125ZM4.51562 1.875C4.51562 1.73693 4.62755 1.625 4.76563 1.625H5.85938C5.99745 1.625 6.10938 1.73693 6.10938 1.875C6.10938 2.01307 5.99745 2.125 5.85938 2.125H4.76563C4.62755 2.125 4.51562 2.01307 4.51562 1.875ZM6.70312 1.875C6.70312 1.73693 6.81505 1.625 6.95312 1.625H8.04687C8.18495 1.625 8.29687 1.73693 8.29687 1.875C8.29687 2.01307 8.18495 2.125 8.04687 2.125H6.95312C6.81505 2.125 6.70312 2.01307 6.70312 1.875ZM8.89062 1.875C8.89062 1.73693 9.00255 1.625 9.14062 1.625H10.2344C10.3724 1.625 10.4844 1.73693 10.4844 1.875C10.4844 2.01307 10.3724 2.125 10.2344 2.125H9.14062C9.00255 2.125 8.89062 2.01307 8.89062 1.875ZM11.0781 1.875C11.0781 1.73693 11.1901 1.625 11.3281 1.625H11.875C12.0779 1.625 12.272 1.66543 12.4492 1.73892C12.5768 1.79181 12.6373 1.93807 12.5844 2.06561C12.5315 2.19315 12.3853 2.25367 12.2577 2.20078C12.1402 2.15203 12.0111 2.125 11.875 2.125H11.3281C11.1901 2.125 11.0781 2.01307 11.0781 1.875ZM2.06561 2.41558C2.19315 2.46847 2.25367 2.61474 2.20078 2.74228C2.15203 2.85984 2.125 2.98895 2.125 3.125V3.67188C2.125 3.80995 2.01307 3.92187 1.875 3.92187C1.73693 3.92187 1.625 3.80995 1.625 3.67188V3.125C1.625 2.92207 1.66543 2.72796 1.73892 2.55075C1.79181 2.42321 1.93807 2.36269 2.06561 2.41558ZM12.9344 2.41558C13.0619 2.3627 13.2082 2.42321 13.2611 2.55075C13.3346 2.72796 13.375 2.92207 13.375 3.125V3.59375C13.375 3.73182 13.2631 3.84375 13.125 3.84375C12.9869 3.84375 12.875 3.73182 12.875 3.59375V3.125C12.875 2.98895 12.848 2.85984 12.7992 2.74228C12.7463 2.61474 12.8068 2.46847 12.9344 2.41558ZM13.125 4.28125C13.2631 4.28125 13.375 4.39318 13.375 4.53125V5.46875C13.375 5.60682 13.2631 5.71875 13.125 5.71875C12.9869 5.71875 12.875 5.60682 12.875 5.46875V4.53125C12.875 4.39318 12.9869 4.28125 13.125 4.28125ZM1.875 4.51562C2.01307 4.51562 2.125 4.62755 2.125 4.76563V5.85938C2.125 5.99745 2.01307 6.10938 1.875 6.10938C1.73693 6.10938 1.625 5.99745 1.625 5.85938V4.76563C1.625 4.62755 1.73693 4.51562 1.875 4.51562ZM14.2812 6.875C14.2812 6.73693 14.3932 6.625 14.5312 6.625H15.4687C15.6068 6.625 15.7187 6.73693 15.7187 6.875C15.7187 7.01307 15.6068 7.125 15.4687 7.125H14.5312C14.3932 7.125 14.2812 7.01307 14.2812 6.875ZM16.1562 6.875C16.1562 6.73693 16.2682 6.625 16.4062 6.625H16.875C17.0779 6.625 17.272 6.66543 17.4492 6.73892C17.5768 6.79181 17.6373 6.93807 17.5844 7.06561C17.5315 7.19315 17.3853 7.25367 17.2577 7.20078C17.1402 7.15203 17.0111 7.125 16.875 7.125H16.4062C16.2682 7.125 16.1562 7.01307 16.1562 6.875ZM1.875 6.70312C2.01307 6.70312 2.125 6.81505 2.125 6.95312V8.04687C2.125 8.18495 2.01307 8.29687 1.875 8.29687C1.73693 8.29687 1.625 8.18495 1.625 8.04687V6.95312C1.625 6.81505 1.73693 6.70312 1.875 6.70312ZM17.9344 7.41558C18.0619 7.3627 18.2082 7.42321 18.2611 7.55075C18.3346 7.72796 18.375 7.92207 18.375 8.125V8.67187C18.375 8.80995 18.2631 8.92187 18.125 8.92187C17.9869 8.92187 17.875 8.80995 17.875 8.67187V8.125C17.875 7.98895 17.848 7.85984 17.7992 7.74228C17.7463 7.61474 17.8068 7.46847 17.9344 7.41558ZM1.875 8.89062C2.01307 8.89062 2.125 9.00255 2.125 9.14062V10.2344C2.125 10.3724 2.01307 10.4844 1.875 10.4844C1.73693 10.4844 1.625 10.3724 1.625 10.2344V9.14062C1.625 9.00255 1.73693 8.89062 1.875 8.89062ZM18.125 9.51562C18.2631 9.51562 18.375 9.62755 18.375 9.76562V10.8594C18.375 10.9974 18.2631 11.1094 18.125 11.1094C17.9869 11.1094 17.875 10.9974 17.875 10.8594V9.76562C17.875 9.62755 17.9869 9.51562 18.125 9.51562ZM1.875 11.0781C2.01307 11.0781 2.125 11.1901 2.125 11.3281V11.875C2.125 12.0111 2.15203 12.1402 2.20078 12.2577C2.25367 12.3853 2.19315 12.5315 2.06561 12.5844C1.93807 12.6373 1.79181 12.5768 1.73892 12.4492C1.66543 12.272 1.625 12.0779 1.625 11.875V11.3281C1.625 11.1901 1.73693 11.0781 1.875 11.0781ZM18.125 11.7031C18.2631 11.7031 18.375 11.8151 18.375 11.9531V13.0469C18.375 13.1849 18.2631 13.2969 18.125 13.2969C17.9869 13.2969 17.875 13.1849 17.875 13.0469V11.9531C17.875 11.8151 17.9869 11.7031 18.125 11.7031ZM2.41558 12.9344C2.46847 12.8068 2.61474 12.7463 2.74228 12.7992C2.85984 12.848 2.98895 12.875 3.125 12.875H3.59375C3.73182 12.875 3.84375 12.9869 3.84375 13.125C3.84375 13.2631 3.73182 13.375 3.59375 13.375H3.125C2.92207 13.375 2.72796 13.3346 2.55075 13.2611C2.42321 13.2082 2.36269 13.0619 2.41558 12.9344ZM4.28125 13.125C4.28125 12.9869 4.39318 12.875 4.53125 12.875H5.46875C5.60682 12.875 5.71875 12.9869 5.71875 13.125C5.71875 13.2631 5.60682 13.375 5.46875 13.375H4.53125C4.39318 13.375 4.28125 13.2631 4.28125 13.125ZM18.125 13.8906C18.2631 13.8906 18.375 14.0026 18.375 14.1406V15.2344C18.375 15.3724 18.2631 15.4844 18.125 15.4844C17.9869 15.4844 17.875 15.3724 17.875 15.2344V14.1406C17.875 14.0026 17.9869 13.8906 18.125 13.8906ZM6.875 14.2812C7.01307 14.2812 7.125 14.3932 7.125 14.5312V15.4687C7.125 15.6068 7.01307 15.7187 6.875 15.7187C6.73693 15.7187 6.625 15.6068 6.625 15.4687V14.5312C6.625 14.3932 6.73693 14.2812 6.875 14.2812ZM18.125 16.0781C18.2631 16.0781 18.375 16.1901 18.375 16.3281V16.875C18.375 17.0779 18.3346 17.272 18.2611 17.4492C18.2082 17.5768 18.0619 17.6373 17.9344 17.5844C17.8068 17.5315 17.7463 17.3853 17.7992 17.2577C17.848 17.1402 17.875 17.0111 17.875 16.875V16.3281C17.875 16.1901 17.9869 16.0781 18.125 16.0781ZM6.875 16.1562C7.01307 16.1562 7.125 16.2682 7.125 16.4062V16.875C7.125 17.0111 7.15203 17.1402 7.20078 17.2577C7.25367 17.3853 7.19315 17.5315 7.06561 17.5844C6.93807 17.6373 6.79181 17.5768 6.73892 17.4492C6.66543 17.272 6.625 17.0779 6.625 16.875V16.4062C6.625 16.2682 6.73693 16.1562 6.875 16.1562ZM7.41558 17.9344C7.46847 17.8068 7.61474 17.7463 7.74228 17.7992C7.85984 17.848 7.98895 17.875 8.125 17.875H8.67187C8.80995 17.875 8.92187 17.9869 8.92187 18.125C8.92187 18.2631 8.80995 18.375 8.67187 18.375H8.125C7.92207 18.375 7.72796 18.3346 7.55075 18.2611C7.42321 18.2082 7.36269 18.0619 7.41558 17.9344ZM17.5844 17.9344C17.6373 18.0619 17.5768 18.2082 17.4492 18.2611C17.272 18.3346 17.0779 18.375 16.875 18.375H16.3281C16.1901 18.375 16.0781 18.2631 16.0781 18.125C16.0781 17.9869 16.1901 17.875 16.3281 17.875H16.875C17.0111 17.875 17.1402 17.848 17.2577 17.7992C17.3853 17.7463 17.5315 17.8068 17.5844 17.9344ZM9.51562 18.125C9.51562 17.9869 9.62755 17.875 9.76562 17.875H10.8594C10.9974 17.875 11.1094 17.9869 11.1094 18.125C11.1094 18.2631 10.9974 18.375 10.8594 18.375H9.76562C9.62755 18.375 9.51562 18.2631 9.51562 18.125ZM11.7031 18.125C11.7031 17.9869 11.8151 17.875 11.9531 17.875H13.0469C13.1849 17.875 13.2969 17.9869 13.2969 18.125C13.2969 18.2631 13.1849 18.375 13.0469 18.375H11.9531C11.8151 18.375 11.7031 18.2631 11.7031 18.125ZM13.8906 18.125C13.8906 17.9869 14.0026 17.875 14.1406 17.875H15.2344C15.3724 17.875 15.4844 17.9869 15.4844 18.125C15.4844 18.2631 15.3724 18.375 15.2344 18.375H14.1406C14.0026 18.375 13.8906 18.2631 13.8906 18.125Z" fill="white"/>
<path fill-rule="evenodd" clip-rule="evenodd" d="M6.25 8.125C6.25 7.08947 7.08947 6.25 8.125 6.25H13.125C13.75 6.24994 13.75 6.25 13.75 6.875V11.875C13.75 12.9105 12.9105 13.75 11.875 13.75H6.875C6.25002 13.7499 6.25 13.75 6.25 13.125V8.125ZM8.125 7.5C7.77982 7.5 7.5 7.77982 7.5 8.125V12.5H11.875C12.2202 12.5 12.5 12.2202 12.5 11.875V7.5H8.125Z" fill="white"/>
</svg>
