<svg width="20" height="20" viewBox="0 0 20 20" fill="none" xmlns="http://www.w3.org/2000/svg">
<path d="M11.4864 1.74568C11.4149 1.47896 11.1407 1.32064 10.8739 1.39206C10.6072 1.46349 10.4489 1.73761 10.5205 2.00433L11.0993 4.16298C11.1708 4.4297 11.445 4.58802 11.7117 4.51659C11.9785 4.44517 12.1368 4.17104 12.0652 3.90432L11.4864 1.74568Z" fill="white"/>
<path d="M8.36942 4.18724C8.13007 4.04952 7.82382 4.13158 7.6854 4.37052C7.54697 4.60946 7.62879 4.91481 7.86814 5.05253L9.80986 6.16978C10.0492 6.30749 10.3555 6.22544 10.4939 5.98649C10.6323 5.74755 10.5505 5.44221 10.3111 5.30449L8.36942 4.18724Z" fill="white"/>
<path fill-rule="evenodd" clip-rule="evenodd" d="M12.4221 5.62936C11.5271 5.62936 10.801 6.35446 10.801 7.24964C10.801 7.82974 11.1059 8.33842 11.5641 8.62463L10.2424 13.1506C10.0744 13.1556 9.91277 13.1862 9.76132 13.2386L8.32532 11.3465C8.53127 11.0748 8.65348 10.7362 8.65348 10.3689C8.65348 9.47376 7.92739 8.74867 7.03243 8.74867C6.13748 8.74867 5.41138 9.47376 5.41138 10.3689C5.41138 10.7869 5.56967 11.1678 5.82955 11.4551L3.69508 15.4104C3.6008 15.3934 3.50369 15.3845 3.4045 15.3845C2.50955 15.3845 1.78345 16.1096 1.78345 17.0047C1.78345 17.8999 2.50955 18.625 3.4045 18.625C4.29946 18.625 5.02555 17.8999 5.02555 17.0047C5.02555 16.57 4.85429 16.1753 4.57561 15.8844L6.69645 11.9544C6.80485 11.9772 6.91724 11.9892 7.03243 11.9892C7.19669 11.9892 7.35526 11.9648 7.5047 11.9194L8.96322 13.8411C8.77871 14.1041 8.67041 14.4245 8.67041 14.7702C8.67041 15.6654 9.39651 16.3905 10.2915 16.3905C11.1864 16.3905 11.9125 15.6654 11.9125 14.7702C11.9125 14.2129 11.6311 13.7214 11.2026 13.4299L12.5354 8.86601C13.3775 8.80786 14.0431 8.10671 14.0431 7.24964C14.0431 6.35446 13.317 5.62936 12.4221 5.62936ZM11.801 7.24964C11.801 6.90739 12.0788 6.62936 12.4221 6.62936C12.7654 6.62936 13.0431 6.90739 13.0431 7.24964C13.0431 7.59188 12.7654 7.86991 12.4221 7.86991C12.0788 7.86991 11.801 7.59188 11.801 7.24964ZM6.41138 10.3689C6.41138 10.0267 6.6891 9.74867 7.03243 9.74867C7.37576 9.74867 7.65348 10.0267 7.65348 10.3689C7.65348 10.7112 7.37576 10.9892 7.03243 10.9892C6.6891 10.9892 6.41138 10.7112 6.41138 10.3689ZM2.78345 17.0047C2.78345 16.6625 3.06117 16.3845 3.4045 16.3845C3.74783 16.3845 4.02555 16.6625 4.02555 17.0047C4.02555 17.347 3.74783 17.625 3.4045 17.625C3.06117 17.625 2.78345 17.347 2.78345 17.0047ZM10.2915 14.1499C9.94814 14.1499 9.67041 14.4279 9.67041 14.7702C9.67041 15.1124 9.94814 15.3905 10.2915 15.3905C10.6348 15.3905 10.9125 15.1124 10.9125 14.7702C10.9125 14.4279 10.6348 14.1499 10.2915 14.1499Z" fill="white"/>
<path d="M14.4814 8.28096C14.6198 8.04202 14.9261 7.95996 15.1654 8.09768L17.1071 9.21493C17.3465 9.35264 17.4283 9.65799 17.2899 9.89693C17.1515 10.1359 16.8452 10.2179 16.6059 10.0802L14.6641 8.96297C14.4248 8.82525 14.343 8.5199 14.4814 8.28096Z" fill="white"/>
<path d="M15.0673 6.44461C14.9956 6.17794 15.1538 5.904 15.4206 5.83276L17.5867 5.25433C17.8535 5.18308 18.1279 5.34151 18.1996 5.60818C18.2713 5.87485 18.1131 6.14879 17.8463 6.22003L15.6802 6.79846C15.4134 6.86971 15.139 6.71128 15.0673 6.44461Z" fill="white"/>
<path d="M13.7544 4.94696C13.5151 4.80924 13.4333 4.5039 13.5717 4.26495L14.6925 2.33017C14.831 2.09122 15.1372 2.00917 15.3766 2.14688C15.6159 2.2846 15.6977 2.58995 15.5593 2.82889L14.4384 4.76368C14.3 5.00262 13.9938 5.08468 13.7544 4.94696Z" fill="white"/>
</svg>
