<svg width="20" height="20" viewBox="0 0 20 20" fill="none" xmlns="http://www.w3.org/2000/svg">
<path fill-rule="evenodd" clip-rule="evenodd" d="M2.07042 16.4782C1.81319 16.5703 1.62946 16.8135 1.62946 17.0991C1.62946 17.4638 1.92926 17.7594 2.2991 17.7594C2.66893 17.7594 2.96873 17.4638 2.96873 17.0991C2.96873 17.0487 2.96302 16.9997 2.9522 16.9526C2.88463 16.6584 2.61788 16.4387 2.2991 16.4387C2.21878 16.4387 2.14177 16.4526 2.07042 16.4782ZM2.62307 15.479C2.51825 15.4587 2.40993 15.4481 2.2991 15.4481C1.37452 15.4481 0.625 16.1873 0.625 17.0991C0.625 18.0108 1.37452 18.75 2.2991 18.75C3.22367 18.75 3.97319 18.0108 3.97319 17.0991C3.97319 16.6542 3.7948 16.2505 3.50472 15.9536L5.99295 11.1248C6.09777 11.145 6.20609 11.1557 6.31693 11.1557C6.50575 11.1557 6.68728 11.1248 6.85661 11.068L8.65047 13.4803C8.4464 13.7539 8.32584 14.0919 8.32584 14.4575C8.32584 15.3693 9.07536 16.1085 9.99994 16.1085C10.9245 16.1085 11.674 15.3693 11.674 14.4575C11.674 13.9714 11.461 13.5343 11.1219 13.2322L13.474 8.00627C13.5425 8.01467 13.6122 8.019 13.6829 8.019C14.6075 8.019 15.357 7.27985 15.357 6.36806C15.357 5.45627 14.6075 4.71712 13.6829 4.71712C12.7584 4.71712 12.0089 5.45627 12.0089 6.36806C12.0089 6.8542 12.2219 7.29127 12.561 7.5934L10.2088 12.8193C10.1404 12.8109 10.0707 12.8066 9.99994 12.8066C9.81111 12.8066 9.62958 12.8374 9.46025 12.8943L7.66639 10.4819C7.87046 10.2083 7.99102 9.8704 7.99102 9.50472C7.99102 8.59293 7.2415 7.85377 6.31693 7.85377C5.39235 7.85377 4.64283 8.59293 4.64283 9.50472C4.64283 9.94954 4.82122 10.3533 5.1113 10.6501L2.62307 15.479ZM5.66382 9.6512C5.72099 9.90014 5.92076 10.0957 6.17398 10.15C6.22004 10.1599 6.26787 10.1651 6.31693 10.1651C6.39724 10.1651 6.47425 10.1512 6.5456 10.1256C6.78479 10.0399 6.96044 9.82359 6.98389 9.56411C6.98566 9.54455 6.98656 9.52474 6.98656 9.50472C6.98656 9.14 6.68676 8.84434 6.31693 8.84434C5.94709 8.84434 5.64729 9.14 5.64729 9.50472C5.64729 9.55506 5.653 9.60409 5.66382 9.6512ZM9.72803 13.8539C9.51111 13.949 9.35499 14.1546 9.33297 14.3982C9.3312 14.4177 9.3303 14.4375 9.3303 14.4575C9.3303 14.8223 9.63011 15.1179 9.99994 15.1179C10.3698 15.1179 10.6696 14.8223 10.6696 14.4575C10.6696 14.3912 10.6596 14.327 10.6412 14.2666C10.5716 14.039 10.3808 13.8633 10.1429 13.8122C10.0968 13.8024 10.049 13.7972 9.99994 13.7972C9.90313 13.7972 9.81112 13.8174 9.72803 13.8539ZM13.0417 6.55901C13.1248 6.83063 13.3804 7.02844 13.6829 7.02844C13.7798 7.02844 13.8718 7.00818 13.9549 6.97173C14.1892 6.86892 14.3526 6.63731 14.3526 6.36806C14.3526 6.00334 14.0528 5.70768 13.6829 5.70768C13.3131 5.70768 13.0133 6.00334 13.0133 6.36806C13.0133 6.43446 13.0232 6.49856 13.0417 6.55901ZM11.5152 1.27555C11.7784 1.18905 12.0628 1.32929 12.1505 1.5888L12.8201 3.56993C12.9078 3.82943 12.7656 4.10992 12.5025 4.19642C12.2393 4.28292 11.9549 4.14267 11.8672 3.88317L11.1976 1.90204C11.1099 1.64254 11.2521 1.36205 11.5152 1.27555ZM15.0785 4.46884C14.8477 4.31711 14.7853 4.0096 14.9392 3.782L16.2784 1.80087C16.4323 1.57328 16.7441 1.51177 16.9749 1.66351C17.2057 1.81524 17.2681 2.12274 17.1142 2.35034L15.7749 4.33147C15.6211 4.55907 15.3092 4.62057 15.0785 4.46884Z" fill="white"/>
<path d="M8.69671 4.86336C8.79973 4.60939 9.09201 4.48585 9.34955 4.58744L11.0236 5.24782C11.2812 5.34941 11.4064 5.63765 11.3034 5.89162C11.2004 6.1456 10.9081 6.26913 10.6506 6.16754L8.9765 5.50716C8.71896 5.40557 8.5937 5.11733 8.69671 4.86336Z" fill="white"/>
<path d="M16.0318 6.10784C15.9926 5.83705 16.1834 5.58618 16.4579 5.54749L18.8017 5.21731C19.0763 5.17862 19.3307 5.36678 19.3699 5.63757C19.4091 5.90835 19.2183 6.15923 18.9437 6.19792L16.6 6.5281C16.3254 6.56679 16.071 6.37863 16.0318 6.10784Z" fill="white"/>
<path d="M15.3601 7.98949C15.5129 7.76122 15.8245 7.69835 16.0559 7.84907L17.8231 8.9997C18.0546 9.15042 18.1183 9.45764 17.9655 9.68591C17.8126 9.91418 17.5011 9.97705 17.2696 9.82634L15.5025 8.67571C15.271 8.52499 15.2073 8.21776 15.3601 7.98949Z" fill="white"/>
</svg>
