<svg width="20" height="20" viewBox="0 0 20 20" fill="none" xmlns="http://www.w3.org/2000/svg">
<path fill-rule="evenodd" clip-rule="evenodd" d="M1.375 1.875C1.375 1.59886 1.59886 1.375 1.875 1.375H8.64583C8.92198 1.375 9.14583 1.59886 9.14583 1.875C9.14583 2.15114 8.92198 2.375 8.64583 2.375H1.875C1.59886 2.375 1.375 2.15114 1.375 1.875ZM12.2083 1.875C12.2083 1.59886 12.4322 1.375 12.7083 1.375H18.125C18.4011 1.375 18.625 1.59886 18.625 1.875C18.625 2.15114 18.4011 2.375 18.125 2.375H12.7083C12.4322 2.375 12.2083 2.15114 12.2083 1.875ZM1.375 5.9375C1.375 5.66136 1.59886 5.4375 1.875 5.4375H4.58333C4.85948 5.4375 5.08333 5.66136 5.08333 5.9375C5.08333 6.21364 4.85948 6.4375 4.58333 6.4375H1.875C1.59886 6.4375 1.375 6.21364 1.375 5.9375ZM8.14583 5.9375C8.14583 5.66136 8.36969 5.4375 8.64583 5.4375H14.0625C14.3386 5.4375 14.5625 5.66136 14.5625 5.9375C14.5625 6.21364 14.3386 6.4375 14.0625 6.4375H8.64583C8.36969 6.4375 8.14583 6.21364 8.14583 5.9375ZM1.375 10C1.375 9.72386 1.59886 9.5 1.875 9.5H10C10.2761 9.5 10.5 9.72386 10.5 10C10.5 10.2761 10.2761 10.5 10 10.5H1.875C1.59886 10.5 1.375 10.2761 1.375 10ZM13.5625 10C13.5625 9.72386 13.7864 9.5 14.0625 9.5H18.125C18.4011 9.5 18.625 9.72386 18.625 10C18.625 10.2761 18.4011 10.5 18.125 10.5H14.0625C13.7864 10.5 13.5625 10.2761 13.5625 10ZM1.375 14.0625C1.375 13.7864 1.59886 13.5625 1.875 13.5625H5.9375C6.21364 13.5625 6.4375 13.7864 6.4375 14.0625C6.4375 14.3386 6.21364 14.5625 5.9375 14.5625H1.875C1.59886 14.5625 1.375 14.3386 1.375 14.0625ZM9.5 14.0625C9.5 13.7864 9.72386 13.5625 10 13.5625H15.4167C15.6928 13.5625 15.9167 13.7864 15.9167 14.0625C15.9167 14.3386 15.6928 14.5625 15.4167 14.5625H10C9.72386 14.5625 9.5 14.3386 9.5 14.0625ZM1.375 18.125C1.375 17.8489 1.59886 17.625 1.875 17.625H10C10.2761 17.625 10.5 17.8489 10.5 18.125C10.5 18.4011 10.2761 18.625 10 18.625H1.875C1.59886 18.625 1.375 18.4011 1.375 18.125ZM13.5625 18.125C13.5625 17.8489 13.7864 17.625 14.0625 17.625H16.7708C17.047 17.625 17.2708 17.8489 17.2708 18.125C17.2708 18.4011 17.047 18.625 16.7708 18.625H14.0625C13.7864 18.625 13.5625 18.4011 13.5625 18.125Z" fill="white"/>
</svg>
