<svg width="20" height="20" viewBox="0 0 20 20" fill="none" xmlns="http://www.w3.org/2000/svg">
<path d="M10.625 5.59906C10.625 5.94424 10.3452 6.22406 10 6.22406C9.65482 6.22406 9.375 5.94424 9.375 5.59906C9.375 5.25388 9.65482 4.97406 10 4.97406C10.3452 4.97406 10.625 5.25388 10.625 5.59906Z" fill="white"/>
<path d="M9.5 7.5L9.5 14.4009C9.5 14.6771 9.72386 14.9009 10 14.9009C10.2761 14.9009 10.5 14.6771 10.5 14.4009L10.5 7.5H9.5Z" fill="white"/>
<path fill-rule="evenodd" clip-rule="evenodd" d="M10 18.75C14.8325 18.75 18.75 14.8325 18.75 10C18.75 5.16751 14.8325 1.25 10 1.25C5.16751 1.25 1.25 5.16751 1.25 10C1.25 14.8325 5.16751 18.75 10 18.75ZM10 17.75C14.2802 17.75 17.75 14.2802 17.75 10C17.75 5.71979 14.2802 2.25 10 2.25C5.71979 2.25 2.25 5.71979 2.25 10C2.25 14.2802 5.71979 17.75 10 17.75Z" fill="white"/>
</svg>
