<svg width="20" height="20" viewBox="0 0 20 20" fill="none" xmlns="http://www.w3.org/2000/svg">
<path fill-rule="evenodd" clip-rule="evenodd" d="M8.76278 1.95858C8.97318 1.39881 9.51825 1 10.1575 1C10.7968 1 11.3418 1.39881 11.5522 1.95858H12.52C12.8885 1.95858 13.1905 2.24017 13.218 2.59763H14.9C16.0598 2.59763 17 3.5275 17 4.67456V16.9231C17 18.0701 16.0598 19 14.9 19H5.1C3.9402 19 3 18.0701 3 16.9231V4.67456C3 3.5275 3.9402 2.59763 5.1 2.59763H6.78204C6.80953 2.24017 7.11152 1.95858 7.48 1.95858H8.76278ZM6.78 3.98225H5.1C4.7134 3.98225 4.4 4.29221 4.4 4.67456V16.9231C4.4 17.3054 4.7134 17.6154 5.1 17.6154H14.9C15.2866 17.6154 15.6 17.3054 15.6 16.9231V4.67456C15.6 4.2922 15.2866 3.98225 14.9 3.98225H13.22V4.24852C13.22 4.63087 12.9066 4.94083 12.52 4.94083H7.48C7.0934 4.94083 6.78 4.63087 6.78 4.24852V3.98225ZM5.835 7.76331C5.835 7.38096 6.1484 7.07101 6.535 7.07101H9.685C10.0716 7.07101 10.385 7.38096 10.385 7.76331C10.385 8.14566 10.0716 8.45562 9.685 8.45562H6.535C6.1484 8.45562 5.835 8.14566 5.835 7.76331ZM5.835 11.2363C5.835 10.8539 6.1484 10.544 6.535 10.544H13.465C13.8516 10.544 14.165 10.8539 14.165 11.2363C14.165 11.6186 13.8516 11.9286 13.465 11.9286H6.535C6.1484 11.9286 5.835 11.6186 5.835 11.2363ZM5.835 14.5494C5.835 14.1671 6.1484 13.8571 6.535 13.8571H13.465C13.8516 13.8571 14.165 14.1671 14.165 14.5494C14.165 14.9318 13.8516 15.2418 13.465 15.2418H6.535C6.1484 15.2418 5.835 14.9318 5.835 14.5494Z" fill="white"/>
</svg>
