<svg width="20" height="20" viewBox="0 0 20 20" fill="none" xmlns="http://www.w3.org/2000/svg">
<path d="M1.875 1.375C1.59886 1.375 1.375 1.59886 1.375 1.875V2.74554C1.375 3.02168 1.59886 3.24554 1.875 3.24554C2.15114 3.24554 2.375 3.02168 2.375 2.74554V2.375H2.74554C3.02168 2.375 3.24554 2.15114 3.24554 1.875C3.24554 1.59886 3.02168 1.375 2.74554 1.375H1.875Z" fill="white"/>
<path d="M4.48661 1.375C4.21047 1.375 3.98661 1.59886 3.98661 1.875C3.98661 2.15114 4.21047 2.375 4.48661 2.375H6.22768C6.50382 2.375 6.72768 2.15114 6.72768 1.875C6.72768 1.59886 6.50382 1.375 6.22768 1.375H4.48661Z" fill="white"/>
<path d="M7.96875 1.375C7.69261 1.375 7.46875 1.59886 7.46875 1.875C7.46875 2.15114 7.69261 2.375 7.96875 2.375H9.70982C9.98596 2.375 10.2098 2.15114 10.2098 1.875C10.2098 1.59886 9.98596 1.375 9.70982 1.375H7.96875Z" fill="white"/>
<path d="M11.4509 1.375C11.1748 1.375 10.9509 1.59886 10.9509 1.875C10.9509 2.15114 11.1748 2.375 11.4509 2.375H11.8214V3.32589C11.8214 3.60204 12.0453 3.82589 12.3214 3.82589C12.5976 3.82589 12.8214 3.60204 12.8214 3.32589V1.875C12.8214 1.59886 12.5976 1.375 12.3214 1.375H11.4509Z" fill="white"/>
<path d="M2.375 4.48661C2.375 4.21046 2.15114 3.98661 1.875 3.98661C1.59886 3.98661 1.375 4.21046 1.375 4.48661V6.22768C1.375 6.50382 1.59886 6.72768 1.875 6.72768C2.15114 6.72768 2.375 6.50382 2.375 6.22768V4.48661Z" fill="white"/>
<path fill-rule="evenodd" clip-rule="evenodd" d="M12.8214 6.22768C12.8214 5.95154 12.5976 5.72768 12.3214 5.72768C12.0453 5.72768 11.8214 5.95154 11.8214 6.22768V7.17858H7.67847C7.40232 7.17858 7.17847 7.40244 7.17847 7.67858V11.8214H6.22768C5.95154 11.8214 5.72768 12.0453 5.72768 12.3214C5.72768 12.5976 5.95154 12.8214 6.22768 12.8214H7.17857V14.2076C7.17857 14.4837 7.40243 14.7076 7.67857 14.7076C7.95471 14.7076 8.17857 14.4837 8.17857 14.2076V12.8214H12.3213C12.5975 12.8214 12.8213 12.5976 12.8213 12.3214V8.17857H13.7723C14.0485 8.17857 14.2723 7.95471 14.2723 7.67857C14.2723 7.40243 14.0485 7.17857 13.7723 7.17857H12.8214V6.22768ZM8.17847 11.8214V8.17858H11.8213V11.8214H8.17847Z" fill="white"/>
<path d="M16.6741 7.17857C16.398 7.17857 16.1741 7.40243 16.1741 7.67857C16.1741 7.95471 16.398 8.17857 16.6741 8.17857H17.625V8.54911C17.625 8.82525 17.8489 9.04911 18.125 9.04911C18.4011 9.04911 18.625 8.82525 18.625 8.54911V7.67857C18.625 7.40243 18.4011 7.17857 18.125 7.17857H16.6741Z" fill="white"/>
<path d="M2.375 7.96875C2.375 7.69261 2.15114 7.46875 1.875 7.46875C1.59886 7.46875 1.375 7.69261 1.375 7.96875V9.70982C1.375 9.98596 1.59886 10.2098 1.875 10.2098C2.15114 10.2098 2.375 9.98596 2.375 9.70982V7.96875Z" fill="white"/>
<path d="M18.625 10.2902C18.625 10.014 18.4011 9.79018 18.125 9.79018C17.8489 9.79018 17.625 10.014 17.625 10.2902V12.0312C17.625 12.3074 17.8489 12.5312 18.125 12.5312C18.4011 12.5312 18.625 12.3074 18.625 12.0312V10.2902Z" fill="white"/>
<path d="M2.375 11.4509C2.375 11.1748 2.15114 10.9509 1.875 10.9509C1.59886 10.9509 1.375 11.1748 1.375 11.4509V12.3214C1.375 12.5976 1.59886 12.8214 1.875 12.8214H3.32589C3.60204 12.8214 3.82589 12.5976 3.82589 12.3214C3.82589 12.0453 3.60204 11.8214 3.32589 11.8214H2.375V11.4509Z" fill="white"/>
<path d="M18.625 13.7723C18.625 13.4962 18.4011 13.2723 18.125 13.2723C17.8489 13.2723 17.625 13.4962 17.625 13.7723V15.5134C17.625 15.7895 17.8489 16.0134 18.125 16.0134C18.4011 16.0134 18.625 15.7895 18.625 15.5134V13.7723Z" fill="white"/>
<path d="M8.17857 16.8192C8.17857 16.5431 7.95471 16.3192 7.67857 16.3192C7.40243 16.3192 7.17857 16.5431 7.17857 16.8192V18.125C7.17857 18.4011 7.40243 18.625 7.67857 18.625H8.54911C8.82525 18.625 9.04911 18.4011 9.04911 18.125C9.04911 17.8489 8.82525 17.625 8.54911 17.625H8.17857V16.8192Z" fill="white"/>
<path d="M18.625 17.2545C18.625 16.9783 18.4011 16.7545 18.125 16.7545C17.8489 16.7545 17.625 16.9783 17.625 17.2545V17.625H17.2545C16.9783 17.625 16.7545 17.8489 16.7545 18.125C16.7545 18.4011 16.9783 18.625 17.2545 18.625H18.125C18.4011 18.625 18.625 18.4011 18.625 18.125V17.2545Z" fill="white"/>
<path d="M10.2902 17.625C10.014 17.625 9.79018 17.8489 9.79018 18.125C9.79018 18.4011 10.014 18.625 10.2902 18.625H12.0312C12.3074 18.625 12.5312 18.4011 12.5312 18.125C12.5312 17.8489 12.3074 17.625 12.0312 17.625H10.2902Z" fill="white"/>
<path d="M13.7723 17.625C13.4962 17.625 13.2723 17.8489 13.2723 18.125C13.2723 18.4011 13.4962 18.625 13.7723 18.625H15.5134C15.7895 18.625 16.0134 18.4011 16.0134 18.125C16.0134 17.8489 15.7895 17.625 15.5134 17.625H13.7723Z" fill="white"/>
</svg>
