<svg width="20" height="20" viewBox="0 0 20 20" fill="none" xmlns="http://www.w3.org/2000/svg">
<line x1="11.7143" y1="8.72136" x2="16.7215" y2="3.71418" stroke="white" stroke-linecap="round"/>
<path d="M11.7143 6.57146L11.7143 8.85718L14 8.85718" stroke="white" stroke-linecap="round" stroke-linejoin="round"/>
<line x1="11.85" y1="11.7144" x2="16.8571" y2="16.7215" stroke="white" stroke-linecap="round"/>
<path d="M14 11.7144H11.7143V14.0001" stroke="white" stroke-linecap="round" stroke-linejoin="round"/>
<line x1="0.5" y1="-0.5" x2="7.58122" y2="-0.5" transform="matrix(-0.707107 -0.707107 -0.707107 0.707107 8.85715 9.42847)" stroke="white" stroke-linecap="round"/>
<path d="M8.85715 6.57146L8.85715 8.85718L6.57143 8.85718" stroke="white" stroke-linecap="round" stroke-linejoin="round"/>
<line x1="0.5" y1="-0.5" x2="7.58122" y2="-0.5" transform="matrix(-0.707107 0.707107 0.707107 0.707107 9.42856 11.7144)" stroke="white" stroke-linecap="round"/>
<path d="M6.57143 11.7144H8.85715V14.0001" stroke="white" stroke-linecap="round" stroke-linejoin="round"/>
<path fill-rule="evenodd" clip-rule="evenodd" d="M3.31631 5.60199C2.48426 6.8639 2 8.3754 2 10C2 11.6268 2.48555 13.1401 3.31962 14.403L4.14748 13.5752C3.51019 12.5342 3.14286 11.31 3.14286 10C3.14286 8.69219 3.50898 7.46988 4.14432 6.43L3.31631 5.60199ZM6.60435 4.0413C7.60547 3.46957 8.76458 3.14286 10 3.14286C11.31 3.14286 12.5342 3.51019 13.5752 4.14748L14.3635 3.35919C14.3767 3.34591 14.3902 3.33289 14.4038 3.32013C13.1407 2.48574 11.6271 2 10 2C8.44729 2 6.99789 2.44235 5.77096 3.20791L6.60435 4.0413ZM10 16.8571C11.3078 16.8571 12.5301 16.491 13.57 15.8557L14.398 16.6837C13.1361 17.5157 11.6246 18 10 18C8.44945 18 7.00193 17.5589 5.77609 16.7953L6.60966 15.9617C7.60956 16.5316 8.76676 16.8571 10 16.8571ZM16.8571 10C16.8571 8.76676 16.5316 7.60956 15.9617 6.60966L16.7878 5.78356L16.7953 5.77606C17.5589 7.00191 18 8.44944 18 10C18 11.5527 17.5576 13.0021 16.7921 14.229L15.9587 13.3956C16.5304 12.3945 16.8571 11.2354 16.8571 10Z" fill="white"/>
</svg>
