<svg width="20" height="20" viewBox="0 0 20 20" fill="none" xmlns="http://www.w3.org/2000/svg">
<path fill-rule="evenodd" clip-rule="evenodd" d="M1.25 3.125C1.25 2.08947 2.08947 1.25 3.125 1.25H11.875C12.9105 1.25 13.75 2.08947 13.75 3.125V6.25H16.875C17.9105 6.25 18.75 7.08947 18.75 8.125V16.875C18.75 17.9105 17.9105 18.75 16.875 18.75H8.125C7.08947 18.75 6.25 17.9105 6.25 16.875V13.75H3.125C2.08947 13.75 1.25 12.9105 1.25 11.875V3.125ZM3.125 2.5C2.77982 2.5 2.5 2.77982 2.5 3.125V11.875C2.5 12.2202 2.77982 12.5 3.125 12.5H7.5V16.875C7.5 17.2202 7.77982 17.5 8.125 17.5H16.875C17.2202 17.5 17.5 17.2202 17.5 16.875V8.125C17.5 7.77982 17.2202 7.5 16.875 7.5H12.5V3.125C12.5 2.77982 12.2202 2.5 11.875 2.5H3.125Z" fill="white"/>
<path fill-rule="evenodd" clip-rule="evenodd" d="M7.74487 6.70597C7.86636 6.6735 7.99383 6.65625 8.125 6.65625H8.40278C8.52359 6.65625 8.62153 6.75419 8.62153 6.875C8.62153 6.99581 8.52359 7.09375 8.40278 7.09375H8.125C8.03232 7.09375 7.94281 7.10592 7.85785 7.12863C7.74113 7.15983 7.62123 7.09051 7.59003 6.97379C7.55883 6.85708 7.62815 6.73717 7.74487 6.70597ZM9.29514 6.875C9.29514 6.75419 9.39308 6.65625 9.51389 6.65625H10.0694C10.1903 6.65625 10.2882 6.75419 10.2882 6.875C10.2882 6.99581 10.1903 7.09375 10.0694 7.09375H9.51389C9.39308 7.09375 9.29514 6.99581 9.29514 6.875ZM10.9618 6.875C10.9618 6.75419 11.0597 6.65625 11.1806 6.65625H11.7361C11.8569 6.65625 11.9549 6.75419 11.9549 6.875C11.9549 6.99581 11.8569 7.09375 11.7361 7.09375H11.1806C11.0597 7.09375 10.9618 6.99581 10.9618 6.875ZM12.6285 6.875C12.6285 6.75419 12.7264 6.65625 12.8472 6.65625H13.125C13.2458 6.65625 13.3438 6.75419 13.3438 6.875V7.15278C13.3438 7.27359 13.2458 7.37153 13.125 7.37153C13.0042 7.37153 12.9062 7.27359 12.9062 7.15278V7.09375H12.8472C12.7264 7.09375 12.6285 6.99581 12.6285 6.875ZM6.97379 7.59003C7.09051 7.62123 7.15983 7.74113 7.12863 7.85785C7.10592 7.94281 7.09375 8.03232 7.09375 8.125V8.40278C7.09375 8.52359 6.99581 8.62153 6.875 8.62153C6.75419 8.62153 6.65625 8.52359 6.65625 8.40278V8.125C6.65625 7.99383 6.6735 7.86636 6.70597 7.74487C6.73717 7.62815 6.85708 7.55883 6.97379 7.59003ZM13.125 8.04514C13.2458 8.04514 13.3438 8.14308 13.3438 8.26389V8.81944C13.3438 8.94026 13.2458 9.03819 13.125 9.03819C13.0042 9.03819 12.9062 8.94026 12.9062 8.81944V8.26389C12.9062 8.14308 13.0042 8.04514 13.125 8.04514ZM6.875 9.29514C6.99581 9.29514 7.09375 9.39308 7.09375 9.51389V10.0694C7.09375 10.1903 6.99581 10.2882 6.875 10.2882C6.75419 10.2882 6.65625 10.1903 6.65625 10.0694V9.51389C6.65625 9.39308 6.75419 9.29514 6.875 9.29514ZM13.125 9.71181C13.2458 9.71181 13.3438 9.80974 13.3438 9.93056V10.4861C13.3438 10.6069 13.2458 10.7049 13.125 10.7049C13.0042 10.7049 12.9062 10.6069 12.9062 10.4861V9.93056C12.9062 9.80974 13.0042 9.71181 13.125 9.71181ZM6.875 10.9618C6.99581 10.9618 7.09375 11.0597 7.09375 11.1806V11.7361C7.09375 11.8569 6.99581 11.9549 6.875 11.9549C6.75419 11.9549 6.65625 11.8569 6.65625 11.7361V11.1806C6.65625 11.0597 6.75419 10.9618 6.875 10.9618ZM13.125 11.3785C13.2458 11.3785 13.3438 11.4764 13.3438 11.5972V11.875C13.3438 12.0062 13.3265 12.1336 13.294 12.2551C13.2628 12.3718 13.1429 12.4412 13.0262 12.41C12.9095 12.3788 12.8402 12.2589 12.8714 12.1422C12.8941 12.0572 12.9062 11.9677 12.9062 11.875V11.5972C12.9062 11.4764 13.0042 11.3785 13.125 11.3785ZM6.875 12.6285C6.99581 12.6285 7.09375 12.7264 7.09375 12.8472V12.9062H7.15278C7.27359 12.9062 7.37153 13.0042 7.37153 13.125C7.37153 13.2458 7.27359 13.3438 7.15278 13.3438H6.875C6.75419 13.3438 6.65625 13.2458 6.65625 13.125V12.8472C6.65625 12.7264 6.75419 12.6285 6.875 12.6285ZM12.41 13.0262C12.4412 13.1429 12.3718 13.2628 12.2551 13.294C12.1336 13.3265 12.0062 13.3438 11.875 13.3438H11.5972C11.4764 13.3438 11.3785 13.2458 11.3785 13.125C11.3785 13.0042 11.4764 12.9062 11.5972 12.9062H11.875C11.9677 12.9062 12.0572 12.8941 12.1422 12.8714C12.2589 12.8402 12.3788 12.9095 12.41 13.0262ZM8.04514 13.125C8.04514 13.0042 8.14308 12.9062 8.26389 12.9062H8.81944C8.94026 12.9062 9.03819 13.0042 9.03819 13.125C9.03819 13.2458 8.94026 13.3438 8.81944 13.3438H8.26389C8.14308 13.3438 8.04514 13.2458 8.04514 13.125ZM9.71181 13.125C9.71181 13.0042 9.80974 12.9062 9.93056 12.9062H10.4861C10.6069 12.9062 10.7049 13.0042 10.7049 13.125C10.7049 13.2458 10.6069 13.3438 10.4861 13.3438H9.93056C9.80974 13.3438 9.71181 13.2458 9.71181 13.125Z" fill="white"/>
</svg>
