<svg width="20" height="20" viewBox="0 0 20 20" fill="none" xmlns="http://www.w3.org/2000/svg">
<path d="M7.67847 7.17858C7.40232 7.17858 7.17847 7.40244 7.17847 7.67858V8.8393C7.17847 9.11544 7.40232 9.3393 7.67847 9.3393C7.95461 9.3393 8.17847 9.11544 8.17847 8.8393V8.17858H8.83918C9.11532 8.17858 9.33918 7.95472 9.33918 7.67858C9.33918 7.40244 9.11532 7.17858 8.83918 7.17858H7.67847Z" fill="white"/>
<path d="M12.8213 11.1607C12.8213 10.8846 12.5975 10.6607 12.3213 10.6607C12.0452 10.6607 11.8213 10.8846 11.8213 11.1607V11.8214H11.1606C10.8845 11.8214 10.6606 12.0453 10.6606 12.3214C10.6606 12.5976 10.8845 12.8214 11.1606 12.8214H12.3213C12.5975 12.8214 12.8213 12.5976 12.8213 12.3214V11.1607Z" fill="white"/>
<path fill-rule="evenodd" clip-rule="evenodd" d="M1.875 1.375C1.59886 1.375 1.375 1.59886 1.375 1.875V12.3214C1.375 12.5976 1.59886 12.8214 1.875 12.8214H7.17857V18.125C7.17857 18.4011 7.40243 18.625 7.67857 18.625H18.125C18.4011 18.625 18.625 18.4011 18.625 18.125V7.67857C18.625 7.40243 18.4011 7.17857 18.125 7.17857H12.8214V1.875C12.8214 1.59886 12.5976 1.375 12.3214 1.375H1.875ZM2.375 11.8214V2.375H11.8214V7.17858H11.1606C10.8845 7.17858 10.6606 7.40244 10.6606 7.67858C10.6606 7.95472 10.8845 8.17858 11.1606 8.17858H11.8213V8.8393C11.8213 9.11544 12.0452 9.3393 12.3213 9.3393C12.5975 9.3393 12.8213 9.11544 12.8213 8.8393V8.17857H17.625V17.625H8.17857V12.8214H8.83918C9.11532 12.8214 9.33918 12.5976 9.33918 12.3214C9.33918 12.0453 9.11532 11.8214 8.83918 11.8214H8.17847V11.1607C8.17847 10.8846 7.95461 10.6607 7.67847 10.6607C7.40232 10.6607 7.17847 10.8846 7.17847 11.1607V11.8214H2.375Z" fill="white"/>
</svg>
