<svg width="20" height="20" viewBox="0 0 20 20" fill="none" xmlns="http://www.w3.org/2000/svg">
<path fill-rule="evenodd" clip-rule="evenodd" d="M2.25 2.5C2.25 2.36193 2.36193 2.25 2.5 2.25H3.4375V2.75H2.75V3.4375H2.25V2.5ZM5.3125 2.25H7.1875V2.75H5.3125V2.25ZM9.0625 2.25H10.9375V2.75H9.0625V2.25ZM12.8125 2.25H14.6875V2.75H12.8125V2.25ZM16.5625 2.25H17.5C17.6381 2.25 17.75 2.36193 17.75 2.5V3.4375H17.25V2.75H16.5625V2.25ZM2.25 7.1875V5.3125H2.75V7.1875H2.25ZM17.75 5.3125V7.1875H17.25V5.3125H17.75ZM2.25 10.9375V9.0625H2.75V10.9375H2.25ZM17.75 9.0625V10.9375H17.25V9.0625H17.75ZM2.25 14.6875V12.8125H2.75V14.6875H2.25ZM17.75 12.8125V14.6875H17.25V12.8125H17.75ZM2.25 17.5V16.5625H2.75V17.25H3.4375V17.75H2.5C2.36193 17.75 2.25 17.6381 2.25 17.5ZM17.75 16.5625V17.5C17.75 17.6381 17.6381 17.75 17.5 17.75H16.5625V17.25H17.25V16.5625H17.75ZM7.1875 17.75H5.3125V17.25H7.1875V17.75ZM10.9375 17.75H9.0625V17.25H10.9375V17.75ZM14.6875 17.75H12.8125V17.25H14.6875V17.75Z" fill="white"/>
<path fill-rule="evenodd" clip-rule="evenodd" d="M2 2.5C2 2.22386 2.22386 2 2.5 2H17.5C17.7761 2 18 2.22386 18 2.5V7.5C18 7.77614 17.7761 8 17.5 8H2.5C2.22386 8 2 7.77614 2 7.5V2.5ZM3 3V7H17V3H3Z" fill="white"/>
</svg>
