<svg width="20" height="20" viewBox="0 0 20 20" fill="none" xmlns="http://www.w3.org/2000/svg">
<path fill-rule="evenodd" clip-rule="evenodd" d="M1.25 4.08784C1.25 2.52054 2.52054 1.25 4.08784 1.25H15.9122C17.4795 1.25 18.75 2.52054 18.75 4.08784V15.9122C18.75 17.4795 17.4795 18.75 15.9122 18.75H4.08784C2.52054 18.75 1.25 17.4795 1.25 15.9122V4.08784ZM4.08784 2.19595C3.04297 2.19595 2.19595 3.04297 2.19595 4.08784V15.9122C2.19595 16.957 3.04297 17.8041 4.08784 17.8041H15.9122C16.957 17.8041 17.8041 16.957 17.8041 15.9122V4.08784C17.8041 3.04297 16.957 2.19595 15.9122 2.19595H4.08784ZM9.53332 5.0999C9.77002 4.79557 10.23 4.79557 10.4667 5.0999L14.3634 10.11C14.6655 10.4984 14.3887 11.0642 13.8967 11.0642H12.2466V14.6115C12.2466 14.938 11.9819 15.2027 11.6554 15.2027H8.34459C8.01807 15.2027 7.75338 14.938 7.75338 14.6115V11.0642H6.10325C5.61127 11.0642 5.33453 10.4983 5.63657 10.11L9.53332 5.0999ZM10 6.04066L6.82855 10.1182H8.10811C8.43463 10.1182 8.69932 10.3829 8.69932 10.7095V14.2568H11.3007V10.7095C11.3007 10.3829 11.5654 10.1182 11.8919 10.1182H13.1715L10 6.04066Z" fill="white"/>
</svg>
