<svg width="20" height="20" viewBox="0 0 20 20" fill="none" xmlns="http://www.w3.org/2000/svg">
<path fill-rule="evenodd" clip-rule="evenodd" d="M10.4 5.0125C10.3056 4.8866 10.1574 4.8125 10 4.8125C9.84262 4.8125 9.69443 4.8866 9.6 5.0125L5.85 10.0125C5.73637 10.164 5.71809 10.3667 5.80279 10.5361C5.88749 10.7055 6.06062 10.8125 6.25 10.8125H7.625V14.6875C7.625 14.9636 7.84886 15.1875 8.125 15.1875H11.875C12.1511 15.1875 12.375 14.9636 12.375 14.6875V10.8125H13.75C13.9394 10.8125 14.1125 10.7055 14.1972 10.5361C14.2819 10.3667 14.2636 10.164 14.15 10.0125L10.4 5.0125ZM8.125 9.8125H7.25L10 6.14583L12.75 9.8125H11.875C11.5989 9.8125 11.375 10.0364 11.375 10.3125V14.1875H8.625V10.3125C8.625 10.0364 8.40114 9.8125 8.125 9.8125Z" fill="white"/>
<path fill-rule="evenodd" clip-rule="evenodd" d="M3.875 1.375C2.49429 1.375 1.375 2.49429 1.375 3.875V16.125C1.375 17.5057 2.49429 18.625 3.875 18.625H16.125C17.5057 18.625 18.625 17.5057 18.625 16.125V3.875C18.625 2.49429 17.5057 1.375 16.125 1.375H3.875ZM2.375 3.875C2.375 3.04657 3.04657 2.375 3.875 2.375H16.125C16.9534 2.375 17.625 3.04657 17.625 3.875V16.125C17.625 16.9534 16.9534 17.625 16.125 17.625H3.875C3.04657 17.625 2.375 16.9534 2.375 16.125V3.875Z" fill="white"/>
</svg>
