<svg width="20" height="20" viewBox="0 0 20 20" fill="none" xmlns="http://www.w3.org/2000/svg">
<path fill-rule="evenodd" clip-rule="evenodd" d="M2.5 2C2.22386 2 2 2.22386 2 2.5V7.5C2 7.77614 2.22386 8 2.5 8H17.5C17.7761 8 18 7.77614 18 7.5V2.5C18 2.22386 17.7761 2 17.5 2H2.5ZM3 3V7H17V3H3Z" fill="white"/>
<path d="M3 9.0625C3 8.78636 2.77614 8.5625 2.5 8.5625C2.22386 8.5625 2 8.78636 2 9.0625V10.9375C2 11.2136 2.22386 11.4375 2.5 11.4375C2.77614 11.4375 3 11.2136 3 10.9375V9.0625Z" fill="white"/>
<path d="M18 9.0625C18 8.78636 17.7761 8.5625 17.5 8.5625C17.2239 8.5625 17 8.78636 17 9.0625V10.9375C17 11.2136 17.2239 11.4375 17.5 11.4375C17.7761 11.4375 18 11.2136 18 10.9375V9.0625Z" fill="white"/>
<path d="M3 12.8125C3 12.5364 2.77614 12.3125 2.5 12.3125C2.22386 12.3125 2 12.5364 2 12.8125V14.6875C2 14.9636 2.22386 15.1875 2.5 15.1875C2.77614 15.1875 3 14.9636 3 14.6875V12.8125Z" fill="white"/>
<path d="M18 12.8125C18 12.5364 17.7761 12.3125 17.5 12.3125C17.2239 12.3125 17 12.5364 17 12.8125V14.6875C17 14.9636 17.2239 15.1875 17.5 15.1875C17.7761 15.1875 18 14.9636 18 14.6875V12.8125Z" fill="white"/>
<path d="M3 16.5625C3 16.2864 2.77614 16.0625 2.5 16.0625C2.22386 16.0625 2 16.2864 2 16.5625V17.5C2 17.7761 2.22386 18 2.5 18H3.4375C3.71364 18 3.9375 17.7761 3.9375 17.5C3.9375 17.2239 3.71364 17 3.4375 17H3V16.5625Z" fill="white"/>
<path d="M18 16.5625C18 16.2864 17.7761 16.0625 17.5 16.0625C17.2239 16.0625 17 16.2864 17 16.5625V17H16.5625C16.2864 17 16.0625 17.2239 16.0625 17.5C16.0625 17.7761 16.2864 18 16.5625 18H17.5C17.7761 18 18 17.7761 18 17.5V16.5625Z" fill="white"/>
<path d="M5.3125 17C5.03636 17 4.8125 17.2239 4.8125 17.5C4.8125 17.7761 5.03636 18 5.3125 18H7.1875C7.46364 18 7.6875 17.7761 7.6875 17.5C7.6875 17.2239 7.46364 17 7.1875 17H5.3125Z" fill="white"/>
<path d="M9.0625 17C8.78636 17 8.5625 17.2239 8.5625 17.5C8.5625 17.7761 8.78636 18 9.0625 18H10.9375C11.2136 18 11.4375 17.7761 11.4375 17.5C11.4375 17.2239 11.2136 17 10.9375 17H9.0625Z" fill="white"/>
<path d="M12.8125 17C12.5364 17 12.3125 17.2239 12.3125 17.5C12.3125 17.7761 12.5364 18 12.8125 18H14.6875C14.9636 18 15.1875 17.7761 15.1875 17.5C15.1875 17.2239 14.9636 17 14.6875 17H12.8125Z" fill="white"/>
</svg>
