<svg width="20" height="20" viewBox="0 0 20 20" fill="none" xmlns="http://www.w3.org/2000/svg">
<path d="M2.5 2C2.22386 2 2 2.22386 2 2.5V3.4375C2 3.71364 2.22386 3.9375 2.5 3.9375C2.77614 3.9375 3 3.71364 3 3.4375V3H3.4375C3.71364 3 3.9375 2.77614 3.9375 2.5C3.9375 2.22386 3.71364 2 3.4375 2H2.5Z" fill="white"/>
<path d="M5.3125 2C5.03636 2 4.8125 2.22386 4.8125 2.5C4.8125 2.77614 5.03636 3 5.3125 3H7.1875C7.46364 3 7.6875 2.77614 7.6875 2.5C7.6875 2.22386 7.46364 2 7.1875 2H5.3125Z" fill="white"/>
<path d="M9.0625 2C8.78636 2 8.5625 2.22386 8.5625 2.5C8.5625 2.77614 8.78636 3 9.0625 3H10.9375C11.2136 3 11.4375 2.77614 11.4375 2.5C11.4375 2.22386 11.2136 2 10.9375 2H9.0625Z" fill="white"/>
<path d="M12.8125 2C12.5364 2 12.3125 2.22386 12.3125 2.5C12.3125 2.77614 12.5364 3 12.8125 3H14.6875C14.9636 3 15.1875 2.77614 15.1875 2.5C15.1875 2.22386 14.9636 2 14.6875 2H12.8125Z" fill="white"/>
<path d="M16.5625 2C16.2864 2 16.0625 2.22386 16.0625 2.5C16.0625 2.77614 16.2864 3 16.5625 3H17V3.4375C17 3.71364 17.2239 3.9375 17.5 3.9375C17.7761 3.9375 18 3.71364 18 3.4375V2.5C18 2.22386 17.7761 2 17.5 2H16.5625Z" fill="white"/>
<path d="M3 5.3125C3 5.03636 2.77614 4.8125 2.5 4.8125C2.22386 4.8125 2 5.03636 2 5.3125V7.1875C2 7.46364 2.22386 7.6875 2.5 7.6875C2.77614 7.6875 3 7.46364 3 7.1875V5.3125Z" fill="white"/>
<path d="M18 5.3125C18 5.03636 17.7761 4.8125 17.5 4.8125C17.2239 4.8125 17 5.03636 17 5.3125V7.1875C17 7.46364 17.2239 7.6875 17.5 7.6875C17.7761 7.6875 18 7.46364 18 7.1875V5.3125Z" fill="white"/>
<path d="M3 9.0625C3 8.78636 2.77614 8.5625 2.5 8.5625C2.22386 8.5625 2 8.78636 2 9.0625V10.9375C2 11.2136 2.22386 11.4375 2.5 11.4375C2.77614 11.4375 3 11.2136 3 10.9375V9.0625Z" fill="white"/>
<path d="M18 9.0625C18 8.78636 17.7761 8.5625 17.5 8.5625C17.2239 8.5625 17 8.78636 17 9.0625V10.9375C17 11.2136 17.2239 11.4375 17.5 11.4375C17.7761 11.4375 18 11.2136 18 10.9375V9.0625Z" fill="white"/>
<path fill-rule="evenodd" clip-rule="evenodd" d="M2 12.5C2 12.2239 2.22386 12 2.5 12H17.5C17.7761 12 18 12.2239 18 12.5V17.5C18 17.7761 17.7761 18 17.5 18H2.5C2.22386 18 2 17.7761 2 17.5V12.5ZM3 17H17V13H3V17Z" fill="white"/>
</svg>
