<svg width="20" height="20" viewBox="0 0 20 20" fill="none" xmlns="http://www.w3.org/2000/svg">
<path fill-rule="evenodd" clip-rule="evenodd" d="M18.0386 1.00183C18.6043 0.968483 19.0315 1.39569 18.9982 1.96136L18.5699 9.22782C18.5535 9.50525 18.4264 9.77937 18.217 9.98874L9.5604 18.6454C9.12879 19.077 8.47274 19.1207 8.09508 18.7431L1.25695 11.9049C0.879287 11.5273 0.923024 10.8712 1.35463 10.4396L10.0113 1.78297C10.2206 1.57361 10.4947 1.4465 10.7722 1.43015L18.0386 1.00183ZM11.1809 3.40732C11.0602 3.41547 10.9466 3.4671 10.8611 3.55263L3.60066 10.813C3.4054 11.0083 3.4054 11.3249 3.60066 11.5201L8.50976 16.4293C8.70667 16.6262 9.02649 16.6243 9.22104 16.425L16.3955 9.07809C16.4773 8.99428 16.5271 8.8844 16.5362 8.76762L16.9397 3.59205C16.9634 3.28802 16.7118 3.03377 16.4075 3.05432L11.1809 3.40732Z" fill="#0091E4"/>
<path d="M14.054 5.94597C14.3777 6.26968 14.3777 6.79451 14.054 7.11822C13.7303 7.44193 13.2055 7.44193 12.8818 7.11822C12.5581 6.79451 12.5581 6.26968 12.8818 5.94597C13.2055 5.62226 13.7303 5.62226 14.054 5.94597Z" fill="#0091E4"/>
</svg>
