<svg width="20" height="20" viewBox="0 0 20 20" fill="none" xmlns="http://www.w3.org/2000/svg">
<path fill-rule="evenodd" clip-rule="evenodd" d="M10.3164 2.14651C10.4102 2.05274 10.5374 2.00006 10.67 2.00006H17.5C17.7761 2.00006 18 2.22392 18 2.50006V9.3301C18 9.46271 17.9473 9.58989 17.8536 9.68365L9.68359 17.8536C9.58982 17.9474 9.46265 18.0001 9.33004 18.0001C9.19743 18.0001 9.07025 17.9474 8.97649 17.8536L2.14645 11.0236C1.95118 10.8283 1.95118 10.5117 2.14645 10.3165L10.3164 2.14651ZM10.8771 3.00006L3.20711 10.67L9.33004 16.793L17 9.12299V3.00006H10.8771Z" fill="white"/>
<path d="M14.085 6.80417C14.5762 6.80417 14.9743 6.406 14.9743 5.91484C14.9743 5.42368 14.5762 5.02552 14.085 5.02552C13.5938 5.02552 13.1957 5.42368 13.1957 5.91484C13.1957 6.406 13.5938 6.80417 14.085 6.80417Z" fill="white"/>
</svg>
