<svg width="20" height="20" viewBox="0 0 20 20" fill="none" xmlns="http://www.w3.org/2000/svg">
<path fill-rule="evenodd" clip-rule="evenodd" d="M5.125 2.5C5.125 2.22386 5.34886 2 5.625 2H18.125C18.4011 2 18.625 2.22386 18.625 2.5C18.625 2.77614 18.4011 3 18.125 3H5.625C5.34886 3 5.125 2.77614 5.125 2.5Z" fill="white"/>
<path fill-rule="evenodd" clip-rule="evenodd" d="M5.125 10C5.125 9.72386 5.34886 9.5 5.625 9.5H18.125C18.4011 9.5 18.625 9.72386 18.625 10C18.625 10.2761 18.4011 10.5 18.125 10.5H5.625C5.34886 10.5 5.125 10.2761 5.125 10Z" fill="white"/>
<path fill-rule="evenodd" clip-rule="evenodd" d="M5.125 17.5C5.125 17.2239 5.34886 17 5.625 17H18.125C18.4011 17 18.625 17.2239 18.625 17.5C18.625 17.7761 18.4011 18 18.125 18H5.625C5.34886 18 5.125 17.7761 5.125 17.5Z" fill="white"/>
<path d="M3.75 2.5C3.75 3.19036 3.19036 3.75 2.5 3.75C1.80964 3.75 1.25 3.19036 1.25 2.5C1.25 1.80964 1.80964 1.25 2.5 1.25C3.19036 1.25 3.75 1.80964 3.75 2.5Z" fill="white"/>
<path d="M3.75 9.79166C3.75 10.482 3.19036 11.0417 2.5 11.0417C1.80964 11.0417 1.25 10.482 1.25 9.79166C1.25 9.10131 1.80964 8.54166 2.5 8.54166C3.19036 8.54166 3.75 9.10131 3.75 9.79166Z" fill="white"/>
<path d="M3.75 17.0833C3.75 17.7737 3.19036 18.3333 2.5 18.3333C1.80964 18.3333 1.25 17.7737 1.25 17.0833C1.25 16.393 1.80964 15.8333 2.5 15.8333C3.19036 15.8333 3.75 16.393 3.75 17.0833Z" fill="white"/>
</svg>
