<svg width="20" height="20" viewBox="0 0 20 20" fill="none" xmlns="http://www.w3.org/2000/svg">
<path fill-rule="evenodd" clip-rule="evenodd" d="M1.25 2.25C1.25 1.69772 1.69772 1.25 2.25 1.25H4C4.55228 1.25 5 1.69772 5 2.25V17.75C5 18.3023 4.55228 18.75 4 18.75H2.25C1.69772 18.75 1.25 18.3023 1.25 17.75V2.25ZM2.25 2.25H4V17.75H2.25L2.25 2.25Z" fill="white"/>
<path fill-rule="evenodd" clip-rule="evenodd" d="M7.5 2.25C7.5 1.69772 7.94772 1.25 8.5 1.25H17.75C18.3023 1.25 18.75 1.69772 18.75 2.25V4C18.75 4.55228 18.3023 5 17.75 5H8.5C7.94772 5 7.5 4.55228 7.5 4V2.25ZM8.5 2.25H17.75V4H8.5V2.25Z" fill="white"/>
<path fill-rule="evenodd" clip-rule="evenodd" d="M8.5 8.125C7.94772 8.125 7.5 8.57272 7.5 9.125V10.875C7.5 11.4273 7.94772 11.875 8.5 11.875H17.75C18.3023 11.875 18.75 11.4273 18.75 10.875V9.125C18.75 8.57272 18.3023 8.125 17.75 8.125H8.5ZM17.75 9.125H8.5V10.875H17.75V9.125Z" fill="white"/>
<path fill-rule="evenodd" clip-rule="evenodd" d="M7.5 16C7.5 15.4477 7.94772 15 8.5 15H17.75C18.3023 15 18.75 15.4477 18.75 16V17.75C18.75 18.3023 18.3023 18.75 17.75 18.75H8.5C7.94772 18.75 7.5 18.3023 7.5 17.75V16ZM8.5 16H17.75V17.75H8.5V16Z" fill="white"/>
</svg>
