<svg width="20" height="20" viewBox="0 0 20 20" fill="none" xmlns="http://www.w3.org/2000/svg">
<path fill-rule="evenodd" clip-rule="evenodd" d="M6.875 3.75C6.875 3.40482 7.15482 3.125 7.5 3.125H16.875C17.2202 3.125 17.5 3.40482 17.5 3.75C17.5 4.09518 17.2202 4.375 16.875 4.375H7.5C7.15482 4.375 6.875 4.09518 6.875 3.75Z" fill="white"/>
<path d="M5 3.75C5 4.44036 4.44036 5 3.75 5C3.05964 5 2.5 4.44036 2.5 3.75C2.5 3.05964 3.05964 2.5 3.75 2.5C4.44036 2.5 5 3.05964 5 3.75Z" fill="white"/>
<path fill-rule="evenodd" clip-rule="evenodd" d="M6.875 10C6.875 9.65482 7.15482 9.375 7.5 9.375H16.875C17.2202 9.375 17.5 9.65482 17.5 10C17.5 10.3452 17.2202 10.625 16.875 10.625H7.5C7.15482 10.625 6.875 10.3452 6.875 10Z" fill="white"/>
<path d="M5 10C5 10.6904 4.44036 11.25 3.75 11.25C3.05964 11.25 2.5 10.6904 2.5 10C2.5 9.30964 3.05964 8.75 3.75 8.75C4.44036 8.75 5 9.30964 5 10Z" fill="white"/>
<path fill-rule="evenodd" clip-rule="evenodd" d="M6.875 16.25C6.875 15.9048 7.15482 15.625 7.5 15.625H16.875C17.2202 15.625 17.5 15.9048 17.5 16.25C17.5 16.5952 17.2202 16.875 16.875 16.875H7.5C7.15482 16.875 6.875 16.5952 6.875 16.25Z" fill="white"/>
<path d="M5 16.25C5 16.9404 4.44036 17.5 3.75 17.5C3.05964 17.5 2.5 16.9404 2.5 16.25C2.5 15.5596 3.05964 15 3.75 15C4.44036 15 5 15.5596 5 16.25Z" fill="white"/>
</svg>
