<svg width="20" height="20" viewBox="0 0 20 20" fill="none" xmlns="http://www.w3.org/2000/svg">
<path fill-rule="evenodd" clip-rule="evenodd" d="M2.5 1.875C2.84518 1.875 3.125 2.15482 3.125 2.5V16.25C3.125 16.5952 3.40482 16.875 3.75 16.875H17.5C17.8452 16.875 18.125 17.1548 18.125 17.5C18.125 17.8452 17.8452 18.125 17.5 18.125H3.75C2.71447 18.125 1.875 17.2855 1.875 16.25V2.5C1.875 2.15482 2.15482 1.875 2.5 1.875ZM15 2.5C15 2.15482 15.2798 1.875 15.625 1.875H17.5C17.8452 1.875 18.125 2.15482 18.125 2.5V4.375C18.125 4.72018 17.8452 5 17.5 5C17.1548 5 16.875 4.72018 16.875 4.375V4.00888L6.06694 14.8169C5.82286 15.061 5.42714 15.061 5.18306 14.8169C4.93898 14.5729 4.93898 14.1771 5.18306 13.9331L15.9911 3.125H15.625C15.2798 3.125 15 2.84518 15 2.5Z" fill="white"/>
</svg>
