<svg width="20" height="20" viewBox="0 0 20 20" fill="none" xmlns="http://www.w3.org/2000/svg">
<path fill-rule="evenodd" clip-rule="evenodd" d="M2.9875 1.6877C2.26953 1.6877 1.6875 2.26973 1.6875 2.9877V4.5127C1.6875 5.23067 2.26953 5.8127 2.9875 5.8127H17.0125C17.7305 5.8127 18.3125 5.23067 18.3125 4.5127V2.9877C18.3125 2.26973 17.7305 1.6877 17.0125 1.6877H2.9875ZM2.6875 2.9877C2.6875 2.82201 2.82181 2.6877 2.9875 2.6877H17.0125C17.1782 2.6877 17.3125 2.82201 17.3125 2.9877V4.5127C17.3125 4.67838 17.1782 4.8127 17.0125 4.8127H2.9875C2.82181 4.8127 2.6875 4.67838 2.6875 4.5127V2.9877Z" fill="white"/>
<path fill-rule="evenodd" clip-rule="evenodd" d="M1.6875 9.2377C1.6875 8.51973 2.26953 7.9377 2.9875 7.9377H17.0125C17.7305 7.9377 18.3125 8.51973 18.3125 9.2377V10.7627C18.3125 11.4807 17.7305 12.0627 17.0125 12.0627H2.9875C2.26953 12.0627 1.6875 11.4807 1.6875 10.7627V9.2377ZM2.9875 8.9377C2.82181 8.9377 2.6875 9.07201 2.6875 9.2377V10.7627C2.6875 10.9284 2.82181 11.0627 2.9875 11.0627H17.0125C17.1782 11.0627 17.3125 10.9284 17.3125 10.7627V9.2377C17.3125 9.07201 17.1782 8.9377 17.0125 8.9377H2.9875Z" fill="white"/>
<path fill-rule="evenodd" clip-rule="evenodd" d="M1.6875 15.4877C1.6875 14.7697 2.26953 14.1877 2.9875 14.1877H17.0125C17.7305 14.1877 18.3125 14.7697 18.3125 15.4877V17.0127C18.3125 17.7307 17.7305 18.3127 17.0125 18.3127H2.9875C2.26953 18.3127 1.6875 17.7307 1.6875 17.0127V15.4877ZM2.9875 15.1877C2.82181 15.1877 2.6875 15.322 2.6875 15.4877V17.0127C2.6875 17.1784 2.82181 17.3127 2.9875 17.3127H17.0125C17.1782 17.3127 17.3125 17.1784 17.3125 17.0127V15.4877C17.3125 15.322 17.1782 15.1877 17.0125 15.1877H2.9875Z" fill="white"/>
</svg>
