<svg width="20" height="20" viewBox="0 0 20 20" fill="none" xmlns="http://www.w3.org/2000/svg">
<path fill-rule="evenodd" clip-rule="evenodd" d="M8.75 15.9375C8.57741 15.9375 8.4375 16.0774 8.4375 16.25V17.5C8.4375 17.6726 8.57741 17.8125 8.75 17.8125H17.5C17.6726 17.8125 17.8125 17.6726 17.8125 17.5V16.25C17.8125 16.0774 17.6726 15.9375 17.5 15.9375H8.75ZM8.75 9.0625C8.57741 9.0625 8.4375 9.20241 8.4375 9.375V10.625C8.4375 10.7976 8.57741 10.9375 8.75 10.9375H17.5C17.6726 10.9375 17.8125 10.7976 17.8125 10.625V9.375C17.8125 9.20241 17.6726 9.0625 17.5 9.0625H8.75ZM8.75 2.1875C8.57741 2.1875 8.4375 2.32741 8.4375 2.5V3.75C8.4375 3.92259 8.57741 4.0625 8.75 4.0625H17.5C17.6726 4.0625 17.8125 3.92259 17.8125 3.75V2.5C17.8125 2.32741 17.6726 2.1875 17.5 2.1875H8.75ZM3.75 2.1875H2.5C2.32741 2.1875 2.1875 2.32741 2.1875 2.5V17.5C2.1875 17.6726 2.32741 17.8125 2.5 17.8125H3.75C3.92259 17.8125 4.0625 17.6726 4.0625 17.5V2.5C4.0625 2.32741 3.92259 2.1875 3.75 2.1875ZM2.5 1.25C1.80964 1.25 1.25 1.80964 1.25 2.5V17.5C1.25 18.1904 1.80964 18.75 2.5 18.75H3.75C4.44036 18.75 5 18.1904 5 17.5V2.5C5 1.80964 4.44036 1.25 3.75 1.25H2.5ZM7.5 2.5C7.5 1.80964 8.05964 1.25 8.75 1.25H17.5C18.1904 1.25 18.75 1.80964 18.75 2.5V3.75C18.75 4.44036 18.1904 5 17.5 5H8.75C8.05964 5 7.5 4.44036 7.5 3.75V2.5ZM8.75 8.125C8.05964 8.125 7.5 8.68464 7.5 9.375V10.625C7.5 11.3154 8.05964 11.875 8.75 11.875H17.5C18.1904 11.875 18.75 11.3154 18.75 10.625V9.375C18.75 8.68464 18.1904 8.125 17.5 8.125H8.75ZM8.75 15C8.05964 15 7.5 15.5596 7.5 16.25V17.5C7.5 18.1904 8.05964 18.75 8.75 18.75H17.5C18.1904 18.75 18.75 18.1904 18.75 17.5V16.25C18.75 15.5596 18.1904 15 17.5 15H8.75Z" fill="white"/>
</svg>
