<svg width="20" height="20" viewBox="0 0 20 20" fill="none" xmlns="http://www.w3.org/2000/svg">
<path fill-rule="evenodd" clip-rule="evenodd" d="M2.5 9.0625C2.32741 9.0625 2.1875 9.20241 2.1875 9.375V10.625C2.1875 10.7976 2.32741 10.9375 2.5 10.9375H17.5C17.6726 10.9375 17.8125 10.7976 17.8125 10.625V9.375C17.8125 9.20241 17.6726 9.0625 17.5 9.0625H2.5ZM2.5 2.1875C2.32741 2.1875 2.1875 2.32741 2.1875 2.5V3.75C2.1875 3.92259 2.32741 4.0625 2.5 4.0625H17.5C17.6726 4.0625 17.8125 3.92259 17.8125 3.75V2.5C17.8125 2.32741 17.6726 2.1875 17.5 2.1875H2.5ZM2.5 15.9375C2.32741 15.9375 2.1875 16.0774 2.1875 16.25V17.5C2.1875 17.6726 2.32741 17.8125 2.5 17.8125H17.5C17.6726 17.8125 17.8125 17.6726 17.8125 17.5V16.25C17.8125 16.0774 17.6726 15.9375 17.5 15.9375H2.5ZM1.25 2.5C1.25 1.80964 1.80964 1.25 2.5 1.25H17.5C18.1904 1.25 18.75 1.80964 18.75 2.5V3.75C18.75 4.44036 18.1904 5 17.5 5H2.5C1.80964 5 1.25 4.44036 1.25 3.75V2.5ZM1.25 9.375C1.25 8.68464 1.80964 8.125 2.5 8.125H17.5C18.1904 8.125 18.75 8.68464 18.75 9.375V10.625C18.75 11.3154 18.1904 11.875 17.5 11.875H2.5C1.80964 11.875 1.25 11.3154 1.25 10.625V9.375ZM2.5 15C1.80964 15 1.25 15.5596 1.25 16.25V17.5C1.25 18.1904 1.80964 18.75 2.5 18.75H17.5C18.1904 18.75 18.75 18.1904 18.75 17.5V16.25C18.75 15.5596 18.1904 15 17.5 15H2.5Z" fill="white"/>
</svg>
