<svg width="20" height="20" viewBox="0 0 20 20" fill="none" xmlns="http://www.w3.org/2000/svg">
<path d="M2.375 1.875C2.375 1.59886 2.15114 1.375 1.875 1.375C1.59886 1.375 1.375 1.59886 1.375 1.875V17.125C1.375 17.9534 2.04657 18.625 2.875 18.625H18.125C18.4011 18.625 18.625 18.4011 18.625 18.125C18.625 17.8489 18.4011 17.625 18.125 17.625H2.875C2.59886 17.625 2.375 17.4011 2.375 17.125V1.875Z" fill="white"/>
<path d="M11.6343 2.58646C11.6343 2.8626 11.8581 3.08646 12.1343 3.08646H16.3988L4.94112 14.5441C4.74586 14.7394 4.74586 15.056 4.94112 15.2512C5.13639 15.4465 5.45297 15.4465 5.64823 15.2512L17.1059 3.79356V8.05812C17.1059 8.33426 17.3298 8.55812 17.6059 8.55812C17.8821 8.55812 18.1059 8.33426 18.1059 8.05812V2.58646C18.1059 2.31031 17.8821 2.08646 17.6059 2.08646H12.1343C11.8581 2.08646 11.6343 2.31031 11.6343 2.58646Z" fill="white"/>
</svg>
