<svg width="20" height="20" viewBox="0 0 20 20" fill="none" xmlns="http://www.w3.org/2000/svg">
<path d="M1.29053 9.99978C1.29053 9.85733 1.35101 9.72887 1.44794 9.63818L4.11645 6.99664C4.3127 6.80237 4.63089 6.80237 4.82714 6.99664C5.02339 7.1909 5.02339 7.50588 4.82714 7.70014L3.00656 9.50232L13.6984 9.50232C13.9759 9.50232 14.2009 9.72504 14.2009 9.99978C14.2009 10.2745 13.9759 10.4972 13.6984 10.4972L3.00606 10.4972L4.82714 12.2999C5.02339 12.4942 5.02339 12.8092 4.82714 13.0034C4.63089 13.1977 4.3127 13.1977 4.11645 13.0034L1.43774 10.3518C1.37412 10.2888 1.33112 10.2131 1.30875 10.133C1.29687 10.0906 1.29053 10.0459 1.29053 9.99978Z" fill="white"/>
<path d="M12.9918 2.375C12.7157 2.375 12.4918 2.15114 12.4918 1.875C12.4918 1.59886 12.7157 1.375 12.9918 1.375H18.0431C18.3192 1.375 18.5431 1.59886 18.5431 1.875L18.5431 18.125C18.5431 18.4011 18.3192 18.625 18.0431 18.625H12.9918C12.7157 18.625 12.4918 18.4011 12.4918 18.125C12.4918 17.8489 12.7157 17.625 12.9918 17.625H17.5431L17.5431 2.375H12.9918Z" fill="white"/>
</svg>
