<svg width="20" height="20" viewBox="0 0 20 20" fill="none" xmlns="http://www.w3.org/2000/svg">
<path d="M2.375 1.875C2.375 1.59886 2.15114 1.375 1.875 1.375C1.59886 1.375 1.375 1.59886 1.375 1.875V17.125C1.375 17.9534 2.04657 18.625 2.875 18.625H18.125C18.4011 18.625 18.625 18.4011 18.625 18.125C18.625 17.8489 18.4011 17.625 18.125 17.625H2.875C2.59886 17.625 2.375 17.4011 2.375 17.125V1.875Z" fill="white"/>
<path d="M14.6464 4.08335C14.4512 3.88809 14.4512 3.57151 14.6464 3.37624C14.8417 3.18098 15.1583 3.18098 15.3536 3.37624L18.4786 6.50124C18.6738 6.69651 18.6738 7.01309 18.4786 7.20835L15.3536 10.3334C15.1583 10.5286 14.8417 10.5286 14.6464 10.3334C14.4512 10.1381 14.4512 9.82151 14.6464 9.62624L17.0682 7.20454C16.8008 7.17311 16.4865 7.14174 16.1362 7.11668C14.9877 7.03452 13.4698 7.02151 11.9622 7.28847C10.4504 7.55617 8.99221 8.0977 7.91723 9.08982C6.85842 10.067 6.125 11.5236 6.125 13.7298C6.125 14.0059 5.90114 14.2298 5.625 14.2298C5.34886 14.2298 5.125 14.0059 5.125 13.7298C5.125 11.2744 5.95408 9.54086 7.23902 8.35496C8.50779 7.18398 10.1746 6.58946 11.7878 6.30379C13.4052 6.01739 15.0123 6.03372 16.2076 6.11923C16.3899 6.13227 16.563 6.14696 16.7256 6.16249L14.6464 4.08335Z" fill="white"/>
</svg>
