<svg width="20" height="20" viewBox="0 0 20 20" fill="none" xmlns="http://www.w3.org/2000/svg">
<path fill-rule="evenodd" clip-rule="evenodd" d="M11.823 18.2088C11.823 17.7718 12.1687 17.4176 12.5951 17.4176H16.4557L16.4557 2.58242H12.5951C12.1687 2.58242 11.823 2.22818 11.823 1.79121C11.823 1.35424 12.1687 1 12.5951 1L17.2278 1C17.6543 1 18 1.35424 18 1.79121L18 18.2088C18 18.6458 17.6543 19 17.2278 19H12.5951C12.1687 19 11.823 18.6458 11.823 18.2088Z" fill="#0091E4"/>
<path d="M14.6848 9.86725C14.6848 10.3042 14.3391 10.6585 13.9127 10.6585H4.63624L6.40664 12.4726C6.70818 12.7816 6.70817 13.2826 6.40662 13.5916C6.10506 13.9005 5.61616 13.9005 5.31462 13.5915L2.22615 10.4267C1.92462 10.1177 1.92462 9.61678 2.22615 9.3078L5.31462 6.14296C5.61616 5.83397 6.10506 5.83395 6.40662 6.14293C6.70817 6.45191 6.70818 6.95288 6.40664 7.26187L4.63624 9.07604H13.9127C14.3391 9.07604 14.6848 9.43028 14.6848 9.86725Z" fill="#0091E4"/>
</svg>
