<svg width="20" height="20" viewBox="0 0 20 20" fill="none" xmlns="http://www.w3.org/2000/svg">
<path fill-rule="evenodd" clip-rule="evenodd" d="M2.5 1.875C2.84518 1.875 3.125 2.15482 3.125 2.5V16.25C3.125 16.5952 3.40482 16.875 3.75 16.875H17.5C17.8452 16.875 18.125 17.1548 18.125 17.5C18.125 17.8452 17.8452 18.125 17.5 18.125H3.75C2.71447 18.125 1.875 17.2855 1.875 16.25V2.5C1.875 2.15482 2.15482 1.875 2.5 1.875ZM15.8081 5.80806C16.0521 5.56398 16.4479 5.56398 16.6919 5.80806L17.9419 7.05806C18.186 7.30214 18.186 7.69786 17.9419 7.94194L16.6919 9.19194C16.4479 9.43602 16.0521 9.43602 15.8081 9.19194C15.564 8.94786 15.564 8.55214 15.8081 8.30806L16.0592 8.05696C15.9297 8.0556 15.793 8.05536 15.65 8.05662C14.5642 8.06614 13.13 8.16167 11.7065 8.4988C10.2773 8.8373 8.90803 9.4079 7.90389 10.3328C6.92004 11.2389 6.25 12.5171 6.25 14.375C6.25 14.7202 5.97018 15 5.625 15C5.27982 15 5 14.7202 5 14.375C5 12.1704 5.81433 10.5579 7.05705 9.41333C8.27947 8.28741 9.87892 7.64708 11.4185 7.28245C12.9638 6.91645 14.4983 6.81667 15.639 6.80666C15.7362 6.80581 15.8306 6.80561 15.9221 6.80596L15.8081 6.69194C15.564 6.44786 15.564 6.05214 15.8081 5.80806Z" fill="white"/>
</svg>
