<svg width="20" height="20" viewBox="0 0 20 20" fill="none" xmlns="http://www.w3.org/2000/svg">
<path d="M12.5017 1.87523C12.5017 1.59909 12.2779 1.37523 12.0017 1.37523C11.7256 1.37523 11.5017 1.59909 11.5017 1.87523V4.17423C11.5017 4.45037 11.7256 4.67423 12.0017 4.67423C12.2779 4.67423 12.5017 4.45037 12.5017 4.17423V1.87523Z" fill="white"/>
<path d="M16.6851 4.02253C16.8803 3.82727 16.8803 3.51068 16.6851 3.31542C16.4898 3.12016 16.1732 3.12016 15.978 3.31542L14.3703 4.92305C14.1751 5.11832 14.1751 5.4349 14.3703 5.63016C14.5656 5.82542 14.8822 5.82542 15.0774 5.63016L16.6851 4.02253Z" fill="white"/>
<path d="M12.3642 8.3429C12.5595 8.14764 12.5595 7.83106 12.3642 7.6358C12.1689 7.44053 11.8524 7.44053 11.6571 7.6358L1.52145 17.7714C1.32618 17.9667 1.32618 18.2833 1.52145 18.4786C1.71671 18.6738 2.03329 18.6738 2.22855 18.4786L12.3642 8.3429Z" fill="white"/>
<path d="M14.3407 10.3343C14.5361 10.1393 14.8527 10.1396 15.0478 10.3351L16.6855 11.9761C16.8805 12.1715 16.8802 12.4881 16.6847 12.6832C16.4893 12.8783 16.1727 12.8779 15.9776 12.6825L14.3399 11.0414C14.1449 10.846 14.1452 10.5294 14.3407 10.3343Z" fill="white"/>
<path d="M8.02445 3.31542C7.82919 3.12016 7.51261 3.12016 7.31735 3.31542C7.12208 3.51068 7.12208 3.82727 7.31735 4.02253L8.93388 5.63907C9.12915 5.83433 9.44573 5.83433 9.64099 5.63907C9.83625 5.44381 9.83625 5.12722 9.64099 4.93196L8.02445 3.31542Z" fill="white"/>
<path d="M15.3494 7.99843C15.3494 7.72229 15.5732 7.49843 15.8494 7.49843H18.125C18.4011 7.49843 18.625 7.72229 18.625 7.99843C18.625 8.27457 18.4011 8.49843 18.125 8.49843H15.8494C15.5732 8.49843 15.3494 8.27457 15.3494 7.99843Z" fill="white"/>
<path d="M5.87866 7.49843C5.60252 7.49843 5.37866 7.72229 5.37866 7.99843C5.37866 8.27457 5.60252 8.49843 5.87866 8.49843H8.19548C8.47162 8.49843 8.69548 8.27457 8.69548 7.99843C8.69548 7.72229 8.47162 7.49843 8.19548 7.49843H5.87866Z" fill="white"/>
<path d="M12.0017 11.3504C12.2779 11.3504 12.5017 11.5743 12.5017 11.8504V14.1216C12.5017 14.3977 12.2779 14.6216 12.0017 14.6216C11.7256 14.6216 11.5017 14.3977 11.5017 14.1216V11.8504C11.5017 11.5743 11.7256 11.3504 12.0017 11.3504Z" fill="white"/>
</svg>
