<svg width="20" height="20" viewBox="0 0 20 20" fill="none" xmlns="http://www.w3.org/2000/svg">
<path fill-rule="evenodd" clip-rule="evenodd" d="M11.9367 1.29792C12.2049 1.22882 12.4796 1.38737 12.5501 1.65205L13.0888 3.67274C13.1593 3.93743 12.999 4.20801 12.7308 4.27711C12.4626 4.34622 12.1879 4.18767 12.1174 3.92298L11.5788 1.90229C11.5082 1.63761 11.6685 1.36703 11.9367 1.29792ZM15.2834 4.71745C15.0631 4.55095 15.021 4.24002 15.1894 4.02298L16.6554 2.13369C16.8238 1.91665 17.139 1.87568 17.3593 2.04218C17.5797 2.20868 17.6218 2.51961 17.4534 2.73665L15.9874 4.62594C15.819 4.84298 15.5038 4.88395 15.2834 4.71745Z" fill="white"/>
<path d="M16.1275 6.41531C16.1061 6.14253 16.3129 5.90467 16.5894 5.88403L18.9497 5.70786C19.2263 5.68722 19.4678 5.89161 19.4892 6.16439C19.5107 6.43716 19.3039 6.67502 19.0273 6.69566L16.667 6.87183C16.3905 6.89247 16.149 6.68808 16.1275 6.41531Z" fill="white"/>
<path d="M15.3925 8.23292C15.5803 8.03239 15.8979 8.02075 16.1019 8.20692L17.6596 9.6283C17.8637 9.81448 17.8769 10.128 17.6891 10.3285C17.5014 10.529 17.1838 10.5407 16.9797 10.3545L15.422 8.93313C15.218 8.74695 15.2048 8.43346 15.3925 8.23292Z" fill="white"/>
<path d="M8.22306 3.93735C8.37477 3.7091 8.68584 3.64649 8.91787 3.79752L10.4261 4.77926C10.6582 4.93029 10.7233 5.23775 10.5716 5.466C10.4199 5.69425 10.1088 5.75686 9.87675 5.60583L8.36848 4.62409C8.13645 4.47306 8.07135 4.1656 8.22306 3.93735Z" fill="white"/>
<path fill-rule="evenodd" clip-rule="evenodd" d="M14.1673 5.54285L14.4566 5.83222C15.0424 6.418 15.0424 7.36775 14.4566 7.95354L4.20358 18.2066C3.61779 18.7924 2.66804 18.7924 2.08226 18.2066L1.79289 17.9172C1.2071 17.3314 1.2071 16.3817 1.79289 15.7959L12.0459 5.54285C12.6317 4.95706 13.5815 4.95706 14.1673 5.54285ZM12.9298 6.42673C13.0274 6.3291 13.1857 6.3291 13.2834 6.42673L13.5727 6.7161C13.6704 6.81373 13.6704 6.97202 13.5727 7.06965L3.31969 17.3227C3.22206 17.4203 3.06377 17.4203 2.96614 17.3227L2.67677 17.0333C2.57914 16.9357 2.57914 16.7774 2.67677 16.6798L12.9298 6.42673Z" fill="white"/>
<path fill-rule="evenodd" clip-rule="evenodd" d="M14.1673 5.54285L14.4566 5.83222C15.0424 6.418 15.0424 7.36775 14.4566 7.95354L12.9148 9.4954C12.329 10.0812 11.3792 10.0812 10.7935 9.4954L10.5041 9.20603C9.9183 8.62024 9.9183 7.6705 10.5041 7.08471L12.0459 5.54285C12.6317 4.95706 13.5815 4.95706 14.1673 5.54285ZM12.9298 6.42673C13.0274 6.3291 13.1857 6.3291 13.2834 6.42673L13.5727 6.7161C13.6704 6.81373 13.6704 6.97202 13.5727 7.06965L12.0309 8.61152C11.9333 8.70915 11.775 8.70915 11.6773 8.61152L11.388 8.32215C11.2903 8.22452 11.2903 8.06623 11.388 7.96859L12.9298 6.42673Z" fill="white"/>
</svg>
