<svg width="22" height="22" viewBox="0 0 22 22" fill="none" xmlns="http://www.w3.org/2000/svg">
<path d="M5.22327 7.66178C5.22327 7.66178 7.58688 5.47329 9.55078 8.39628C10.273 9.47126 10.8145 10.3437 11.2747 11.1257C11.8003 10.2243 12.3792 9.275 13.0625 8.25C14.0121 6.82566 15.6726 6.93214 16.5 7.5625C16.8707 7.84493 16.933 8.25529 16.933 8.64092C16.4011 8.39628 14.9541 7.17221 13.8782 8.88576C13.062 10.1858 12.4555 11.2482 11.914 12.2404C12.6454 13.5434 13.273 14.733 14.3874 16.4745C15.5807 18.3392 17.1875 18.188 17.1875 18.188C17.1875 18.188 15.5039 21.01 12.4492 17.4536C11.6653 16.541 11.053 15.7036 10.5124 14.8562C10.0859 15.6452 9.61929 16.4836 9.04165 17.4536C7.56251 19.9375 5.9383 19.25 5.22328 18.5625C4.87179 18.2245 4.96873 17.2088 4.96873 17.2088C4.96873 17.2088 5.34517 17.7825 5.73241 17.9432C6.39689 18.219 7.11285 18.0327 7.5143 17.4536C8.39496 16.1833 9.10271 14.9637 9.81648 13.6974C9.19112 12.5966 8.60803 11.419 7.8672 9.99412C6.84899 8.0357 5.22327 7.66178 5.22327 7.66178Z" fill="white"/>
<path d="M4.81251 3.53196C4.81404 3.09854 5.16156 2.74845 5.58872 2.75001L16.4168 2.78947C16.844 2.79103 17.189 3.14365 17.1875 3.57707C17.186 4.01049 16.8384 4.36059 16.4113 4.35903L5.58316 4.31956C5.156 4.31801 4.81097 3.96539 4.81251 3.53196Z" fill="white"/>
</svg>
