<svg width="20" height="20" viewBox="0 0 20 20" fill="none" xmlns="http://www.w3.org/2000/svg">
<path d="M10.0088 19C9.79875 19 9.60216 18.963 9.41905 18.8889C9.23054 18.8095 9.06897 18.7037 8.93433 18.5714C8.7943 18.4338 8.68658 18.275 8.61118 18.0951C8.53039 17.9152 8.49 17.722 8.49 17.5156C8.49 17.304 8.53039 17.1082 8.61118 16.9282C8.68658 16.743 8.7943 16.5843 8.93433 16.452C9.06897 16.3144 9.23054 16.2059 9.41905 16.1265C9.60216 16.0471 9.79875 16.0074 10.0088 16.0074C10.2188 16.0074 10.4154 16.0471 10.5985 16.1265C10.7763 16.2059 10.9351 16.3144 11.0752 16.452C11.2098 16.5843 11.3175 16.743 11.3983 16.9282C11.4737 17.1082 11.5114 17.304 11.5114 17.5156C11.5114 17.722 11.4737 17.9152 11.3983 18.0951C11.3175 18.275 11.2098 18.4338 11.0752 18.5714C10.9351 18.7037 10.7763 18.8095 10.5985 18.8889C10.4154 18.963 10.2188 19 10.0088 19Z" fill="white"/>
<path d="M10.0088 11.4963C9.79875 11.4963 9.60216 11.4592 9.41905 11.3852C9.23054 11.3058 9.06897 11.1999 8.93433 11.0676C8.7943 10.93 8.68658 10.7713 8.61118 10.5914C8.53039 10.4114 8.49 10.2183 8.49 10.0119C8.49 9.80023 8.53039 9.60443 8.61118 9.42451C8.68658 9.23929 8.7943 9.08054 8.93433 8.94824C9.06897 8.81065 9.23054 8.70217 9.41905 8.62279C9.60216 8.54341 9.79875 8.50372 10.0088 8.50372C10.2188 8.50372 10.4154 8.54341 10.5985 8.62279C10.7763 8.70217 10.9351 8.81065 11.0752 8.94824C11.2098 9.08054 11.3175 9.23929 11.3983 9.42451C11.4737 9.60443 11.5114 9.80023 11.5114 10.0119C11.5114 10.2183 11.4737 10.4114 11.3983 10.5914C11.3175 10.7713 11.2098 10.93 11.0752 11.0676C10.9351 11.1999 10.7763 11.3058 10.5985 11.3852C10.4154 11.4592 10.2188 11.4963 10.0088 11.4963Z" fill="white"/>
<path d="M10.0088 3.99256C9.79875 3.99256 9.60216 3.95552 9.41905 3.88143C9.23054 3.80205 9.06897 3.69621 8.93433 3.56391C8.7943 3.42633 8.68658 3.26757 8.61118 3.08765C8.53039 2.90772 8.49 2.71457 8.49 2.50819C8.49 2.29651 8.53039 2.10071 8.61118 1.92079C8.68658 1.73557 8.7943 1.57682 8.93433 1.44452C9.06897 1.30693 9.23054 1.19845 9.41905 1.11907C9.60216 1.03969 9.79875 1 10.0088 1C10.2188 1 10.4154 1.03969 10.5985 1.11907C10.7763 1.19845 10.9351 1.30693 11.0752 1.44452C11.2098 1.57682 11.3175 1.73557 11.3983 1.92079C11.4737 2.10071 11.5114 2.29651 11.5114 2.50819C11.5114 2.71457 11.4737 2.90772 11.3983 3.08765C11.3175 3.26757 11.2098 3.42633 11.0752 3.56391C10.9351 3.69621 10.7763 3.80205 10.5985 3.88143C10.4154 3.95552 10.2188 3.99256 10.0088 3.99256Z" fill="white"/>
</svg>
