<svg width="20" height="20" viewBox="0 0 20 20" fill="none" xmlns="http://www.w3.org/2000/svg">
<path d="M12.1875 3.4375C12.1875 4.64562 11.2081 5.625 10 5.625C8.79188 5.625 7.8125 4.64562 7.8125 3.4375C7.8125 2.22938 8.79188 1.25 10 1.25C11.2081 1.25 12.1875 2.22938 12.1875 3.4375Z" fill="white"/>
<path d="M12.1875 10C12.1875 11.2081 11.2081 12.1875 10 12.1875C8.79188 12.1875 7.8125 11.2081 7.8125 10C7.8125 8.79188 8.79188 7.8125 10 7.8125C11.2081 7.8125 12.1875 8.79188 12.1875 10Z" fill="white"/>
<path d="M10 18.75C11.2081 18.75 12.1875 17.7706 12.1875 16.5625C12.1875 15.3544 11.2081 14.375 10 14.375C8.79188 14.375 7.8125 15.3544 7.8125 16.5625C7.8125 17.7706 8.79188 18.75 10 18.75Z" fill="white"/>
</svg>
