<svg width="20" height="20" viewBox="0 0 20 20" fill="none" xmlns="http://www.w3.org/2000/svg">
<path d="M8.19711 8.46005C8.47325 8.46005 8.69711 8.23619 8.69711 7.96005V4.95079C8.69711 4.67465 8.47325 4.45079 8.19711 4.45079C7.92097 4.45079 7.69711 4.67465 7.69711 4.95079V6.75168L2.54131 1.58824C2.3462 1.39284 2.02962 1.3926 1.83421 1.58772C1.6388 1.78284 1.63857 2.09942 1.83369 2.29483L6.99126 7.46005H5.1923C4.91616 7.46005 4.6923 7.68391 4.6923 7.96005C4.6923 8.23619 4.91616 8.46005 5.1923 8.46005H8.19711Z" fill="white"/>
<path d="M11.8031 8.46007C11.5269 8.46007 11.3031 8.23622 11.3031 7.96007V4.95082C11.3031 4.67467 11.5269 4.45082 11.8031 4.45082C12.0792 4.45082 12.3031 4.67467 12.3031 4.95082V6.7517L17.4589 1.58827C17.654 1.39286 17.9706 1.39263 18.166 1.58774C18.3614 1.78286 18.3616 2.09944 18.1665 2.29485L13.0089 7.46007H14.8079C15.084 7.46007 15.3079 7.68393 15.3079 7.96007C15.3079 8.23622 15.084 8.46007 14.8079 8.46007H11.8031Z" fill="white"/>
<path d="M11.8031 11.6732C11.5269 11.6732 11.3031 11.897 11.3031 12.1732V15.1824C11.3031 15.4586 11.5269 15.6824 11.8031 15.6824C12.0792 15.6824 12.3031 15.4586 12.3031 15.1824V13.3815L17.4589 18.545C17.654 18.7404 17.9706 18.7406 18.166 18.5455C18.3614 18.3504 18.3616 18.0338 18.1665 17.8384L13.0089 12.6732H14.8079C15.084 12.6732 15.3079 12.4493 15.3079 12.1732C15.3079 11.897 15.084 11.6732 14.8079 11.6732H11.8031Z" fill="white"/>
<path d="M8.69711 12.1732C8.69711 11.897 8.47325 11.6732 8.19711 11.6732H5.1923C4.91616 11.6732 4.6923 11.897 4.6923 12.1732C4.6923 12.4493 4.91616 12.6732 5.1923 12.6732H6.99126L1.83368 17.8384C1.63857 18.0338 1.6388 18.3504 1.83421 18.5455C2.02962 18.7406 2.3462 18.7404 2.54132 18.545L7.69711 13.3815V15.1824C7.69711 15.4586 7.92097 15.6824 8.19711 15.6824C8.47325 15.6824 8.69711 15.4586 8.69711 15.1824V12.1732Z" fill="white"/>
</svg>
