<svg width="20" height="20" viewBox="0 0 20 20" fill="none" xmlns="http://www.w3.org/2000/svg">
<path fill-rule="evenodd" clip-rule="evenodd" d="M11.0174 11.8589C11.0174 11.4112 11.3819 11.0482 11.8314 11.0482H14.7384C15.1879 11.0482 15.5523 11.4112 15.5523 11.8589C15.5523 12.3066 15.1879 12.6696 14.7384 12.6696H13.7965L18.5116 17.366C18.8295 17.6826 18.8295 18.1959 18.5116 18.5125C18.1937 18.8292 17.6784 18.8292 17.3605 18.5125L12.6453 13.8161V14.7543C12.6453 15.2021 12.2809 15.565 11.8314 15.565C11.3819 15.565 11.0174 15.2021 11.0174 14.7543V11.8589ZM6.20354 12.6695H5.26163C4.81209 12.6695 4.44767 12.3066 4.44767 11.8588C4.44767 11.4111 4.81209 11.0481 5.26163 11.0481H8.1686C8.61814 11.0481 8.98256 11.4111 8.98256 11.8588V14.7542C8.98256 15.202 8.61814 15.565 8.1686 15.565C7.71907 15.565 7.35465 15.202 7.35465 14.7542V13.8161L2.63951 18.5125C2.32164 18.8291 1.80627 18.8291 1.4884 18.5125C1.17053 18.1959 1.17053 17.6826 1.4884 17.3659L6.20354 12.6695ZM18.5116 1.48753C18.8295 1.80413 18.8295 2.31745 18.5116 2.63405L13.7965 7.33044H14.7384C15.1879 7.33044 15.5523 7.69342 15.5523 8.14116C15.5523 8.58891 15.1879 8.95188 14.7384 8.95188H11.8314C11.3819 8.95188 11.0174 8.58891 11.0174 8.14116V5.24574C11.0174 4.798 11.3819 4.43503 11.8314 4.43503C12.2809 4.43503 12.6453 4.798 12.6453 5.24574V6.18392L17.3605 1.48753C17.6784 1.17092 18.1937 1.17092 18.5116 1.48753ZM1.4884 1.48745C1.80627 1.17085 2.32164 1.17085 2.63951 1.48745L7.35465 6.18384V5.24567C7.35465 4.79792 7.71907 4.43495 8.1686 4.43495C8.61814 4.43495 8.98256 4.79792 8.98256 5.24567V8.14107C8.98256 8.58882 8.61814 8.95179 8.1686 8.95179H5.26163C4.81209 8.95179 4.44767 8.58882 4.44767 8.14107C4.44767 7.69333 4.81209 7.33036 5.26163 7.33036H6.20355L1.4884 2.63398C1.17053 2.31737 1.17053 1.80406 1.4884 1.48745Z" fill="#0091E4"/>
</svg>
