<svg width="20" height="20" viewBox="0 0 20 20" fill="none" xmlns="http://www.w3.org/2000/svg">
<path fill-rule="evenodd" clip-rule="evenodd" d="M1 10.0038C1.00057 9.60009 1.32829 9.27269 1.73198 9.27252L18.2701 9.26557C18.6738 9.2654 19.0006 9.59253 19 9.99622C18.9994 10.3999 18.6717 10.7273 18.268 10.7275L1.72994 10.7344C1.32624 10.7346 0.999435 10.4075 1 10.0038Z" fill="#0091E4"/>
<path fill-rule="evenodd" clip-rule="evenodd" d="M10.0125 19C9.60882 19.0013 9.2811 18.6751 9.28054 18.2714L9.25746 1.73331C9.2569 1.32962 9.5837 1.0013 9.9874 1C10.3911 0.998705 10.7188 1.32491 10.7194 1.72861L10.7425 18.2667C10.743 18.6704 10.4162 18.9987 10.0125 19Z" fill="#0091E4"/>
</svg>
