<svg width="20" height="20" viewBox="0 0 20 20" fill="none" xmlns="http://www.w3.org/2000/svg">
<path fill-rule="evenodd" clip-rule="evenodd" d="M6.25 14.0625L13.75 14.0625C13.9226 14.0625 14.0625 13.9226 14.0625 13.75L14.0625 6.25C14.0625 6.07741 13.9226 5.9375 13.75 5.9375L6.25 5.9375C6.07741 5.9375 5.9375 6.07741 5.9375 6.25L5.9375 13.75C5.9375 13.9226 6.07741 14.0625 6.25 14.0625ZM13.75 15C14.4404 15 15 14.4404 15 13.75L15 6.25C15 5.55964 14.4404 5 13.75 5L6.25 5C5.55964 5 5 5.55964 5 6.25L5 13.75C5 14.4404 5.55964 15 6.25 15H13.75Z" fill="white"/>
<path fill-rule="evenodd" clip-rule="evenodd" d="M3.125 2.1875C3.03323 2.1875 2.94506 2.20059 2.86198 2.22481C2.69629 2.27312 2.52281 2.17796 2.47451 2.01226C2.4262 1.84657 2.52136 1.67309 2.68706 1.62479C2.82638 1.58417 2.97343 1.5625 3.125 1.5625H3.62234C3.79493 1.5625 3.93484 1.70241 3.93484 1.875C3.93484 2.04759 3.79493 2.1875 3.62234 2.1875H3.125ZM5.06516 1.875C5.06516 1.70241 5.20507 1.5625 5.37766 1.5625H6.37234C6.54493 1.5625 6.68484 1.70241 6.68484 1.875C6.68484 2.04759 6.54493 2.1875 6.37234 2.1875H5.37766C5.20507 2.1875 5.06516 2.04759 5.06516 1.875ZM7.81516 1.875C7.81516 1.70241 7.95507 1.5625 8.12766 1.5625H9.12234C9.29493 1.5625 9.43484 1.70241 9.43484 1.875C9.43484 2.04759 9.29493 2.1875 9.12234 2.1875H8.12766C7.95507 2.1875 7.81516 2.04759 7.81516 1.875ZM10.5652 1.875C10.5652 1.70241 10.7051 1.5625 10.8777 1.5625H11.8723C12.0449 1.5625 12.1848 1.70241 12.1848 1.875C12.1848 2.04759 12.0449 2.1875 11.8723 2.1875H10.8777C10.7051 2.1875 10.5652 2.04759 10.5652 1.875ZM13.3152 1.875C13.3152 1.70241 13.4551 1.5625 13.6277 1.5625H14.6223C14.7949 1.5625 14.9348 1.70241 14.9348 1.875C14.9348 2.04759 14.7949 2.1875 14.6223 2.1875H13.6277C13.4551 2.1875 13.3152 2.04759 13.3152 1.875ZM16.0652 1.875C16.0652 1.70241 16.2051 1.5625 16.3777 1.5625H16.875C17.0266 1.5625 17.1736 1.58417 17.3129 1.62479C17.4786 1.67309 17.5738 1.84657 17.5255 2.01226C17.4772 2.17796 17.3037 2.27312 17.138 2.22481C17.0549 2.20059 16.9668 2.1875 16.875 2.1875H16.3777C16.2051 2.1875 16.0652 2.04759 16.0652 1.875ZM2.01226 2.47451C2.17796 2.52281 2.27312 2.69629 2.22481 2.86198C2.20059 2.94506 2.1875 3.03323 2.1875 3.125V3.62234C2.1875 3.79493 2.04759 3.93484 1.875 3.93484C1.70241 3.93484 1.5625 3.79493 1.5625 3.62234V3.125C1.5625 2.97343 1.58417 2.82638 1.62479 2.68706C1.67309 2.52136 1.84657 2.4262 2.01226 2.47451ZM17.9877 2.47451C18.1534 2.4262 18.3269 2.52136 18.3752 2.68706C18.4158 2.82638 18.4375 2.97343 18.4375 3.125V3.62234C18.4375 3.79493 18.2976 3.93484 18.125 3.93484C17.9524 3.93484 17.8125 3.79493 17.8125 3.62234V3.125C17.8125 3.03323 17.7994 2.94506 17.7752 2.86198C17.7269 2.69629 17.822 2.52281 17.9877 2.47451ZM1.875 5.06516C2.04759 5.06516 2.1875 5.20507 2.1875 5.37766V6.37234C2.1875 6.54493 2.04759 6.68484 1.875 6.68484C1.70241 6.68484 1.5625 6.54493 1.5625 6.37234V5.37766C1.5625 5.20507 1.70241 5.06516 1.875 5.06516ZM18.125 5.06516C18.2976 5.06516 18.4375 5.20507 18.4375 5.37766V6.37234C18.4375 6.54493 18.2976 6.68484 18.125 6.68484C17.9524 6.68484 17.8125 6.54493 17.8125 6.37234V5.37766C17.8125 5.20507 17.9524 5.06516 18.125 5.06516ZM1.875 7.81516C2.04759 7.81516 2.1875 7.95507 2.1875 8.12766V9.12234C2.1875 9.29493 2.04759 9.43484 1.875 9.43484C1.70241 9.43484 1.5625 9.29493 1.5625 9.12234V8.12766C1.5625 7.95507 1.70241 7.81516 1.875 7.81516ZM18.125 7.81516C18.2976 7.81516 18.4375 7.95507 18.4375 8.12766V9.12234C18.4375 9.29493 18.2976 9.43484 18.125 9.43484C17.9524 9.43484 17.8125 9.29493 17.8125 9.12234V8.12766C17.8125 7.95507 17.9524 7.81516 18.125 7.81516ZM1.875 10.5652C2.04759 10.5652 2.1875 10.7051 2.1875 10.8777V11.8723C2.1875 12.0449 2.04759 12.1848 1.875 12.1848C1.70241 12.1848 1.5625 12.0449 1.5625 11.8723V10.8777C1.5625 10.7051 1.70241 10.5652 1.875 10.5652ZM18.125 10.5652C18.2976 10.5652 18.4375 10.7051 18.4375 10.8777V11.8723C18.4375 12.0449 18.2976 12.1848 18.125 12.1848C17.9524 12.1848 17.8125 12.0449 17.8125 11.8723V10.8777C17.8125 10.7051 17.9524 10.5652 18.125 10.5652ZM1.875 13.3152C2.04759 13.3152 2.1875 13.4551 2.1875 13.6277V14.6223C2.1875 14.7949 2.04759 14.9348 1.875 14.9348C1.70241 14.9348 1.5625 14.7949 1.5625 14.6223V13.6277C1.5625 13.4551 1.70241 13.3152 1.875 13.3152ZM18.125 13.3152C18.2976 13.3152 18.4375 13.4551 18.4375 13.6277V14.6223C18.4375 14.7949 18.2976 14.9348 18.125 14.9348C17.9524 14.9348 17.8125 14.7949 17.8125 14.6223V13.6277C17.8125 13.4551 17.9524 13.3152 18.125 13.3152ZM1.875 16.0652C2.04759 16.0652 2.1875 16.2051 2.1875 16.3777V16.875C2.1875 16.9668 2.20059 17.0549 2.22481 17.138C2.27312 17.3037 2.17796 17.4772 2.01226 17.5255C1.84657 17.5738 1.67309 17.4786 1.62479 17.3129C1.58417 17.1736 1.5625 17.0266 1.5625 16.875V16.3777C1.5625 16.2051 1.70241 16.0652 1.875 16.0652ZM18.125 16.0652C18.2976 16.0652 18.4375 16.2051 18.4375 16.3777V16.875C18.4375 17.0266 18.4158 17.1736 18.3752 17.3129C18.3269 17.4786 18.1534 17.5738 17.9877 17.5255C17.822 17.4772 17.7269 17.3037 17.7752 17.138C17.7994 17.0549 17.8125 16.9668 17.8125 16.875V16.3777C17.8125 16.2051 17.9524 16.0652 18.125 16.0652ZM2.47451 17.9877C2.52281 17.822 2.69629 17.7269 2.86198 17.7752C2.94506 17.7994 3.03323 17.8125 3.125 17.8125H3.62234C3.79493 17.8125 3.93484 17.9524 3.93484 18.125C3.93484 18.2976 3.79493 18.4375 3.62234 18.4375H3.125C2.97343 18.4375 2.82638 18.4158 2.68706 18.3752C2.52136 18.3269 2.4262 18.1534 2.47451 17.9877ZM17.5255 17.9877C17.5738 18.1534 17.4786 18.3269 17.3129 18.3752C17.1736 18.4158 17.0266 18.4375 16.875 18.4375H16.3777C16.2051 18.4375 16.0652 18.2976 16.0652 18.125C16.0652 17.9524 16.2051 17.8125 16.3777 17.8125H16.875C16.9668 17.8125 17.0549 17.7994 17.138 17.7752C17.3037 17.7269 17.4772 17.822 17.5255 17.9877ZM5.06516 18.125C5.06516 17.9524 5.20507 17.8125 5.37766 17.8125H6.37234C6.54493 17.8125 6.68484 17.9524 6.68484 18.125C6.68484 18.2976 6.54493 18.4375 6.37234 18.4375H5.37766C5.20507 18.4375 5.06516 18.2976 5.06516 18.125ZM7.81516 18.125C7.81516 17.9524 7.95507 17.8125 8.12766 17.8125H9.12234C9.29493 17.8125 9.43484 17.9524 9.43484 18.125C9.43484 18.2976 9.29493 18.4375 9.12234 18.4375H8.12766C7.95507 18.4375 7.81516 18.2976 7.81516 18.125ZM10.5652 18.125C10.5652 17.9524 10.7051 17.8125 10.8777 17.8125H11.8723C12.0449 17.8125 12.1848 17.9524 12.1848 18.125C12.1848 18.2976 12.0449 18.4375 11.8723 18.4375H10.8777C10.7051 18.4375 10.5652 18.2976 10.5652 18.125ZM13.3152 18.125C13.3152 17.9524 13.4551 17.8125 13.6277 17.8125H14.6223C14.7949 17.8125 14.9348 17.9524 14.9348 18.125C14.9348 18.2976 14.7949 18.4375 14.6223 18.4375H13.6277C13.4551 18.4375 13.3152 18.2976 13.3152 18.125Z" fill="white"/>
</svg>
