<svg width="20" height="20" viewBox="0 0 20 20" fill="none" xmlns="http://www.w3.org/2000/svg">
<path d="M9.41207 6.3652C9.60733 6.16993 9.92392 6.16993 10.1192 6.3652L12.1504 8.39645C12.3457 8.59171 12.3457 8.90829 12.1504 9.10355L10.1192 11.1348C9.92392 11.3301 9.60733 11.3301 9.41207 11.1348C9.21681 10.9395 9.21681 10.623 9.41207 10.4277L10.5898 9.25H5.70312C5.42698 9.25 5.20312 9.02614 5.20312 8.75C5.20312 8.47386 5.42698 8.25 5.70312 8.25H10.5898L9.41207 7.0723C9.21681 6.87704 9.21681 6.56046 9.41207 6.3652Z" fill="white"/>
<path fill-rule="evenodd" clip-rule="evenodd" d="M1.375 2.875C1.375 2.04657 2.04657 1.375 2.875 1.375H14.625C15.4534 1.375 16.125 2.04657 16.125 2.875V3.875H17.125C17.9534 3.875 18.625 4.54657 18.625 5.375V17.125C18.625 17.9534 17.9534 18.625 17.125 18.625H5.375C4.54657 18.625 3.875 17.9534 3.875 17.125V16.125H2.875C2.04657 16.125 1.375 15.4534 1.375 14.625V2.875ZM4.875 16.125V17.125C4.875 17.4011 5.09886 17.625 5.375 17.625H17.125C17.4011 17.625 17.625 17.4011 17.625 17.125V5.375C17.625 5.09886 17.4011 4.875 17.125 4.875H16.125V14.625C16.125 15.4534 15.4534 16.125 14.625 16.125H4.875ZM15.125 14.625C15.125 14.9011 14.9011 15.125 14.625 15.125H2.875C2.59886 15.125 2.375 14.9011 2.375 14.625V2.875C2.375 2.59886 2.59886 2.375 2.875 2.375H14.625C14.9011 2.375 15.125 2.59886 15.125 2.875V14.625Z" fill="white"/>
</svg>
