<svg width="20" height="20" viewBox="0 0 20 20" fill="none" xmlns="http://www.w3.org/2000/svg">
<path d="M2.27548 1.86931C2.36356 1.83279 2.46035 1.8125 2.5625 1.8125H3.09375C3.23182 1.8125 3.34375 1.70057 3.34375 1.5625C3.34375 1.42443 3.23182 1.3125 3.09375 1.3125H2.5625C2.39347 1.3125 2.23168 1.34619 2.08395 1.40745C1.95641 1.46034 1.89589 1.6066 1.94878 1.73414C2.00167 1.86168 2.14794 1.9222 2.27548 1.86931Z" fill="white"/>
<path d="M4.15625 1.3125C4.01818 1.3125 3.90625 1.42443 3.90625 1.5625C3.90625 1.70057 4.01818 1.8125 4.15625 1.8125H5.21875C5.35682 1.8125 5.46875 1.70057 5.46875 1.5625C5.46875 1.42443 5.35682 1.3125 5.21875 1.3125H4.15625Z" fill="white"/>
<path d="M6.28125 1.3125C6.14318 1.3125 6.03125 1.42443 6.03125 1.5625C6.03125 1.70057 6.14318 1.8125 6.28125 1.8125H7.34375C7.48182 1.8125 7.59375 1.70057 7.59375 1.5625C7.59375 1.42443 7.48182 1.3125 7.34375 1.3125H6.28125Z" fill="white"/>
<path d="M8.40625 1.3125C8.26818 1.3125 8.15625 1.42443 8.15625 1.5625C8.15625 1.70057 8.26818 1.8125 8.40625 1.8125H9.46875C9.60682 1.8125 9.71875 1.70057 9.71875 1.5625C9.71875 1.42443 9.60682 1.3125 9.46875 1.3125H8.40625Z" fill="white"/>
<path d="M10.5312 1.3125C10.3932 1.3125 10.2812 1.42443 10.2812 1.5625C10.2812 1.70057 10.3932 1.8125 10.5312 1.8125H11.5938C11.7318 1.8125 11.8438 1.70057 11.8438 1.5625C11.8438 1.42443 11.7318 1.3125 11.5938 1.3125H10.5312Z" fill="white"/>
<path d="M12.6562 1.3125C12.5182 1.3125 12.4062 1.42443 12.4062 1.5625C12.4062 1.70057 12.5182 1.8125 12.6562 1.8125H13.7188C13.8568 1.8125 13.9688 1.70057 13.9688 1.5625C13.9688 1.42443 13.8568 1.3125 13.7188 1.3125H12.6562Z" fill="white"/>
<path d="M14.7813 1.3125C14.6432 1.3125 14.5313 1.42443 14.5313 1.5625C14.5313 1.70057 14.6432 1.8125 14.7813 1.8125H15.8438C15.9818 1.8125 16.0938 1.70057 16.0938 1.5625C16.0938 1.42443 15.9818 1.3125 15.8438 1.3125H14.7813Z" fill="white"/>
<path d="M16.9063 1.3125C16.7682 1.3125 16.6563 1.42443 16.6563 1.5625C16.6563 1.70057 16.7682 1.8125 16.9063 1.8125H17.4375C17.5397 1.8125 17.6364 1.83279 17.7245 1.86931C17.8521 1.9222 17.9983 1.86168 18.0512 1.73414C18.1041 1.6066 18.0436 1.46034 17.9161 1.40745C17.7683 1.34619 17.6065 1.3125 17.4375 1.3125H16.9063Z" fill="white"/>
<path d="M1.86931 2.27548C1.9222 2.14794 1.86168 2.00167 1.73414 1.94878C1.6066 1.89589 1.46034 1.95641 1.40745 2.08395C1.34619 2.23168 1.3125 2.39347 1.3125 2.5625V3.09375C1.3125 3.23182 1.42443 3.34375 1.5625 3.34375C1.70057 3.34375 1.8125 3.23182 1.8125 3.09375V2.5625C1.8125 2.46035 1.83279 2.36356 1.86931 2.27548Z" fill="white"/>
<path d="M18.5926 2.08395C18.5397 1.95641 18.3934 1.89589 18.2659 1.94878C18.1383 2.00167 18.0778 2.14794 18.1307 2.27548C18.1672 2.36356 18.1875 2.46035 18.1875 2.5625V3.09375C18.1875 3.23182 18.2994 3.34375 18.4375 3.34375C18.5756 3.34375 18.6875 3.23182 18.6875 3.09375V2.5625C18.6875 2.39347 18.6538 2.23168 18.5926 2.08395Z" fill="white"/>
<path d="M1.8125 4.15625C1.8125 4.01818 1.70057 3.90625 1.5625 3.90625C1.42443 3.90625 1.3125 4.01818 1.3125 4.15625V5.21875C1.3125 5.35682 1.42443 5.46875 1.5625 5.46875C1.70057 5.46875 1.8125 5.35682 1.8125 5.21875V4.15625Z" fill="white"/>
<path d="M18.6875 4.15625C18.6875 4.01818 18.5756 3.90625 18.4375 3.90625C18.2994 3.90625 18.1875 4.01818 18.1875 4.15625V5.21875C18.1875 5.35682 18.2994 5.46875 18.4375 5.46875C18.5756 5.46875 18.6875 5.35682 18.6875 5.21875V4.15625Z" fill="white"/>
<path d="M1.8125 6.28125C1.8125 6.14318 1.70057 6.03125 1.5625 6.03125C1.42443 6.03125 1.3125 6.14318 1.3125 6.28125V7.34375C1.3125 7.48182 1.42443 7.59375 1.5625 7.59375C1.70057 7.59375 1.8125 7.48182 1.8125 7.34375V6.28125Z" fill="white"/>
<path d="M18.6875 6.28125C18.6875 6.14318 18.5756 6.03125 18.4375 6.03125C18.2994 6.03125 18.1875 6.14318 18.1875 6.28125V7.34375C18.1875 7.48182 18.2994 7.59375 18.4375 7.59375C18.5756 7.59375 18.6875 7.48182 18.6875 7.34375V6.28125Z" fill="white"/>
<path d="M1.8125 8.40625C1.8125 8.26818 1.70057 8.15625 1.5625 8.15625C1.42443 8.15625 1.3125 8.26818 1.3125 8.40625V9.46875C1.3125 9.60682 1.42443 9.71875 1.5625 9.71875C1.70057 9.71875 1.8125 9.60682 1.8125 9.46875V8.40625Z" fill="white"/>
<path d="M18.6875 8.40625C18.6875 8.26818 18.5756 8.15625 18.4375 8.15625C18.2994 8.15625 18.1875 8.26818 18.1875 8.40625V9.46875C18.1875 9.60682 18.2994 9.71875 18.4375 9.71875C18.5756 9.71875 18.6875 9.60682 18.6875 9.46875V8.40625Z" fill="white"/>
<path d="M1.8125 10.5312C1.8125 10.3932 1.70057 10.2812 1.5625 10.2812C1.42443 10.2812 1.3125 10.3932 1.3125 10.5312V11.5938C1.3125 11.7318 1.42443 11.8438 1.5625 11.8438C1.70057 11.8438 1.8125 11.7318 1.8125 11.5938V10.5312Z" fill="white"/>
<path d="M18.6875 10.5312C18.6875 10.3932 18.5756 10.2812 18.4375 10.2812C18.2994 10.2812 18.1875 10.3932 18.1875 10.5312V11.5938C18.1875 11.7318 18.2994 11.8438 18.4375 11.8438C18.5756 11.8438 18.6875 11.7318 18.6875 11.5938V10.5312Z" fill="white"/>
<path d="M1.8125 12.6562C1.8125 12.5182 1.70057 12.4062 1.5625 12.4062C1.42443 12.4062 1.3125 12.5182 1.3125 12.6562V13.7188C1.3125 13.8568 1.42443 13.9688 1.5625 13.9688C1.70057 13.9688 1.8125 13.8568 1.8125 13.7188V12.6562Z" fill="white"/>
<path d="M18.6875 12.6562C18.6875 12.5182 18.5756 12.4062 18.4375 12.4062C18.2994 12.4062 18.1875 12.5182 18.1875 12.6562V13.7188C18.1875 13.8568 18.2994 13.9688 18.4375 13.9688C18.5756 13.9688 18.6875 13.8568 18.6875 13.7188V12.6562Z" fill="white"/>
<path d="M1.8125 14.7812C1.8125 14.6432 1.70057 14.5312 1.5625 14.5312C1.42443 14.5312 1.3125 14.6432 1.3125 14.7812V15.8438C1.3125 15.9818 1.42443 16.0938 1.5625 16.0938C1.70057 16.0938 1.8125 15.9818 1.8125 15.8438V14.7812Z" fill="white"/>
<path d="M18.6875 14.7813C18.6875 14.6432 18.5756 14.5313 18.4375 14.5313C18.2994 14.5313 18.1875 14.6432 18.1875 14.7813V15.8438C18.1875 15.9818 18.2994 16.0938 18.4375 16.0938C18.5756 16.0938 18.6875 15.9818 18.6875 15.8438V14.7813Z" fill="white"/>
<path d="M1.8125 16.9062C1.8125 16.7682 1.70057 16.6562 1.5625 16.6562C1.42443 16.6562 1.3125 16.7682 1.3125 16.9062V17.4375C1.3125 17.6065 1.34619 17.7683 1.40745 17.9161C1.46034 18.0436 1.6066 18.1041 1.73414 18.0512C1.86168 17.9983 1.9222 17.8521 1.86931 17.7245C1.83279 17.6364 1.8125 17.5397 1.8125 17.4375V16.9062Z" fill="white"/>
<path d="M18.6875 16.9063C18.6875 16.7682 18.5756 16.6563 18.4375 16.6563C18.2994 16.6563 18.1875 16.7682 18.1875 16.9063V17.4375C18.1875 17.5397 18.1672 17.6364 18.1307 17.7245C18.0778 17.8521 18.1383 17.9983 18.2659 18.0512C18.3934 18.1041 18.5397 18.0436 18.5926 17.9161C18.6538 17.7683 18.6875 17.6065 18.6875 17.4375V16.9063Z" fill="white"/>
<path d="M2.27548 18.1307C2.14794 18.0778 2.00167 18.1383 1.94878 18.2659C1.89589 18.3934 1.95641 18.5397 2.08395 18.5926C2.23168 18.6538 2.39347 18.6875 2.5625 18.6875H3.09375C3.23182 18.6875 3.34375 18.5756 3.34375 18.4375C3.34375 18.2994 3.23182 18.1875 3.09375 18.1875H2.5625C2.46035 18.1875 2.36356 18.1672 2.27548 18.1307Z" fill="white"/>
<path d="M17.9161 18.5926C18.0436 18.5397 18.1041 18.3934 18.0512 18.2659C17.9983 18.1383 17.8521 18.0778 17.7245 18.1307C17.6364 18.1672 17.5397 18.1875 17.4375 18.1875H16.9062C16.7682 18.1875 16.6562 18.2994 16.6562 18.4375C16.6562 18.5756 16.7682 18.6875 16.9062 18.6875H17.4375C17.6065 18.6875 17.7683 18.6538 17.9161 18.5926Z" fill="white"/>
<path d="M4.15625 18.1875C4.01818 18.1875 3.90625 18.2994 3.90625 18.4375C3.90625 18.5756 4.01818 18.6875 4.15625 18.6875H5.21875C5.35682 18.6875 5.46875 18.5756 5.46875 18.4375C5.46875 18.2994 5.35682 18.1875 5.21875 18.1875H4.15625Z" fill="white"/>
<path d="M6.28125 18.1875C6.14318 18.1875 6.03125 18.2994 6.03125 18.4375C6.03125 18.5756 6.14318 18.6875 6.28125 18.6875H7.34375C7.48182 18.6875 7.59375 18.5756 7.59375 18.4375C7.59375 18.2994 7.48182 18.1875 7.34375 18.1875H6.28125Z" fill="white"/>
<path d="M8.40625 18.1875C8.26818 18.1875 8.15625 18.2994 8.15625 18.4375C8.15625 18.5756 8.26818 18.6875 8.40625 18.6875H9.46875C9.60682 18.6875 9.71875 18.5756 9.71875 18.4375C9.71875 18.2994 9.60682 18.1875 9.46875 18.1875H8.40625Z" fill="white"/>
<path d="M10.5312 18.1875C10.3932 18.1875 10.2812 18.2994 10.2812 18.4375C10.2812 18.5756 10.3932 18.6875 10.5312 18.6875H11.5938C11.7318 18.6875 11.8438 18.5756 11.8438 18.4375C11.8438 18.2994 11.7318 18.1875 11.5938 18.1875H10.5312Z" fill="white"/>
<path d="M12.6562 18.1875C12.5182 18.1875 12.4062 18.2994 12.4062 18.4375C12.4062 18.5756 12.5182 18.6875 12.6562 18.6875H13.7188C13.8568 18.6875 13.9688 18.5756 13.9688 18.4375C13.9688 18.2994 13.8568 18.1875 13.7188 18.1875H12.6562Z" fill="white"/>
<path d="M14.7812 18.1875C14.6432 18.1875 14.5312 18.2994 14.5312 18.4375C14.5312 18.5756 14.6432 18.6875 14.7812 18.6875H15.8438C15.9818 18.6875 16.0938 18.5756 16.0938 18.4375C16.0938 18.2994 15.9818 18.1875 15.8438 18.1875H14.7812Z" fill="white"/>
<path fill-rule="evenodd" clip-rule="evenodd" d="M6.625 5.125C5.79657 5.125 5.125 5.79657 5.125 6.625V13.375C5.125 14.2034 5.79657 14.875 6.625 14.875H13.375C14.2034 14.875 14.875 14.2034 14.875 13.375V6.625C14.875 5.79657 14.2034 5.125 13.375 5.125H6.625ZM6.125 6.625C6.125 6.34886 6.34886 6.125 6.625 6.125H13.375C13.6511 6.125 13.875 6.34886 13.875 6.625V13.375C13.875 13.6511 13.6511 13.875 13.375 13.875H6.625C6.34886 13.875 6.125 13.6511 6.125 13.375V6.625Z" fill="white"/>
</svg>
