<svg width="20" height="20" viewBox="0 0 20 20" fill="none" xmlns="http://www.w3.org/2000/svg">
<path fill-rule="evenodd" clip-rule="evenodd" d="M10.5 3.125C10.5 2.84886 10.2761 2.625 10 2.625C9.72386 2.625 9.5 2.84886 9.5 3.125V9.5H3.125C2.84886 9.5 2.625 9.72386 2.625 10C2.625 10.2761 2.84886 10.5 3.125 10.5H9.5V16.875C9.5 17.1511 9.72386 17.375 10 17.375C10.2761 17.375 10.5 17.1511 10.5 16.875V10.5H16.875C17.1511 10.5 17.375 10.2761 17.375 10C17.375 9.72386 17.1511 9.5 16.875 9.5H10.5V3.125Z" fill="white"/>
</svg>
