<svg width="20" height="20" viewBox="0 0 20 20" fill="none" xmlns="http://www.w3.org/2000/svg">
<path d="M6.25 9.5C5.97386 9.5 5.75 9.72386 5.75 10C5.75 10.2761 5.97386 10.5 6.25 10.5H13.75C14.0261 10.5 14.25 10.2761 14.25 10C14.25 9.72386 14.0261 9.5 13.75 9.5H6.25Z" fill="white"/>
<path fill-rule="evenodd" clip-rule="evenodd" d="M10 1.375C5.23654 1.375 1.375 5.23654 1.375 10C1.375 14.7635 5.23654 18.625 10 18.625C14.7635 18.625 18.625 14.7635 18.625 10C18.625 5.23654 14.7635 1.375 10 1.375ZM2.375 10C2.375 5.78883 5.78883 2.375 10 2.375C14.2112 2.375 17.625 5.78883 17.625 10C17.625 14.2112 14.2112 17.625 10 17.625C5.78883 17.625 2.375 14.2112 2.375 10Z" fill="white"/>
</svg>
