<svg width="20" height="21" viewBox="0 0 20 21" fill="none" xmlns="http://www.w3.org/2000/svg">
<path fill-rule="evenodd" clip-rule="evenodd" d="M10 18.5C14.4183 18.5 18 14.9183 18 10.5C18 6.08172 14.4183 2.5 10 2.5C5.58172 2.5 2 6.08172 2 10.5C2 14.9183 5.58172 18.5 10 18.5ZM10 19.25C14.8325 19.25 18.75 15.3325 18.75 10.5C18.75 5.66751 14.8325 1.75 10 1.75C5.16751 1.75 1.25 5.66751 1.25 10.5C1.25 15.3325 5.16751 19.25 10 19.25Z" fill="white"/>
<path fill-rule="evenodd" clip-rule="evenodd" d="M6 10.5C6 10.2239 6.22386 10 6.5 10H13.5C13.7761 10 14 10.2239 14 10.5C14 10.7761 13.7761 11 13.5 11H6.5C6.22386 11 6 10.7761 6 10.5Z" fill="white"/>
</svg>
