<svg width="20" height="20" viewBox="0 0 20 20" fill="none" xmlns="http://www.w3.org/2000/svg">
<path fill-rule="evenodd" clip-rule="evenodd" d="M6.82285 14.2187C6.56396 14.2187 6.3541 14.0089 6.3541 13.75L6.35409 7.61966C6.35409 7.36078 6.56396 7.15091 6.82284 7.15091C7.08173 7.15091 7.29159 7.36078 7.29159 7.61966L7.2916 13.75C7.2916 14.0089 7.08173 14.2187 6.82285 14.2187Z" fill="white"/>
<path fill-rule="evenodd" clip-rule="evenodd" d="M4.70828 14.2187C4.4494 14.2187 4.23953 14.0089 4.23953 13.75L4.23953 8.49542C4.23953 8.23654 4.4494 8.02667 4.70828 8.02667C4.96717 8.02667 5.17703 8.23654 5.17703 8.49542L5.17703 13.75C5.17703 14.0089 4.96717 14.2187 4.70828 14.2187Z" fill="white"/>
<path fill-rule="evenodd" clip-rule="evenodd" d="M2.59375 14.2187C2.33487 14.2187 2.125 14.0089 2.125 13.75L2.125 10.247C2.125 9.98807 2.33487 9.7782 2.59375 9.7782C2.85263 9.7782 3.0625 9.98807 3.0625 10.247L3.0625 13.75C3.0625 14.0089 2.85263 14.2187 2.59375 14.2187Z" fill="white"/>
<path fill-rule="evenodd" clip-rule="evenodd" d="M8.93739 14.2187C8.67851 14.2187 8.46864 14.0089 8.46864 13.75L8.46864 4.99238C8.46864 4.73349 8.67851 4.52363 8.93739 4.52363C9.19628 4.52363 9.40614 4.73349 9.40614 4.99238L9.40614 13.75C9.40614 14.0089 9.19628 14.2187 8.93739 14.2187Z" fill="white"/>
<path fill-rule="evenodd" clip-rule="evenodd" d="M11.0519 14.2187C10.793 14.2187 10.5832 14.0089 10.5832 13.75L10.5832 8.49542C10.5832 8.23654 10.793 8.02667 11.0519 8.02667C11.3108 8.02667 11.5207 8.23654 11.5207 8.49542L11.5207 13.75C11.5207 14.0089 11.3108 14.2187 11.0519 14.2187Z" fill="white"/>
<path fill-rule="evenodd" clip-rule="evenodd" d="M13.1665 14.2187C12.9076 14.2187 12.6977 14.0089 12.6977 13.75L12.6977 6.7439C12.6977 6.48502 12.9076 6.27515 13.1665 6.27515C13.4253 6.27515 13.6352 6.48502 13.6352 6.7439L13.6352 13.75C13.6352 14.0089 13.4253 14.2187 13.1665 14.2187Z" fill="white"/>
<path fill-rule="evenodd" clip-rule="evenodd" d="M15.281 14.2187C15.0222 14.2187 14.8123 14.0089 14.8123 13.75L14.8123 9.37119C14.8123 9.1123 15.0222 8.90244 15.281 8.90244C15.5399 8.90244 15.7498 9.1123 15.7498 9.37119L15.7498 13.75C15.7498 14.0089 15.5399 14.2187 15.281 14.2187Z" fill="white"/>
<path fill-rule="evenodd" clip-rule="evenodd" d="M17.3955 14.2187C17.1367 14.2187 16.9268 14.0089 16.9268 13.75L16.9268 9.37119C16.9268 9.1123 17.1367 8.90244 17.3955 8.90244C17.6544 8.90244 17.8643 9.1123 17.8643 9.37119L17.8643 13.75C17.8643 14.0089 17.6544 14.2187 17.3955 14.2187Z" fill="white"/>
</svg>
