<svg width="20" height="20" viewBox="0 0 20 20" fill="none" xmlns="http://www.w3.org/2000/svg">
<path fill-rule="evenodd" clip-rule="evenodd" d="M2.74561 8.33928C3.02175 8.33928 3.24561 8.56314 3.24561 8.83928V18.125C3.24561 18.4011 3.02175 18.625 2.74561 18.625C2.46946 18.625 2.24561 18.4011 2.24561 18.125V8.83928C2.24561 8.56314 2.46946 8.33928 2.74561 8.33928Z" fill="white"/>
<path fill-rule="evenodd" clip-rule="evenodd" d="M6.80811 3.69642C7.08425 3.69642 7.30811 3.92028 7.30811 4.19642L7.30811 18.125C7.30811 18.4011 7.08425 18.625 6.80811 18.625C6.53196 18.625 6.30811 18.4011 6.30811 18.125L6.30811 4.19642C6.30811 3.92028 6.53196 3.69642 6.80811 3.69642Z" fill="white"/>
<path fill-rule="evenodd" clip-rule="evenodd" d="M13.7724 8.91964C14.0486 8.91964 14.2724 9.1435 14.2724 9.41964L14.2724 18.125C14.2724 18.4011 14.0486 18.625 13.7724 18.625C13.4963 18.625 13.2724 18.4011 13.2724 18.125L13.2724 9.41964C13.2724 9.1435 13.4963 8.91964 13.7724 8.91964Z" fill="white"/>
<path fill-rule="evenodd" clip-rule="evenodd" d="M17.2545 6.01786C17.5307 6.01786 17.7545 6.24172 17.7545 6.51786V18.125C17.7545 18.4011 17.5307 18.625 17.2545 18.625C16.9784 18.625 16.7545 18.4011 16.7545 18.125V6.51786C16.7545 6.24172 16.9784 6.01786 17.2545 6.01786Z" fill="white"/>
<path fill-rule="evenodd" clip-rule="evenodd" d="M10.2902 1.375C10.5664 1.375 10.7902 1.59886 10.7902 1.875V18.125C10.7902 18.4011 10.5664 18.625 10.2902 18.625C10.0141 18.625 9.79023 18.4011 9.79023 18.125V1.875C9.79023 1.59886 10.0141 1.375 10.2902 1.375Z" fill="white"/>
</svg>
