<svg width="20" height="21" viewBox="0 0 20 21" fill="none" xmlns="http://www.w3.org/2000/svg">
<path d="M8.36166 14.0789L6.56355 12.2808C6.36829 12.0855 6.36829 11.769 6.56355 11.5737C6.75881 11.3784 7.0754 11.3784 7.27066 11.5737L9.92231 14.2253C10.1176 14.4206 10.1176 14.7372 9.92231 14.9324L7.27066 17.5841C7.07539 17.7794 6.75881 17.7794 6.56355 17.5841C6.36829 17.3888 6.36829 17.0723 6.56355 16.877L8.36163 15.0789H2.02417C1.74803 15.0789 1.52417 14.855 1.52417 14.5789C1.52417 14.3028 1.74803 14.0789 2.02417 14.0789H8.36166Z" fill="white"/>
<path fill-rule="evenodd" clip-rule="evenodd" d="M2.02423 10.1235C1.74809 10.1235 1.52423 9.89968 1.52423 9.62354L1.52423 2.74853C1.52423 2.47239 1.74809 2.24853 2.02423 2.24853L18.1252 2.24853C18.4014 2.24853 18.6252 2.47239 18.6252 2.74853L18.6252 18.9985C18.6252 19.1311 18.5726 19.2583 18.4788 19.3521C18.385 19.4459 18.2578 19.4985 18.1252 19.4985L11.25 19.4985C10.9738 19.4985 10.75 19.2747 10.75 18.9985C10.75 18.7224 10.9738 18.4985 11.25 18.4985L17.6252 18.4985L17.6252 3.24853L2.52423 3.24854L2.52423 9.62354C2.52423 9.89968 2.30037 10.1235 2.02423 10.1235Z" fill="white"/>
</svg>
