<svg width="20" height="20" viewBox="0 0 20 20" fill="none" xmlns="http://www.w3.org/2000/svg">
<path d="M1.44951 8.75C1.44951 9.02614 1.67336 9.25 1.94951 9.25C2.22565 9.25 2.44951 9.02614 2.44951 8.75V2.375L17.5505 2.375V17.625L11.1752 17.625C10.8991 17.625 10.6752 17.8489 10.6752 18.125C10.6752 18.4011 10.8991 18.625 11.1752 18.625H18.0505C18.1831 18.625 18.3103 18.5723 18.4041 18.4786C18.4978 18.3848 18.5505 18.2576 18.5505 18.125V1.875C18.5505 1.59886 18.3267 1.375 18.0505 1.375H1.94951C1.67337 1.375 1.44951 1.59886 1.44951 1.875L1.44951 8.75Z" fill="white"/>
<path d="M6.48878 10.7002C6.68404 10.505 7.00062 10.505 7.19588 10.7002L9.83735 13.3417C9.9338 13.4328 9.99399 13.562 9.99399 13.7051C9.99399 13.7212 9.99323 13.7373 9.9917 13.7533C9.98102 13.8649 9.93297 13.9735 9.84754 14.059L7.19588 16.7106C7.00062 16.9059 6.68404 16.9059 6.48878 16.7106C6.29351 16.5154 6.29351 16.1988 6.48878 16.0035L8.28716 14.2051H1.94946C1.67332 14.2051 1.44946 13.9813 1.44946 13.7051C1.44946 13.429 1.67332 13.2051 1.94946 13.2051H8.28659L6.48878 11.4073C6.29351 11.2121 6.29351 10.8955 6.48878 10.7002Z" fill="white"/>
</svg>
