<svg width="20" height="20" viewBox="0 0 20 20" fill="none" xmlns="http://www.w3.org/2000/svg">
<path fill-rule="evenodd" clip-rule="evenodd" d="M6.20354 12.6695H5.26163C4.81209 12.6695 4.44767 12.3066 4.44767 11.8588C4.44767 11.4111 4.81209 11.0481 5.26163 11.0481H8.1686C8.61814 11.0481 8.98256 11.4111 8.98256 11.8588V14.7542C8.98256 15.202 8.61814 15.565 8.1686 15.565C7.71907 15.565 7.35465 15.202 7.35465 14.7542V13.8161L2.63951 18.5125C2.32164 18.8291 1.80627 18.8291 1.4884 18.5125C1.17053 18.1959 1.17053 17.6826 1.4884 17.3659L6.20354 12.6695Z" fill="#0091E4"/>
<path fill-rule="evenodd" clip-rule="evenodd" d="M1.25 2.04545C1.25 1.60614 1.60614 1.25 2.04545 1.25H17.9545C18.3939 1.25 18.75 1.60614 18.75 2.04545V17.9545C18.75 18.3939 18.3939 18.75 17.9545 18.75H10.6629C10.2236 18.75 9.86742 18.3939 9.86742 17.9545C9.86742 17.5152 10.2236 17.1591 10.6629 17.1591H17.1591V2.84091H2.84091V9.33712C2.84091 9.77644 2.48477 10.1326 2.04545 10.1326C1.60614 10.1326 1.25 9.77644 1.25 9.33712V2.04545Z" fill="#0091E4"/>
</svg>
