<svg width="20" height="20" viewBox="0 0 20 20" fill="none" xmlns="http://www.w3.org/2000/svg">
<path d="M1.44946 10C1.44946 10.2761 1.67332 10.5 1.94946 10.5C2.22561 10.5 2.44946 10.2761 2.44946 10L2.44946 2.375L17.5505 2.375V17.625H9.92519C9.64905 17.625 9.42519 17.8489 9.42519 18.125C9.42519 18.4011 9.64905 18.625 9.92519 18.625H18.0505C18.1831 18.625 18.3103 18.5723 18.404 18.4786C18.4978 18.3848 18.5505 18.2576 18.5505 18.125V1.875C18.5505 1.59886 18.3266 1.375 18.0505 1.375H1.94946C1.67332 1.375 1.44946 1.59886 1.44946 1.875V10Z" fill="white"/>
<path d="M8.55302 11.5215C8.60096 11.5695 8.63712 11.6247 8.66152 11.6837C8.68562 11.7419 8.69824 11.8038 8.69938 11.8658L8.69946 11.8761V15.6251C8.69946 15.9012 8.47561 16.1251 8.19946 16.1251C7.92332 16.1251 7.69946 15.9012 7.69946 15.6251V13.0822L2.30302 18.4786C2.10775 18.6739 1.79117 18.6739 1.59591 18.4786C1.40065 18.2834 1.40065 17.9668 1.59591 17.7715L6.99236 12.3751H4.44946C4.17332 12.3751 3.94946 12.1512 3.94946 11.8751C3.94946 11.5989 4.17332 11.3751 4.44946 11.3751H8.19897C8.20697 11.3751 8.21546 11.3753 8.22345 11.3756C8.28053 11.3784 8.33723 11.3908 8.39085 11.413C8.44983 11.4374 8.50508 11.4736 8.55302 11.5215Z" fill="white"/>
</svg>
