<svg width="20" height="20" viewBox="0 0 20 20" fill="none" xmlns="http://www.w3.org/2000/svg">
<path fill-rule="evenodd" clip-rule="evenodd" d="M5.625 4.375C5.625 5.14323 5.16298 5.80355 4.50165 6.09326L5.15163 10.006C6.11625 10.0832 6.875 10.8905 6.875 11.875C6.875 12.9105 6.03553 13.75 5 13.75C3.96447 13.75 3.125 12.9105 3.125 11.875C3.125 11.1378 3.5504 10.5 4.1691 10.1937L3.51149 6.23497C2.58857 6.1178 1.875 5.32973 1.875 4.375C1.875 3.33947 2.71447 2.5 3.75 2.5C4.78553 2.5 5.625 3.33947 5.625 4.375ZM3.75 5.25C4.23325 5.25 4.625 4.85825 4.625 4.375C4.625 3.89175 4.23325 3.5 3.75 3.5C3.26675 3.5 2.875 3.89175 2.875 4.375C2.875 4.85825 3.26675 5.25 3.75 5.25ZM5 12.75C5.48325 12.75 5.875 12.3582 5.875 11.875C5.875 11.3918 5.48325 11 5 11C4.51675 11 4.125 11.3918 4.125 11.875C4.125 12.3582 4.51675 12.75 5 12.75Z" fill="white"/>
<path fill-rule="evenodd" clip-rule="evenodd" d="M9.66461 8.51218C9.39406 8.66365 9.08211 8.75 8.75 8.75C7.71447 8.75 6.875 7.91053 6.875 6.875C6.875 5.83947 7.71447 5 8.75 5C9.78553 5 10.625 5.83947 10.625 6.875C10.625 7.2152 10.5344 7.53425 10.376 7.80931L11.5718 8.99549C11.8455 8.83927 12.1623 8.75 12.5 8.75C12.743 8.75 12.9752 8.79622 13.1883 8.88036L14.7681 6.7739C14.5217 6.45653 14.375 6.0579 14.375 5.625C14.375 4.58947 15.2145 3.75 16.25 3.75C17.2855 3.75 18.125 4.58947 18.125 5.625C18.125 6.66053 17.2855 7.5 16.25 7.5C16.0098 7.5 15.7802 7.45484 15.5691 7.37255L13.9868 9.4824C14.2302 9.79873 14.375 10.195 14.375 10.625C14.375 11.6605 13.5355 12.5 12.5 12.5C11.4645 12.5 10.625 11.6605 10.625 10.625C10.625 10.2903 10.7127 9.97617 10.8663 9.70419L9.66461 8.51218ZM9.28733 7.56563C9.13903 7.68117 8.95255 7.75 8.75 7.75C8.26675 7.75 7.875 7.35825 7.875 6.875C7.875 6.39175 8.26675 6 8.75 6C9.23325 6 9.625 6.39175 9.625 6.875C9.625 7.08344 9.55212 7.27485 9.43045 7.42515C9.40088 7.44432 9.37291 7.46692 9.34708 7.49295C9.32453 7.51568 9.30462 7.54004 9.28733 7.56563ZM11.7358 10.1985C11.6652 10.3247 11.625 10.4702 11.625 10.625C11.625 11.1082 12.0168 11.5 12.5 11.5C12.9832 11.5 13.375 11.1082 13.375 10.625C13.375 10.388 13.2808 10.173 13.1277 10.0154C13.087 9.99935 13.0477 9.97762 13.011 9.95008C12.9734 9.92185 12.9408 9.88934 12.9136 9.85373C12.7904 9.78754 12.6496 9.75 12.5 9.75C12.3442 9.75 12.1979 9.79072 12.0712 9.8621C12.0485 9.93873 12.007 10.011 11.9468 10.0717C11.8859 10.1331 11.8131 10.1753 11.7358 10.1985ZM15.8891 6.42232C15.9991 6.47222 16.1213 6.5 16.25 6.5C16.7332 6.5 17.125 6.10825 17.125 5.625C17.125 5.14175 16.7332 4.75 16.25 4.75C15.7668 4.75 15.375 5.14175 15.375 5.625C15.375 5.84448 15.4558 6.04509 15.5893 6.1987C15.6499 6.21466 15.7086 6.24236 15.7618 6.2823C15.8143 6.3217 15.8569 6.36945 15.8891 6.42232Z" fill="white"/>
<path fill-rule="evenodd" clip-rule="evenodd" d="M16.25 15C17.2855 15 18.125 14.1605 18.125 13.125C18.125 12.0895 17.2855 11.25 16.25 11.25C15.2145 11.25 14.375 12.0895 14.375 13.125C14.375 14.1605 15.2145 15 16.25 15ZM16.25 14C16.7332 14 17.125 13.6082 17.125 13.125C17.125 12.6418 16.7332 12.25 16.25 12.25C15.7668 12.25 15.375 12.6418 15.375 13.125C15.375 13.6082 15.7668 14 16.25 14Z" fill="white"/>
<path fill-rule="evenodd" clip-rule="evenodd" d="M13.125 15.625C13.125 16.6605 12.2855 17.5 11.25 17.5C10.2145 17.5 9.375 16.6605 9.375 15.625C9.375 14.5895 10.2145 13.75 11.25 13.75C12.2855 13.75 13.125 14.5895 13.125 15.625ZM12.125 15.625C12.125 16.1082 11.7332 16.5 11.25 16.5C10.7668 16.5 10.375 16.1082 10.375 15.625C10.375 15.1418 10.7668 14.75 11.25 14.75C11.7332 14.75 12.125 15.1418 12.125 15.625Z" fill="white"/>
</svg>
