<svg width="20" height="20" viewBox="0 0 20 20" fill="none" xmlns="http://www.w3.org/2000/svg">
<path fill-rule="evenodd" clip-rule="evenodd" d="M2.96154 3.30769C2.60043 3.30769 2.30769 3.60043 2.30769 3.96154C2.30769 4.32265 2.60043 4.61538 2.96154 4.61538C3.32265 4.61538 3.61538 4.32265 3.61538 3.96154C3.61538 3.60043 3.32265 3.30769 2.96154 3.30769ZM1 3.96154C1 2.87821 1.87821 2 2.96154 2C4.04487 2 4.92308 2.87821 4.92308 3.96154C4.92308 5.04487 4.04487 5.92308 2.96154 5.92308C1.87821 5.92308 1 5.04487 1 3.96154Z" fill="white"/>
<path fill-rule="evenodd" clip-rule="evenodd" d="M8.19231 5.92317C7.8312 5.92317 7.53847 6.21591 7.53847 6.57702C7.53847 6.93813 7.8312 7.23086 8.19231 7.23086C8.55342 7.23086 8.84616 6.93813 8.84616 6.57702C8.84616 6.21591 8.55342 5.92317 8.19231 5.92317ZM6.23077 6.57702C6.23077 5.49369 7.10898 4.61548 8.19231 4.61548C9.27564 4.61548 10.1539 5.49369 10.1539 6.57702C10.1539 7.66034 9.27564 8.53856 8.19231 8.53856C7.10898 8.53856 6.23077 7.66034 6.23077 6.57702Z" fill="white"/>
<path fill-rule="evenodd" clip-rule="evenodd" d="M4.26922 11.1539C3.90811 11.1539 3.61537 11.4466 3.61537 11.8077C3.61537 12.1688 3.90811 12.4616 4.26922 12.4616C4.63033 12.4616 4.92306 12.1688 4.92306 11.8077C4.92306 11.4466 4.63033 11.1539 4.26922 11.1539ZM2.30768 11.8077C2.30768 10.7244 3.18589 9.84619 4.26922 9.84619C5.35254 9.84619 6.23076 10.7244 6.23076 11.8077C6.23076 12.8911 5.35254 13.7693 4.26922 13.7693C3.18589 13.7693 2.30768 12.8911 2.30768 11.8077Z" fill="white"/>
<path fill-rule="evenodd" clip-rule="evenodd" d="M12.1154 9.84627C11.7543 9.84627 11.4615 10.139 11.4615 10.5001C11.4615 10.8612 11.7543 11.154 12.1154 11.154C12.4765 11.154 12.7692 10.8612 12.7692 10.5001C12.7692 10.139 12.4765 9.84627 12.1154 9.84627ZM10.1538 10.5001C10.1538 9.41678 11.032 8.53857 12.1154 8.53857C13.1987 8.53857 14.0769 9.41678 14.0769 10.5001C14.0769 11.5834 13.1987 12.4617 12.1154 12.4617C11.032 12.4617 10.1538 11.5834 10.1538 10.5001Z" fill="white"/>
<path fill-rule="evenodd" clip-rule="evenodd" d="M10.8077 15.077C10.4466 15.077 10.1539 15.3697 10.1539 15.7308C10.1539 16.0919 10.4466 16.3847 10.8077 16.3847C11.1688 16.3847 11.4615 16.0919 11.4615 15.7308C11.4615 15.3697 11.1688 15.077 10.8077 15.077ZM8.84616 15.7308C8.84616 14.6475 9.72437 13.7693 10.8077 13.7693C11.891 13.7693 12.7692 14.6475 12.7692 15.7308C12.7692 16.8142 11.891 17.6924 10.8077 17.6924C9.72437 17.6924 8.84616 16.8142 8.84616 15.7308Z" fill="white"/>
<path fill-rule="evenodd" clip-rule="evenodd" d="M16.0385 12.4615C15.6774 12.4615 15.3846 12.7542 15.3846 13.1153C15.3846 13.4765 15.6774 13.7692 16.0385 13.7692C16.3996 13.7692 16.6923 13.4765 16.6923 13.1153C16.6923 12.7542 16.3996 12.4615 16.0385 12.4615ZM14.0769 13.1153C14.0769 12.032 14.9551 11.1538 16.0385 11.1538C17.1218 11.1538 18 12.032 18 13.1153C18 14.1987 17.1218 15.0769 16.0385 15.0769C14.9551 15.0769 14.0769 14.1987 14.0769 13.1153Z" fill="white"/>
<path fill-rule="evenodd" clip-rule="evenodd" d="M16.0385 4.61531C15.6774 4.61531 15.3846 4.90805 15.3846 5.26916C15.3846 5.63026 15.6774 5.923 16.0385 5.923C16.3996 5.923 16.6923 5.63026 16.6923 5.26916C16.6923 4.90805 16.3996 4.61531 16.0385 4.61531ZM14.0769 5.26916C14.0769 4.18583 14.9551 3.30762 16.0385 3.30762C17.1218 3.30762 18 4.18583 18 5.26916C18 6.35248 17.1218 7.23069 16.0385 7.23069C14.9551 7.23069 14.0769 6.35248 14.0769 5.26916Z" fill="white"/>
<path fill-rule="evenodd" clip-rule="evenodd" d="M10.8077 10.5L8.1923 7.88464L9.11697 6.95996L11.7324 9.57535L10.8077 10.5Z" fill="white"/>
<path fill-rule="evenodd" clip-rule="evenodd" d="M3.63492 10.6585L2.32722 5.42776L3.59587 5.1106L4.90356 10.3414L3.63492 10.6585Z" fill="white"/>
<path fill-rule="evenodd" clip-rule="evenodd" d="M12.1154 9.19233L14.7308 5.26925L15.8188 5.99463L13.2035 9.91771L12.1154 9.19233Z" fill="white"/>
</svg>
