<svg width="20" height="20" viewBox="0 0 20 20" fill="none" xmlns="http://www.w3.org/2000/svg">
<path fill-rule="evenodd" clip-rule="evenodd" d="M11.125 2.125C11.125 2.54141 10.8988 2.90498 10.5625 3.0995V7.49023C11.7121 7.74678 12.5714 8.77302 12.5714 9.99995C12.5714 11.2269 11.7121 12.2531 10.5625 12.5097V16.9005C10.8988 17.095 11.125 17.4586 11.125 17.875C11.125 18.4963 10.6213 19 10 19C9.3787 19 8.87502 18.4963 8.87502 17.875C8.87502 17.4586 9.10126 17.095 9.43752 16.9005V12.5097C9.14408 12.4442 8.86954 12.3286 8.62339 12.1723L5.51837 15.2773C5.6186 15.6526 5.52149 16.0697 5.22704 16.3641C4.7877 16.8034 4.07539 16.8034 3.63605 16.3641C3.19671 15.9248 3.19671 15.2124 3.63605 14.7731C3.9305 14.4787 4.34755 14.3816 4.72287 14.4818L7.82785 11.3768C7.67147 11.1306 7.55579 10.856 7.49029 10.5625H3.0995C2.90498 10.8988 2.54141 11.125 2.125 11.125C1.50368 11.125 1 10.6213 1 10C1 9.37868 1.50368 8.875 2.125 8.875C2.54141 8.875 2.90498 9.10124 3.0995 9.4375H7.49026C7.55577 9.14393 7.67146 8.8693 7.82787 8.62307L4.72288 5.51807C4.34756 5.6183 3.9305 5.52119 3.63606 5.22675C3.19672 4.78741 3.19672 4.0751 3.63606 3.63576C4.0754 3.19642 4.78771 3.19642 5.22705 3.63576C5.5215 3.9302 5.6186 4.34726 5.51837 4.72258L8.62342 7.82763C8.86957 7.67132 9.14409 7.55571 9.43752 7.49023V3.0995C9.10126 2.90498 8.87502 2.54141 8.87502 2.125C8.87502 1.50368 9.3787 1 10 1C10.6213 1 11.125 1.50368 11.125 2.125ZM11.2857 9.99995C11.2857 10.71 10.7101 11.2857 9.99999 11.2857C9.28991 11.2857 8.71428 10.71 8.71428 9.99995C8.71428 9.28987 9.28991 8.71424 9.99999 8.71424C10.7101 8.71424 11.2857 9.28987 11.2857 9.99995Z" fill="white"/>
<path d="M12.1723 8.62334C11.969 8.30323 11.6969 8.03111 11.3769 7.8278L14.4817 4.723C14.3814 4.34768 14.4785 3.93062 14.773 3.63618C15.2123 3.19684 15.9246 3.19684 16.364 3.63618C16.8033 4.07552 16.8033 4.78783 16.364 5.22717C16.0695 5.52161 15.6525 5.61872 15.2772 5.51849L12.1723 8.62334Z" fill="white"/>
<path d="M12.5714 9.99995C12.5714 9.80675 12.5501 9.61853 12.5097 9.4375H16.9005C17.095 9.10124 17.4586 8.875 17.875 8.875C18.4963 8.875 19 9.37868 19 10C19 10.6213 18.4963 11.125 17.875 11.125C17.4586 11.125 17.095 10.8988 16.9005 10.5625H12.5097C12.5501 10.3814 12.5714 10.1932 12.5714 9.99995Z" fill="white"/>
<path d="M11.3769 12.1721C11.697 11.9688 11.9691 11.6966 12.1723 11.3765L15.2772 14.4814C15.6525 14.3811 16.0695 14.4782 16.364 14.7727C16.8033 15.212 16.8033 15.9243 16.364 16.3637C15.9246 16.803 15.2123 16.803 14.773 16.3637C14.4785 16.0692 14.3814 15.6522 14.4817 15.2769L11.3769 12.1721Z" fill="white"/>
</svg>
