<svg width="20" height="20" viewBox="0 0 20 20" fill="none" xmlns="http://www.w3.org/2000/svg">
<path fill-rule="evenodd" clip-rule="evenodd" d="M10.3509 1.21594C10.6394 0.928019 11.1072 0.928019 11.3957 1.21594L18.7836 8.5887C19.0721 8.87662 19.0721 9.34344 18.7836 9.63136L16.5672 11.8432C16.2787 12.1311 15.8109 12.1311 15.5224 11.8432L14.5673 10.89L13.1529 12.3015L13.814 15.6009C13.8624 15.8427 13.7866 16.0925 13.612 16.2668L12.1344 17.7414C11.8459 18.0293 11.3781 18.0293 11.0896 17.7414L11.0883 17.7401L11.0859 17.7377L7.20778 13.8676L2.2612 18.7841C1.97268 19.072 1.5049 19.072 1.21639 18.7841C0.927871 18.4961 0.927871 18.0293 1.21639 17.7414L6.16297 12.8249L2.22465 8.89455C1.93614 8.60663 1.93567 8.13934 2.22418 7.85142L3.70176 6.37687C3.87643 6.20256 4.12684 6.1269 4.36906 6.17524L7.67531 6.83514L9.0897 5.42365L8.14185 4.47775L8.13651 4.47243L8.13534 4.47126C7.84683 4.18334 7.846 3.71569 8.13452 3.42777L10.3509 1.21594ZM9.70173 3.9491L10.6569 4.90232C10.9454 5.19024 10.9454 5.65706 10.6569 5.94498L8.44353 8.15382L8.44239 8.15496L8.44129 8.15606C8.26662 8.33037 8.01546 8.40678 7.77324 8.35844L4.46699 7.69854L3.79139 8.37276L11.612 16.1774L12.2876 15.5032L11.6264 12.2037C11.578 11.962 11.6538 11.7121 11.8285 11.5378L14.0448 9.32597C14.3334 9.03805 14.8011 9.03805 15.0897 9.32597L16.0448 10.2792L17.2164 9.11003L10.8733 2.77994L9.70173 3.9491Z" fill="white"/>
</svg>
