<svg width="20" height="20" viewBox="0 0 20 20" fill="none" xmlns="http://www.w3.org/2000/svg">
<path fill-rule="evenodd" clip-rule="evenodd" d="M10.9682 1.52195C10.7733 1.32688 10.4573 1.32645 10.2618 1.52098L7.94408 3.82782C7.8497 3.92176 7.79668 4.04948 7.7968 4.18265C7.79692 4.31582 7.85016 4.44344 7.94472 4.53722L8.99323 5.57708L7.2084 7.35358L3.58157 6.63239C3.41773 6.59981 3.24844 6.6512 3.13036 6.76937L1.55988 8.34106C1.3648 8.53629 1.3648 8.85266 1.55988 9.04789L5.90191 13.3991L1.52178 17.7709C1.32634 17.966 1.32603 18.2826 1.52111 18.478C1.71619 18.6735 2.03277 18.6738 2.22822 18.4787L6.60826 14.107L10.9443 18.4522C11.038 18.5463 11.1653 18.5992 11.2981 18.5993C11.4309 18.5994 11.5583 18.5466 11.6521 18.4527L13.2353 16.8683C13.3536 16.7499 13.4048 16.5801 13.3717 16.416L12.6395 12.7875L14.4141 11.0116L15.4535 12.0518C15.6485 12.2469 15.9645 12.2473 16.1599 12.0528L18.4777 9.74598C18.5718 9.65231 18.6248 9.52506 18.6249 9.39228C18.6251 9.2595 18.5725 9.1321 18.4786 9.03818L10.9682 1.52195ZM7.00574 13.0891L11.2989 17.3914L12.3384 16.3511L11.6062 12.7226C11.5731 12.5585 11.6243 12.3887 11.7427 12.2703L14.0604 9.95077C14.1542 9.85692 14.2814 9.80419 14.4141 9.80419C14.5467 9.80419 14.674 9.85692 14.7678 9.95077L15.8082 10.992L17.4171 9.39063L10.6136 2.58178L9.00622 4.18157L10.0547 5.22143C10.1493 5.3152 10.2025 5.44282 10.2026 5.57599C10.2028 5.70916 10.1497 5.83688 10.0554 5.93082L7.72497 8.25033C7.60692 8.36784 7.4381 8.41884 7.27473 8.38635L3.64876 7.66533L2.62041 8.69447L6.92054 13.0037C6.93618 13.016 6.95125 13.0294 6.96565 13.0438C6.98008 13.0583 6.99345 13.0734 7.00574 13.0891Z" fill="white"/>
</svg>
