<svg width="20" height="20" viewBox="0 0 20 20" fill="none" xmlns="http://www.w3.org/2000/svg">
<path fill-rule="evenodd" clip-rule="evenodd" d="M17.5 17.9545C17.5 18.3939 17.1439 18.75 16.7045 18.75L3.29545 18.75C2.85614 18.75 2.5 18.3939 2.5 17.9545L2.5 2.04545C2.5 1.60614 2.85614 1.25 3.29546 1.25L8.08712 1.25C8.52644 1.25 8.88258 1.60614 8.88258 2.04546C8.88258 2.48477 8.52644 2.84091 8.08712 2.84091L4.09091 2.84091L4.09091 17.1591L15.9091 17.1591V10.6629C15.9091 10.2236 16.2652 9.86743 16.7045 9.86743C17.1439 9.86743 17.5 10.2236 17.5 10.6629L17.5 17.9545Z" fill="#0091E4"/>
<path d="M5 6.875C5 6.52982 5.27982 6.25 5.625 6.25H7.8125C8.15768 6.25 8.4375 6.52982 8.4375 6.875C8.4375 7.22018 8.15768 7.5 7.8125 7.5H5.625C5.27982 7.5 5 7.22018 5 6.875Z" fill="#0091E4"/>
<path d="M5 9.51923C5 9.17405 5.27982 8.89423 5.625 8.89423H13.75C14.0952 8.89423 14.375 9.17405 14.375 9.51923C14.375 9.86441 14.0952 10.1442 13.75 10.1442H5.625C5.27982 10.1442 5 9.86441 5 9.51923Z" fill="#0091E4"/>
<path d="M5 12.1198C5 11.7746 5.27982 11.4948 5.625 11.4948H13.75C14.0952 11.4948 14.375 11.7746 14.375 12.1198C14.375 12.465 14.0952 12.7448 13.75 12.7448H5.625C5.27982 12.7448 5 12.465 5 12.1198Z" fill="#0091E4"/>
<path fill-rule="evenodd" clip-rule="evenodd" d="M14.716 2.87144H13.7741C13.3246 2.87144 12.9602 2.50846 12.9602 2.06072C12.9602 1.61297 13.3246 1.25 13.7741 1.25H16.6811C17.1306 1.25 17.4951 1.61297 17.4951 2.06072V4.95614C17.4951 5.40388 17.1306 5.76686 16.6811 5.76686C16.2316 5.76686 15.8671 5.40388 15.8671 4.95614V4.01796L12.4011 7.39652C12.0832 7.71313 11.5679 7.71313 11.25 7.39652C10.9321 7.07992 10.9321 6.5666 11.25 6.25L14.716 2.87144Z" fill="#0091E4"/>
</svg>
