<svg width="20" height="20" viewBox="0 0 20 20" fill="none" xmlns="http://www.w3.org/2000/svg">
<path fill-rule="evenodd" clip-rule="evenodd" d="M3.39645 2.14645C3.49021 2.05268 3.61739 2 3.75 2H7.5C7.77614 2 8 2.22386 8 2.5C8 2.77614 7.77614 3 7.5 3H4.25V17H15.75V11.25C15.75 10.9739 15.9739 10.75 16.25 10.75C16.5261 10.75 16.75 10.9739 16.75 11.25V17.5C16.75 17.7761 16.5261 18 16.25 18H3.75C3.47386 18 3.25 17.7761 3.25 17.5V2.5C3.25 2.36739 3.30268 2.24021 3.39645 2.14645Z" fill="white"/>
<path fill-rule="evenodd" clip-rule="evenodd" d="M12 2.5C12 2.22386 12.2239 2 12.5 2H16.25C16.5261 2 16.75 2.22386 16.75 2.5V6.25C16.75 6.52614 16.5261 6.75 16.25 6.75C15.9739 6.75 15.75 6.52614 15.75 6.25V3.70711L11.6036 7.85355C11.4083 8.04882 11.0917 8.04882 10.8964 7.85355C10.7012 7.65829 10.7012 7.34171 10.8964 7.14645L15.0429 3H12.5C12.2239 3 12 2.77614 12 2.5Z" fill="white"/>
<path fill-rule="evenodd" clip-rule="evenodd" d="M5.4375 7.5C5.4375 7.22386 5.66136 7 5.9375 7H7.8125C8.08864 7 8.3125 7.22386 8.3125 7.5C8.3125 7.77614 8.08864 8 7.8125 8H5.9375C5.66136 8 5.4375 7.77614 5.4375 7.5Z" fill="white"/>
<path fill-rule="evenodd" clip-rule="evenodd" d="M5.4375 10.625C5.4375 10.3489 5.66136 10.125 5.9375 10.125H14.0625C14.3386 10.125 14.5625 10.3489 14.5625 10.625C14.5625 10.9011 14.3386 11.125 14.0625 11.125H5.9375C5.66136 11.125 5.4375 10.9011 5.4375 10.625Z" fill="white"/>
<path fill-rule="evenodd" clip-rule="evenodd" d="M5.4375 13.75C5.4375 13.4739 5.66136 13.25 5.9375 13.25H14.0625C14.3386 13.25 14.5625 13.4739 14.5625 13.75C14.5625 14.0261 14.3386 14.25 14.0625 14.25H5.9375C5.66136 14.25 5.4375 14.0261 5.4375 13.75Z" fill="white"/>
</svg>
