<svg width="20" height="20" viewBox="0 0 20 20" fill="none" xmlns="http://www.w3.org/2000/svg">
<path fill-rule="evenodd" clip-rule="evenodd" d="M15.343 1.52153C15.1477 1.32628 14.8311 1.32628 14.6359 1.52154L4.72533 11.4321C4.69025 11.4672 4.66058 11.5073 4.63731 11.5511L2.55429 15.4728C2.45321 15.6631 2.48541 15.8967 2.63419 16.0526C2.78298 16.2084 3.01487 16.2514 3.20966 16.1593L7.36553 14.1935C7.41742 14.169 7.4647 14.1357 7.50529 14.0951L17.3574 4.24295C17.4512 4.14918 17.5039 4.022 17.5039 3.88939C17.5039 3.75678 17.4512 3.6296 17.3574 3.53583L15.343 1.52153ZM5.48536 12.0863L14.9894 2.58219L16.2967 3.88941L6.85952 13.3266L4.14436 14.6109L5.48536 12.0863Z" fill="white"/>
<path d="M1.875 17.6251C1.59886 17.6251 1.375 17.8489 1.375 18.1251C1.375 18.4012 1.59886 18.6251 1.875 18.6251H18.125C18.4011 18.6251 18.625 18.4012 18.625 18.1251C18.625 17.8489 18.4011 17.6251 18.125 17.6251H1.875Z" fill="white"/>
</svg>
