<svg width="20" height="20" viewBox="0 0 20 20" fill="none" xmlns="http://www.w3.org/2000/svg">
<path d="M9.98877 1.37497C10.2649 1.37497 10.4888 1.59883 10.4888 1.87497V3.3018C10.4888 3.57794 10.2649 3.8018 9.98877 3.8018C9.71263 3.8018 9.48877 3.57794 9.48877 3.3018V1.87497C9.48877 1.59883 9.71263 1.37497 9.98877 1.37497Z" fill="white"/>
<path d="M15.0672 3.94431C15.2605 3.7471 15.2574 3.43053 15.0601 3.23724C14.8629 3.04394 14.5464 3.04711 14.3531 3.24432L13.3685 4.24881C13.1752 4.44602 13.1784 4.76259 13.3756 4.95588C13.5728 5.14918 13.8894 5.14601 14.0827 4.9488L15.0672 3.94431Z" fill="white"/>
<path fill-rule="evenodd" clip-rule="evenodd" d="M7.37787 5.35063C8.26405 4.73545 9.30997 4.55508 10.0111 4.55508C10.7122 4.55508 11.7605 4.73539 12.6493 5.35016C13.5662 5.98443 14.2704 7.05424 14.2704 8.71919V8.73059C14.2571 9.31151 14.15 10.4323 12.8842 11.7984C12.5082 12.2045 12.2241 12.9852 12.0417 13.8562C11.864 14.7043 11.8038 15.5306 11.8089 15.931C11.8106 16.0647 11.7587 16.1935 11.6648 16.2886C11.5708 16.3838 11.4427 16.4373 11.309 16.4373H8.72448C8.59075 16.4373 8.4626 16.3838 8.36865 16.2886C8.27471 16.1934 8.2228 16.0646 8.22452 15.9309C8.22962 15.5353 8.17198 14.7116 7.9958 13.864C7.81492 12.9938 7.53081 12.2103 7.14934 11.7985L7.14788 11.7969C5.88433 10.421 5.77648 9.31332 5.7632 8.73058L5.76294 8.71919C5.76294 7.05518 6.46358 5.98533 7.37787 5.35063ZM6.76307 8.71354C6.77252 9.1148 6.82587 9.96748 7.88369 11.1197C8.46396 11.7467 8.78941 12.7683 8.97487 13.6605C9.11005 14.3108 9.18221 14.9516 9.21047 15.4373H10.8233C10.8523 14.9477 10.9263 14.3033 11.0629 13.6512C11.2497 12.7594 11.5754 11.7402 12.1504 11.119C13.2065 9.97938 13.2609 9.11672 13.2704 8.71353C13.2688 7.37994 12.7261 6.61921 12.0804 6.17258C11.4056 5.7058 10.5744 5.55508 10.0111 5.55508C9.44801 5.55508 8.61991 5.70575 7.94813 6.1721C7.30536 6.61831 6.76459 7.37899 6.76307 8.71354Z" fill="white"/>
<path d="M8.30273 18.125C8.30273 17.8488 8.52659 17.625 8.80273 17.625H11.018C11.2941 17.625 11.518 17.8488 11.518 18.125C11.518 18.4011 11.2941 18.625 11.018 18.625H8.80273C8.52659 18.625 8.30273 18.4011 8.30273 18.125Z" fill="white"/>
<path d="M5.62441 3.24432C5.43112 3.04711 5.11455 3.04394 4.91734 3.23724C4.72013 3.43053 4.71696 3.7471 4.91026 3.94431L5.89482 4.9488C6.08812 5.14601 6.40468 5.14918 6.60189 4.95588C6.7991 4.76259 6.80227 4.44602 6.60898 4.24881L5.62441 3.24432Z" fill="white"/>
<path d="M2.77588 8.68474C2.77588 8.4086 2.99974 8.18474 3.27588 8.18474H4.67441C4.95055 8.18474 5.17441 8.4086 5.17441 8.68474C5.17441 8.96088 4.95055 9.18474 4.67441 9.18474H3.27588C2.99974 9.18474 2.77588 8.96088 2.77588 8.68474Z" fill="white"/>
<path d="M15.3257 8.18474C15.0495 8.18474 14.8257 8.4086 14.8257 8.68474C14.8257 8.96088 15.0495 9.18474 15.3257 9.18474H16.7242C17.0004 9.18474 17.2242 8.96088 17.2242 8.68474C17.2242 8.4086 17.0004 8.18474 16.7242 8.18474H15.3257Z" fill="white"/>
</svg>
