<svg width="20" height="20" viewBox="0 0 20 20" fill="none" xmlns="http://www.w3.org/2000/svg">
<path fill-rule="evenodd" clip-rule="evenodd" d="M4.73532 8.75499C4.73532 9.03499 4.95532 9.25499 5.23532 9.25499C5.51532 9.25499 5.73532 9.03499 5.73532 8.75499V3.56499C5.74532 3.48499 5.76532 2.92499 5.46532 2.38499H14.6953C15.1053 2.38499 15.4153 2.48499 15.6053 2.69499C15.8929 3.00173 15.8864 3.45548 15.8854 3.5278L15.8853 3.53499V6.21499C15.8853 6.49499 16.1053 6.71499 16.3853 6.71499C16.6653 6.71499 16.8853 6.49499 16.8853 6.21499V3.56499C16.8953 3.47499 16.9253 2.64499 16.3453 2.01499C15.9453 1.59499 15.3953 1.38499 14.6953 1.38499H3.55532C2.85532 1.38499 2.30532 1.59499 1.91532 2.01499C1.35154 2.61699 1.37214 3.4016 1.37508 3.51379L1.37532 3.52499V5.85499C1.37532 5.98499 1.43532 6.11499 1.52532 6.20499C1.61532 6.30499 1.74532 6.35499 1.87532 6.35499L4.73532 6.33499V8.75499ZM2.37532 5.35499V3.49499C2.37532 3.49499 2.35532 3.00499 2.64532 2.68499C2.83532 2.48499 3.14532 2.38499 3.55532 2.38499C3.96532 2.38499 4.26532 2.48499 4.46532 2.69499C4.75288 3.00173 4.74643 3.45548 4.7454 3.5278L4.74532 3.53499V5.34499L2.37532 5.35499Z" fill="white"/>
<path fill-rule="evenodd" clip-rule="evenodd" d="M18.6254 16.485V14.265C18.6254 13.985 18.4054 13.765 18.1254 13.765H16.8754V11.575C16.8754 11.295 16.6554 11.075 16.3754 11.075C16.0954 11.075 15.8754 11.295 15.8754 11.575V13.765H8.6154C8.3354 13.765 8.1154 13.985 8.1154 14.265V16.525C8.1154 16.525 8.1354 17.015 7.8454 17.325C7.6554 17.535 7.3454 17.635 6.9354 17.635C6.5254 17.635 6.2254 17.535 6.0254 17.325C5.74172 17.0218 5.74511 16.5559 5.74539 16.517L5.7454 16.515V14.485C5.7454 14.205 5.5254 13.985 5.2454 13.985C4.9654 13.985 4.7454 14.205 4.7454 14.485V16.465C4.7354 16.625 4.7354 17.395 5.2854 17.985C5.6754 18.405 6.2254 18.615 6.9254 18.615H16.4354C17.1354 18.615 17.6854 18.405 18.0754 17.985C18.6416 17.3996 18.6276 16.6117 18.6256 16.496L18.6254 16.485ZM17.3554 17.325C17.1654 17.535 16.8554 17.635 16.4454 17.635H8.8454C9.1454 17.095 9.1254 16.535 9.1154 16.495V14.775H17.6254V16.535C17.6254 16.525 17.6454 17.005 17.3554 17.325Z" fill="white"/>
<path d="M7.96533 4.735H11.9053C12.1853 4.735 12.4053 4.955 12.4053 5.235C12.4053 5.515 12.1853 5.735 11.9053 5.735H7.96533C7.68533 5.735 7.46533 5.515 7.46533 5.235C7.46533 4.955 7.68533 4.735 7.96533 4.735Z" fill="white"/>
<path d="M11.9053 7.125H7.96533C7.68533 7.125 7.46533 7.345 7.46533 7.625C7.46533 7.905 7.68533 8.125 7.96533 8.125H11.9053C12.1853 8.125 12.4053 7.905 12.4053 7.625C12.4053 7.345 12.1853 7.125 11.9053 7.125Z" fill="white"/>
<path d="M17.9754 7.705C18.2354 7.615 18.5154 7.765 18.5954 8.035C18.6754 8.305 18.5254 8.585 18.2654 8.665L3.07543 13.225C3.03543 13.235 2.98543 13.245 2.93543 13.245C2.71543 13.245 2.51543 13.105 2.45543 12.885C2.36543 12.625 2.52543 12.345 2.78543 12.265L17.9754 7.705Z" fill="white"/>
</svg>
