<svg width="20" height="20" viewBox="0 0 20 20" fill="none" xmlns="http://www.w3.org/2000/svg">
<path d="M6.09383 1.96161C6.14171 1.68965 5.96006 1.43037 5.6881 1.38249C5.41614 1.33461 5.15686 1.51626 5.10898 1.78822L4.41331 5.73974C4.36579 6.00967 4.54443 6.26755 4.81385 6.31792L8.63333 7.03206C8.90477 7.08281 9.16596 6.90391 9.21671 6.63247C9.26746 6.36103 9.08856 6.09985 8.81712 6.0491L6.01869 5.52586C7.13218 4.70263 8.50896 4.21635 9.99994 4.21635C13.7026 4.21635 16.7042 7.21796 16.7042 10.9206C16.7042 14.6233 13.7026 17.6249 9.99994 17.6249C6.29726 17.6249 3.29565 14.6233 3.29565 10.9206C3.29565 10.6445 3.0718 10.4206 2.79565 10.4206C2.51951 10.4206 2.29565 10.6445 2.29565 10.9206C2.29565 15.1756 5.74498 18.6249 9.99994 18.6249C14.2549 18.6249 17.7042 15.1756 17.7042 10.9206C17.7042 6.66568 14.2549 3.21635 9.99994 3.21635C8.37931 3.21635 6.8751 3.71712 5.6343 4.57184L6.09383 1.96161Z" fill="white"/>
<path d="M11.8632 13.4532C12.0585 13.6485 12.3751 13.6485 12.5703 13.4532C12.7656 13.258 12.7656 12.9414 12.5703 12.7461L10.5001 10.6759L10.5001 8.64326C10.5001 8.36712 10.2762 8.14326 10.0001 8.14326C9.72395 8.14326 9.50009 8.36712 9.50009 8.64326L9.50009 10.883C9.50009 11.0156 9.55277 11.1428 9.64654 11.2365L11.8632 13.4532Z" fill="white"/>
</svg>
