<svg width="20" height="20" viewBox="0 0 20 20" fill="none" xmlns="http://www.w3.org/2000/svg">
<path fill-rule="evenodd" clip-rule="evenodd" d="M9.25612 1.73223C9.53133 1.08926 10.4687 1.08925 10.7439 1.73223L12.764 6.45196L18.0076 6.86045C18.7219 6.9161 19.0116 7.78236 18.4673 8.23539L14.4723 11.5608L15.6928 16.533C15.8591 17.2104 15.1008 17.7458 14.4892 17.3828L10 14.7183L5.51078 17.3828C4.89921 17.7458 4.14088 17.2104 4.30716 16.533L5.52771 11.5608L1.53267 8.2354C0.988425 7.78237 1.27807 6.9161 1.99241 6.86045L7.23597 6.45196L9.25612 1.73223ZM10 2.76677L8.17961 7.01979C8.06359 7.29085 7.80126 7.47606 7.50012 7.49952L2.77507 7.86762L6.37506 10.8642C6.6045 11.0552 6.7047 11.3549 6.6346 11.6404L5.53475 16.121L9.58005 13.7199C9.83787 13.5669 10.1621 13.5669 10.4199 13.7199L14.4652 16.121L13.3654 11.6404C13.2953 11.3549 13.3955 11.0552 13.6249 10.8642L17.2249 7.86762L12.4999 7.49952C12.1987 7.47606 11.9364 7.29085 11.8204 7.01979L10 2.76677Z" fill="white"/>
</svg>
