<svg width="20" height="20" viewBox="0 0 20 20" fill="none" xmlns="http://www.w3.org/2000/svg">
<path fill-rule="evenodd" clip-rule="evenodd" d="M2 8C2 7.72386 2.22386 7.5 2.5 7.5H4.375C4.65114 7.5 4.875 7.72386 4.875 8C4.875 8.27614 4.65114 8.5 4.375 8.5H3V11.5H4.375C4.65114 11.5 4.875 11.7239 4.875 12C4.875 12.2761 4.65114 12.5 4.375 12.5H2.5C2.22386 12.5 2 12.2761 2 12V8ZM7.625 8C7.625 7.72386 7.84886 7.5 8.125 7.5H17.5C17.7761 7.5 18 7.72386 18 8V12C18 12.2761 17.7761 12.5 17.5 12.5H8.125C7.84886 12.5 7.625 12.2761 7.625 12C7.625 11.7239 7.84886 11.5 8.125 11.5H17V8.5H8.125C7.84886 8.5 7.625 8.27614 7.625 8Z" fill="#363B47"/>
<path fill-rule="evenodd" clip-rule="evenodd" d="M3.25 2.5C3.25 2.22386 3.47386 2 3.75 2H8.75C9.02614 2 9.25 2.22386 9.25 2.5C9.25 2.77614 9.02614 3 8.75 3H6.75V17H8.75C9.02614 17 9.25 17.2239 9.25 17.5C9.25 17.7761 9.02614 18 8.75 18H3.75C3.47386 18 3.25 17.7761 3.25 17.5C3.25 17.2239 3.47386 17 3.75 17H5.75V3H3.75C3.47386 3 3.25 2.77614 3.25 2.5Z" fill="#363B47"/>
</svg>
