<svg width="20" height="20" viewBox="0 0 20 20" fill="none" xmlns="http://www.w3.org/2000/svg">
<path fill-rule="evenodd" clip-rule="evenodd" d="M14.6464 1.20895C14.4512 1.40421 14.4512 1.72079 14.6464 1.91605L16.9179 4.1875H8.75C4.6769 4.1875 1.375 7.4894 1.375 11.5625C1.375 15.6356 4.6769 18.9375 8.75 18.9375C9.02614 18.9375 9.25 18.7136 9.25 18.4375C9.25 18.1614 9.02614 17.9375 8.75 17.9375C5.22919 17.9375 2.375 15.0833 2.375 11.5625C2.375 8.04168 5.22919 5.1875 8.75 5.1875H16.9179L14.6464 7.45895C14.4512 7.65421 14.4512 7.97079 14.6464 8.16605C14.8417 8.36132 15.1583 8.36132 15.3536 8.16605L18.4786 5.04105C18.6738 4.84579 18.6738 4.52921 18.4786 4.33395L15.3536 1.20895C15.1583 1.01368 14.8417 1.01368 14.6464 1.20895Z" fill="white"/>
</svg>
