<svg width="20" height="20" viewBox="0 0 20 20" fill="none" xmlns="http://www.w3.org/2000/svg">
<path fill-rule="evenodd" clip-rule="evenodd" d="M6.5 1.72C6.5 1.32235 6.83579 1 7.25 1H11.75C12.1642 1 12.5 1.32235 12.5 1.72H16.25C16.6642 1.72 17 2.04235 17 2.44V18.28C17 18.6776 16.6642 19 16.25 19H2.75C2.33579 19 2 18.6776 2 18.28V2.44C2 2.04235 2.33579 1.72 2.75 1.72H6.5ZM6.5 2.96875H3.26923V17.7625H15.7308V2.96875H12.5C12.5 3.36639 12.1642 3.7 11.75 3.7H7.25C6.83579 3.7 6.5 3.36639 6.5 2.96875ZM8.87014 6.0493C9.19641 6.0493 9.41556 6.31616 9.48214 6.60381L10.5239 11.1042L11.0792 10.038C11.2062 9.79408 11.4659 9.775 11.75 9.775H14C14.4142 9.775 14.75 9.96235 14.75 10.36C14.75 10.7576 14.4142 11.08 14 11.08H12.2135L10.9208 13.562C10.9208 13.562 10.6538 13.9546 10.3077 13.9546C9.99022 13.9546 9.79964 13.6937 9.73077 13.3962L8.57692 8.67824L7.14312 10.7304C7.00758 10.9473 6.76345 11.08 6.5 11.08H5C4.58579 11.08 4.25 10.7576 4.25 10.36C4.25 9.96235 4.58579 9.775 5 9.775H6.26923L8.23077 6.38956C8.38869 6.13689 8.57692 6.0493 8.87014 6.0493Z" fill="white"/>
</svg>
