<svg width="20" height="20" viewBox="0 0 20 20" fill="none" xmlns="http://www.w3.org/2000/svg">
<path d="M11.9051 5.73001H7.96509C7.68509 5.73001 7.46509 5.50001 7.46509 5.23001C7.46509 4.95001 7.68509 4.73001 7.96509 4.73001H11.9051C12.1851 4.73001 12.4051 4.95001 12.4051 5.23001C12.4051 5.51001 12.1851 5.73001 11.9051 5.73001Z" fill="white"/>
<path d="M13.5951 7.12001H7.96509C7.68509 7.12001 7.46509 7.34001 7.46509 7.62001C7.46509 7.90001 7.68509 8.12001 7.96509 8.12001H13.5851C13.8651 8.12001 14.0851 7.90001 14.0851 7.62001C14.0951 7.34001 13.8651 7.12001 13.5951 7.12001Z" fill="white"/>
<path d="M7.96509 9.5H13.5951C13.8651 9.5 14.0951 9.73 14.0851 10C14.0851 10.28 13.8651 10.5 13.5851 10.5H7.96509C7.68509 10.5 7.46509 10.28 7.46509 10C7.46509 9.72 7.68509 9.5 7.96509 9.5Z" fill="white"/>
<path fill-rule="evenodd" clip-rule="evenodd" d="M18.625 16.55C18.6194 16.5837 18.6169 16.6237 18.6141 16.67C18.6118 16.7062 18.6094 16.7462 18.605 16.79C18.585 16.98 18.535 17.24 18.405 17.51C18.275 17.78 18.065 18.07 17.725 18.28C17.385 18.5 16.965 18.62 16.435 18.62H6.925C6.395 18.62 5.975 18.49 5.635 18.28C5.295 18.07 5.085 17.78 4.955 17.51C4.825 17.24 4.775 16.98 4.755 16.79C4.735 16.69 4.735 16.61 4.735 16.55V6.33L1.875 6.35C1.745 6.35 1.615 6.3 1.525 6.20001C1.425 6.11 1.375 5.98 1.375 5.85V3.45C1.375 3.39 1.375 3.31 1.395 3.22C1.415 3.02 1.465 2.76 1.595 2.49C1.715 2.22 1.935 1.93 2.265 1.72C2.595 1.5 3.025 1.38 3.555 1.38H14.695C15.215 1.38 15.645 1.5 15.975 1.73C16.315 1.94 16.525 2.23 16.655 2.5C16.785 2.77 16.835 3.03 16.855 3.22C16.875 3.32 16.875 3.4 16.875 3.46V13.76H18.125C18.405 13.76 18.625 13.98 18.625 14.26V16.55ZM2.375 5.35L4.735 5.33V3.46C4.735 3.43 4.735 3.38 4.725 3.33C4.715 3.21 4.685 3.06 4.615 2.92C4.555 2.78 4.455 2.66 4.305 2.56C4.155 2.46 3.925 2.38 3.555 2.38C3.185 2.38 2.945 2.46 2.805 2.56C2.655 2.65 2.555 2.78 2.495 2.91C2.425 3.05 2.395 3.2 2.385 3.32C2.375 3.38 2.375 3.43 2.375 3.46V5.35ZM8.105 14.26C8.105 13.98 8.335 13.76 8.605 13.75H15.875V3.46C15.875 3.43 15.875 3.38 15.865 3.33C15.855 3.21 15.825 3.06 15.755 2.92C15.695 2.78 15.595 2.66 15.445 2.56C15.295 2.46 15.065 2.38 14.695 2.38H5.455C5.46332 2.39665 5.47338 2.41157 5.48373 2.42691C5.49824 2.44844 5.51332 2.47081 5.525 2.5C5.655 2.77 5.705 3.03 5.725 3.22C5.745 3.32 5.745 3.4 5.745 3.46V16.54C5.745 16.57 5.745 16.61 5.755 16.67C5.765 16.79 5.795 16.94 5.865 17.08C5.925 17.22 6.025 17.34 6.175 17.44C6.325 17.54 6.555 17.62 6.925 17.62C7.295 17.62 7.525 17.53 7.675 17.44C7.825 17.34 7.915 17.22 7.985 17.08C8.055 16.94 8.085 16.79 8.095 16.67C8.105 16.62 8.105 16.57 8.105 16.54V14.26ZM17.505 17.09C17.575 16.95 17.605 16.8 17.615 16.68C17.6191 16.6554 17.6215 16.6342 17.6236 16.6157C17.6267 16.5889 17.6291 16.5677 17.635 16.55V14.77H9.125V16.56C9.11938 16.5937 9.11692 16.6337 9.11407 16.68C9.11185 16.7162 9.10938 16.7562 9.105 16.8C9.085 16.99 9.035 17.25 8.905 17.52C8.895 17.54 8.885 17.5575 8.875 17.575C8.865 17.5925 8.855 17.61 8.845 17.63H16.445C16.815 17.63 17.045 17.54 17.195 17.45C17.345 17.35 17.435 17.23 17.505 17.09Z" fill="white"/>
</svg>
