<svg width="20" height="20" viewBox="0 0 20 20" fill="none" xmlns="http://www.w3.org/2000/svg">
<path fill-rule="evenodd" clip-rule="evenodd" d="M6.37639 1.26304C6.71444 1.33284 6.93189 1.66347 6.86209 2.00152L6.60616 3.2409C7.63924 2.76536 8.78911 2.50012 10 2.50012C11.0212 2.50012 11.9998 2.68883 12.9018 3.03382C15.9551 4.2016 18.125 7.15918 18.125 10.6251C18.125 15.1124 14.4873 18.7501 10 18.7501C5.51269 18.7501 1.875 15.1124 1.875 10.6251C1.875 10.2799 2.15482 10.0001 2.5 10.0001C2.84518 10.0001 3.125 10.2799 3.125 10.6251C3.125 14.4221 6.20304 17.5001 10 17.5001C13.797 17.5001 16.875 14.4221 16.875 10.6251C16.875 7.69422 15.0407 5.19019 12.4553 4.20134C11.6936 3.91002 10.8662 3.75012 10 3.75012C9.11509 3.75012 8.26985 3.91706 7.49352 4.22115L8.25937 4.38974C8.59648 4.46395 8.8096 4.79739 8.73538 5.13449C8.66118 5.4716 8.32774 5.68472 7.99063 5.61051L5.57992 5.07982C5.24592 5.00629 5.03304 4.67797 5.1022 4.34304L5.63791 1.74873C5.70772 1.41069 6.03835 1.19323 6.37639 1.26304ZM10 6.87512C10.3452 6.87512 10.625 7.15495 10.625 7.50012V10.3662L12.9419 12.6832C13.186 12.9273 13.186 13.323 12.9419 13.5671C12.6979 13.8111 12.3021 13.8111 12.0581 13.5671L9.55806 11.0671C9.44085 10.9499 9.375 10.7909 9.375 10.6251V7.50012C9.375 7.15495 9.65482 6.87512 10 6.87512Z" fill="white"/>
</svg>
