<svg width="20" height="20" viewBox="0 0 20 20" fill="none" xmlns="http://www.w3.org/2000/svg">
<path fill-rule="evenodd" clip-rule="evenodd" d="M14.5581 1.43306C14.314 1.67714 14.314 2.07286 14.5581 2.31694L16.6161 4.375H8.4375C4.46795 4.375 1.25 7.59295 1.25 11.5625C1.25 15.532 4.46795 18.75 8.4375 18.75H9.375C9.72018 18.75 10 18.4702 10 18.125C10 17.7798 9.72018 17.5 9.375 17.5H8.4375C5.15831 17.5 2.5 14.8417 2.5 11.5625C2.5 8.28331 5.15831 5.625 8.4375 5.625H16.6161L14.5581 7.68306C14.314 7.92714 14.314 8.32286 14.5581 8.56694C14.8021 8.81102 15.1979 8.81102 15.4419 8.56694L18.5669 5.44194C18.811 5.19786 18.811 4.80214 18.5669 4.55806L15.4419 1.43306C15.1979 1.18898 14.8021 1.18898 14.5581 1.43306Z" fill="white"/>
</svg>
