<svg width="20" height="20" viewBox="0 0 20 20" fill="none" xmlns="http://www.w3.org/2000/svg">
<path fill-rule="evenodd" clip-rule="evenodd" d="M1.50003 3.75C1.50003 2.43832 2.56335 1.375 3.87503 1.375H14.5C15.8117 1.375 16.875 2.43832 16.875 3.75L16.875 5C16.875 5.27614 16.6512 5.5 16.375 5.5L16.375 11.0295C16.6512 11.0296 16.875 11.2535 16.875 11.5297L16.875 13.875H17.625C18.2464 13.875 18.75 14.3787 18.75 15V16.25C18.75 17.5617 17.6867 18.625 16.375 18.625H6.37503C6.27051 18.625 6.17349 18.5929 6.09325 18.5381C5.24386 18.2829 4.62503 17.495 4.62503 16.5625V15.1653C4.62503 14.8892 4.84889 14.6653 5.12503 14.6653V8C4.84889 8 4.62503 7.77614 4.62503 7.5V6.125H2.62503C2.00371 6.125 1.50003 5.62132 1.50003 5V3.75ZM4.62503 5.125V3.125C4.62503 2.71079 4.28924 2.375 3.87503 2.375C3.11564 2.375 2.50003 2.99061 2.50003 3.75V5C2.50003 5.06904 2.556 5.125 2.62503 5.125H4.62503ZM5.45662 2.375C5.56461 2.60231 5.62503 2.8566 5.62503 3.125V7.5C5.62503 7.77614 5.40117 8 5.12503 8V14.6653C5.40117 14.6653 5.62503 14.8892 5.62503 15.1653V16.5625C5.62503 17.1493 6.10073 17.625 6.68753 17.625C7.27433 17.625 7.75003 17.1493 7.75003 16.5625V15C7.75003 14.3787 8.25371 13.875 8.87503 13.875H15.875L15.875 11.5297C15.875 11.2535 16.0989 11.0296 16.375 11.0295L16.375 5.5C16.0989 5.5 15.875 5.27614 15.875 5L15.875 3.75C15.875 2.99061 15.2594 2.375 14.5 2.375H5.45662ZM8.45566 17.625H16.375C17.1344 17.625 17.75 17.0094 17.75 16.25V15C17.75 14.931 17.6941 14.875 17.625 14.875H8.87503C8.806 14.875 8.75003 14.931 8.75003 15V16.5625C8.75003 16.9511 8.64254 17.3147 8.45566 17.625ZM7.12503 5C7.12503 4.72386 7.34889 4.5 7.62503 4.5H12C12.2762 4.5 12.5 4.72386 12.5 5C12.5 5.27614 12.2762 5.5 12 5.5H7.62503C7.34889 5.5 7.12503 5.27614 7.12503 5ZM7.12503 7.5C7.12503 7.22386 7.34889 7 7.62503 7H12.125C12.4012 7 12.625 7.22386 12.625 7.5C12.625 7.77614 12.4012 8 12.125 8H7.62503C7.34889 8 7.12503 7.77614 7.12503 7.5Z" fill="white"/>
<path fill-rule="evenodd" clip-rule="evenodd" d="M18.478 7.85309C18.5592 8.11702 18.4111 8.39681 18.1472 8.47802L2.50001 13.125C2.23607 13.2062 1.95628 13.0581 1.87507 12.7942C1.79386 12.5302 1.94199 12.2504 2.20592 12.1692L17.8531 7.52224C18.117 7.44103 18.3968 7.58916 18.478 7.85309Z" fill="white"/>
</svg>
