<svg width="20" height="20" viewBox="0 0 20 20" fill="none" xmlns="http://www.w3.org/2000/svg">
<path fill-rule="evenodd" clip-rule="evenodd" d="M15.4034 1.48298C15.7141 1.17234 16.2177 1.17234 16.5284 1.48298L18.517 3.47162C18.8277 3.78226 18.8277 4.28591 18.517 4.59656L6.58521 16.5284C6.52476 16.5888 6.45495 16.6391 6.37848 16.6774L2.40121 18.666C2.09497 18.8191 1.72511 18.7591 1.483 18.517C1.2409 18.2749 1.18088 17.905 1.334 17.5988L3.32263 13.6215C3.36087 13.545 3.41118 13.4752 3.47164 13.4148L15.4034 1.48298ZM4.68786 14.4485L3.82416 16.1758L5.55155 15.3121L16.8296 4.03409L15.9659 3.17039L4.68786 14.4485Z" fill="white"/>
</svg>
