<svg width="20" height="20" viewBox="0 0 20 20" fill="none" xmlns="http://www.w3.org/2000/svg">
<path fill-rule="evenodd" clip-rule="evenodd" d="M1.375 3.75C1.375 2.43832 2.43832 1.375 3.75 1.375H14.375C15.6867 1.375 16.75 2.43832 16.75 3.75V13.875H17.5C18.1213 13.875 18.625 14.3787 18.625 15V16.25C18.625 17.5617 17.5617 18.625 16.25 18.625H6.25C6.14548 18.625 6.04846 18.5929 5.96822 18.5381C5.11883 18.2829 4.5 17.495 4.5 16.5625V6.125H2.5C1.87868 6.125 1.375 5.62132 1.375 5V3.75ZM4.5 5.125V3.125C4.5 2.71079 4.16421 2.375 3.75 2.375C2.99061 2.375 2.375 2.99061 2.375 3.75V5C2.375 5.06904 2.43096 5.125 2.5 5.125H4.5ZM5.33159 2.375C5.43958 2.60231 5.5 2.8566 5.5 3.125V16.5625C5.5 17.1493 5.9757 17.625 6.5625 17.625C7.1493 17.625 7.625 17.1493 7.625 16.5625V15C7.625 14.3787 8.12868 13.875 8.75 13.875H15.75V3.75C15.75 2.99061 15.1344 2.375 14.375 2.375H5.33159ZM8.33063 17.625H16.25C17.0094 17.625 17.625 17.0094 17.625 16.25V15C17.625 14.931 17.569 14.875 17.5 14.875H8.75C8.68097 14.875 8.625 14.931 8.625 15V16.5625C8.625 16.9511 8.51751 17.3147 8.33063 17.625ZM7 5C7 4.72386 7.22386 4.5 7.5 4.5H11.875C12.1511 4.5 12.375 4.72386 12.375 5C12.375 5.27614 12.1511 5.5 11.875 5.5H7.5C7.22386 5.5 7 5.27614 7 5ZM7 7.5C7 7.22386 7.22386 7 7.5 7H13.75C14.0261 7 14.25 7.22386 14.25 7.5C14.25 7.77614 14.0261 8 13.75 8H7.5C7.22386 8 7 7.77614 7 7.5ZM7 10C7 9.72386 7.22386 9.5 7.5 9.5H13.75C14.0261 9.5 14.25 9.72386 14.25 10C14.25 10.2761 14.0261 10.5 13.75 10.5H7.5C7.22386 10.5 7 10.2761 7 10Z" fill="white"/>
</svg>
