<svg width="20" height="21" viewBox="0 0 20 21" fill="none" xmlns="http://www.w3.org/2000/svg">
  <path fill-rule="evenodd" clip-rule="evenodd" d="M15.0198 1.39645C15.2151 1.20119 15.5316 1.20118 15.7269 1.39643L17.8963 3.56569C17.9901 3.65945 18.0428 3.78663 18.0428 3.91924C18.0428 4.05185 17.9901 4.17904 17.8963 4.27281L7.28634 14.8828C7.24575 14.9234 7.19847 14.9567 7.14658 14.9812L2.67102 17.0982C2.47624 17.1904 2.24434 17.1473 2.09556 16.9915C1.94678 16.8356 1.91457 16.602 2.01565 16.4117L4.25891 12.1883C4.28218 12.1445 4.31185 12.1044 4.34693 12.0693L15.0198 1.39645ZM15.3734 2.45709L5.10695 12.7235L3.60572 15.5499L6.64057 14.1143L16.8356 3.91927L15.3734 2.45709Z" fill="white"/>
  <path fill-rule="evenodd" clip-rule="evenodd" d="M0.75 19.25C0.75 18.9739 0.973858 18.75 1.25 18.75H18.75C19.0261 18.75 19.25 18.9739 19.25 19.25C19.25 19.5261 19.0261 19.75 18.75 19.75H1.25C0.973858 19.75 0.75 19.5261 0.75 19.25Z" fill="white"/>
</svg>
