<svg width="20" height="20" viewBox="0 0 20 20" fill="none" xmlns="http://www.w3.org/2000/svg">
<path d="M5.625 10.75C5.34886 10.75 5.125 10.9739 5.125 11.25C5.125 11.5261 5.34886 11.75 5.625 11.75H13.125C13.4011 11.75 13.625 11.5261 13.625 11.25C13.625 10.9739 13.4011 10.75 13.125 10.75H5.625Z" fill="white"/>
<path d="M5.625 13.875C5.34886 13.875 5.125 14.0989 5.125 14.375C5.125 14.6511 5.34886 14.875 5.625 14.875H10C10.2761 14.875 10.5 14.6511 10.5 14.375C10.5 14.0989 10.2761 13.875 10 13.875H5.625Z" fill="white"/>
<path fill-rule="evenodd" clip-rule="evenodd" d="M2.875 1.375C2.04657 1.375 1.375 2.04657 1.375 2.875V17.125C1.375 17.9534 2.04657 18.625 2.875 18.625H17.125C17.9534 18.625 18.625 17.9534 18.625 17.125V6.57047C18.625 6.25783 18.5273 5.95301 18.3456 5.69861L15.706 2.00314C15.4244 1.60895 14.9698 1.375 14.4854 1.375H2.875ZM2.375 2.875C2.375 2.59886 2.59886 2.375 2.875 2.375H5.125V5.875C5.125 6.70343 5.79657 7.375 6.625 7.375H12.125C12.9534 7.375 13.625 6.70343 13.625 5.875V2.375H14.4854C14.6469 2.375 14.7984 2.45298 14.8922 2.58438L17.5319 6.27985C17.5924 6.36465 17.625 6.46625 17.625 6.57047V17.125C17.625 17.4011 17.4011 17.625 17.125 17.625H2.875C2.59886 17.625 2.375 17.4011 2.375 17.125V2.875ZM6.125 5.875V2.375H12.625V5.875C12.625 6.15114 12.4011 6.375 12.125 6.375H6.625C6.34886 6.375 6.125 6.15114 6.125 5.875Z" fill="white"/>
</svg>
