<svg width="20" height="20" viewBox="0 0 20 20" fill="none" xmlns="http://www.w3.org/2000/svg">
<path fill-rule="evenodd" clip-rule="evenodd" d="M3.125 2.5C2.77982 2.5 2.5 2.77982 2.5 3.125V16.875C2.5 17.2202 2.77982 17.5 3.125 17.5H16.875C17.2202 17.5 17.5 17.2202 17.5 16.875V6.71844C17.5 6.33706 17.3837 5.96474 17.1666 5.65117L15.5442 3.30773C15.194 2.80186 14.6179 2.5 14.0026 2.5H13.6719V5.70312C13.6719 6.73866 12.8324 7.57812 11.7969 7.57812H6.67969C5.64415 7.57812 4.80469 6.73866 4.80469 5.70312V2.5H3.125ZM6.05469 2.5V5.70312C6.05469 6.0483 6.33451 6.32812 6.67969 6.32812H11.7969C12.1421 6.32812 12.4219 6.0483 12.4219 5.70312V2.5H6.05469ZM1.25 3.125C1.25 2.08947 2.08947 1.25 3.125 1.25H14.0026C15.0281 1.25 15.9883 1.7531 16.572 2.59622L18.1944 4.93966C18.5562 5.46228 18.75 6.0828 18.75 6.71844V16.875C18.75 17.9105 17.9105 18.75 16.875 18.75H3.125C2.08947 18.75 1.25 17.9105 1.25 16.875V3.125ZM4.80469 11.0156C4.80469 10.6704 5.08451 10.3906 5.42969 10.3906H13.0469C13.3921 10.3906 13.6719 10.6704 13.6719 11.0156C13.6719 11.3608 13.3921 11.6406 13.0469 11.6406H5.42969C5.08451 11.6406 4.80469 11.3608 4.80469 11.0156ZM4.80469 14.0625C4.80469 13.7173 5.08451 13.4375 5.42969 13.4375H10C10.3452 13.4375 10.625 13.7173 10.625 14.0625C10.625 14.4077 10.3452 14.6875 10 14.6875H5.42969C5.08451 14.6875 4.80469 14.4077 4.80469 14.0625Z" fill="white"/>
</svg>
