<svg width="20" height="20" viewBox="0 0 20 20" fill="none" xmlns="http://www.w3.org/2000/svg">
<path d="M2.5 2C2.22386 2 2 2.22386 2 2.5V3.4375C2 3.71364 2.22386 3.9375 2.5 3.9375C2.77614 3.9375 3 3.71364 3 3.4375V3H3.4375C3.71364 3 3.9375 2.77614 3.9375 2.5C3.9375 2.22386 3.71364 2 3.4375 2H2.5Z" fill="white"/>
<path d="M5.3125 2C5.03636 2 4.8125 2.22386 4.8125 2.5C4.8125 2.77614 5.03636 3 5.3125 3H7.1875C7.46364 3 7.6875 2.77614 7.6875 2.5C7.6875 2.22386 7.46364 2 7.1875 2H5.3125Z" fill="white"/>
<path d="M9.0625 2C8.78636 2 8.5625 2.22386 8.5625 2.5C8.5625 2.77614 8.78636 3 9.0625 3H10.9375C11.2136 3 11.4375 2.77614 11.4375 2.5C11.4375 2.22386 11.2136 2 10.9375 2H9.0625Z" fill="white"/>
<path d="M12.8125 2C12.5364 2 12.3125 2.22386 12.3125 2.5C12.3125 2.77614 12.5364 3 12.8125 3H14.6875C14.9636 3 15.1875 2.77614 15.1875 2.5C15.1875 2.22386 14.9636 2 14.6875 2H12.8125Z" fill="white"/>
<path d="M16.5625 2C16.2864 2 16.0625 2.22386 16.0625 2.5C16.0625 2.77614 16.2864 3 16.5625 3H17V3.4375C17 3.71364 17.2239 3.9375 17.5 3.9375C17.7761 3.9375 18 3.71364 18 3.4375V2.5C18 2.22386 17.7761 2 17.5 2H16.5625Z" fill="white"/>
<path fill-rule="evenodd" clip-rule="evenodd" d="M2 5C2 4.72386 2.22386 4.5 2.5 4.5H17.5C17.7761 4.5 18 4.72386 18 5V11.25C18 11.5261 17.7761 11.75 17.5 11.75H2.5C2.22386 11.75 2 11.5261 2 11.25V5ZM3 10.75H17V5.5H3V10.75Z" fill="white"/>
<path d="M3 12.8125C3 12.5364 2.77614 12.3125 2.5 12.3125C2.22386 12.3125 2 12.5364 2 12.8125V14.6875C2 14.9636 2.22386 15.1875 2.5 15.1875C2.77614 15.1875 3 14.9636 3 14.6875V12.8125Z" fill="white"/>
<path d="M18 12.8125C18 12.5364 17.7761 12.3125 17.5 12.3125C17.2239 12.3125 17 12.5364 17 12.8125V14.6875C17 14.9636 17.2239 15.1875 17.5 15.1875C17.7761 15.1875 18 14.9636 18 14.6875V12.8125Z" fill="white"/>
<path d="M3 16.5625C3 16.2864 2.77614 16.0625 2.5 16.0625C2.22386 16.0625 2 16.2864 2 16.5625V17.5C2 17.7761 2.22386 18 2.5 18H3.4375C3.71364 18 3.9375 17.7761 3.9375 17.5C3.9375 17.2239 3.71364 17 3.4375 17H3V16.5625Z" fill="white"/>
<path d="M18 16.5625C18 16.2864 17.7761 16.0625 17.5 16.0625C17.2239 16.0625 17 16.2864 17 16.5625V17H16.5625C16.2864 17 16.0625 17.2239 16.0625 17.5C16.0625 17.7761 16.2864 18 16.5625 18H17.5C17.7761 18 18 17.7761 18 17.5V16.5625Z" fill="white"/>
<path d="M5.3125 17C5.03636 17 4.8125 17.2239 4.8125 17.5C4.8125 17.7761 5.03636 18 5.3125 18H7.1875C7.46364 18 7.6875 17.7761 7.6875 17.5C7.6875 17.2239 7.46364 17 7.1875 17H5.3125Z" fill="white"/>
<path d="M9.0625 17C8.78636 17 8.5625 17.2239 8.5625 17.5C8.5625 17.7761 8.78636 18 9.0625 18H10.9375C11.2136 18 11.4375 17.7761 11.4375 17.5C11.4375 17.2239 11.2136 17 10.9375 17H9.0625Z" fill="white"/>
<path d="M12.8125 17C12.5364 17 12.3125 17.2239 12.3125 17.5C12.3125 17.7761 12.5364 18 12.8125 18H14.6875C14.9636 18 15.1875 17.7761 15.1875 17.5C15.1875 17.2239 14.9636 17 14.6875 17H12.8125Z" fill="white"/>
</svg>
