<svg width="20" height="20" viewBox="0 0 20 20" fill="none" xmlns="http://www.w3.org/2000/svg">
<path fill-rule="evenodd" clip-rule="evenodd" d="M1 1.64948C1 1.29078 1.29078 1 1.64948 1H2.98557C3.34427 1 3.63505 1.29078 3.63505 1.64948C3.63505 2.00817 3.34427 2.29896 2.98557 2.29896H2.29897V2.98555C2.29897 3.34424 2.00818 3.63502 1.64948 3.63502C1.29078 3.63502 1 3.34424 1 2.98555V1.64948ZM6.34433 1.64948C6.34433 1.29078 6.63511 1 6.99381 1H9.66597C10.0247 1 10.3155 1.29078 10.3155 1.64948C10.3155 2.00817 10.0247 2.29896 9.66597 2.29896H6.99381C6.63511 2.29896 6.34433 2.00817 6.34433 1.64948ZM13.0247 1.64948C13.0247 1.29078 13.3155 1 13.6742 1H15.0103C15.369 1 15.6598 1.29078 15.6598 1.64948V2.98555C15.6598 3.34424 15.369 3.63502 15.0103 3.63502C14.6516 3.63502 14.3608 3.34424 14.3608 2.98555V2.29896H13.6742C13.3155 2.29896 13.0247 2.00817 13.0247 1.64948ZM1.64948 6.34427C2.00818 6.34427 2.29897 6.63505 2.29897 6.99375V9.66589C2.29897 10.0246 2.00818 10.3154 1.64948 10.3154C1.29078 10.3154 1 10.0246 1 9.66589V6.99375C1 6.63505 1.29078 6.34427 1.64948 6.34427ZM15.0103 6.34427C15.369 6.34427 15.6598 6.63505 15.6598 6.99375V9.66589C15.6598 10.0246 15.369 10.3154 15.0103 10.3154C14.6516 10.3154 14.3608 10.0246 14.3608 9.66589V6.99375C14.3608 6.63505 14.6516 6.34427 15.0103 6.34427ZM1.64948 13.0246C2.00818 13.0246 2.29897 13.3154 2.29897 13.6741V14.3607H2.98557C3.34427 14.3607 3.63505 14.6515 3.63505 15.0102C3.63505 15.3689 3.34427 15.6596 2.98557 15.6596H1.64948C1.29078 15.6596 1 15.3689 1 15.0102V13.6741C1 13.3154 1.29078 13.0246 1.64948 13.0246ZM6.34433 15.0102C6.34433 14.6515 6.63511 14.3607 6.99381 14.3607H9.66597C10.0247 14.3607 10.3155 14.6515 10.3155 15.0102C10.3155 15.3689 10.0247 15.6596 9.66597 15.6596H6.99381C6.63511 15.6596 6.34433 15.3689 6.34433 15.0102Z" fill="#0091E4"/>
<path fill-rule="evenodd" clip-rule="evenodd" d="M11.3854 7.74603C11.6086 7.63718 11.8743 7.6651 12.0699 7.81797L18.7504 13.037C18.9283 13.176 19.0212 13.3973 18.9959 13.6217C18.9706 13.846 18.8306 14.0411 18.6262 14.1369L15.9314 15.4L14.7548 15.9515L11.9458 17.2683C11.7446 17.3626 11.5092 17.3475 11.3217 17.2283C11.1342 17.1091 11.0206 16.9024 11.0206 16.6802V8.32978C11.0206 8.08147 11.1622 7.85489 11.3854 7.74603Z" fill="#0091E4"/>
<path fill-rule="evenodd" clip-rule="evenodd" d="M15.3776 15.6596C15.6984 15.4992 15.9314 15.4 15.9314 15.4L17.2613 18.0599C17.4217 18.3808 17.2917 18.7709 16.9709 18.9313C16.65 19.0917 16.2599 18.9617 16.0995 18.6408L14.7548 15.9515C14.7548 15.9515 15.0567 15.82 15.3776 15.6596Z" fill="#0091E4"/>
</svg>
