<svg width="20" height="20" viewBox="0 0 20 20" fill="none" xmlns="http://www.w3.org/2000/svg">
<path fill-rule="evenodd" clip-rule="evenodd" d="M10 7.31238C8.51573 7.31238 7.3125 8.51561 7.3125 9.99988C7.3125 11.4841 8.51573 12.6874 10 12.6874C11.4843 12.6874 12.6875 11.4841 12.6875 9.99988C12.6875 8.51561 11.4843 7.31238 10 7.31238ZM8.3125 9.99988C8.3125 9.0679 9.06802 8.31238 10 8.31238C10.932 8.31238 11.6875 9.0679 11.6875 9.99988C11.6875 10.9319 10.932 11.6874 10 11.6874C9.06802 11.6874 8.3125 10.9319 8.3125 9.99988Z" fill="white"/>
<path fill-rule="evenodd" clip-rule="evenodd" d="M8.94588 1.37502C8.76671 1.37502 8.60123 1.47089 8.51212 1.62632L7.57857 3.2546L6.94561 3.51569L5.11935 3.02652C4.94681 2.9803 4.76273 3.02964 4.63643 3.15594L3.15592 4.63644C3.02962 4.76274 2.98029 4.94683 3.0265 5.11936L3.51568 6.94563L3.25458 7.57859L1.62631 8.51213C1.47087 8.60125 1.375 8.76673 1.375 8.9459V11.0423C1.375 11.2206 1.46992 11.3854 1.62414 11.4748L3.25405 12.4202L3.51552 13.054L3.0267 14.8681C2.98015 15.0408 3.02943 15.2253 3.15592 15.3517L4.63643 16.8322C4.76202 16.9578 4.94483 17.0074 5.11666 16.9624L6.94418 16.4837L7.57857 16.7454L8.51212 18.3737C8.60123 18.5291 8.76671 18.625 8.94588 18.625H11.0423C11.2206 18.625 11.3853 18.5301 11.4748 18.3759L12.4201 16.746L13.0554 16.4839L14.8708 16.9622C15.0428 17.0075 15.2259 16.958 15.3517 16.8322L16.8322 15.3517C16.958 15.226 17.0075 15.0428 16.9622 14.8708L16.4839 13.0555L16.7459 12.4202L18.3759 11.4748C18.5301 11.3854 18.625 11.2206 18.625 11.0423V8.9459C18.625 8.76673 18.5291 8.60125 18.3737 8.51213L16.7454 7.57859L16.4837 6.9442L16.9624 5.11667C17.0074 4.94484 16.9578 4.76204 16.8322 4.63644L15.3517 3.15594C15.2252 3.02945 15.0408 2.98017 14.8681 3.02671L13.054 3.51554L12.4201 3.25407L11.4748 1.62416C11.3853 1.46994 11.2206 1.37502 11.0423 1.37502H8.94588ZM8.36106 3.90031L9.23556 2.37502H10.7543L11.6402 3.90248C11.6954 3.99761 11.7804 4.0719 11.882 4.11384L12.8296 4.50469C12.9313 4.54666 13.044 4.55389 13.1503 4.52525L14.8491 4.0675L15.9223 5.14075L15.4739 6.85311C15.4463 6.95841 15.4538 7.06983 15.4953 7.17045L15.8862 8.11798C15.9284 8.22044 16.0036 8.30595 16.0997 8.36108L17.625 9.23558V10.7543L16.0975 11.6402C16.0024 11.6954 15.9281 11.7804 15.8862 11.8821L15.4953 12.8296C15.4537 12.9304 15.4462 13.0421 15.474 13.1476L15.922 14.8478L14.8478 15.922L13.1476 15.4741C13.0421 15.4463 12.9304 15.4537 12.8296 15.4953L11.882 15.8862C11.7804 15.9281 11.6954 16.0024 11.6402 16.0976L10.7543 17.625H9.23556L8.36106 16.0997C8.30593 16.0036 8.22042 15.9285 8.11796 15.8862L7.17044 15.4953C7.06981 15.4538 6.95839 15.4463 6.85309 15.4739L5.14074 15.9223L4.06749 14.8491L4.52524 13.1503C4.55387 13.0441 4.54664 12.9313 4.50468 12.8296L4.11382 11.8821C4.07188 11.7804 3.9976 11.6954 3.90246 11.6402L2.375 10.7543V9.23558L3.9003 8.36108C3.99645 8.30595 4.07156 8.22044 4.11382 8.11798L4.50468 7.17045C4.54655 7.06895 4.55384 6.95648 4.52543 6.85042L4.06713 5.13944L5.13943 4.06715L6.85041 4.52545C6.95647 4.55386 7.06893 4.54656 7.17044 4.50469L8.11796 4.11384C8.22042 4.07157 8.30593 3.99646 8.36106 3.90031Z" fill="white"/>
</svg>
