<svg width="20" height="20" viewBox="0 0 20 20" fill="none" xmlns="http://www.w3.org/2000/svg">
<path d="M2.20605 1.42036C1.92991 1.42036 1.70605 1.64422 1.70605 1.92036V2.85786C1.70605 3.13401 1.92991 3.35786 2.20605 3.35786C2.4822 3.35786 2.70605 3.13401 2.70605 2.85786V2.42036H3.14355C3.4197 2.42036 3.64355 2.19651 3.64355 1.92036C3.64355 1.64422 3.4197 1.42036 3.14355 1.42036H2.20605Z" fill="white"/>
<path d="M5.01855 1.42036C4.74241 1.42036 4.51855 1.64422 4.51855 1.92036C4.51855 2.19651 4.74241 2.42036 5.01855 2.42036H6.89355C7.1697 2.42036 7.39355 2.19651 7.39355 1.92036C7.39355 1.64422 7.1697 1.42036 6.89355 1.42036H5.01855Z" fill="white"/>
<path d="M8.76855 1.42036C8.49241 1.42036 8.26855 1.64422 8.26855 1.92036C8.26855 2.19651 8.49241 2.42036 8.76855 2.42036H10.6436C10.9197 2.42036 11.1436 2.19651 11.1436 1.92036C11.1436 1.64422 10.9197 1.42036 10.6436 1.42036H8.76855Z" fill="white"/>
<path d="M12.5186 1.42036C12.2424 1.42036 12.0186 1.64422 12.0186 1.92036C12.0186 2.19651 12.2424 2.42036 12.5186 2.42036H12.9561V2.85786C12.9561 3.13401 13.1799 3.35786 13.4561 3.35786C13.7322 3.35786 13.9561 3.13401 13.9561 2.85786V1.92036C13.9561 1.64422 13.7322 1.42036 13.4561 1.42036H12.5186Z" fill="white"/>
<path d="M2.70605 4.73286C2.70605 4.45672 2.4822 4.23286 2.20605 4.23286C1.92991 4.23286 1.70605 4.45672 1.70605 4.73286V6.60786C1.70605 6.88401 1.92991 7.10786 2.20605 7.10786C2.4822 7.10786 2.70605 6.88401 2.70605 6.60786V4.73286Z" fill="white"/>
<path d="M13.9561 4.73286C13.9561 4.45672 13.7322 4.23286 13.4561 4.23286C13.1799 4.23286 12.9561 4.45672 12.9561 4.73286V6.60786C12.9561 6.88401 13.1799 7.10786 13.4561 7.10786C13.7322 7.10786 13.9561 6.88401 13.9561 6.60786V4.73286Z" fill="white"/>
<path d="M2.70605 8.48286C2.70605 8.20672 2.4822 7.98286 2.20605 7.98286C1.92991 7.98286 1.70605 8.20672 1.70605 8.48286V10.3579C1.70605 10.634 1.92991 10.8579 2.20605 10.8579C2.4822 10.8579 2.70605 10.634 2.70605 10.3579V8.48286Z" fill="white"/>
<path d="M13.9561 8.48286C13.9561 8.20672 13.7322 7.98286 13.4561 7.98286C13.1799 7.98286 12.9561 8.20672 12.9561 8.48286V10.0086L11.6488 9.14546C11.4908 9.04111 11.2874 9.03501 11.1233 9.1297C10.9593 9.2244 10.8629 9.40363 10.8742 9.59267L11.0737 12.9153C10.9865 12.7686 10.8265 12.6704 10.6436 12.6704H8.76855C8.49241 12.6704 8.26855 12.8942 8.26855 13.1704C8.26855 13.4465 8.49241 13.6704 8.76855 13.6704H10.6436C10.8478 13.6704 11.0235 13.5478 11.1011 13.3723L11.2231 15.404C11.2334 15.577 11.3327 15.7323 11.4853 15.8144C11.6379 15.8965 11.8221 15.8937 11.9722 15.8071L13.7939 14.7553L15.1061 17.0281C15.2442 17.2672 15.55 17.3492 15.7891 17.2111C16.0283 17.073 16.1102 16.7672 15.9721 16.5281L14.6599 14.2553L16.4817 13.2035C16.6318 13.1169 16.7263 12.9587 16.7315 12.7855C16.7367 12.6123 16.6518 12.4487 16.5072 12.3532L13.882 10.6199C13.929 10.5437 13.9561 10.4539 13.9561 10.3579V8.48286Z" fill="white"/>
<path d="M2.70605 12.2329C2.70605 11.9567 2.4822 11.7329 2.20605 11.7329C1.92991 11.7329 1.70605 11.9567 1.70605 12.2329V13.1704C1.70605 13.4465 1.92991 13.6704 2.20605 13.6704H3.14355C3.4197 13.6704 3.64355 13.4465 3.64355 13.1704C3.64355 12.8942 3.4197 12.6704 3.14355 12.6704H2.70605V12.2329Z" fill="white"/>
<path d="M5.01855 12.6704C4.74241 12.6704 4.51855 12.8942 4.51855 13.1704C4.51855 13.4465 4.74241 13.6704 5.01855 13.6704H6.89355C7.1697 13.6704 7.39355 13.4465 7.39355 13.1704C7.39355 12.8942 7.1697 12.6704 6.89355 12.6704H5.01855Z" fill="white"/>
</svg>
