<svg width="20" height="20" viewBox="0 0 20 20" fill="none" xmlns="http://www.w3.org/2000/svg">
<path fill-rule="evenodd" clip-rule="evenodd" d="M13.2464 13.9562C12.0412 14.996 10.471 15.6249 8.75381 15.6249C4.95475 15.6249 1.875 12.5469 1.875 8.74994C1.875 4.95301 4.95475 1.875 8.75381 1.875C12.5529 1.875 15.6326 4.95301 15.6326 8.74994C15.6326 10.4708 15 12.0441 13.9544 13.25L18.4785 17.7715C18.6738 17.9667 18.6739 18.2832 18.4787 18.4786C18.2834 18.6739 17.9669 18.674 17.7715 18.4788L13.2464 13.9562ZM14.6326 8.74994C14.6326 11.994 12.0011 14.6249 8.75381 14.6249C5.5065 14.6249 2.875 11.994 2.875 8.74994C2.875 5.50583 5.5065 2.875 8.75381 2.875C12.0011 2.875 14.6326 5.50583 14.6326 8.74994Z" fill="white"/>
</svg>
