<svg width="20" height="20" viewBox="0 0 20 20" fill="none" xmlns="http://www.w3.org/2000/svg">
<path fill-rule="evenodd" clip-rule="evenodd" d="M8.17039 1.46365C8.27766 1.18427 8.54508 1 8.84325 1H11.0754C11.3717 1 11.6378 1.18202 11.7464 1.45891L12.3025 2.87736C12.6574 2.99135 12.9943 3.13266 13.322 3.29734L14.6945 2.66523C14.9685 2.53904 15.2918 2.59731 15.505 2.81131L17.0965 4.40884C17.3066 4.61975 17.3664 4.93848 17.2472 5.21174L16.6328 6.61964C16.7958 6.9494 16.9359 7.29145 17.0491 7.64147L18.5357 8.21043C18.8152 8.31744 19 8.5867 19 8.88718V11.1019C19 11.3997 18.8185 11.6672 18.5424 11.776L17.112 12.3401C16.9988 12.6951 16.8583 13.0324 16.6943 13.3609L17.3082 14.7678C17.4274 15.041 17.3677 15.3596 17.1577 15.5706L15.5671 17.1681C15.354 17.3822 15.0307 17.4405 14.7567 17.3144L13.3821 16.6817C13.0527 16.8456 12.7108 16.9866 12.3606 17.1006L11.8093 18.5363C11.702 18.8157 11.4346 19 11.1364 19H8.8636C8.56624 19 8.29938 18.8167 8.19154 18.5384L7.63477 17.1017C7.28046 16.9878 6.9441 16.8466 6.61693 16.6822L5.24441 17.3143C4.97042 17.4405 4.64718 17.3823 4.43399 17.1683L2.84248 15.5707C2.63237 15.3598 2.57254 15.0411 2.69178 14.7678L3.30611 13.3599C3.1427 13.0292 3.00227 12.6862 2.88892 12.3351L1.45975 11.7769C1.18257 11.6686 1 11.4006 1 11.1019V8.89809C1 8.60133 1.18028 8.3346 1.4549 8.22503L2.86709 7.66162C2.98038 7.30605 3.12104 6.96818 3.28531 6.63905L2.67143 5.23218C2.55222 4.959 2.61198 4.64035 2.82198 4.42943L4.41251 2.8319C4.62566 2.61782 4.94891 2.55947 5.22295 2.6856L6.59752 3.31829C6.9269 3.15442 7.26886 3.01338 7.6191 2.89937L8.17039 1.46365ZM9.33807 2.44846L8.8371 3.75313C8.75407 3.96935 8.57303 4.13261 8.35008 4.19233C7.87649 4.31917 7.4098 4.51202 6.96919 4.75788C6.76863 4.86979 6.52702 4.87919 6.31846 4.78319L5.07788 4.21217L4.19013 5.10383L4.74596 6.37765C4.83633 6.58475 4.82519 6.82235 4.71586 7.02001C4.4662 7.47137 4.28127 7.91193 4.1598 8.38469C4.10228 8.60859 3.94175 8.79144 3.72777 8.87681L2.44231 9.38966V10.6065L3.74135 11.1139C3.95574 11.1976 4.11749 11.3791 4.17675 11.6023C4.30193 12.0738 4.49253 12.5394 4.73621 12.98C4.84554 13.1777 4.85667 13.4152 4.76631 13.6223L4.21054 14.896L5.09897 15.7878L6.33867 15.2169C6.54726 15.1208 6.78894 15.1302 6.98954 15.2421C7.44063 15.4938 7.88245 15.6811 8.35786 15.8044C8.58251 15.8626 8.76554 16.0258 8.84969 16.243L9.35679 17.5515H10.6416L11.1426 16.2469C11.2256 16.0307 11.4066 15.8674 11.6296 15.8077C12.1032 15.6808 12.5698 15.488 13.0105 15.2421C13.211 15.1302 13.4526 15.1208 13.6612 15.2168L14.9018 15.7878L15.7895 14.8962L15.2337 13.6223C15.1433 13.4152 15.1545 13.1777 15.2638 12.98C15.5134 12.5286 15.6984 12.0881 15.8198 11.6153C15.8776 11.3904 16.0393 11.207 16.2545 11.1221L17.5577 10.6082V9.38621L16.2022 8.86743C15.9856 8.78454 15.8219 8.60217 15.7622 8.37727C15.637 7.90578 15.4464 7.44013 15.2027 6.99957C15.0934 6.80191 15.0823 6.56431 15.1726 6.35721L15.7284 5.08354L14.84 4.19175L13.6003 4.76268C13.3917 4.85875 13.15 4.84938 12.9494 4.73745C12.4983 4.48573 12.0565 4.29842 11.5811 4.1752C11.3574 4.11722 11.1749 3.95514 11.0903 3.73927L10.5843 2.44846H9.33807Z" fill="white"/>
<path fill-rule="evenodd" clip-rule="evenodd" d="M10 11.4485C10.7966 11.4485 11.4423 10.8 11.4423 10C11.4423 9.20004 10.7966 8.55154 10 8.55154C9.20344 8.55154 8.55769 9.20004 8.55769 10C8.55769 10.8 9.20344 11.4485 10 11.4485ZM10 12.8969C11.5931 12.8969 12.8846 11.5999 12.8846 10C12.8846 8.40008 11.5931 7.10309 10 7.10309C8.40687 7.10309 7.11538 8.40008 7.11538 10C7.11538 11.5999 8.40687 12.8969 10 12.8969Z" fill="white"/>
</svg>
