<svg width="20" height="20" viewBox="0 0 20 20" fill="none" xmlns="http://www.w3.org/2000/svg">
<path fill-rule="evenodd" clip-rule="evenodd" d="M1 8.47304C1 4.34271 4.4228 1 8.63808 1C12.8534 1 16.2762 4.34271 16.2762 8.47304C16.2762 10.3434 15.5737 12.0531 14.4138 13.3634L18.7562 17.6101C19.0813 17.9281 19.0813 18.4449 18.7562 18.7629C18.4329 19.079 17.9101 19.079 17.5868 18.7629L13.1969 14.4696C11.9242 15.3972 10.3463 15.9461 8.63808 15.9461C4.4228 15.9461 1 12.6034 1 8.47304ZM8.63808 2.62699C5.3317 2.62699 2.657 5.24744 2.657 8.47304C2.657 11.6986 5.3317 14.3191 8.63808 14.3191C11.9445 14.3191 14.6192 11.6986 14.6192 8.47304C14.6192 5.24744 11.9445 2.62699 8.63808 2.62699Z" fill="white"/>
</svg>
