<svg width="20" height="20" viewBox="0 0 20 20" fill="none" xmlns="http://www.w3.org/2000/svg">
  <path d="M5.125 13.125C6.85089 13.125 8.25 11.7259 8.25 10C8.25 8.27411 6.85089 6.875 5.125 6.875C3.39911 6.875 2 8.27411 2 10C2 11.7259 3.39911 13.125 5.125 13.125Z" fill="white"/>
  <path d="M15.75 6.25C17.4759 6.25 18.875 4.85089 18.875 3.125C18.875 1.39911 17.4759 0 15.75 0C14.0241 0 12.625 1.39911 12.625 3.125C12.625 4.85089 14.0241 6.25 15.75 6.25Z" fill="white"/>
  <path d="M15.75 20C17.4759 20 18.875 18.6009 18.875 16.875C18.875 15.1491 17.4759 13.75 15.75 13.75C14.0241 13.75 12.625 15.1491 12.625 16.875C12.625 18.6009 14.0241 20 15.75 20Z" fill="white"/>
  <path fill-rule="evenodd" clip-rule="evenodd" d="M16.1698 2.85343C16.3198 3.08527 16.2535 3.39483 16.0216 3.54484L6.04538 10.0001L16.0216 16.4553C16.2535 16.6053 16.3198 16.9148 16.1698 17.1467C16.0198 17.3785 15.7102 17.4449 15.4784 17.2948L4.85337 10.4198C4.71098 10.3277 4.625 10.1697 4.625 10.0001C4.625 9.83045 4.71098 9.67241 4.85337 9.58027L15.4784 2.70527C15.7102 2.55526 16.0198 2.62159 16.1698 2.85343Z" fill="white"/>
</svg>
