<svg width="20" height="20" viewBox="0 0 20 20" fill="none" xmlns="http://www.w3.org/2000/svg">
  <path fill-rule="evenodd" clip-rule="evenodd" d="M17.6105 4.0625C17.6105 5.6158 16.3513 6.875 14.798 6.875C13.9435 6.875 13.1781 6.49394 12.6622 5.89248L7.4373 9.0123C7.55853 9.32643 7.625 9.66778 7.625 10.0247C7.625 10.3187 7.57987 10.6022 7.49616 10.8687L12.7824 14.0251C13.2928 13.5006 14.0061 13.1748 14.7955 13.1748C16.3474 13.1748 17.6055 14.434 17.6055 15.9873C17.6055 17.5406 16.3474 18.7998 14.7955 18.7998C13.2436 18.7998 11.9855 17.5406 11.9855 15.9873C11.9855 15.5846 12.07 15.2017 12.2223 14.8554L7.0299 11.755C6.51515 12.4137 5.71328 12.8372 4.8125 12.8372C3.2592 12.8372 2 11.578 2 10.0247C2 8.47136 3.2592 7.21216 4.8125 7.21216C5.64971 7.21216 6.40147 7.57796 6.91669 8.15846L12.1563 5.02986C12.0458 4.72823 11.9855 4.40241 11.9855 4.0625C11.9855 2.5092 13.2447 1.25 14.798 1.25C16.3513 1.25 17.6105 2.5092 17.6105 4.0625Z" fill="white"/>
</svg>
