<svg width="20" height="20" viewBox="0 0 20 20" fill="none" xmlns="http://www.w3.org/2000/svg">
<path d="M17.8054 4.03761C17.8054 5.59091 16.5462 6.85011 14.9929 6.85011C14.1384 6.85011 13.3728 6.469 12.857 5.86746L7.6321 8.98728C7.75335 9.30142 7.81982 9.64279 7.81982 9.99969C7.81982 10.2938 7.77468 10.5774 7.69095 10.8438L12.9775 14.0004C13.4884 13.4758 14.2025 13.1499 14.9927 13.1499C16.546 13.1499 17.8052 14.4091 17.8052 15.9624C17.8052 17.5157 16.546 18.7749 14.9927 18.7749C13.4394 18.7749 12.1802 17.5157 12.1802 15.9624C12.1802 15.5598 12.2648 15.1769 12.4172 14.8306L7.22465 11.7301C6.7099 12.3888 5.90806 12.8122 5.00732 12.8122C3.45402 12.8122 2.19482 11.553 2.19482 9.99969C2.19482 8.44639 3.45402 7.18719 5.00732 7.18719C5.84451 7.18719 6.59625 7.55298 7.11147 8.13344L12.3511 5.00482C12.2407 4.70323 12.1804 4.37746 12.1804 4.03761C12.1804 2.48431 13.4396 1.22511 14.9929 1.22511C16.5462 1.22511 17.8054 2.48431 17.8054 4.03761Z" fill="white"/>
</svg>
