<svg width="20" height="20" viewBox="0 0 20 20" fill="none" xmlns="http://www.w3.org/2000/svg">
<path fill-rule="evenodd" clip-rule="evenodd" d="M10 2.28571C6.02355 2.28571 2.28571 6.02355 2.28571 10C2.28571 13.9765 6.02355 17.7143 10 17.7143C13.9765 17.7143 17.7143 13.9765 17.7143 10C17.7143 6.02355 13.9765 2.28571 10 2.28571ZM1 10C1 5.02944 5.02944 1 10 1C14.9706 1 19 5.02944 19 10C19 14.9706 14.9706 19 10 19C5.02944 19 1 14.9706 1 10Z" fill="white"/>
<path d="M7.42857 10.1697C7.42857 10.3233 7.39737 10.4673 7.33497 10.6017C7.27257 10.7361 7.18857 10.8537 7.08297 10.9545C6.98217 11.0553 6.86217 11.1369 6.72297 11.1993C6.58377 11.2569 6.43497 11.2857 6.27657 11.2857C6.12297 11.2857 5.97657 11.2569 5.83737 11.1993C5.70297 11.1369 5.58537 11.0553 5.48457 10.9545C5.38377 10.8537 5.30217 10.7361 5.23977 10.6017C5.18217 10.4673 5.15337 10.3233 5.15337 10.1697C5.15337 10.0113 5.18217 9.86251 5.23977 9.72332C5.30217 9.58411 5.38377 9.46412 5.48457 9.36331C5.58537 9.26252 5.70297 9.18332 5.83737 9.12571C5.97657 9.06331 6.12297 9.03211 6.27657 9.03211C6.43497 9.03211 6.58377 9.06331 6.72297 9.12571C6.86217 9.18332 6.98217 9.26252 7.08297 9.36331C7.18857 9.46412 7.27257 9.58411 7.33497 9.72332C7.39737 9.86251 7.42857 10.0113 7.42857 10.1697Z" fill="white"/>
<path d="M11.2857 10.1697C11.2857 10.3233 11.2545 10.4673 11.1921 10.6017C11.1297 10.7361 11.0457 10.8537 10.9401 10.9545C10.8393 11.0553 10.7193 11.1369 10.5801 11.1993C10.4409 11.2569 10.2921 11.2857 10.1337 11.2857C9.98011 11.2857 9.83371 11.2569 9.69451 11.1993C9.56011 11.1369 9.44251 11.0553 9.34171 10.9545C9.24091 10.8537 9.15931 10.7361 9.09691 10.6017C9.03931 10.4673 9.01051 10.3233 9.01051 10.1697C9.01051 10.0113 9.03931 9.86251 9.09691 9.72332C9.15931 9.58411 9.24091 9.46412 9.34171 9.36331C9.44251 9.26252 9.56011 9.18332 9.69451 9.12571C9.83371 9.06331 9.98011 9.03211 10.1337 9.03211C10.2921 9.03211 10.4409 9.06331 10.5801 9.12571C10.7193 9.18332 10.8393 9.26252 10.9401 9.36331C11.0457 9.46412 11.1297 9.58411 11.1921 9.72332C11.2545 9.86251 11.2857 10.0113 11.2857 10.1697Z" fill="white"/>
<path d="M15.1429 10.1697C15.1429 10.3233 15.1117 10.4673 15.0493 10.6017C14.9869 10.7361 14.9029 10.8537 14.7973 10.9545C14.6965 11.0553 14.5765 11.1369 14.4373 11.1993C14.2981 11.2569 14.1493 11.2857 13.9909 11.2857C13.8373 11.2857 13.6909 11.2569 13.5517 11.1993C13.4173 11.1369 13.2997 11.0553 13.1989 10.9545C13.0981 10.8537 13.0165 10.7361 12.9541 10.6017C12.8965 10.4673 12.8677 10.3233 12.8677 10.1697C12.8677 10.0113 12.8965 9.86251 12.9541 9.72332C13.0165 9.58411 13.0981 9.46412 13.1989 9.36331C13.2997 9.26252 13.4173 9.18332 13.5517 9.12571C13.6909 9.06331 13.8373 9.03211 13.9909 9.03211C14.1493 9.03211 14.2981 9.06331 14.4373 9.12571C14.5765 9.18332 14.6965 9.26252 14.7973 9.36331C14.9029 9.46412 14.9869 9.58411 15.0493 9.72332C15.1117 9.86251 15.1429 10.0113 15.1429 10.1697Z" fill="white"/>
</svg>
