<svg width="20" height="20" viewBox="0 0 20 20" fill="none" xmlns="http://www.w3.org/2000/svg">
<path fill-rule="evenodd" clip-rule="evenodd" d="M10 17.2917C10.8054 17.2917 11.4583 16.6387 11.4583 15.8333C11.4583 15.0279 10.8054 14.375 10 14.375C9.19459 14.375 8.54167 15.0279 8.54167 15.8333C8.54167 16.6387 9.19459 17.2917 10 17.2917Z" fill="#0091E4"/>
<path fill-rule="evenodd" clip-rule="evenodd" d="M10 17.2917C10.8054 17.2917 11.4583 16.6387 11.4583 15.8333C11.4583 15.0279 10.8054 14.375 10 14.375C9.19459 14.375 8.54167 15.0279 8.54167 15.8333C8.54167 16.6387 9.19459 17.2917 10 17.2917Z" fill="#0091E4"/>
<path fill-rule="evenodd" clip-rule="evenodd" d="M10 17.2917C14.0271 17.2917 17.2917 14.0271 17.2917 10C17.2917 5.97292 14.0271 2.70833 10 2.70833C5.97292 2.70833 2.70833 5.97292 2.70833 10C2.70833 12.99 4.50808 15.5596 7.08333 16.6848C7.97651 17.0751 8.96297 17.2917 10 17.2917ZM10 18.75C14.8325 18.75 18.75 14.8325 18.75 10C18.75 5.16751 14.8325 1.25 10 1.25C5.16751 1.25 1.25 5.16751 1.25 10C1.25 14.8325 5.16751 18.75 10 18.75Z" fill="#0091E4"/>
<path fill-rule="evenodd" clip-rule="evenodd" d="M10 17.2917C14.0271 17.2917 17.2917 14.0271 17.2917 10C17.2917 5.97292 14.0271 2.70833 10 2.70833C5.97292 2.70833 2.70833 5.97292 2.70833 10C2.70833 12.99 4.50808 15.5596 7.08333 16.6848C7.97651 17.0751 8.96297 17.2917 10 17.2917ZM10 18.75C14.8325 18.75 18.75 14.8325 18.75 10C18.75 5.16751 14.8325 1.25 10 1.25C5.16751 1.25 1.25 5.16751 1.25 10C1.25 14.8325 5.16751 18.75 10 18.75Z" fill="#0091E4"/>
<path d="M14.0317 16.0765C12.8769 16.8441 11.4907 17.2917 10 17.2917C11.6108 17.2917 12.9167 15.9857 12.9167 14.375C12.9167 12.7643 11.6108 11.4583 10 11.4583C8.38917 11.4583 7.08333 12.7643 7.08333 14.375C7.08333 15.9857 8.38917 17.2917 10 17.2917C8.96297 17.2917 7.97651 17.0751 7.08333 16.6848C6.6926 16.5141 6.31973 16.3101 5.96828 16.0765C5.74723 15.5535 5.625 14.9785 5.625 14.375C5.625 11.9589 7.58375 10 10 10C12.4162 10 14.375 11.9589 14.375 14.375C14.375 14.9785 14.2528 15.5535 14.0317 16.0765Z" fill="#0091E4"/>
<path d="M14.0317 16.0765C12.8769 16.8441 11.4907 17.2917 10 17.2917C11.6108 17.2917 12.9167 15.9857 12.9167 14.375C12.9167 12.7643 11.6108 11.4583 10 11.4583C8.38917 11.4583 7.08333 12.7643 7.08333 14.375C7.08333 15.9857 8.38917 17.2917 10 17.2917C8.96297 17.2917 7.97651 17.0751 7.08333 16.6848C6.6926 16.5141 6.31973 16.3101 5.96828 16.0765C5.74723 15.5535 5.625 14.9785 5.625 14.375C5.625 11.9589 7.58375 10 10 10C12.4162 10 14.375 11.9589 14.375 14.375C14.375 14.9785 14.2528 15.5535 14.0317 16.0765Z" fill="#0091E4"/>
</svg>
