<svg width="20" height="20" viewBox="0 0 20 20" fill="none" xmlns="http://www.w3.org/2000/svg">
<path fill-rule="evenodd" clip-rule="evenodd" d="M18.75 10C18.75 14.8325 14.8325 18.75 10 18.75C5.16751 18.75 1.25 14.8325 1.25 10C1.25 5.16751 5.16751 1.25 10 1.25C14.8325 1.25 18.75 5.16751 18.75 10ZM9.62278 17.7292C8.94207 17.5604 8.4375 16.9454 8.4375 16.2125C8.4375 15.3495 9.13705 14.65 10 14.65C10.8629 14.65 11.5625 15.3495 11.5625 16.2125C11.5625 16.9454 11.0579 17.5604 10.3772 17.7292C12.0636 17.5416 13.375 16.1114 13.375 14.375C13.375 12.511 11.864 11 10 11C8.13604 11 6.625 12.511 6.625 14.375C6.625 16.1114 7.93637 17.5416 9.62278 17.7292ZM13.5966 16.8667C16.0657 15.5707 17.75 12.9821 17.75 10C17.75 5.71979 14.2802 2.25 10 2.25C5.71979 2.25 2.25 5.71979 2.25 10C2.25 12.9821 3.93425 15.5707 6.4034 16.8667C5.91262 16.1596 5.625 15.3009 5.625 14.375C5.625 11.9588 7.58375 10 10 10C12.4162 10 14.375 11.9588 14.375 14.375C14.375 15.3009 14.0874 16.1596 13.5966 16.8667Z" fill="white"/>
</svg>
