<svg width="20" height="20" viewBox="0 0 20 20" fill="none" xmlns="http://www.w3.org/2000/svg">
<path fill-rule="evenodd" clip-rule="evenodd" d="M11.5679 7.72476L6.34459 11.2636C5.89913 11.5654 5.6622 12.3209 6.15991 13.0148C6.65763 13.7087 7.46899 13.754 7.91444 13.4522L13.1378 9.91342C13.6042 9.59744 14.2458 9.70874 14.571 10.162L16.4025 12.7155C16.7276 13.1688 16.6131 13.7924 16.1467 14.1084L10.9233 17.6472C7.90289 19.6935 3.8666 18.7595 1.84361 15.9391C-0.179368 13.1187 0.315273 9.11497 3.3357 7.06863L8.55905 3.52983C9.02545 3.21385 9.66711 3.32515 9.99224 3.77844L11.8237 6.33188C12.1489 6.78516 12.0343 7.40878 11.5679 7.72476ZM9.168 8.26664C9.21982 8.23153 9.23255 8.16224 9.19642 8.11187L7.36493 5.55843C7.3288 5.50807 7.25751 5.4957 7.20569 5.53081L3.85899 7.79819C1.29032 9.53845 0.833673 12.9759 2.59427 15.4305C4.35488 17.8851 7.83137 18.6579 10.4 16.9176L13.7467 14.6502C13.7986 14.6151 13.8113 14.5458 13.7752 14.4955L11.9437 11.942C11.9075 11.8917 11.8362 11.8793 11.7844 11.9144L8.43773 14.1818C7.55157 14.7821 6.17742 14.5943 5.40925 13.5234C4.64109 12.4524 4.93515 11.1344 5.82131 10.534L9.168 8.26664Z" fill="white" fill-opacity="0.5"/>
<path fill-rule="evenodd" clip-rule="evenodd" d="M14.7664 4.76689C14.8559 5.06171 14.6826 5.37125 14.3793 5.45827L13.1511 5.81061C12.8477 5.89764 12.5292 5.72918 12.4397 5.43436C12.3501 5.13955 12.5235 4.83 12.8268 4.74298L14.055 4.39064C14.3584 4.30361 14.6769 4.47207 14.7664 4.76689Z" fill="white" fill-opacity="0.5"/>
<path fill-rule="evenodd" clip-rule="evenodd" d="M19.3514 11.1592C19.441 11.4541 19.2676 11.7636 18.9643 11.8506L17.7361 12.203C17.4327 12.29 17.1142 12.1215 17.0247 11.8267C16.9352 11.5319 17.1085 11.2223 17.4118 11.1353L18.64 10.783C18.9434 10.696 19.2619 10.8644 19.3514 11.1592Z" fill="white" fill-opacity="0.5"/>
<path fill-rule="evenodd" clip-rule="evenodd" d="M17.039 7.93526C16.7853 7.75162 16.4265 7.80259 16.2376 8.0491L15.4725 9.04716C15.2836 9.29367 15.336 9.64238 15.5897 9.82602C15.8433 10.0097 16.2021 9.95869 16.3911 9.71218L17.1561 8.71412C17.3451 8.46761 17.2926 8.1189 17.039 7.93526Z" fill="white" fill-opacity="0.5"/>
<path fill-rule="evenodd" clip-rule="evenodd" d="M12.323 1.36028C12.0693 1.17663 11.7105 1.2276 11.5216 1.47411L10.7565 2.47217C10.5676 2.71868 10.62 3.06739 10.8737 3.25103C11.1273 3.43467 11.4861 3.38371 11.6751 3.1372L12.4401 2.13913C12.629 1.89262 12.5766 1.54392 12.323 1.36028Z" fill="white" fill-opacity="0.5"/>
</svg>
