<svg width="20" height="20" viewBox="0 0 20 20" fill="none" xmlns="http://www.w3.org/2000/svg">
<path fill-rule="evenodd" clip-rule="evenodd" d="M2 10C2 6.5376 4.80683 3.73077 8.26923 3.73077H13.0385C13.8669 3.73077 14.5385 4.40235 14.5385 5.23077V7.26924C14.5385 8.09766 13.8669 8.76924 13.0385 8.76924H8.11538C7.83924 8.76924 7.61538 8.99309 7.61538 9.26924V10.7308C7.61538 11.0069 7.83924 11.2308 8.11538 11.2308H13.0385C13.8669 11.2308 14.5385 11.9023 14.5385 12.7308V14.7692C14.5385 15.5977 13.8669 16.2692 13.0385 16.2692H8.26923C4.80683 16.2692 2 13.4624 2 10ZM8.26923 4.73077C5.35911 4.73077 3 7.08989 3 10C3 12.9101 5.35911 15.2692 8.26923 15.2692H11.7307V12.2308H8.11538C7.28696 12.2308 6.61538 11.5592 6.61538 10.7308V9.26924C6.61538 8.44081 7.28696 7.76924 8.11538 7.76924H11.7307V4.73077H8.26923Z" fill="white"/>
<path d="M17.9471 4.58409C18.0706 4.83108 17.9705 5.13142 17.7235 5.25491L16.5697 5.83183C16.3227 5.95533 16.0223 5.85522 15.8988 5.60823C15.7753 5.36124 15.8755 5.0609 16.1224 4.93741L17.2763 4.36048C17.5233 4.23699 17.8236 4.3371 17.9471 4.58409Z" fill="white"/>
<path d="M15.8988 7.4687C16.0223 7.22171 16.3227 7.1216 16.5697 7.2451L17.7235 7.82202C17.9705 7.94551 18.0706 8.24585 17.9471 8.49284C17.8236 8.73983 17.5233 8.83994 17.2763 8.71645L16.1224 8.13952C15.8755 8.01603 15.7753 7.71569 15.8988 7.4687Z" fill="white"/>
<path d="M17.7235 12.178C17.9705 12.0545 18.0706 11.7542 17.9471 11.5072C17.8236 11.2602 17.5233 11.1601 17.2763 11.2836L16.1224 11.8605C15.8755 11.984 15.7753 12.2843 15.8988 12.5313C16.0223 12.7783 16.3227 12.8784 16.5697 12.7549L17.7235 12.178Z" fill="white"/>
<path d="M16.5697 14.1682C16.3227 14.0447 16.0223 14.1448 15.8988 14.3918C15.7753 14.6388 15.8755 14.9391 16.1224 15.0626L17.2763 15.6395C17.5233 15.763 17.8236 15.6629 17.9471 15.4159C18.0706 15.1689 17.9705 14.8686 17.7235 14.7451L16.5697 14.1682Z" fill="white"/>
</svg>
