<svg width="20" height="20" viewBox="0 0 20 20" fill="none" xmlns="http://www.w3.org/2000/svg">
<path fill-rule="evenodd" clip-rule="evenodd" d="M12.5046 1.375C11.6762 1.375 11.0046 2.04657 11.0046 2.875V17.125C11.0046 17.9534 11.6762 18.625 12.5046 18.625H17.125C17.9534 18.625 18.625 17.9534 18.625 17.125V2.875C18.625 2.04657 17.9534 1.375 17.125 1.375H12.5046ZM12.0046 2.875C12.0046 2.59886 12.2285 2.375 12.5046 2.375H17.125C17.4012 2.375 17.625 2.59886 17.625 2.875V17.125C17.625 17.4011 17.4012 17.625 17.125 17.625H12.5046C12.2285 17.625 12.0046 17.4011 12.0046 17.125V2.875Z" fill="white"/>
<path d="M2.58798 2.18181C2.67606 2.14529 2.77285 2.125 2.875 2.125H3.36034C3.49841 2.125 3.61034 2.01307 3.61034 1.875C3.61034 1.73693 3.49841 1.625 3.36034 1.625H2.875C2.70597 1.625 2.54418 1.65869 2.39645 1.71995C2.26891 1.77284 2.20839 1.9191 2.26128 2.04664C2.31417 2.17418 2.46044 2.2347 2.58798 2.18181Z" fill="white"/>
<path d="M4.33102 1.625C4.19295 1.625 4.08102 1.73693 4.08102 1.875C4.08102 2.01307 4.19295 2.125 4.33102 2.125H5.3017C5.43977 2.125 5.5517 2.01307 5.5517 1.875C5.5517 1.73693 5.43977 1.625 5.3017 1.625H4.33102Z" fill="white"/>
<path d="M6.27238 1.625C6.1343 1.625 6.02238 1.73693 6.02238 1.875C6.02238 2.01307 6.1343 2.125 6.27238 2.125H7.24305C7.38113 2.125 7.49305 2.01307 7.49305 1.875C7.49305 1.73693 7.38113 1.625 7.24305 1.625H6.27238Z" fill="white"/>
<path d="M8.21373 1.625C8.07566 1.625 7.96373 1.73693 7.96373 1.875C7.96373 2.01307 8.07566 2.125 8.21373 2.125H8.69907C8.80123 2.125 8.89801 2.14529 8.9861 2.18181C9.11364 2.2347 9.2599 2.17418 9.31279 2.04664C9.36568 1.9191 9.30516 1.77284 9.17762 1.71995C9.02989 1.65869 8.8681 1.625 8.69907 1.625H8.21373Z" fill="white"/>
<path d="M2.18181 2.58797C2.2347 2.46043 2.17418 2.31417 2.04664 2.26128C1.9191 2.20839 1.77284 2.26891 1.71995 2.39645C1.65869 2.54418 1.625 2.70597 1.625 2.875V3.42824C1.625 3.56631 1.73693 3.67824 1.875 3.67824C2.01307 3.67824 2.125 3.56631 2.125 3.42824V2.875C2.125 2.77284 2.14529 2.67606 2.18181 2.58797Z" fill="white"/>
<path d="M9.85412 2.39645C9.80124 2.26891 9.65497 2.20839 9.52743 2.26128C9.39989 2.31417 9.33937 2.46044 9.39226 2.58798C9.42879 2.67606 9.44907 2.77285 9.44907 2.875V3.42824C9.44907 3.56631 9.561 3.67824 9.69907 3.67824C9.83714 3.67824 9.94907 3.56631 9.94907 3.42824V2.875C9.94907 2.70597 9.91539 2.54418 9.85412 2.39645Z" fill="white"/>
<path d="M2.125 4.53472C2.125 4.39665 2.01307 4.28472 1.875 4.28472C1.73693 4.28472 1.625 4.39665 1.625 4.53472V5.08796C1.625 5.25699 1.65869 5.41878 1.71995 5.56651C1.77284 5.69405 1.9191 5.75457 2.04664 5.70168C2.17418 5.64879 2.2347 5.50253 2.18181 5.37499C2.14529 5.2869 2.125 5.19012 2.125 5.08796V4.53472Z" fill="white"/>
<path d="M9.94907 4.53472C9.94907 4.39665 9.83714 4.28472 9.69907 4.28472C9.561 4.28472 9.44907 4.39665 9.44907 4.53472V5.08796C9.44907 5.19012 9.42879 5.2869 9.39226 5.37499C9.33937 5.50253 9.39989 5.64879 9.52743 5.70168C9.65497 5.75457 9.80124 5.69406 9.85412 5.56652C9.91539 5.41878 9.94907 5.25699 9.94907 5.08796V4.53472Z" fill="white"/>
<path d="M2.58798 5.78115C2.46044 5.72826 2.31417 5.78878 2.26128 5.91632C2.20839 6.04386 2.26891 6.19013 2.39645 6.24301C2.54418 6.30428 2.70597 6.33796 2.875 6.33796H3.36034C3.49841 6.33796 3.61034 6.22603 3.61034 6.08796C3.61034 5.94989 3.49841 5.83796 3.36034 5.83796H2.875C2.77285 5.83796 2.67606 5.81768 2.58798 5.78115Z" fill="white"/>
<path d="M9.17762 6.24301C9.30516 6.19013 9.36568 6.04386 9.31279 5.91632C9.2599 5.78878 9.11364 5.72826 8.9861 5.78115C8.89801 5.81768 8.80123 5.83796 8.69907 5.83796H8.21373C8.07566 5.83796 7.96373 5.94989 7.96373 6.08796C7.96373 6.22603 8.07566 6.33796 8.21373 6.33796H8.69907C8.8681 6.33796 9.02989 6.30428 9.17762 6.24301Z" fill="white"/>
<path d="M4.33102 5.83796C4.19295 5.83796 4.08102 5.94989 4.08102 6.08796C4.08102 6.22603 4.19295 6.33796 4.33102 6.33796H5.3017C5.43977 6.33796 5.5517 6.22603 5.5517 6.08796C5.5517 5.94989 5.43977 5.83796 5.3017 5.83796H4.33102Z" fill="white"/>
<path d="M6.27238 5.83796C6.13431 5.83796 6.02238 5.94989 6.02238 6.08796C6.02238 6.22603 6.13431 6.33796 6.27238 6.33796H7.24306C7.38113 6.33796 7.49306 6.22603 7.49306 6.08796C7.49306 5.94989 7.38113 5.83796 7.24306 5.83796H6.27238Z" fill="white"/>
<path d="M2.875 8.14352C2.77285 8.14352 2.67606 8.16381 2.58798 8.20033C2.46044 8.25322 2.31417 8.1927 2.26128 8.06516C2.20839 7.93762 2.26891 7.79136 2.39645 7.73847C2.54418 7.67721 2.70597 7.64352 2.875 7.64352H3.36034C3.49841 7.64352 3.61034 7.75545 3.61034 7.89352C3.61034 8.03159 3.49841 8.14352 3.36034 8.14352H2.875Z" fill="white"/>
<path d="M4.08102 7.89352C4.08102 7.75545 4.19295 7.64352 4.33102 7.64352H5.3017C5.43977 7.64352 5.5517 7.75545 5.5517 7.89352C5.5517 8.03159 5.43977 8.14352 5.3017 8.14352H4.33102C4.19295 8.14352 4.08102 8.03159 4.08102 7.89352Z" fill="white"/>
<path d="M6.02238 7.89352C6.02238 7.75545 6.1343 7.64352 6.27238 7.64352H7.24305C7.38113 7.64352 7.49305 7.75545 7.49305 7.89352C7.49305 8.03159 7.38113 8.14352 7.24305 8.14352H6.27238C6.1343 8.14352 6.02238 8.03159 6.02238 7.89352Z" fill="white"/>
<path d="M7.96373 7.89352C7.96373 7.75545 8.07566 7.64352 8.21373 7.64352H8.69907C8.8681 7.64352 9.02989 7.67721 9.17762 7.73847C9.30516 7.79136 9.36568 7.93762 9.31279 8.06516C9.2599 8.1927 9.11364 8.25322 8.9861 8.20033C8.89801 8.16381 8.80123 8.14352 8.69907 8.14352H8.21373C8.07566 8.14352 7.96373 8.03159 7.96373 7.89352Z" fill="white"/>
<path d="M9.52743 8.2798C9.65497 8.22691 9.80124 8.28743 9.85412 8.41497C9.91539 8.5627 9.94907 8.72449 9.94907 8.89352V9.44676C9.94907 9.58483 9.83714 9.69676 9.69907 9.69676C9.561 9.69676 9.44907 9.58483 9.44907 9.44676V8.89352C9.44907 8.79137 9.42879 8.69458 9.39226 8.6065C9.33937 8.47896 9.39989 8.33269 9.52743 8.2798Z" fill="white"/>
<path d="M2.04664 8.2798C2.17418 8.33269 2.2347 8.47896 2.18181 8.6065C2.14529 8.69458 2.125 8.79137 2.125 8.89352V9.44676C2.125 9.58483 2.01307 9.69676 1.875 9.69676C1.73693 9.69676 1.625 9.58483 1.625 9.44676V8.89352C1.625 8.72449 1.65869 8.5627 1.71995 8.41497C1.77284 8.28743 1.9191 8.22691 2.04664 8.2798Z" fill="white"/>
<path d="M9.69907 10.3032C9.83714 10.3032 9.94907 10.4152 9.94907 10.5532V11.1065C9.94907 11.2755 9.91539 11.4373 9.85412 11.585C9.80124 11.7126 9.65497 11.7731 9.52743 11.7202C9.39989 11.6673 9.33937 11.521 9.39226 11.3935C9.42879 11.3054 9.44907 11.2086 9.44907 11.1065V10.5532C9.44907 10.4152 9.561 10.3032 9.69907 10.3032Z" fill="white"/>
<path d="M1.875 10.3032C2.01307 10.3032 2.125 10.4152 2.125 10.5532V11.1065C2.125 11.2086 2.14529 11.3054 2.18181 11.3935C2.2347 11.521 2.17418 11.6673 2.04664 11.7202C1.9191 11.7731 1.77284 11.7126 1.71995 11.585C1.65869 11.4373 1.625 11.2755 1.625 11.1065V10.5532C1.625 10.4152 1.73693 10.3032 1.875 10.3032Z" fill="white"/>
<path d="M9.31279 11.9348C9.36568 12.0624 9.30517 12.2086 9.17763 12.2615C9.02989 12.3228 8.8681 12.3565 8.69907 12.3565H8.21373C8.07566 12.3565 7.96373 12.2446 7.96373 12.1065C7.96373 11.9684 8.07566 11.8565 8.21373 11.8565H8.69907C8.80123 11.8565 8.89801 11.8362 8.9861 11.7997C9.11364 11.7468 9.2599 11.8073 9.31279 11.9348Z" fill="white"/>
<path d="M2.26128 11.9348C2.31417 11.8073 2.46044 11.7468 2.58798 11.7997C2.67606 11.8362 2.77285 11.8565 2.875 11.8565H3.36034C3.49841 11.8565 3.61034 11.9684 3.61034 12.1065C3.61034 12.2446 3.49841 12.3565 3.36034 12.3565H2.875C2.70597 12.3565 2.54418 12.3228 2.39645 12.2615C2.26891 12.2086 2.20839 12.0624 2.26128 11.9348Z" fill="white"/>
<path d="M4.08102 12.1065C4.08102 11.9684 4.19295 11.8565 4.33102 11.8565H5.3017C5.43977 11.8565 5.5517 11.9684 5.5517 12.1065C5.5517 12.2446 5.43977 12.3565 5.3017 12.3565H4.33102C4.19295 12.3565 4.08102 12.2446 4.08102 12.1065Z" fill="white"/>
<path d="M6.02238 12.1065C6.02238 11.9684 6.13431 11.8565 6.27238 11.8565H7.24306C7.38113 11.8565 7.49306 11.9684 7.49306 12.1065C7.49306 12.2446 7.38113 12.3565 7.24306 12.3565H6.27238C6.13431 12.3565 6.02238 12.2446 6.02238 12.1065Z" fill="white"/>
<path d="M2.58798 14.2189C2.67606 14.1823 2.77285 14.162 2.875 14.162H3.36034C3.49841 14.162 3.61034 14.0501 3.61034 13.912C3.61034 13.774 3.49841 13.662 3.36034 13.662H2.875C2.70597 13.662 2.54418 13.6957 2.39645 13.757C2.26891 13.8099 2.20839 13.9561 2.26128 14.0837C2.31417 14.2112 2.46044 14.2717 2.58798 14.2189Z" fill="white"/>
<path d="M4.33102 13.662C4.19295 13.662 4.08102 13.774 4.08102 13.912C4.08102 14.0501 4.19295 14.162 4.33102 14.162H5.3017C5.43977 14.162 5.5517 14.0501 5.5517 13.912C5.5517 13.774 5.43977 13.662 5.3017 13.662H4.33102Z" fill="white"/>
<path d="M6.27238 13.662C6.1343 13.662 6.02238 13.774 6.02238 13.912C6.02238 14.0501 6.1343 14.162 6.27238 14.162H7.24305C7.38113 14.162 7.49305 14.0501 7.49305 13.912C7.49305 13.774 7.38113 13.662 7.24305 13.662H6.27238Z" fill="white"/>
<path d="M8.21373 13.662C8.07566 13.662 7.96373 13.774 7.96373 13.912C7.96373 14.0501 8.07566 14.162 8.21373 14.162H8.69907C8.80123 14.162 8.89801 14.1823 8.9861 14.2189C9.11364 14.2717 9.2599 14.2112 9.31279 14.0837C9.36568 13.9561 9.30516 13.8099 9.17762 13.757C9.02989 13.6957 8.8681 13.662 8.69907 13.662H8.21373Z" fill="white"/>
<path d="M9.85412 14.4335C9.80124 14.3059 9.65497 14.2454 9.52743 14.2983C9.39989 14.3512 9.33937 14.4975 9.39226 14.625C9.42879 14.7131 9.44907 14.8099 9.44907 14.912V15.4653C9.44907 15.6034 9.561 15.7153 9.69907 15.7153C9.83714 15.7153 9.94907 15.6034 9.94907 15.4653V14.912C9.94907 14.743 9.91539 14.5812 9.85412 14.4335Z" fill="white"/>
<path d="M2.18181 14.625C2.2347 14.4975 2.17418 14.3512 2.04664 14.2983C1.9191 14.2454 1.77284 14.3059 1.71995 14.4335C1.65869 14.5812 1.625 14.743 1.625 14.912V15.4653C1.625 15.6034 1.73693 15.7153 1.875 15.7153C2.01307 15.7153 2.125 15.6034 2.125 15.4653V14.912C2.125 14.8099 2.14529 14.7131 2.18181 14.625Z" fill="white"/>
<path d="M9.94907 16.5718C9.94907 16.4337 9.83714 16.3218 9.69907 16.3218C9.561 16.3218 9.44907 16.4337 9.44907 16.5718V17.125C9.44907 17.2272 9.42879 17.3239 9.39226 17.412C9.33937 17.5396 9.39989 17.6858 9.52743 17.7387C9.65497 17.7916 9.80124 17.7311 9.85412 17.6036C9.91539 17.4558 9.94907 17.294 9.94907 17.125V16.5718Z" fill="white"/>
<path d="M2.125 16.5718C2.125 16.4337 2.01307 16.3218 1.875 16.3218C1.73693 16.3218 1.625 16.4337 1.625 16.5718V17.125C1.625 17.294 1.65869 17.4558 1.71995 17.6036C1.77284 17.7311 1.9191 17.7916 2.04664 17.7387C2.17418 17.6858 2.2347 17.5396 2.18181 17.412C2.14529 17.3239 2.125 17.2272 2.125 17.125V16.5718Z" fill="white"/>
<path d="M9.17763 18.2801C9.30517 18.2272 9.36568 18.0809 9.31279 17.9534C9.2599 17.8258 9.11364 17.7653 8.9861 17.8182C8.89801 17.8547 8.80123 17.875 8.69907 17.875H8.21373C8.07566 17.875 7.96373 17.9869 7.96373 18.125C7.96373 18.2631 8.07566 18.375 8.21373 18.375H8.69907C8.8681 18.375 9.02989 18.3413 9.17763 18.2801Z" fill="white"/>
<path d="M2.58798 17.8182C2.46044 17.7653 2.31417 17.8258 2.26128 17.9534C2.20839 18.0809 2.26891 18.2272 2.39645 18.2801C2.54418 18.3413 2.70597 18.375 2.875 18.375H3.36034C3.49841 18.375 3.61034 18.2631 3.61034 18.125C3.61034 17.9869 3.49841 17.875 3.36034 17.875H2.875C2.77285 17.875 2.67606 17.8547 2.58798 17.8182Z" fill="white"/>
<path d="M4.33102 17.875C4.19295 17.875 4.08102 17.9869 4.08102 18.125C4.08102 18.2631 4.19295 18.375 4.33102 18.375H5.3017C5.43977 18.375 5.5517 18.2631 5.5517 18.125C5.5517 17.9869 5.43977 17.875 5.3017 17.875H4.33102Z" fill="white"/>
<path d="M6.27238 17.875C6.13431 17.875 6.02238 17.9869 6.02238 18.125C6.02238 18.2631 6.13431 18.375 6.27238 18.375H7.24306C7.38113 18.375 7.49306 18.2631 7.49306 18.125C7.49306 17.9869 7.38113 17.875 7.24306 17.875H6.27238Z" fill="white"/>
</svg>
