<svg width="20" height="20" viewBox="0 0 20 20" fill="none" xmlns="http://www.w3.org/2000/svg">
<path fill-rule="evenodd" clip-rule="evenodd" d="M12.5 17.8125L17.5 17.8125C17.6726 17.8125 17.8125 17.6726 17.8125 17.5L17.8125 2.5C17.8125 2.32741 17.6726 2.1875 17.5 2.1875L12.5 2.1875C12.3274 2.1875 12.1875 2.32741 12.1875 2.5L12.1875 17.5C12.1875 17.6726 12.3274 17.8125 12.5 17.8125ZM17.5 18.75C18.1904 18.75 18.75 18.1904 18.75 17.5L18.75 2.5C18.75 1.80965 18.1904 1.25 17.5 1.25L12.5 1.25C11.8096 1.25 11.25 1.80965 11.25 2.5L11.25 17.5C11.25 18.1904 11.8096 18.75 12.5 18.75H17.5Z" fill="white"/>
<path fill-rule="evenodd" clip-rule="evenodd" d="M2.93269 1.89815C2.83386 1.89815 2.73891 1.91173 2.64944 1.93684C2.471 1.98694 2.28418 1.88825 2.23216 1.71642C2.18014 1.54459 2.28262 1.36469 2.46106 1.3146C2.6111 1.27248 2.76946 1.25 2.93269 1.25H3.4196C3.60546 1.25 3.75614 1.39509 3.75614 1.57407C3.75614 1.75306 3.60546 1.89815 3.4196 1.89815H2.93269ZM4.80155 1.57407C4.80155 1.39509 4.95223 1.25 5.13809 1.25H6.11191C6.29777 1.25 6.44845 1.39509 6.44845 1.57407C6.44845 1.75306 6.29777 1.89815 6.11191 1.89815H5.13809C4.95223 1.89815 4.80155 1.75306 4.80155 1.57407ZM7.49386 1.57407C7.49386 1.39509 7.64454 1.25 7.8304 1.25H8.31731C8.48054 1.25 8.6389 1.27248 8.78894 1.3146C8.96738 1.36469 9.06986 1.54459 9.01784 1.71642C8.96582 1.88825 8.779 1.98694 8.60056 1.93684C8.51109 1.91173 8.41613 1.89815 8.31731 1.89815H7.8304C7.64454 1.89815 7.49386 1.75306 7.49386 1.57407ZM1.73436 2.19578C1.9128 2.24588 2.01528 2.42578 1.96326 2.59761C1.93718 2.68376 1.92308 2.7752 1.92308 2.87037V3.10481C1.92308 3.28379 1.7724 3.42888 1.58654 3.42888C1.40067 3.42888 1.25 3.28379 1.25 3.10481V2.87037C1.25 2.71318 1.27334 2.56069 1.31708 2.41621C1.3691 2.24438 1.55592 2.14569 1.73436 2.19578ZM9.51564 2.19579C9.69408 2.14569 9.8809 2.24438 9.93292 2.41621C9.97666 2.56069 10 2.71318 10 2.87037V3.10481C10 3.28379 9.84933 3.42888 9.66346 3.42888C9.4776 3.42888 9.32692 3.28379 9.32692 3.10481V2.87037C9.32692 2.7752 9.31282 2.68376 9.28674 2.59761C9.23472 2.42578 9.3372 2.24588 9.51564 2.19579ZM1.58654 3.60816C1.7724 3.60816 1.92308 3.75325 1.92308 3.93223V4.16667C1.92308 4.26183 1.93718 4.35327 1.96326 4.43943C2.01528 4.61126 1.9128 4.79116 1.73436 4.84125C1.55592 4.89134 1.3691 4.79266 1.31708 4.62083C1.27334 4.47635 1.25 4.32385 1.25 4.16667V3.93223C1.25 3.75325 1.40067 3.60816 1.58654 3.60816ZM9.66346 3.60816C9.84933 3.60816 10 3.75325 10 3.93223V4.16667C10 4.32385 9.97666 4.47635 9.93292 4.62083C9.8809 4.79266 9.69408 4.89134 9.51564 4.84125C9.3372 4.79116 9.23472 4.61126 9.28674 4.43943C9.31282 4.35327 9.32692 4.26183 9.32692 4.16667V3.93223C9.32692 3.75325 9.4776 3.60816 9.66346 3.60816ZM2.23216 5.32061C2.28418 5.14879 2.471 5.0501 2.64944 5.10019C2.73891 5.12531 2.83387 5.13889 2.93269 5.13889H3.4196C3.60546 5.13889 3.75614 5.28398 3.75614 5.46296C3.75614 5.64194 3.60546 5.78704 3.4196 5.78704H2.93269C2.76946 5.78704 2.6111 5.76456 2.46106 5.72244C2.28262 5.67235 2.18014 5.49244 2.23216 5.32061ZM9.01784 5.32061C9.06986 5.49244 8.96738 5.67235 8.78894 5.72244C8.6389 5.76456 8.48054 5.78704 8.31731 5.78704H7.8304C7.64454 5.78704 7.49386 5.64194 7.49386 5.46296C7.49386 5.28398 7.64454 5.13889 7.8304 5.13889H8.31731C8.41613 5.13889 8.51109 5.12531 8.60056 5.10019C8.779 5.0501 8.96582 5.14879 9.01784 5.32061ZM4.80155 5.46296C4.80155 5.28398 4.95223 5.13889 5.13809 5.13889H6.11191C6.29777 5.13889 6.44844 5.28398 6.44844 5.46296C6.44844 5.64194 6.29777 5.78704 6.11191 5.78704H5.13809C4.95223 5.78704 4.80155 5.64194 4.80155 5.46296ZM2.93269 8.37963C2.83386 8.37963 2.73891 8.39321 2.64944 8.41832C2.471 8.46842 2.28418 8.36973 2.23216 8.1979C2.18014 8.02607 2.28262 7.84617 2.46106 7.79608C2.6111 7.75396 2.76946 7.73148 2.93269 7.73148H3.4196C3.60546 7.73148 3.75614 7.87657 3.75614 8.05555C3.75614 8.23453 3.60546 8.37963 3.4196 8.37963H2.93269ZM4.80155 8.05555C4.80155 7.87657 4.95223 7.73148 5.13809 7.73148H6.11191C6.29777 7.73148 6.44845 7.87657 6.44845 8.05555C6.44845 8.23453 6.29777 8.37963 6.11191 8.37963H5.13809C4.95223 8.37963 4.80155 8.23453 4.80155 8.05555ZM7.49386 8.05555C7.49386 7.87657 7.64454 7.73148 7.8304 7.73148H8.31731C8.48054 7.73148 8.6389 7.75396 8.78894 7.79608C8.96738 7.84617 9.06986 8.02607 9.01784 8.1979C8.96582 8.36973 8.779 8.46842 8.60056 8.41832C8.51109 8.39321 8.41613 8.37963 8.31731 8.37963H7.8304C7.64454 8.37963 7.49386 8.23453 7.49386 8.05555ZM1.73436 8.67726C1.9128 8.72736 2.01528 8.90726 1.96326 9.07909C1.93718 9.16524 1.92308 9.25668 1.92308 9.35185V9.58629C1.92308 9.76527 1.7724 9.91036 1.58654 9.91036C1.40067 9.91036 1.25 9.76527 1.25 9.58629V9.35185C1.25 9.19467 1.27334 9.04217 1.31708 8.89769C1.3691 8.72586 1.55592 8.62717 1.73436 8.67726ZM9.51564 8.67726C9.69408 8.62717 9.8809 8.72586 9.93292 8.89769C9.97666 9.04217 10 9.19467 10 9.35185V9.58629C10 9.76527 9.84933 9.91036 9.66346 9.91036C9.4776 9.91036 9.32692 9.76527 9.32692 9.58629V9.35185C9.32692 9.25668 9.31282 9.16525 9.28674 9.07909C9.23472 8.90726 9.3372 8.72736 9.51564 8.67726ZM1.58654 10.0896C1.7724 10.0896 1.92308 10.2347 1.92308 10.4137V10.6481C1.92308 10.7433 1.93718 10.8348 1.96326 10.9209C2.01528 11.0927 1.9128 11.2726 1.73436 11.3227C1.55592 11.3728 1.3691 11.2741 1.31708 11.1023C1.27334 10.9578 1.25 10.8053 1.25 10.6481V10.4137C1.25 10.2347 1.40067 10.0896 1.58654 10.0896ZM9.66346 10.0896C9.84933 10.0896 10 10.2347 10 10.4137V10.6481C10 10.8053 9.97666 10.9578 9.93292 11.1023C9.8809 11.2741 9.69408 11.3728 9.51564 11.3227C9.3372 11.2726 9.23472 11.0927 9.28674 10.9209C9.31282 10.8348 9.32692 10.7433 9.32692 10.6481V10.4137C9.32692 10.2347 9.4776 10.0896 9.66346 10.0896ZM2.23216 11.8021C2.28418 11.6303 2.471 11.5316 2.64944 11.5817C2.73891 11.6068 2.83387 11.6204 2.93269 11.6204H3.4196C3.60546 11.6204 3.75614 11.7655 3.75614 11.9444C3.75614 12.1234 3.60546 12.2685 3.4196 12.2685H2.93269C2.76946 12.2685 2.6111 12.246 2.46106 12.2039C2.28262 12.1538 2.18014 11.9739 2.23216 11.8021ZM9.01784 11.8021C9.06986 11.9739 8.96738 12.1538 8.78894 12.2039C8.6389 12.246 8.48054 12.2685 8.31731 12.2685H7.8304C7.64454 12.2685 7.49386 12.1234 7.49386 11.9444C7.49386 11.7655 7.64454 11.6204 7.8304 11.6204H8.31731C8.41613 11.6204 8.51109 11.6068 8.60056 11.5817C8.779 11.5316 8.96582 11.6303 9.01784 11.8021ZM4.80155 11.9444C4.80155 11.7655 4.95223 11.6204 5.13809 11.6204H6.11191C6.29777 11.6204 6.44844 11.7655 6.44844 11.9444C6.44844 12.1234 6.29777 12.2685 6.11191 12.2685H5.13809C4.95223 12.2685 4.80155 12.1234 4.80155 11.9444ZM2.93269 14.8611C2.83386 14.8611 2.73891 14.8747 2.64944 14.8998C2.471 14.9499 2.28418 14.8512 2.23216 14.6794C2.18014 14.5076 2.28262 14.3277 2.46106 14.2776C2.6111 14.2354 2.76946 14.213 2.93269 14.213H3.4196C3.60546 14.213 3.75614 14.3581 3.75614 14.537C3.75614 14.716 3.60546 14.8611 3.4196 14.8611H2.93269ZM4.80155 14.537C4.80155 14.3581 4.95223 14.213 5.13809 14.213H6.11191C6.29777 14.213 6.44845 14.3581 6.44845 14.537C6.44845 14.716 6.29777 14.8611 6.11191 14.8611H5.13809C4.95223 14.8611 4.80155 14.716 4.80155 14.537ZM7.49386 14.537C7.49386 14.3581 7.64454 14.213 7.8304 14.213H8.31731C8.48054 14.213 8.6389 14.2354 8.78894 14.2776C8.96738 14.3277 9.06986 14.5076 9.01784 14.6794C8.96582 14.8512 8.779 14.9499 8.60056 14.8998C8.51109 14.8747 8.41613 14.8611 8.31731 14.8611H7.8304C7.64454 14.8611 7.49386 14.716 7.49386 14.537ZM1.73436 15.1587C1.9128 15.2088 2.01528 15.3887 1.96326 15.5606C1.93718 15.6467 1.92308 15.7382 1.92308 15.8333V16.0678C1.92308 16.2467 1.7724 16.3918 1.58654 16.3918C1.40067 16.3918 1.25 16.2467 1.25 16.0678V15.8333C1.25 15.6761 1.27334 15.5237 1.31708 15.3792C1.3691 15.2073 1.55592 15.1087 1.73436 15.1587ZM9.51564 15.1587C9.69408 15.1087 9.8809 15.2073 9.93292 15.3792C9.97666 15.5237 10 15.6761 10 15.8333V16.0678C10 16.2467 9.84933 16.3918 9.66346 16.3918C9.4776 16.3918 9.32692 16.2467 9.32692 16.0678V15.8333C9.32692 15.7382 9.31282 15.6467 9.28674 15.5606C9.23472 15.3887 9.3372 15.2088 9.51564 15.1587ZM1.58654 16.5711C1.7724 16.5711 1.92308 16.7162 1.92308 16.8952V17.1296C1.92308 17.2248 1.93718 17.3162 1.96326 17.4024C2.01528 17.5742 1.9128 17.7541 1.73436 17.8042C1.55592 17.8543 1.3691 17.7556 1.31708 17.5838C1.27334 17.4393 1.25 17.2868 1.25 17.1296V16.8952C1.25 16.7162 1.40067 16.5711 1.58654 16.5711ZM9.66346 16.5711C9.84933 16.5711 10 16.7162 10 16.8952V17.1296C10 17.2868 9.97666 17.4393 9.93292 17.5838C9.8809 17.7556 9.69408 17.8543 9.51564 17.8042C9.3372 17.7541 9.23472 17.5742 9.28674 17.4024C9.31282 17.3162 9.32692 17.2248 9.32692 17.1296V16.8952C9.32692 16.7162 9.4776 16.5711 9.66346 16.5711ZM2.23216 18.2836C2.28418 18.1117 2.471 18.0131 2.64944 18.0632C2.73891 18.0883 2.83387 18.1018 2.93269 18.1018H3.4196C3.60546 18.1018 3.75614 18.2469 3.75614 18.4259C3.75614 18.6049 3.60546 18.75 3.4196 18.75H2.93269C2.76946 18.75 2.6111 18.7275 2.46106 18.6854C2.28262 18.6353 2.18014 18.4554 2.23216 18.2836ZM9.01784 18.2836C9.06986 18.4554 8.96738 18.6353 8.78894 18.6854C8.6389 18.7275 8.48054 18.75 8.31731 18.75H7.8304C7.64454 18.75 7.49386 18.6049 7.49386 18.4259C7.49386 18.2469 7.64454 18.1018 7.8304 18.1018H8.31731C8.41613 18.1018 8.51109 18.0883 8.60056 18.0632C8.779 18.0131 8.96582 18.1117 9.01784 18.2836ZM4.80155 18.4259C4.80155 18.2469 4.95223 18.1018 5.13809 18.1018H6.11191C6.29777 18.1018 6.44844 18.2469 6.44844 18.4259C6.44844 18.6049 6.29777 18.75 6.11191 18.75H5.13809C4.95223 18.75 4.80155 18.6049 4.80155 18.4259Z" fill="white"/>
</svg>
