<svg width="20" height="20" viewBox="0 0 20 20" fill="none" xmlns="http://www.w3.org/2000/svg">
<path d="M5.27145 18.4786L0.896446 14.1036C0.701185 13.9083 0.701185 13.5917 0.896446 13.3964C1.09171 13.2012 1.40829 13.2012 1.60355 13.3964L5.125 16.9179V1.875C5.125 1.59886 5.34886 1.375 5.625 1.375C5.90114 1.375 6.125 1.59886 6.125 1.875V16.9179L9.64645 13.3964C9.84171 13.2012 10.1583 13.2012 10.3536 13.3964C10.5488 13.5917 10.5488 13.9083 10.3536 14.1036L5.97855 18.4786C5.78329 18.6738 5.46671 18.6738 5.27145 18.4786Z" fill="white"/>
<path d="M11.8379 12.1875C11.8379 11.9114 12.0617 11.6875 12.3379 11.6875H16.5046C16.7807 11.6875 17.0046 11.9114 17.0046 12.1875C17.0046 12.4636 16.7807 12.6875 16.5046 12.6875H12.3379C12.0617 12.6875 11.8379 12.4636 11.8379 12.1875Z" fill="white"/>
<path d="M12.3379 16.0625C12.0617 16.0625 11.8379 16.2864 11.8379 16.5625C11.8379 16.8386 12.0617 17.0625 12.3379 17.0625H18.5879C18.864 17.0625 19.0879 16.8386 19.0879 16.5625C19.0879 16.2864 18.864 16.0625 18.5879 16.0625H12.3379Z" fill="white"/>
<path d="M11.8379 3.4375C11.8379 3.16136 12.0617 2.9375 12.3379 2.9375H13.3796C13.6557 2.9375 13.8796 3.16136 13.8796 3.4375C13.8796 3.71364 13.6557 3.9375 13.3796 3.9375H12.3379C12.0617 3.9375 11.8379 3.71364 11.8379 3.4375Z" fill="white"/>
<path d="M12.3379 7.3125C12.0617 7.3125 11.8379 7.53636 11.8379 7.8125C11.8379 8.08864 12.0617 8.3125 12.3379 8.3125H15.4629C15.739 8.3125 15.9629 8.08864 15.9629 7.8125C15.9629 7.53636 15.739 7.3125 15.4629 7.3125H12.3379Z" fill="white"/>
</svg>
