<svg width="20" height="20" viewBox="0 0 20 20" fill="none" xmlns="http://www.w3.org/2000/svg">
<path d="M5.27145 1.52145C5.46671 1.32618 5.78329 1.32618 5.97855 1.52145L10.3536 5.89645C10.5488 6.09171 10.5488 6.40829 10.3536 6.60355C10.1583 6.79882 9.84171 6.79882 9.64645 6.60355L6.125 3.08211V18.125C6.125 18.4011 5.90114 18.625 5.625 18.625C5.34886 18.625 5.125 18.4011 5.125 18.125V3.08211L1.60355 6.60355C1.40829 6.79882 1.09171 6.79882 0.896447 6.60355C0.701184 6.40829 0.701184 6.09171 0.896447 5.89645L5.27145 1.52145Z" fill="white"/>
<path d="M11.8379 12.1875C11.8379 11.9114 12.0617 11.6875 12.3379 11.6875H16.5046C16.7807 11.6875 17.0046 11.9114 17.0046 12.1875C17.0046 12.4636 16.7807 12.6875 16.5046 12.6875H12.3379C12.0617 12.6875 11.8379 12.4636 11.8379 12.1875Z" fill="white"/>
<path d="M12.3379 16.0625C12.0617 16.0625 11.8379 16.2864 11.8379 16.5625C11.8379 16.8386 12.0617 17.0625 12.3379 17.0625H18.5879C18.864 17.0625 19.0879 16.8386 19.0879 16.5625C19.0879 16.2864 18.864 16.0625 18.5879 16.0625H12.3379Z" fill="white"/>
<path d="M11.8379 3.4375C11.8379 3.16136 12.0617 2.9375 12.3379 2.9375H13.3796C13.6557 2.9375 13.8796 3.16136 13.8796 3.4375C13.8796 3.71364 13.6557 3.9375 13.3796 3.9375H12.3379C12.0617 3.9375 11.8379 3.71364 11.8379 3.4375Z" fill="white"/>
<path d="M12.3379 7.3125C12.0617 7.3125 11.8379 7.53636 11.8379 7.8125C11.8379 8.08864 12.0617 8.3125 12.3379 8.3125H15.4629C15.739 8.3125 15.9629 8.08864 15.9629 7.8125C15.9629 7.53636 15.739 7.3125 15.4629 7.3125H12.3379Z" fill="white"/>
</svg>
