<svg width="20" height="20" viewBox="0 0 20 20" fill="none" xmlns="http://www.w3.org/2000/svg">
<path fill-rule="evenodd" clip-rule="evenodd" d="M5.17228 18.5557C5.42231 18.8148 5.82769 18.8148 6.07772 18.5557L9.81248 14.6867C10.0625 14.4277 10.0625 14.0077 9.81248 13.7487C9.56245 13.4897 9.15707 13.4897 8.90704 13.7487L6.26524 16.4855L6.26524 1.91327C6.26524 1.54695 5.9786 1.25 5.625 1.25C5.2714 1.25 4.98476 1.54695 4.98476 1.91327L4.98476 16.4855L2.34296 13.7487C2.09293 13.4897 1.68755 13.4897 1.43752 13.7487C1.18749 14.0077 1.18749 14.4277 1.43752 14.6867L5.17228 18.5557Z" fill="#0091E4"/>
<path fill-rule="evenodd" clip-rule="evenodd" d="M14.8277 1.44427C14.5777 1.18524 14.1723 1.18524 13.9223 1.44427L10.1875 5.31331C9.93749 5.57233 9.93749 5.99229 10.1875 6.25131C10.4376 6.51033 10.8429 6.51033 11.093 6.25131L13.7348 3.51453V18.0867C13.7348 18.453 14.0214 18.75 14.375 18.75C14.7286 18.75 15.0152 18.453 15.0152 18.0867V3.51453L17.657 6.25131C17.9071 6.51033 18.3124 6.51033 18.5625 6.25131C18.8125 5.99229 18.8125 5.57233 18.5625 5.31331L14.8277 1.44427Z" fill="#0091E4"/>
</svg>
