<svg width="20" height="20" viewBox="0 0 20 20" fill="none" xmlns="http://www.w3.org/2000/svg">
<path d="M4.82772 18.5557C4.57769 18.8148 4.17231 18.8148 3.92228 18.5557L0.187523 14.6867C-0.0625078 14.4277 -0.0625078 14.0077 0.187523 13.7487C0.437554 13.4897 0.842934 13.4897 1.09297 13.7487L3.73476 16.4855V3.16327C3.73476 2.79695 4.0214 2.5 4.375 2.5C4.7286 2.5 5.01524 2.79695 5.01524 3.16327V16.4855L7.65703 13.7487C7.90707 13.4897 8.31245 13.4897 8.56248 13.7487C8.81251 14.0077 8.81251 14.4277 8.56248 14.6867L4.82772 18.5557Z" fill="#0091E4"/>
<path d="M10 3.125C10 3.47018 10.2798 3.75 10.625 3.75H18.125C18.4702 3.75 18.75 3.47018 18.75 3.125C18.75 2.77982 18.4702 2.5 18.125 2.5H10.625C10.2798 2.5 10 2.77982 10 3.125Z" fill="#0091E4"/>
<path d="M10.625 8.25012C10.2798 8.25012 10 7.9703 10 7.62512C10 7.27994 10.2798 7.00012 10.625 7.00012H15.625C15.9702 7.00012 16.25 7.27994 16.25 7.62512C16.25 7.9703 15.9702 8.25012 15.625 8.25012H10.625Z" fill="#0091E4"/>
<path d="M10 12.2501C10 12.5952 10.2798 12.8751 10.625 12.8751H14.375C14.7202 12.8751 15 12.5952 15 12.2501C15 11.9049 14.7202 11.6251 14.375 11.6251H10.625C10.2798 11.6251 10 11.9049 10 12.2501Z" fill="#0091E4"/>
<path d="M10.625 17.5C10.2798 17.5 10 17.2202 10 16.875C10 16.5298 10.2798 16.25 10.625 16.25H11.875C12.2202 16.25 12.5 16.5298 12.5 16.875C12.5 17.2202 12.2202 17.5 11.875 17.5H10.625Z" fill="#0091E4"/>
</svg>
