<svg width="20" height="20" viewBox="0 0 20 20" fill="none" xmlns="http://www.w3.org/2000/svg">
<path fill-rule="evenodd" clip-rule="evenodd" d="M5.27145 1.52145C5.46671 1.32618 5.78329 1.32618 5.97855 1.52145L10.3536 5.89645C10.5488 6.09171 10.5488 6.40829 10.3536 6.60355C10.1583 6.79882 9.84171 6.79882 9.64645 6.60355L6.125 3.08211V18.125C6.125 18.4011 5.90114 18.625 5.625 18.625C5.34886 18.625 5.125 18.4011 5.125 18.125V3.08211L1.60355 6.60355C1.40829 6.79882 1.09171 6.79882 0.896447 6.60355C0.701184 6.40829 0.701184 6.09171 0.896447 5.89645L5.27145 1.52145Z" fill="white"/>
<path fill-rule="evenodd" clip-rule="evenodd" d="M14.7286 18.4786C14.5333 18.6738 14.2167 18.6738 14.0214 18.4786L9.64645 14.1036C9.45118 13.9083 9.45118 13.5917 9.64645 13.3964C9.84171 13.2012 10.1583 13.2012 10.3536 13.3964L13.875 16.9179V1.875C13.875 1.59886 14.0989 1.375 14.375 1.375C14.6511 1.375 14.875 1.59886 14.875 1.875V16.9179L18.3964 13.3964C18.5917 13.2012 18.9083 13.2012 19.1036 13.3964C19.2988 13.5917 19.2988 13.9083 19.1036 14.1036L14.7286 18.4786Z" fill="white"/>
</svg>
