<svg width="20" height="20" viewBox="0 0 20 20" fill="none" xmlns="http://www.w3.org/2000/svg">
<path d="M4.82772 1.44427C4.57769 1.18524 4.17231 1.18524 3.92228 1.44427L0.187523 5.31331C-0.0625078 5.57233 -0.0625078 5.99229 0.187523 6.25131C0.437554 6.51033 0.842934 6.51033 1.09297 6.25131L3.73476 3.51453V16.8367C3.73476 17.203 4.0214 17.5 4.375 17.5C4.7286 17.5 5.01524 17.203 5.01524 16.8367V3.51453L7.65703 6.25131C7.90707 6.51033 8.31245 6.51033 8.56248 6.25131C8.81251 5.99229 8.81251 5.57233 8.56248 5.31331L4.82772 1.44427Z" fill="#0091E4"/>
<path d="M10 16.875C10 16.5298 10.2798 16.25 10.625 16.25H18.125C18.4702 16.25 18.75 16.5298 18.75 16.875C18.75 17.2202 18.4702 17.5 18.125 17.5H10.625C10.2798 17.5 10 17.2202 10 16.875Z" fill="#0091E4"/>
<path d="M10.625 11.7499C10.2798 11.7499 10 12.0297 10 12.3749C10 12.7201 10.2798 12.9999 10.625 12.9999H15.625C15.9702 12.9999 16.25 12.7201 16.25 12.3749C16.25 12.0297 15.9702 11.7499 15.625 11.7499H10.625Z" fill="#0091E4"/>
<path d="M10 7.74994C10 7.40476 10.2798 7.12494 10.625 7.12494H14.375C14.7202 7.12494 15 7.40476 15 7.74994C15 8.09512 14.7202 8.37494 14.375 8.37494H10.625C10.2798 8.37494 10 8.09512 10 7.74994Z" fill="#0091E4"/>
<path d="M10.625 2.5C10.2798 2.5 10 2.77982 10 3.125C10 3.47018 10.2798 3.75 10.625 3.75H11.875C12.2202 3.75 12.5 3.47018 12.5 3.125C12.5 2.77982 12.2202 2.5 11.875 2.5H10.625Z" fill="#0091E4"/>
</svg>
