<svg width="20" height="20" viewBox="0 0 20 20" fill="none" xmlns="http://www.w3.org/2000/svg">
<path fill-rule="evenodd" clip-rule="evenodd" d="M5.40714 2.50046C5.7116 2.51144 5.97745 2.71956 6.07378 3.02233L7.09201 6.22254L7.71533 5.35185C7.87154 5.13366 8.12694 5.01927 8.38543 5.05173C8.64393 5.08419 8.86629 5.25858 8.96884 5.50928L10.2377 8.61111H14.618C14.9318 8.61111 15.2104 8.82151 15.3097 9.13344L16.6476 13.3385L17.3505 11.6204C17.5091 11.2326 17.9377 11.053 18.3079 11.2192C18.678 11.3854 18.8495 11.8344 18.6909 12.2222L17.2326 15.787C17.1133 16.0785 16.8345 16.2625 16.5321 16.2493C16.2296 16.2362 15.9664 16.0285 15.8706 15.7277L14.0924 10.1389H9.75695C9.46527 10.1389 9.20165 9.95678 9.08676 9.67591L8.12526 7.32553L7.42367 8.30556C7.26095 8.53285 6.99125 8.64676 6.72355 8.60125C6.45585 8.55574 6.23438 8.35833 6.14861 8.08879L5.31007 5.4533L2.65357 12.2121C2.50024 12.6023 2.07409 12.7883 1.70172 12.6276C1.32935 12.467 1.15178 12.0206 1.30511 11.6304L4.70782 2.97304C4.82381 2.67793 5.10269 2.48947 5.40714 2.50046Z" fill="white"/>
</svg>
