<svg width="20" height="20" viewBox="0 0 20 20" fill="none" xmlns="http://www.w3.org/2000/svg">
<path fill-rule="evenodd" clip-rule="evenodd" d="M5.28828 2.00058C5.48616 1.99103 5.67101 2.09921 5.7596 2.2764L7.24929 5.25577L8.02137 4.09765C8.1273 3.93876 8.31448 3.85408 8.50376 3.87943C8.69303 3.90477 8.85134 4.03572 8.91173 4.21689L10.0749 7.7065L14.8087 8.88993C14.991 8.93551 15.1323 9.07946 15.1746 9.26257L16.6908 15.8327L17.3482 14.1893C17.4507 13.9329 17.7417 13.8082 17.9981 13.9108C18.2545 14.0133 18.3792 14.3043 18.2766 14.5607L17.0266 17.6857C16.9455 17.8886 16.7419 18.0153 16.524 17.9985C16.3061 17.9817 16.1243 17.8254 16.0752 17.6124L14.269 9.78581L9.56612 8.61007C9.40028 8.56861 9.26711 8.44529 9.21305 8.28312L8.28633 5.50297L7.60342 6.52735C7.50455 6.67565 7.33421 6.76011 7.15632 6.74904C6.97843 6.73796 6.81989 6.63303 6.74018 6.47361L5.37213 3.73752L2.65406 10.8045C2.55493 11.0622 2.26564 11.1908 2.0079 11.0917C1.75016 10.9925 1.62159 10.7033 1.72072 10.4455L4.84572 2.32051C4.91683 2.13561 5.09041 2.01014 5.28828 2.00058Z" fill="white"/>
</svg>
