<svg width="20" height="20" viewBox="0 0 20 20" fill="none" xmlns="http://www.w3.org/2000/svg">
<path fill-rule="evenodd" clip-rule="evenodd" d="M3.125 2.5C2.77982 2.5 2.5 2.77982 2.5 3.125V11.875C2.5 12.2202 2.77982 12.5 3.125 12.5H6.25V8.125C6.25 7.08947 7.08947 6.25 8.125 6.25H12.5V3.125C12.5 2.77982 12.2202 2.5 11.875 2.5H3.125ZM1.25 3.125C1.25 2.08947 2.08947 1.25 3.125 1.25H11.875C12.9105 1.25 13.75 2.08947 13.75 3.125V7.5H8.125C7.77982 7.5 7.5 7.77982 7.5 8.125V13.75H3.125C2.08947 13.75 1.25 12.9105 1.25 11.875V3.125Z" fill="white"/>
<path fill-rule="evenodd" clip-rule="evenodd" d="M17.2551 18.294C17.1336 18.3265 17.0062 18.3438 16.875 18.3438H16.5833C16.4625 18.3438 16.3646 18.2458 16.3646 18.125C16.3646 18.0042 16.4625 17.9062 16.5833 17.9062H16.875C16.9677 17.9062 17.0572 17.8941 17.1422 17.8714C17.2589 17.8402 17.3788 17.9095 17.41 18.0262C17.4412 18.1429 17.3718 18.2628 17.2551 18.294ZM15.6354 18.125C15.6354 18.2458 15.5375 18.3438 15.4167 18.3438H14.8333C14.7125 18.3438 14.6146 18.2458 14.6146 18.125C14.6146 18.0042 14.7125 17.9062 14.8333 17.9062H15.4167C15.5375 17.9062 15.6354 18.0042 15.6354 18.125ZM13.8854 18.125C13.8854 18.2458 13.7875 18.3438 13.6667 18.3438H13.0833C12.9625 18.3438 12.8646 18.2458 12.8646 18.125C12.8646 18.0042 12.9625 17.9062 13.0833 17.9062H13.6667C13.7875 17.9062 13.8854 18.0042 13.8854 18.125ZM12.1354 18.125C12.1354 18.2458 12.0375 18.3438 11.9167 18.3438L11.3333 18.3437C11.2125 18.3437 11.1146 18.2458 11.1146 18.125C11.1146 18.0042 11.2125 17.9062 11.3333 17.9062H11.9167C12.0375 17.9062 12.1354 18.0042 12.1354 18.125ZM10.3854 18.125C10.3854 18.2458 10.2875 18.3437 10.1667 18.3437H9.58333C9.46252 18.3437 9.36458 18.2458 9.36458 18.125C9.36458 18.0042 9.46252 17.9062 9.58333 17.9062H10.1667C10.2875 17.9062 10.3854 18.0042 10.3854 18.125ZM8.63542 18.125C8.63542 18.2458 8.53748 18.3437 8.41667 18.3437H8.125C7.99383 18.3437 7.86636 18.3265 7.74487 18.294C7.62815 18.2628 7.55883 18.1429 7.59003 18.0262C7.62123 17.9095 7.74113 17.8402 7.85785 17.8714C7.94281 17.8941 8.03232 17.9062 8.125 17.9062H8.41667C8.53748 17.9062 8.63542 18.0042 8.63542 18.125ZM6.97379 17.41C6.85708 17.4412 6.73717 17.3718 6.70597 17.2551C6.6735 17.1336 6.65625 17.0062 6.65625 16.875V16.5625C6.65625 16.4417 6.75419 16.3437 6.875 16.3437C6.99581 16.3437 7.09375 16.4417 7.09375 16.5625V16.875C7.09375 16.9677 7.10592 17.0572 7.12863 17.1422C7.15983 17.2589 7.09051 17.3788 6.97379 17.41ZM18.0262 17.41C17.9095 17.3788 17.8402 17.2589 17.8714 17.1422C17.8941 17.0572 17.9063 16.9677 17.9063 16.875V16.5833C17.9063 16.4625 18.0042 16.3646 18.125 16.3646C18.2458 16.3646 18.3438 16.4625 18.3438 16.5833V16.875C18.3438 17.0062 18.3265 17.1336 18.294 17.2551C18.2628 17.3718 18.1429 17.4412 18.0262 17.41ZM18.125 15.6354C18.0042 15.6354 17.9063 15.5375 17.9063 15.4167V14.8333C17.9063 14.7125 18.0042 14.6146 18.125 14.6146C18.2458 14.6146 18.3438 14.7125 18.3438 14.8333V15.4167C18.3438 15.5375 18.2458 15.6354 18.125 15.6354ZM6.875 15.5312C6.75419 15.5312 6.65625 15.4333 6.65625 15.3125L6.65625 14.6875C6.65625 14.5667 6.75419 14.4687 6.875 14.4687C6.99581 14.4687 7.09375 14.5667 7.09375 14.6875L7.09375 15.3125C7.09375 15.4333 6.99581 15.5312 6.875 15.5312ZM18.125 13.8854C18.0042 13.8854 17.9063 13.7875 17.9063 13.6667V13.0833C17.9063 12.9625 18.0042 12.8646 18.125 12.8646C18.2458 12.8646 18.3438 12.9625 18.3438 13.0833V13.6667C18.3438 13.7875 18.2458 13.8854 18.125 13.8854ZM6.875 13.6562C6.75419 13.6562 6.65625 13.5583 6.65625 13.4375V13.125C6.65625 13.0042 6.75419 12.9062 6.875 12.9062H7.15278C7.27359 12.9062 7.37153 13.0042 7.37153 13.125C7.37153 13.2458 7.27359 13.3437 7.15278 13.3437H7.09375V13.4375C7.09375 13.5583 6.99581 13.6562 6.875 13.6562ZM11.875 12.9062C11.9677 12.9062 12.0572 12.8941 12.1422 12.8714C12.2589 12.8402 12.3788 12.9095 12.41 13.0262C12.4412 13.1429 12.3718 13.2628 12.2551 13.294C12.1336 13.3265 12.0062 13.3438 11.875 13.3438H11.5972C11.4764 13.3438 11.3785 13.2458 11.3785 13.125C11.3785 13.0042 11.4764 12.9062 11.5972 12.9062H11.875ZM10.7049 13.125C10.7049 13.2458 10.6069 13.3437 10.4861 13.3437H9.93056C9.80974 13.3437 9.71181 13.2458 9.71181 13.125C9.71181 13.0042 9.80974 12.9062 9.93056 12.9062H10.4861C10.6069 12.9062 10.7049 13.0042 10.7049 13.125ZM9.0382 13.125C9.0382 13.2458 8.94026 13.3437 8.81944 13.3437H8.26389C8.14308 13.3437 8.04514 13.2458 8.04514 13.125C8.04514 13.0042 8.14308 12.9062 8.26389 12.9062H8.81944C8.94026 12.9062 9.0382 13.0042 9.0382 13.125ZM13.0262 12.41C12.9095 12.3788 12.8402 12.2589 12.8714 12.1422C12.8941 12.0572 12.9062 11.9677 12.9062 11.875V11.5972C12.9062 11.4764 13.0042 11.3785 13.125 11.3785C13.2458 11.3785 13.3438 11.4764 13.3438 11.5972V11.875C13.3438 12.0062 13.3265 12.1336 13.294 12.2551C13.2628 12.3718 13.1429 12.4412 13.0262 12.41ZM18.125 12.1354C18.0042 12.1354 17.9063 12.0375 17.9063 11.9167V11.3333C17.9063 11.2125 18.0042 11.1146 18.125 11.1146C18.2458 11.1146 18.3438 11.2125 18.3438 11.3333L18.3438 11.9167C18.3438 12.0375 18.2458 12.1354 18.125 12.1354ZM13.125 10.7049C13.0042 10.7049 12.9063 10.6069 12.9063 10.4861V9.93056C12.9063 9.80974 13.0042 9.7118 13.125 9.7118C13.2458 9.7118 13.3438 9.80974 13.3438 9.93056V10.4861C13.3438 10.6069 13.2458 10.7049 13.125 10.7049ZM18.125 10.3854C18.0042 10.3854 17.9063 10.2875 17.9063 10.1667V9.58333C17.9063 9.46252 18.0042 9.36458 18.125 9.36458C18.2458 9.36458 18.3438 9.46252 18.3438 9.58333V10.1667C18.3438 10.2875 18.2458 10.3854 18.125 10.3854ZM13.125 9.03819C13.0042 9.03819 12.9063 8.94026 12.9063 8.81944V8.26389C12.9063 8.14308 13.0042 8.04514 13.125 8.04514C13.2458 8.04514 13.3438 8.14308 13.3438 8.26389V8.81944C13.3438 8.94026 13.2458 9.03819 13.125 9.03819ZM18.125 8.63542C18.0042 8.63542 17.9063 8.53748 17.9063 8.41667V8.125C17.9063 8.03232 17.8941 7.94281 17.8714 7.85785C17.8402 7.74113 17.9095 7.62123 18.0262 7.59003C18.1429 7.55883 18.2628 7.62815 18.294 7.74487C18.3265 7.86636 18.3438 7.99383 18.3438 8.125V8.41667C18.3438 8.53748 18.2458 8.63542 18.125 8.63542ZM13.125 7.37153C13.0042 7.37153 12.9063 7.27359 12.9063 7.15278V6.875C12.9063 6.75419 13.0042 6.65625 13.125 6.65625H13.4375C13.5583 6.65625 13.6563 6.75419 13.6563 6.875C13.6563 6.99581 13.5583 7.09375 13.4375 7.09375H13.3438V7.15278C13.3438 7.27359 13.2458 7.37153 13.125 7.37153ZM17.41 6.97379C17.3788 7.09051 17.2589 7.15983 17.1422 7.12863C17.0572 7.10592 16.9677 7.09375 16.875 7.09375H16.5625C16.4417 7.09375 16.3438 6.99581 16.3438 6.875C16.3438 6.75419 16.4417 6.65625 16.5625 6.65625H16.875C17.0062 6.65625 17.1336 6.6735 17.2551 6.70597C17.3718 6.73717 17.4412 6.85708 17.41 6.97379ZM15.5313 6.875C15.5313 6.99581 15.4333 7.09375 15.3125 7.09375L14.6875 7.09375C14.5667 7.09375 14.4688 6.99581 14.4688 6.875C14.4688 6.75419 14.5667 6.65625 14.6875 6.65625L15.3125 6.65625C15.4333 6.65625 15.5313 6.75419 15.5313 6.875Z" fill="white"/>
</svg>
