<svg width="20" height="20" viewBox="0 0 20 20" fill="none" xmlns="http://www.w3.org/2000/svg">
<path fill-rule="evenodd" clip-rule="evenodd" d="M1.875 1.375C1.59886 1.375 1.375 1.59886 1.375 1.875V12.3214C1.375 12.5976 1.59886 12.8214 1.875 12.8214H7.17847V13.7723C7.17847 14.0485 7.40232 14.2723 7.67847 14.2723C7.95461 14.2723 8.17847 14.0485 8.17847 13.7723V12.8214H8.83918C9.11532 12.8214 9.33918 12.5976 9.33918 12.3214C9.33918 12.0453 9.11532 11.8214 8.83918 11.8214H8.17857V8.17857H11.8213V8.8393C11.8213 9.11544 12.0452 9.3393 12.3213 9.3393C12.5975 9.3393 12.8213 9.11544 12.8213 8.8393V8.17858H13.7722C14.0484 8.17858 14.2722 7.95472 14.2722 7.67858C14.2722 7.40244 14.0484 7.17858 13.7722 7.17858H12.8214V1.875C12.8214 1.59886 12.5976 1.375 12.3214 1.375H1.875ZM2.375 11.8214V2.375H11.8214V7.17857H7.67857C7.40243 7.17857 7.17857 7.40243 7.17857 7.67857V11.8214H2.375Z" fill="white"/>
<path d="M16.674 7.17858C16.3979 7.17858 16.174 7.40244 16.174 7.67858C16.174 7.95472 16.3979 8.17858 16.674 8.17858H17.6249V8.54912C17.6249 8.82526 17.8488 9.04912 18.1249 9.04912C18.401 9.04912 18.6249 8.82526 18.6249 8.54912V7.67858C18.6249 7.40244 18.401 7.17858 18.1249 7.17858H16.674Z" fill="white"/>
<path d="M18.6249 10.2902C18.6249 10.014 18.401 9.79019 18.1249 9.79019C17.8488 9.79019 17.6249 10.014 17.6249 10.2902V12.0313C17.6249 12.3074 17.8488 12.5313 18.1249 12.5313C18.401 12.5313 18.6249 12.3074 18.6249 12.0313V10.2902Z" fill="white"/>
<path d="M12.8213 11.1607C12.8213 10.8846 12.5975 10.6607 12.3213 10.6607C12.0452 10.6607 11.8213 10.8846 11.8213 11.1607V11.8214H11.1606C10.8845 11.8214 10.6606 12.0453 10.6606 12.3214C10.6606 12.5976 10.8845 12.8214 11.1606 12.8214H12.3213C12.5975 12.8214 12.8213 12.5976 12.8213 12.3214V11.1607Z" fill="white"/>
<path d="M18.6249 13.7723C18.6249 13.4962 18.401 13.2723 18.1249 13.2723C17.8488 13.2723 17.6249 13.4962 17.6249 13.7723V15.5134C17.6249 15.7895 17.8488 16.0134 18.1249 16.0134C18.401 16.0134 18.6249 15.7895 18.6249 15.5134V13.7723Z" fill="white"/>
<path d="M8.17847 16.6741C8.17847 16.398 7.95461 16.1741 7.67847 16.1741C7.40232 16.1741 7.17847 16.398 7.17847 16.6741V18.125C7.17847 18.4012 7.40232 18.625 7.67847 18.625H8.549C8.82514 18.625 9.049 18.4012 9.049 18.125C9.049 17.8489 8.82514 17.625 8.549 17.625H8.17847V16.6741Z" fill="white"/>
<path d="M18.6249 17.2545C18.6249 16.9783 18.401 16.7545 18.1249 16.7545C17.8488 16.7545 17.6249 16.9783 17.6249 17.2545V17.625H17.2544C16.9782 17.625 16.7544 17.8489 16.7544 18.125C16.7544 18.4012 16.9782 18.625 17.2544 18.625H18.1249C18.401 18.625 18.6249 18.4012 18.6249 18.125V17.2545Z" fill="white"/>
<path d="M10.2901 17.625C10.0139 17.625 9.79007 17.8489 9.79007 18.125C9.79007 18.4012 10.0139 18.625 10.2901 18.625H12.0311C12.3073 18.625 12.5311 18.4012 12.5311 18.125C12.5311 17.8489 12.3073 17.625 12.0311 17.625H10.2901Z" fill="white"/>
<path d="M13.7722 17.625C13.4961 17.625 13.2722 17.8489 13.2722 18.125C13.2722 18.4012 13.4961 18.625 13.7722 18.625H15.5133C15.7894 18.625 16.0133 18.4012 16.0133 18.125C16.0133 17.8489 15.7894 17.625 15.5133 17.625H13.7722Z" fill="white"/>
</svg>
