<svg width="20" height="20" viewBox="0 0 20 20" fill="none" xmlns="http://www.w3.org/2000/svg">
<path d="M2 8.1875L2 11.8125C2 12.2957 2.39175 12.6875 2.875 12.6875L6.5 12.6875C6.98325 12.6875 7.375 12.2957 7.375 11.8125L7.375 8.1875C7.375 7.70425 6.98325 7.3125 6.5 7.3125L2.875 7.3125C2.39175 7.3125 2 7.70425 2 8.1875ZM2.875 7.0625L6.5 7.0625C6.98325 7.0625 7.375 6.67075 7.375 6.1875L7.375 2.875C7.375 2.39175 6.98325 2 6.5 2L3.75 2C2.7835 2 2 2.7835 2 3.75L2 6.1875C2 6.67075 2.39175 7.0625 2.875 7.0625ZM7.625 8.1875L7.625 11.8125C7.625 12.2957 8.01675 12.6875 8.5 12.6875L17.125 12.6875C17.6082 12.6875 18 12.2957 18 11.8125L18 8.1875C18 7.70425 17.6082 7.3125 17.125 7.3125L8.5 7.3125C8.01675 7.3125 7.625 7.70425 7.625 8.1875ZM8.5 7.0625L17.125 7.0625C17.6082 7.0625 18 6.67075 18 6.1875L18 3.75C18 2.7835 17.2165 2 16.25 2L8.5 2C8.01675 2 7.625 2.39175 7.625 2.875L7.625 6.1875C7.625 6.67075 8.01675 7.0625 8.5 7.0625ZM17.125 12.9375L8.5 12.9375C8.01675 12.9375 7.625 13.3293 7.625 13.8125L7.625 17.125C7.625 17.6082 8.01675 18 8.5 18L16.25 18C17.2165 18 18 17.2165 18 16.25L18 13.8125C18 13.3293 17.6082 12.9375 17.125 12.9375ZM3.75 18.25C2.64543 18.25 1.75 17.3546 1.75 16.25L1.75 3.75C1.75 2.64543 2.64543 1.75 3.75 1.75L16.25 1.75C17.3546 1.75 18.25 2.64543 18.25 3.75L18.25 16.25C18.25 17.3546 17.3546 18.25 16.25 18.25L3.75 18.25ZM7.375 17.125L7.375 13.8125C7.375 13.3293 6.98325 12.9375 6.5 12.9375L2.875 12.9375C2.39175 12.9375 2 13.3293 2 13.8125L2 16.25C2 17.2165 2.7835 18 3.75 18L6.5 18C6.98325 18 7.375 17.6082 7.375 17.125Z" fill="white" stroke="white"/>
</svg>
