<svg width="20" height="20" viewBox="0 0 20 20" fill="none" xmlns="http://www.w3.org/2000/svg">
<path fill-rule="evenodd" clip-rule="evenodd" d="M10 1.375C10.2761 1.375 10.5 1.59886 10.5 1.875V3.26819C13.8294 3.51197 16.488 6.17063 16.7318 9.5H18.125C18.4011 9.5 18.625 9.72386 18.625 10C18.625 10.2761 18.4011 10.5 18.125 10.5H16.7318C16.488 13.8293 13.8293 16.4879 10.5 16.7317V18.125C10.5 18.4011 10.2761 18.625 10 18.625C9.72386 18.625 9.5 18.4011 9.5 18.125V16.7317C6.17067 16.4879 3.51204 13.8293 3.26824 10.5H1.875C1.59886 10.5 1.375 10.2761 1.375 10C1.375 9.72386 1.59886 9.5 1.875 9.5H3.26823C3.51199 6.17063 6.17064 3.51197 9.5 3.26819V1.875C9.5 1.59886 9.72386 1.375 10 1.375ZM4.27144 10.5C4.51064 13.2767 6.72328 15.4893 9.5 15.7285V13.2749C8.0709 13.0585 6.94142 11.9291 6.72501 10.5H4.27144ZM6.72497 9.5H4.27143C4.5106 6.72324 6.72325 4.51058 9.5 4.27139V6.72488C8.07083 6.94126 6.9413 8.07082 6.72497 9.5ZM7.74172 10.5C7.93478 11.3757 8.62425 12.0652 9.5 12.2582V10.5H7.74172ZM9.5 9.5H7.74167C7.93467 8.62416 8.62418 7.93463 9.5 7.74159V9.5ZM10.5 10.5V12.2582C11.3757 12.0652 12.0652 11.3757 12.2583 10.5H10.5ZM12.2583 9.5H10.5V7.74159C11.3758 7.93463 12.0653 8.62416 12.2583 9.5ZM13.275 10.5C13.0586 11.9291 11.9291 13.0585 10.5 13.2749V15.7285C13.2767 15.4893 15.4894 13.2767 15.7286 10.5H13.275ZM15.7286 9.5H13.275C13.0587 8.07082 11.9292 6.94126 10.5 6.72488V4.27139C13.2768 4.51058 15.4894 6.72324 15.7286 9.5Z" fill="white"/>
</svg>
