<svg width="20" height="20" viewBox="0 0 20 20" fill="none" xmlns="http://www.w3.org/2000/svg">
<path fill-rule="evenodd" clip-rule="evenodd" d="M10.473 1.72297C10.473 1.46176 10.2612 1.25 10 1.25C9.73878 1.25 9.52703 1.46176 9.52703 1.72297V2.92079C5.98559 3.15388 3.15393 5.98557 2.92089 9.52703H1.72297C1.46176 9.52703 1.25 9.73878 1.25 10C1.25 10.2612 1.46176 10.473 1.72297 10.473H2.92091C3.15407 14.0143 5.98567 16.8459 9.52703 17.0789V18.277C9.52703 18.5382 9.73878 18.75 10 18.75C10.2612 18.75 10.473 18.5382 10.473 18.277V17.0789C14.0143 16.8458 16.8459 14.0143 17.0791 10.473H18.277C18.5382 10.473 18.75 10.2612 18.75 10C18.75 9.73878 18.5382 9.52703 18.277 9.52703H17.0791C16.846 5.98558 14.0144 3.1539 10.473 2.92079V1.72297ZM9.52703 3.86914C6.50827 4.09877 4.09882 6.50825 3.86924 9.52703L6.48392 9.52703C6.69449 7.94618 7.94619 6.69444 9.52703 6.48382V3.86914ZM10.473 6.48383V3.86914C13.4917 4.09879 15.9011 6.50827 16.1307 9.52703L13.516 9.52703C13.3055 7.94619 12.0538 6.69446 10.473 6.48383ZM9.52703 7.44141C8.46948 7.63565 7.6357 8.46947 7.4415 9.52703H9.52703V7.44141ZM6.48396 10.473H3.86926C4.09896 13.4916 6.50836 15.901 9.52703 16.1306V13.5159C7.94628 13.3053 6.69463 12.0537 6.48396 10.473ZM9.52703 12.5583C8.46957 12.3641 7.63584 11.5304 7.44155 10.473H9.52703V12.5583ZM10.473 13.5159V16.1306C13.4916 15.901 15.901 13.4916 16.1307 10.473H13.516C13.3053 12.0537 12.0537 13.3053 10.473 13.5159ZM12.5584 10.473C12.3641 11.5304 11.5304 12.3641 10.473 12.5583V10.473H12.5584ZM12.5585 9.52703H10.473V7.44141C11.5305 7.63567 12.3643 8.46948 12.5585 9.52703Z" fill="white"/>
</svg>
