<svg width="20" height="20" viewBox="0 0 20 20" fill="none" xmlns="http://www.w3.org/2000/svg">
<path fill-rule="evenodd" clip-rule="evenodd" d="M1.25 3.25C1.25 2.14543 2.14543 1.25 3.25 1.25H16.75C17.8546 1.25 18.75 2.14543 18.75 3.25V16.75C18.75 17.8546 17.8546 18.75 16.75 18.75H3.25C2.14543 18.75 1.25 17.8546 1.25 16.75V3.25ZM8.625 2.25H16.75C17.3023 2.25 17.75 2.69772 17.75 3.25V6.375H8.625V2.25ZM8.625 7.375H17.75V12H8.625V7.375ZM7.625 12V7.375H2.25V12H7.625ZM2.25 13H7.625V17.75H3.25C2.69772 17.75 2.25 17.3023 2.25 16.75V13ZM8.625 13H17.75V16.75C17.75 17.3023 17.3023 17.75 16.75 17.75H8.625V13ZM7.625 2.25V6.375H2.25V3.25C2.25 2.69772 2.69772 2.25 3.25 2.25H7.625Z" fill="white"/>
</svg>
