<svg width="20" height="20" viewBox="0 0 20 20" fill="none" xmlns="http://www.w3.org/2000/svg">
<path fill-rule="evenodd" clip-rule="evenodd" d="M10 14.8188C14.041 14.8188 16.875 12.1759 16.875 9.40939C16.875 6.64289 14.041 4 10 4C5.95903 4 3.125 6.64289 3.125 9.40939C3.125 10.7129 3.71952 11.9486 4.78807 12.9271L4.375 13.7501L3.94388 13.849C2.65731 12.6708 1.875 11.115 1.875 9.40939C1.875 5.73151 5.51269 2.75 10 2.75C14.4873 2.75 18.125 5.73151 18.125 9.40939C18.125 13.0873 14.4873 16.0688 10 16.0688C9.35319 16.0688 8.72405 16.0068 8.12089 15.8898C8.09136 15.8841 8.06188 15.8782 8.03247 15.8722C7.63422 15.791 7.24759 15.6857 6.875 15.5584C6.71846 15.4946 6.28555 15.7252 5.76532 16.0484C5.74491 16.0611 5.72436 16.0739 5.70368 16.0869C5.4838 16.2247 5.25 16.3773 5.01603 16.53C4.81178 16.6633 4.6074 16.7967 4.41204 16.9204C4.35862 16.9542 4.30589 16.9873 4.25401 17.0195C3.71434 17.3543 3.26785 17.5893 3.125 17.5001C2.96718 17.4015 3.10154 16.8879 3.30775 16.2743C3.32764 16.2151 3.34821 16.155 3.36924 16.0942C3.42125 15.9439 3.47614 15.7897 3.53092 15.6358C3.82306 14.8148 4.112 14.0029 3.94388 13.849L4.375 13.7501L4.78807 12.9271C5.08568 13.1997 5.18141 13.5269 5.21552 13.7087C5.25129 13.8995 5.24603 14.0708 5.23666 14.1866C5.2178 14.42 5.16121 14.657 5.10858 14.8482C5.09368 14.9023 5.07758 14.958 5.06052 15.0148C5.22478 14.9121 5.38567 14.8149 5.53578 14.73C5.72504 14.6229 5.94284 14.5091 6.15689 14.4284C6.26337 14.3883 6.40861 14.341 6.57424 14.316C6.59492 14.3128 6.61866 14.3096 6.64511 14.3068C6.65741 14.3048 6.66841 14.3031 6.67662 14.3021C6.70071 14.2994 6.74558 14.2956 6.76636 14.2945C6.78427 14.2937 6.81783 14.293 6.8335 14.293C6.87116 14.2932 6.90286 14.2951 6.92607 14.2969C6.94985 14.2988 6.97028 14.3011 6.98629 14.3032C7.00252 14.3052 7.01672 14.3074 7.02836 14.3093C7.05114 14.313 7.07 14.3167 7.08316 14.3195C7.09678 14.3223 7.1084 14.325 7.11732 14.3271C7.13472 14.3312 7.14893 14.335 7.15807 14.3375C7.17613 14.3424 7.19086 14.3468 7.19905 14.3493C7.2161 14.3545 7.23158 14.3596 7.24217 14.3631C7.25932 14.3685 7.27673 14.3744 7.2941 14.3806C8.12102 14.6614 9.03484 14.8188 10 14.8188Z" fill="white"/>
</svg>
