<svg width="20" height="20" viewBox="0 0 20 20" fill="none" xmlns="http://www.w3.org/2000/svg">
<path fill-rule="evenodd" clip-rule="evenodd" d="M2 9.07082C2 5.26197 5.67675 2.31258 10.0063 2.31258C14.337 2.31258 18 5.26294 18 9.07082C18 12.8797 14.3233 15.8291 9.99372 15.8291C8.73003 15.8291 7.52992 15.5819 6.45553 15.1366L3.40222 17.5781C3.23149 17.7146 2.99187 17.7244 2.81058 17.6022C2.62929 17.4801 2.54836 17.2543 2.61076 17.0448L3.73201 13.2804C2.65843 12.1316 2 10.6754 2 9.07082ZM10.0063 3.31258C6.05129 3.31258 3 5.97664 3 9.07082C3 10.4732 3.60982 11.7656 4.64578 12.7856C4.77759 12.9153 4.82698 13.1073 4.77417 13.2846L4.02506 15.7997L6.0664 14.1673C6.21373 14.0495 6.41481 14.0247 6.5864 14.103C7.6001 14.5661 8.75932 14.8291 9.99372 14.8291C13.9487 14.8291 17 12.165 17 9.07082C17 5.97566 13.9601 3.31258 10.0063 3.31258Z" fill="white"/>
</svg>
