<svg width="20" height="20" viewBox="0 0 20 20" fill="none" xmlns="http://www.w3.org/2000/svg">
<path fill-rule="evenodd" clip-rule="evenodd" d="M8.76331 6.38955C8.76331 4.22928 10.5147 2.4781 12.675 2.4781C14.8354 2.4781 16.5867 4.22928 16.5867 6.38955C16.5867 7.19517 16.3432 7.94389 15.9257 8.56611C16.2941 8.7546 16.7633 9.06225 17.208 9.54928C18.1421 10.5724 18.9015 12.3126 18.5272 15.1875L18.4989 15.4053L18.3194 15.5317L18.0314 15.123C18.3194 15.5317 18.3195 15.5316 18.3194 15.5317L18.316 15.5342L18.3086 15.5393L18.2823 15.5574C18.2597 15.5727 18.2272 15.5947 18.1854 15.6222C18.1017 15.6773 17.9808 15.7549 17.8278 15.8474C17.5223 16.0324 17.0873 16.2784 16.5661 16.5246C15.5338 17.0123 14.119 17.522 12.6864 17.522C11.2538 17.522 9.83904 17.0123 8.80669 16.5246C8.28551 16.2784 7.85049 16.0324 7.545 15.8474C7.39206 15.7549 7.27108 15.6773 7.18745 15.6222C7.14562 15.5947 7.11309 15.5727 7.09053 15.5574L7.06426 15.5393L7.05687 15.5342L7.05465 15.5326L7.05363 15.5319C7.05352 15.5318 7.05342 15.5317 7.3414 15.123L7.05363 15.5319L6.87498 15.406L6.84587 15.1897C6.83298 15.0939 6.82136 14.9994 6.81097 14.9061C6.40256 15.0107 5.96788 15.0771 5.52184 15.0771C4.527 15.0771 3.55282 14.7236 2.85179 14.3923C2.49625 14.2243 2.1995 14.0565 1.99087 13.9302C1.88636 13.8669 1.80347 13.8138 1.7458 13.7758C1.71696 13.7568 1.69439 13.7416 1.67855 13.7308L1.65989 13.718L1.65443 13.7142L1.6527 13.713L1.65183 13.7124C1.65172 13.7123 1.65162 13.7122 1.93955 13.3034L1.65183 13.7124L1.47269 13.5862L1.44389 13.3692C1.18299 11.4035 1.70064 10.1882 2.3657 9.46307C2.62043 9.18532 2.8869 8.99054 3.11799 8.85604C2.88231 8.44823 2.74744 7.97486 2.74744 7.46998C2.74744 5.93774 3.98965 4.69568 5.52192 4.69568C7.05418 4.69568 8.29639 5.93774 8.29639 7.46998C8.29639 7.97647 8.16066 8.45125 7.92358 8.85995C8.08681 8.95609 8.26806 9.0826 8.45043 9.24731C8.79685 8.93108 9.14117 8.71368 9.42534 8.56753C9.00725 7.94503 8.76331 7.19578 8.76331 6.38955ZM12.675 3.4781C11.0669 3.4781 9.76331 4.78164 9.76331 6.38955C9.76331 7.99747 11.0669 9.301 12.675 9.301C14.2832 9.301 15.5867 7.99747 15.5867 6.38955C15.5867 4.78164 14.2832 3.4781 12.675 3.4781ZM10.1165 9.34841C10.0559 9.37342 9.98591 9.40475 9.90894 9.44346C9.62277 9.58739 9.24389 9.83102 8.88427 10.2269C8.20079 10.9792 7.52387 12.3519 7.80915 14.8337C7.87661 14.8772 7.96184 14.9308 8.06288 14.992C8.34555 15.1631 8.74996 15.3918 9.23381 15.6204C10.2115 16.0823 11.4692 16.522 12.6864 16.522C13.9036 16.522 15.1613 16.0823 16.139 15.6204C16.6229 15.3918 17.0273 15.1631 17.31 14.992C17.4104 14.9312 17.4953 14.8777 17.5626 14.8344C17.8374 12.3477 17.1555 10.9749 16.4695 10.2236C16.1086 9.82825 15.7291 9.58556 15.4427 9.44244C15.3653 9.40381 15.2951 9.3726 15.2343 9.34773C14.5483 9.94166 13.6536 10.301 12.675 10.301C11.6968 10.301 10.8024 9.94194 10.1165 9.34841ZM7.78825 9.99679C7.62963 9.85214 7.47312 9.75029 7.34236 9.68012C7.31181 9.66372 7.28276 9.64911 7.25554 9.63613C6.78061 10.0167 6.17784 10.2443 5.52192 10.2443C4.86481 10.2443 4.26105 10.0159 3.78572 9.63407C3.77201 9.64046 3.75782 9.64727 3.7432 9.65451C3.56527 9.74269 3.32822 9.89306 3.10268 10.139C2.68682 10.5924 2.24798 11.4393 2.40879 13.0132C2.43877 13.0319 2.47215 13.0526 2.50873 13.0747C2.69458 13.1872 2.96076 13.3378 3.27903 13.4882C3.92563 13.7937 4.74259 14.0771 5.52184 14.0771C5.93327 14.0771 6.34673 14.0043 6.7439 13.8875C6.71303 12.108 7.17455 10.8598 7.78825 9.99679ZM5.52192 5.69568C4.54186 5.69568 3.74744 6.4901 3.74744 7.46998C3.74744 8.44986 4.54186 9.24428 5.52192 9.24428C6.50197 9.24428 7.29639 8.44986 7.29639 7.46998C7.29639 6.4901 6.50197 5.69568 5.52192 5.69568Z" fill="white"/>
</svg>
