<svg width="20" height="20" viewBox="0 0 20 20" fill="none" xmlns="http://www.w3.org/2000/svg">
<path fill-rule="evenodd" clip-rule="evenodd" d="M8.7197 5.88587C8.7197 3.66578 10.6037 1.875 12.906 1.875C15.2177 1.875 17.1097 3.66578 17.1097 5.88587C17.1097 6.73649 16.8298 7.52977 16.354 8.18019C16.7261 8.37818 17.0818 8.61215 17.4049 8.88356C17.7281 9.15497 18.178 9.67904 18.178 9.67904C18.9102 10.5975 19.3679 11.7786 19.3679 13.1959V14.678C19.3994 14.6842 19.3157 15.7498 19.3157 15.7498C17.0295 17.7886 11.8645 19.8733 6.52228 15.7581L6.51953 15.7555L6.51367 15.7498C4.64725 16.07 3.07653 15.8348 0.972414 14.41C0.964731 14.4036 0.956863 14.3971 0.948853 14.3905C0.810195 14.2762 0.628947 14.1267 0.625 13.8992V12.2581C0.625 10.5874 1.50563 9.34639 2.69213 8.6491C2.39647 8.19335 2.2231 7.658 2.2231 7.08327C2.2231 5.4222 3.64073 4.07721 5.35851 4.07721C7.07628 4.07721 8.49391 5.4222 8.49391 7.08327C8.49391 7.658 8.32054 8.19335 8.02487 8.6491C8.03499 8.65496 8.04509 8.66079 8.05516 8.66661C8.17913 8.73824 8.29985 8.80799 8.41573 8.89195C8.74052 8.61773 9.09171 8.38027 9.46666 8.18019C8.99171 7.52977 8.7197 6.73649 8.7197 5.88587ZM15.998 5.88587C15.998 4.24814 14.6269 2.9468 12.906 2.9468C11.1977 2.9468 9.83142 4.24814 9.83142 5.88587C9.83142 7.51146 11.1997 8.83332 12.906 8.83332C14.5689 8.80945 15.8919 7.58232 15.998 5.88587ZM7.38219 7.08327C7.38219 6.00381 6.48336 5.14901 5.35851 5.14901C4.23364 5.14901 3.33482 6.00381 3.33482 7.08327C3.35305 8.25837 4.22306 8.9341 5.35851 9.00079C6.48336 9.00079 7.38219 8.14993 7.38219 7.08327ZM12.906 9.9051C11.9004 9.9051 10.9817 9.55495 10.257 8.98404C8.69474 9.69876 7.56457 11.0471 7.56457 13.196V15.214C11.2107 17.6046 14.6511 17.6008 18.2562 15.2306V13.1959C18.2562 11.0552 17.1257 9.70385 15.5724 8.99243C14.8467 9.56149 13.914 9.9051 12.906 9.9051ZM7.61476 9.66866C7.50093 9.59233 7.38647 9.5156 7.26057 9.45294C6.73145 9.84031 6.07079 10.0726 5.35851 10.0726C4.65053 10.0726 3.99262 9.84447 3.46511 9.46133C2.4535 9.95444 1.73672 10.8326 1.73672 12.2581V13.6145C3.35199 14.6482 4.88467 14.9847 6.45286 14.6696V13.1959C6.45286 11.7806 6.91441 10.6047 7.64273 9.68739C7.63341 9.68116 7.62409 9.67491 7.61476 9.66866Z" fill="white"/>
</svg>
