<svg width="20" height="20" viewBox="0 0 20 20" fill="none" xmlns="http://www.w3.org/2000/svg">
<path fill-rule="evenodd" clip-rule="evenodd" d="M10 18C14.4183 18 18 14.4183 18 10C18 5.58172 14.4183 2 10 2C5.58172 2 2 5.58172 2 10C2 14.4183 5.58172 18 10 18ZM10 18.75C14.8325 18.75 18.75 14.8325 18.75 10C18.75 5.16751 14.8325 1.25 10 1.25C5.16751 1.25 1.25 5.16751 1.25 10C1.25 14.8325 5.16751 18.75 10 18.75Z" fill="white"/>
<path d="M5.83337 10.0002C5.83337 10.4604 6.20647 10.8335 6.66671 10.8335H13.3334C13.7936 10.8335 14.1667 10.4604 14.1667 10.0002C14.1667 9.53993 13.7936 9.16683 13.3334 9.16683H6.66671C6.20647 9.16683 5.83337 9.53993 5.83337 10.0002Z" fill="white"/>
</svg>
