<svg width="20" height="20" viewBox="0 0 20 20" fill="none" xmlns="http://www.w3.org/2000/svg">
<path d="M16.0852 2.5L16.25 6.0177H15.8326C15.7521 5.39823 15.6422 4.95575 15.5031 4.69027C15.2761 4.26254 14.9722 3.94912 14.5914 3.75C14.2179 3.54351 13.7236 3.44027 13.1085 3.44027H11.0105V14.9004C11.0105 15.8223 11.1094 16.3975 11.3071 16.6261C11.5854 16.9358 12.0138 17.0907 12.5923 17.0907H13.1085V17.5H6.79262V17.0907H7.31986C7.94962 17.0907 8.39631 16.899 8.65993 16.5155C8.82103 16.2795 8.90158 15.7411 8.90158 14.9004V3.44027H7.11116C6.41549 3.44027 5.92121 3.49189 5.6283 3.59513C5.24751 3.73525 4.92165 4.00442 4.6507 4.40265C4.37976 4.80088 4.21866 5.33923 4.1674 6.0177H3.75L3.92575 2.5H16.0852Z" fill="white"/>
</svg>
