<svg width="20" height="20" viewBox="0 0 20 20" fill="none" xmlns="http://www.w3.org/2000/svg">
<path fill-rule="evenodd" clip-rule="evenodd" d="M8.29468 1.37485C8.01854 1.37485 7.79468 1.59871 7.79468 1.87485C7.79468 2.15099 8.01854 2.37485 8.29468 2.37485H9.86192L8.36338 3.87339C7.68678 3.34935 6.83759 3.03746 5.91556 3.03746C3.70586 3.03746 1.91455 4.82877 1.91455 7.03847C1.91455 9.24816 3.70586 11.0395 5.91556 11.0395C8.12525 11.0395 9.91657 9.24816 9.91657 7.03847C9.91657 6.11124 9.60115 5.25767 9.07176 4.57922L10.569 3.08196V4.6492C10.569 4.92534 10.7929 5.1492 11.069 5.1492C11.3452 5.1492 11.569 4.92534 11.569 4.6492V1.87485C11.569 1.59871 11.3452 1.37485 11.069 1.37485H8.29468ZM2.91455 7.03847C2.91455 5.38106 4.25815 4.03746 5.91556 4.03746C7.57297 4.03746 8.91657 5.38106 8.91657 7.03847C8.91657 8.69588 7.57297 10.0395 5.91556 10.0395C4.25815 10.0395 2.91455 8.69588 2.91455 7.03847Z" fill="white"/>
<path fill-rule="evenodd" clip-rule="evenodd" d="M14.5845 15.0929C16.5582 14.8468 18.0855 13.1632 18.0855 11.1228C18.0855 8.91309 16.2942 7.12178 14.0845 7.12178C11.8748 7.12178 10.0835 8.91309 10.0835 11.1228C10.0835 13.1631 11.6108 14.8468 13.5845 15.0929V15.8742H12.334C12.0578 15.8742 11.834 16.0981 11.834 16.3742C11.834 16.6504 12.0578 16.8742 12.334 16.8742H13.5845V18.1247C13.5845 18.4009 13.8083 18.6247 14.0845 18.6247C14.3606 18.6247 14.5845 18.4009 14.5845 18.1247V16.8742H15.835C16.1111 16.8742 16.335 16.6504 16.335 16.3742C16.335 16.0981 16.1111 15.8742 15.835 15.8742H14.5845V15.0929ZM14.0845 8.12178C12.4271 8.12178 11.0835 9.46538 11.0835 11.1228C11.0835 12.7774 12.4226 14.1193 14.0762 14.1238C14.079 14.1237 14.0817 14.1237 14.0845 14.1237C14.0873 14.1237 14.09 14.1237 14.0928 14.1238C15.7464 14.1193 17.0855 12.7774 17.0855 11.1228C17.0855 9.46538 15.7419 8.12178 14.0845 8.12178Z" fill="white"/>
</svg>
