<svg width="20" height="20" viewBox="0 0 20 20" fill="none" xmlns="http://www.w3.org/2000/svg">
<path d="M13.085 10.81C12.955 10.81 12.825 10.76 12.735 10.66C12.535 10.46 12.535 10.15 12.735 9.94999L13.805 8.87999C13.925 8.76 13.995 8.68999 14.045 8.64999C14.295 8.38999 14.465 7.88999 14.465 7.43999C14.455 6.35999 13.585 5.48999 12.515 5.48999C11.985 5.48999 11.495 5.69999 11.125 6.06999L9.985 7.20999C9.785 7.40999 9.475 7.40999 9.275 7.20999C9.075 7.00999 9.075 6.69999 9.275 6.49999L10.415 5.35999C10.975 4.79999 11.715 4.48999 12.515 4.48999C14.135 4.48999 15.465 5.80999 15.465 7.43999C15.465 8.14999 15.185 8.89999 14.765 9.34999L14.755 9.35999L13.455 10.67C13.345 10.76 13.215 10.81 13.085 10.81Z" fill="white"/>
<path d="M3.125 12.26C2.845 12.26 2.625 12.03 2.625 11.76V8.00999C2.625 7.72999 2.845 7.50999 3.125 7.50999C3.405 7.50999 3.625 7.72999 3.625 8.00999V11.76C3.625 12.03 3.405 12.26 3.125 12.26Z" fill="white"/>
<path d="M16.875 12.26C16.595 12.26 16.375 12.04 16.375 11.76V8.00999C16.375 7.72999 16.595 7.50999 16.875 7.50999C17.155 7.50999 17.375 7.72999 17.375 8.00999V11.76C17.375 12.03 17.155 12.26 16.875 12.26Z" fill="white"/>
<path d="M4.43506 12.56C4.43506 14.19 5.76506 15.51 7.38506 15.51C8.17506 15.51 8.92506 15.2 9.49506 14.64L10.7851 13.35C10.9851 13.15 10.9851 12.83 10.7851 12.64C10.5851 12.44 10.2751 12.44 10.0751 12.64L8.78506 13.93C8.40506 14.3 7.91506 14.51 7.39506 14.51C6.31506 14.51 5.44506 13.63 5.44506 12.56C5.44506 12.04 5.64506 11.55 6.02506 11.18L7.30506 9.89999C7.50506 9.69999 7.50506 9.37999 7.30506 9.18999C7.10506 8.98999 6.79506 8.98999 6.59506 9.18999L5.31506 10.46C4.74506 11.02 4.43506 11.76 4.43506 12.56Z" fill="white"/>
<path d="M8.39512 11.49C8.49512 11.58 8.62512 11.63 8.74512 11.63C8.87512 11.63 9.00512 11.58 9.10512 11.49L11.6051 8.98999C11.8051 8.78999 11.8051 8.47999 11.6051 8.27999C11.4051 8.07999 11.0951 8.07999 10.8951 8.27999L8.39512 10.78C8.19512 10.98 8.19512 11.29 8.39512 11.49Z" fill="white"/>
</svg>
