<svg width="20" height="20" viewBox="0 0 20 20" fill="none" xmlns="http://www.w3.org/2000/svg">
<path d="M7.51786 9.66346C7.39951 9.66346 7.30357 9.76678 7.30357 9.89423V10.5865C7.30357 10.714 7.39951 10.8173 7.51786 10.8173H8.16071C8.27906 10.8173 8.375 10.714 8.375 10.5865V9.89423C8.375 9.76678 8.27906 9.66346 8.16071 9.66346H7.51786Z" fill="white"/>
<path d="M7.30357 12.2019C7.30357 12.0745 7.39951 11.9712 7.51786 11.9712H8.16071C8.27906 11.9712 8.375 12.0745 8.375 12.2019V12.8942C8.375 13.0217 8.27906 13.125 8.16071 13.125H7.51786C7.39951 13.125 7.30357 13.0217 7.30357 12.8942V12.2019Z" fill="white"/>
<path d="M9.44643 9.89423C9.44643 9.76678 9.54237 9.66346 9.66071 9.66346H10.3036C10.4219 9.66346 10.5179 9.76678 10.5179 9.89423V10.5865C10.5179 10.714 10.4219 10.8173 10.3036 10.8173H9.66071C9.54237 10.8173 9.44643 10.714 9.44643 10.5865V9.89423Z" fill="white"/>
<path d="M9.44643 12.2019C9.44643 12.0745 9.54237 11.9712 9.66071 11.9712H10.3036C10.4219 11.9712 10.5179 12.0745 10.5179 12.2019V12.8942C10.5179 13.0217 10.4219 13.125 10.3036 13.125H9.66071C9.54237 13.125 9.44643 13.0217 9.44643 12.8942V12.2019Z" fill="white"/>
<path d="M11.5 9.89423C11.5 9.76678 11.5959 9.66346 11.7143 9.66346H12.3571C12.4755 9.66346 12.5714 9.76678 12.5714 9.89423V10.5865C12.5714 10.714 12.4755 10.8173 12.3571 10.8173H11.7143C11.5959 10.8173 11.5 10.714 11.5 10.5865V9.89423Z" fill="white"/>
<path d="M11.5 12.2019C11.5 12.0745 11.5959 11.9712 11.7143 11.9712H12.3571C12.4755 11.9712 12.5714 12.0745 12.5714 12.2019V12.8942C12.5714 13.0217 12.4755 13.125 12.3571 13.125H11.7143C11.5959 13.125 11.5 13.0217 11.5 12.8942V12.2019Z" fill="white"/>
<path fill-rule="evenodd" clip-rule="evenodd" d="M12.2143 3.65385H7.66071V3.07692C7.66071 2.7583 7.42087 2.5 7.125 2.5C6.82913 2.5 6.58929 2.7583 6.58929 3.07692V3.65385H6.23214C5.34454 3.65385 4.625 4.42874 4.625 5.38461V14.5192C4.625 15.4751 5.34454 16.25 6.23214 16.25H13.6429C14.5305 16.25 15.25 15.4751 15.25 14.5192V5.38462C15.25 4.42874 14.5305 3.65385 13.6429 3.65385H13.2857V3.07692C13.2857 2.7583 13.0459 2.5 12.75 2.5C12.4541 2.5 12.2143 2.7583 12.2143 3.07692V3.65385ZM7.125 5.96154C6.82913 5.96154 6.58929 5.70324 6.58929 5.38462V4.80769H6.23214C5.93628 4.80769 5.69643 5.06599 5.69643 5.38461V7.11538H14.1786V5.38462C14.1786 5.06599 13.9387 4.80769 13.6429 4.80769H13.2857V5.38462C13.2857 5.70324 13.0459 5.96154 12.75 5.96154C12.4541 5.96154 12.2143 5.70324 12.2143 5.38462V4.80769H7.66071V5.38462C7.66071 5.70324 7.42087 5.96154 7.125 5.96154ZM5.69643 8.26923H14.1786V14.5192C14.1786 14.8379 13.9387 15.0962 13.6429 15.0962H6.23214C5.93628 15.0962 5.69643 14.8379 5.69643 14.5192V8.26923Z" fill="white"/>
<path d="M16.75 7.5C17.0261 7.5 17.25 7.72386 17.25 8V12C17.25 12.2761 17.0261 12.5 16.75 12.5C16.4739 12.5 16.25 12.2761 16.25 12V8C16.25 7.72386 16.4739 7.5 16.75 7.5Z" fill="white"/>
<path d="M3.5 8C3.5 7.72386 3.27614 7.5 3 7.5C2.72386 7.5 2.5 7.72386 2.5 8V12C2.5 12.2761 2.72386 12.5 3 12.5C3.27614 12.5 3.5 12.2761 3.5 12L3.5 8Z" fill="white"/>
</svg>
