<svg width="20" height="20" viewBox="0 0 20 20" fill="none" xmlns="http://www.w3.org/2000/svg">
<path d="M4.14286 8.64615C4.14286 8.54419 4.21961 8.46154 4.31429 8.46154H4.82857C4.92325 8.46154 5 8.54419 5 8.64615V9.2C5 9.30196 4.92325 9.38462 4.82857 9.38462H4.31429C4.21961 9.38462 4.14286 9.30196 4.14286 9.2V8.64615Z" fill="white"/>
<path d="M4.31429 10.3077C4.21961 10.3077 4.14286 10.3903 4.14286 10.4923V11.0462C4.14286 11.1481 4.21961 11.2308 4.31429 11.2308H4.82857C4.92325 11.2308 5 11.1481 5 11.0462V10.4923C5 10.3903 4.92325 10.3077 4.82857 10.3077H4.31429Z" fill="white"/>
<path d="M5.85714 8.64615C5.85714 8.54419 5.93389 8.46154 6.02857 8.46154H6.54286C6.63753 8.46154 6.71429 8.54419 6.71429 8.64615V9.2C6.71429 9.30196 6.63753 9.38462 6.54286 9.38462H6.02857C5.93389 9.38462 5.85714 9.30196 5.85714 9.2V8.64615Z" fill="white"/>
<path d="M6.02857 10.3077C5.93389 10.3077 5.85714 10.3903 5.85714 10.4923V11.0462C5.85714 11.1481 5.93389 11.2308 6.02857 11.2308H6.54286C6.63753 11.2308 6.71429 11.1481 6.71429 11.0462V10.4923C6.71429 10.3903 6.63753 10.3077 6.54286 10.3077H6.02857Z" fill="white"/>
<path d="M7.57143 8.64615C7.57143 8.54419 7.64818 8.46154 7.74286 8.46154H8.25714C8.35182 8.46154 8.42857 8.54419 8.42857 8.64615V9.2C8.42857 9.30196 8.35182 9.38462 8.25714 9.38462H7.74286C7.64818 9.38462 7.57143 9.30196 7.57143 9.2V8.64615Z" fill="white"/>
<path d="M7.74286 10.3077C7.64818 10.3077 7.57143 10.3903 7.57143 10.4923V11.0462C7.57143 11.1481 7.64818 11.2308 7.74286 11.2308H8.25714C8.35182 11.2308 8.42857 11.1481 8.42857 11.0462V10.4923C8.42857 10.3903 8.35182 10.3077 8.25714 10.3077H7.74286Z" fill="white"/>
<path d="M9.28571 8.64615C9.28571 8.54419 9.36247 8.46154 9.45714 8.46154H9.97143C10.0661 8.46154 10.1429 8.54419 10.1429 8.64615V9.2C10.1429 9.30196 10.0661 9.38462 9.97143 9.38462H9.45714C9.36247 9.38462 9.28571 9.30196 9.28571 9.2V8.64615Z" fill="white"/>
<path d="M9.45714 10.3077C9.36247 10.3077 9.28571 10.3903 9.28571 10.4923V11.0462C9.28571 11.1481 9.36247 11.2308 9.45714 11.2308H9.97143C10.0661 11.2308 10.1429 11.1481 10.1429 11.0462V10.4923C10.1429 10.3903 10.0661 10.3077 9.97143 10.3077H9.45714Z" fill="white"/>
<path d="M11 8.64615C11 8.54419 11.0768 8.46154 11.1714 8.46154H11.6857C11.7804 8.46154 11.8571 8.54419 11.8571 8.64615V9.2C11.8571 9.30196 11.7804 9.38462 11.6857 9.38462H11.1714C11.0768 9.38462 11 9.30196 11 9.2V8.64615Z" fill="white"/>
<path d="M11.1714 10.3077C11.0768 10.3077 11 10.3903 11 10.4923V11.0462C11 11.1481 11.0768 11.2308 11.1714 11.2308H11.6857C11.7804 11.2308 11.8571 11.1481 11.8571 11.0462V10.4923C11.8571 10.3903 11.7804 10.3077 11.6857 10.3077H11.1714Z" fill="white"/>
<path fill-rule="evenodd" clip-rule="evenodd" d="M10.5714 2.92308H5.42857V2.46154C5.42857 2.20664 5.23669 2 5 2C4.76331 2 4.57143 2.20664 4.57143 2.46154V2.92308H3.28571C2.57563 2.92308 2 3.54299 2 4.30769V12.6154C2 13.3801 2.57563 14 3.28571 14H12.7143C13.4244 14 14 13.3801 14 12.6154V4.30769C14 3.54299 13.4244 2.92308 12.7143 2.92308H11.4286V2.46154C11.4286 2.20664 11.2367 2 11 2C10.7633 2 10.5714 2.20664 10.5714 2.46154V2.92308ZM5 4.76923C4.76331 4.76923 4.57143 4.56259 4.57143 4.30769V3.84615H3.28571C3.04902 3.84615 2.85714 4.05279 2.85714 4.30769V5.69231H13.1429V4.30769C13.1429 4.05279 12.951 3.84615 12.7143 3.84615H11.4286V4.30769C11.4286 4.56259 11.2367 4.76923 11 4.76923C10.7633 4.76923 10.5714 4.56259 10.5714 4.30769V3.84615H5.42857V4.30769C5.42857 4.56259 5.23669 4.76923 5 4.76923ZM2.85714 6.61538H13.1429V12.6154C13.1429 12.8703 12.951 13.0769 12.7143 13.0769H3.28571C3.04902 13.0769 2.85714 12.8703 2.85714 12.6154V6.61538Z" fill="white"/>
</svg>
