<svg width="20" height="20" viewBox="0 0 20 20" fill="none" xmlns="http://www.w3.org/2000/svg">
<path fill-rule="evenodd" clip-rule="evenodd" d="M5 1.375C2.99797 1.375 1.375 2.99797 1.375 5C1.375 7.00203 2.99797 8.625 5 8.625C7.00203 8.625 8.625 7.00203 8.625 5C8.625 2.99797 7.00203 1.375 5 1.375ZM2.375 5C2.375 3.55025 3.55025 2.375 5 2.375C6.44975 2.375 7.625 3.55025 7.625 5C7.625 6.44975 6.44975 7.625 5 7.625C3.55025 7.625 2.375 6.44975 2.375 5Z" fill="white"/>
<path fill-rule="evenodd" clip-rule="evenodd" d="M12.875 1.375C12.0466 1.375 11.375 2.04657 11.375 2.875V7.125C11.375 7.95343 12.0466 8.625 12.875 8.625H17.125C17.9534 8.625 18.625 7.95343 18.625 7.125V2.875C18.625 2.04657 17.9534 1.375 17.125 1.375H12.875ZM12.375 2.875C12.375 2.59886 12.5989 2.375 12.875 2.375H17.125C17.4011 2.375 17.625 2.59886 17.625 2.875V7.125C17.625 7.40114 17.4011 7.625 17.125 7.625H12.875C12.5989 7.625 12.375 7.40114 12.375 7.125V2.875Z" fill="white"/>
<path fill-rule="evenodd" clip-rule="evenodd" d="M1.375 12.875C1.375 12.0466 2.04657 11.375 2.875 11.375H7.125C7.95343 11.375 8.625 12.0466 8.625 12.875V17.125C8.625 17.9534 7.95343 18.625 7.125 18.625H2.875C2.04657 18.625 1.375 17.9534 1.375 17.125V12.875ZM2.875 12.375C2.59886 12.375 2.375 12.5989 2.375 12.875V17.125C2.375 17.4011 2.59886 17.625 2.875 17.625H7.125C7.40114 17.625 7.625 17.4011 7.625 17.125V12.875C7.625 12.5989 7.40114 12.375 7.125 12.375H2.875Z" fill="white"/>
<path fill-rule="evenodd" clip-rule="evenodd" d="M15.4472 11.6514C15.3625 11.482 15.1894 11.375 15 11.375C14.8106 11.375 14.6375 11.482 14.5528 11.6514L11.4278 17.9014C11.3503 18.0564 11.3586 18.2405 11.4497 18.3879C11.5408 18.5353 11.7017 18.625 11.875 18.625H18.125C18.2983 18.625 18.4592 18.5353 18.5503 18.3879C18.6414 18.2405 18.6497 18.0564 18.5722 17.9014L15.4472 11.6514ZM15 12.993L17.316 17.625H12.684L15 12.993Z" fill="white"/>
</svg>
