<svg width="20" height="20" viewBox="0 0 20 20" fill="none" xmlns="http://www.w3.org/2000/svg">
<path d="M4.7823 5.60474L4.76866 2.39526C4.20414 2.82826 3.83755 3.22128 3.64255 3.22128C3.54895 3.22128 3.46607 3.18422 3.39392 3.11011C3.32177 3.03501 3.28571 2.94919 3.28571 2.85167C3.28571 2.73854 3.32177 2.65468 3.39197 2.60202C3.46217 2.54935 5.04751 1.24548 5.08456 1.2055C5.12161 1.16551 5.19375 1.14502 5.29807 1.14502C5.41605 1.14502 5.51062 1.19085 5.58179 1.28155C5.65297 1.37225 5.68806 1.49805 5.68806 1.65799V5.47504C5.68806 5.9217 5.53596 6.14502 5.23177 6.14502C5.09624 6.14502 4.98803 6.09918 4.90515 6.00849C4.82228 5.91779 4.7823 5.78321 4.7823 5.60474Z" fill="white"/>
<path d="M10.9724 5.20087H12.7407C12.9172 5.20087 13.051 5.23757 13.1442 5.30895C13.2373 5.38034 13.2829 5.47948 13.2829 5.60342C13.2829 5.71446 13.2463 5.80766 13.1729 5.88499C13.0996 5.96233 12.9876 6 12.8389 6H10.3449C10.1754 6 10.0436 5.9534 9.94846 5.85921C9.8533 5.76502 9.80573 5.65498 9.80573 5.52906C9.80573 5.44776 9.83645 5.33968 9.89691 5.20484C9.95837 5.07099 11.7674 3.38549 11.8913 3.25263C12.0142 3.12076 12.1083 2.98493 12.1718 2.84612C12.2362 2.70732 12.2689 2.57148 12.2689 2.43763C12.2689 2.29288 12.2342 2.164 12.1658 2.04998C12.0974 1.93596 12.0033 1.84673 11.8853 1.78327C11.7664 1.71982 11.6375 1.68808 11.4967 1.68808C11.2014 1.68808 10.9684 1.81797 10.7989 2.07774C10.7761 2.11145 10.7385 2.20365 10.6859 2.35535C10.6324 2.50704 10.5729 2.62305 10.5055 2.70435C10.4391 2.78565 10.341 2.8263 10.2131 2.8263C10.1001 2.8263 10.0069 2.78862 9.93161 2.71426C9.85628 2.6399 9.81959 2.53778 9.81959 2.40889C9.81959 2.25323 9.85429 2.09062 9.92467 1.92108C9.99504 1.75154 10.0991 1.59786 10.2379 1.46005C10.3767 1.32223 10.5521 1.21119 10.7662 1.12691C10.9793 1.04165 11.2291 1 11.5166 1C11.8625 1 12.1569 1.05453 12.4008 1.1626C12.5593 1.23498 12.6981 1.33412 12.8171 1.46103C12.936 1.58794 13.0302 1.7337 13.0966 1.90026C13.163 2.06584 13.1967 2.23835 13.1967 2.41682C13.1967 2.6974 13.1273 2.95221 12.9885 3.18124C12.8488 3.41027 12.708 3.58973 12.5633 3.71961C12.4196 3.85147 11.0289 5.11561 10.9724 5.20087Z" fill="white"/>
<path d="M4.53704 11.0106C4.74113 11.0106 4.91787 10.9501 5.0663 10.8299C5.21473 10.7098 5.28895 10.5369 5.28895 10.3123C5.28895 10.1413 5.22937 9.99383 5.11219 9.86978C4.99403 9.74671 4.83486 9.68518 4.63468 9.68518C4.49894 9.68518 4.38763 9.70471 4.29876 9.74183C4.21088 9.77992 4.14155 9.82974 4.09077 9.89226C4.03999 9.95477 3.99116 10.0349 3.94527 10.1325C3.90035 10.2302 3.85835 10.323 3.82027 10.4099C3.79781 10.4568 3.75777 10.493 3.70015 10.5203C3.64254 10.5476 3.57615 10.5603 3.49998 10.5603C3.41112 10.5603 3.32909 10.5242 3.25487 10.4519C3.17968 10.3797 3.14257 10.2839 3.14257 10.1638C3.14257 10.0476 3.17772 9.92644 3.24803 9.79751C3.31736 9.66955 3.41991 9.54843 3.55467 9.4322C3.68943 9.31596 3.8564 9.22317 4.05659 9.15382C4.25677 9.08349 4.48039 9.04834 4.72745 9.04834C4.94326 9.04834 5.14052 9.07764 5.31825 9.13624C5.49597 9.19583 5.65123 9.2808 5.78208 9.39215C5.91294 9.5035 6.01254 9.63243 6.07894 9.77894C6.14535 9.92545 6.17952 10.0837 6.17952 10.2527C6.17952 10.4754 6.13167 10.6658 6.03402 10.8251C5.93734 10.9843 5.79869 11.1396 5.61901 11.291C5.79283 11.3847 5.93931 11.4912 6.05844 11.6113C6.17757 11.7315 6.26643 11.8643 6.32698 12.0108C6.38752 12.1564 6.41682 12.3136 6.41682 12.4826C6.41682 12.6858 6.37581 12.8811 6.29476 13.0706C6.21371 13.2601 6.09359 13.4281 5.93638 13.5766C5.77818 13.725 5.59069 13.8413 5.3739 13.9233C5.15712 14.0073 4.91788 14.0483 4.6552 14.0483C4.38861 14.0483 4.14839 14.0005 3.93746 13.9048C3.72653 13.809 3.55173 13.6889 3.41502 13.5463C3.27733 13.4027 3.17479 13.2542 3.10448 13.0999C3.03515 12.9466 3 12.8196 3 12.719C3 12.5901 3.042 12.4855 3.125 12.4064C3.20898 12.3273 3.31248 12.2882 3.43748 12.2882C3.49997 12.2882 3.55954 12.3068 3.61813 12.3439C3.67574 12.38 3.71384 12.425 3.73142 12.4758C3.84762 12.7854 3.97163 13.0149 4.10346 13.1654C4.23529 13.3148 4.4218 13.39 4.66202 13.39C4.79971 13.39 4.93252 13.3558 5.06044 13.2884C5.18836 13.221 5.29382 13.1204 5.3778 12.9866C5.46081 12.8528 5.5028 12.6985 5.5028 12.5227C5.5028 12.2619 5.43152 12.0577 5.28895 11.9102C5.14638 11.7618 4.94815 11.6875 4.69523 11.6875C4.65129 11.6875 4.58195 11.6914 4.48821 11.7012C4.39446 11.711 4.3349 11.7149 4.30755 11.7149C4.18549 11.7149 4.09077 11.6846 4.02339 11.6231C3.95699 11.5615 3.92281 11.4765 3.92281 11.3672C3.92281 11.2607 3.96285 11.1738 4.04292 11.1083C4.123 11.0429 4.24213 11.0097 4.40032 11.0097H4.53704V11.0106Z" fill="white"/>
<path d="M12.0974 13.4972V12.881H10.4353C10.2261 12.881 10.0682 12.8336 9.96361 12.7386C9.85901 12.6437 9.80573 12.5148 9.80573 12.3511C9.80573 12.3094 9.81348 12.2668 9.82897 12.2242C9.84447 12.1806 9.86771 12.136 9.8987 12.0876C9.92969 12.0401 9.96166 11.9946 9.99459 11.95C10.0275 11.9054 10.0682 11.8512 10.1166 11.7882L11.8717 9.44081C11.9869 9.2858 12.0809 9.17439 12.1545 9.10463C12.2281 9.03488 12.3172 9 12.4208 9C12.756 9 12.9245 9.19182 12.9245 9.57644V12.1399H13.0669C13.2364 12.1399 13.3729 12.1632 13.4756 12.2097C13.5783 12.2562 13.6296 12.3579 13.6296 12.5139C13.6296 12.6417 13.588 12.7357 13.5037 12.7938C13.4204 12.852 13.2945 12.881 13.126 12.881H12.9245V13.4972C12.9245 13.6667 12.8867 13.7937 12.8121 13.876C12.7366 13.9593 12.6369 14 12.5109 14C12.3879 14 12.2881 13.9574 12.2107 13.8731C12.1351 13.7878 12.0974 13.6619 12.0974 13.4972ZM10.6736 12.1389H12.0974V10.2149L10.6736 12.1389Z" fill="white"/>
</svg>
