<svg width="20" height="20" viewBox="0 0 20 20" fill="none" xmlns="http://www.w3.org/2000/svg">
<path fill-rule="evenodd" clip-rule="evenodd" d="M16.75 7.5C17.0261 7.5 17.25 7.72386 17.25 8L17.25 12C17.25 12.2761 17.0261 12.5 16.75 12.5C16.4739 12.5 16.25 12.2761 16.25 12L16.25 8C16.25 7.72386 16.4739 7.5 16.75 7.5Z" fill="white"/>
<path fill-rule="evenodd" clip-rule="evenodd" d="M3 7.5C3.27614 7.5 3.5 7.72386 3.5 8L3.5 12C3.5 12.2761 3.27614 12.5 3 12.5C2.72386 12.5 2.5 12.2761 2.5 12L2.5 8C2.5 7.72386 2.72386 7.5 3 7.5Z" fill="white"/>
<path fill-rule="evenodd" clip-rule="evenodd" d="M7.1875 7.375C7.98141 7.375 8.625 6.73141 8.625 5.9375C8.625 5.14359 7.98141 4.5 7.1875 4.5C6.39359 4.5 5.75 5.14359 5.75 5.9375C5.75 6.73141 6.39359 7.375 7.1875 7.375ZM7.1875 8.125C8.39562 8.125 9.375 7.14562 9.375 5.9375C9.375 4.72938 8.39562 3.75 7.1875 3.75C5.97938 3.75 5 4.72938 5 5.9375C5 7.14562 5.97938 8.125 7.1875 8.125Z" fill="white"/>
<path fill-rule="evenodd" clip-rule="evenodd" d="M14.625 4.5H12.25C12.1119 4.5 12 4.61193 12 4.75V7.125C12 7.26307 12.1119 7.375 12.25 7.375H14.625C14.7631 7.375 14.875 7.26307 14.875 7.125V4.75C14.875 4.61193 14.7631 4.5 14.625 4.5ZM12.25 3.75C11.6977 3.75 11.25 4.19772 11.25 4.75V7.125C11.25 7.67728 11.6977 8.125 12.25 8.125H14.625C15.1773 8.125 15.625 7.67728 15.625 7.125V4.75C15.625 4.19772 15.1773 3.75 14.625 3.75H12.25Z" fill="white"/>
<path fill-rule="evenodd" clip-rule="evenodd" d="M13.125 11.75L11.7177 14.1875H14.5323L13.125 11.75ZM13.558 11C13.3655 10.6667 12.8844 10.6667 12.692 11L10.8517 14.1875C10.6592 14.5208 10.8998 14.9375 11.2847 14.9375H14.9653C15.3502 14.9375 15.5908 14.5208 15.3983 14.1875L13.558 11Z" fill="white"/>
<path fill-rule="evenodd" clip-rule="evenodd" d="M7.49997 11.4269L6.00401 12.5138L6.57542 14.2724H8.42453L8.99594 12.5138L7.49997 11.4269ZM7.79387 10.7134C7.61862 10.5861 7.38132 10.5861 7.20608 10.7134L5.41622 12.0138C5.24098 12.1411 5.16765 12.3668 5.23459 12.5728L5.91825 14.6769C5.98519 14.8829 6.17717 15.0224 6.39378 15.0224H8.60616C8.82278 15.0224 9.01476 14.8829 9.08169 14.6769L9.76536 12.5728C9.83229 12.3668 9.75897 12.1411 9.58372 12.0138L7.79387 10.7134Z" fill="white"/>
</svg>
