<svg width="20" height="20" viewBox="0 0 20 20" fill="none" xmlns="http://www.w3.org/2000/svg">
<path fill-rule="evenodd" clip-rule="evenodd" d="M17.25 7.75C17.5261 7.75 17.75 7.97386 17.75 8.25L17.75 12.25C17.75 12.5261 17.5261 12.75 17.25 12.75C16.9739 12.75 16.75 12.5261 16.75 12.25L16.75 8.25C16.75 7.97386 16.9739 7.75 17.25 7.75Z" fill="white"/>
<path fill-rule="evenodd" clip-rule="evenodd" d="M3.5 7.75C3.77614 7.75 4 7.97386 4 8.25L4 12.25C4 12.5261 3.77614 12.75 3.5 12.75C3.22386 12.75 3 12.5261 3 12.25L3 8.25C3 7.97386 3.22386 7.75 3.5 7.75Z" fill="white"/>
<path fill-rule="evenodd" clip-rule="evenodd" d="M6.39646 14.8965C6.2012 14.7013 6.2012 14.3847 6.39646 14.1894L14.4394 6.14652C14.6346 5.95126 14.9512 5.95126 15.1465 6.14652C15.3417 6.34178 15.3417 6.65837 15.1465 6.85363L7.10357 14.8965C6.90831 15.0918 6.59172 15.0918 6.39646 14.8965Z" fill="white"/>
<path fill-rule="evenodd" clip-rule="evenodd" d="M8 8C8.82843 8 9.5 7.32843 9.5 6.5C9.5 5.67157 8.82843 5 8 5C7.17157 5 6.5 5.67157 6.5 6.5C6.5 7.32843 7.17157 8 8 8ZM8 9C9.38071 9 10.5 7.88071 10.5 6.5C10.5 5.11929 9.38071 4 8 4C6.61929 4 5.5 5.11929 5.5 6.5C5.5 7.88071 6.61929 9 8 9Z" fill="white"/>
<path fill-rule="evenodd" clip-rule="evenodd" d="M13 15.5C13.8284 15.5 14.5 14.8284 14.5 14C14.5 13.1716 13.8284 12.5 13 12.5C12.1716 12.5 11.5 13.1716 11.5 14C11.5 14.8284 12.1716 15.5 13 15.5ZM13 16.5C14.3807 16.5 15.5 15.3807 15.5 14C15.5 12.6193 14.3807 11.5 13 11.5C11.6193 11.5 10.5 12.6193 10.5 14C10.5 15.3807 11.6193 16.5 13 16.5Z" fill="white"/>
</svg>
