<svg width="20" height="20" viewBox="0 0 20 20" fill="none" xmlns="http://www.w3.org/2000/svg">
<path fill-rule="evenodd" clip-rule="evenodd" d="M17.25 7.75C17.5261 7.75 17.75 7.97386 17.75 8.25L17.75 12.25C17.75 12.5261 17.5261 12.75 17.25 12.75C16.9739 12.75 16.75 12.5261 16.75 12.25L16.75 8.25C16.75 7.97386 16.9739 7.75 17.25 7.75Z" fill="white"/>
<path fill-rule="evenodd" clip-rule="evenodd" d="M3.5 7.75C3.77614 7.75 4 7.97386 4 8.25L4 12.25C4 12.5261 3.77614 12.75 3.5 12.75C3.22386 12.75 3 12.5261 3 12.25L3 8.25C3 7.97386 3.22386 7.75 3.5 7.75Z" fill="white"/>
<path d="M10.5 6.5C10.5 7.88071 9.38071 9 8 9C6.61929 9 5.5 7.88071 5.5 6.5C5.5 5.11929 6.61929 4 8 4C9.38071 4 10.5 5.11929 10.5 6.5Z" fill="white"/>
<path d="M10.5 14C10.5 12.6193 11.6193 11.5 13 11.5C14.3807 11.5 15.5 12.6193 15.5 14C15.5 15.3807 14.3807 16.5 13 16.5C11.6193 16.5 10.5 15.3807 10.5 14Z" fill="white"/>
<path fill-rule="evenodd" clip-rule="evenodd" d="M14.5 5.75H7.75C7.47386 5.75 7.25 5.97386 7.25 6.25V6.75C7.25 7.02614 7.47386 7.25 7.75 7.25H14.5C14.7761 7.25 15 7.02614 15 6.75V6.25C15 5.97386 14.7761 5.75 14.5 5.75ZM7.75 5.25C7.19772 5.25 6.75 5.69772 6.75 6.25V6.75C6.75 7.30228 7.19772 7.75 7.75 7.75H14.5C15.0523 7.75 15.5 7.30228 15.5 6.75V6.25C15.5 5.69772 15.0523 5.25 14.5 5.25H7.75Z" fill="white"/>
<path fill-rule="evenodd" clip-rule="evenodd" d="M6.5 14.75L13.25 14.75C13.5261 14.75 13.75 14.5261 13.75 14.25L13.75 13.75C13.75 13.4739 13.5261 13.25 13.25 13.25L6.5 13.25C6.22386 13.25 6 13.4739 6 13.75L6 14.25C6 14.5261 6.22386 14.75 6.5 14.75ZM13.25 15.25C13.8023 15.25 14.25 14.8023 14.25 14.25L14.25 13.75C14.25 13.1977 13.8023 12.75 13.25 12.75L6.5 12.75C5.94772 12.75 5.5 13.1977 5.5 13.75L5.5 14.25C5.5 14.8023 5.94771 15.25 6.5 15.25L13.25 15.25Z" fill="white"/>
</svg>
