<svg width="16" height="16" viewBox="0 0 16 16" fill="none" xmlns="http://www.w3.org/2000/svg">
<path fill-rule="evenodd" clip-rule="evenodd" d="M6.39252 1.38312C6.39252 1.16728 6.57509 1 6.78772 1H8.37801C8.59064 1 8.77322 1.16728 8.77322 1.38312V2.9042C8.77322 3.12004 8.59064 3.28732 8.37801 3.28732C8.16538 3.28732 7.98281 3.12004 7.98281 2.9042V2.30926L7.12141 3.13318C7.6015 3.7173 7.86241 4.41822 7.86241 5.17201C7.86241 6.99189 6.32087 8.45902 4.43121 8.45902C2.54155 8.45902 1 6.99189 1 5.17201C1 3.36565 2.54185 1.89882 4.43121 1.89882C5.20368 1.89882 5.94878 2.14847 6.54807 2.58529L7.40439 1.76624H6.78772C6.57509 1.76624 6.39252 1.59895 6.39252 1.38312ZM4.43121 2.65123C2.96681 2.65123 1.79041 3.78379 1.79041 5.17201C1.79041 6.56023 2.96681 7.69278 4.43121 7.69278C5.89443 7.69278 7.05789 6.56121 7.07201 5.17145C7.07169 3.78348 5.89541 2.65123 4.43121 2.65123ZM8.11632 8.15932C8.11632 6.32022 9.6618 4.83607 11.5582 4.83607C13.4545 4.83607 15 6.32022 15 8.15932C15 9.86473 13.6701 11.2713 11.9543 11.4589V11.9687H12.8635C13.0774 11.9687 13.2596 12.1383 13.2596 12.355C13.2596 12.5718 13.0774 12.7413 12.8635 12.7413H11.9543V13.6137C11.9543 13.8305 11.7721 14 11.5582 14C11.3442 14 11.162 13.8305 11.162 13.6137V12.7413H10.2529C10.0389 12.7413 9.85673 12.5718 9.85673 12.355C9.85673 12.1383 10.0389 11.9687 10.2529 11.9687H11.162V11.4588C9.46017 11.2709 8.11632 9.86483 8.11632 8.15932ZM11.5582 5.60861C10.0897 5.60861 8.90858 6.75376 8.90858 8.15932C8.90858 9.56489 10.0897 10.71 11.5582 10.71C13.0266 10.71 14.2077 9.56489 14.2077 8.15932C14.2077 6.75376 13.0266 5.60861 11.5582 5.60861Z" fill="white"/>
</svg>
