<svg width="20" height="20" viewBox="0 0 20 20" fill="none" xmlns="http://www.w3.org/2000/svg">
<path fill-rule="evenodd" clip-rule="evenodd" d="M16.875 7.625C17.1511 7.625 17.375 7.84886 17.375 8.125V11.875C17.375 12.1511 17.1511 12.375 16.875 12.375C16.5989 12.375 16.375 12.1511 16.375 11.875V8.125C16.375 7.84886 16.5989 7.625 16.875 7.625Z" fill="white"/>
<path fill-rule="evenodd" clip-rule="evenodd" d="M3.125 7.625C3.40114 7.625 3.625 7.84886 3.625 8.125V11.875C3.625 12.1511 3.40114 12.375 3.125 12.375C2.84886 12.375 2.625 12.1511 2.625 11.875V8.125C2.625 7.84886 2.84886 7.625 3.125 7.625Z" fill="white"/>
<path fill-rule="evenodd" clip-rule="evenodd" d="M11.6036 8.39645C11.7988 8.59171 11.7988 8.90829 11.6036 9.10355L9.10355 11.6036C8.90829 11.7988 8.59171 11.7988 8.39645 11.6036C8.20118 11.4083 8.20118 11.0917 8.39645 10.8964L10.8964 8.39645C11.0917 8.20118 11.4083 8.20118 11.6036 8.39645Z" fill="white"/>
<path fill-rule="evenodd" clip-rule="evenodd" d="M10.4165 5.48627C10.9496 4.9463 11.6906 4.60864 12.5125 4.60864C14.1413 4.60864 15.4588 5.92767 15.4588 7.55489C15.4588 8.25262 15.1936 9.00684 14.755 9.46186L14.7486 9.46851L14.7486 9.46845C14.7489 9.46809 14.7152 9.50206 14.6502 9.56742L14.3761 9.84293C14.1427 10.0774 13.8153 10.4061 13.4389 10.7832C13.2438 10.9786 12.9272 10.9788 12.7317 10.7837C12.5363 10.5886 12.5361 10.2721 12.7312 10.0766C13.4429 9.36367 13.9843 8.81889 14.0372 8.76562C14.2627 8.52976 14.4588 8.04308 14.4588 7.55489C14.4588 6.47962 13.5887 5.60864 12.5125 5.60864C11.9701 5.60864 11.4816 5.83045 11.1273 6.18972L11.1248 6.1922L11.1248 6.1922L9.98731 7.3297C9.79205 7.52496 9.47547 7.52496 9.28021 7.3297C9.08494 7.13443 9.08494 6.81785 9.28021 6.62259L10.4165 5.48627Z" fill="white"/>
<path fill-rule="evenodd" clip-rule="evenodd" d="M9.64222 14.441C9.1091 14.9809 8.36816 15.3186 7.54624 15.3186C5.91743 15.3186 4.59999 13.9996 4.59999 12.3724C4.59999 11.6746 4.86519 10.9204 5.30372 10.4654L5.31012 10.4587L5.31018 10.4588C5.30982 10.4592 5.34358 10.4252 5.40856 10.3598L5.68264 10.0843C5.91606 9.8498 6.24343 9.52118 6.61989 9.14409C6.81499 8.94867 7.13157 8.94841 7.327 9.14351C7.52242 9.33861 7.52268 9.65519 7.32758 9.85061C6.6158 10.5636 6.07447 11.1084 6.02154 11.1616C5.79601 11.3975 5.59999 11.8842 5.59999 12.3724C5.59999 13.4476 6.47005 14.3186 7.54624 14.3186C8.08865 14.3186 8.57719 14.0968 8.93147 13.7375L8.93393 13.735L8.93393 13.735L10.0714 12.5976C10.2667 12.4023 10.5833 12.4023 10.7785 12.5976C10.9738 12.7928 10.9738 13.1094 10.7785 13.3047L9.64222 14.441Z" fill="white"/>
</svg>
