<svg width="20" height="20" viewBox="0 0 20 20" fill="none" xmlns="http://www.w3.org/2000/svg">
<path fill-rule="evenodd" clip-rule="evenodd" d="M7.1875 8.125C8.39562 8.125 9.375 7.14562 9.375 5.9375C9.375 4.72938 8.39562 3.75 7.1875 3.75C5.97938 3.75 5 4.72938 5 5.9375C5 7.14562 5.97938 8.125 7.1875 8.125ZM7.1875 7.625C8.11948 7.625 8.875 6.86948 8.875 5.9375C8.875 5.00552 8.11948 4.25 7.1875 4.25C6.25552 4.25 5.5 5.00552 5.5 5.9375C5.5 6.86948 6.25552 7.625 7.1875 7.625Z" fill="white"/>
<path d="M3.5 8C3.5 7.72386 3.27614 7.5 3 7.5C2.72386 7.5 2.5 7.72386 2.5 8V12C2.5 12.2761 2.72386 12.5 3 12.5C3.27614 12.5 3.5 12.2761 3.5 12L3.5 8Z" fill="white"/>
<path d="M17.25 8C17.25 7.72386 17.0261 7.5 16.75 7.5C16.4739 7.5 16.25 7.72386 16.25 8V12C16.25 12.2761 16.4739 12.5 16.75 12.5C17.0261 12.5 17.25 12.2761 17.25 12V8Z" fill="white"/>
<path fill-rule="evenodd" clip-rule="evenodd" d="M11.25 4.75C11.25 4.19772 11.6977 3.75 12.25 3.75H14.625C15.1773 3.75 15.625 4.19772 15.625 4.75V7.125C15.625 7.67728 15.1773 8.125 14.625 8.125H12.25C11.6977 8.125 11.25 7.67728 11.25 7.125V4.75ZM12.25 4.25H14.625C14.9011 4.25 15.125 4.47386 15.125 4.75V7.125C15.125 7.40114 14.9011 7.625 14.625 7.625H12.25C11.9739 7.625 11.75 7.40114 11.75 7.125V4.75C11.75 4.47386 11.9739 4.25 12.25 4.25Z" fill="white"/>
<path fill-rule="evenodd" clip-rule="evenodd" d="M13.558 10.9999C13.3656 10.6666 12.8844 10.6666 12.692 10.9999L10.8517 14.1874C10.6592 14.5208 10.8998 14.9374 11.2847 14.9374H14.9653C15.3502 14.9374 15.5908 14.5208 15.3983 14.1874L13.558 10.9999ZM14.9653 14.4374L13.125 11.2499L11.2847 14.4374H14.9653Z" fill="white"/>
<path fill-rule="evenodd" clip-rule="evenodd" d="M7.20611 10.7134C7.38135 10.5861 7.61865 10.5861 7.79389 10.7134L9.58375 12.0138C9.75899 12.1411 9.83232 12.3668 9.76538 12.5728L9.08172 14.6769C9.01478 14.8829 8.8228 15.0224 8.60619 15.0224H6.39381C6.1772 15.0224 5.98522 14.8829 5.91828 14.6769L5.23462 12.5728C5.16768 12.3668 5.24101 12.1411 5.41625 12.0138L7.20611 10.7134ZM7.5 11.1179L9.28986 12.4183L8.60619 14.5224H6.39381L5.71014 12.4183L7.5 11.1179Z" fill="white"/>
</svg>
