<svg width="20" height="20" viewBox="0 0 20 20" fill="none" xmlns="http://www.w3.org/2000/svg">
<path d="M8.9785 9.16667C9.28359 8.50785 9.93893 8.05556 10.6919 8.05556C11.2105 8.05556 11.6811 8.26892 12.0245 8.61708C12.1322 8.72631 12.3081 8.72753 12.4173 8.6198C12.5265 8.51207 12.5277 8.3362 12.42 8.22697C11.9778 7.77864 11.367 7.5 10.6919 7.5C9.62094 7.5 8.71622 8.1982 8.3804 9.16667H7.77778C7.62437 9.16667 7.5 9.29103 7.5 9.44444C7.5 9.59786 7.62437 9.72222 7.77778 9.72222H8.25574C8.24583 9.81347 8.24074 9.90615 8.24074 10C8.24074 10.0938 8.24583 10.1865 8.25574 10.2778H7.77778C7.62437 10.2778 7.5 10.4021 7.5 10.5556C7.5 10.709 7.62437 10.8333 7.77778 10.8333H8.3804C8.71622 11.8018 9.62094 12.5 10.6919 12.5C11.367 12.5 11.9778 12.2214 12.42 11.773C12.5277 11.6638 12.5265 11.4879 12.4173 11.3802C12.3081 11.2725 12.1322 11.2737 12.0245 11.3829C11.6811 11.7311 11.2105 11.9444 10.6919 11.9444C9.93893 11.9444 9.28359 11.4922 8.9785 10.8333H10.3704C10.5238 10.8333 10.6481 10.709 10.6481 10.5556C10.6481 10.4021 10.5238 10.2778 10.3704 10.2778H8.81544C8.80282 10.1871 8.7963 10.0944 8.7963 10C8.7963 9.90562 8.80282 9.81288 8.81544 9.72222H10.3704C10.5238 9.72222 10.6481 9.59786 10.6481 9.44444C10.6481 9.29103 10.5238 9.16667 10.3704 9.16667H8.9785Z" fill="white"/>
<path fill-rule="evenodd" clip-rule="evenodd" d="M5 7C5 5.89543 5.89543 5 7 5H13C14.1046 5 15 5.89543 15 7V13C15 14.1046 14.1046 15 13 15H7C5.89543 15 5 14.1046 5 13V7ZM7 6H13C13.5523 6 14 6.44772 14 7V13C14 13.5523 13.5523 14 13 14H7C6.44772 14 6 13.5523 6 13V7C6 6.44772 6.44772 6 7 6Z" fill="white"/>
<path d="M3 7.5C3.27614 7.5 3.5 7.72386 3.5 8L3.5 12C3.5 12.2761 3.27614 12.5 3 12.5C2.72386 12.5 2.5 12.2761 2.5 12V8C2.5 7.72386 2.72386 7.5 3 7.5Z" fill="white"/>
<path d="M17.25 8C17.25 7.72386 17.0261 7.5 16.75 7.5C16.4739 7.5 16.25 7.72386 16.25 8V12C16.25 12.2761 16.4739 12.5 16.75 12.5C17.0261 12.5 17.25 12.2761 17.25 12V8Z" fill="white"/>
</svg>
