<svg width="20" height="20" viewBox="0 0 20 20" fill="none" xmlns="http://www.w3.org/2000/svg">
<path d="M5.625 10.725C5.625 10.6698 5.66977 10.625 5.725 10.625H6.775C6.83023 10.625 6.875 10.6698 6.875 10.725V11.775C6.875 11.8302 6.83023 11.875 6.775 11.875H5.725C5.66977 11.875 5.625 11.8302 5.625 11.775V10.725Z" fill="white"/>
<path d="M5.725 13.125C5.66977 13.125 5.625 13.1698 5.625 13.225V14.275C5.625 14.3302 5.66977 14.375 5.725 14.375H6.775C6.83023 14.375 6.875 14.3302 6.875 14.275V13.225C6.875 13.1698 6.83023 13.125 6.775 13.125H5.725Z" fill="white"/>
<path d="M8.125 10.725C8.125 10.6698 8.16977 10.625 8.225 10.625H9.275C9.33023 10.625 9.375 10.6698 9.375 10.725V11.775C9.375 11.8302 9.33023 11.875 9.275 11.875H8.225C8.16977 11.875 8.125 11.8302 8.125 11.775V10.725Z" fill="white"/>
<path d="M8.225 13.125C8.16977 13.125 8.125 13.1698 8.125 13.225V14.275C8.125 14.3302 8.16977 14.375 8.225 14.375H9.275C9.33023 14.375 9.375 14.3302 9.375 14.275V13.225C9.375 13.1698 9.33023 13.125 9.275 13.125H8.225Z" fill="white"/>
<path d="M10.625 10.725C10.625 10.6698 10.6698 10.625 10.725 10.625H11.775C11.8302 10.625 11.875 10.6698 11.875 10.725V11.775C11.875 11.8302 11.8302 11.875 11.775 11.875H10.725C10.6698 11.875 10.625 11.8302 10.625 11.775V10.725Z" fill="white"/>
<path d="M10.725 13.125C10.6698 13.125 10.625 13.1698 10.625 13.225V14.275C10.625 14.3302 10.6698 14.375 10.725 14.375H11.775C11.8302 14.375 11.875 14.3302 11.875 14.275V13.225C11.875 13.1698 11.8302 13.125 11.775 13.125H10.725Z" fill="white"/>
<path d="M13.125 10.725C13.125 10.6698 13.1698 10.625 13.225 10.625H14.275C14.3302 10.625 14.375 10.6698 14.375 10.725V11.775C14.375 11.8302 14.3302 11.875 14.275 11.875H13.225C13.1698 11.875 13.125 11.8302 13.125 11.775V10.725Z" fill="white"/>
<path d="M13.225 13.125C13.1698 13.125 13.125 13.1698 13.125 13.225V14.275C13.125 14.3302 13.1698 14.375 13.225 14.375H14.275C14.3302 14.375 14.375 14.3302 14.375 14.275V13.225C14.375 13.1698 14.3302 13.125 14.275 13.125H13.225Z" fill="white"/>
<path fill-rule="evenodd" clip-rule="evenodd" d="M6.25 2.625C6.52614 2.625 6.75 2.84886 6.75 3.125V3.875H13.25V3.125C13.25 2.84886 13.4739 2.625 13.75 2.625C14.0261 2.625 14.25 2.84886 14.25 3.125V3.875H15.875C16.7034 3.875 17.375 4.54657 17.375 5.375V15.875C17.375 16.7034 16.7034 17.375 15.875 17.375H4.125C3.29657 17.375 2.625 16.7034 2.625 15.875V5.375C2.625 4.54657 3.29657 3.875 4.125 3.875H5.75V3.125C5.75 2.84886 5.97386 2.625 6.25 2.625ZM13.25 4.875V5.625C13.25 5.90114 13.4739 6.125 13.75 6.125C14.0261 6.125 14.25 5.90114 14.25 5.625V4.875H15.875C16.1511 4.875 16.375 5.09886 16.375 5.375V7.83099H3.625V5.375C3.625 5.09886 3.84886 4.875 4.125 4.875H5.75V5.625C5.75 5.90114 5.97386 6.125 6.25 6.125C6.52614 6.125 6.75 5.90114 6.75 5.625V4.875H13.25ZM3.625 8.83099H16.375V15.875C16.375 16.1511 16.1511 16.375 15.875 16.375H4.125C3.84886 16.375 3.625 16.1511 3.625 15.875V8.83099Z" fill="white"/>
</svg>
