<svg width="20" height="20" viewBox="0 0 20 20" fill="none" xmlns="http://www.w3.org/2000/svg">
<path fill-rule="evenodd" clip-rule="evenodd" d="M5.73574 4.07895C4.84222 4.07895 4.11787 4.78587 4.11787 5.65789C4.11787 6.52992 4.84222 7.23684 5.73574 7.23684C6.62927 7.23684 7.35361 6.52992 7.35361 5.65789C7.35361 4.78587 6.62927 4.07895 5.73574 4.07895ZM2.5 5.65789C2.5 3.91384 3.94869 2.5 5.73574 2.5C7.52279 2.5 8.97148 3.91384 8.97148 5.65789C8.97148 7.40195 7.52279 8.81579 5.73574 8.81579C3.94869 8.81579 2.5 7.40195 2.5 5.65789ZM17.0261 4.11281C17.342 4.42112 17.342 4.92099 17.0261 5.22929L4.31812 16.2481C4.00221 16.5564 3.49002 16.5564 3.17411 16.2481C2.8582 15.9398 2.8582 15.4399 3.17411 15.1316L15.8821 4.11281C16.198 3.8045 16.7102 3.8045 17.0261 4.11281ZM14.2643 12.7632C13.3707 12.7632 12.6464 13.4701 12.6464 14.3421C12.6464 15.2141 13.3707 15.9211 14.2643 15.9211C15.1578 15.9211 15.8821 15.2141 15.8821 14.3421C15.8821 13.4701 15.1578 12.7632 14.2643 12.7632ZM11.0285 14.3421C11.0285 12.598 12.4772 11.1842 14.2643 11.1842C16.0513 11.1842 17.5 12.598 17.5 14.3421C17.5 16.0862 16.0513 17.5 14.2643 17.5C12.4772 17.5 11.0285 16.0862 11.0285 14.3421Z" fill="white"/>
</svg>
