<svg width="20" height="20" viewBox="0 0 20 20" fill="none" xmlns="http://www.w3.org/2000/svg">
<path d="M7.80654 9.71875C7.79669 9.81115 7.79165 9.90499 7.79165 10C7.79165 10.095 7.79669 10.1888 7.80654 10.2812H9.375C9.65114 10.2812 9.875 10.5051 9.875 10.7812C9.875 11.0574 9.65114 11.2812 9.375 11.2812H8.12503C8.57429 12.0831 9.43218 12.625 10.4166 12.625C11.1417 12.625 11.7972 12.3317 12.2728 11.8562C12.4681 11.6609 12.7846 11.6609 12.9799 11.8562C13.1752 12.0514 13.1752 12.368 12.9799 12.5633C12.3245 13.2187 11.4175 13.625 10.4166 13.625C8.86568 13.625 7.54221 12.651 7.02458 11.2812H6.25C5.97386 11.2812 5.75 11.0574 5.75 10.7812C5.75 10.5051 5.97386 10.2812 6.25 10.2812H6.8024C6.79527 10.1884 6.79165 10.0946 6.79165 10C6.79165 9.90536 6.79527 9.81157 6.8024 9.71875H6.25C5.97386 9.71875 5.75 9.49489 5.75 9.21875C5.75 8.94261 5.97386 8.71875 6.25 8.71875H7.02458C7.54221 7.34903 8.86568 6.375 10.4166 6.375C11.4175 6.375 12.3245 6.78129 12.9799 7.43674C13.1752 7.632 13.1752 7.94858 12.9799 8.14384C12.7846 8.33911 12.4681 8.33911 12.2728 8.14384C11.7972 7.66827 11.1417 7.375 10.4166 7.375C9.43218 7.375 8.57429 7.91693 8.12503 8.71875H9.375C9.65114 8.71875 9.875 8.94261 9.875 9.21875C9.875 9.49489 9.65114 9.71875 9.375 9.71875H7.80654Z" fill="white"/>
<path fill-rule="evenodd" clip-rule="evenodd" d="M1.375 5.375C1.375 4.54657 2.04657 3.875 2.875 3.875H17.125C17.9534 3.875 18.625 4.54657 18.625 5.375V14.625C18.625 15.4534 17.9534 16.125 17.125 16.125H2.875C2.04657 16.125 1.375 15.4534 1.375 14.625V5.375ZM2.875 4.875C2.59886 4.875 2.375 5.09886 2.375 5.375V14.625C2.375 14.9011 2.59886 15.125 2.875 15.125H17.125C17.4011 15.125 17.625 14.9011 17.625 14.625V5.375C17.625 5.09886 17.4011 4.875 17.125 4.875H2.875Z" fill="white"/>
</svg>
