<svg width="20" height="20" viewBox="0 0 20 20" fill="none" xmlns="http://www.w3.org/2000/svg">
<path d="M11.01 2.5V6.16477H13.433V7.01705H11.01V14.2492C11.01 14.9716 11.1043 15.4586 11.293 15.7102C11.4893 15.9619 11.7384 16.0877 12.0403 16.0877C12.2894 16.0877 12.5309 16.0065 12.7649 15.8442C12.9989 15.6737 13.1801 15.4261 13.3084 15.1015H13.75C13.4858 15.8969 13.1122 16.4976 12.6291 16.9034C12.146 17.3011 11.6478 17.5 11.1345 17.5C10.7873 17.5 10.4476 17.3985 10.1155 17.1956C9.78336 16.9846 9.53804 16.6883 9.37953 16.3068C9.22101 15.9172 9.14176 15.3206 9.14176 14.517V7.01705H7.5V6.61526C7.91516 6.43669 8.33786 6.13636 8.76812 5.71429C9.20592 5.28409 9.59466 4.77679 9.93433 4.19237C10.1079 3.88393 10.3495 3.31981 10.659 2.5H11.01Z" fill="white"/>
<path fill-rule="evenodd" clip-rule="evenodd" d="M16.75 7.5C17.0261 7.5 17.25 7.72386 17.25 8L17.25 12C17.25 12.2761 17.0261 12.5 16.75 12.5C16.4739 12.5 16.25 12.2761 16.25 12L16.25 8C16.25 7.72386 16.4739 7.5 16.75 7.5Z" fill="white"/>
<path fill-rule="evenodd" clip-rule="evenodd" d="M3 7.5C3.27614 7.5 3.5 7.72386 3.5 8L3.5 12C3.5 12.2761 3.27614 12.5 3 12.5C2.72386 12.5 2.5 12.2761 2.5 12L2.5 8C2.5 7.72386 2.72386 7.5 3 7.5Z" fill="white"/>
</svg>
