<svg xmlns="http://www.w3.org/2000/svg" viewBox="0 0 20 20">
  <path d="M8.979 9.167a1.9 1.9 0 0 1 1.713-1.111c.518 0 .99.213 1.332.561a.278.278 0 1 0 .396-.39 2.42 2.42 0 0 0-1.728-.727c-1.071 0-1.976.698-2.312 1.667h-.602a.278.278 0 1 0 0 .555h.478a2.6 2.6 0 0 0 0 .556h-.478a.278.278 0 1 0 0 .555h.602a2.45 2.45 0 0 0 2.312 1.667 2.42 2.42 0 0 0 1.728-.727.278.278 0 0 0-.396-.39 1.87 1.87 0 0 1-1.332.561 1.89 1.89 0 0 1-1.713-1.11h1.391a.278.278 0 1 0 0-.556H8.815a2 2 0 0 1 0-.556h1.555a.278.278 0 0 0 0-.555zM5 7a2 2 0 0 1 2-2h6a2 2 0 0 1 2 2v6a2 2 0 0 1-2 2H7a2 2 0 0 1-2-2zm2-1h6a1 1 0 0 1 1 1v6a1 1 0 0 1-1 1H7a1 1 0 0 1-1-1V7a1 1 0 0 1 1-1M3 7.5a.5.5 0 0 1 .5.5v4a.5.5 0 0 1-1 0V8a.5.5 0 0 1 .5-.5m14.25.5a.5.5 0 0 0-1 0v4a.5.5 0 0 0 1 0z"/>
</svg>
