<svg width="20" height="20" viewBox="0 0 20 20" fill="none" xmlns="http://www.w3.org/2000/svg">
<path fill-rule="evenodd" clip-rule="evenodd" d="M10.6919 8.05556C9.65078 8.05556 8.7963 8.92026 8.7963 10C8.7963 11.0797 9.65078 11.9444 10.6919 11.9444C11.2105 11.9444 11.6811 11.7311 12.0245 11.3829C12.1322 11.2737 12.3081 11.2725 12.4173 11.3802C12.5265 11.4879 12.5277 11.6638 12.42 11.773C11.9778 12.2214 11.367 12.5 10.6919 12.5C9.33238 12.5 8.24074 11.3749 8.24074 10C8.24074 8.62514 9.33238 7.5 10.6919 7.5C11.367 7.5 11.9778 7.77864 12.42 8.22697C12.5277 8.3362 12.5265 8.51207 12.4173 8.6198C12.3081 8.72753 12.1322 8.72631 12.0245 8.61708C11.6811 8.26892 11.2105 8.05556 10.6919 8.05556Z" fill="white"/>
<path fill-rule="evenodd" clip-rule="evenodd" d="M7.5 9.44444C7.5 9.29103 7.62437 9.16667 7.77778 9.16667H10.3704C10.5238 9.16667 10.6481 9.29103 10.6481 9.44444C10.6481 9.59786 10.5238 9.72222 10.3704 9.72222H7.77778C7.62437 9.72222 7.5 9.59786 7.5 9.44444Z" fill="white"/>
<path fill-rule="evenodd" clip-rule="evenodd" d="M7.5 10.5556C7.5 10.4021 7.62437 10.2778 7.77778 10.2778H10.3704C10.5238 10.2778 10.6481 10.4021 10.6481 10.5556C10.6481 10.709 10.5238 10.8333 10.3704 10.8333H7.77778C7.62437 10.8333 7.5 10.709 7.5 10.5556Z" fill="white"/>
<path fill-rule="evenodd" clip-rule="evenodd" d="M10.6919 8.05556C9.65078 8.05556 8.7963 8.92026 8.7963 10C8.7963 11.0797 9.65078 11.9444 10.6919 11.9444C11.2105 11.9444 11.6811 11.7311 12.0245 11.3829C12.1322 11.2737 12.3081 11.2725 12.4173 11.3802C12.5265 11.4879 12.5277 11.6638 12.42 11.773C11.9778 12.2214 11.367 12.5 10.6919 12.5C9.33238 12.5 8.24074 11.3749 8.24074 10C8.24074 8.62514 9.33238 7.5 10.6919 7.5C11.367 7.5 11.9778 7.77864 12.42 8.22697C12.5277 8.3362 12.5265 8.51207 12.4173 8.6198C12.3081 8.72753 12.1322 8.72631 12.0245 8.61708C11.6811 8.26892 11.2105 8.05556 10.6919 8.05556Z" fill="white"/>
<path fill-rule="evenodd" clip-rule="evenodd" d="M7.5 9.44444C7.5 9.29103 7.62437 9.16667 7.77778 9.16667H10.3704C10.5238 9.16667 10.6481 9.29103 10.6481 9.44444C10.6481 9.59786 10.5238 9.72222 10.3704 9.72222H7.77778C7.62437 9.72222 7.5 9.59786 7.5 9.44444Z" fill="white"/>
<path fill-rule="evenodd" clip-rule="evenodd" d="M7.5 10.5556C7.5 10.4021 7.62437 10.2778 7.77778 10.2778H10.3704C10.5238 10.2778 10.6481 10.4021 10.6481 10.5556C10.6481 10.709 10.5238 10.8333 10.3704 10.8333H7.77778C7.62437 10.8333 7.5 10.709 7.5 10.5556Z" fill="white"/>
<path fill-rule="evenodd" clip-rule="evenodd" d="M16.75 7.5C17.0261 7.5 17.25 7.72386 17.25 8L17.25 12C17.25 12.2761 17.0261 12.5 16.75 12.5C16.4739 12.5 16.25 12.2761 16.25 12L16.25 8C16.25 7.72386 16.4739 7.5 16.75 7.5Z" fill="white"/>
<path fill-rule="evenodd" clip-rule="evenodd" d="M3 7.5C3.27614 7.5 3.5 7.72386 3.5 8L3.5 12C3.5 12.2761 3.27614 12.5 3 12.5C2.72386 12.5 2.5 12.2761 2.5 12L2.5 8C2.5 7.72386 2.72386 7.5 3 7.5Z" fill="white"/>
<path fill-rule="evenodd" clip-rule="evenodd" d="M13 6H7C6.44772 6 6 6.44772 6 7V13C6 13.5523 6.44772 14 7 14H13C13.5523 14 14 13.5523 14 13V7C14 6.44772 13.5523 6 13 6ZM7 5C5.89543 5 5 5.89543 5 7V13C5 14.1046 5.89543 15 7 15H13C14.1046 15 15 14.1046 15 13V7C15 5.89543 14.1046 5 13 5H7Z" fill="white"/>
</svg>
