<svg width="20" height="20" viewBox="0 0 20 20" fill="none" xmlns="http://www.w3.org/2000/svg">
<path d="M6.54323 3.75024L6.55742 6.95972C6.55742 7.13819 6.59903 7.27277 6.68527 7.36347C6.77151 7.45416 6.88413 7.5 7.02516 7.5C7.34172 7.5 7.5 7.27668 7.5 6.83002V3.01297C7.5 2.85303 7.46348 2.72723 7.38941 2.63653C7.31535 2.54584 7.21693 2.5 7.09416 2.5C6.9856 2.5 6.91052 2.52049 6.87197 2.56048C6.83341 2.60046 5.18364 3.90433 5.11059 3.957C5.03753 4.00966 5 4.09352 5 4.20665C5 4.30417 5.03753 4.38999 5.11261 4.46509C5.1877 4.5392 5.27394 4.57626 5.37135 4.57626C5.50566 4.57626 5.7182 4.40408 6.01692 4.16209C6.16952 4.03848 6.3446 3.89664 6.54323 3.75024Z" fill="white"/>
<path d="M14.4153 6.70087H12.5082C12.5614 6.62643 13.7114 5.65335 14.1056 5.3198L14.2239 5.21961C14.38 5.08973 14.5318 4.91027 14.6825 4.68124C14.8322 4.45221 14.907 4.1974 14.907 3.91682C14.907 3.73835 14.8706 3.56584 14.799 3.40026C14.7274 3.2337 14.6259 3.08794 14.4976 2.96103C14.3693 2.83412 14.2196 2.73498 14.0486 2.6626C13.7856 2.55453 13.4681 2.5 13.0951 2.5C12.7851 2.5 12.5157 2.54165 12.2858 2.62691C12.0549 2.71119 11.8657 2.82223 11.7161 2.96005C11.5664 3.09786 11.4542 3.25154 11.3783 3.42108C11.3024 3.59062 11.265 3.75323 11.265 3.90889C11.265 4.03778 11.3045 4.1399 11.3858 4.21426C11.467 4.28862 11.5675 4.3263 11.6893 4.3263C11.8272 4.3263 11.9331 4.28565 12.0047 4.20435C12.0774 4.12305 12.1415 4.00704 12.1993 3.85535C12.2559 3.70365 12.2965 3.61145 12.3211 3.57774C12.5039 3.31797 12.7551 3.18808 13.0737 3.18808C13.2255 3.18808 13.3644 3.21982 13.4927 3.28327C13.6199 3.34673 13.7215 3.43596 13.7953 3.54998C13.869 3.664 13.9064 3.79288 13.9064 3.93763C13.9064 4.07148 13.8711 4.20732 13.8017 4.34612C13.7332 4.48493 13.6317 4.62076 13.4992 4.75263C13.4578 4.7937 13.2429 4.98312 12.9637 5.2292C12.3395 5.77923 11.3941 6.61237 11.3483 6.70484C11.2831 6.83968 11.25 6.94776 11.25 7.02906C11.25 7.15498 11.3013 7.26502 11.4039 7.35921C11.5066 7.4534 11.6487 7.5 11.8315 7.5H14.5211C14.6814 7.5 14.8022 7.46233 14.8814 7.38499C14.9605 7.30766 15 7.21446 15 7.10342C15 6.97948 14.9508 6.88034 14.8503 6.80895C14.7499 6.73757 14.6055 6.70087 14.4153 6.70087Z" fill="white"/>
<path d="M6.68691 13.2123C6.9109 13.2123 7.10488 13.1517 7.26778 13.0316C7.43069 12.9115 7.51215 12.7386 7.51215 12.5139C7.51215 12.343 7.44676 12.1955 7.31815 12.0714C7.18847 11.9484 7.01378 11.8868 6.79408 11.8868C6.6451 11.8868 6.52293 11.9064 6.42541 11.9435C6.32895 11.9816 6.25286 12.0314 6.19713 12.0939C6.1414 12.1564 6.08781 12.2365 6.03744 12.3342C5.98814 12.4319 5.94205 12.5247 5.90025 12.6116C5.8756 12.6585 5.83166 12.6946 5.76843 12.722C5.70519 12.7493 5.63233 12.762 5.54874 12.762C5.45121 12.762 5.36118 12.7259 5.27972 12.6536C5.1972 12.5813 5.15647 12.4856 5.15647 12.3655C5.15647 12.2492 5.19505 12.1281 5.27222 11.9992C5.34831 11.8712 5.46085 11.7501 5.60875 11.6339C5.75665 11.5176 5.93991 11.4248 6.15962 11.3555C6.37932 11.2851 6.62474 11.25 6.89589 11.25C7.13274 11.25 7.34925 11.2793 7.5443 11.3379C7.73936 11.3975 7.90975 11.4825 8.05336 11.5938C8.19698 11.7052 8.30629 11.8341 8.37917 11.9806C8.45205 12.1271 8.48956 12.2853 8.48956 12.4543C8.48956 12.677 8.43704 12.8675 8.32987 13.0267C8.22377 13.1859 8.07159 13.3412 7.87439 13.4926C8.06516 13.5864 8.22592 13.6929 8.35667 13.813C8.48742 13.9331 8.58494 14.066 8.65139 14.2125C8.71784 14.358 8.75 14.5153 8.75 14.6843C8.75 14.8874 8.70499 15.0828 8.61603 15.2723C8.52708 15.4618 8.39525 15.6298 8.2227 15.7782C8.04908 15.9267 7.84331 16.0429 7.60538 16.125C7.36746 16.209 7.10489 16.25 6.81659 16.25C6.52401 16.25 6.26036 16.2022 6.02887 16.1064C5.79738 16.0107 5.60553 15.8906 5.45549 15.748C5.30438 15.6044 5.19183 15.4559 5.11467 15.3016C5.03858 15.1482 5 15.0212 5 14.9206C5 14.7917 5.04609 14.6872 5.13719 14.6081C5.22936 14.529 5.34295 14.4899 5.48013 14.4899C5.54873 14.4899 5.6141 14.5084 5.6784 14.5456C5.74163 14.5817 5.78345 14.6266 5.80274 14.6774C5.93027 14.9871 6.06638 15.2166 6.21106 15.367C6.35575 15.5165 6.56044 15.5917 6.82408 15.5917C6.9752 15.5917 7.12096 15.5575 7.26136 15.4901C7.40175 15.4227 7.5175 15.3221 7.60967 15.1883C7.70076 15.0545 7.74685 14.9001 7.74685 14.7243C7.74685 14.4635 7.66862 14.2594 7.51215 14.1119C7.35568 13.9634 7.13811 13.8892 6.86054 13.8892C6.81231 13.8892 6.73621 13.8931 6.63332 13.9029C6.53044 13.9126 6.46506 13.9165 6.43505 13.9165C6.30109 13.9165 6.19713 13.8862 6.12318 13.8247C6.0503 13.7632 6.01279 13.6782 6.01279 13.5688C6.01279 13.4623 6.05674 13.3754 6.14462 13.31C6.2325 13.2445 6.36325 13.2113 6.53687 13.2113L6.68691 13.2123Z" fill="white"/>
<path fill-rule="evenodd" clip-rule="evenodd" d="M13.4973 15.131V15.7472C13.4973 15.9119 13.5344 16.0378 13.6085 16.1231C13.6844 16.2074 13.7823 16.25 13.9029 16.25C14.0264 16.25 14.1242 16.2093 14.1983 16.126C14.2714 16.0437 14.3085 15.9167 14.3085 15.7472V15.131H14.5061C14.6713 15.131 14.7948 15.102 14.8765 15.0438C14.9592 14.9857 15 14.8917 15 14.7639C15 14.6079 14.9496 14.5062 14.8489 14.4597C14.7483 14.4132 14.6143 14.3899 14.4481 14.3899H14.3085V11.8264C14.3085 11.4418 14.1432 11.25 13.8146 11.25C13.7129 11.25 13.6256 11.2849 13.5534 11.3546C13.4812 11.4244 13.3891 11.5358 13.276 11.6908L11.5549 14.0382C11.5074 14.1012 11.4675 14.1554 11.4352 14.2C11.4029 14.2446 11.3716 14.2901 11.3412 14.3376C11.3108 14.386 11.288 14.4306 11.2728 14.4742C11.2576 14.5168 11.25 14.5594 11.25 14.6011C11.25 14.7648 11.3023 14.8937 11.4048 14.9886C11.5074 15.0836 11.6622 15.131 11.8674 15.131H13.4973ZM13.4973 14.3889H12.1011L13.4973 12.4649V14.3889Z" fill="white"/>
<path d="M16.75 7.5C17.0261 7.5 17.25 7.72386 17.25 8V12C17.25 12.2761 17.0261 12.5 16.75 12.5C16.4739 12.5 16.25 12.2761 16.25 12V8C16.25 7.72386 16.4739 7.5 16.75 7.5Z" fill="white"/>
<path d="M3.5 8C3.5 7.72386 3.27614 7.5 3 7.5C2.72386 7.5 2.5 7.72386 2.5 8V12C2.5 12.2761 2.72386 12.5 3 12.5C3.27614 12.5 3.5 12.2761 3.5 12L3.5 8Z" fill="white"/>
</svg>
