<svg width="20" height="20" viewBox="0 0 20 20" fill="none" xmlns="http://www.w3.org/2000/svg">
<path fill-rule="evenodd" clip-rule="evenodd" d="M7.5 3.75C8.42535 3.75 9.23328 4.25275 9.66554 5H14C14.5523 5 15 5.44772 15 6V6.5C15 7.05228 14.5523 7.5 14 7.5H9.66554C9.23328 8.24725 8.42535 8.75 7.5 8.75C6.11929 8.75 5 7.63071 5 6.25C5 4.86929 6.11929 3.75 7.5 3.75ZM10 6.25C10 6.5113 9.95991 6.76324 9.88555 7H14C14.2761 7 14.5 6.77614 14.5 6.5V6C14.5 5.72386 14.2761 5.5 14 5.5H9.88555C9.95991 5.73676 10 5.9887 10 6.25Z" fill="white"/>
<path d="M3.5 8C3.5 7.72386 3.27614 7.5 3 7.5C2.72386 7.5 2.5 7.72386 2.5 8V12C2.5 12.2761 2.72386 12.5 3 12.5C3.27614 12.5 3.5 12.2761 3.5 12L3.5 8Z" fill="white"/>
<path d="M17.25 8C17.25 7.72386 17.0261 7.5 16.75 7.5C16.4739 7.5 16.25 7.72386 16.25 8V12C16.25 12.2761 16.4739 12.5 16.75 12.5C17.0261 12.5 17.25 12.2761 17.25 12V8Z" fill="white"/>
<path fill-rule="evenodd" clip-rule="evenodd" d="M10.3345 12.5L6 12.5C5.44772 12.5 5 12.9477 5 13.5L5 14C5 14.5523 5.44771 15 6 15L10.3345 15C10.7667 15.7473 11.5746 16.25 12.5 16.25C13.8807 16.25 15 15.1307 15 13.75C15 12.3693 13.8807 11.25 12.5 11.25C11.5746 11.25 10.7667 11.7527 10.3345 12.5ZM10.1145 13C10.0401 13.2368 10 13.4887 10 13.75C10 14.0113 10.0401 14.2632 10.1145 14.5L6 14.5C5.72386 14.5 5.5 14.2761 5.5 14L5.5 13.5C5.5 13.2239 5.72386 13 6 13L10.1145 13Z" fill="white"/>
</svg>
