<svg width="20" height="20" viewBox="0 0 20 20" fill="none" xmlns="http://www.w3.org/2000/svg">
<path fill-rule="evenodd" clip-rule="evenodd" d="M8.75 5.625C8.75 7.35089 7.35089 8.75 5.625 8.75C3.89911 8.75 2.5 7.35089 2.5 5.625C2.5 3.89911 3.89911 2.5 5.625 2.5C7.35089 2.5 8.75 3.89911 8.75 5.625ZM7.75 5.625C7.75 6.7986 6.7986 7.75 5.625 7.75C4.45139 7.75 3.5 6.7986 3.5 5.625C3.5 4.45139 4.45139 3.5 5.625 3.5C6.7986 3.5 7.75 4.45139 7.75 5.625Z" fill="white"/>
<path d="M17.2534 3.73568C17.4339 3.94467 17.4108 4.26041 17.2018 4.4409L3.45182 16.3159C3.24283 16.4964 2.92709 16.4733 2.7466 16.2643C2.5661 16.0553 2.58921 15.7396 2.7982 15.5591L16.5482 3.68408C16.7572 3.50359 17.0729 3.52669 17.2534 3.73568Z" fill="white"/>
<path fill-rule="evenodd" clip-rule="evenodd" d="M14.375 17.5C16.1009 17.5 17.5 16.1009 17.5 14.375C17.5 12.6491 16.1009 11.25 14.375 11.25C12.6491 11.25 11.25 12.6491 11.25 14.375C11.25 16.1009 12.6491 17.5 14.375 17.5ZM14.375 16.5C15.5486 16.5 16.5 15.5486 16.5 14.375C16.5 13.2014 15.5486 12.25 14.375 12.25C13.2014 12.25 12.25 13.2014 12.25 14.375C12.25 15.5486 13.2014 16.5 14.375 16.5Z" fill="white"/>
</svg>
