<svg width="20" height="20" viewBox="0 0 20 20" fill="none" xmlns="http://www.w3.org/2000/svg">
<path d="M6.125 2.41933C6.125 2.21778 6.004 2.03595 5.81809 1.95811C5.63219 1.88028 5.41773 1.92167 5.27414 2.0631L2.77414 4.52544C2.5774 4.71921 2.575 5.03579 2.76877 5.23252C2.96255 5.42926 3.27912 5.43167 3.47586 5.23789L5.125 3.61359V8.57517C5.125 8.85132 5.34886 9.07517 5.625 9.07517C5.90114 9.07517 6.125 8.85132 6.125 8.57517V2.41933Z" fill="white"/>
<path fill-rule="evenodd" clip-rule="evenodd" d="M12.3032 7.54703C12.1544 7.68773 12.1065 7.90493 12.1822 8.0952C12.2579 8.28547 12.442 8.41034 12.6467 8.41034H16.1842C16.4604 8.41034 16.6842 8.18648 16.6842 7.91034C16.6842 7.6342 16.4604 7.41034 16.1842 7.41034H13.9033L14.2028 7.12711C14.8683 6.49774 15.6527 5.75602 16.1277 5.30658C16.7639 4.70591 16.8092 3.83272 16.4981 3.15431C16.184 2.46929 15.4857 1.91933 14.5592 1.91933C13.6529 1.91933 13.0454 2.38874 12.6831 2.8273C12.5031 3.04522 12.3781 3.26099 12.2978 3.42185C12.2574 3.50285 12.2275 3.57151 12.2071 3.62174C12.1969 3.6469 12.1891 3.66757 12.1834 3.68301L12.1765 3.70218L12.1742 3.70868L12.1734 3.71113L12.173 3.71216C12.0852 3.97395 12.2259 4.25828 12.4877 4.34613C12.7487 4.43371 13.0312 4.29384 13.1199 4.0336L13.1218 4.02858C13.1239 4.02273 13.1279 4.01219 13.1338 3.99762C13.1457 3.96841 13.165 3.92357 13.1926 3.86837C13.2482 3.75683 13.3341 3.60941 13.4541 3.46414C13.6919 3.1763 14.0406 2.91933 14.5592 2.91933C15.0578 2.91933 15.422 3.20656 15.5891 3.57111C15.7593 3.94218 15.7047 4.33079 15.441 4.57962C14.9661 5.02895 14.1813 5.77108 13.5157 6.40052L12.3032 7.54703ZM12.6467 3.87211L12.173 3.71216C12.173 3.71216 12.1727 3.71304 12.6467 3.87211Z" fill="white"/>
<path d="M3.16379 13.6441C3.42586 13.7257 3.7044 13.5808 3.78838 13.3201C3.78915 13.3179 3.7913 13.3119 3.79465 13.3034C3.80138 13.2863 3.81332 13.2581 3.8313 13.2224C3.8677 13.1501 3.926 13.0531 4.0113 12.9571C4.17372 12.7742 4.44119 12.5833 4.9 12.5833C5.43958 12.5833 5.63004 12.781 5.70991 12.9014C5.75929 12.9758 5.78623 13.0528 5.80034 13.1125C5.80723 13.1416 5.8105 13.1643 5.81196 13.177L5.81289 13.1864C5.81356 13.2035 5.81511 13.2205 5.81753 13.2374C5.81776 13.2396 5.81831 13.2453 5.81877 13.254C5.81977 13.2729 5.82027 13.3044 5.81678 13.344C5.80966 13.4246 5.78719 13.5256 5.73049 13.6229C5.64893 13.7629 5.42174 14.0213 4.70566 14.0733C4.62505 14.0722 4.55635 14.0741 4.50347 14.0767C4.46882 14.0784 4.4407 14.0804 4.42018 14.082L4.39515 14.0843L4.3871 14.0851L4.38423 14.0854L4.38215 14.0856C4.1184 14.115 3.92356 14.3453 3.93827 14.6103C3.95298 14.8752 4.17213 15.0825 4.4375 15.0825C4.53737 15.0825 4.63357 15.0796 4.72619 15.0739L4.74805 15.0745C4.91611 15.0804 5.12832 15.1048 5.33153 15.1715C5.53428 15.238 5.70481 15.3389 5.82426 15.4831C5.93781 15.6203 6.0375 15.8351 6.0375 16.1954C6.0375 16.4807 5.91469 16.6823 5.71173 16.8287C5.49402 16.9858 5.17595 17.0804 4.83125 17.0804C4.48655 17.0804 4.16848 16.9858 3.95077 16.8287C3.74781 16.6823 3.625 16.4807 3.625 16.1954C3.625 15.9192 3.40114 15.6954 3.125 15.6954C2.84886 15.6954 2.625 15.9192 2.625 16.1954C2.625 16.8334 2.92875 17.3244 3.36563 17.6396C3.78777 17.9442 4.32282 18.0804 4.83125 18.0804C5.33967 18.0804 5.87473 17.9442 6.29687 17.6396C6.73375 17.3244 7.0375 16.8334 7.0375 16.1954C7.0375 15.6323 6.87469 15.1838 6.59449 14.8454C6.4923 14.722 6.37897 14.6186 6.26033 14.532C6.39828 14.4105 6.50865 14.2737 6.59451 14.1263C6.74406 13.8697 6.79659 13.6167 6.81291 13.4319C6.82114 13.3387 6.82047 13.2596 6.81737 13.2011C6.81581 13.1717 6.81362 13.1472 6.81155 13.1282L6.81078 13.1214C6.80977 13.106 6.80813 13.0864 6.80547 13.0632C6.80014 13.0167 6.79062 12.9548 6.77349 12.8823C6.73955 12.7388 6.67352 12.545 6.54321 12.3486C6.26371 11.9273 5.74792 11.5833 4.9 11.5833C4.10881 11.5833 3.58253 11.934 3.2637 12.2929C3.10837 12.4678 3.00417 12.6416 2.93823 12.7724C2.90504 12.8383 2.88084 12.8947 2.86424 12.9369C2.85592 12.958 2.84945 12.9757 2.84466 12.9894L2.83871 13.0068L2.83663 13.0132L2.83581 13.0158L2.83545 13.017L2.83513 13.018C2.753 13.2816 2.90015 13.5619 3.16379 13.6441Z" fill="white"/>
<path fill-rule="evenodd" clip-rule="evenodd" d="M15.8501 12.0833C15.8501 11.8742 15.72 11.6872 15.5239 11.6145C15.3278 11.5418 15.1072 11.5989 14.9709 11.7575L11.5959 15.6849C11.4685 15.8331 11.4392 16.0419 11.5207 16.2194C11.6022 16.397 11.7797 16.5108 11.9751 16.5108H14.8501V17.5744C14.8501 17.8505 15.074 18.0744 15.3501 18.0744C15.6262 18.0744 15.8501 17.8505 15.8501 17.5744V16.5108H16.8751C17.1512 16.5108 17.3751 16.2869 17.3751 16.0108C17.3751 15.7346 17.1512 15.5108 16.8751 15.5108H15.8501V12.0833ZM14.8501 13.4323V15.5108H13.064L14.8501 13.4323Z" fill="white"/>
</svg>
