<svg width="21" height="20" viewBox="0 0 21 20" fill="none" xmlns="http://www.w3.org/2000/svg">
<path fill-rule="evenodd" clip-rule="evenodd" d="M1.75 5.73864C1.75 4.64034 2.60695 3.75 3.66406 3.75H17.3359C18.393 3.75 19.25 4.64034 19.25 5.73864V14.2614C19.25 15.3597 18.393 16.25 17.3359 16.25H3.66406C2.60695 16.25 1.75 15.3597 1.75 14.2614V5.73864ZM3.66406 4.88636C3.21102 4.88636 2.84375 5.26794 2.84375 5.73864V14.2614C2.84375 14.7321 3.21102 15.1136 3.66406 15.1136H17.3359C17.789 15.1136 18.1562 14.7321 18.1562 14.2614V5.73864C18.1562 5.26794 17.789 4.88636 17.3359 4.88636H3.66406Z" fill="white"/>
<path fill-rule="evenodd" clip-rule="evenodd" d="M11.5379 7.08333C9.97616 7.08333 8.69444 8.38039 8.69444 10C8.69444 11.6196 9.97616 12.9167 11.5379 12.9167C12.3158 12.9167 13.0216 12.5966 13.5367 12.0744C13.6983 11.9105 13.9621 11.9087 14.1259 12.0703C14.2898 12.2319 14.2916 12.4957 14.13 12.6595C13.4667 13.332 12.5505 13.75 11.5379 13.75C9.49857 13.75 7.86111 12.0623 7.86111 10C7.86111 7.93771 9.49857 6.25 11.5379 6.25C12.5505 6.25 13.4667 6.66796 14.13 7.34046C14.2916 7.5043 14.2898 7.76811 14.1259 7.9297C13.9621 8.09129 13.6983 8.08946 13.5367 7.92563C13.0216 7.40338 12.3158 7.08333 11.5379 7.08333Z" fill="white"/>
<path fill-rule="evenodd" clip-rule="evenodd" d="M6.75 9.16667C6.75 8.93655 6.93655 8.75 7.16667 8.75H11.0556C11.2857 8.75 11.4722 8.93655 11.4722 9.16667C11.4722 9.39678 11.2857 9.58333 11.0556 9.58333H7.16667C6.93655 9.58333 6.75 9.39678 6.75 9.16667Z" fill="white"/>
<path fill-rule="evenodd" clip-rule="evenodd" d="M6.75 10.8333C6.75 10.6032 6.93655 10.4167 7.16667 10.4167H11.0556C11.2857 10.4167 11.4722 10.6032 11.4722 10.8333C11.4722 11.0635 11.2857 11.25 11.0556 11.25H7.16667C6.93655 11.25 6.75 11.0635 6.75 10.8333Z" fill="white"/>
<path fill-rule="evenodd" clip-rule="evenodd" d="M11.5379 7.08333C9.97616 7.08333 8.69444 8.38039 8.69444 10C8.69444 11.6196 9.97616 12.9167 11.5379 12.9167C12.3158 12.9167 13.0216 12.5966 13.5367 12.0744C13.6983 11.9105 13.9621 11.9087 14.1259 12.0703C14.2898 12.2319 14.2916 12.4957 14.13 12.6595C13.4667 13.332 12.5505 13.75 11.5379 13.75C9.49857 13.75 7.86111 12.0623 7.86111 10C7.86111 7.93771 9.49857 6.25 11.5379 6.25C12.5505 6.25 13.4667 6.66796 14.13 7.34046C14.2916 7.5043 14.2898 7.76811 14.1259 7.9297C13.9621 8.09129 13.6983 8.08946 13.5367 7.92563C13.0216 7.40338 12.3158 7.08333 11.5379 7.08333Z" fill="white"/>
<path fill-rule="evenodd" clip-rule="evenodd" d="M6.75 9.16667C6.75 8.93655 6.93655 8.75 7.16667 8.75H11.0556C11.2857 8.75 11.4722 8.93655 11.4722 9.16667C11.4722 9.39678 11.2857 9.58333 11.0556 9.58333H7.16667C6.93655 9.58333 6.75 9.39678 6.75 9.16667Z" fill="white"/>
<path fill-rule="evenodd" clip-rule="evenodd" d="M6.75 10.8333C6.75 10.6032 6.93655 10.4167 7.16667 10.4167H11.0556C11.2857 10.4167 11.4722 10.6032 11.4722 10.8333C11.4722 11.0635 11.2857 11.25 11.0556 11.25H7.16667C6.93655 11.25 6.75 11.0635 6.75 10.8333Z" fill="white"/>
</svg>
