<svg width="20" height="20" viewBox="0 0 20 20" fill="none" xmlns="http://www.w3.org/2000/svg">
<path fill-rule="evenodd" clip-rule="evenodd" d="M5.625 8.75C3.89911 8.75 2.5 7.35089 2.5 5.625C2.5 3.89911 3.89911 2.5 5.625 2.5C6.64739 2.5 7.5551 2.99097 8.12523 3.75H15.625C16.6605 3.75 17.5 4.58947 17.5 5.625C17.5 6.66053 16.6605 7.5 15.625 7.5H8.12523C7.5551 8.25903 6.64739 8.75 5.625 8.75ZM8.75 5.625C8.75 5.92874 8.70667 6.22235 8.62585 6.5H15.625C16.1082 6.5 16.5 6.10825 16.5 5.625C16.5 5.14175 16.1082 4.75 15.625 4.75H8.62585C8.70667 5.02765 8.75 5.32126 8.75 5.625Z" fill="white"/>
<path fill-rule="evenodd" clip-rule="evenodd" d="M11.8748 16.25C12.4449 17.009 13.3526 17.5 14.375 17.5C16.1009 17.5 17.5 16.1009 17.5 14.375C17.5 12.6491 16.1009 11.25 14.375 11.25C13.3526 11.25 12.4449 11.741 11.8748 12.5H4.375C3.33947 12.5 2.5 13.3395 2.5 14.375C2.5 15.4105 3.33947 16.25 4.375 16.25H11.8748ZM11.3742 15.25C11.2933 14.9724 11.25 14.6787 11.25 14.375C11.25 14.0713 11.2933 13.7776 11.3742 13.5H4.375C3.89175 13.5 3.5 13.8918 3.5 14.375C3.5 14.8582 3.89175 15.25 4.375 15.25H11.3742Z" fill="white"/>
</svg>
