<svg width="20" height="20" viewBox="0 0 20 20" fill="none" xmlns="http://www.w3.org/2000/svg">
<path fill-rule="evenodd" clip-rule="evenodd" d="M7.5 8.75C8.88071 8.75 10 7.63071 10 6.25C10 4.86929 8.88071 3.75 7.5 3.75C6.11929 3.75 5 4.86929 5 6.25C5 7.63071 6.11929 8.75 7.5 8.75ZM7.5 7.75C8.32843 7.75 9 7.07843 9 6.25C9 5.42157 8.32843 4.75 7.5 4.75C6.67157 4.75 6 5.42157 6 6.25C6 7.07843 6.67157 7.75 7.5 7.75Z" fill="white"/>
<path d="M5.89652 13.9393C5.70126 14.1346 5.70126 14.4512 5.89652 14.6464C6.09178 14.8417 6.40837 14.8417 6.60363 14.6464L14.6465 6.60355C14.8418 6.40829 14.8418 6.09171 14.6465 5.89645C14.4513 5.70118 14.1347 5.70118 13.9394 5.89645L5.89652 13.9393Z" fill="white"/>
<path d="M3 7.5C3.27614 7.5 3.5 7.72386 3.5 8L3.5 12C3.5 12.2761 3.27614 12.5 3 12.5C2.72386 12.5 2.5 12.2761 2.5 12V8C2.5 7.72386 2.72386 7.5 3 7.5Z" fill="white"/>
<path d="M16.75 7.5C17.0261 7.5 17.25 7.72386 17.25 8V12C17.25 12.2761 17.0261 12.5 16.75 12.5C16.4739 12.5 16.25 12.2761 16.25 12V8C16.25 7.72386 16.4739 7.5 16.75 7.5Z" fill="white"/>
<path fill-rule="evenodd" clip-rule="evenodd" d="M15 13.75C15 15.1307 13.8807 16.25 12.5 16.25C11.1193 16.25 10 15.1307 10 13.75C10 12.3693 11.1193 11.25 12.5 11.25C13.8807 11.25 15 12.3693 15 13.75ZM14 13.75C14 14.5784 13.3284 15.25 12.5 15.25C11.6716 15.25 11 14.5784 11 13.75C11 12.9216 11.6716 12.25 12.5 12.25C13.3284 12.25 14 12.9216 14 13.75Z" fill="white"/>
</svg>
