<svg width="20" height="20" viewBox="0 0 20 20" fill="none" xmlns="http://www.w3.org/2000/svg">
<path fill-rule="evenodd" clip-rule="evenodd" d="M5.44194 1.43306C5.68602 1.67714 5.68602 2.07286 5.44194 2.31694L3.38388 4.375H11.5625C15.532 4.375 18.75 7.59295 18.75 11.5625C18.75 15.532 15.532 18.75 11.5625 18.75H10.625C10.2798 18.75 10 18.4702 10 18.125C10 17.7798 10.2798 17.5 10.625 17.5H11.5625C14.8417 17.5 17.5 14.8417 17.5 11.5625C17.5 8.28331 14.8417 5.625 11.5625 5.625H3.38388L5.44194 7.68306C5.68602 7.92714 5.68602 8.32286 5.44194 8.56694C5.19786 8.81102 4.80214 8.81102 4.55806 8.56694L1.43306 5.44194C1.18898 5.19786 1.18898 4.80214 1.43306 4.55806L4.55806 1.43306C4.80214 1.18898 5.19786 1.18898 5.44194 1.43306Z" fill="white"/>
</svg>
