<svg width="20" height="20" viewBox="0 0 20 20" fill="none" xmlns="http://www.w3.org/2000/svg">
<path fill-rule="evenodd" clip-rule="evenodd" d="M5.35355 1.20895C5.54882 1.40421 5.54882 1.72079 5.35355 1.91605L3.08211 4.1875H11.25C15.3231 4.1875 18.625 7.4894 18.625 11.5625C18.625 15.6356 15.3231 18.9375 11.25 18.9375C10.9739 18.9375 10.75 18.7136 10.75 18.4375C10.75 18.1614 10.9739 17.9375 11.25 17.9375C14.7708 17.9375 17.625 15.0833 17.625 11.5625C17.625 8.04168 14.7708 5.1875 11.25 5.1875H3.08211L5.35355 7.45895C5.54882 7.65421 5.54882 7.97079 5.35355 8.16605C5.15829 8.36132 4.84171 8.36132 4.64645 8.16605L1.52145 5.04105C1.32618 4.84579 1.32618 4.52921 1.52145 4.33395L4.64645 1.20895C4.84171 1.01368 5.15829 1.01368 5.35355 1.20895Z" fill="white"/>
</svg>
