<svg width="20" height="20" viewBox="0 0 20 20" fill="none" xmlns="http://www.w3.org/2000/svg">
<path fill-rule="evenodd" clip-rule="evenodd" d="M15.4542 1.88858C15.4292 1.61357 15.1861 1.41085 14.911 1.43579C14.636 1.46073 14.4333 1.7039 14.4583 1.97891L14.7023 4.67006C12.1095 2.28123 8.19557 1.98147 5.35466 4.19217L5.35413 4.19259C3.71153 5.47437 2.74985 7.35745 2.53305 9.33499C2.50296 9.60948 2.70109 9.8564 2.97558 9.8865C3.25008 9.91659 3.497 9.71846 3.52709 9.44396C3.71683 7.71334 4.55589 6.08404 5.96906 4.98117C8.49964 3.01217 12.0553 3.35015 14.3024 5.67635L11.2922 5.89464C11.0168 5.91461 10.8097 6.15407 10.8296 6.42949C10.8496 6.70491 11.0891 6.91199 11.3645 6.89202L15.2937 6.60709C15.3478 6.60957 15.4025 6.6033 15.4555 6.58793C15.5562 6.56278 15.6474 6.50667 15.7155 6.42646C15.8023 6.32418 15.8444 6.19129 15.8323 6.05767L15.4542 1.88858ZM5.08895 18.5643C4.81393 18.5892 4.57077 18.3865 4.54583 18.1115L4.1677 13.9424C4.15558 13.8088 4.19768 13.6759 4.28452 13.5736C4.35261 13.4934 4.44372 13.4373 4.54438 13.4121C4.59748 13.3967 4.65226 13.3905 4.70646 13.3929L8.63549 13.108C8.91091 13.0881 9.15037 13.2951 9.17035 13.5706C9.19032 13.846 8.98324 14.0854 8.70782 14.1054L5.69762 14.3237C7.94469 16.6499 11.5004 16.9879 14.031 15.0189C15.4441 13.916 16.2832 12.2867 16.4729 10.5561C16.503 10.2816 16.7499 10.0834 17.0244 10.1135C17.2989 10.1436 17.4971 10.3905 17.467 10.665C17.2502 12.6426 16.2885 14.5257 14.6459 15.8074L14.6454 15.8079C11.8044 18.0186 7.89049 17.7188 5.29766 15.3299L5.54174 18.0211C5.56668 18.2961 5.36396 18.5393 5.08895 18.5643Z" fill="white"/>
</svg>
