<svg width="20" height="20" viewBox="0 0 20 20" fill="none" xmlns="http://www.w3.org/2000/svg">
<path fill-rule="evenodd" clip-rule="evenodd" d="M15.6439 0.625C15.989 0.625 16.2689 0.904822 16.2689 1.25V4.26724C16.2689 4.61242 15.989 4.89224 15.6439 4.89224H12.5419C12.1967 4.89224 11.9169 4.61242 11.9169 4.26724C11.9169 3.92206 12.1967 3.64224 12.5419 3.64224H13.6798C8.14999 0.594133 1.56731 5.31197 2.61107 11.4031C2.66936 11.7433 2.44082 12.0663 2.1006 12.1246C1.76039 12.1829 1.43732 11.9544 1.37902 11.6142C0.109191 4.20374 8.4729 -1.43072 15.0189 2.99586V1.25C15.0189 0.904822 15.2987 0.625 15.6439 0.625ZM17.9004 7.87536C18.2406 7.81706 18.5636 8.0456 18.6219 8.38582C19.8918 15.7963 11.5281 21.4307 4.98211 17.0041L4.98211 18.75C4.98211 19.0952 4.70229 19.375 4.35711 19.375C4.01194 19.375 3.73211 19.0952 3.73211 18.75L3.73211 15.7328C3.73211 15.3876 4.01194 15.1078 4.35711 15.1078H7.45912C7.8043 15.1078 8.08412 15.3876 8.08412 15.7328C8.08412 16.0779 7.8043 16.3578 7.45912 16.3578H6.3212C11.851 19.4059 18.4337 14.688 17.3899 8.59694C17.3316 8.25672 17.5601 7.93366 17.9004 7.87536Z" fill="white"/>
</svg>
