<svg width="20" height="20" viewBox="0 0 20 20" fill="none" xmlns="http://www.w3.org/2000/svg">
<path d="M16.3619 8.10907C16.6664 7.81819 16.9097 7.4694 17.0776 7.0832C17.2454 6.69699 17.3343 6.28115 17.3391 5.86011C17.3439 5.43906 17.2645 5.02131 17.1055 4.63138C16.9466 4.24145 16.7112 3.88721 16.4134 3.58946C16.1155 3.29172 15.7612 3.05648 15.3711 2.89757C14.9811 2.73865 14.5632 2.65926 14.142 2.66406C13.7208 2.66886 13.3048 2.75775 12.9185 2.92551C12.5321 3.09328 12.1832 3.33653 11.8923 3.64098L9.65502 5.86773C9.51672 5.99655 9.33381 6.06668 9.14481 6.06335C8.95581 6.06001 8.77548 5.98348 8.64182 5.84986C8.50816 5.71624 8.43159 5.53598 8.42826 5.34704C8.42492 5.15811 8.49508 4.97526 8.62394 4.83701L10.8587 2.60296C11.2881 2.17391 11.7978 1.83359 12.3587 1.60145C12.9197 1.36931 13.5208 1.24989 14.1279 1.25C15.354 1.25023 16.5298 1.73734 17.3966 2.60418C18.2634 3.47102 18.7502 4.64657 18.75 5.87224C18.7498 7.0979 18.2625 8.27328 17.3954 9.13979L15.1606 11.3738C15.0207 11.493 14.841 11.555 14.6575 11.5475C14.4739 11.54 14.2999 11.4635 14.1702 11.3333C14.0406 11.2031 13.9649 11.0288 13.9583 10.8452C13.9516 10.6617 14.0145 10.4823 14.1344 10.3431L16.3619 8.10907Z" fill="white"/>
<path d="M4.84223 8.6246C4.98235 8.50575 5.16218 8.44414 5.34576 8.45209C5.52935 8.46003 5.70318 8.53694 5.8325 8.66745C5.96183 8.79796 6.03712 8.97245 6.04333 9.15604C6.04954 9.33963 5.98621 9.51881 5.86601 9.65775L3.6312 11.8918C3.33773 12.1857 3.10502 12.5344 2.94637 12.9182C2.78773 13.3019 2.70625 13.7132 2.70659 14.1284C2.70693 14.5437 2.78908 14.9548 2.94835 15.3383C3.10762 15.7218 3.34089 16.0701 3.63485 16.3635C3.92881 16.6569 4.27769 16.8895 4.66158 17.0481C5.04548 17.2067 5.45685 17.2882 5.87223 17.2878C6.28761 17.2875 6.69886 17.2054 7.08249 17.0462C7.46612 16.8869 7.81463 16.6537 8.10811 16.3599L10.3429 14.1331C10.4812 14.0043 10.6641 13.9342 10.8531 13.9375C11.0421 13.9408 11.2224 14.0174 11.3561 14.151C11.4898 14.2846 11.5663 14.4649 11.5697 14.6538C11.573 14.8428 11.5028 15.0256 11.374 15.1639L9.13918 17.3979C8.70982 17.8268 8.20016 18.1669 7.63929 18.3989C7.07843 18.6309 6.47735 18.7502 5.87037 18.75C5.26339 18.7498 4.66239 18.63 4.1017 18.3976C3.54101 18.1652 3.0316 17.8247 2.60256 17.3955C2.17352 16.9663 1.83325 16.4568 1.60118 15.8961C1.36911 15.3354 1.24977 14.7345 1.25 14.1278C1.25023 13.521 1.37 12.9202 1.60249 12.3597C1.83498 11.7992 2.17563 11.29 2.60499 10.8611L4.84223 8.6246Z" fill="white"/>
<path d="M7.18941 13.0113C7.30852 13.0918 7.44878 13.1353 7.59256 13.1364C7.68867 13.1357 7.78369 13.116 7.87216 13.0784C7.96064 13.0409 8.04082 12.9862 8.10809 12.9176L12.9181 8.10917C13.0319 7.96913 13.0897 7.79192 13.0804 7.61177C13.0711 7.43162 12.9953 7.26132 12.8677 7.13376C12.7401 7.0062 12.5697 6.93045 12.3895 6.92113C12.2093 6.91181 12.032 6.96959 11.8919 7.08331L7.08188 11.8917C6.98027 11.9934 6.91099 12.1229 6.88273 12.2638C6.85448 12.4047 6.86851 12.5509 6.92308 12.6839C6.97764 12.8168 7.0703 12.9307 7.18941 13.0113Z" fill="white"/>
<path d="M16.3619 8.10907C16.6664 7.81819 16.9097 7.4694 17.0776 7.0832C17.2454 6.69699 17.3343 6.28115 17.3391 5.86011C17.3439 5.43906 17.2645 5.02131 17.1055 4.63138C16.9466 4.24145 16.7112 3.88721 16.4134 3.58946C16.1155 3.29172 15.7612 3.05648 15.3711 2.89757C14.9811 2.73865 14.5632 2.65926 14.142 2.66406C13.7208 2.66886 13.3048 2.75775 12.9185 2.92551C12.5321 3.09328 12.1832 3.33653 11.8923 3.64098L9.65502 5.86773C9.51672 5.99655 9.33381 6.06668 9.14481 6.06335C8.95581 6.06001 8.77548 5.98348 8.64182 5.84986C8.50816 5.71624 8.43159 5.53598 8.42826 5.34704C8.42492 5.15811 8.49508 4.97526 8.62394 4.83701L10.8587 2.60296C11.2881 2.17391 11.7978 1.83359 12.3587 1.60145C12.9197 1.36931 13.5208 1.24989 14.1279 1.25C15.354 1.25023 16.5298 1.73734 17.3966 2.60418C18.2634 3.47102 18.7502 4.64657 18.75 5.87224C18.7498 7.0979 18.2625 8.27328 17.3954 9.13979L15.1606 11.3738C15.0207 11.493 14.841 11.555 14.6575 11.5475C14.4739 11.54 14.2999 11.4635 14.1702 11.3333C14.0406 11.2031 13.9649 11.0288 13.9583 10.8452C13.9516 10.6617 14.0145 10.4823 14.1344 10.3431L16.3619 8.10907Z" stroke="black" stroke-width="0.2"/>
<path d="M4.84223 8.6246C4.98235 8.50575 5.16218 8.44414 5.34576 8.45209C5.52935 8.46003 5.70318 8.53694 5.8325 8.66745C5.96183 8.79796 6.03712 8.97245 6.04333 9.15604C6.04954 9.33963 5.98621 9.51881 5.86601 9.65775L3.6312 11.8918C3.33773 12.1857 3.10502 12.5344 2.94637 12.9182C2.78773 13.3019 2.70625 13.7132 2.70659 14.1284C2.70693 14.5437 2.78908 14.9548 2.94835 15.3383C3.10762 15.7218 3.34089 16.0701 3.63485 16.3635C3.92881 16.6569 4.27769 16.8895 4.66158 17.0481C5.04548 17.2067 5.45685 17.2882 5.87223 17.2878C6.28761 17.2875 6.69886 17.2054 7.08249 17.0462C7.46612 16.8869 7.81463 16.6537 8.10811 16.3599L10.3429 14.1331C10.4812 14.0043 10.6641 13.9342 10.8531 13.9375C11.0421 13.9408 11.2224 14.0174 11.3561 14.151C11.4898 14.2846 11.5663 14.4649 11.5697 14.6538C11.573 14.8428 11.5028 15.0256 11.374 15.1639L9.13918 17.3979C8.70982 17.8268 8.20016 18.1669 7.63929 18.3989C7.07843 18.6309 6.47735 18.7502 5.87037 18.75C5.26339 18.7498 4.66239 18.63 4.1017 18.3976C3.54101 18.1652 3.0316 17.8247 2.60256 17.3955C2.17352 16.9663 1.83325 16.4568 1.60118 15.8961C1.36911 15.3354 1.24977 14.7345 1.25 14.1278C1.25023 13.521 1.37 12.9202 1.60249 12.3597C1.83498 11.7992 2.17563 11.29 2.60499 10.8611L4.84223 8.6246Z" stroke="black" stroke-width="0.2"/>
<path d="M7.18941 13.0113C7.30852 13.0918 7.44878 13.1353 7.59256 13.1364C7.68867 13.1357 7.78369 13.116 7.87216 13.0784C7.96064 13.0409 8.04082 12.9862 8.10809 12.9176L12.9181 8.10917C13.0319 7.96913 13.0897 7.79192 13.0804 7.61177C13.0711 7.43162 12.9953 7.26132 12.8677 7.13376C12.7401 7.0062 12.5697 6.93045 12.3895 6.92113C12.2093 6.91181 12.032 6.96959 11.8919 7.08331L7.08188 11.8917C6.98027 11.9934 6.91099 12.1229 6.88273 12.2638C6.85448 12.4047 6.86851 12.5509 6.92308 12.6839C6.97764 12.8168 7.0703 12.9307 7.18941 13.0113Z" stroke="black" stroke-width="0.2"/>
</svg>
