<svg width="20" height="20" viewBox="0 0 20 20" fill="none" xmlns="http://www.w3.org/2000/svg">
<path fill-rule="evenodd" clip-rule="evenodd" d="M16.6011 3.39896C15.2359 2.03372 13.0213 2.03372 11.6561 3.39896L9.02656 6.02845C8.8313 6.22371 8.51472 6.22371 8.31945 6.02845C8.12419 5.83319 8.12419 5.51661 8.31945 5.32134L10.9489 2.69185C12.7047 0.936091 15.5525 0.936091 17.3082 2.69185C19.064 4.44761 19.064 7.29538 17.3082 9.05114L14.6787 11.6806C14.4835 11.8759 14.1669 11.8759 13.9716 11.6806C13.7764 11.4854 13.7764 11.1688 13.9716 10.9735L16.6011 8.34404C17.9664 6.9788 17.9664 4.76419 16.6011 3.39896Z" fill="white"/>
<path fill-rule="evenodd" clip-rule="evenodd" d="M6.02842 8.31952C6.22368 8.51478 6.22368 8.83137 6.02842 9.02663L3.39892 11.6561C2.03369 13.0214 2.03369 15.236 3.39892 16.6012C4.76416 17.9664 6.97877 17.9664 8.34401 16.6012L10.9735 13.9717C11.1688 13.7764 11.4853 13.7764 11.6806 13.9717C11.8759 14.167 11.8759 14.4836 11.6806 14.6788L9.05111 17.3083C7.29535 19.0641 4.44758 19.0641 2.69182 17.3083C0.936061 15.5526 0.936061 12.7048 2.69182 10.949L5.32131 8.31952C5.51658 8.12426 5.83316 8.12426 6.02842 8.31952Z" fill="white"/>
<path fill-rule="evenodd" clip-rule="evenodd" d="M12.8479 7.1523C13.0432 7.34756 13.0432 7.66414 12.8479 7.85941L8.5105 12.1968C8.31523 12.3921 7.99865 12.3921 7.80339 12.1968C7.60813 12.0016 7.60813 11.685 7.80339 11.4897L12.1408 7.1523C12.3361 6.95704 12.6527 6.95704 12.8479 7.1523Z" fill="white"/>
</svg>
