<svg width="20" height="20" viewBox="0 0 20 20" fill="none" xmlns="http://www.w3.org/2000/svg">
<path fill-rule="evenodd" clip-rule="evenodd" d="M9.99012 1.37502C7.53379 1.37502 5.54248 3.36612 5.54248 5.82235C5.54248 6.77097 5.8395 7.65021 6.34561 8.37216C6.33217 8.37876 6.3186 8.38551 6.3049 8.3924C5.88006 8.60606 5.32752 8.96263 4.80555 9.5372C3.74602 10.7035 2.87884 12.6934 3.32311 15.9943L3.35222 16.2106L3.53087 16.3365L3.53196 16.3373L3.53442 16.339L3.54272 16.3448L3.57263 16.3653C3.59838 16.3829 3.63566 16.4081 3.68369 16.4397C3.77971 16.5029 3.91886 16.5921 4.09489 16.6987C4.44658 16.9116 4.94753 17.1949 5.54764 17.4784C6.73787 18.0406 8.36258 18.625 10.0033 18.625C11.644 18.625 13.2687 18.0406 14.4589 17.4784C15.059 17.1949 15.56 16.9116 15.9117 16.6987C16.0877 16.5921 16.2268 16.5029 16.3229 16.4397C16.3709 16.4081 16.4082 16.3829 16.4339 16.3653L16.4638 16.3448L16.4721 16.339L16.4746 16.3373L16.4759 16.3364L16.6554 16.2099L16.6837 15.9922C17.1142 12.685 16.2401 10.6955 15.1771 9.53134C14.6534 8.95774 14.1 8.60252 13.6746 8.38997C13.6615 8.38342 13.6485 8.37701 13.6356 8.37073C14.1411 7.64904 14.4378 6.77034 14.4378 5.82235C14.4378 3.36612 12.4464 1.37502 9.99012 1.37502ZM6.54248 5.82235C6.54248 3.91848 8.086 2.37502 9.99012 2.37502C11.8942 2.37502 13.4378 3.91848 13.4378 5.82235C13.4378 7.72622 11.8942 9.26969 9.99012 9.26969C8.086 9.26969 6.54248 7.72622 6.54248 5.82235ZM12.936 9.15438C12.1514 9.84842 11.12 10.2697 9.99012 10.2697C8.86064 10.2697 7.82948 9.84869 7.04503 9.15505C6.96344 9.18727 6.86489 9.23011 6.75421 9.28577C6.41625 9.45574 5.96955 9.74308 5.54573 10.2096C4.73408 11.1031 3.94287 12.7247 4.28612 15.6388C4.36907 15.6926 4.47906 15.7623 4.61277 15.8432C4.94164 16.0423 5.41197 16.3084 5.97477 16.5742C7.11035 17.1106 8.57796 17.625 10.0033 17.625C11.4286 17.625 12.8962 17.1106 14.0318 16.5742C14.5946 16.3084 15.0649 16.0423 15.3938 15.8432C15.5269 15.7627 15.6365 15.6932 15.7193 15.6395C16.0503 12.7196 15.2533 11.0978 14.4386 10.2056C14.0133 9.73975 13.5658 9.45352 13.2276 9.2845C13.1165 9.22901 13.0177 9.18639 12.936 9.15438Z" fill="white"/>
</svg>
