<svg width="20" height="20" viewBox="0 0 20 20" fill="none" xmlns="http://www.w3.org/2000/svg">
<path fill-rule="evenodd" clip-rule="evenodd" d="M10 7.6875C11.4843 7.6875 12.6875 6.48426 12.6875 5C12.6875 3.51573 11.4843 2.3125 10 2.3125C8.51573 2.3125 7.3125 3.51573 7.3125 5C7.3125 6.48426 8.51573 7.6875 10 7.6875ZM10 8.75C12.0711 8.75 13.75 7.07107 13.75 5C13.75 2.92893 12.0711 1.25 10 1.25C7.92893 1.25 6.25 2.92893 6.25 5C6.25 7.07107 7.92893 8.75 10 8.75Z" fill="white"/>
<path fill-rule="evenodd" clip-rule="evenodd" d="M2.5 15.5357C2.5 11.0977 5.85786 8.125 10 8.125C14.1421 8.125 17.5 11.0977 17.5 15.5357C17.5 15.5357 14.1421 18.75 10 18.75C5.85786 18.75 2.5 15.5357 2.5 15.5357ZM16.4228 15.0659C16.3707 15.1089 16.313 15.1558 16.2499 15.2058C15.9001 15.4836 15.3909 15.8563 14.762 16.2286C13.4896 16.9819 11.806 17.6875 10 17.6875C8.19403 17.6875 6.51042 16.9819 5.23801 16.2286C4.60915 15.8563 4.09993 15.4836 3.75008 15.2058C3.68703 15.1558 3.62931 15.1089 3.57717 15.0659C3.80058 11.5211 6.54967 9.1875 10 9.1875C13.4503 9.1875 16.1994 11.5211 16.4228 15.0659ZM3.23342 14.7669C3.2332 14.7667 3.23324 14.7668 3.23342 14.7669Z" fill="white"/>
</svg>
