<svg width="20" height="20" viewBox="0 0 20 20" fill="none" xmlns="http://www.w3.org/2000/svg">
<path fill-rule="evenodd" clip-rule="evenodd" d="M10.0001 7.69444C8.72681 7.69444 7.69458 8.72668 7.69458 10C7.69458 11.2733 8.72681 12.3056 10.0001 12.3056C11.2735 12.3056 12.3057 11.2733 12.3057 10C12.3057 8.72668 11.2735 7.69444 10.0001 7.69444ZM8.69458 10C8.69458 9.27896 9.2791 8.69444 10.0001 8.69444C10.7212 8.69444 11.3057 9.27896 11.3057 10C11.3057 10.721 10.7212 11.3056 10.0001 11.3056C9.2791 11.3056 8.69458 10.721 8.69458 10Z" fill="white"/>
<path fill-rule="evenodd" clip-rule="evenodd" d="M9.9999 4.68518C7.79981 4.68518 5.65442 5.98177 4.11042 7.20007C3.32745 7.81788 2.67565 8.4345 2.21964 8.89641C1.99134 9.12766 1.81136 9.3209 1.68775 9.45716C1.62593 9.5253 1.57815 9.57925 1.54544 9.61663L1.50776 9.66001L1.49762 9.67183L1.49476 9.67519L1.4936 9.67656C1.3356 9.86306 1.33589 10.1373 1.49389 10.3238L1.49476 10.3248L1.49762 10.3282L1.50776 10.34L1.54544 10.3834C1.57815 10.4207 1.62593 10.4747 1.68775 10.5428C1.81136 10.6791 1.99134 10.8723 2.21964 11.1036C2.67565 11.5655 3.32745 12.1821 4.11042 12.7999C5.65442 14.0182 7.79981 15.3148 9.9999 15.3148C12.2 15.3148 14.3454 14.0182 15.8894 12.7999C16.6723 12.1821 17.3241 11.5655 17.7802 11.1036C18.0085 10.8723 18.1884 10.6791 18.312 10.5428C18.3739 10.4747 18.4216 10.4207 18.4544 10.3834L18.492 10.34L18.5022 10.3282L18.5062 10.3234C18.6642 10.1369 18.6639 9.86271 18.5059 9.67621L18.5022 9.67183L18.492 9.66001L18.4544 9.61663C18.4216 9.57925 18.3739 9.5253 18.312 9.45716C18.1884 9.3209 18.0085 9.12766 17.7802 8.89641C17.3241 8.4345 16.6723 7.81788 15.8894 7.20007C14.3454 5.98177 12.2 4.68518 9.9999 4.68518ZM2.93127 10.401C2.77921 10.247 2.65017 10.1112 2.54689 10C2.65017 9.8888 2.77921 9.75299 2.93127 9.59896C3.36651 9.15809 3.98734 8.571 4.72986 7.98511C6.23687 6.796 8.15397 5.68518 9.9999 5.68518C11.8458 5.68518 13.7629 6.796 15.2699 7.98511C16.0125 8.571 16.6333 9.15809 17.0685 9.59896C17.2206 9.75299 17.3496 9.88879 17.4529 9.99999C17.3496 10.1112 17.2206 10.247 17.0685 10.401C16.6333 10.8419 16.0125 11.429 15.2699 12.0149C13.7629 13.204 11.8458 14.3148 9.9999 14.3148C8.15397 14.3148 6.23687 13.204 4.72986 12.0149C3.98734 11.429 3.36651 10.8419 2.93127 10.401Z" fill="white"/>
</svg>
