<svg width="20" height="20" viewBox="0 0 20 20" fill="none" xmlns="http://www.w3.org/2000/svg">
<path fill-rule="evenodd" clip-rule="evenodd" d="M18.6441 2.06309C18.8393 1.86782 18.8393 1.55124 18.6441 1.35598C18.4488 1.16072 18.1322 1.16072 17.9369 1.35598L13.6017 5.69129C12.4859 5.10498 11.2518 4.68518 9.9999 4.68518C7.79981 4.68518 5.65442 5.98177 4.11042 7.20007C3.32745 7.81788 2.67565 8.43449 2.21964 8.89641C1.99134 9.12766 1.81136 9.3209 1.68775 9.45716C1.62593 9.5253 1.57815 9.57925 1.54544 9.61663L1.50776 9.66001L1.49762 9.67183L1.49476 9.67519L1.4936 9.67656C1.3356 9.86306 1.33589 10.1373 1.49389 10.3238L1.49476 10.3248L1.49762 10.3282L1.50776 10.34L1.54544 10.3834C1.57815 10.4207 1.62593 10.4747 1.68775 10.5428C1.81136 10.6791 1.99134 10.8723 2.21964 11.1036C2.67565 11.5655 3.32745 12.1821 4.11042 12.7999C4.53322 13.1335 5.0011 13.473 5.50286 13.7901L1.35592 17.9371C1.16066 18.1324 1.16066 18.4489 1.35592 18.6442C1.55118 18.8395 1.86777 18.8395 2.06303 18.6442L6.39837 14.3088C7.51404 14.8951 8.74812 15.3148 9.9999 15.3148C12.2 15.3148 14.3454 14.0182 15.8894 12.7999C16.6723 12.1821 17.3241 11.5655 17.7802 11.1036C18.0085 10.8723 18.1884 10.6791 18.312 10.5428C18.3739 10.4747 18.4216 10.4207 18.4544 10.3834L18.492 10.34L18.5022 10.3282L18.5062 10.3234C18.6642 10.1369 18.6639 9.86271 18.5059 9.67621L18.5022 9.67183L18.492 9.66001L18.4544 9.61663C18.4216 9.57925 18.3739 9.5253 18.312 9.45716C18.1884 9.3209 18.0085 9.12766 17.7802 8.89641C17.3241 8.43449 16.6723 7.81788 15.8894 7.20007C15.4666 6.86651 14.9988 6.52708 14.4972 6.21001L18.6441 2.06309ZM12.8577 6.43527C11.9305 5.98299 10.9557 5.68518 9.9999 5.68518C8.15397 5.68518 6.23687 6.796 4.72986 7.98511C3.98734 8.571 3.36651 9.15809 2.93127 9.59896C2.77921 9.75299 2.65017 9.88879 2.54689 10C2.65017 10.1112 2.77921 10.247 2.93127 10.401C3.36651 10.8419 3.98734 11.429 4.72986 12.0149C5.19527 12.3821 5.69978 12.7419 6.22923 13.0638L8.05473 11.2383C7.82656 10.8806 7.69434 10.4557 7.69434 10C7.69434 8.72668 8.72657 7.69444 9.99989 7.69444C10.4556 7.69444 10.8804 7.82666 11.2381 8.05483L12.8577 6.43527ZM11.9452 8.76198L13.7708 6.93638C14.3002 7.25822 14.8046 7.61793 15.2699 7.98511C16.0125 8.571 16.6333 9.15809 17.0685 9.59896C17.2206 9.75299 17.3496 9.88879 17.4529 9.99999C17.3496 10.1112 17.2206 10.247 17.0685 10.401C16.6333 10.8419 16.0125 11.429 15.2699 12.0149C13.7629 13.204 11.8458 14.3148 9.9999 14.3148C9.0442 14.3148 8.06942 14.0171 7.14236 13.5648L8.76188 11.9453C9.11952 12.1734 9.54427 12.3056 9.99989 12.3056C11.2732 12.3056 12.3054 11.2733 12.3054 10C12.3054 9.54437 12.1733 9.11962 11.9452 8.76198ZM10.4995 8.79346C10.3456 8.72966 10.1769 8.69444 9.99989 8.69444C9.27885 8.69444 8.69434 9.27896 8.69434 10C8.69434 10.177 8.72955 10.3457 8.79335 10.4996L10.4995 8.79346ZM9.50054 11.2067L11.2065 9.50064C11.2703 9.65447 11.3054 9.82313 11.3054 10C11.3054 10.721 10.7209 11.3056 9.99989 11.3056C9.82302 11.3056 9.65437 11.2704 9.50054 11.2067Z" fill="white"/>
</svg>
