<svg width="20" height="20" viewBox="0 0 20 20" fill="none" xmlns="http://www.w3.org/2000/svg">
<path fill-rule="evenodd" clip-rule="evenodd" d="M16.1252 2.34235C16.3402 2.0319 16.2705 1.60047 15.9695 1.37872C15.6686 1.15698 15.2504 1.22888 15.0354 1.53933L13.1007 4.33341C12.1337 3.97552 11.0911 3.75 9.99824 3.75C7.19143 3.75 4.71692 5.23746 2.99984 6.63437C2.13086 7.34132 1.42942 8.04663 0.944717 8.57544C0.701909 8.84034 0.51228 9.06228 0.381982 9.21979C0.316804 9.29858 0.266383 9.36135 0.23149 9.40543L0.190861 9.45724L0.17944 9.47204L0.175984 9.47655L0.174823 9.47807C-0.0577528 9.78398 -0.0585342 10.215 0.174042 10.5209L0.175984 10.5234L0.17944 10.528L0.190861 10.5428L0.23149 10.5946C0.266383 10.6386 0.316804 10.7014 0.381982 10.7802C0.51228 10.9377 0.701909 11.1597 0.944717 11.4246C1.42942 11.9534 2.13086 12.6587 2.99984 13.3656C3.74735 13.9738 4.6384 14.599 5.63793 15.1113L3.87478 17.6576C3.65982 17.9681 3.72953 18.3995 4.03047 18.6213C4.33141 18.843 4.74964 18.7711 4.9646 18.4607L6.89855 15.6676C7.86481 16.0249 8.90638 16.25 9.99824 16.25C12.805 16.25 15.2795 14.7625 16.9966 13.3656C17.8656 12.6587 18.5671 11.9534 19.0518 11.4246C19.2946 11.1597 19.4842 10.9377 19.6145 10.7802C19.6797 10.7014 19.7301 10.6386 19.765 10.5946L19.8056 10.5428L19.817 10.528L19.8216 10.5219C19.984 10.3083 20.0333 10.0335 19.969 9.78295C19.9412 9.67468 19.8923 9.57095 19.8221 9.47865L19.8205 9.47655L19.817 9.47204L19.8056 9.45724L19.765 9.40543C19.7301 9.36135 19.6797 9.29858 19.6145 9.21979C19.4842 9.06228 19.2946 8.84034 19.0518 8.57544C18.5671 8.04663 17.8656 7.34132 16.9966 6.63437C16.2498 6.02677 15.3596 5.40205 14.3611 4.89004L16.1252 2.34235ZM12.104 5.77283C11.4249 5.56252 10.7191 5.43919 9.99824 5.43919C7.73558 5.43919 5.62056 6.65443 4.01547 7.96022C3.22337 8.60462 2.58057 9.25066 2.13629 9.73537C2.04918 9.83041 1.96989 9.91904 1.8988 10C1.96989 10.081 2.04918 10.1696 2.13629 10.2646C2.58057 10.7493 3.22337 11.3954 4.01547 12.0398C4.77651 12.6589 5.65219 13.2577 6.6039 13.7162L8.07365 11.5936C7.71535 11.161 7.5 10.6056 7.5 10C7.5 8.61929 8.61929 7.5 10 7.5C10.2851 7.5 10.559 7.54771 10.8142 7.63559L12.104 5.77283ZM11.9263 8.40641L13.3952 6.28505C14.3459 6.74342 15.2207 7.34166 15.981 7.96022C16.7731 8.60462 17.4159 9.25066 17.8602 9.73537C17.9473 9.8304 18.0266 9.91903 18.0977 10C18.0266 10.081 17.9473 10.1696 17.8602 10.2646C17.4159 10.7493 16.7731 11.3954 15.981 12.0398C14.3759 13.3456 12.2609 14.5608 9.99824 14.5608C9.27844 14.5608 8.57358 14.4378 7.89533 14.2281L9.18576 12.3644C9.441 12.4523 9.71493 12.5 10 12.5C11.3807 12.5 12.5 11.3807 12.5 10C12.5 9.39437 12.2847 8.83905 11.9263 8.40641ZM9.81336 9.08108C9.38501 9.16761 9.0625 9.54614 9.0625 10C9.0625 10.0506 9.0665 10.1002 9.07421 10.1486L9.81336 9.08108ZM10.1866 10.9189L10.9258 9.85143C10.9335 9.89982 10.9375 9.94944 10.9375 10C10.9375 10.4539 10.615 10.8324 10.1866 10.9189Z" fill="#0091E4"/>
</svg>
