<svg width="20" height="20" viewBox="0 0 20 20" fill="none" xmlns="http://www.w3.org/2000/svg">
<path fill-rule="evenodd" clip-rule="evenodd" d="M1.8988 10C1.96989 10.081 2.04918 10.1696 2.13629 10.2646C2.58057 10.7493 3.22337 11.3954 4.01547 12.0398C5.62056 13.3456 7.73558 14.5608 9.99824 14.5608C12.2609 14.5608 14.3759 13.3456 15.981 12.0398C16.7731 11.3954 17.4159 10.7493 17.8602 10.2646C17.9473 10.1696 18.0266 10.081 18.0977 10C18.0266 9.91903 17.9473 9.8304 17.8602 9.73537C17.4159 9.25067 16.7731 8.60463 15.981 7.96022C14.3759 6.65443 12.2609 5.43919 9.99824 5.43919C7.73558 5.43919 5.62056 6.65443 4.01547 7.96022C3.22337 8.60463 2.58057 9.25067 2.13629 9.73537C2.04918 9.83041 1.96989 9.91904 1.8988 10ZM19.8056 10.5428C20.0685 10.2646 20.0556 9.78576 19.8221 9.47865L19.8205 9.47655L19.817 9.47204L19.8056 9.45725L19.765 9.40543C19.7301 9.36135 19.6797 9.29858 19.6145 9.21979C19.4842 9.06229 19.2946 8.84035 19.0518 8.57544C18.5671 8.04663 17.8656 7.34132 16.9966 6.63437C15.2795 5.23746 12.805 3.75 9.99824 3.75C7.19143 3.75 4.71692 5.23746 2.99984 6.63437C2.13086 7.34132 1.42942 8.04663 0.944717 8.57544C0.701909 8.84035 0.51228 9.06229 0.381982 9.21979C0.316804 9.29858 0.266383 9.36135 0.23149 9.40543L0.190861 9.45725L0.17944 9.47204L0.175984 9.47655L0.174823 9.47807C-0.0577528 9.78398 -0.0585342 10.215 0.174042 10.5209L0.175984 10.5234L0.17944 10.528L0.190861 10.5428L0.23149 10.5946C0.266383 10.6387 0.316804 10.7014 0.381982 10.7802C0.51228 10.9377 0.701909 11.1597 0.944717 11.4246C1.42942 11.9534 2.13086 12.6587 2.99984 13.3656C4.71692 14.7625 7.19143 16.25 9.99824 16.25C12.805 16.25 15.2795 14.7625 16.9966 13.3656C17.8656 12.6587 18.5671 11.9534 19.0518 11.4246C19.2946 11.1597 19.4842 10.9377 19.6145 10.7802C19.6797 10.7014 19.7301 10.6387 19.765 10.5946C19.765 10.5946 19.7897 10.563 19.8056 10.5428C19.8101 10.537 19.817 10.528 19.817 10.528L19.8205 10.5234L19.8216 10.5219C19.8216 10.5219 19.8119 10.5346 19.8056 10.5428ZM19.8056 10.5428C19.8119 10.5346 19.8216 10.5219 19.8216 10.5219C20.0542 10.216 20.0547 9.78456 19.8221 9.47865C20.0556 9.78576 20.0685 10.2646 19.8056 10.5428Z" fill="#0091E4"/>
<path fill-rule="evenodd" clip-rule="evenodd" d="M10 9.0625C10.5178 9.0625 10.9375 9.48223 10.9375 10C10.9375 10.5178 10.5178 10.9375 10 10.9375C9.48223 10.9375 9.0625 10.5178 9.0625 10C9.0625 9.48223 9.48223 9.0625 10 9.0625ZM10 7.5C11.3807 7.5 12.5 8.61929 12.5 10C12.5 11.3807 11.3807 12.5 10 12.5C8.61929 12.5 7.5 11.3807 7.5 10C7.5 8.61929 8.61929 7.5 10 7.5Z" fill="#0091E4"/>
</svg>
