<svg width="20" height="20" viewBox="0 0 20 20" fill="none" xmlns="http://www.w3.org/2000/svg">
<path d="M10.0048 14.12C9.74464 14.12 9.52454 13.91 9.52454 13.64V7.38997C9.52454 7.12997 9.73464 6.90997 10.0048 6.90997C10.2749 6.90997 10.485 7.11997 10.485 7.38997V13.65C10.485 13.91 10.2649 14.12 10.0048 14.12Z" fill="white"/>
<path d="M10.0043 16.92C10.4959 16.92 10.8943 16.5215 10.8943 16.03C10.8943 15.5384 10.4959 15.14 10.0043 15.14C9.5128 15.14 9.11433 15.5384 9.11433 16.03C9.11433 16.5215 9.5128 16.92 10.0043 16.92Z" fill="white"/>
<path d="M19.5293 20H0.48022C0.310139 20 0.160067 19.91 0.0700243 19.77C-0.0200186 19.63 -0.0200186 19.45 0.0500148 19.31L9.57455 0.24C9.73463 -0.08 10.2649 -0.08 10.425 0.24L19.9495 19.31C20.0195 19.46 20.0195 19.63 19.9295 19.77C19.8494 19.91 19.6994 20 19.5293 20ZM1.25059 19.05H18.7689L10.0048 1.52L1.25059 19.05Z" fill="white"/>
</svg>
