<svg width="20" height="20" viewBox="0 0 20 20" fill="none" xmlns="http://www.w3.org/2000/svg">
<path d="M10.625 15.6509C10.625 15.9961 10.3452 16.2759 10 16.2759C9.65482 16.2759 9.375 15.9961 9.375 15.6509C9.375 15.3058 9.65482 15.0259 10 15.0259C10.3452 15.0259 10.625 15.3058 10.625 15.6509Z" fill="white"/>
<path d="M9.5 6.875L9.5 13.7759H10.5L10.5 6.875C10.5 6.59886 10.2761 6.375 10 6.375C9.72386 6.375 9.5 6.59886 9.5 6.875Z" fill="white"/>
<path fill-rule="evenodd" clip-rule="evenodd" d="M9.99992 1.375C10.1893 1.375 10.3624 1.482 10.4471 1.65139L18.5722 17.9014C18.6497 18.0564 18.6414 18.2405 18.5503 18.3879C18.4592 18.5353 18.2983 18.625 18.125 18.625H1.875C1.70171 18.625 1.54078 18.5353 1.44968 18.3879C1.35857 18.2405 1.35029 18.0564 1.42779 17.9014L9.55271 1.65139C9.63741 1.482 9.81054 1.375 9.99992 1.375ZM9.99993 2.99303L2.68401 17.625H17.316L9.99993 2.99303Z" fill="white"/>
</svg>
