<svg width="20" height="20" viewBox="0 0 20 20" fill="none" xmlns="http://www.w3.org/2000/svg">
<path fill-rule="evenodd" clip-rule="evenodd" d="M1.25 8.51545C1.25 4.49986 4.57772 1.25 8.67591 1.25C12.7741 1.25 16.1018 4.49986 16.1018 8.51545C16.1018 10.3338 15.4189 11.9961 14.2912 13.27L18.5129 17.3987C18.829 17.7078 18.829 18.2104 18.5129 18.5195C18.1987 18.8268 17.6904 18.8268 17.3761 18.5195L13.108 14.3455C11.8708 15.2473 10.3367 15.7809 8.67591 15.7809C4.57772 15.7809 1.25 12.531 1.25 8.51545ZM8.67591 2.8318C5.46138 2.8318 2.86097 5.37945 2.86097 8.51545C2.86097 11.6515 5.46138 14.1991 8.67591 14.1991C11.8904 14.1991 14.4909 11.6515 14.4909 8.51545C14.4909 5.37945 11.8904 2.8318 8.67591 2.8318Z" fill="white"/>
<path fill-rule="evenodd" clip-rule="evenodd" d="M8.75 5C9.09518 5 9.375 5.27982 9.375 5.625V8.125H11.875C12.2202 8.125 12.5 8.40482 12.5 8.75C12.5 9.09518 12.2202 9.375 11.875 9.375H9.375V11.875C9.375 12.2202 9.09518 12.5 8.75 12.5C8.40482 12.5 8.125 12.2202 8.125 11.875V9.375H5.625C5.27982 9.375 5 9.09518 5 8.75C5 8.40482 5.27982 8.125 5.625 8.125H8.125V5.625C8.125 5.27982 8.40482 5 8.75 5Z" fill="white"/>
</svg>
