<svg width="20" height="20" viewBox="0 0 20 20" fill="none" xmlns="http://www.w3.org/2000/svg">
<path d="M8.79614 4.9861C9.07229 4.9861 9.29614 5.20996 9.29614 5.4861V7.99536H11.8054C12.0815 7.99536 12.3054 8.21922 12.3054 8.49536C12.3054 8.7715 12.0815 8.99536 11.8054 8.99536H9.29614V11.5046C9.29614 11.7808 9.07229 12.0046 8.79614 12.0046C8.52 12.0046 8.29614 11.7808 8.29614 11.5046V8.99536H5.78687C5.51072 8.99536 5.28687 8.7715 5.28687 8.49536C5.28687 8.21922 5.51072 7.99536 5.78687 7.99536H8.29614V5.4861C8.29614 5.20996 8.52 4.9861 8.79614 4.9861Z" fill="white"/>
<path fill-rule="evenodd" clip-rule="evenodd" d="M8.79615 1.37502C4.86368 1.37502 1.67578 4.56291 1.67578 8.49539C1.67578 12.4279 4.86368 15.6158 8.79615 15.6158C10.4287 15.6158 11.933 15.0663 13.134 14.1423L17.4703 18.4786C17.6656 18.6738 17.9822 18.6738 18.1774 18.4786C18.3727 18.2833 18.3727 17.9667 18.1774 17.7715L13.8833 13.4774C15.1411 12.1932 15.9165 10.4349 15.9165 8.49539C15.9165 4.56291 12.7286 1.37502 8.79615 1.37502ZM2.67578 8.49539C2.67578 5.1152 5.41596 2.37502 8.79615 2.37502C12.1763 2.37502 14.9165 5.1152 14.9165 8.49539C14.9165 11.8756 12.1763 14.6158 8.79615 14.6158C5.41596 14.6158 2.67578 11.8756 2.67578 8.49539Z" fill="white"/>
</svg>
