<svg width="16" height="16" viewBox="0 0 16 16" fill="none" xmlns="http://www.w3.org/2000/svg">
<path d="M1 1.91934C1 1.6432 1.22386 1.41934 1.5 1.41934H7.37097C7.64711 1.41934 7.87097 1.6432 7.87097 1.91934C7.87097 2.19548 7.64711 2.41934 7.37097 2.41934H1.5C1.22386 2.41934 1 2.19548 1 1.91934Z" fill="white"/>
<path fill-rule="evenodd" clip-rule="evenodd" d="M9.88696 7.72552C8.92491 7.72552 8.14502 8.50542 8.14502 9.46746C8.14502 10.4295 8.92491 11.2094 9.88696 11.2094C10.849 11.2094 11.6289 10.4295 11.6289 9.46746C11.6289 8.50542 10.849 7.72552 9.88696 7.72552ZM9.14502 9.46746C9.14502 9.0577 9.47719 8.72552 9.88696 8.72552C10.2967 8.72552 10.6289 9.0577 10.6289 9.46746C10.6289 9.87722 10.2967 10.2094 9.88696 10.2094C9.47719 10.2094 9.14502 9.87722 9.14502 9.46746Z" fill="white"/>
<path fill-rule="evenodd" clip-rule="evenodd" d="M8.85484 4.60611C8.94396 4.45067 9.10943 4.3548 9.28861 4.3548H10.4788C10.6571 4.3548 10.8219 4.44972 10.9113 4.60394L11.4113 5.4659L11.6356 5.55842L12.5947 5.29998C12.7674 5.25344 12.9518 5.30271 13.0783 5.4292L13.9188 6.26975C14.0444 6.39535 14.094 6.57815 14.049 6.74998L13.7956 7.7174L13.8883 7.94222L14.7487 8.43547C14.9041 8.52459 15 8.69006 15 8.86923V10.0594C15 10.2377 14.9051 10.4025 14.7508 10.492L13.8889 10.9919L13.7958 11.2176L14.0488 12.178C14.0941 12.35 14.0446 12.5331 13.9188 12.6589L13.0783 13.4995C12.9525 13.6253 12.7694 13.6747 12.5974 13.6294L11.637 13.3764L11.4113 13.4695L10.9113 14.3315C10.8219 14.4857 10.6571 14.5806 10.4788 14.5806H9.28861C9.10943 14.5806 8.94396 14.4847 8.85484 14.3293L8.36159 13.469L8.13677 13.3762L7.16935 13.6296C6.99752 13.6746 6.81472 13.6251 6.68912 13.4995L5.84858 12.6589C5.72209 12.5324 5.67281 12.348 5.71935 12.1753L5.97779 11.2162L5.88527 10.9919L5.02331 10.492C4.86909 10.4025 4.77417 10.2377 4.77417 10.0594V8.86923C4.77417 8.69006 4.87004 8.52459 5.02548 8.43547L5.8858 7.94222L5.97795 7.71883L5.71916 6.75267C5.67294 6.58013 5.72227 6.39605 5.84858 6.26975L6.68912 5.4292C6.81542 5.3029 6.99951 5.25357 7.17204 5.29978L8.1382 5.55858L8.36159 5.46643L8.85484 4.60611ZM9.57829 5.3548L9.14408 6.11214C9.08895 6.20829 9.00344 6.2834 8.90098 6.32567L8.36303 6.54757C8.26152 6.58944 8.14906 6.59674 8.043 6.56833L7.19212 6.34042L6.75979 6.77275L6.9877 7.62362C7.01611 7.72969 7.00882 7.84215 6.96695 7.94366L6.74504 8.48161C6.70278 8.58406 6.62767 8.66958 6.53151 8.7247L5.77417 9.15892V9.77143L6.53368 10.2119C6.62882 10.2671 6.7031 10.3521 6.74504 10.4538L6.96695 10.9917C7.00891 11.0935 7.01614 11.2062 6.98751 11.3125L6.76014 12.1563L7.19343 12.5896L8.04568 12.3664C8.15098 12.3388 8.2624 12.3463 8.36303 12.3878L8.90098 12.6097C9.00344 12.652 9.08895 12.7271 9.14408 12.8233L9.57829 13.5806H10.1908L10.6313 12.8211C10.6865 12.726 10.7715 12.6517 10.8732 12.6097L11.4111 12.3878C11.512 12.3462 11.6237 12.3388 11.7292 12.3665L12.5743 12.5892L13.0086 12.155L12.7859 11.3098C12.7581 11.2043 12.7656 11.0926 12.8072 10.9917L13.0291 10.4538C13.071 10.3521 13.1453 10.2671 13.2405 10.2119L14 9.77143V9.15892L13.2426 8.7247C13.1465 8.66958 13.0714 8.58406 13.0291 8.48161L12.8072 7.94366C12.7657 7.84303 12.7582 7.73161 12.7857 7.62631L13.0089 6.77406L12.5757 6.34077L11.7319 6.56813C11.6256 6.59677 11.5129 6.58954 11.4111 6.54757L10.8732 6.32567C10.7715 6.28373 10.6865 6.20944 10.6313 6.11431L10.1908 5.3548H9.57829Z" fill="white"/>
<path d="M1 4.01605C1 3.73991 1.22386 3.51605 1.5 3.51605H4.43548C4.71163 3.51605 4.93548 3.73991 4.93548 4.01605C4.93548 4.29219 4.71163 4.51605 4.43548 4.51605H1.5C1.22386 4.51605 1 4.29219 1 4.01605Z" fill="white"/>
<path d="M1.5 5.61295C1.22386 5.61295 1 5.8368 1 6.11295C1 6.38909 1.22386 6.61295 1.5 6.61295H2.75806C3.03421 6.61295 3.25806 6.38909 3.25806 6.11295C3.25806 5.8368 3.03421 5.61295 2.75806 5.61295H1.5Z" fill="white"/>
</svg>
