<svg width="16" height="16" viewBox="0 0 16 16" fill="none" xmlns="http://www.w3.org/2000/svg">
<path fill-rule="evenodd" clip-rule="evenodd" d="M4.27054 6.17188C3.5059 5.19585 3.38734 3.43227 3.38734 3.43227C3.38734 3.43227 3.26878 5.19585 2.50413 6.17188C2.42863 6.26825 2.34683 6.35694 2.25822 6.4355C2.17606 6.50835 2.0819 6.57792 1.97972 6.644C1.21478 7.13858 0 7.43658 0 7.43658C0 7.43658 1.21478 7.73458 1.97971 8.22916C2.0819 8.29523 2.17606 8.36481 2.25822 8.43766C2.34683 8.51621 2.42863 8.60491 2.50413 8.70128C3.26878 9.6773 3.38734 11.4409 3.38734 11.4409C3.38734 11.4409 3.5059 9.6773 4.27054 8.70128C4.34604 8.60491 4.42784 8.51621 4.51645 8.43766C4.59861 8.36481 4.69277 8.29523 4.79496 8.22916C5.55989 7.73458 6.77467 7.43658 6.77467 7.43658C6.77467 7.43658 5.55989 7.13858 4.79496 6.644C4.69277 6.57792 4.59861 6.50835 4.51645 6.4355C4.42784 6.35694 4.34604 6.26825 4.27054 6.17188Z" fill="white"/>
<path fill-rule="evenodd" clip-rule="evenodd" d="M7.90379 0C7.90379 0 7.98283 1.25971 8.49259 1.95686C8.51501 1.98752 8.53826 2.01709 8.56237 2.04542C8.5924 2.0807 8.62377 2.11404 8.65653 2.14517C8.67261 2.16044 8.68938 2.17552 8.70677 2.19039C8.74862 2.22617 8.79408 2.26075 8.8422 2.29409C9.35216 2.64736 10.162 2.86022 10.162 2.86022C10.162 2.86022 9.35216 3.07308 8.8422 3.42635C8.79408 3.45969 8.74862 3.49428 8.70677 3.53006C8.68938 3.54493 8.67261 3.56 8.65653 3.57528C8.62377 3.6064 8.5924 3.63975 8.56237 3.67503C8.53826 3.70335 8.51501 3.73292 8.49259 3.76358C7.98283 4.46074 7.90379 5.72044 7.90379 5.72044C7.90379 5.72044 7.82475 4.46074 7.31498 3.76358C7.29257 3.73292 7.26932 3.70335 7.2452 3.67503C7.21517 3.63975 7.18381 3.6064 7.15104 3.57528C7.13496 3.56 7.11819 3.54493 7.1008 3.53006C7.05895 3.49428 7.0135 3.45969 6.96537 3.42635C6.45542 3.07308 5.64556 2.86022 5.64556 2.86022C5.64556 2.86022 6.45542 2.64736 6.96537 2.29409C7.0135 2.26075 7.05895 2.22617 7.1008 2.19039C7.11819 2.17552 7.13496 2.16044 7.15104 2.14517C7.18381 2.11404 7.21517 2.0807 7.2452 2.04542C7.26932 2.01709 7.29257 1.98752 7.31498 1.95686C7.82475 1.25971 7.90379 0 7.90379 0Z" fill="white"/>
<path fill-rule="evenodd" clip-rule="evenodd" d="M9.12346 6.99303C9.30865 6.88469 9.53836 6.89167 9.71681 7.01105L15.7465 11.045C15.9098 11.1542 16.0056 11.3413 15.9997 11.5395C15.9939 11.7377 15.8872 11.9186 15.7177 12.0178L13.4082 13.3688L14.4185 15.1418C14.5744 15.4154 14.4819 15.7653 14.2119 15.9233C13.9418 16.0812 13.5965 15.9875 13.4407 15.7139L12.4304 13.9409L10.1209 15.2919C9.95148 15.3911 9.74346 15.3942 9.57116 15.3003C9.39885 15.2064 9.28684 15.0287 9.27511 14.8308L8.8422 7.52271C8.82939 7.30642 8.93828 7.10136 9.12346 6.99303ZM10.0369 8.59619L10.3475 13.8383L14.3621 11.4898L10.0369 8.59619Z" fill="white"/>
</svg>
