<svg width="16" height="16" viewBox="0 0 16 16" fill="none" xmlns="http://www.w3.org/2000/svg">
<g clip-path="url(#clip0)">
<path fill-rule="evenodd" clip-rule="evenodd" d="M15 14.4615C15 14.7589 14.7589 15 14.4615 15L1.53846 15C1.24108 15 0.999999 14.7589 0.999999 14.4615L0.999998 1.53846C0.999998 1.24108 1.24108 1 1.53846 1L14.4615 0.999999C14.7589 0.999999 15 1.24108 15 1.53846L15 14.4615ZM13.9231 13.9231L13.9231 2.07692L2.07692 2.07692L2.07692 13.9231L13.9231 13.9231Z" fill="white"/>
<path fill-rule="evenodd" clip-rule="evenodd" d="M13.1154 12.3077C13.1154 12.7538 12.7538 13.1154 12.3077 13.1154L8.53846 13.1154C8.09238 13.1154 7.73077 12.7538 7.73077 12.3077C7.73077 11.8616 8.09238 11.5 8.53846 11.5L11.5 11.5L11.5 8.53846C11.5 8.09239 11.8616 7.73077 12.3077 7.73077C12.7538 7.73077 13.1154 8.09238 13.1154 8.53846L13.1154 12.3077Z" fill="white"/>
</g>
<defs>
<clipPath id="clip0">
<rect width="16" height="16" fill="white" transform="translate(16 16) rotate(180)"/>
</clipPath>
</defs>
</svg>
