<svg width="16" height="16" viewBox="0 0 16 16" fill="none" xmlns="http://www.w3.org/2000/svg">
<path d="M3 12.5C3 12.7761 3.22386 13 3.5 13H6.5C6.77614 13 7 12.7761 7 12.5C7 12.2239 6.77614 12 6.5 12H4V9.5C4 9.22386 3.77614 9 3.5 9C3.22386 9 3 9.22386 3 9.5V12.5Z" fill="white"/>
<path fill-rule="evenodd" clip-rule="evenodd" d="M1.5 1C1.22386 1 1 1.22386 1 1.5V14.5C1 14.7761 1.22386 15 1.5 15H14.5C14.7761 15 15 14.7761 15 14.5V1.5C15 1.22386 14.7761 1 14.5 1H1.5ZM2 14V2H14V14H2Z" fill="white"/>
</svg>
