<svg width="16" height="16" viewBox="0 0 16 16" fill="none" xmlns="http://www.w3.org/2000/svg">
<g clip-path="url(#clip0)">
<path fill-rule="evenodd" clip-rule="evenodd" d="M1.53846 15C1.24108 15 1 14.7589 1 14.4615L0.999999 1.53846C0.999999 1.24108 1.24108 0.999999 1.53846 0.999999L14.4615 0.999998C14.7589 0.999998 15 1.24108 15 1.53846L15 14.4615C15 14.7589 14.7589 15 14.4615 15L1.53846 15ZM2.07692 13.9231L13.9231 13.9231L13.9231 2.07692L2.07692 2.07692L2.07692 13.9231Z" fill="white"/>
<path fill-rule="evenodd" clip-rule="evenodd" d="M3.69231 13.1154C3.24623 13.1154 2.88462 12.7538 2.88462 12.3077L2.88462 8.53846C2.88462 8.09238 3.24623 7.73077 3.69231 7.73077C4.13838 7.73077 4.5 8.09238 4.5 8.53846L4.5 11.5L7.46154 11.5C7.90762 11.5 8.26923 11.8616 8.26923 12.3077C8.26923 12.7538 7.90762 13.1154 7.46154 13.1154L3.69231 13.1154Z" fill="white"/>
</g>
<defs>
<clipPath id="clip0">
<rect width="16" height="16" fill="white" transform="translate(0 16) rotate(-90)"/>
</clipPath>
</defs>
</svg>
