<svg width="16" height="16" viewBox="0 0 16 16" fill="none" xmlns="http://www.w3.org/2000/svg">
<path d="M5.67847 12C5.40232 12 5.17847 12.2239 5.17847 12.5C5.17847 12.7761 5.40232 13 5.67847 13H10.3213C10.5975 13 10.8213 12.7761 10.8213 12.5C10.8213 12.2239 10.5975 12 10.3213 12H5.67847Z" fill="white"/>
<path fill-rule="evenodd" clip-rule="evenodd" d="M1.5 1C1.22386 1 1 1.22386 1 1.5V14.5C1 14.7761 1.22386 15 1.5 15H14.5C14.7761 15 15 14.7761 15 14.5V1.5C15 1.22386 14.7761 1 14.5 1H1.5ZM2 14V2H14V14H2Z" fill="white"/>
</svg>
