<svg width="16" height="16" viewBox="0 0 16 16" fill="none" xmlns="http://www.w3.org/2000/svg">
<path d="M6.28628 3.02899C6.46726 2.77044 6.40438 2.41414 6.14584 2.23316C5.8873 2.05218 5.53099 2.11506 5.35001 2.3736L3.62037 4.84452L3.15841 4.22857C2.96905 3.97609 2.61088 3.92493 2.35841 4.11428C2.10593 4.30364 2.05477 4.66181 2.24412 4.91428L3.17919 6.16103C3.28908 6.30756 3.46256 6.39253 3.64569 6.38953C3.82883 6.38653 3.99943 6.29592 4.10446 6.14587L6.28628 3.02899Z" fill="white"/>
<path fill-rule="evenodd" clip-rule="evenodd" d="M1.14282 2.28571C1.14282 1.65453 1.6545 1.14285 2.28568 1.14285H6.23373C6.86491 1.14285 7.37659 1.65453 7.37659 2.28571V6.23376C7.37659 6.86494 6.86491 7.37662 6.23373 7.37662H2.28568C1.6545 7.37662 1.14282 6.86494 1.14282 6.23376V2.28571ZM2.28568 1.71428H6.23373C6.54932 1.71428 6.80516 1.97012 6.80516 2.28571V6.23376C6.80516 6.54935 6.54932 6.80519 6.23373 6.80519H2.28568C1.97009 6.80519 1.71425 6.54935 1.71425 6.23376V2.28571C1.71425 1.97012 1.97009 1.71428 2.28568 1.71428Z" fill="white"/>
<path d="M6.28628 10.5095C6.46726 10.2509 6.40438 9.89464 6.14584 9.71367C5.8873 9.53269 5.53099 9.59556 5.35001 9.8541L3.62037 12.325L3.15841 11.7091C2.96905 11.4566 2.61088 11.4054 2.35841 11.5948C2.10593 11.7841 2.05477 12.1423 2.24412 12.3948L3.17919 13.6415C3.28908 13.7881 3.46256 13.873 3.64569 13.87C3.82883 13.867 3.99943 13.7764 4.10446 13.6264L6.28628 10.5095Z" fill="white"/>
<path fill-rule="evenodd" clip-rule="evenodd" d="M2.28568 8.62336C1.6545 8.62336 1.14282 9.13503 1.14282 9.76621V13.7143C1.14282 14.3454 1.6545 14.8571 2.28568 14.8571H6.23373C6.86491 14.8571 7.37659 14.3454 7.37659 13.7143V9.76621C7.37659 9.13503 6.86491 8.62336 6.23373 8.62336H2.28568ZM6.23373 9.19478H2.28568C1.97009 9.19478 1.71425 9.45062 1.71425 9.76621V13.7143C1.71425 14.0299 1.97009 14.2857 2.28568 14.2857H6.23373C6.54932 14.2857 6.80516 14.0299 6.80516 13.7143V9.76621C6.80516 9.45062 6.54932 9.19478 6.23373 9.19478Z" fill="white"/>
<path d="M13.7667 3.02899C13.9477 2.77044 13.8848 2.41414 13.6263 2.23316C13.3678 2.05218 13.0115 2.11506 12.8305 2.3736L11.1008 4.84452L10.6389 4.22857C10.4495 3.97609 10.0913 3.92493 9.83887 4.11428C9.5864 4.30364 9.53523 4.66181 9.72459 4.91428L10.6597 6.16103C10.7696 6.30756 10.943 6.39253 11.1262 6.38953C11.3093 6.38653 11.4799 6.29592 11.5849 6.14587L13.7667 3.02899Z" fill="white"/>
<path fill-rule="evenodd" clip-rule="evenodd" d="M9.76615 1.14285C9.13496 1.14285 8.62329 1.65453 8.62329 2.28571V6.23376C8.62329 6.86494 9.13497 7.37662 9.76615 7.37662H13.7142C14.3454 7.37662 14.8571 6.86494 14.8571 6.23376V2.28571C14.8571 1.65453 14.3454 1.14285 13.7142 1.14285H9.76615ZM13.7142 1.71428H9.76615C9.45056 1.71428 9.19472 1.97012 9.19472 2.28571V6.23376C9.19472 6.54935 9.45056 6.80519 9.76615 6.80519H13.7142C14.0298 6.80519 14.2856 6.54935 14.2856 6.23376V2.28571C14.2856 1.97012 14.0298 1.71428 13.7142 1.71428Z" fill="white"/>
<path d="M13.7667 10.5095C13.9477 10.2509 13.8848 9.89464 13.6263 9.71367C13.3678 9.53269 13.0115 9.59556 12.8305 9.8541L11.1008 12.325L10.6389 11.7091C10.4495 11.4566 10.0913 11.4054 9.83887 11.5948C9.5864 11.7841 9.53523 12.1423 9.72459 12.3948L10.6597 13.6415C10.7696 13.7881 10.943 13.873 11.1262 13.87C11.3093 13.867 11.4799 13.7764 11.5849 13.6264L13.7667 10.5095Z" fill="white"/>
<path fill-rule="evenodd" clip-rule="evenodd" d="M9.76615 8.62336C9.13496 8.62336 8.62329 9.13503 8.62329 9.76621V13.7143C8.62329 14.3454 9.13497 14.8571 9.76615 14.8571H13.7142C14.3454 14.8571 14.8571 14.3454 14.8571 13.7143V9.76621C14.8571 9.13503 14.3454 8.62336 13.7142 8.62336H9.76615ZM13.7142 9.19478H9.76615C9.45056 9.19478 9.19472 9.45062 9.19472 9.76621V13.7143C9.19472 14.0299 9.45056 14.2857 9.76615 14.2857H13.7142C14.0298 14.2857 14.2856 14.0299 14.2856 13.7143V9.76621C14.2856 9.45062 14.0298 9.19478 13.7142 9.19478Z" fill="white"/>
</svg>
