<svg width="16" height="16" viewBox="0 0 16 16" fill="none" xmlns="http://www.w3.org/2000/svg">
<g clip-path="url(#clip0)">
<path fill-rule="evenodd" clip-rule="evenodd" d="M14.4615 1C14.7589 1 15 1.24108 15 1.53846L15 14.4615C15 14.7589 14.7589 15 14.4615 15L1.53846 15C1.24108 15 0.999998 14.7589 0.999998 14.4615L0.999999 1.53846C0.999999 1.24108 1.24108 0.999999 1.53846 0.999999L14.4615 1ZM13.9231 2.07692L2.07692 2.07692L2.07692 13.9231L13.9231 13.9231L13.9231 2.07692Z" fill="white"/>
<path fill-rule="evenodd" clip-rule="evenodd" d="M12.3077 2.88462C12.7538 2.88462 13.1154 3.24623 13.1154 3.69231L13.1154 7.46154C13.1154 7.90762 12.7538 8.26923 12.3077 8.26923C11.8616 8.26923 11.5 7.90762 11.5 7.46154L11.5 4.5L8.53846 4.5C8.09238 4.5 7.73077 4.13838 7.73077 3.69231C7.73077 3.24623 8.09238 2.88462 8.53846 2.88462L12.3077 2.88462Z" fill="white"/>
</g>
<defs>
<clipPath id="clip0">
<rect width="16" height="16" fill="white" transform="translate(16) rotate(90)"/>
</clipPath>
</defs>
</svg>
