<svg width="16" height="16" viewBox="0 0 16 16" fill="none" xmlns="http://www.w3.org/2000/svg">
<path fill-rule="evenodd" clip-rule="evenodd" d="M1 1.53846C1 1.24108 1.24108 1 1.53846 1H14.4615C14.7589 1 15 1.24108 15 1.53846V14.4615C15 14.7589 14.7589 15 14.4615 15H1.53846C1.24108 15 1 14.7589 1 14.4615V1.53846ZM2.07692 2.07692V13.9231H13.9231V2.07692H2.07692Z" fill="white"/>
<path fill-rule="evenodd" clip-rule="evenodd" d="M5.03846 3.69231C5.03846 3.24623 5.40008 2.88462 5.84615 2.88462H10.1538C10.5999 2.88462 10.9615 3.24623 10.9615 3.69231C10.9615 4.13838 10.5999 4.5 10.1538 4.5H5.84615C5.40008 4.5 5.03846 4.13838 5.03846 3.69231Z" fill="white"/>
</svg>
