<svg width="16" height="16" viewBox="0 0 16 16" fill="none" xmlns="http://www.w3.org/2000/svg">
<path fill-rule="evenodd" clip-rule="evenodd" d="M6 2H2L2 6H6V2ZM2 1C1.44772 1 1 1.44772 1 2V6C1 6.55228 1.44772 7 2 7H6C6.55228 7 7 6.55228 7 6V2C7 1.44772 6.55228 1 6 1H2Z" fill="#363B47"/>
<path fill-rule="evenodd" clip-rule="evenodd" d="M5.31785 2.61403C5.53102 2.78958 5.56151 3.10469 5.38597 3.31785L3.98597 5.01785C3.89208 5.13186 3.7526 5.19852 3.60493 5.19998C3.45725 5.20143 3.31648 5.13753 3.22037 5.0254L2.62037 4.3254C2.44066 4.11573 2.46494 3.80008 2.6746 3.62037C2.88427 3.44066 3.19992 3.46494 3.37963 3.6746L3.59234 3.92277L4.61403 2.68215C4.78958 2.46898 5.10469 2.43849 5.31785 2.61403Z" fill="#363B47"/>
<path fill-rule="evenodd" clip-rule="evenodd" d="M14 2H10V6H14V2ZM10 1C9.44772 1 9 1.44772 9 2V6C9 6.55228 9.44772 7 10 7H14C14.5523 7 15 6.55228 15 6V2C15 1.44772 14.5523 1 14 1H10Z" fill="#363B47"/>
<path fill-rule="evenodd" clip-rule="evenodd" d="M13.3179 2.61403C13.531 2.78958 13.5615 3.10469 13.386 3.31785L11.986 5.01785C11.8921 5.13186 11.7526 5.19852 11.6049 5.19998C11.4572 5.20143 11.3165 5.13753 11.2204 5.0254L10.6204 4.3254C10.4407 4.11573 10.4649 3.80008 10.6746 3.62037C10.8843 3.44066 11.1999 3.46494 11.3796 3.6746L11.5923 3.92277L12.614 2.68215C12.7896 2.46898 13.1047 2.43849 13.3179 2.61403Z" fill="#363B47"/>
<path fill-rule="evenodd" clip-rule="evenodd" d="M6 10H2L2 14H6V10ZM2 9C1.44772 9 1 9.44772 1 10V14C1 14.5523 1.44772 15 2 15H6C6.55228 15 7 14.5523 7 14V10C7 9.44772 6.55228 9 6 9H2Z" fill="#363B47"/>
<path fill-rule="evenodd" clip-rule="evenodd" d="M5.31785 10.614C5.53102 10.7896 5.56151 11.1047 5.38597 11.3179L3.98597 13.0179C3.89208 13.1319 3.7526 13.1985 3.60493 13.2C3.45725 13.2014 3.31648 13.1375 3.22037 13.0254L2.62037 12.3254C2.44066 12.1157 2.46494 11.8001 2.6746 11.6204C2.88427 11.4407 3.19992 11.4649 3.37963 11.6746L3.59234 11.9228L4.61403 10.6821C4.78958 10.469 5.10469 10.4385 5.31785 10.614Z" fill="#363B47"/>
<path fill-rule="evenodd" clip-rule="evenodd" d="M14 10H10V14H14V10ZM10 9C9.44772 9 9 9.44772 9 10V14C9 14.5523 9.44772 15 10 15H14C14.5523 15 15 14.5523 15 14V10C15 9.44772 14.5523 9 14 9H10Z" fill="#363B47"/>
<path fill-rule="evenodd" clip-rule="evenodd" d="M13.3179 10.614C13.531 10.7896 13.5615 11.1047 13.386 11.3179L11.986 13.0179C11.8921 13.1319 11.7526 13.1985 11.6049 13.2C11.4572 13.2014 11.3165 13.1375 11.2204 13.0254L10.6204 12.3254C10.4407 12.1157 10.4649 11.8001 10.6746 11.6204C10.8843 11.4407 11.1999 11.4649 11.3796 11.6746L11.5923 11.9228L12.614 10.6821C12.7896 10.469 13.1047 10.4385 13.3179 10.614Z" fill="#363B47"/>
</svg>
