<svg width="16" height="16" viewBox="0 0 16 16" fill="none" xmlns="http://www.w3.org/2000/svg">
<path fill-rule="evenodd" clip-rule="evenodd" d="M1 1.53846C1 1.24108 1.24108 1 1.53846 1H14.4615C14.7589 1 15 1.24108 15 1.53846V14.4615C15 14.7589 14.7589 15 14.4615 15H1.53846C1.24108 15 1 14.7589 1 14.4615V1.53846ZM2.07692 2.07692V13.9231H13.9231V2.07692H2.07692Z" fill="white"/>
<path fill-rule="evenodd" clip-rule="evenodd" d="M2.88462 3.69231C2.88462 3.24623 3.24623 2.88462 3.69231 2.88462H7.46154C7.90762 2.88462 8.26923 3.24623 8.26923 3.69231C8.26923 4.13838 7.90762 4.5 7.46154 4.5H4.5V7.46154C4.5 7.90762 4.13838 8.26923 3.69231 8.26923C3.24623 8.26923 2.88462 7.90762 2.88462 7.46154V3.69231Z" fill="white"/>
</svg>
