<svg width="16" height="16" viewBox="0 0 16 16" fill="none" xmlns="http://www.w3.org/2000/svg">
<path fill-rule="evenodd" clip-rule="evenodd" d="M6.37662 1.64282H2.14285C1.86671 1.64282 1.64285 1.86668 1.64285 2.14282V6.37659C1.64285 6.65273 1.86671 6.87659 2.14285 6.87659H6.37662C6.65276 6.87659 6.87662 6.65273 6.87662 6.37659V2.14282C6.87662 1.86668 6.65276 1.64282 6.37662 1.64282ZM2.14285 1.14282C1.59057 1.14282 1.14285 1.59054 1.14285 2.14282V6.37659C1.14285 6.92887 1.59057 7.37659 2.14285 7.37659H6.37662C6.9289 7.37659 7.37662 6.92887 7.37662 6.37659V2.14282C7.37662 1.59054 6.9289 1.14282 6.37662 1.14282H2.14285Z" fill="white"/>
<path fill-rule="evenodd" clip-rule="evenodd" d="M6.10491 2.2916C6.33113 2.44996 6.38615 2.76172 6.22779 2.98795L4.04597 6.10483C3.95407 6.23612 3.80479 6.3154 3.64455 6.31803C3.48431 6.32066 3.33252 6.24631 3.23636 6.1181L2.30129 4.87134C2.13561 4.65043 2.18038 4.33703 2.40129 4.17134C2.62221 4.00566 2.93561 4.05043 3.10129 4.27134L3.6224 4.96615L5.40856 2.41448C5.56692 2.18826 5.87868 2.13324 6.10491 2.2916Z" fill="white"/>
<path fill-rule="evenodd" clip-rule="evenodd" d="M6.37662 9.12329H2.14285C1.86671 9.12329 1.64285 9.34715 1.64285 9.62329V13.8571C1.64285 14.1332 1.86671 14.3571 2.14285 14.3571H6.37662C6.65276 14.3571 6.87662 14.1332 6.87662 13.8571V9.62329C6.87662 9.34715 6.65276 9.12329 6.37662 9.12329ZM2.14285 8.62329C1.59057 8.62329 1.14285 9.07101 1.14285 9.62329V13.8571C1.14285 14.4093 1.59057 14.8571 2.14285 14.8571H6.37662C6.9289 14.8571 7.37662 14.4093 7.37662 13.8571V9.62329C7.37662 9.07101 6.9289 8.62329 6.37662 8.62329H2.14285Z" fill="white"/>
<path fill-rule="evenodd" clip-rule="evenodd" d="M6.10491 9.77207C6.33113 9.93042 6.38615 10.2422 6.22779 10.4684L4.04597 13.5853C3.95407 13.7166 3.80479 13.7959 3.64455 13.7985C3.48431 13.8011 3.33252 13.7268 3.23636 13.5986L2.30129 12.3518C2.13561 12.1309 2.18038 11.8175 2.40129 11.6518C2.62221 11.4861 2.93561 11.5309 3.10129 11.7518L3.6224 12.4466L5.40856 9.89495C5.56692 9.66873 5.87868 9.61371 6.10491 9.77207Z" fill="white"/>
<path fill-rule="evenodd" clip-rule="evenodd" d="M13.8571 1.64282H9.62338C9.34724 1.64282 9.12338 1.86668 9.12338 2.14282V6.37659C9.12338 6.65273 9.34724 6.87659 9.62338 6.87659H13.8571C14.1333 6.87659 14.3571 6.65273 14.3571 6.37659V2.14282C14.3571 1.86668 14.1333 1.64282 13.8571 1.64282ZM9.62338 1.14282C9.0711 1.14282 8.62338 1.59054 8.62338 2.14282V6.37659C8.62338 6.92887 9.0711 7.37659 9.62338 7.37659H13.8571C14.4094 7.37659 14.8571 6.92887 14.8571 6.37659V2.14282C14.8571 1.59054 14.4094 1.14282 13.8571 1.14282H9.62338Z" fill="white"/>
<path fill-rule="evenodd" clip-rule="evenodd" d="M13.5854 2.2916C13.8117 2.44996 13.8667 2.76172 13.7083 2.98795L11.5265 6.10483C11.4346 6.23612 11.2853 6.3154 11.1251 6.31803C10.9648 6.32066 10.813 6.24631 10.7169 6.1181L9.78182 4.87134C9.61614 4.65043 9.66091 4.33703 9.88182 4.17134C10.1027 4.00566 10.4161 4.05043 10.5818 4.27134L11.1029 4.96615L12.8891 2.41448C13.0474 2.18826 13.3592 2.13324 13.5854 2.2916Z" fill="white"/>
<path fill-rule="evenodd" clip-rule="evenodd" d="M13.8571 9.12329H9.62338C9.34724 9.12329 9.12338 9.34715 9.12338 9.62329V13.8571C9.12338 14.1332 9.34724 14.3571 9.62338 14.3571H13.8571C14.1333 14.3571 14.3571 14.1332 14.3571 13.8571V9.62329C14.3571 9.34715 14.1333 9.12329 13.8571 9.12329ZM9.62338 8.62329C9.0711 8.62329 8.62338 9.07101 8.62338 9.62329V13.8571C8.62338 14.4093 9.0711 14.8571 9.62338 14.8571H13.8571C14.4094 14.8571 14.8571 14.4093 14.8571 13.8571V9.62329C14.8571 9.07101 14.4094 8.62329 13.8571 8.62329H9.62338Z" fill="white"/>
<path fill-rule="evenodd" clip-rule="evenodd" d="M13.5854 9.77207C13.8117 9.93042 13.8667 10.2422 13.7083 10.4684L11.5265 13.5853C11.4346 13.7166 11.2853 13.7959 11.1251 13.7985C10.9648 13.8011 10.813 13.7268 10.7169 13.5986L9.78182 12.3518C9.61614 12.1309 9.66091 11.8175 9.88182 11.6518C10.1027 11.4861 10.4161 11.5309 10.5818 11.7518L11.1029 12.4466L12.8891 9.89495C13.0474 9.66873 13.3592 9.61371 13.5854 9.77207Z" fill="white"/>
</svg>
