<svg width="16" height="16" viewBox="0 0 16 16" fill="none" xmlns="http://www.w3.org/2000/svg">
<g clip-path="url(#clip0)">
<path fill-rule="evenodd" clip-rule="evenodd" d="M15 14.4615C15 14.7589 14.7589 15 14.4615 15L1.53846 15C1.24108 15 0.999999 14.7589 0.999999 14.4615L1 1.53846C1 1.24108 1.24108 0.999998 1.53846 0.999998L14.4615 0.999999C14.7589 0.999999 15 1.24108 15 1.53846L15 14.4615ZM13.9231 13.9231L13.9231 2.07692L2.07692 2.07692L2.07692 13.9231L13.9231 13.9231Z" fill="white"/>
<path fill-rule="evenodd" clip-rule="evenodd" d="M10.9615 12.3077C10.9615 12.7538 10.5999 13.1154 10.1538 13.1154L5.84615 13.1154C5.40008 13.1154 5.03846 12.7538 5.03846 12.3077C5.03846 11.8616 5.40008 11.5 5.84615 11.5L10.1538 11.5C10.5999 11.5 10.9615 11.8616 10.9615 12.3077Z" fill="white"/>
</g>
<defs>
<clipPath id="clip0">
<rect width="16" height="16" fill="white" transform="translate(16 16) rotate(-180)"/>
</clipPath>
</defs>
</svg>
