<svg width="16" height="16" viewBox="0 0 16 16" fill="none" xmlns="http://www.w3.org/2000/svg">
<path d="M8 3.75C7.72386 3.75 7.5 3.97386 7.5 4.25C7.5 4.52614 7.27614 4.75 7 4.75C6.72386 4.75 6.5 4.52614 6.5 4.25C6.5 3.42157 7.17157 2.75 8 2.75C8.27614 2.75 8.5 2.97386 8.5 3.25C8.5 3.52614 8.27614 3.75 8 3.75Z" fill="white"/>
<path fill-rule="evenodd" clip-rule="evenodd" d="M8.5 7.20852C9.91886 6.97048 11 5.7365 11 4.25C11 2.59315 9.65685 1.25 8 1.25C6.34315 1.25 5 2.59315 5 4.25C5 5.7365 6.08114 6.97048 7.5 7.20852V14.75C7.5 15.0261 7.72386 15.25 8 15.25C8.27614 15.25 8.5 15.0261 8.5 14.75V7.20852ZM8 6.25C9.10457 6.25 10 5.35457 10 4.25C10 3.14543 9.10457 2.25 8 2.25C6.89543 2.25 6 3.14543 6 4.25C6 5.35457 6.89543 6.25 8 6.25Z" fill="white"/>
</svg>
