<svg width="16" height="16" viewBox="0 0 16 16" fill="none" xmlns="http://www.w3.org/2000/svg">
<path fill-rule="evenodd" clip-rule="evenodd" d="M7.99997 2C6.8954 2 5.99997 2.89543 5.99997 4C5.99997 5.10457 6.8954 6 7.99997 6C9.10454 6 9.99997 5.10457 9.99997 4C9.99997 2.89543 9.10454 2 7.99997 2ZM4.99997 4C4.99997 2.34315 6.34312 1 7.99997 1C9.65682 1 11 2.34315 11 4C11 5.4865 9.91883 6.72048 8.49997 6.95852C8.33737 6.9858 8.17033 7 7.99997 7C7.82961 7 7.66257 6.9858 7.49997 6.95852C6.08111 6.72048 4.99997 5.4865 4.99997 4Z" fill="white"/>
<path fill-rule="evenodd" clip-rule="evenodd" d="M7.99997 3.375C7.65479 3.375 7.37497 3.65482 7.37497 4C7.37497 4.20711 7.20708 4.375 6.99997 4.375C6.79286 4.375 6.62497 4.20711 6.62497 4C6.62497 3.24061 7.24058 2.625 7.99997 2.625C8.20708 2.625 8.37497 2.79289 8.37497 3C8.37497 3.20711 8.20708 3.375 7.99997 3.375Z" fill="white"/>
<path fill-rule="evenodd" clip-rule="evenodd" d="M7.99997 6C8.27611 6 8.49997 6.22386 8.49997 6.5V6.95852V14.5C8.49997 14.7761 8.27611 15 7.99997 15C7.72383 15 7.49997 14.7761 7.49997 14.5V6.95852V6.5C7.49997 6.22386 7.72383 6 7.99997 6Z" fill="white"/>
</svg>
