<svg width="16" height="16" viewBox="0 0 16 16" fill="none" xmlns="http://www.w3.org/2000/svg">
<path d="M12.59 10.22H12.26V7.11C12.26 5.86 11.62 3.68 9.43996 3.01V2.45C9.43996 1.65 8.78996 1 7.99996 1C7.20996 1 6.55996 1.65 6.55996 2.45V3.01C4.38996 3.69 3.74996 5.86 3.73996 7.11V10.22H3.39996C2.60996 10.22 1.95996 10.87 1.95996 11.67C1.95996 12.47 2.60996 13.12 3.39996 13.12H5.68996C5.91996 14.19 6.86996 15 7.99996 15C9.12996 15 10.08 14.19 10.31 13.12H12.6C13.39 13.12 14.04 12.47 14.04 11.67C14.03 10.87 13.39 10.22 12.59 10.22ZM7.55996 2.45C7.55996 2.2 7.74996 2 7.99996 2C8.23996 2 8.43996 2.2 8.43996 2.45V2.82C8.29996 2.81 8.15996 2.8 8.00996 2.8C7.84996 2.8 7.70996 2.81 7.55996 2.82V2.45ZM7.99996 14C7.41996 14 6.92996 13.63 6.72996 13.12H9.25996C9.05996 13.63 8.56996 14 7.99996 14ZM12.59 12.12H3.39996C3.15996 12.12 2.95996 11.92 2.95996 11.67C2.95996 11.42 3.15996 11.22 3.39996 11.22H4.73996V7.11C4.73996 6.97 4.81996 3.79 8.00996 3.79C11.2 3.79 11.26 6.97 11.26 7.1V11.21H12.6C12.84 11.21 13.04 11.41 13.04 11.66C13.03 11.91 12.83 12.12 12.59 12.12Z" fill="white"/>
</svg>
