<svg width="16" height="16" viewBox="0 0 16 16" fill="none" xmlns="http://www.w3.org/2000/svg">
<path fill-rule="evenodd" clip-rule="evenodd" d="M7.99752 1C7.27287 1 6.68543 1.57094 6.68543 2.27525V2.78924C4.89537 3.38059 3.62251 5.14966 3.62251 7.19637L3.62476 10.5046H3.24995C2.55962 10.5046 2 11.0485 2 11.7196C2 12.3904 2.55962 12.9345 3.24995 12.9345H5.63551C5.76043 14.0954 6.77026 15 7.99751 15C9.22476 15 10.2346 14.0954 10.3595 12.9345H12.7451C13.4354 12.9345 13.995 12.3904 13.995 11.7196C13.995 11.0485 13.4354 10.5046 12.7451 10.5046H12.3748L12.3725 7.1959C12.3724 5.14943 11.0996 3.38059 9.3096 2.78924V2.27525C9.3096 1.57094 8.72216 1 7.99752 1ZM9.6034 12.9345H6.39162C6.51188 13.6915 7.18507 14.271 7.99751 14.271C8.80996 14.271 9.48315 13.6915 9.6034 12.9345ZM4.375 10.8691C4.375 10.8484 4.37324 10.8283 4.36984 10.8086C4.37325 10.7886 4.37502 10.7682 4.375 10.7476L4.37251 7.1959C4.3726 5.01749 6.02645 3.30822 7.99751 3.30822C9.96862 3.30822 11.6225 5.01749 11.6225 7.19637L11.625 10.7481C11.625 10.7687 11.6216 10.7996 11.625 10.8193C11.6216 10.8389 11.625 10.8484 11.625 10.8691C11.625 11.0703 11.7929 11.2336 12 11.2336H12.7451C13.0212 11.2336 13.245 11.4512 13.245 11.7196C13.245 11.988 13.0212 12.2056 12.7451 12.2056H3.24995C2.97383 12.2056 2.75 11.988 2.75 11.7196C2.75 11.4512 2.97383 11.2336 3.24995 11.2336H4C4.20711 11.2336 4.375 11.0703 4.375 10.8691ZM8.5596 2.61672V2.27525C8.5596 1.97364 8.30795 1.72899 7.99752 1.72899C7.68709 1.72899 7.43543 1.97364 7.43543 2.27525V2.61672C7.61919 2.59204 7.80678 2.57923 7.99751 2.57923C8.18826 2.57923 8.37584 2.59204 8.5596 2.61672Z" fill="white"/>
</svg>
