<svg width="16" height="16" viewBox="0 0 16 16" fill="none" xmlns="http://www.w3.org/2000/svg">
<path fill-rule="evenodd" clip-rule="evenodd" d="M2.33824 8.75H13.6618C14.4009 8.75 15 9.3736 15 10.1429V13.3571C15 14.1264 14.4009 14.75 13.6618 14.75H2.33824C1.59915 14.75 1 14.1264 1 13.3571V10.1429C1 9.3736 1.59915 8.75 2.33824 8.75ZM2.33824 9.60714H13.6618C13.946 9.60714 14.1765 9.84699 14.1765 10.1429V13.3571C14.1765 13.653 13.946 13.8929 13.6618 13.8929H2.33824C2.05397 13.8929 1.82353 13.653 1.82353 13.3571V10.1429C1.82353 9.84699 2.05397 9.60714 2.33824 9.60714Z" fill="white"/>
<path fill-rule="evenodd" clip-rule="evenodd" d="M2.44118 10.8214C2.44118 10.5847 2.62553 10.3929 2.85294 10.3929H11.5882C11.8156 10.3929 12 10.5847 12 10.8214C12 11.0581 11.8156 11.25 11.5882 11.25H2.85294C2.62553 11.25 2.44118 11.0581 2.44118 10.8214Z" fill="white"/>
<path fill-rule="evenodd" clip-rule="evenodd" d="M2.33824 1.25H13.6618C14.4009 1.25 15 1.8736 15 2.64286V5.85714C15 6.6264 14.4009 7.25 13.6618 7.25H2.33824C1.59915 7.25 1 6.6264 1 5.85714V2.64286C1 1.8736 1.59915 1.25 2.33824 1.25ZM2.33824 2.10714H13.6618C13.946 2.10714 14.1765 2.34699 14.1765 2.64286V5.85714C14.1765 6.15301 13.946 6.39286 13.6618 6.39286H2.33824C2.05397 6.39286 1.82353 6.15301 1.82353 5.85714V2.64286C1.82353 2.34699 2.05397 2.10714 2.33824 2.10714Z" fill="white"/>
<path fill-rule="evenodd" clip-rule="evenodd" d="M2.44118 3.32143C2.44118 3.08474 2.62553 2.89286 2.85294 2.89286H6.97059C7.198 2.89286 7.38235 3.08474 7.38235 3.32143C7.38235 3.55812 7.198 3.75 6.97059 3.75H2.85294C2.62553 3.75 2.44118 3.55812 2.44118 3.32143Z" fill="white"/>
</svg>
