<svg width="16" height="16" viewBox="0 0 16 16" fill="none" xmlns="http://www.w3.org/2000/svg">
<path d="M2.85718 4.05359C2.85718 3.77745 3.08104 3.55359 3.35718 3.55359H7.07146C7.34761 3.55359 7.57146 3.77745 7.57146 4.05359C7.57146 4.32973 7.34761 4.55359 7.07146 4.55359H3.35718C3.08104 4.55359 2.85718 4.32973 2.85718 4.05359Z" fill="white"/>
<path fill-rule="evenodd" clip-rule="evenodd" d="M2.5 1.69644C1.67157 1.69644 1 2.36801 1 3.19644V5.8393C1 6.66773 1.67157 7.3393 2.5 7.3393H13.5C14.3284 7.3393 15 6.66773 15 5.8393V3.19644C15 2.36801 14.3284 1.69644 13.5 1.69644H2.5ZM2 3.19644C2 2.9203 2.22386 2.69644 2.5 2.69644H13.5C13.7761 2.69644 14 2.9203 14 3.19644V5.8393C14 6.11544 13.7761 6.3393 13.5 6.3393H2.5C2.22386 6.3393 2 6.11544 2 5.8393V3.19644Z" fill="white"/>
<path d="M3.35718 10.5179C3.08104 10.5179 2.85718 10.7417 2.85718 11.0179C2.85718 11.294 3.08104 11.5179 3.35718 11.5179H11.7143C11.9905 11.5179 12.2143 11.294 12.2143 11.0179C12.2143 10.7417 11.9905 10.5179 11.7143 10.5179H3.35718Z" fill="white"/>
<path fill-rule="evenodd" clip-rule="evenodd" d="M2.5 8.66074C1.67157 8.66074 1 9.33231 1 10.1607V12.8036C1 13.632 1.67157 14.3036 2.5 14.3036H13.5C14.3284 14.3036 15 13.632 15 12.8036V10.1607C15 9.33231 14.3284 8.66074 13.5 8.66074H2.5ZM2 10.1607C2 9.88459 2.22386 9.66074 2.5 9.66074H13.5C13.7761 9.66074 14 9.88459 14 10.1607V12.8036C14 13.0797 13.7761 13.3036 13.5 13.3036H2.5C2.22386 13.3036 2 13.0797 2 12.8036V10.1607Z" fill="white"/>
</svg>
