<svg width="16" height="16" viewBox="0 0 16 16" fill="none" xmlns="http://www.w3.org/2000/svg">
<path d="M14.5 2C14.7762 2 15 1.77614 15 1.5C15 1.22386 14.7762 1 14.5 1H1.50006C1.22392 1 1.00006 1.22386 1.00006 1.5C1.00006 1.77614 1.22392 2 1.50006 2H14.5Z" fill="white"/>
<path d="M11.3191 6.33334C11.5953 6.33334 11.8191 6.10949 11.8191 5.83334C11.8191 5.5572 11.5953 5.33334 11.3191 5.33334L1.5 5.33334C1.22386 5.33334 1 5.5572 1 5.83334C1 6.10949 1.22386 6.33334 1.5 6.33334L11.3191 6.33334Z" fill="white"/>
<path d="M8.08524 14.5C8.08524 14.7761 7.86139 15 7.58524 15H1.50015C1.22401 15 1.00015 14.7761 1.00015 14.5C1.00015 14.2239 1.22401 14 1.50015 14H7.58524C7.86139 14 8.08524 14.2239 8.08524 14.5Z" fill="white"/>
<path d="M9.24467 10.6667C9.52081 10.6667 9.74467 10.4428 9.74467 10.1667C9.74467 9.89051 9.52081 9.66666 9.24467 9.66666H1.5C1.22386 9.66666 1 9.89051 1 10.1667C1 10.4428 1.22386 10.6667 1.5 10.6667H9.24467Z" fill="white"/>
</svg>
