<svg width="16" height="16" viewBox="0 0 16 16" fill="none" xmlns="http://www.w3.org/2000/svg">
<path fill-rule="evenodd" clip-rule="evenodd" d="M3.00003 6.47209C3.00003 6.24197 3.16871 6.05542 3.37678 6.05542L10.3132 6.05542C10.5213 6.05542 10.6899 6.24197 10.6899 6.47209C10.6899 6.70221 10.5213 6.88876 10.3132 6.88876L3.37678 6.88876C3.16871 6.88876 3.00003 6.70221 3.00003 6.47209Z" fill="white"/>
<path fill-rule="evenodd" clip-rule="evenodd" d="M3 3.41667C3 3.18655 3.16867 3 3.37675 3L12.6233 3C12.8313 3 13 3.18655 13 3.41667C13 3.64679 12.8313 3.83334 12.6233 3.83334L3.37675 3.83334C3.16867 3.83334 3 3.64679 3 3.41667Z" fill="white"/>
<path fill-rule="evenodd" clip-rule="evenodd" d="M3.00003 9.52775C3.00003 9.29763 3.16871 9.11108 3.37678 9.11108L9.41084 9.11108C9.61891 9.11108 9.78758 9.29763 9.78758 9.52775C9.78758 9.75788 9.61891 9.94443 9.41084 9.94443L3.37678 9.94443C3.16871 9.94443 3.00003 9.75788 3.00003 9.52775Z" fill="white"/>
<path fill-rule="evenodd" clip-rule="evenodd" d="M3.00003 12.5832C3.00003 12.3531 3.16871 12.1665 3.37678 12.1665L7.60001 12.1665C7.80808 12.1665 7.97675 12.3531 7.97675 12.5832C7.97675 12.8133 7.80808 12.9998 7.60001 12.9998L3.37678 12.9998C3.16871 12.9998 3.00003 12.8133 3.00003 12.5832Z" fill="white"/>
</svg>
