<svg width="16" height="16" viewBox="0 0 16 16" fill="none" xmlns="http://www.w3.org/2000/svg">
<path d="M6.21436 7.57144C5.93821 7.57144 5.71436 7.7953 5.71436 8.07144C5.71436 8.34758 5.93821 8.57144 6.21436 8.57144H9.57799C9.85413 8.57144 10.078 8.34758 10.078 8.07144C10.078 7.7953 9.85413 7.57144 9.57799 7.57144H6.21436Z" fill="white"/>
<path fill-rule="evenodd" clip-rule="evenodd" d="M2.28564 4.28571C2.28564 3.18114 3.18107 2.28571 4.28564 2.28571H11.7142C12.8188 2.28571 13.7142 3.18114 13.7142 4.28571V11.7143C13.7142 12.8188 12.8188 13.7143 11.7142 13.7143H4.28565C3.18108 13.7143 2.28564 12.8188 2.28564 11.7143V4.28571ZM4.28564 3.28571H11.7142C12.2665 3.28571 12.7142 3.73342 12.7142 4.28571V11.7143C12.7142 12.2666 12.2665 12.7143 11.7142 12.7143H4.28565C3.73336 12.7143 3.28564 12.2666 3.28564 11.7143V4.28571C3.28564 3.73342 3.73336 3.28571 4.28564 3.28571Z" fill="white"/>
</svg>
