<svg width="16" height="16" viewBox="0 0 16 16" fill="none" xmlns="http://www.w3.org/2000/svg">
<path fill-rule="evenodd" clip-rule="evenodd" d="M12.6667 1.58333H3.33333C2.36684 1.58333 1.58333 2.36683 1.58333 3.33333V12.6667C1.58333 13.6332 2.36683 14.4167 3.33333 14.4167H12.6667C13.6332 14.4167 14.4167 13.6332 14.4167 12.6667V3.33333C14.4167 2.36684 13.6332 1.58333 12.6667 1.58333ZM3.33333 1C2.04467 1 1 2.04467 1 3.33333V12.6667C1 13.9553 2.04467 15 3.33333 15H12.6667C13.9553 15 15 13.9553 15 12.6667V3.33333C15 2.04467 13.9553 1 12.6667 1H3.33333Z" fill="white"/>
<path fill-rule="evenodd" clip-rule="evenodd" d="M9.96638 4.35767C9.73859 4.24095 9.46499 4.27349 9.26934 4.44057L6.99303 6.38447C6.73959 6.60089 6.42012 6.71942 6.09022 6.71942H3.38466C3.17225 6.71942 3.00005 6.54296 3.00005 6.32529C3.00005 6.10761 3.17225 5.93116 3.38466 5.93116H6.09022C6.24017 5.93116 6.38538 5.87728 6.50058 5.7789L8.7769 3.83501C9.20732 3.46744 9.80925 3.39585 10.3104 3.65262L12.7873 4.92174C12.9773 5.01909 13.0543 5.25584 12.9593 5.45053C12.8643 5.64522 12.6333 5.72414 12.4433 5.62679L9.96638 4.35767ZM11.5334 7.24493C11.277 7.24493 11.0452 7.40153 10.9442 7.64306L9.74536 10.5096L10.4007 11.0469C10.7038 11.2953 11.1512 11.213 11.3508 10.8719L12.2855 9.27557C12.3948 9.08892 12.631 9.02839 12.8132 9.14038C12.9953 9.25238 13.0544 9.49448 12.9451 9.68113L12.0104 11.2775C11.5711 12.0278 10.587 12.209 9.92021 11.6624L9.43097 11.2613L9.27923 11.6242C9.05701 12.1555 8.54715 12.5 7.98302 12.5H3.38466C3.17225 12.5 3.00005 12.3236 3.00005 12.1059C3.00005 11.8882 3.17225 11.7118 3.38466 11.7118H7.98302C8.23945 11.7118 8.4712 11.5552 8.57221 11.3136L8.80776 10.7504L6.26534 8.66611C6.05611 8.49459 5.76485 8.47451 5.5351 8.61578L3.58254 9.81632C3.4004 9.92831 3.16415 9.86778 3.05486 9.68113C2.94558 9.49448 3.00464 9.25238 3.18678 9.14038L5.13934 7.93985C5.6448 7.62906 6.28557 7.67322 6.74586 8.05058L9.12215 9.99868L10.2372 7.33255C10.4594 6.80119 10.9692 6.45667 11.5334 6.45667H12.6153C12.8277 6.45667 12.9999 6.63312 12.9999 6.8508C12.9999 7.06847 12.8277 7.24493 12.6153 7.24493H11.5334Z" fill="white"/>
</svg>
