<svg width="16" height="16" viewBox="0 0 16 16" fill="none" xmlns="http://www.w3.org/2000/svg">
<path d="M12.2205 9.72385C12.0825 9.72155 11.9687 9.8316 11.9664 9.96965C11.9641 10.1077 12.0742 10.2215 12.2122 10.2238C12.3417 10.2259 12.4779 10.2304 12.6225 10.2369C12.7604 10.2431 12.8772 10.1363 12.8835 9.99841C12.8897 9.86048 12.7829 9.74363 12.6449 9.73743C12.4967 9.73076 12.3556 9.7261 12.2205 9.72385Z" fill="white"/>
<path d="M11.4078 10.2495C11.5453 10.2364 11.6461 10.1143 11.6329 9.97684C11.6198 9.8394 11.4977 9.73862 11.3603 9.75175C11.0608 9.78036 10.7813 9.83135 10.498 9.91109C10.3651 9.9485 10.2877 10.0866 10.3251 10.2195C10.3625 10.3524 10.5006 10.4298 10.6335 10.3924C10.8863 10.3212 11.1363 10.2754 11.4078 10.2495Z" fill="white"/>
<path d="M3.06286 10.2453C3.15107 10.1391 3.3087 10.1246 3.41489 10.2127L3.41893 10.216L3.43408 10.2283C3.44781 10.2393 3.46869 10.2558 3.49622 10.2769C3.5513 10.3192 3.63285 10.3799 3.7368 10.452C3.85021 10.5308 3.87832 10.6866 3.79958 10.8C3.72083 10.9134 3.56506 10.9415 3.45164 10.8628C3.34048 10.7856 3.25249 10.7201 3.1918 10.6735C3.16145 10.6502 3.13789 10.6316 3.12165 10.6186L3.10283 10.6035L3.09765 10.5992L3.09614 10.598L3.09535 10.5973C2.98916 10.5091 2.97461 10.3514 3.06286 10.2453Z" fill="white"/>
<path d="M9.88586 10.6682C10.012 10.6121 10.0688 10.4644 10.0127 10.3382C9.95655 10.2121 9.8088 10.1553 9.68264 10.2114C9.44602 10.3167 9.19523 10.4414 8.91962 10.5876C8.79765 10.6524 8.75125 10.8037 8.81596 10.9257C8.88068 11.0476 9.03201 11.094 9.15398 11.0293C9.42306 10.8865 9.66301 10.7674 9.88586 10.6682Z" fill="white"/>
<path d="M4.43347 10.8809C4.31205 10.8152 4.16033 10.8603 4.09458 10.9817C4.02883 11.1031 4.07396 11.2548 4.19537 11.3206C4.43381 11.4497 4.70273 11.5788 4.99212 11.6901C5.12099 11.7396 5.26563 11.6753 5.31518 11.5465C5.36473 11.4176 5.30043 11.273 5.17155 11.2234C4.90582 11.1212 4.65661 11.0018 4.43347 10.8809Z" fill="white"/>
<path d="M8.43033 11.428C8.55051 11.3601 8.59282 11.2075 8.52484 11.0873C8.45686 10.9672 8.30433 10.9249 8.18415 10.9928C8.06752 11.0588 7.94609 11.1281 7.81986 11.2004C7.70631 11.2657 7.59096 11.3194 7.47437 11.3629C7.345 11.4111 7.27924 11.5551 7.32748 11.6845C7.37572 11.8138 7.5197 11.8796 7.64907 11.8314C7.79102 11.7784 7.93106 11.7132 8.06875 11.6341C8.19439 11.562 8.31473 11.4934 8.43033 11.428Z" fill="white"/>
<path d="M5.9415 11.4494C5.80603 11.4228 5.67461 11.511 5.64798 11.6465C5.62135 11.782 5.70959 11.9134 5.84507 11.94C6.1366 11.9973 6.43992 12.0264 6.74665 12.0121C6.88457 12.0057 6.99118 11.8887 6.98477 11.7508C6.97835 11.6129 6.86135 11.5063 6.72342 11.5127C6.46321 11.5248 6.20049 11.5003 5.9415 11.4494Z" fill="white"/>
<path d="M10.9999 7.40734C10.3535 7.42426 9.42264 7.68967 7.87788 8.61372C6.7748 9.27841 5.56847 9.15209 4.66725 8.88016C4.21392 8.74337 3.8281 8.5671 3.5557 8.42525C3.41925 8.3542 3.31056 8.29141 3.23533 8.24596C3.19769 8.22322 3.16838 8.20478 3.1481 8.19178L3.12451 8.17647L3.11796 8.17212L3.11601 8.17083L3.11515 8.17024C3.11506 8.17018 3.11497 8.17013 3.25059 7.96935L3.11515 8.17024C3.00073 8.09296 2.97046 7.93744 3.04774 7.82302C3.12498 7.70867 3.28027 7.67854 3.39467 7.75567C3.39472 7.75571 3.39484 7.75579 3.25503 7.96278L3.39467 7.75567L3.39954 7.75891L3.41798 7.77087C3.43474 7.78162 3.46028 7.79769 3.4939 7.81801C3.56118 7.85866 3.66063 7.91616 3.78664 7.98178C4.03918 8.11328 4.39563 8.27593 4.81168 8.40147C5.64911 8.65415 6.68976 8.74605 7.62014 8.18527C9.19518 7.24306 10.2149 6.92772 10.9868 6.90751C11.5755 6.89209 12.0192 7.05554 12.3959 7.19426C12.508 7.23555 12.6142 7.27467 12.7164 7.3062C12.8484 7.3469 12.9224 7.48684 12.8817 7.61878C12.841 7.75072 12.701 7.82469 12.5691 7.784C12.4266 7.74004 12.2963 7.6923 12.17 7.64602C11.811 7.51445 11.4841 7.39466 10.9999 7.40734Z" fill="white"/>
<path d="M12.2205 3.98533C12.0825 3.98303 11.9687 4.09308 11.9664 4.23113C11.9641 4.36918 12.0741 4.48296 12.2122 4.48526C12.3417 4.48741 12.4779 4.49189 12.6225 4.4984C12.7604 4.5046 12.8772 4.39782 12.8834 4.25989C12.8896 4.12196 12.7829 4.00511 12.6449 3.9989C12.4967 3.99223 12.3556 3.98758 12.2205 3.98533Z" fill="white"/>
<path d="M11.4078 4.51096C11.5453 4.49783 11.646 4.37576 11.6329 4.23832C11.6198 4.10087 11.4977 4.0001 11.3603 4.01323C11.0608 4.04184 10.7813 4.09282 10.498 4.17256C10.3651 4.20998 10.2877 4.34805 10.3251 4.48095C10.3625 4.61386 10.5006 4.69127 10.6335 4.65386C10.8863 4.58269 11.1363 4.5369 11.4078 4.51096Z" fill="white"/>
<path d="M3.09764 4.86068L3.09537 4.85881C2.98918 4.77056 2.9746 4.61292 3.06284 4.50673C3.15106 4.40057 3.3093 4.38657 3.41549 4.47472L3.41892 4.47752L3.43407 4.48975C3.4478 4.50074 3.46868 4.51724 3.49621 4.53836C3.55129 4.58064 3.63284 4.64136 3.73679 4.71352C3.8502 4.79227 3.87831 4.94804 3.79957 5.06146C3.72082 5.17487 3.56505 5.20298 3.45163 5.12424C3.34047 5.04706 3.25248 4.98159 3.19179 4.93501C3.16144 4.91171 3.13788 4.89312 3.12164 4.88012L3.10282 4.86493L3.09764 4.86068Z" fill="white"/>
<path d="M9.88585 4.92972C10.012 4.8736 10.0688 4.72584 10.0127 4.59969C9.95654 4.47354 9.80878 4.41676 9.68263 4.47288C9.44601 4.57814 9.19522 4.70288 8.91961 4.84912C8.79764 4.91383 8.75123 5.06517 8.81595 5.18713C8.88067 5.3091 9.032 5.35551 9.15397 5.29079C9.42305 5.14801 9.663 5.02885 9.88585 4.92972Z" fill="white"/>
<path d="M4.43345 5.1424C4.31204 5.07665 4.16032 5.12178 4.09457 5.24319C4.02882 5.3646 4.07395 5.51632 4.19536 5.58207C4.4338 5.7112 4.70272 5.84031 4.99211 5.95158C5.12098 6.00112 5.26562 5.93682 5.31517 5.80795C5.36472 5.67907 5.30041 5.53443 5.17154 5.48488C4.90581 5.38271 4.6566 5.26324 4.43345 5.1424Z" fill="white"/>
<path d="M8.43032 5.6895C8.55049 5.62152 8.59281 5.46899 8.52483 5.34882C8.45685 5.22864 8.30432 5.18633 8.18414 5.25431C8.06751 5.32028 7.94608 5.38953 7.81985 5.46189C7.7063 5.52714 7.59095 5.58088 7.47436 5.62436C7.34499 5.6726 7.27922 5.81658 7.32747 5.94595C7.37571 6.07532 7.51969 6.14109 7.64906 6.09284C7.79101 6.03991 7.93105 5.97467 8.06874 5.89554C8.19438 5.82352 8.31472 5.75489 8.43032 5.6895Z" fill="white"/>
<path d="M5.94149 5.71088C5.80601 5.68425 5.6746 5.77248 5.64797 5.90796C5.62134 6.04344 5.70958 6.17486 5.84506 6.20149C6.13659 6.25879 6.43991 6.28786 6.74664 6.2736C6.88456 6.26719 6.99117 6.15018 6.98475 6.01226C6.97834 5.87434 6.86133 5.76773 6.72341 5.77414C6.46319 5.78624 6.20048 5.76178 5.94149 5.71088Z" fill="white"/>
<path fill-rule="evenodd" clip-rule="evenodd" d="M3.35714 1C2.05957 1 1 2.05957 1 3.35714V12.6429C1 13.9404 2.05957 15 3.35714 15H12.6429C13.9404 15 15 13.9404 15 12.6429V3.35714C15 2.05957 13.9404 1 12.6429 1H3.35714ZM2 3.35714C2 2.61186 2.61186 2 3.35714 2H12.6429C13.3881 2 14 2.61186 14 3.35714V12.6429C14 13.3881 13.3881 14 12.6429 14H3.35714C2.61186 14 2 13.3881 2 12.6429V3.35714Z" fill="white"/>
</svg>
