<svg width="16" height="16" viewBox="0 0 16 16" fill="none" xmlns="http://www.w3.org/2000/svg">
<path d="M9.62782 3.84979C9.54082 3.80511 9.43575 3.81526 9.35891 3.87579L6.40911 6.19932H3.35718C3.21911 6.19932 3.10718 6.31125 3.10718 6.44932C3.10718 6.58739 3.21911 6.69932 3.35718 6.69932H6.49575C6.55187 6.69932 6.60636 6.68044 6.65045 6.64571L9.54219 4.3679L12.1294 5.6967C12.2522 5.75978 12.4029 5.71136 12.466 5.58854C12.5291 5.46572 12.4806 5.31502 12.3578 5.25194L9.62782 3.84979Z" fill="white"/>
<path d="M6.21678 7.79865C6.13637 7.73947 6.02847 7.73381 5.94231 7.78425L3.27731 9.34425C3.15815 9.414 3.1181 9.56714 3.18785 9.6863C3.2576 9.80545 3.41074 9.8455 3.5299 9.77575L6.05293 8.29886L8.91761 10.4069L8.4038 11.5664H3.35718C3.21911 11.5664 3.10718 11.6783 3.10718 11.8164C3.10718 11.9544 3.21911 12.0664 3.35718 12.0664H8.56646C8.66536 12.0664 8.75496 12.0081 8.79503 11.9176L9.33002 10.7104L10.5261 11.5906C10.6352 11.6709 10.7884 11.6497 10.8716 11.5429L12.4408 9.5279C12.5257 9.41896 12.5061 9.26188 12.3972 9.17705C12.2883 9.09221 12.1312 9.11174 12.0464 9.22067L10.6266 11.0437L9.53747 10.2423L10.8648 7.24707H12.2436C12.3817 7.24707 12.4936 7.13514 12.4936 6.99707C12.4936 6.859 12.3817 6.74707 12.2436 6.74707H10.7022C10.6033 6.74707 10.5137 6.80537 10.4736 6.89578L9.12507 9.93881L6.21678 7.79865Z" fill="white"/>
<path fill-rule="evenodd" clip-rule="evenodd" d="M3.35714 1C2.05957 1 1 2.05957 1 3.35714V12.6429C1 13.9404 2.05957 15 3.35714 15H12.6429C13.9404 15 15 13.9404 15 12.6429V3.35714C15 2.05957 13.9404 1 12.6429 1H3.35714ZM2 3.35714C2 2.61186 2.61186 2 3.35714 2H12.6429C13.3881 2 14 2.61186 14 3.35714V12.6429C14 13.3881 13.3881 14 12.6429 14H3.35714C2.61186 14 2 13.3881 2 12.6429V3.35714Z" fill="white"/>
</svg>
