<svg width="16" height="16" viewBox="0 0 16 16" fill="none" xmlns="http://www.w3.org/2000/svg">
<path fill-rule="evenodd" clip-rule="evenodd" d="M11.7143 3.28564H4.28571C3.73342 3.28564 3.28571 3.73336 3.28571 4.28565V11.7142C3.28571 12.2665 3.73342 12.7142 4.28571 12.7142H11.7143C12.2666 12.7142 12.7143 12.2665 12.7143 11.7142V4.28564C12.7143 3.73336 12.2666 3.28564 11.7143 3.28564ZM4.28571 2.28564C3.18114 2.28564 2.28571 3.18108 2.28571 4.28565V11.7142C2.28571 12.8188 3.18114 13.7142 4.28571 13.7142H11.7143C12.8188 13.7142 13.7143 12.8188 13.7143 11.7142V4.28564C13.7143 3.18107 12.8188 2.28564 11.7143 2.28564H4.28571Z" fill="white"/>
<path fill-rule="evenodd" clip-rule="evenodd" d="M5.71429 8.07153C5.71429 7.79539 5.93815 7.57153 6.21429 7.57153H9.57793C9.85407 7.57153 10.0779 7.79539 10.0779 8.07153C10.0779 8.34768 9.85407 8.57153 9.57793 8.57153H6.21429C5.93815 8.57153 5.71429 8.34768 5.71429 8.07153Z" fill="white"/>
</svg>
