<svg width="16" height="16" viewBox="0 0 16 16" fill="none" xmlns="http://www.w3.org/2000/svg">
<path fill-rule="evenodd" clip-rule="evenodd" d="M11.7142 3.28571H4.28564C3.73336 3.28571 3.28564 3.73343 3.28564 4.28572V11.7143C3.28564 12.2666 3.73336 12.7143 4.28565 12.7143H11.7142C12.2665 12.7143 12.7142 12.2666 12.7142 11.7143V4.28571C12.7142 3.73343 12.2665 3.28571 11.7142 3.28571ZM4.28564 2.28571C3.18107 2.28571 2.28564 3.18115 2.28564 4.28572V11.7143C2.28564 12.8189 3.18108 13.7143 4.28565 13.7143H11.7142C12.8188 13.7143 13.7142 12.8189 13.7142 11.7143V4.28571C13.7142 3.18114 12.8188 2.28571 11.7142 2.28571H4.28564Z" fill="white"/>
</svg>
