<svg width="16" height="16" viewBox="0 0 16 16" fill="none" xmlns="http://www.w3.org/2000/svg">
<path d="M3.82153 4.49927V5.89212H12.1787V4.49927H10.7858V4.96355H9.39296V4.49927H8.0001V5.42784H6.60725V4.96355H5.21439V4.49927H3.82153Z" fill="white"/>
<path d="M3.82153 10.1079V11.5007H12.1787V10.1079H10.7858V10.5722H9.39296V10.1079H8.0001V11.0365H6.60725V10.5722H5.21439V10.1079H3.82153Z" fill="white"/>
<path d="M3.82153 7.78645V8.71502H12.1787V8.25074H10.7858V7.78645H9.39296V7.32217H8.0001V6.85788H6.60725V7.78645H3.82153Z" fill="white"/>
<path fill-rule="evenodd" clip-rule="evenodd" d="M3.35714 2C2.61186 2 2 2.61186 2 3.35714V12.6429C2 13.3881 2.61186 14 3.35714 14H12.6429C13.3898 14 14 13.3958 14 12.6429V3.35714C14 2.61186 13.3881 2 12.6429 2H3.35714ZM1 3.35714C1 2.05957 2.05957 1 3.35714 1H12.6429C13.9404 1 15 2.05957 15 3.35714V12.6429C15 13.9513 13.9388 15 12.6429 15H3.35714C2.05957 15 1 13.9404 1 12.6429V3.35714Z" fill="white"/>
</svg>
