<svg width="16" height="16" viewBox="0 0 16 16" fill="none" xmlns="http://www.w3.org/2000/svg">
<path d="M3.02368 4.28571C3.02368 4.14763 3.13561 4.03571 3.27368 4.03571H12.6151C12.7532 4.03571 12.8651 4.14763 12.8651 4.28571C12.8651 4.42378 12.7532 4.53571 12.6151 4.53571H3.27368C3.13561 4.53571 3.02368 4.42378 3.02368 4.28571Z" fill="white"/>
<path d="M3.27368 11.4643C3.13561 11.4643 3.02368 11.5762 3.02368 11.7143C3.02368 11.8524 3.13561 11.9643 3.27368 11.9643H12.6151C12.7532 11.9643 12.8651 11.8524 12.8651 11.7143C12.8651 11.5762 12.7532 11.4643 12.6151 11.4643H3.27368Z" fill="white"/>
<path d="M9.89015 6.75834C9.36658 7.08191 8.75078 7.46247 7.69534 7.6695C7.34622 7.7391 6.88418 7.70164 6.41274 7.6216C5.93332 7.54021 5.41444 7.40922 4.93853 7.27207C4.46183 7.1347 4.02392 6.98989 3.70541 6.87952C3.54604 6.8243 3.41628 6.7776 3.32618 6.74464C3.28112 6.72815 3.24595 6.7151 3.22194 6.70612L3.19444 6.69579L3.18725 6.69307L3.18535 6.69235C3.05634 6.64316 2.99087 6.49842 3.04005 6.3694C3.08923 6.24039 3.23369 6.17568 3.3627 6.22485L3.36465 6.2256L3.3711 6.22804L3.39707 6.23779C3.42003 6.24638 3.45408 6.25902 3.49795 6.27507C3.58573 6.30718 3.71278 6.35291 3.86912 6.40708C4.18204 6.51551 4.61118 6.65739 5.07698 6.79163C5.54357 6.92609 6.04264 7.05162 6.49643 7.12866C6.9578 7.20699 7.34385 7.2299 7.59819 7.17903C8.55898 6.99056 9.09918 6.65801 9.61753 6.33854C9.72243 6.27389 9.82647 6.20977 9.93296 6.14748C10.2521 5.9608 10.592 5.79295 11.0289 5.69898C11.4647 5.60525 11.9825 5.58803 12.6586 5.68153C12.7954 5.70044 12.8909 5.82665 12.872 5.96342C12.8531 6.10019 12.7269 6.19573 12.5901 6.17682C11.9569 6.08924 11.4997 6.10916 11.134 6.1878C10.7695 6.2662 10.4814 6.40594 10.1854 6.57908C10.0888 6.63561 9.99117 6.69591 9.89015 6.75834Z" fill="white"/>
<path fill-rule="evenodd" clip-rule="evenodd" d="M9.57712 9.19802C10.0391 8.82802 10.4436 8.66381 10.7836 8.61274C11.1231 8.56177 11.4144 8.62106 11.6548 8.72337C11.8973 8.82656 12.0887 8.97406 12.2205 9.09769C12.2859 9.15912 12.3354 9.21353 12.3679 9.25166C12.3841 9.27068 12.3959 9.28554 12.4033 9.29504L12.411 9.3051L12.4122 9.30676C12.4926 9.41856 12.6484 9.44427 12.7605 9.3641C12.8728 9.2838 12.8986 9.12739 12.8183 9.01508L12.8176 9.01407L12.8162 9.01219L12.8121 9.00658L12.7982 8.98842C12.7866 8.97339 12.77 8.95267 12.7486 8.92754C12.7059 8.87734 12.6436 8.80908 12.5626 8.73311C12.4016 8.58194 12.1618 8.39574 11.8506 8.2633C11.5373 8.12998 11.1526 8.05173 10.7094 8.11828C10.2669 8.18474 9.78225 8.39311 9.26455 8.80776C8.31811 9.56581 7.65958 9.70316 7.15209 9.62841C6.71899 9.56462 6.36811 9.34972 5.98458 9.11481C5.89324 9.05887 5.79926 9.00131 5.70265 8.94487L5.70105 8.94395C5.20039 8.65644 4.59659 8.478 4.12897 8.37146C3.89307 8.31771 3.68738 8.28128 3.54033 8.25824C3.46673 8.24671 3.40763 8.23851 3.36656 8.23314C3.34602 8.23046 3.32997 8.22849 3.31886 8.22716L3.30594 8.22565L3.30236 8.22525L3.30075 8.22507C3.16349 8.21013 3.04011 8.30929 3.02517 8.44655C3.01023 8.58379 3.10979 8.70721 3.24702 8.72218L3.24934 8.72244L3.25965 8.72364L3.3018 8.72893C3.33904 8.7338 3.39391 8.74141 3.46294 8.75222C3.60113 8.77387 3.79531 8.80825 4.01789 8.85896C4.46696 8.96128 5.01419 9.12628 5.45126 9.37709C5.52777 9.4218 5.60728 9.47084 5.68994 9.52184C6.07743 9.76087 6.53454 10.0429 7.07923 10.1231C7.76959 10.2248 8.56428 10.0092 9.57712 9.19802ZM12.6151 9.16074L12.8183 9.01508C12.8184 9.01521 12.8185 9.01533 12.6151 9.16074Z" fill="white"/>
<path fill-rule="evenodd" clip-rule="evenodd" d="M1 3.35714C1 2.05957 2.05957 1 3.35714 1H12.6429C13.9404 1 15 2.05957 15 3.35714V12.6429C15 13.9404 13.9404 15 12.6429 15H3.35714C2.05957 15 1 13.9404 1 12.6429V3.35714ZM3.35714 2C2.61186 2 2 2.61186 2 3.35714V12.6429C2 13.3881 2.61186 14 3.35714 14H12.6429C13.3881 14 14 13.3881 14 12.6429V3.35714C14 2.61186 13.3881 2 12.6429 2H3.35714Z" fill="white"/>
</svg>
