<svg width="16" height="16" viewBox="0 0 16 16" fill="none" xmlns="http://www.w3.org/2000/svg">
<path fill-rule="evenodd" clip-rule="evenodd" d="M12.6667 1.58333H3.33333C2.36684 1.58333 1.58333 2.36683 1.58333 3.33333V12.6667C1.58333 13.6332 2.36683 14.4167 3.33333 14.4167H12.6667C13.6332 14.4167 14.4167 13.6332 14.4167 12.6667V3.33333C14.4167 2.36684 13.6332 1.58333 12.6667 1.58333ZM3.33333 1C2.04467 1 1 2.04467 1 3.33333V12.6667C1 13.9553 2.04467 15 3.33333 15H12.6667C13.9553 15 15 13.9553 15 12.6667V3.33333C15 2.04467 13.9553 1 12.6667 1H3.33333Z" fill="white"/>
<path fill-rule="evenodd" clip-rule="evenodd" d="M12.2233 7.97848C11.7978 7.9708 11.3189 7.97155 11.0371 7.99957C10.3282 8.07007 9.9316 8.35476 9.47006 8.68772L9.46806 8.68916C8.99415 9.03104 8.45627 9.41908 7.53273 9.5C6.56067 9.58517 5.37759 9.31629 4.46995 9.04461C4.00935 8.90674 3.6066 8.76403 3.31886 8.65575C3.17485 8.60156 3.05928 8.55586 2.97925 8.52351C2.93924 8.50734 2.90808 8.49449 2.88668 8.48558L2.86199 8.47523L2.85533 8.47242L2.85346 8.47162C2.85346 8.47162 2.85258 8.47124 2.99828 8.13043L2.85346 8.47162C2.66303 8.39021 2.57377 8.16945 2.65518 7.97902C2.73659 7.78861 2.95692 7.70023 3.14734 7.78159L3.14859 7.78212L3.15363 7.78426L3.17498 7.7932C3.1941 7.80116 3.22284 7.81302 3.26034 7.82818C3.33534 7.8585 3.44524 7.90197 3.58299 7.9538C3.8588 8.05759 4.24478 8.19433 4.68502 8.32611C5.57904 8.59371 6.64596 8.82483 7.46726 8.75286C8.17565 8.69079 8.57183 8.41092 9.03127 8.07947L9.04703 8.0681C9.51553 7.73005 10.0506 7.34398 10.9629 7.25325C11.2947 7.22025 11.8158 7.22101 12.2368 7.2286C12.451 7.23246 12.6456 7.23825 12.7866 7.24307C12.8571 7.24548 12.9144 7.24765 12.9541 7.24922L13 7.25109L13.0164 7.25179C13.2233 7.2609 13.3837 7.43602 13.3746 7.64293C13.3655 7.84983 13.1904 8.01017 12.9835 8.00107L12.9686 8.00043L12.9244 7.99863C12.8859 7.99711 12.83 7.99499 12.761 7.99263C12.6228 7.98791 12.4324 7.98225 12.2233 7.97848Z" fill="white"/>
<path fill-rule="evenodd" clip-rule="evenodd" d="M13.0728 4.29107L13.0666 4.29263L13.0473 4.29752L12.9723 4.31679C12.9071 4.33372 12.8126 4.35856 12.6965 4.39008C12.5366 4.43346 12.3718 4.339 12.3284 4.1791C12.285 4.01919 12.3795 3.85439 12.5394 3.81101C12.6579 3.77885 12.7545 3.75344 12.8216 3.73602L12.8993 3.71605L12.9198 3.71084L12.9267 3.70913C13.0874 3.66895 13.2508 3.76653 13.291 3.92727C13.3312 4.08801 13.2335 4.25088 13.0728 4.29107ZM12.1434 4.23178C12.1911 4.39044 12.1012 4.55775 11.9426 4.60548C11.7045 4.6771 11.4496 4.75748 11.1987 4.84309C11.0419 4.8966 10.8714 4.81286 10.8179 4.65605C10.7643 4.49924 10.8481 4.32875 11.0049 4.27524C11.2644 4.18671 11.5265 4.10408 11.7697 4.03091C11.9284 3.98319 12.0957 4.07312 12.1434 4.23178ZM10.6368 4.72104C10.7007 4.87393 10.6285 5.04963 10.4756 5.11349C10.3509 5.16559 10.236 5.21745 10.1342 5.26837C10.0275 5.32169 9.92767 5.38394 9.83228 5.45357C9.69846 5.55126 9.51078 5.52197 9.41309 5.38815C9.3154 5.25433 9.34469 5.06665 9.47851 4.96896C9.59758 4.88204 9.72588 4.8017 9.86582 4.73172C9.98269 4.67328 10.1104 4.61579 10.2444 4.55984C10.3973 4.49599 10.573 4.56816 10.6368 4.72104ZM9.26552 5.53897C9.38682 5.65183 9.39366 5.84165 9.2808 5.96295C9.22387 6.02414 9.16499 6.08914 9.10471 6.15568C8.98134 6.29187 8.85214 6.43448 8.72198 6.56397C8.60452 6.68083 8.41457 6.68034 8.29772 6.56288C8.18086 6.44542 8.18135 6.25547 8.29881 6.13861C8.41856 6.01949 8.5286 5.8979 8.64497 5.76933C8.70781 5.69991 8.77249 5.62846 8.84153 5.55425C8.95439 5.43295 9.14422 5.4261 9.26552 5.53897ZM2.70895 6.42729C2.74913 6.26655 2.91201 6.16882 3.07275 6.209C3.2602 6.25587 3.44903 6.30885 3.63775 6.36341C3.79692 6.40942 3.88865 6.57575 3.84263 6.73492C3.79662 6.89409 3.63029 6.98582 3.47112 6.9398C3.28477 6.88593 3.10411 6.83531 2.92723 6.79109C2.76649 6.75091 2.66876 6.58803 2.70895 6.42729ZM8.13702 6.7026C8.21585 6.84833 8.1616 7.03037 8.01587 7.10919C7.88328 7.18091 7.74049 7.24161 7.58516 7.2876C7.38259 7.34758 7.18284 7.39196 6.98591 7.42294C6.82223 7.44868 6.66868 7.33686 6.64294 7.17319C6.6172 7.00952 6.72901 6.85597 6.89268 6.83022C7.0641 6.80326 7.23807 6.76462 7.41482 6.71229C7.52781 6.67884 7.63215 6.63459 7.73043 6.58144C7.87616 6.50262 8.0582 6.55686 8.13702 6.7026ZM4.37043 6.88975C4.41037 6.72895 4.5731 6.63098 4.7339 6.67092C5.09047 6.75949 5.45077 6.8301 5.81888 6.86207C5.98395 6.8764 6.10614 7.02183 6.0918 7.18689C6.07747 7.35196 5.93204 7.47415 5.76698 7.45982C5.35732 7.42424 4.9643 7.34638 4.58927 7.25323C4.42847 7.21329 4.33049 7.05055 4.37043 6.88975ZM12.9412 9.30596C12.8854 9.29481 12.7909 9.29736 12.6503 9.33191C12.4894 9.37146 12.3269 9.27308 12.2874 9.11218C12.2478 8.95129 12.3462 8.7888 12.5071 8.74925C12.6872 8.705 12.88 8.68185 13.0588 8.71761C13.2213 8.7501 13.3267 8.90815 13.2942 9.07062C13.2617 9.23309 13.1036 9.33845 12.9412 9.30596ZM12.0559 9.22141C12.1316 9.36881 12.0734 9.54964 11.926 9.6253C11.6865 9.74829 11.4407 9.89303 11.2108 10.0381C11.0706 10.1265 10.8854 10.0845 10.797 9.94439C10.7086 9.80426 10.7505 9.619 10.8906 9.5306C11.1303 9.37942 11.392 9.22501 11.652 9.09153C11.7994 9.01586 11.9803 9.07401 12.0559 9.22141ZM10.5876 10.0859C10.6837 10.2209 10.6522 10.4082 10.5172 10.5043C10.4134 10.5781 10.3293 10.6398 10.2714 10.6829C10.2424 10.7045 10.22 10.7213 10.205 10.7327L10.1966 10.7391L10.1867 10.7487C10.1712 10.7637 10.1488 10.785 10.1199 10.8117C10.0623 10.865 9.97895 10.9397 9.87398 11.0277C9.74696 11.134 9.55775 11.1173 9.45136 10.9903C9.34497 10.8633 9.36169 10.6741 9.48871 10.5677C9.58526 10.4868 9.66122 10.4186 9.71254 10.3712C9.73818 10.3475 9.75762 10.329 9.77035 10.3167L9.78434 10.3031L10.1692 10.0155M10.5876 10.0859C10.4915 9.95093 10.3042 9.91939 10.1692 10.0155ZM10.1692 10.0155C10.0617 10.092 9.97418 10.1562 9.91335 10.2015ZM9.91335 10.2015C9.88292 10.2241 9.85914 10.242 9.84282 10.2544ZM9.84282 10.2544L9.82405 10.2686ZM9.82405 10.2686L9.81905 10.2724ZM9.81905 10.2724L9.81768 10.2735ZM9.81768 10.2735L10.1692 10.0155ZM2.70895 10.4389C2.74913 10.2782 2.91201 10.1805 3.07275 10.2206C3.27538 10.2713 3.46056 10.3391 3.63412 10.4173C3.78516 10.4854 3.85241 10.6631 3.78432 10.8141C3.71623 10.9652 3.53858 11.0324 3.38753 10.9643C3.24187 10.8986 3.09054 10.8436 2.92723 10.8027C2.76649 10.7626 2.66877 10.5997 2.70895 10.4389ZM4.1949 11.0715C4.28253 10.9309 4.46757 10.888 4.60818 10.9756C4.89469 11.1542 5.18027 11.3219 5.51691 11.4529C5.67131 11.513 5.74775 11.6869 5.68764 11.8413C5.62753 11.9957 5.45364 12.0721 5.29924 12.012C4.90865 11.86 4.58447 11.6678 4.29082 11.4848C4.15021 11.3972 4.10726 11.2121 4.1949 11.0715ZM9.24504 11.144C9.33518 11.283 9.29556 11.4688 9.15654 11.559C8.9199 11.7124 8.65157 11.8652 8.36329 11.9926C8.21174 12.0596 8.0346 11.991 7.96763 11.8395C7.90067 11.6879 7.96924 11.5108 8.12078 11.4438C8.37365 11.3321 8.61373 11.1958 8.8301 11.0555C8.96912 10.9654 9.15489 11.005 9.24504 11.144ZM7.72184 11.9224C7.75016 12.0856 7.64078 12.2409 7.47753 12.2693C7.32121 12.2964 7.16146 12.3117 6.99997 12.3117C6.79707 12.3117 6.60667 12.3015 6.42709 12.2824C6.26233 12.2649 6.14294 12.1172 6.16043 11.9524C6.17791 11.7876 6.32566 11.6683 6.49042 11.6857C6.64805 11.7025 6.8173 11.7117 7.00001 11.7117C7.12356 11.7117 7.24884 11.7 7.37497 11.6781C7.53822 11.6498 7.69352 11.7591 7.72184 11.9224Z" fill="white"/>
</svg>
