<svg width="16" height="16" viewBox="0 0 16 16" fill="none" xmlns="http://www.w3.org/2000/svg">
<path d="M3.5 3.99995V5.49995H12.5V3.99995H11V4.49995H9.5V3.99995H8.00001V4.99995H6.5V4.49995H5V3.99995H3.5Z" fill="white"/>
<path d="M3.5 9.99997V11.5H12.5V9.99997H11V10.5H9.5V9.99997H8V11H6.5V10.5H5V9.99997H3.5Z" fill="white"/>
<path d="M3.5 7.49997V8.49997H12.5V7.99997H11V7.49997H9.5V6.99997H8V6.49997H6.5V7.49997H3.5Z" fill="white"/>
<path fill-rule="evenodd" clip-rule="evenodd" d="M12.6667 1.58333H3.33333C2.36684 1.58333 1.58333 2.36683 1.58333 3.33333V12.6667C1.58333 13.6332 2.36683 14.4167 3.33333 14.4167H12.6667C13.6332 14.4167 14.4167 13.6332 14.4167 12.6667V3.33333C14.4167 2.36684 13.6332 1.58333 12.6667 1.58333ZM3.33333 1C2.04467 1 1 2.04467 1 3.33333V12.6667C1 13.9553 2.04467 15 3.33333 15H12.6667C13.9553 15 15 13.9553 15 12.6667V3.33333C15 2.04467 13.9553 1 12.6667 1H3.33333Z" fill="white"/>
</svg>
