<svg width="16" height="16" viewBox="0 0 16 16" fill="none" xmlns="http://www.w3.org/2000/svg">
<path fill-rule="evenodd" clip-rule="evenodd" d="M12.6667 1.58333H3.33333C2.36684 1.58333 1.58333 2.36683 1.58333 3.33333V12.6667C1.58333 13.6332 2.36683 14.4167 3.33333 14.4167H12.6667C13.6332 14.4167 14.4167 13.6332 14.4167 12.6667V3.33333C14.4167 2.36684 13.6332 1.58333 12.6667 1.58333ZM3.33333 1C2.04467 1 1 2.04467 1 3.33333V12.6667C1 13.9553 2.04467 15 3.33333 15H12.6667C13.9553 15 15 13.9553 15 12.6667V3.33333C15 2.04467 13.9553 1 12.6667 1H3.33333Z" fill="white"/>
<path fill-rule="evenodd" clip-rule="evenodd" d="M12.2233 5.85212C11.7978 5.84444 11.3189 5.84519 11.0371 5.87321C10.3282 5.94371 9.9316 6.2284 9.47006 6.56136L9.46806 6.5628C8.99415 6.90468 8.45627 7.29271 7.53273 7.37364C6.56067 7.45881 5.37759 7.18993 4.46995 6.91825C4.00935 6.78038 3.6066 6.63766 3.31886 6.52939C3.17485 6.4752 3.05928 6.4295 2.97925 6.39715C2.93924 6.38097 2.90808 6.36813 2.88668 6.35921L2.86199 6.34887L2.85533 6.34605L2.85346 6.34526C2.85346 6.34526 2.85258 6.34488 2.99828 6.00407L2.85346 6.34526C2.66303 6.26384 2.57377 6.04309 2.65518 5.85266C2.73659 5.66224 2.95692 5.57387 3.14734 5.65523L3.14859 5.65576L3.15363 5.6579L3.17498 5.66684C3.1941 5.6748 3.22284 5.68666 3.26034 5.70181C3.33534 5.73213 3.44524 5.77561 3.58299 5.82744C3.8588 5.93122 4.24478 6.06797 4.68502 6.19974C5.57904 6.46735 6.64596 6.69847 7.46726 6.6265C8.17565 6.56443 8.57183 6.28455 9.03127 5.95311L9.04703 5.94174C9.51553 5.60369 10.0506 5.21762 10.9629 5.12689C11.2947 5.09389 11.8158 5.09464 12.2368 5.10224C12.451 5.1061 12.6456 5.11189 12.7866 5.1167C12.8571 5.11911 12.9144 5.12129 12.9541 5.12286L13 5.12473L13.0164 5.12543C13.2233 5.13454 13.3837 5.30966 13.3746 5.51656C13.3655 5.72347 13.1904 5.88381 12.9835 5.87471L12.9686 5.87407L12.9244 5.87227C12.8859 5.87074 12.83 5.86862 12.761 5.86627C12.6228 5.86155 12.4324 5.85589 12.2233 5.85212Z" fill="white"/>
<path fill-rule="evenodd" clip-rule="evenodd" d="M2.62499 4.00007C2.62499 3.79296 2.79289 3.62507 2.99999 3.62507H13C13.2071 3.62507 13.375 3.79296 13.375 4.00007C13.375 4.20718 13.2071 4.37507 13 4.37507H2.99999C2.79289 4.37507 2.62499 4.20718 2.62499 4.00007ZM11.7563 9.01089C11.1184 8.67967 10.3005 8.88529 9.69835 9.44819C9.32697 9.79533 8.87339 10.1531 8.40669 10.3465C7.25525 10.8236 6.37728 10.4078 5.5819 9.96548C5.50657 9.92359 5.43188 9.88149 5.35754 9.83958C4.63373 9.43157 3.83593 9.04174 2.99999 9.04174C2.79289 9.04174 2.62499 8.87384 2.62499 8.66674C2.62499 8.45963 2.79289 8.29174 2.99999 8.29174C4.14959 8.29174 5.00949 8.77945 5.72134 9.18318C5.79802 9.22667 5.87297 9.26918 5.94639 9.31001C6.71479 9.73729 7.3122 9.98815 8.11961 9.65363C8.46156 9.51195 8.83665 9.22702 9.1862 8.90028C9.93872 8.19686 11.0941 7.82198 12.1019 8.34527C12.525 8.56492 12.9733 8.82004 13.2419 9.04689C13.4002 9.18051 13.4201 9.41711 13.2865 9.57535C13.1529 9.73358 12.9163 9.75354 12.758 9.61992C12.561 9.45349 12.1823 9.23207 11.7563 9.01089ZM2.62499 12.0001C2.62499 11.793 2.79289 11.6251 2.99999 11.6251H13C13.2071 11.6251 13.375 11.793 13.375 12.0001C13.375 12.2072 13.2071 12.3751 13 12.3751H2.99999C2.79289 12.3751 2.62499 12.2072 2.62499 12.0001Z" fill="white"/>
</svg>
