<svg width="16" height="16" viewBox="0 0 16 16" fill="none" xmlns="http://www.w3.org/2000/svg">
<path fill-rule="evenodd" clip-rule="evenodd" d="M7.02789 1.74556C7.19321 1.31018 7.62148 1 8.12375 1C8.62602 1 9.05429 1.31018 9.2196 1.74556H9.98C10.2695 1.74556 10.5068 1.96457 10.5284 2.2426H11.85C12.7613 2.2426 13.5 2.96584 13.5 3.85799V13.3846C13.5 14.2768 12.7613 15 11.85 15H4.15C3.23873 15 2.5 14.2768 2.5 13.3846V3.85799C2.5 2.96584 3.23873 2.2426 4.15 2.2426H5.4716C5.49321 1.96457 5.73048 1.74556 6.02 1.74556H7.02789ZM5.47 3.31953H4.15C3.84624 3.31953 3.6 3.5606 3.6 3.85799V13.3846C3.6 13.682 3.84624 13.9231 4.15 13.9231H11.85C12.1538 13.9231 12.4 13.682 12.4 13.3846V3.85799C12.4 3.5606 12.1538 3.31953 11.85 3.31953H10.53V3.52663C10.53 3.82401 10.2838 4.06509 9.98 4.06509H6.02C5.71624 4.06509 5.47 3.82401 5.47 3.52663V3.31953ZM4.7275 6.26036C4.7275 5.96297 4.97374 5.72189 5.2775 5.72189H7.7525C8.05626 5.72189 8.3025 5.96297 8.3025 6.26036C8.3025 6.55774 8.05626 6.79882 7.7525 6.79882H5.2775C4.97374 6.79882 4.7275 6.55774 4.7275 6.26036ZM4.7275 8.96154C4.7275 8.66415 4.97374 8.42308 5.2775 8.42308H10.7225C11.0263 8.42308 11.2725 8.66415 11.2725 8.96154C11.2725 9.25892 11.0263 9.5 10.7225 9.5H5.2775C4.97374 9.5 4.7275 9.25892 4.7275 8.96154ZM4.7275 11.5385C4.7275 11.2411 4.97374 11 5.2775 11H10.7225C11.0263 11 11.2725 11.2411 11.2725 11.5385C11.2725 11.8358 11.0263 12.0769 10.7225 12.0769H5.2775C4.97374 12.0769 4.7275 11.8358 4.7275 11.5385Z" fill="white"/>
</svg>
