<svg width="16" height="16" viewBox="0 0 16 16" fill="none" xmlns="http://www.w3.org/2000/svg">
<path d="M4.96582 12C4.96582 11.7239 5.18968 11.5 5.46582 11.5H10.5341C10.8102 11.5 11.0341 11.7239 11.0341 12C11.0341 12.2762 10.8102 12.5 10.5341 12.5H5.46582C5.18968 12.5 4.96582 12.2762 4.96582 12Z" fill="white"/>
<path d="M5.46582 9.00021C5.18968 9.00021 4.96582 9.22407 4.96582 9.50021C4.96582 9.77636 5.18968 10.0002 5.46582 10.0002H10.5341C10.8102 10.0002 11.0341 9.77636 11.0341 9.50021C11.0341 9.22407 10.8102 9.00021 10.5341 9.00021H5.46582Z" fill="white"/>
<path d="M4.96582 7.00024C4.96582 6.7241 5.18968 6.50024 5.46582 6.50024H7.49313C7.76927 6.50024 7.99313 6.7241 7.99313 7.00024C7.99313 7.27639 7.76927 7.50024 7.49313 7.50024H5.46582C5.18968 7.50024 4.96582 7.27639 4.96582 7.00024Z" fill="white"/>
<path fill-rule="evenodd" clip-rule="evenodd" d="M7.12187 2.00018C7.29712 1.70121 7.62474 1.50006 7.99998 1.50006C8.37523 1.50006 8.70285 1.70121 8.87809 2.00018H10.0273C10.3034 2.00018 10.5273 2.22404 10.5273 2.50018V3.00006H11.8148C12.6432 3.00006 13.3148 3.67163 13.3148 4.50006V13.5001C13.3148 14.3286 12.6432 15.0001 11.8148 15.0001H4.18506C3.35663 15.0001 2.68506 14.3286 2.68506 13.5001V4.50006C2.68506 3.67163 3.35663 3.00006 4.18506 3.00006H5.47266V2.50018C5.47266 2.22404 5.69651 2.00018 5.97266 2.00018H7.12187ZM5.47266 4.00006H4.18506C3.90892 4.00006 3.68506 4.22392 3.68506 4.50006V13.5001C3.68506 13.7763 3.90892 14.0001 4.18506 14.0001H11.8148C12.0909 14.0001 12.3148 13.7763 12.3148 13.5001V4.50006C12.3148 4.22392 12.0909 4.00006 11.8148 4.00006H10.5273C10.5273 4.2762 10.3034 4.50019 10.0273 4.50019H5.97266C5.69651 4.50019 5.47266 4.2762 5.47266 4.00006Z" fill="white"/>
</svg>
