<svg width="16" height="16" viewBox="0 0 16 16" fill="none" xmlns="http://www.w3.org/2000/svg">
<path fill-rule="evenodd" clip-rule="evenodd" d="M9.10847 3.01201C9.37803 3.07192 9.548 3.33901 9.48809 3.60857L7.48809 12.6086C7.42819 12.8781 7.1611 13.0481 6.89153 12.9882C6.62197 12.9283 6.452 12.6612 6.51191 12.3916L8.51191 3.39164C8.57181 3.12208 8.8389 2.95211 9.10847 3.01201ZM5.37629 4.17085C5.55813 4.37867 5.53707 4.69455 5.32925 4.8764L1.7593 8.00011L5.32925 11.1238C5.53707 11.3057 5.55813 11.6215 5.37629 11.8294C5.19445 12.0372 4.87857 12.0582 4.67075 11.8764L0.670748 8.3764C0.56224 8.28145 0.5 8.14429 0.5 8.00011C0.5 7.85593 0.56224 7.71876 0.670748 7.62382L4.67075 4.12382C4.87857 3.94198 5.19445 3.96304 5.37629 4.17085ZM10.6237 4.17085C10.8056 3.96304 11.1214 3.94198 11.3293 4.12382L15.3293 7.62382C15.4378 7.71876 15.5 7.85593 15.5 8.00011C15.5 8.14429 15.4378 8.28145 15.3293 8.3764L11.3293 11.8764C11.1214 12.0582 10.8056 12.0372 10.6237 11.8294C10.4419 11.6215 10.4629 11.3057 10.6707 11.1238L14.2407 8.00011L10.6707 4.8764C10.4629 4.69455 10.4419 4.37867 10.6237 4.17085Z" fill="white"/>
</svg>
