<svg width="16" height="16" viewBox="0 0 16 16" fill="none" xmlns="http://www.w3.org/2000/svg">
<path fill-rule="evenodd" clip-rule="evenodd" d="M1.25 13.4502C1.25 14.1682 1.83203 14.7502 2.55 14.7502H3.45C4.16797 14.7502 4.75 14.1682 4.75 13.4502V2.55024C4.75 1.83227 4.16797 1.25024 3.45 1.25024H2.55C1.83203 1.25024 1.25 1.83227 1.25 2.55024V13.4502ZM2.55 13.7502C2.38431 13.7502 2.25 13.6159 2.25 13.4502V2.55024C2.25 2.38456 2.38431 2.25024 2.55 2.25024H3.45C3.61569 2.25024 3.75 2.38456 3.75 2.55024V13.4502C3.75 13.6159 3.61569 13.7502 3.45 13.7502H2.55Z" fill="white"/>
<path fill-rule="evenodd" clip-rule="evenodd" d="M7.55 14.7502C6.83203 14.7502 6.25 14.1682 6.25 13.4502V2.55024C6.25 1.83227 6.83203 1.25024 7.55 1.25024H8.45C9.16797 1.25024 9.75 1.83227 9.75 2.55024V13.4502C9.75 14.1682 9.16797 14.7502 8.45 14.7502H7.55ZM7.25 13.4502C7.25 13.6159 7.38431 13.7502 7.55 13.7502H8.45C8.61569 13.7502 8.75 13.6159 8.75 13.4502V2.55024C8.75 2.38456 8.61569 2.25024 8.45 2.25024H7.55C7.38431 2.25024 7.25 2.38456 7.25 2.55024V13.4502Z" fill="white"/>
<path fill-rule="evenodd" clip-rule="evenodd" d="M12.55 14.7502C11.832 14.7502 11.25 14.1682 11.25 13.4502V2.55024C11.25 1.83227 11.832 1.25024 12.55 1.25024H13.45C14.168 1.25024 14.75 1.83227 14.75 2.55024V13.4502C14.75 14.1682 14.168 14.7502 13.45 14.7502H12.55ZM12.25 13.4502C12.25 13.6159 12.3843 13.7502 12.55 13.7502H13.45C13.6157 13.7502 13.75 13.6159 13.75 13.4502V2.55024C13.75 2.38456 13.6157 2.25024 13.45 2.25024H12.55C12.3843 2.25024 12.25 2.38456 12.25 2.55024V13.4502Z" fill="white"/>
</svg>
