<svg width="16" height="16" viewBox="0 0 16 16" fill="none" xmlns="http://www.w3.org/2000/svg">
<path d="M9.43201 3.93996C9.49192 3.6704 9.32195 3.40331 9.05239 3.3434C8.78282 3.2835 8.51573 3.45347 8.45583 3.72303L6.59868 12.0802C6.53878 12.3497 6.70875 12.6168 6.97831 12.6767C7.24788 12.7366 7.51497 12.5667 7.57487 12.2971L9.43201 3.93996Z" fill="white"/>
<path d="M5.60595 4.43073C5.7878 4.63855 5.76674 4.95443 5.55892 5.13627L2.27468 8.00999L5.55892 10.8837C5.76674 11.0655 5.7878 11.3814 5.60595 11.5892C5.42411 11.7971 5.10823 11.8181 4.90041 11.6363L1.18613 8.38627C1.07762 8.29133 1.01538 8.15417 1.01538 8.00999C1.01538 7.8658 1.07762 7.72864 1.18613 7.6337L4.90041 4.3837C5.10823 4.20186 5.42411 4.22292 5.60595 4.43073Z" fill="white"/>
<path d="M10.4248 11.5894C10.243 11.3816 10.264 11.0657 10.4718 10.8838L13.7561 8.01013L10.4718 5.13641C10.264 4.95457 10.243 4.63869 10.4248 4.43087C10.6066 4.22305 10.9225 4.202 11.1303 4.38384L14.8446 7.63384C14.9531 7.72878 15.0154 7.86594 15.0154 8.01013C15.0154 8.15431 14.9531 8.29147 14.8446 8.38641L11.1303 11.6364C10.9225 11.8183 10.6066 11.7972 10.4248 11.5894Z" fill="white"/>
</svg>
