<svg width="16" height="16" viewBox="0 0 16 16" fill="none" xmlns="http://www.w3.org/2000/svg">
<path fill-rule="evenodd" clip-rule="evenodd" d="M8.75 2C8.75 1.86193 8.63807 1.75 8.5 1.75L7.5 1.75C7.36193 1.75 7.25 1.86193 7.25 2L7.25 14C7.25 14.1381 7.36193 14.25 7.5 14.25L8.5 14.25C8.63807 14.25 8.75 14.1381 8.75 14L8.75 2ZM14.25 2C14.25 1.86193 14.1381 1.75 14 1.75L13 1.75C12.8619 1.75 12.75 1.86193 12.75 2L12.75 14C12.75 14.1381 12.8619 14.25 13 14.25L14 14.25C14.1381 14.25 14.25 14.1381 14.25 14L14.25 2ZM3.25 2C3.25 1.86193 3.13807 1.75 3 1.75L2 1.75C1.86193 1.75 1.75 1.86193 1.75 2L1.75 14C1.75 14.1381 1.86193 14.25 2 14.25L3 14.25C3.13807 14.25 3.25 14.1381 3.25 14L3.25 2ZM14 1C14.5523 1 15 1.44772 15 2L15 14C15 14.5523 14.5523 15 14 15L13 15C12.4477 15 12 14.5523 12 14L12 2C12 1.44772 12.4477 1 13 1L14 1ZM8.5 1C9.05228 1 9.5 1.44772 9.5 2L9.5 14C9.5 14.5523 9.05228 15 8.5 15L7.5 15C6.94772 15 6.5 14.5523 6.5 14L6.5 2C6.5 1.44772 6.94772 1 7.5 1L8.5 1ZM4 2C4 1.44771 3.55228 0.999999 3 0.999999L2 0.999999C1.44772 0.999999 1 1.44772 1 2L0.999999 14C0.999999 14.5523 1.44772 15 2 15L3 15C3.55228 15 4 14.5523 4 14L4 2Z" fill="white"/>
</svg>
