<svg width="16" height="16" viewBox="0 0 16 16" fill="none" xmlns="http://www.w3.org/2000/svg">
<path d="M6.71285 6.96011C6.76644 6.68922 6.59028 6.42617 6.31939 6.37258C6.0485 6.31899 5.78545 6.49515 5.73186 6.76604C5.6734 7.06158 5.64282 7.36675 5.64282 7.67857C5.64282 7.99039 5.6734 8.29557 5.73186 8.5911C5.78545 8.862 6.0485 9.03815 6.31939 8.98456C6.59028 8.93097 6.76644 8.66793 6.71285 8.39704C6.66696 8.16507 6.64282 7.92489 6.64282 7.67857C6.64282 7.43226 6.66696 7.19207 6.71285 6.96011Z" fill="white"/>
<path fill-rule="evenodd" clip-rule="evenodd" d="M5.67857 3C3.09467 3 1 5.09467 1 7.67857C1 10.2625 3.09467 12.3571 5.67857 12.3571C8.26247 12.3571 10.3571 10.2625 10.3571 7.67857C10.3571 5.09467 8.26247 3 5.67857 3ZM2 7.67857C2 5.64695 3.64695 4 5.67857 4C6.18274 4 6.66322 4.10143 7.10072 4.28499C6.84943 4.52355 6.62463 4.78974 6.43115 5.07873C6.27753 5.3082 6.33901 5.61875 6.56848 5.77238C6.79794 5.926 7.1085 5.86452 7.26212 5.63505C7.46662 5.32959 7.71569 5.0564 7.99997 4.82483C8.82816 5.49934 9.35714 6.52718 9.35714 7.67857C9.35714 8.82996 8.82816 9.8578 7.99997 10.5323C7.71569 10.3007 7.46662 10.0275 7.26212 9.72209C7.1085 9.49263 6.79794 9.43114 6.56848 9.58477C6.33901 9.73839 6.27753 10.0489 6.43115 10.2784C6.62463 10.5674 6.84944 10.8336 7.10073 11.0722C6.66323 11.2557 6.18274 11.3571 5.67857 11.3571C3.64695 11.3571 2 9.71019 2 7.67857Z" fill="white"/>
<path d="M10.3214 3C10.0096 3 9.7044 3.03057 9.40886 3.08904C9.13797 3.14263 8.96181 3.40568 9.0154 3.67657C9.06899 3.94746 9.33204 4.12362 9.60293 4.07003C9.8349 4.02414 10.0751 4 10.3214 4C10.5677 4 10.8079 4.02414 11.0399 4.07003C11.3107 4.12362 11.5738 3.94746 11.6274 3.67657C11.681 3.40568 11.5048 3.14263 11.2339 3.08904C10.9384 3.03057 10.6332 3 10.3214 3Z" fill="white"/>
<path d="M12.9212 3.78833C12.6918 3.63471 12.3812 3.69619 12.2276 3.92566C12.074 4.15512 12.1354 4.46568 12.3649 4.6193C12.7663 4.88801 13.112 5.23368 13.3807 5.63505C13.5343 5.86452 13.8448 5.926 14.0743 5.77238C14.3038 5.61875 14.3653 5.3082 14.2116 5.07873C13.8702 4.56874 13.4312 4.12976 12.9212 3.78833Z" fill="white"/>
<path d="M14.9109 6.76604C14.8573 6.49515 14.5943 6.31899 14.3234 6.37258C14.0525 6.42617 13.8763 6.68921 13.9299 6.96011C13.9758 7.19207 14 7.43226 14 7.67857C14 7.92489 13.9758 8.16507 13.9299 8.39704C13.8763 8.66793 14.0525 8.93097 14.3234 8.98456C14.5943 9.03815 14.8573 8.862 14.9109 8.5911C14.9694 8.29557 15 7.99039 15 7.67857C15 7.36675 14.9694 7.06158 14.9109 6.76604Z" fill="white"/>
<path d="M14.2116 10.2784C14.3653 10.0489 14.3038 9.73839 14.0743 9.58477C13.8448 9.43114 13.5343 9.49263 13.3807 9.72209C13.112 10.1235 12.7663 10.4691 12.3649 10.7378C12.1354 10.8915 12.074 11.202 12.2276 11.4315C12.3812 11.661 12.6918 11.7224 12.9212 11.5688C13.4312 11.2274 13.8702 10.7884 14.2116 10.2784Z" fill="white"/>
<path d="M9.60293 11.2871C9.33204 11.2335 9.06899 11.4097 9.0154 11.6806C8.96181 11.9515 9.13797 12.2145 9.40886 12.2681C9.7044 12.3266 10.0096 12.3571 10.3214 12.3571C10.6332 12.3571 10.9384 12.3266 11.2339 12.2681C11.5048 12.2145 11.681 11.9515 11.6274 11.6806C11.5738 11.4097 11.3108 11.2335 11.0399 11.2871C10.8079 11.333 10.5677 11.3571 10.3214 11.3571C10.0751 11.3571 9.8349 11.333 9.60293 11.2871Z" fill="white"/>
</svg>
