<svg width="16" height="16" viewBox="0 0 16 16" fill="none" xmlns="http://www.w3.org/2000/svg">
<path d="M7.5 5C7.5 4.72386 7.27614 4.5 7 4.5C6.72386 4.5 6.5 4.72386 6.5 5V6.5H5C4.72386 6.5 4.5 6.72386 4.5 7C4.5 7.27614 4.72386 7.5 5 7.5H6.5V9C6.5 9.27614 6.72386 9.5 7 9.5C7.27614 9.5 7.5 9.27614 7.5 9V7.5H9C9.27614 7.5 9.5 7.27614 9.5 7C9.5 6.72386 9.27614 6.5 9 6.5H7.5V5Z" fill="white"/>
<path fill-rule="evenodd" clip-rule="evenodd" d="M1 2.5C1 1.67157 1.67157 1 2.5 1H11.5C12.3284 1 13 1.67157 13 2.5V3H13.5C14.3284 3 15 3.67157 15 4.5V13.5C15 14.3284 14.3284 15 13.5 15H4.5C3.67157 15 3 14.3284 3 13.5V13H2.5C1.67157 13 1 12.3284 1 11.5V2.5ZM12 2.5V11.5C12 11.7761 11.7761 12 11.5 12H2.5C2.22386 12 2 11.7761 2 11.5V2.5C2 2.22386 2.22386 2 2.5 2H11.5C11.7761 2 12 2.22386 12 2.5ZM11.5 13H4V13.5C4 13.7761 4.22386 14 4.5 14H13.5C13.7761 14 14 13.7761 14 13.5V4.5C14 4.22386 13.7761 4 13.5 4H13V11.5C13 12.3284 12.3284 13 11.5 13Z" fill="white"/>
</svg>
