<svg width="16" height="16" viewBox="0 0 16 16" fill="none" xmlns="http://www.w3.org/2000/svg">
<path fill-rule="evenodd" clip-rule="evenodd" d="M11.0391 1.48982C11.6279 0.901464 12.3648 0.947207 12.8872 1.09801L12.8905 1.09896C13.848 1.38246 14.6134 2.14676 14.8978 3.10368C15.0639 3.65041 15.0895 4.36553 14.5255 4.95739L14.517 4.96622L12.6403 6.84131L12.8072 7.00803C12.901 7.1018 12.9538 7.22904 12.9538 7.36171C12.9538 7.49438 12.901 7.62162 12.8072 7.71539L11.402 9.11949C11.2068 9.31458 10.8904 9.31458 10.6952 9.11949L10.0955 8.52022L5.09602 13.516C4.85519 13.7566 4.53966 13.9082 4.20128 13.9458L3.13215 14.0645L2.59272 14.6035C2.25821 14.9378 1.71529 14.9351 1.3841 14.5975C1.05717 14.2643 1.05982 13.7299 1.39003 13.3999L1.93524 12.8551L2.06087 11.7914C2.10042 11.4564 2.25169 11.1446 2.49025 10.9062L7.49167 5.90852L6.89248 5.30977C6.69752 5.11496 6.69697 4.79913 6.89125 4.60364L8.29639 3.18972C8.3906 3.09492 8.51885 3.04178 8.65251 3.04217C8.78616 3.04257 8.9141 3.09645 9.00775 3.19181L9.17498 3.36206C9.29093 3.24601 9.42947 3.10729 9.5819 2.95456C10.0215 2.51406 10.5761 1.95739 11.0372 1.4917L11.0391 1.48982ZM8.64896 4.25359L8.81512 4.42276C8.90856 4.51789 9.03614 4.57176 9.16949 4.57239C9.30284 4.57301 9.43092 4.52034 9.52525 4.42607L9.74255 4.20879C9.87865 4.07263 10.0697 3.88137 10.2897 3.66094C10.7292 3.22052 11.2845 2.66326 11.7468 2.19638C11.9633 1.98066 12.2475 1.95451 12.6082 2.05831C13.2412 2.24634 13.7521 2.75739 13.9396 3.38975L13.9407 3.39329C14.0486 3.74766 14.0233 4.03196 13.8053 4.26355L11.5796 6.48757C11.4858 6.58135 11.433 6.70864 11.433 6.84131C11.433 6.97398 11.4857 7.10122 11.5796 7.19499L11.7464 7.36171L11.0486 8.05896L10.4489 7.45969C10.2537 7.26461 9.9373 7.26461 9.74206 7.45969L4.38917 12.8086C4.3089 12.8888 4.20372 12.9394 4.09093 12.9519L2.91535 13.0824L3.05397 11.9086C3.06715 11.797 3.11757 11.6931 3.1971 11.6136L8.55246 6.2622C8.64631 6.16842 8.69904 6.04119 8.69904 5.90852C8.69904 5.77585 8.64631 5.64861 8.55246 5.55483L7.95204 4.95486L8.64896 4.25359Z" fill="white"/>
</svg>
