<svg width="16" height="16" viewBox="0 0 16 16" fill="none" xmlns="http://www.w3.org/2000/svg">
<path d="M15 3C15 4.10457 14.1046 5 13 5C11.8954 5 11 4.10457 11 3C11 1.89543 11.8954 1 13 1C14.1046 1 15 1.89543 15 3Z" fill="white"/>
<path d="M3.5 13.75C3.5 14.4404 2.94036 15 2.25 15C1.55964 15 1 14.4404 1 13.75C1 13.0596 1.55964 12.5 2.25 12.5C2.94036 12.5 3.5 13.0596 3.5 13.75Z" fill="white"/>
<path d="M8 11C9.65685 11 11 9.65685 11 8C11 6.34315 9.65685 5 8 5C6.34315 5 5 6.34315 5 8C5 9.65685 6.34315 11 8 11Z" fill="white"/>
</svg>
