<svg width="16" height="16" viewBox="0 0 16 16" fill="none" xmlns="http://www.w3.org/2000/svg">
<path fill-rule="evenodd" clip-rule="evenodd" d="M11.6353 1.12419C11.9831 0.993319 12.3612 0.965174 12.7246 1.04312L12.9144 1.08383C13.403 1.18865 13.851 1.43211 14.2044 1.78494L14.2269 1.80743C14.5959 2.17579 14.8444 2.64719 14.9395 3.15941L14.9663 3.30387C15.0283 3.63783 15.0044 3.98203 14.8968 4.30425C14.7982 4.5998 14.6319 4.86835 14.4113 5.08863L12.6124 6.88452L12.7525 7.02446C12.9394 7.21105 12.9394 7.51357 12.7525 7.70016L11.3168 9.13353C11.1298 9.32012 10.8268 9.32012 10.6399 9.13353L10.0127 8.50733L4.85155 13.6598C4.61538 13.8956 4.30425 14.0418 3.97174 14.0732L3.16229 14.1498C3.05146 14.1603 2.94775 14.209 2.86902 14.2876L2.39472 14.7611C2.07566 15.0796 1.55836 15.0796 1.2393 14.7611C0.920235 14.4426 0.920234 13.9261 1.2393 13.6076L1.70796 13.1397C1.78839 13.0594 1.83755 12.9532 1.84661 12.84L1.9116 12.0282C1.93879 11.6886 2.08625 11.3698 2.32756 11.1289L7.48304 5.98204L6.86427 5.36431C6.67737 5.17772 6.67737 4.8752 6.86427 4.68862L8.30005 3.25525C8.3898 3.16564 8.51153 3.1153 8.63847 3.1153C8.7654 3.1153 8.88713 3.16564 8.97688 3.25524L9.11706 3.39519L10.9494 1.56593C11.144 1.37168 11.3778 1.22109 11.6353 1.12419ZM8.63847 4.26879L7.87952 5.02646L8.49829 5.6442C8.68519 5.83078 8.68519 6.1333 8.49829 6.31989L3.0044 11.8046C2.92396 11.8849 2.87481 11.9911 2.86574 12.1043L2.80076 12.9161C2.79087 13.0396 2.76509 13.1603 2.72467 13.2755C2.83604 13.2358 2.95264 13.2098 3.072 13.1985L3.88145 13.1219C3.99228 13.1114 4.09599 13.0627 4.17472 12.9841L9.67425 7.49379C9.86115 7.3072 10.1642 7.3072 10.3511 7.49379L10.9783 8.11998L11.7373 7.36231L11.5971 7.22237C11.4102 7.03578 11.4102 6.73326 11.5971 6.54667L13.7344 4.41293C13.85 4.29755 13.9371 4.15688 13.9888 4.00207C14.0451 3.83329 14.0577 3.65299 14.0252 3.47806L13.9983 3.3336C13.9385 3.01138 13.7822 2.71485 13.5501 2.48312L13.5276 2.46064C13.3045 2.23792 13.0217 2.08425 12.7133 2.01809L12.5235 1.97737C12.3398 1.93798 12.1487 1.9522 11.9729 2.01835C11.8428 2.06733 11.7246 2.14345 11.6262 2.24163L9.45548 4.40873C9.26857 4.59532 8.96554 4.59532 8.77864 4.40873L8.63847 4.26879Z" fill="white"/>
</svg>
