<svg width="16" height="16" viewBox="0 0 16 16" fill="none" xmlns="http://www.w3.org/2000/svg">
<path d="M2.13518 2.7879C1.95494 2.60765 1.95494 2.31542 2.13518 2.13518C2.31542 1.95494 2.60765 1.95494 2.7879 2.13518L8 7.34729L13.2121 2.13518C13.3923 1.95494 13.6846 1.95494 13.8648 2.13518C14.0451 2.31542 14.0451 2.60765 13.8648 2.7879L8.65271 8L13.8648 13.2121C14.0451 13.3923 14.0451 13.6846 13.8648 13.8648C13.6846 14.0451 13.3923 14.0451 13.2121 13.8648L8 8.65271L2.7879 13.8648C2.60765 14.0451 2.31542 14.0451 2.13518 13.8648C1.95494 13.6846 1.95494 13.3923 2.13518 13.2121L7.34729 8L2.13518 2.7879Z" fill="white"/>
</svg>
