<svg width="16" height="16" viewBox="0 0 16 16" fill="none" xmlns="http://www.w3.org/2000/svg">
<path fill-rule="evenodd" clip-rule="evenodd" d="M1.18639 1.18639C1.4349 0.937871 1.83783 0.937871 2.08634 1.18639L8 7.10005L13.9137 1.18639C14.1622 0.937871 14.5651 0.937871 14.8136 1.18639C15.0621 1.4349 15.0621 1.83783 14.8136 2.08634L8.89995 8L14.8136 13.9137C15.0621 14.1622 15.0621 14.5651 14.8136 14.8136C14.5651 15.0621 14.1622 15.0621 13.9137 14.8136L8 8.89995L2.08634 14.8136C1.83783 15.0621 1.4349 15.0621 1.18639 14.8136C0.937871 14.5651 0.937871 14.1622 1.18639 13.9137L7.10005 8L1.18639 2.08634C0.937871 1.83783 0.937871 1.4349 1.18639 1.18639Z" fill="white"/>
</svg>
