<svg width="16" height="16" viewBox="0 0 16 16" fill="none" xmlns="http://www.w3.org/2000/svg">
<path fill-rule="evenodd" clip-rule="evenodd" d="M5.79447 1.53846C5.79447 1.24108 6.03868 1 6.33992 1H9.66008C9.96132 1 10.2055 1.24108 10.2055 1.53846V2.42971C10.2055 2.72709 9.96132 2.96817 9.66008 2.96817C9.35883 2.96817 9.11462 2.72709 9.11462 2.42971V2.07692H6.88538V2.42971C6.88538 2.72709 6.64117 2.96817 6.33992 2.96817C6.03868 2.96817 5.79447 2.72709 5.79447 2.42971V1.53846ZM2.12782 3.42022C2.23146 3.29844 2.38434 3.22812 2.54546 3.22812H13.4545C13.6157 3.22812 13.7685 3.29844 13.8722 3.42022C13.9758 3.542 14.0196 3.70279 13.9918 3.85946L12.0946 14.5544C12.0489 14.8121 11.8223 15 11.5573 15H4.44269C4.17774 15 3.95111 14.8121 3.90541 14.5544L2.00818 3.85946C1.98039 3.70279 2.02418 3.542 2.12782 3.42022ZM3.19473 4.30504L4.90092 13.9231H11.0991L12.8053 4.30504H3.19473ZM4.87306 5.90361C5.17332 5.87965 5.43641 6.10052 5.46068 6.39694L5.93499 12.19C5.95926 12.4865 5.73552 12.7462 5.43525 12.7701C5.13498 12.7941 4.87189 12.5732 4.84763 12.2768L4.37332 6.4837C4.34905 6.18728 4.57279 5.92757 4.87306 5.90361ZM11.1269 5.90361C11.4272 5.92757 11.651 6.18728 11.6267 6.4837L11.1524 12.2768C11.1281 12.5732 10.865 12.7941 10.5648 12.7701C10.2645 12.7462 10.0407 12.4865 10.065 12.19L10.5393 6.39694C10.5636 6.10052 10.8267 5.87965 11.1269 5.90361ZM8 5.85848C8.30125 5.85848 8.54545 6.09955 8.54545 6.39694V12.19C8.54545 12.4874 8.30125 12.7285 8 12.7285C7.69875 12.7285 7.45455 12.4874 7.45455 12.19V6.39694C7.45455 6.09955 7.69875 5.85848 8 5.85848Z" fill="white"/>
</svg>
