<svg width="16" height="16" viewBox="0 0 16 16" fill="none" xmlns="http://www.w3.org/2000/svg">
<path d="M10.3215 5.38281C10.5977 5.38281 10.8215 5.60667 10.8215 5.88281V11.185C10.8215 11.4611 10.5977 11.685 10.3215 11.685C10.0454 11.685 9.82153 11.4611 9.82153 11.185V5.88281C9.82153 5.60667 10.0454 5.38281 10.3215 5.38281Z" fill="white"/>
<path d="M6.17847 5.88281C6.17847 5.60667 5.95461 5.38281 5.67847 5.38281C5.40232 5.38281 5.17847 5.60667 5.17847 5.88281V11.185C5.17847 11.4611 5.40232 11.685 5.67847 11.685C5.95461 11.685 6.17847 11.4611 6.17847 11.185V5.88281Z" fill="white"/>
<path d="M7.92578 5.38281C8.20192 5.38281 8.42578 5.60667 8.42578 5.88281V11.185C8.42578 11.4611 8.20192 11.685 7.92578 11.685C7.64964 11.685 7.42578 11.4611 7.42578 11.185V5.88281C7.42578 5.60667 7.64964 5.38281 7.92578 5.38281Z" fill="white"/>
<path fill-rule="evenodd" clip-rule="evenodd" d="M6.14282 0.999878C5.86668 0.999878 5.64282 1.22374 5.64282 1.49988V2.51367H2.82472C2.82103 2.51363 2.81734 2.51363 2.81364 2.51367H1.5C1.22386 2.51367 1 2.73753 1 3.01367C1 3.28981 1.22386 3.51367 1.5 3.51367H2.35728L3.14667 13.3145C3.22521 14.2944 4.07757 15.0001 5.03792 15.0001H10.8136C11.7882 15.0001 12.6266 14.2802 12.7049 13.3145L13.4943 3.51367H14.5C14.7761 3.51367 15 3.28981 15 3.01367C15 2.73753 14.7761 2.51367 14.5 2.51367H13.0379C13.0342 2.51363 13.0305 2.51363 13.0268 2.51367H10.3571V1.49988C10.3571 1.22374 10.1333 0.999878 9.85711 0.999878H6.14282ZM9.35711 2.51367V1.99988H6.64282V2.51367H9.35711ZM12.491 3.51367H3.36052L4.14344 13.2342C4.17647 13.6471 4.54978 14.0001 5.03792 14.0001H10.8136C11.3061 14.0001 11.6748 13.6427 11.7081 13.2342L12.491 3.51367Z" fill="white"/>
</svg>
