<svg width="16" height="16" viewBox="0 0 16 16" fill="none" xmlns="http://www.w3.org/2000/svg">
<path d="M2.85718 4.05356C2.85718 3.77742 3.08104 3.55356 3.35718 3.55356H6.14289C6.41903 3.55356 6.64289 3.77742 6.64289 4.05356C6.64289 4.3297 6.41903 4.55356 6.14289 4.55356H3.85718V5.9107C3.85718 6.18684 3.63332 6.4107 3.35718 6.4107C3.08104 6.4107 2.85718 6.18684 2.85718 5.9107V4.05356Z" fill="white"/>
<path fill-rule="evenodd" clip-rule="evenodd" d="M1 2.19641C1 1.92027 1.22386 1.69641 1.5 1.69641H14.5C14.7761 1.69641 15 1.92027 15 2.19641V11.4821C15 11.7583 14.7761 11.9821 14.5 11.9821H8.49993V13.3035H11.7142C11.9904 13.3035 12.2142 13.5274 12.2142 13.8035C12.2142 14.0797 11.9904 14.3035 11.7142 14.3035H4.28564C4.0095 14.3035 3.78564 14.0797 3.78564 13.8035C3.78564 13.5274 4.0095 13.3035 4.28564 13.3035H7.49993V11.9821H1.5C1.22386 11.9821 1 11.7583 1 11.4821V2.19641ZM8.00289 10.9821L7.99993 10.9821L7.99697 10.9821H2V2.69641H14V10.9821H8.00289Z" fill="white"/>
</svg>
