<svg width="16" height="16" viewBox="0 0 16 16" fill="none" xmlns="http://www.w3.org/2000/svg">
<path d="M8.35355 1.27145C8.15829 1.07618 7.84171 1.07618 7.64645 1.27145L3.14645 5.77145C2.95118 5.96671 2.95118 6.28329 3.14645 6.47855C3.34171 6.67382 3.65829 6.67382 3.85355 6.47855L8 2.33211L12.1464 6.47855C12.3417 6.67382 12.6583 6.67382 12.8536 6.47855C13.0488 6.28329 13.0488 5.96671 12.8536 5.77145L8.35355 1.27145Z" fill="white"/>
<path d="M3.14645 10.2286L7.64645 14.7286C7.84171 14.9238 8.15829 14.9238 8.35355 14.7286L12.8536 10.2286C13.0488 10.0333 13.0488 9.71671 12.8536 9.52145C12.6583 9.32618 12.3417 9.32618 12.1464 9.52145L8 13.6679L3.85355 9.52145C3.65829 9.32618 3.34171 9.32618 3.14645 9.52145C2.95118 9.71671 2.95118 10.0333 3.14645 10.2286Z" fill="white"/>
</svg>
