<svg width="16" height="16" viewBox="0 0 16 16" fill="none" xmlns="http://www.w3.org/2000/svg">
<g clip-path="url(#clip0)">
<path fill-rule="evenodd" clip-rule="evenodd" d="M14.8423 7.60716C15.0526 7.82412 15.0526 8.17588 14.8423 8.39284L10.5346 12.8373C10.3243 13.0542 9.98338 13.0542 9.7731 12.8373C9.56281 12.6203 9.56281 12.2686 9.7731 12.0516L13.7 8L9.7731 3.94839C9.56281 3.73143 9.56281 3.37968 9.7731 3.16272C9.98338 2.94576 10.3243 2.94576 10.5346 3.16272L14.8423 7.60716ZM6.2269 3.16272C6.43719 3.37968 6.43719 3.73143 6.2269 3.94839L2.29996 8L6.2269 12.0516C6.43718 12.2686 6.43718 12.6203 6.2269 12.8373C6.01662 13.0542 5.67569 13.0542 5.4654 12.8373L1.15771 8.39284C1.05673 8.28865 0.999999 8.14734 0.999999 8C0.999999 7.85266 1.05673 7.71135 1.15771 7.60716L5.4654 3.16272C5.67569 2.94576 6.01662 2.94576 6.2269 3.16272Z" fill="#0091E4"/>
</g>
<defs>
<clipPath id="clip0">
<rect width="16" height="16" fill="white" transform="translate(16) rotate(90)"/>
</clipPath>
</defs>
</svg>
