<svg width="16" height="16" viewBox="0 0 16 16" fill="none" xmlns="http://www.w3.org/2000/svg">
<path d="M1.27145 7.64645C1.07618 7.84171 1.07618 8.15829 1.27145 8.35355L5.77145 12.8536C5.96671 13.0488 6.28329 13.0488 6.47855 12.8536C6.67382 12.6583 6.67382 12.3417 6.47855 12.1464L2.33211 8L6.47855 3.85355C6.67382 3.65829 6.67382 3.34171 6.47855 3.14645C6.28329 2.95118 5.96671 2.95118 5.77145 3.14645L1.27145 7.64645Z" fill="white"/>
<path d="M10.2286 12.8536L14.7286 8.35355C14.9238 8.15829 14.9238 7.84171 14.7286 7.64645L10.2286 3.14645C10.0333 2.95118 9.71671 2.95118 9.52145 3.14645C9.32618 3.34171 9.32618 3.65829 9.52145 3.85355L13.6679 8L9.52145 12.1464C9.32618 12.3417 9.32618 12.6583 9.52145 12.8536C9.71671 13.0488 10.0333 13.0488 10.2286 12.8536Z" fill="white"/>
</svg>
