<svg width="16" height="16" viewBox="0 0 16 16" fill="none" xmlns="http://www.w3.org/2000/svg">
<path d="M9.76771 8.51284L8.49999 9.78057L8.49999 1.55957C8.49999 1.28343 8.27614 1.05957 7.99999 1.05957C7.72385 1.05957 7.49999 1.28343 7.49999 1.55957L7.49999 9.78064L6.2322 8.51284C6.03693 8.31757 5.72035 8.31757 5.52509 8.51284C5.32983 8.7081 5.32983 9.02468 5.52509 9.21995L7.6464 11.3413C7.84166 11.5365 8.15825 11.5365 8.35351 11.3413L10.4748 9.21995C10.6701 9.02468 10.6701 8.7081 10.4748 8.51284C10.2796 8.31757 9.96298 8.31757 9.76771 8.51284Z" fill="white"/>
<path d="M2 10.4402C2 10.164 1.77614 9.94018 1.5 9.94018C1.22386 9.94018 1 10.164 1 10.4402V14.4404C1 14.7165 1.22386 14.9404 1.5 14.9404H14.5C14.7761 14.9404 15 14.7165 15 14.4404V10.4402C15 10.164 14.7761 9.94018 14.5 9.94018C14.2239 9.94018 14 10.164 14 10.4402V13.9404H2V10.4402Z" fill="white"/>
</svg>
