<svg width="16" height="16" viewBox="0 0 16 16" fill="none" xmlns="http://www.w3.org/2000/svg">
<path fill-rule="evenodd" clip-rule="evenodd" d="M7.60716 1.15771C7.82412 0.947429 8.17588 0.947429 8.39284 1.15771L12.8373 5.4654C13.0542 5.67569 13.0542 6.01662 12.8373 6.2269C12.6203 6.43719 12.2686 6.43719 12.0516 6.2269L8 2.29996L3.94839 6.2269C3.73143 6.43719 3.37968 6.43719 3.16272 6.2269C2.94576 6.01662 2.94576 5.67569 3.16272 5.4654L7.60716 1.15771ZM3.16272 9.7731C3.37968 9.56281 3.73144 9.56281 3.94839 9.7731L8 13.7L12.0516 9.7731C12.2686 9.56281 12.6203 9.56281 12.8373 9.7731C13.0542 9.98338 13.0542 10.3243 12.8373 10.5346L8.39284 14.8423C8.28865 14.9433 8.14734 15 8 15C7.85266 15 7.71135 14.9433 7.60716 14.8423L3.16272 10.5346C2.94576 10.3243 2.94576 9.98338 3.16272 9.7731Z" fill="#0091E4"/>
</svg>
