<svg width="16" height="16" viewBox="0 0 16 16" fill="none" xmlns="http://www.w3.org/2000/svg">
<path d="M3.18506 4.37036C2.90892 4.37036 2.68506 4.59422 2.68506 4.87036C2.68506 5.1465 2.90892 5.37036 3.18506 5.37036H4.6295C4.90565 5.37036 5.1295 5.1465 5.1295 4.87036C5.1295 4.59422 4.90565 4.37036 4.6295 4.37036H3.18506Z" fill="white"/>
<path d="M2.68506 6.7963C2.68506 6.52015 2.90892 6.2963 3.18506 6.2963H6.55543C6.83157 6.2963 7.05543 6.52015 7.05543 6.7963C7.05543 7.07244 6.83157 7.2963 6.55543 7.2963H3.18506C2.90892 7.2963 2.68506 7.07244 2.68506 6.7963Z" fill="white"/>
<path d="M3.18506 8.22223C2.90892 8.22223 2.68506 8.44609 2.68506 8.72223C2.68506 8.99837 2.90892 9.22223 3.18506 9.22223H6.55543C6.83157 9.22223 7.05543 8.99837 7.05543 8.72223C7.05543 8.44609 6.83157 8.22223 6.55543 8.22223H3.18506Z" fill="white"/>
<path fill-rule="evenodd" clip-rule="evenodd" d="M1.74072 1C1.46458 1 1.24072 1.22386 1.24072 1.5V13.537C1.24072 13.8132 1.46458 14.037 1.74072 14.037H5.36585C5.75396 14.037 6.13675 14.1274 6.48389 14.301L7.77638 14.9472C7.91714 15.0176 8.08283 15.0176 8.22359 14.9472L9.51608 14.301C9.86322 14.1274 10.246 14.037 10.6341 14.037H14.2592C14.5354 14.037 14.7592 13.8132 14.7592 13.537V1.5C14.7592 1.22386 14.5354 1 14.2592 1H10.6341C10.0908 1 9.55486 1.12651 9.06886 1.3695L7.99998 1.90395L6.9311 1.3695C6.44511 1.12651 5.90921 1 5.36585 1H1.74072ZM6.48389 2.26393L7.49998 2.77198V13.691L6.9311 13.4065C6.44511 13.1635 5.90921 13.037 5.36585 13.037H2.24072V2H5.36585C5.75397 2 6.13675 2.09036 6.48389 2.26393ZM9.06886 13.4065L8.49998 13.691V2.77198L9.51608 2.26393C9.86322 2.09036 10.246 2 10.6341 2H13.7592V13.037H10.6341C10.0908 13.037 9.55486 13.1635 9.06886 13.4065Z" fill="white"/>
</svg>
