<svg width="16" height="16" viewBox="0 0 16 16" fill="none" xmlns="http://www.w3.org/2000/svg">
<path fill-rule="evenodd" clip-rule="evenodd" d="M1 1.5C1 1.22386 1.22386 1 1.5 1H5.60778C6.19343 1 6.77018 1.14205 7.29215 1.41384L8 1.78243L8.70785 1.41384C9.22982 1.14205 9.80657 1 10.3922 1H14.5C14.7761 1 15 1.22386 15 1.5V13.6538C15 13.93 14.7761 14.1538 14.5 14.1538H10.3922C9.96878 14.1538 9.5503 14.2565 9.1697 14.4546L8.23092 14.9435C8.0862 15.0188 7.9138 15.0188 7.76908 14.9435L6.8303 14.4546C6.4497 14.2565 6.03122 14.1538 5.60778 14.1538H1.5C1.22386 14.1538 1 13.93 1 13.6538V1.5ZM7.5 2.64952L6.8303 2.3008C6.4497 2.10262 6.03122 2 5.60778 2H2V13.1538H5.60778C6.19343 13.1538 6.77018 13.2959 7.29215 13.5677L7.5 13.6759V2.64952ZM8.5 13.6759L8.70785 13.5677C9.22982 13.2959 9.80657 13.1538 10.3922 13.1538H14V2H10.3922C9.96878 2 9.5503 2.10262 9.1697 2.3008L8.5 2.64952V13.6759ZM2.5 4.61538C2.5 4.33924 2.72386 4.11538 3 4.11538H4.75C5.02614 4.11538 5.25 4.33924 5.25 4.61538C5.25 4.89153 5.02614 5.11538 4.75 5.11538H3C2.72386 5.11538 2.5 4.89153 2.5 4.61538ZM2.5 6.73077C2.5 6.45463 2.72386 6.23077 3 6.23077H6.3303C6.60644 6.23077 6.8303 6.45463 6.8303 6.73077C6.8303 7.00691 6.60644 7.23077 6.3303 7.23077H3C2.72386 7.23077 2.5 7.00691 2.5 6.73077ZM2.5 8.81123C2.5 8.53509 2.72386 8.31123 3 8.31123H6.3303C6.60644 8.31123 6.8303 8.53509 6.8303 8.81123C6.8303 9.08737 6.60644 9.31123 6.3303 9.31123H3C2.72386 9.31123 2.5 9.08737 2.5 8.81123Z" fill="white"/>
</svg>
