<svg width="16" height="16" viewBox="0 0 16 16" fill="none" xmlns="http://www.w3.org/2000/svg">
<path fill-rule="evenodd" clip-rule="evenodd" d="M8 1C8.33987 1 8.61539 1.28491 8.61539 1.63637V10.2815L10.0264 8.82247C10.2667 8.57395 10.6564 8.57397 10.8967 8.82249C11.137 9.07101 11.137 9.47394 10.8967 9.72246L8.43513 12.2678C8.19481 12.5163 7.80519 12.5163 7.56487 12.2678L5.10333 9.72246C4.863 9.47394 4.86299 9.07101 5.10331 8.82249C5.34363 8.57397 5.73326 8.57395 5.97359 8.82247L7.38462 10.2815V1.63637C7.38462 1.28491 7.66013 1 8 1ZM1.61538 9.90921C1.95525 9.90921 2.23077 10.1941 2.23077 10.5456V13.7273H13.7692V10.5456C13.7692 10.1941 14.0447 9.90921 14.3846 9.90921C14.7245 9.90921 15 10.1941 15 10.5456V14.3636C15 14.7151 14.7245 15 14.3846 15H1.61538C1.27552 15 1 14.7151 1 14.3636V10.5456C1 10.1941 1.27552 9.90921 1.61538 9.90921Z" fill="#0091E4"/>
</svg>
