<svg width="16" height="16" viewBox="0 0 16 16" fill="none" xmlns="http://www.w3.org/2000/svg">
<path d="M4.75 6.25C5.44036 6.25 6 5.69036 6 5C6 4.30964 5.44036 3.75 4.75 3.75C4.05964 3.75 3.5 4.30964 3.5 5C3.5 5.69036 4.05964 6.25 4.75 6.25Z" fill="white"/>
<path d="M4.75 12.25C5.44036 12.25 6 11.6904 6 11C6 10.3096 5.44036 9.75 4.75 9.75C4.05964 9.75 3.5 10.3096 3.5 11C3.5 11.6904 4.05964 12.25 4.75 12.25Z" fill="white"/>
<path d="M12.5 5C12.5 5.69036 11.9404 6.25 11.25 6.25C10.5596 6.25 10 5.69036 10 5C10 4.30964 10.5596 3.75 11.25 3.75C11.9404 3.75 12.5 4.30964 12.5 5Z" fill="white"/>
<path d="M11.25 12.25C11.9404 12.25 12.5 11.6904 12.5 11C12.5 10.3096 11.9404 9.75 11.25 9.75C10.5596 9.75 10 10.3096 10 11C10 11.6904 10.5596 12.25 11.25 12.25Z" fill="white"/>
</svg>
