<svg width="16" height="16" viewBox="0 0 16 16" fill="none" xmlns="http://www.w3.org/2000/svg">
<path fill-rule="evenodd" clip-rule="evenodd" d="M8 1C8.2249 1 8.43463 1.10824 8.5578 1.28785L13.8911 9.06563C13.9622 9.16922 14 9.29034 14 9.41414C14 12.5159 11.2959 15 8 15C4.70412 15 2 12.5159 2 9.41414C2 9.29034 2.03783 9.16922 2.10887 9.06563L7.4422 1.28785C7.56537 1.10824 7.7751 1 8 1ZM3.33751 9.5978C3.44143 11.8794 5.47233 13.7273 8 13.7273C10.5277 13.7273 12.5586 11.8794 12.6625 9.5978L8 2.79833L3.33751 9.5978Z" fill="#0091E4"/>
</svg>
