<svg width="16" height="16" viewBox="0 0 16 16" fill="none" xmlns="http://www.w3.org/2000/svg">
<path d="M5.0063 12.1638C4.84293 12.1638 4.69003 12.135 4.54761 12.0773C4.40099 12.0156 4.27532 11.9333 4.1706 11.8304C4.06169 11.7234 3.97791 11.5999 3.91926 11.46C3.85643 11.32 3.82501 11.1698 3.82501 11.0093C3.82501 10.8446 3.85643 10.6923 3.91926 10.5524C3.97791 10.4083 4.06169 10.2849 4.1706 10.182C4.27532 10.075 4.40099 9.99057 4.54761 9.92883C4.69003 9.8671 4.84293 9.83623 5.0063 9.83623C5.16966 9.83623 5.32256 9.8671 5.46499 9.92883C5.60322 9.99057 5.7268 10.075 5.83571 10.182C5.94043 10.2849 6.02421 10.4083 6.08704 10.5524C6.14569 10.6923 6.17501 10.8446 6.17501 11.0093C6.17501 11.1698 6.14569 11.32 6.08704 11.46C6.02421 11.5999 5.94043 11.7234 5.83571 11.8304C5.7268 11.9333 5.60322 12.0156 5.46499 12.0773C5.32256 12.135 5.16966 12.1638 5.0063 12.1638Z" fill="white"/>
<path d="M5.0063 6.32755C4.84293 6.32755 4.69003 6.29874 4.54761 6.24111C4.40099 6.17937 4.27532 6.09705 4.1706 5.99416C4.06169 5.88714 3.97791 5.76367 3.91926 5.62373C3.85643 5.48379 3.82501 5.33356 3.82501 5.17303C3.82501 5.0084 3.85643 4.85611 3.91926 4.71617C3.97791 4.57211 4.06169 4.44864 4.1706 4.34574C4.27532 4.23872 4.40099 4.15435 4.54761 4.09261C4.69003 4.03087 4.84293 4 5.0063 4C5.16966 4 5.32256 4.03087 5.46499 4.09261C5.60322 4.15435 5.7268 4.23872 5.83571 4.34574C5.94043 4.44864 6.02421 4.57211 6.08704 4.71617C6.14569 4.85611 6.17501 5.0084 6.17501 5.17303C6.17501 5.33356 6.14569 5.48379 6.08704 5.62373C6.02421 5.76367 5.94043 5.88714 5.83571 5.99416C5.7268 6.09705 5.60322 6.17937 5.46499 6.24111C5.32256 6.29874 5.16966 6.32755 5.0063 6.32755Z" fill="white"/>
<path d="M11.0063 12.1638C10.8429 12.1638 10.69 12.135 10.5476 12.0773C10.401 12.0156 10.2753 11.9333 10.1706 11.8304C10.0617 11.7234 9.97791 11.5999 9.91926 11.46C9.85643 11.32 9.82501 11.1698 9.82501 11.0093C9.82501 10.8446 9.85643 10.6923 9.91926 10.5524C9.97791 10.4083 10.0617 10.2849 10.1706 10.182C10.2753 10.075 10.401 9.99057 10.5476 9.92883C10.69 9.8671 10.8429 9.83623 11.0063 9.83623C11.1697 9.83623 11.3226 9.8671 11.465 9.92883C11.6032 9.99057 11.7268 10.075 11.8357 10.182C11.9404 10.2849 12.0242 10.4083 12.087 10.5524C12.1457 10.6923 12.175 10.8446 12.175 11.0093C12.175 11.1698 12.1457 11.32 12.087 11.46C12.0242 11.5999 11.9404 11.7234 11.8357 11.8304C11.7268 11.9333 11.6032 12.0156 11.465 12.0773C11.3226 12.135 11.1697 12.1638 11.0063 12.1638Z" fill="white"/>
<path d="M11.0063 6.32755C10.8429 6.32755 10.69 6.29874 10.5476 6.24111C10.401 6.17937 10.2753 6.09705 10.1706 5.99416C10.0617 5.88714 9.97791 5.76367 9.91926 5.62373C9.85643 5.48379 9.82501 5.33356 9.82501 5.17303C9.82501 5.0084 9.85643 4.85611 9.91926 4.71617C9.97791 4.57211 10.0617 4.44864 10.1706 4.34574C10.2753 4.23872 10.401 4.15435 10.5476 4.09261C10.69 4.03087 10.8429 4 11.0063 4C11.1697 4 11.3226 4.03087 11.465 4.09261C11.6032 4.15435 11.7268 4.23872 11.8357 4.34574C11.9404 4.44864 12.0242 4.57211 12.087 4.71617C12.1457 4.85611 12.175 5.0084 12.175 5.17303C12.175 5.33356 12.1457 5.48379 12.087 5.62373C12.0242 5.76367 11.9404 5.88714 11.8357 5.99416C11.7268 6.09705 11.6032 6.17937 11.465 6.24111C11.3226 6.29874 11.1697 6.32755 11.0063 6.32755Z" fill="white"/>
</svg>
