<svg width="16" height="16" viewBox="0 0 16 16" fill="none" xmlns="http://www.w3.org/2000/svg">
<path fill-rule="evenodd" clip-rule="evenodd" d="M8 1.25C8.16718 1.25 8.32329 1.33355 8.41603 1.47265L13.416 8.97265C13.4794 9.06768 13.5083 9.18153 13.4979 9.29527C13.4157 10.1999 13.0505 11.5433 12.2077 12.6738C11.3505 13.8238 9.99759 14.75 8 14.75C6.00241 14.75 4.64954 13.8238 3.79231 12.6738C2.94952 11.5433 2.58429 10.1999 2.50205 9.29527C2.49171 9.18153 2.52062 9.06768 2.58398 8.97265L7.58398 1.47265C7.67671 1.33355 7.83282 1.25 8 1.25ZM3.51691 9.37602C3.61507 10.133 3.93518 11.1923 4.59406 12.0762C5.28985 13.0096 6.36123 13.75 8 13.75C9.63877 13.75 10.7102 13.0096 11.4059 12.0762C12.0648 11.1923 12.3849 10.133 12.4831 9.37602L8 2.65139L3.51691 9.37602Z" fill="white"/>
</svg>
