<svg width="16" height="16" viewBox="0 0 16 16" fill="none" xmlns="http://www.w3.org/2000/svg">
<path fill-rule="evenodd" clip-rule="evenodd" d="M1 2.5C1 1.67157 1.67157 1 2.5 1H11.5C12.3284 1 13 1.67157 13 2.5V3.01575C13.04 3.00547 13.0818 3 13.125 3H13.5C14.3284 3 15 3.67157 15 4.5V13.5C15 14.3284 14.3284 15 13.5 15H4.5C3.67157 15 3 14.3284 3 13.5V13.125C3 13.0818 3.00547 13.04 3.01575 13H2.5C1.67157 13 1 12.3284 1 11.5V2.5ZM3.98425 13C3.99453 13.04 4 13.0818 4 13.125V13.5C4 13.7761 4.22386 14 4.5 14H13.5C13.7761 14 14 13.7761 14 13.5V4.5C14 4.22386 13.7761 4 13.5 4H13.125C13.0818 4 13.04 3.99453 13 3.98425V11.5C13 12.3284 12.3284 13 11.5 13H3.98425ZM2.5 2C2.22386 2 2 2.22386 2 2.5V11.5C2 11.7761 2.22386 12 2.5 12H11.5C11.7761 12 12 11.7761 12 11.5V2.5C12 2.22386 11.7761 2 11.5 2H2.5Z" fill="white"/>
</svg>
