<svg width="16" height="16" viewBox="0 0 16 16" fill="none" xmlns="http://www.w3.org/2000/svg">
<path fill-rule="evenodd" clip-rule="evenodd" d="M2.5 1C1.67157 1 1 1.67157 1 2.5V11.5C1 12.3284 1.67157 13 2.5 13H3V13.5C3 14.3284 3.67157 15 4.5 15H13.5C14.3284 15 15 14.3284 15 13.5V4.5C15 3.67157 14.3284 3 13.5 3H13V2.5C13 1.67157 12.3284 1 11.5 1H2.5ZM12 2.5C12 2.22386 11.7761 2 11.5 2H2.5C2.22386 2 2 2.22386 2 2.5V11.5C2 11.7761 2.22386 12 2.5 12H11.5C11.7761 12 12 11.7761 12 11.5V2.5ZM4 13H11.5C12.3284 13 13 12.3284 13 11.5V4H13.5C13.7761 4 14 4.22386 14 4.5V13.5C14 13.7761 13.7761 14 13.5 14H4.5C4.22386 14 4 13.7761 4 13.5V13Z" fill="white"/>
</svg>
