<svg width="16" height="16" viewBox="0 0 16 16" fill="none" xmlns="http://www.w3.org/2000/svg">
<path fill-rule="evenodd" clip-rule="evenodd" d="M0.875 2.5C0.875 1.60254 1.60254 0.875 2.5 0.875H7C7.34518 0.875 7.625 1.15482 7.625 1.5C7.625 1.84518 7.34518 2.125 7 2.125H2.5C2.29289 2.125 2.125 2.29289 2.125 2.5V13.5C2.125 13.7071 2.29289 13.875 2.5 13.875H13.5C13.7071 13.875 13.875 13.7071 13.875 13.5V9C13.875 8.65482 14.1548 8.375 14.5 8.375C14.8452 8.375 15.125 8.65482 15.125 9V13.5C15.125 14.3975 14.3975 15.125 13.5 15.125H2.5C1.60254 15.125 0.875 14.3975 0.875 13.5V2.5Z" fill="white"/>
<path fill-rule="evenodd" clip-rule="evenodd" d="M12.8964 1.14645C13.0917 0.951185 13.4083 0.951185 13.6036 1.14645L14.8536 2.39644C15.0488 2.59171 15.0488 2.90829 14.8536 3.10355L7.35356 10.6035C7.31556 10.6415 7.27168 10.6732 7.22362 10.6972L4.72362 11.9472C4.53113 12.0434 4.29864 12.0057 4.14646 11.8535C3.99428 11.7014 3.95655 11.4689 4.0528 11.2764L5.3028 8.77638C5.32683 8.72832 5.35846 8.68444 5.39646 8.64644L12.8964 1.14645ZM6.16094 9.29617L5.61805 10.382L6.70383 9.83906L13.7929 2.75L13.25 2.20711L6.16094 9.29617Z" fill="white"/>
</svg>
