<svg width="16" height="16" viewBox="0 0 16 16" fill="none" xmlns="http://www.w3.org/2000/svg">
<path d="M2.5 1C1.67157 1 1 1.67157 1 2.5V13.5C1 14.3284 1.67157 15 2.5 15H13.5C14.3284 15 15 14.3284 15 13.5V9C15 8.72386 14.7761 8.5 14.5 8.5C14.2239 8.5 14 8.72386 14 9V13.5C14 13.7761 13.7761 14 13.5 14H2.5C2.22386 14 2 13.7761 2 13.5V2.5C2 2.22386 2.22386 2 2.5 2H7C7.27614 2 7.5 1.77614 7.5 1.5C7.5 1.22386 7.27614 1 7 1H2.5Z" fill="white"/>
<path fill-rule="evenodd" clip-rule="evenodd" d="M12.8536 1.64646C12.6583 1.4512 12.3417 1.4512 12.1464 1.64646L4.81078 8.98212C4.7658 9.0271 4.72982 9.08025 4.70476 9.13872L3.70445 11.4728C3.62391 11.6607 3.6659 11.8787 3.81047 12.0233C3.95504 12.1679 4.17306 12.2099 4.36098 12.1293L6.69505 11.129C6.75352 11.104 6.80667 11.068 6.85165 11.023L14.1873 3.68732C14.3826 3.49206 14.3826 3.17548 14.1873 2.98022L12.8536 1.64646ZM5.58598 9.62114L12.5 2.70712L13.1266 3.33377L6.21263 10.2478L5.11599 10.7178L5.58598 9.62114Z" fill="white"/>
</svg>
