<svg width="16" height="16" viewBox="0 0 16 16" fill="none" xmlns="http://www.w3.org/2000/svg">
<path fill-rule="evenodd" clip-rule="evenodd" d="M5.52256 5.52256C5.7193 5.32581 6.03828 5.32581 6.23502 5.52256L8 7.28754L9.76498 5.52256C9.96172 5.32581 10.2807 5.32581 10.4774 5.52256C10.6742 5.7193 10.6742 6.03828 10.4774 6.23502L8.71246 8L10.4774 9.76498C10.6742 9.96172 10.6742 10.2807 10.4774 10.4774C10.2807 10.6742 9.96172 10.6742 9.76498 10.4774L8 8.71246L6.23502 10.4774C6.03828 10.6742 5.7193 10.6742 5.52256 10.4774C5.32582 10.2807 5.32581 9.96172 5.52256 9.76498L7.28754 8L5.52256 6.23502C5.32581 6.03828 5.32581 5.7193 5.52256 5.52256ZM7.99156 7.99156C7.99172 7.99719 7.99172 8.00281 7.99156 8.00844C7.99437 8.00836 7.99718 8.00832 8 8.00832C8.00282 8.00832 8.00563 8.00836 8.00844 8.00844C8.00836 8.00563 8.00832 8.00282 8.00832 8C8.00832 7.99718 8.00836 7.99437 8.00844 7.99156C8.00281 7.99172 7.99719 7.99172 7.99156 7.99156Z" fill="#B83939"/>
<path fill-rule="evenodd" clip-rule="evenodd" d="M8 2C4.90721 2 2 4.90721 2 8C2 11.0928 4.90721 14 8 14C11.0928 14 14 11.0928 14 8C14 4.90721 11.0928 2 8 2ZM1 8C1 4.13401 4.13401 1 8 1C11.866 1 15 4.13401 15 8C15 11.866 11.866 15 8 15C4.13401 15 1 11.866 1 8Z" fill="#B83939"/>
</svg>
