<svg width="16" height="16" viewBox="0 0 16 16" fill="none" xmlns="http://www.w3.org/2000/svg">
<path fill-rule="evenodd" clip-rule="evenodd" d="M8 15C11.866 15 15 11.866 15 8C15 4.13401 11.866 1 8 1C4.13401 1 1 4.13401 1 8C1 11.866 4.13401 15 8 15ZM5.19554 10.75C5.49806 11.7939 6.01516 12.8491 6.80867 13.8817C5.0013 13.5176 3.48799 12.3413 2.66591 10.75H5.19554ZM6.24244 10.75C6.57405 11.7513 7.13544 12.7655 8 13.759C8.86456 12.7655 9.42595 11.7513 9.75756 10.75H6.24244ZM10.0161 9.75H5.98391C5.8081 8.81519 5.81566 7.90196 5.9446 7.03869C5.9846 6.77091 6.03635 6.5077 6.0981 6.25H9.9019C9.96365 6.5077 10.0154 6.77091 10.0554 7.03869C10.1843 7.90196 10.1919 8.81519 10.0161 9.75ZM10.8045 10.75C10.5019 11.7939 9.98484 12.8491 9.19133 13.8817C10.9987 13.5176 12.512 12.3413 13.3341 10.75H10.8045ZM13.7408 9.75H11.0314C11.1943 8.76713 11.1809 7.80437 11.0444 6.89096C11.0121 6.67429 10.9728 6.46051 10.9274 6.25H13.7408C13.9093 6.80365 14 7.39124 14 8C14 8.60876 13.9093 9.19635 13.7408 9.75ZM4.96862 9.75H2.25922C2.09066 9.19635 2 8.60876 2 8C2 7.39124 2.09066 6.80365 2.25922 6.25H5.07257C5.02718 6.46051 4.98794 6.67429 4.95557 6.89096C4.81914 7.80437 4.80574 8.76713 4.96862 9.75ZM5.33964 5.25H2.66591C3.50104 3.6334 5.0495 2.44513 6.89493 2.10155C6.3057 2.94884 5.7295 4.02655 5.33964 5.25ZM8 2.28428C7.41897 3.03759 6.81412 4.0625 6.3945 5.25H9.6055C9.18588 4.0625 8.58103 3.03759 8 2.28428ZM10.6604 5.25H13.3341C12.499 3.6334 10.9505 2.44513 9.10507 2.10155C9.6943 2.94884 10.2705 4.02655 10.6604 5.25Z" fill="white"/>
</svg>
