<svg width="16" height="16" viewBox="0 0 16 16" fill="none" xmlns="http://www.w3.org/2000/svg">
<path fill-rule="evenodd" clip-rule="evenodd" d="M2.93015 6.47059C2.78428 6.9548 2.70588 7.46824 2.70588 8C2.70588 8.53176 2.78428 9.0452 2.93015 9.52941H5.44835C5.337 8.95933 5.29412 8.43688 5.29412 8C5.29412 7.56312 5.337 7.04067 5.44835 6.47059H2.93015ZM3.19953 5.76471H5.61684C5.88999 4.79899 6.36557 3.74989 7.14908 2.77391C5.39369 3.05753 3.92738 4.20425 3.19953 5.76471ZM8 2.86426C7.15834 3.79032 6.64745 4.81502 6.35292 5.76471H9.64708C9.35255 4.81502 8.84166 3.79032 8 2.86426ZM9.83142 6.47059H6.16858C6.04637 7.04353 6 7.56825 6 8C6 8.43175 6.04637 8.95647 6.16858 9.52941H9.83142C9.95363 8.95647 10 8.43175 10 8C10 7.56825 9.95363 7.04353 9.83142 6.47059ZM10.5517 9.52941C10.663 8.95933 10.7059 8.43688 10.7059 8C10.7059 7.56312 10.663 7.04067 10.5517 6.47059H13.0698C13.2157 6.9548 13.2941 7.46824 13.2941 8C13.2941 8.53176 13.2157 9.0452 13.0698 9.52941H10.5517ZM9.64708 10.2353H6.35292C6.64745 11.185 7.15834 12.2097 8 13.1357C8.84165 12.2097 9.35255 11.185 9.64708 10.2353ZM7.14908 13.2261C6.36558 12.2501 5.88999 11.201 5.61684 10.2353H3.19953C3.92738 11.7957 5.39369 12.9425 7.14908 13.2261ZM8.85093 13.2261C9.63443 12.2501 10.11 11.201 10.3832 10.2353H12.8005C12.0726 11.7957 10.6063 12.9425 8.85093 13.2261ZM12.8005 5.76471H10.3832C10.11 4.79899 9.63443 3.74989 8.85092 2.77391C10.6063 3.05753 12.0726 4.20425 12.8005 5.76471ZM2 8C2 4.68629 4.68629 2 8 2C11.3137 2 14 4.68629 14 8C14 11.3137 11.3137 14 8 14C4.68629 14 2 11.3137 2 8Z" fill="white"/>
</svg>
