<svg width="16" height="16" viewBox="0 0 16 16" fill="none" xmlns="http://www.w3.org/2000/svg">
<path fill-rule="evenodd" clip-rule="evenodd" d="M1 2.5C1 1.67157 1.67157 1 2.5 1H9.5C10.3284 1 11 1.67157 11 2.5V5H13.5C14.3284 5 15 5.67157 15 6.5V13.5C15 14.3284 14.3284 15 13.5 15H6.5C5.67157 15 5 14.3284 5 13.5V11H2.5C1.67157 11 1 10.3284 1 9.5V2.5ZM6 11V13.5C6 13.7761 6.22386 14 6.5 14H13.5C13.7761 14 14 13.7761 14 13.5V6.5C14 6.22386 13.7761 6 13.5 6H11V9.5C11 10.3284 10.3284 11 9.5 11H6ZM10 6V9.5C10 9.77614 9.77614 10 9.5 10H6V6.5C6 6.22386 6.22386 6 6.5 6H10ZM10 5H6.5C5.67157 5 5 5.67157 5 6.5V10H2.5C2.22386 10 2 9.77614 2 9.5V2.5C2 2.22386 2.22386 2 2.5 2H9.5C9.77614 2 10 2.22386 10 2.5V5Z" fill="white"/>
</svg>
