<svg width="16" height="16" viewBox="0 0 16 16" fill="none" xmlns="http://www.w3.org/2000/svg">
<path d="M11.25 0.999756C10.9739 0.999756 10.75 1.22361 10.75 1.49976C10.75 1.7759 10.9739 1.99976 11.25 1.99976H13.293L6.92428 8.36845C6.72902 8.56371 6.72902 8.88029 6.92428 9.07556C7.11954 9.27082 7.43612 9.27082 7.63139 9.07556L14 2.70692V4.74976C14 5.0259 14.2239 5.24976 14.5 5.24976C14.7761 5.24976 15 5.0259 15 4.74976V1.49976C15 1.22361 14.7761 0.999756 14.5 0.999756H11.25Z" fill="white"/>
<path fill-rule="evenodd" clip-rule="evenodd" d="M1 2.94458C1 2.66844 1.22386 2.44458 1.5 2.44458H6.91667C7.19282 2.44458 7.41667 2.66844 7.41667 2.94458C7.41667 3.22072 7.19282 3.44458 6.91667 3.44458H2V14.0001H12.5556V9.02931C12.5556 8.75317 12.7794 8.52931 13.0556 8.52931C13.3317 8.52931 13.5556 8.75317 13.5556 9.02931V14.5001C13.5556 14.7763 13.3317 15.0001 13.0556 15.0001H1.5C1.22386 15.0001 1 14.7763 1 14.5001V2.94458Z" fill="white"/>
</svg>
