<svg width="16" height="16" viewBox="0 0 16 16" fill="none" xmlns="http://www.w3.org/2000/svg">
<path d="M1.75 1.05322C1.47386 1.05322 1.25 1.27708 1.25 1.55322V3.96063C1.25 4.23677 1.47386 4.46063 1.75 4.46063C2.02614 4.46063 2.25 4.23677 2.25 3.96063V2.76159L6.20387 6.72133C6.39899 6.91673 6.71557 6.91697 6.91098 6.72185C7.10639 6.52673 7.10662 6.21015 6.9115 6.01474L2.95584 2.05322H4.15384C4.42999 2.05322 4.65384 1.82937 4.65384 1.55322C4.65384 1.27708 4.42999 1.05322 4.15384 1.05322H1.75Z" fill="white"/>
<path d="M1.75 15.0531C1.47386 15.0531 1.25 14.8293 1.25 14.5531V12.1457C1.25 11.8696 1.47386 11.6457 1.75 11.6457C2.02614 11.6457 2.25 11.8696 2.25 12.1457V13.3448L6.20387 9.38503C6.39899 9.18962 6.71557 9.18939 6.91098 9.3845C7.10639 9.57962 7.10662 9.8962 6.9115 10.0916L2.95584 14.0531H4.15384C4.42999 14.0531 4.65384 14.277 4.65384 14.5531C4.65384 14.8293 4.42999 15.0531 4.15384 15.0531H1.75Z" fill="white"/>
<path d="M14.75 1.55322C14.75 1.27708 14.5261 1.05322 14.25 1.05322H11.8462C11.57 1.05322 11.3462 1.27708 11.3462 1.55322C11.3462 1.82937 11.57 2.05322 11.8462 2.05322H13.0442L9.0885 6.01474C8.89338 6.21015 8.89361 6.52673 9.08902 6.72185C9.28443 6.91697 9.60101 6.91673 9.79613 6.72133L13.75 2.76159V3.96063C13.75 4.23677 13.9739 4.46063 14.25 4.46063C14.5261 4.46063 14.75 4.23677 14.75 3.96063V1.55322Z" fill="white"/>
<path d="M14.25 15.0531C14.5261 15.0531 14.75 14.8293 14.75 14.5531V12.1457C14.75 11.8696 14.5261 11.6457 14.25 11.6457C13.9739 11.6457 13.75 11.8696 13.75 12.1457V13.3448L9.79613 9.38503C9.60101 9.18962 9.28443 9.18939 9.08902 9.3845C8.89361 9.57962 8.89338 9.8962 9.0885 10.0916L13.0442 14.0531H11.8462C11.57 14.0531 11.3462 14.277 11.3462 14.5531C11.3462 14.8293 11.57 15.0531 11.8462 15.0531H14.25Z" fill="white"/>
</svg>
