<svg width="16" height="16" viewBox="0 0 16 16" fill="none" xmlns="http://www.w3.org/2000/svg">
<path d="M14.3287 1.64321C14.3467 1.65894 14.3636 1.67595 14.3792 1.69408C14.409 1.72876 14.4334 1.76657 14.4522 1.80634C14.4828 1.87113 14.5 1.94357 14.5 2.02002V5.02002C14.5 5.29616 14.2761 5.52002 14 5.52002C13.7239 5.52002 13.5 5.29616 13.5 5.02002V3.22711L7.68687 9.04024C7.4916 9.2355 7.17502 9.2355 6.97976 9.04024C6.7845 8.84498 6.7845 8.5284 6.97976 8.33313L12.7929 2.52002H11C10.7239 2.52002 10.5 2.29616 10.5 2.02002C10.5 1.74388 10.7239 1.52002 11 1.52002H13.9999C13.9999 1.52002 13.9999 1.52002 13.9999 1.52002C14.0711 1.52002 14.139 1.53492 14.2003 1.56178C14.2461 1.58175 14.2894 1.6089 14.3287 1.64321Z" fill="white"/>
<path fill-rule="evenodd" clip-rule="evenodd" d="M1.5 3.35352C1.5 3.07737 1.72386 2.85352 2 2.85352H7C7.27614 2.85352 7.5 3.07737 7.5 3.35352C7.5 3.62966 7.27614 3.85352 7 3.85352H2.5V13.5202H12.1667V8.97018C12.1667 8.69404 12.3905 8.47018 12.6667 8.47018C12.9428 8.47018 13.1667 8.69404 13.1667 8.97018V14.0202C13.1667 14.2963 12.9428 14.5202 12.6667 14.5202H2C1.72386 14.5202 1.5 14.2963 1.5 14.0202V3.35352Z" fill="white"/>
</svg>
