<svg width="16" height="16" viewBox="0 0 16 16" fill="none" xmlns="http://www.w3.org/2000/svg">
<path fill-rule="evenodd" clip-rule="evenodd" d="M1 1.63636C1 1.28491 1.28491 1 1.63636 1H3.90909C4.26055 1 4.54546 1.28491 4.54546 1.63636C4.54546 1.98782 4.26055 2.27273 3.90909 2.27273H3.17268L6.85907 5.95911C7.10759 6.20763 7.10759 6.61055 6.85907 6.85907C6.61055 7.10758 6.20763 7.10758 5.95912 6.85907L2.27273 3.17268V3.90909C2.27273 4.26054 1.98782 4.54545 1.63636 4.54545C1.28491 4.54545 1 4.26054 1 3.90909V1.63636ZM12.8273 2.27273H12.0909C11.7395 2.27273 11.4545 1.98782 11.4545 1.63636C11.4545 1.28491 11.7395 1 12.0909 1H14.3636C14.7151 1 15 1.28491 15 1.63636V3.90909C15 4.26054 14.7151 4.54545 14.3636 4.54545C14.0122 4.54545 13.7273 4.26054 13.7273 3.90909V3.17268L10.0409 6.85907C9.79237 7.10758 9.38945 7.10758 9.14093 6.85907C8.89241 6.61055 8.89241 6.20763 9.14093 5.95911L12.8273 2.27273ZM6.85907 9.14093C7.10759 9.38945 7.10759 9.79237 6.85907 10.0409L3.17268 13.7273H3.90909C4.26055 13.7273 4.54546 14.0122 4.54546 14.3636C4.54546 14.7151 4.26055 15 3.90909 15H1.63636C1.28491 15 1 14.7151 1 14.3636V12.0909C1 11.7395 1.28491 11.4545 1.63636 11.4545C1.98782 11.4545 2.27273 11.7395 2.27273 12.0909V12.8273L5.95912 9.14093C6.20763 8.89242 6.61055 8.89242 6.85907 9.14093ZM9.14093 9.14093C9.38945 8.89242 9.79237 8.89242 10.0409 9.14093L13.7273 12.8273V12.0909C13.7273 11.7395 14.0122 11.4545 14.3636 11.4545C14.7151 11.4545 15 11.7395 15 12.0909V14.3636C15 14.7151 14.7151 15 14.3636 15H12.0909C11.7395 15 11.4545 14.7151 11.4545 14.3636C11.4545 14.0122 11.7395 13.7273 12.0909 13.7273H12.8273L9.14093 10.0409C8.89241 9.79237 8.89241 9.38945 9.14093 9.14093Z" fill="#0091E4"/>
</svg>
