<svg width="16" height="16" viewBox="0 0 16 16" fill="none" xmlns="http://www.w3.org/2000/svg">
<path fill-rule="evenodd" clip-rule="evenodd" d="M1.5 1C1.22386 1 1 1.22386 1 1.5V9.85714C1 10.1333 1.22386 10.3571 1.5 10.3571H5.64282V14.5C5.64282 14.7761 5.86668 15 6.14282 15H14.5C14.7761 15 15 14.7761 15 14.5V6.14285C15 5.86671 14.7761 5.64285 14.5 5.64285H10.3571V1.5C10.3571 1.22386 10.1333 1 9.85714 1H1.5ZM9.35714 5.64285V2H2V9.35714H5.64282V6.14285C5.64282 5.86671 5.86668 5.64285 6.14282 5.64285H9.35714ZM6.64282 9.35714V6.64285H9.35714V9.35714H6.64282ZM6.64282 10.3571H9.85714C10.1333 10.3571 10.3571 10.1333 10.3571 9.85714V6.64285H14V14H6.64282V10.3571Z" fill="white"/>
</svg>
