<svg width="16" height="16" viewBox="0 0 16 16" fill="none" xmlns="http://www.w3.org/2000/svg">
<path fill-rule="evenodd" clip-rule="evenodd" d="M1.5 1.31259C1.22386 1.31259 1 1.53645 1 1.81259C1 2.08873 1.22386 2.31259 1.5 2.31259H1.99066L6.35156 9.66832V14.125C6.35156 14.4011 6.57542 14.625 6.85156 14.625H9.14844C9.42458 14.625 9.64844 14.4011 9.64844 14.125V9.66832L14.0093 2.31259H14.5C14.7761 2.31259 15 2.08873 15 1.81259C15 1.53645 14.7761 1.31259 14.5 1.31259H1.5ZM7.28166 9.27626L3.19019 2.375H12.8098L8.71834 9.27626C8.67258 9.35345 8.64844 9.44152 8.64844 9.53125V13.625H7.35156V9.53125C7.35156 9.44152 7.32742 9.35345 7.28166 9.27626Z" fill="white"/>
</svg>
