<svg width="16" height="16" viewBox="0 0 16 16" fill="none" xmlns="http://www.w3.org/2000/svg">
<path d="M4.47167 1.8125C4.47167 1.53636 4.69553 1.3125 4.97167 1.3125H14.5001C14.7762 1.3125 15.0001 1.53636 15.0001 1.8125C15.0001 2.08864 14.7762 2.3125 14.5001 2.3125H14.0127L11.0374 7.31499C10.8963 7.55233 10.5894 7.63029 10.3521 7.48914C10.1147 7.34798 10.0368 7.04115 10.1779 6.80381L12.8492 2.3125L4.97167 2.3125C4.69553 2.3125 4.47167 2.08864 4.47167 1.8125Z" fill="white"/>
<path d="M5.44547 7.17348C5.68259 7.03195 5.98954 7.10944 6.13107 7.34656L7.28209 9.275C7.32833 9.35248 7.35275 9.44103 7.35275 9.53126V13.625H8.64616V11.169C8.64616 10.8928 8.87001 10.669 9.14616 10.669C9.4223 10.669 9.64616 10.8928 9.64616 11.169V14.125C9.64616 14.4012 9.4223 14.625 9.14616 14.625H6.85275C6.5766 14.625 6.35275 14.4012 6.35275 14.125V9.66913L5.27239 7.85907C5.13086 7.62195 5.20835 7.315 5.44547 7.17348Z" fill="white"/>
<path d="M2.09425 1.53304C1.8928 1.34418 1.56617 1.34418 1.36472 1.53304C1.16326 1.72191 1.16326 2.02812 1.36472 2.21698L12.7685 12.908C12.97 13.0969 13.2966 13.0969 13.498 12.908C13.6995 12.7192 13.6995 12.413 13.498 12.2241L2.09425 1.53304Z" fill="white"/>
</svg>
