<svg width="16" height="16" viewBox="0 0 16 16" fill="none" xmlns="http://www.w3.org/2000/svg">
<path fill-rule="evenodd" clip-rule="evenodd" d="M12.3843 5.0538C12.0952 4.86869 11.84 4.63536 11.63 4.36517L8.71835 9.27637C8.67259 9.35355 8.64845 9.44162 8.64845 9.53135V13.6251H7.35157V9.53135C7.35157 9.44162 7.32743 9.35355 7.28167 9.27637L3.15309 2.3125H11.0075C11.0323 1.95872 11.1185 1.62187 11.2554 1.3125H1.5C1.22386 1.3125 1 1.53636 1 1.8125C1 2.08864 1.22386 2.3125 1.5 2.3125H1.99056L6.35157 9.66843V14.1251C6.35157 14.4012 6.57543 14.6251 6.85157 14.6251H9.14845C9.42459 14.6251 9.64845 14.4012 9.64845 14.1251V9.66843L12.3843 5.0538ZM16 2.52563C16 3.6302 15.1046 4.52563 14 4.52563C12.8954 4.52563 12 3.6302 12 2.52563C12 1.42107 12.8954 0.525635 14 0.525635C15.1046 0.525635 16 1.42107 16 2.52563Z" fill="white"/>
</svg>
