<svg width="16" height="16" viewBox="0 0 16 16" fill="none" xmlns="http://www.w3.org/2000/svg">
<path fill-rule="evenodd" clip-rule="evenodd" d="M1.5 2C1.5 1.72386 1.72386 1.5 2 1.5H14C14.2761 1.5 14.5 1.72386 14.5 2C14.5 2.27614 14.2761 2.5 14 2.5H2C1.72386 2.5 1.5 2.27614 1.5 2Z" fill="white"/>
<path fill-rule="evenodd" clip-rule="evenodd" d="M3.5 6C3.5 5.72386 3.72386 5.5 4 5.5L12 5.5C12.2761 5.5 12.5 5.72386 12.5 6C12.5 6.27614 12.2761 6.5 12 6.5L4 6.5C3.72386 6.5 3.5 6.27614 3.5 6Z" fill="white"/>
<path fill-rule="evenodd" clip-rule="evenodd" d="M5.5 10C5.5 9.72386 5.72386 9.5 6 9.5L10 9.5C10.2761 9.5 10.5 9.72386 10.5 10C10.5 10.2761 10.2761 10.5 10 10.5L6 10.5C5.72386 10.5 5.5 10.2761 5.5 10Z" fill="white"/>
<path fill-rule="evenodd" clip-rule="evenodd" d="M6.5 14C6.5 13.7239 6.72386 13.5 7 13.5H9C9.27614 13.5 9.5 13.7239 9.5 14C9.5 14.2761 9.27614 14.5 9 14.5H7C6.72386 14.5 6.5 14.2761 6.5 14Z" fill="white"/>
</svg>
