<svg width="16" height="16" viewBox="0 0 16 16" fill="none" xmlns="http://www.w3.org/2000/svg">
<path fill-rule="evenodd" clip-rule="evenodd" d="M1 1.63636C1 1.28491 1.28491 1 1.63636 1H14.3636C14.7151 1 15 1.28491 15 1.63636C15 1.98782 14.7151 2.27273 14.3636 2.27273H1.63636C1.28491 2.27273 1 1.98782 1 1.63636ZM2.59091 5.87879C2.59091 5.52733 2.87582 5.24242 3.22727 5.24242H12.7727C13.1242 5.24242 13.4091 5.52733 13.4091 5.87879C13.4091 6.23024 13.1242 6.51515 12.7727 6.51515H3.22727C2.87582 6.51515 2.59091 6.23024 2.59091 5.87879ZM4.71212 10.1212C4.71212 9.76976 4.99703 9.48485 5.34848 9.48485H10.6515C11.003 9.48485 11.2879 9.76976 11.2879 10.1212C11.2879 10.4727 11.003 10.7576 10.6515 10.7576H5.34848C4.99703 10.7576 4.71212 10.4727 4.71212 10.1212ZM5.77273 14.3636C5.77273 14.0122 6.05764 13.7273 6.40909 13.7273H9.59091C9.94236 13.7273 10.2273 14.0122 10.2273 14.3636C10.2273 14.7151 9.94236 15 9.59091 15H6.40909C6.05764 15 5.77273 14.7151 5.77273 14.3636Z" fill="white"/>
</svg>
