<svg width="16" height="16" viewBox="0 0 16 16" fill="none" xmlns="http://www.w3.org/2000/svg">
<path fill-rule="evenodd" clip-rule="evenodd" d="M4.47158 1.8125C4.47158 1.53636 4.69544 1.3125 4.97158 1.3125H14.5C14.7761 1.3125 15 1.53636 15 1.8125C15 2.08864 14.7761 2.3125 14.5 2.3125H14.0128L11.0374 7.31508C10.8963 7.55242 10.5895 7.63039 10.3521 7.48923C10.1148 7.34807 10.0368 7.04124 10.178 6.8039L12.8493 2.3125L4.97158 2.3125C4.69544 2.3125 4.47158 2.08864 4.47158 1.8125ZM5.4455 7.17357C5.68262 7.03204 5.98957 7.10953 6.1311 7.34665L7.28212 9.27509C7.32836 9.35257 7.35278 9.44112 7.35278 9.53135V13.6251H8.64619V11.1691C8.64619 10.8929 8.87004 10.6691 9.14619 10.6691C9.42233 10.6691 9.64619 10.8929 9.64619 11.1691V14.1251C9.64619 14.4012 9.42233 14.6251 9.14619 14.6251H6.85278C6.57663 14.6251 6.35278 14.4012 6.35278 14.1251V9.66922L5.27242 7.85916C5.13089 7.62205 5.20838 7.31509 5.4455 7.17357ZM2.09428 1.53313C1.89283 1.34427 1.5662 1.34427 1.36475 1.53313C1.16329 1.722 1.16329 2.02821 1.36475 2.21707L12.7685 12.9081C12.97 13.097 13.2966 13.097 13.4981 12.9081C13.6995 12.7193 13.6995 12.4131 13.4981 12.2242L2.09428 1.53313Z" fill="white"/>
</svg>
