<svg width="16" height="16" viewBox="0 0 16 16" fill="none" xmlns="http://www.w3.org/2000/svg">
<path d="M13.0692 5.29701C14.1356 5.29701 15.0001 4.43252 15.0001 3.36611C15.0001 2.2997 14.1356 1.43521 13.0692 1.43521C12.0029 1.43521 11.1384 2.2997 11.1384 3.36611C11.1384 4.43252 12.0029 5.29701 13.0692 5.29701Z" fill="white"/>
<path d="M0.5 2.73672C0.5 2.46058 0.723858 2.23672 1 2.23672H9.73851C10.0147 2.23672 10.2385 2.46058 10.2385 2.73672C10.2385 3.01287 10.0147 3.23672 9.73851 3.23672H2.66265L6.59796 9.87488C6.64371 9.95206 6.66786 10.0401 6.66786 10.1299V14.0649H7.88528V10.1299C7.88528 10.0401 7.90942 9.95206 7.95517 9.87488L10.4201 5.71704C10.5609 5.4795 10.8676 5.40109 11.1052 5.54191C11.3427 5.68273 11.4211 5.98945 11.2803 6.22699L8.88527 10.2669V14.5649C8.88527 14.841 8.66142 15.0649 8.38528 15.0649H6.16786C5.89171 15.0649 5.66786 14.841 5.66786 14.5649V10.2669L1.50014 3.23672H1C0.723858 3.23672 0.5 3.01287 0.5 2.73672Z" fill="white"/>
</svg>
