<svg width="17" height="16" viewBox="0 0 17 16" fill="none" xmlns="http://www.w3.org/2000/svg">
<path fill-rule="evenodd" clip-rule="evenodd" d="M2.26901 1.3125C1.99287 1.3125 1.76901 1.53636 1.76901 1.8125C1.76901 2.08864 1.99287 2.3125 2.26901 2.3125H2.75962L7.12057 9.66832V14.125C7.12057 14.4011 7.34443 14.625 7.62057 14.625H9.91745C10.1936 14.625 10.4174 14.4011 10.4174 14.125V9.66832L14.7784 2.3125H15.269C15.5452 2.3125 15.769 2.08864 15.769 1.8125C15.769 1.53636 15.5452 1.3125 15.269 1.3125H2.26901ZM8.05067 9.27626L3.95921 2.375H13.5788L9.48735 9.27626C9.4416 9.35345 9.41745 9.44152 9.41745 9.53125V13.625H8.12057V9.53125C8.12057 9.44152 8.09643 9.35345 8.05067 9.27626Z" fill="white"/>
</svg>
