<svg width="16" height="16" viewBox="0 0 16 16" fill="none" xmlns="http://www.w3.org/2000/svg">
<path d="M2.5 1.49997C2.77614 1.49997 3 1.72383 3 1.99997V4.08526C3.5826 4.29118 4 4.8468 4 5.49991C4 6.15302 3.5826 6.70864 3 6.91456V14C3 14.2761 2.77614 14.5 2.5 14.5C2.22386 14.5 2 14.2761 2 14V6.91456C1.4174 6.70864 1 6.15302 1 5.49991C1 4.8468 1.4174 4.29118 2 4.08526V1.99997C2 1.72383 2.22386 1.49997 2.5 1.49997Z" fill="white"/>
<path d="M8 1.49997C8.27614 1.49997 8.5 1.72383 8.5 1.99997V9.08526C9.0826 9.29118 9.5 9.8468 9.5 10.4999C9.5 11.153 9.0826 11.7086 8.5 11.9146V14C8.5 14.2761 8.27614 14.5 8 14.5C7.72386 14.5 7.5 14.2761 7.5 14V11.9146C6.9174 11.7086 6.5 11.153 6.5 10.4999C6.5 9.8468 6.9174 9.29118 7.5 9.08526V1.99997C7.5 1.72383 7.72386 1.49997 8 1.49997Z" fill="white"/>
<path d="M14 1.99997C14 1.72383 13.7761 1.49997 13.5 1.49997C13.2239 1.49997 13 1.72383 13 1.99997V4.08526C12.4174 4.29118 12 4.8468 12 5.49991C12 6.15302 12.4174 6.70864 13 6.91456V14C13 14.2761 13.2239 14.5 13.5 14.5C13.7761 14.5 14 14.2761 14 14V6.91456C14.5826 6.70864 15 6.15302 15 5.49991C15 4.8468 14.5826 4.29118 14 4.08526V1.99997Z" fill="white"/>
</svg>
