<svg width="16" height="16" viewBox="0 0 16 16" fill="none" xmlns="http://www.w3.org/2000/svg">
<path fill-rule="evenodd" clip-rule="evenodd" d="M5.45827 11.375C5.25116 11.375 5.08327 11.2071 5.08327 11L5.08327 6.09573C5.08327 5.88862 5.25116 5.72073 5.45827 5.72073C5.66537 5.72073 5.83327 5.88862 5.83327 6.09573L5.83327 11C5.83327 11.2071 5.66537 11.375 5.45827 11.375Z" fill="white"/>
<path fill-rule="evenodd" clip-rule="evenodd" d="M3.76662 11.375C3.55951 11.375 3.39162 11.2071 3.39162 11L3.39162 6.79634C3.39162 6.58923 3.55951 6.42134 3.76662 6.42134C3.97372 6.42134 4.14162 6.58923 4.14162 6.79634L4.14162 11C4.14162 11.2071 3.97372 11.375 3.76662 11.375Z" fill="white"/>
<path fill-rule="evenodd" clip-rule="evenodd" d="M2.075 11.375C1.86789 11.375 1.7 11.2071 1.7 11L1.7 8.19756C1.7 7.99045 1.86789 7.82256 2.075 7.82256C2.2821 7.82256 2.45 7.99045 2.45 8.19756L2.45 11C2.45 11.2071 2.2821 11.375 2.075 11.375Z" fill="white"/>
<path fill-rule="evenodd" clip-rule="evenodd" d="M7.14992 11.375C6.94281 11.375 6.77492 11.2071 6.77492 11L6.77492 3.9939C6.77492 3.78679 6.94281 3.6189 7.14992 3.6189C7.35702 3.6189 7.52492 3.78679 7.52492 3.9939L7.52492 11C7.52492 11.2071 7.35702 11.375 7.14992 11.375Z" fill="white"/>
<path fill-rule="evenodd" clip-rule="evenodd" d="M8.84154 11.375C8.63443 11.375 8.46654 11.2071 8.46654 11L8.46654 6.79634C8.46654 6.58923 8.63443 6.42134 8.84154 6.42134C9.04864 6.42134 9.21654 6.58923 9.21654 6.79634L9.21654 11C9.21654 11.2071 9.04864 11.375 8.84154 11.375Z" fill="white"/>
<path fill-rule="evenodd" clip-rule="evenodd" d="M10.5332 11.375C10.3261 11.375 10.1582 11.2071 10.1582 11L10.1582 5.39512C10.1582 5.18801 10.3261 5.02012 10.5332 5.02012C10.7403 5.02012 10.9082 5.18801 10.9082 5.39512L10.9082 11C10.9082 11.2071 10.7403 11.375 10.5332 11.375Z" fill="white"/>
<path fill-rule="evenodd" clip-rule="evenodd" d="M12.2248 11.375C12.0177 11.375 11.8498 11.2071 11.8498 11L11.8498 7.49695C11.8498 7.28984 12.0177 7.12195 12.2248 7.12195C12.4319 7.12195 12.5998 7.28984 12.5998 7.49695L12.5998 11C12.5998 11.2071 12.4319 11.375 12.2248 11.375Z" fill="white"/>
<path fill-rule="evenodd" clip-rule="evenodd" d="M13.9164 11.375C13.7093 11.375 13.5414 11.2071 13.5414 11L13.5414 7.49695C13.5414 7.28984 13.7093 7.12195 13.9164 7.12195C14.1235 7.12195 14.2914 7.28984 14.2914 7.49695L14.2914 11C14.2914 11.2071 14.1235 11.375 13.9164 11.375Z" fill="white"/>
</svg>
