<svg width="16" height="16" viewBox="0 0 16 16" fill="none" xmlns="http://www.w3.org/2000/svg">
<path fill-rule="evenodd" clip-rule="evenodd" d="M2.55556 1.5C2.8317 1.5 3.05556 1.72386 3.05556 2V14C3.05556 14.2761 2.8317 14.5 2.55556 14.5C2.27941 14.5 2.05556 14.2761 2.05556 14V2C2.05556 1.72386 2.27941 1.5 2.55556 1.5Z" fill="white"/>
<path fill-rule="evenodd" clip-rule="evenodd" d="M8 1.5C8.27614 1.5 8.5 1.72386 8.5 2V14C8.5 14.2761 8.27614 14.5 8 14.5C7.72386 14.5 7.5 14.2761 7.5 14V2C7.5 1.72386 7.72386 1.5 8 1.5Z" fill="white"/>
<path fill-rule="evenodd" clip-rule="evenodd" d="M13.4444 1.5C13.7206 1.5 13.9444 1.72386 13.9444 2V14C13.9444 14.2761 13.7206 14.5 13.4444 14.5C13.1683 14.5 12.9444 14.2761 12.9444 14V2C12.9444 1.72386 13.1683 1.5 13.4444 1.5Z" fill="white"/>
<path d="M4.11111 5.75C4.11111 6.57843 3.41467 7.25 2.55556 7.25C1.69645 7.25 1 6.57843 1 5.75C1 4.92157 1.69645 4.25 2.55556 4.25C3.41467 4.25 4.11111 4.92157 4.11111 5.75Z" fill="white"/>
<path d="M15 5.75C15 6.57843 14.3036 7.25 13.4444 7.25C12.5853 7.25 11.8889 6.57843 11.8889 5.75C11.8889 4.92157 12.5853 4.25 13.4444 4.25C14.3036 4.25 15 4.92157 15 5.75Z" fill="white"/>
<path d="M9.55555 11C9.55555 11.8284 8.85911 12.5 8 12.5C7.14089 12.5 6.44444 11.8284 6.44444 11C6.44444 10.1716 7.14089 9.5 8 9.5C8.85911 9.5 9.55555 10.1716 9.55555 11Z" fill="white"/>
</svg>
