<svg width="16" height="16" viewBox="0 0 16 16" fill="none" xmlns="http://www.w3.org/2000/svg">
<path fill-rule="evenodd" clip-rule="evenodd" d="M8.45498 3.66731L5.39463 8.39276H7.44399C7.75126 8.39276 7.98633 8.66691 7.93903 8.9708L7.40192 12.4223L10.5909 7.63885H8.41019C8.10207 7.63885 7.86701 7.36337 7.91541 7.05914L8.45498 3.66731ZM8.89785 1.14387C9.19202 0.689656 9.89826 0.959866 9.81314 1.49492L8.99484 6.63885H11.5233C11.9232 6.63885 12.1622 7.08465 11.9401 7.41775L6.97737 14.8619C6.6795 15.3087 5.98294 15.0373 6.06547 14.5069L6.86133 9.39276H4.47695C4.08014 9.39276 3.84038 8.95303 4.05643 8.61942L8.89785 1.14387Z" fill="white"/>
</svg>
