<svg width="16" height="16" viewBox="0 0 16 16" fill="none" xmlns="http://www.w3.org/2000/svg">
<path fill-rule="evenodd" clip-rule="evenodd" d="M9.49974 1.03079C9.67556 1.10498 9.77848 1.29687 9.7473 1.49237L8.92693 6.63759H11.5955C11.7457 6.63759 11.8836 6.7246 11.9535 6.86357C12.0234 7.00253 12.0139 7.17056 11.9288 7.29995L6.98501 14.8167C6.87759 14.98 6.67607 15.0434 6.50025 14.9692C6.32444 14.895 6.22152 14.7031 6.25269 14.5076L7.07307 9.36241H4.4045C4.25428 9.36241 4.11644 9.2754 4.04651 9.13643C3.97658 8.99747 3.98608 8.82944 4.07117 8.70005L9.01499 1.18332C9.12241 1.02 9.32393 0.956591 9.49974 1.03079ZM5.17345 8.51678H7.55056C7.66946 8.51678 7.78234 8.57146 7.8592 8.66629C7.93605 8.76113 7.9691 8.88651 7.94955 9.0091L7.35006 12.769L10.8265 7.48322H8.44944C8.33054 7.48322 8.21766 7.42854 8.1408 7.33371C8.06395 7.23887 8.0309 7.11349 8.05045 6.9909L8.64994 3.23101L5.17345 8.51678Z" fill="white"/>
</svg>
