<svg width="16" height="16" viewBox="0 0 16 16" fill="none" xmlns="http://www.w3.org/2000/svg">
<path d="M1.5 1C1.22386 1 1 1.22386 1 1.5V5.5C1 5.77614 1.22386 6 1.5 6C1.77614 6 2 5.77614 2 5.5V2H5.5C5.77614 2 6 1.77614 6 1.5C6 1.22386 5.77614 1 5.5 1H1.5Z" fill="white"/>
<path d="M1 14.5C1 14.7761 1.22386 15 1.5 15H5.5C5.77614 15 6 14.7761 6 14.5C6 14.2239 5.77614 14 5.5 14H2V10.5C2 10.2239 1.77614 10 1.5 10C1.22386 10 1 10.2239 1 10.5V14.5Z" fill="white"/>
<path d="M14.5 1C14.7761 1 15 1.22386 15 1.5V5.5C15 5.77614 14.7761 6 14.5 6C14.2239 6 14 5.77614 14 5.5V2H10.5C10.2239 2 10 1.77614 10 1.5C10 1.22386 10.2239 1 10.5 1H14.5Z" fill="white"/>
<path d="M14.5 15C14.7761 15 15 14.7761 15 14.5V10.5C15 10.2239 14.7761 10 14.5 10C14.2239 10 14 10.2239 14 10.5V14H10.5C10.2239 14 10 14.2239 10 14.5C10 14.7761 10.2239 15 10.5 15H14.5Z" fill="white"/>
</svg>
