<svg width="16" height="16" viewBox="0 0 16 16" fill="none" xmlns="http://www.w3.org/2000/svg">
<path fill-rule="evenodd" clip-rule="evenodd" d="M1 1.63636C1 1.28491 1.28491 1 1.63636 1H5.36364C5.71509 1 6 1.28491 6 1.63636C6 1.98782 5.71509 2.27273 5.36364 2.27273H2.27273V5.36364C2.27273 5.71509 1.98782 6 1.63636 6C1.28491 6 1 5.71509 1 5.36364V1.63636Z" fill="#0091E4"/>
<path fill-rule="evenodd" clip-rule="evenodd" d="M14.3636 1C14.7151 1 15 1.28491 15 1.63636V5.36364C15 5.71509 14.7151 6 14.3636 6C14.0122 6 13.7273 5.71509 13.7273 5.36364V2.27273L10.6364 2.27273C10.2849 2.27273 10 1.98782 10 1.63636C10 1.28491 10.2849 1 10.6364 1L14.3636 1Z" fill="#0091E4"/>
<path fill-rule="evenodd" clip-rule="evenodd" d="M15 14.3636C15 14.7151 14.7151 15 14.3636 15H10.6364C10.2849 15 10 14.7151 10 14.3636C10 14.0122 10.2849 13.7273 10.6364 13.7273L13.7273 13.7273L13.7273 10.6364C13.7273 10.2849 14.0122 10 14.3636 10C14.7151 10 15 10.2849 15 10.6364V14.3636Z" fill="#0091E4"/>
<path fill-rule="evenodd" clip-rule="evenodd" d="M1.63636 15C1.28491 15 1 14.7151 1 14.3636L1 10.6364C1 10.2849 1.28491 10 1.63636 10C1.98782 10 2.27273 10.2849 2.27273 10.6364L2.27273 13.7273L5.36364 13.7273C5.71509 13.7273 6 14.0122 6 14.3636C6 14.7151 5.71509 15 5.36364 15L1.63636 15Z" fill="#0091E4"/>
</svg>
