<svg width="16" height="16" viewBox="0 0 16 16" fill="none" xmlns="http://www.w3.org/2000/svg">
<path fill-rule="evenodd" clip-rule="evenodd" d="M8.5 2.86622C8.7989 2.69331 9 2.37014 9 2C9 1.44772 8.55228 1 8 1C7.44772 1 7 1.44772 7 2C7 2.37014 7.2011 2.69331 7.5 2.86622V6.06301C7.3165 6.11024 7.14319 6.18286 6.98404 6.2769L4.46613 3.759C4.48822 3.67639 4.5 3.58957 4.5 3.5C4.5 2.94772 4.05228 2.5 3.5 2.5C2.94772 2.5 2.5 2.94772 2.5 3.5C2.5 4.05228 2.94772 4.5 3.5 4.5C3.58959 4.5 3.67642 4.48822 3.75905 4.46612L6.27692 6.984C6.18287 7.14316 6.11024 7.31648 6.06301 7.5H2.86622C2.69331 7.2011 2.37014 7 2 7C1.44772 7 1 7.44772 1 8C1 8.55228 1.44772 9 2 9C2.37014 9 2.69331 8.7989 2.86622 8.5H6.06301C6.10024 8.64467 6.15326 8.783 6.22011 8.91305L3.81525 11.0507C3.71614 11.0178 3.61015 11 3.5 11C2.94772 11 2.5 11.4477 2.5 12C2.5 12.5523 2.94772 13 3.5 13C4.05228 13 4.5 12.5523 4.5 12C4.5 11.9308 4.49298 11.8633 4.47961 11.7981L6.88461 9.66034C7.07005 9.78516 7.27753 9.87973 7.5 9.93699V13.1338C7.2011 13.3067 7 13.6299 7 14C7 14.5523 7.44772 15 8 15C8.55228 15 9 14.5523 9 14C9 13.6299 8.7989 13.3067 8.5 13.1338V9.93699C8.72242 9.87974 8.92987 9.78519 9.11528 9.66041L11.5204 11.7983C11.507 11.8634 11.5 11.9309 11.5 12C11.5 12.5523 11.9477 13 12.5 13C13.0523 13 13.5 12.5523 13.5 12C13.5 11.4477 13.0523 11 12.5 11C12.3898 11 12.2838 11.0178 12.1846 11.0507L9.77983 8.91317C9.84671 8.78308 9.89974 8.64471 9.93699 8.5H13.1338C13.3067 8.7989 13.6299 9 14 9C14.5523 9 15 8.55228 15 8C15 7.44772 14.5523 7 14 7C13.6299 7 13.3067 7.2011 13.1338 7.5H9.93699C9.88976 7.3165 9.81714 7.14319 9.72311 6.98404L12.241 4.46614C12.3236 4.48822 12.4104 4.5 12.5 4.5C13.0523 4.5 13.5 4.05228 13.5 3.5C13.5 2.94772 13.0523 2.5 12.5 2.5C11.9477 2.5 11.5 2.94772 11.5 3.5C11.5 3.58959 11.5118 3.67643 11.5339 3.75906L9.01601 6.27693C8.85685 6.18287 8.68352 6.11024 8.5 6.06301V2.86622ZM8 9C8.55228 9 9 8.55228 9 8C9 7.44772 8.55228 7 8 7C7.44772 7 7 7.44772 7 8C7 8.55228 7.44772 9 8 9Z" fill="white"/>
</svg>
