<svg width="16" height="16" viewBox="0 0 16 16" fill="none" xmlns="http://www.w3.org/2000/svg">
<path fill-rule="evenodd" clip-rule="evenodd" d="M2 12.75C1.86193 12.75 1.75 12.8619 1.75 13V14C1.75 14.1381 1.86193 14.25 2 14.25H3C3.13807 14.25 3.25 14.1381 3.25 14V13C3.25 12.8619 3.13807 12.75 3 12.75H2ZM7.5 12.75C7.36193 12.75 7.25 12.8619 7.25 13V14C7.25 14.1381 7.36193 14.25 7.5 14.25H8.5C8.63807 14.25 8.75 14.1381 8.75 14V13C8.75 12.8619 8.63807 12.75 8.5 12.75H7.5ZM13 12.75C12.8619 12.75 12.75 12.8619 12.75 13V14C12.75 14.1381 12.8619 14.25 13 14.25H14C14.1381 14.25 14.25 14.1381 14.25 14V13C14.25 12.8619 14.1381 12.75 14 12.75H13ZM2 7.25C1.86193 7.25 1.75 7.36193 1.75 7.5V8.5C1.75 8.63807 1.86193 8.75 2 8.75H3C3.13807 8.75 3.25 8.63807 3.25 8.5V7.5C3.25 7.36193 3.13807 7.25 3 7.25H2ZM7.5 7.25C7.36193 7.25 7.25 7.36193 7.25 7.5V8.5C7.25 8.63807 7.36193 8.75 7.5 8.75H8.5C8.63807 8.75 8.75 8.63807 8.75 8.5V7.5C8.75 7.36193 8.63807 7.25 8.5 7.25H7.5ZM13 7.25C12.8619 7.25 12.75 7.36193 12.75 7.5V8.5C12.75 8.63807 12.8619 8.75 13 8.75H14C14.1381 8.75 14.25 8.63807 14.25 8.5V7.5C14.25 7.36193 14.1381 7.25 14 7.25H13ZM2 1.75C1.86193 1.75 1.75 1.86193 1.75 2V3C1.75 3.13807 1.86193 3.25 2 3.25H3C3.13807 3.25 3.25 3.13807 3.25 3V2C3.25 1.86193 3.13807 1.75 3 1.75H2ZM7.5 1.75C7.36193 1.75 7.25 1.86193 7.25 2V3C7.25 3.13807 7.36193 3.25 7.5 3.25H8.5C8.63807 3.25 8.75 3.13807 8.75 3V2C8.75 1.86193 8.63807 1.75 8.5 1.75H7.5ZM13 1.75C12.8619 1.75 12.75 1.86193 12.75 2V3C12.75 3.13807 12.8619 3.25 13 3.25H14C14.1381 3.25 14.25 3.13807 14.25 3V2C14.25 1.86193 14.1381 1.75 14 1.75H13ZM2 1C1.44772 1 1 1.44772 1 2V3C1 3.55228 1.44772 4 2 4H3C3.55228 4 4 3.55228 4 3V2C4 1.44772 3.55228 1 3 1H2ZM1 7.5C1 6.94772 1.44772 6.5 2 6.5H3C3.55228 6.5 4 6.94772 4 7.5V8.5C4 9.05228 3.55228 9.5 3 9.5H2C1.44772 9.5 1 9.05228 1 8.5V7.5ZM1 13C1 12.4477 1.44772 12 2 12H3C3.55228 12 4 12.4477 4 13V14C4 14.5523 3.55228 15 3 15H2C1.44772 15 1 14.5523 1 14V13ZM6.5 13C6.5 12.4477 6.94772 12 7.5 12H8.5C9.05228 12 9.5 12.4477 9.5 13V14C9.5 14.5523 9.05228 15 8.5 15H7.5C6.94772 15 6.5 14.5523 6.5 14V13ZM13 12C12.4477 12 12 12.4477 12 13V14C12 14.5523 12.4477 15 13 15H14C14.5523 15 15 14.5523 15 14V13C15 12.4477 14.5523 12 14 12H13ZM7.5 6.5C6.94772 6.5 6.5 6.94772 6.5 7.5V8.5C6.5 9.05228 6.94772 9.5 7.5 9.5H8.5C9.05228 9.5 9.5 9.05228 9.5 8.5V7.5C9.5 6.94772 9.05228 6.5 8.5 6.5H7.5ZM12 7.5C12 6.94772 12.4477 6.5 13 6.5H14C14.5523 6.5 15 6.94772 15 7.5V8.5C15 9.05228 14.5523 9.5 14 9.5H13C12.4477 9.5 12 9.05228 12 8.5V7.5ZM6.5 2C6.5 1.44772 6.94772 1 7.5 1H8.5C9.05228 1 9.5 1.44772 9.5 2V3C9.5 3.55228 9.05228 4 8.5 4H7.5C6.94772 4 6.5 3.55228 6.5 3V2ZM13 1C12.4477 1 12 1.44772 12 2V3C12 3.55228 12.4477 4 13 4H14C14.5523 4 15 3.55228 15 3V2C15 1.44772 14.5523 1 14 1H13Z" fill="white"/>
</svg>
