<svg width="16" height="16" viewBox="0 0 16 16" fill="none" xmlns="http://www.w3.org/2000/svg">
<path fill-rule="evenodd" clip-rule="evenodd" d="M2 1C1.44772 1 1 1.44772 1 2V3C1 3.55228 1.44772 4 2 4H3C3.55228 4 4 3.55228 4 3V2C4 1.44772 3.55228 1 3 1H2ZM3 2H2L2 3H3V2Z" fill="white"/>
<path fill-rule="evenodd" clip-rule="evenodd" d="M2 6.5C1.44772 6.5 1 6.94772 1 7.5V8.5C1 9.05228 1.44772 9.5 2 9.5H3C3.55228 9.5 4 9.05228 4 8.5V7.5C4 6.94772 3.55228 6.5 3 6.5H2ZM3 7.5H2L2 8.5H3V7.5Z" fill="white"/>
<path fill-rule="evenodd" clip-rule="evenodd" d="M1 13C1 12.4477 1.44772 12 2 12H3C3.55228 12 4 12.4477 4 13V14C4 14.5523 3.55228 15 3 15H2C1.44772 15 1 14.5523 1 14V13ZM2 13H3V14H2L2 13Z" fill="white"/>
<path fill-rule="evenodd" clip-rule="evenodd" d="M7.5 1C6.94772 1 6.5 1.44772 6.5 2V3C6.5 3.55228 6.94772 4 7.5 4H8.5C9.05228 4 9.5 3.55228 9.5 3V2C9.5 1.44772 9.05228 1 8.5 1H7.5ZM8.5 2H7.5V3H8.5V2Z" fill="white"/>
<path fill-rule="evenodd" clip-rule="evenodd" d="M6.5 7.5C6.5 6.94772 6.94772 6.5 7.5 6.5H8.5C9.05228 6.5 9.5 6.94772 9.5 7.5V8.5C9.5 9.05228 9.05228 9.5 8.5 9.5H7.5C6.94772 9.5 6.5 9.05228 6.5 8.5V7.5ZM7.5 7.5H8.5V8.5H7.5V7.5Z" fill="white"/>
<path fill-rule="evenodd" clip-rule="evenodd" d="M7.5 12C6.94772 12 6.5 12.4477 6.5 13V14C6.5 14.5523 6.94772 15 7.5 15H8.5C9.05228 15 9.5 14.5523 9.5 14V13C9.5 12.4477 9.05228 12 8.5 12H7.5ZM8.5 13H7.5V14H8.5V13Z" fill="white"/>
<path fill-rule="evenodd" clip-rule="evenodd" d="M12 2C12 1.44772 12.4477 1 13 1H14C14.5523 1 15 1.44772 15 2V3C15 3.55228 14.5523 4 14 4H13C12.4477 4 12 3.55228 12 3V2ZM13 2H14V3H13V2Z" fill="white"/>
<path fill-rule="evenodd" clip-rule="evenodd" d="M13 6.5C12.4477 6.5 12 6.94772 12 7.5V8.5C12 9.05228 12.4477 9.5 13 9.5H14C14.5523 9.5 15 9.05228 15 8.5V7.5C15 6.94772 14.5523 6.5 14 6.5H13ZM14 7.5H13V8.5H14V7.5Z" fill="white"/>
<path fill-rule="evenodd" clip-rule="evenodd" d="M12 13C12 12.4477 12.4477 12 13 12H14C14.5523 12 15 12.4477 15 13V14C15 14.5523 14.5523 15 14 15H13C12.4477 15 12 14.5523 12 14V13ZM13 13H14V14H13V13Z" fill="white"/>
</svg>
