<svg width="16" height="16" viewBox="0 0 16 16" fill="none" xmlns="http://www.w3.org/2000/svg">
<path fill-rule="evenodd" clip-rule="evenodd" d="M2.46759 3.93513C2.83608 3.93513 3.17284 3.79932 3.43057 3.57504L6.11796 4.64051C6.11728 4.65878 6.11694 4.67713 6.11694 4.69556C6.11694 4.90396 6.16038 5.10222 6.2387 5.28177L5.22438 6.14817C4.98816 5.98568 4.702 5.89056 4.39362 5.89056C3.58309 5.89056 2.92603 6.54763 2.92603 7.35816C2.92603 8.16869 3.58309 8.82575 4.39362 8.82575C5.20415 8.82575 5.86121 8.16869 5.86121 7.35816C5.86121 7.22193 5.84265 7.09003 5.80792 6.96487L6.92775 6.00834C7.12536 6.1074 7.34844 6.16315 7.58454 6.16315C8.39507 6.16315 9.05213 5.50609 9.05213 4.69556C9.05213 3.88503 8.39507 3.22797 7.58454 3.22797C7.15153 3.22797 6.76233 3.41549 6.4937 3.71375L3.91804 2.69258C3.92933 2.61921 3.93519 2.54406 3.93519 2.46753C3.93519 1.657 3.27812 0.999939 2.46759 0.999939C1.65706 0.999939 1 1.657 1 2.46753C1 3.27806 1.65706 3.93513 2.46759 3.93513ZM2.46759 2.93513C2.72584 2.93513 2.93519 2.72578 2.93519 2.46753C2.93519 2.20929 2.72584 1.99994 2.46759 1.99994C2.20935 1.99994 2 2.20929 2 2.46753C2 2.72578 2.20935 2.93513 2.46759 2.93513ZM7.58454 5.16315C7.84278 5.16315 8.05213 4.9538 8.05213 4.69556C8.05213 4.43731 7.84278 4.22797 7.58454 4.22797C7.32629 4.22797 7.11694 4.43731 7.11694 4.69556C7.11694 4.9538 7.32629 5.16315 7.58454 5.16315ZM4.86121 7.35816C4.86121 7.6164 4.65186 7.82575 4.39362 7.82575C4.13537 7.82575 3.92603 7.6164 3.92603 7.35816C3.92603 7.09991 4.13537 6.89056 4.39362 6.89056C4.65186 6.89056 4.86121 7.09991 4.86121 7.35816Z" fill="white"/>
<path fill-rule="evenodd" clip-rule="evenodd" d="M13.5802 5.19332C14.094 4.96494 14.4523 4.45009 14.4523 3.85157C14.4523 3.04104 13.7952 2.38397 12.9847 2.38397C12.1742 2.38397 11.5171 3.04104 11.5171 3.85157C11.5171 4.52249 11.9673 5.08827 12.5821 5.26326L12.9027 8.3922C12.7397 8.46972 12.5933 8.57639 12.4702 8.70549L11.1934 8.05679C11.2009 7.99668 11.2047 7.93544 11.2047 7.87329C11.2047 7.06276 10.5477 6.4057 9.73712 6.4057C8.9266 6.4057 8.26953 7.06276 8.26953 7.87329C8.26953 8.51664 8.68349 9.0633 9.25957 9.26144L9.3338 12.1811C8.80812 12.4043 8.43945 12.9253 8.43945 13.5325C8.43945 14.343 9.09652 15.0001 9.90705 15.0001C10.7176 15.0001 11.3746 14.343 11.3746 13.5325C11.3746 12.87 10.9357 12.31 10.3328 12.1276L10.2595 9.2452C10.4383 9.1771 10.6003 9.07505 10.7377 8.94694L12.0678 9.6227C12.0657 9.6543 12.0647 9.68616 12.0647 9.71826C12.0647 10.5288 12.7218 11.1859 13.5323 11.1859C14.3428 11.1859 14.9999 10.5288 14.9999 9.71826C14.9999 9.03405 14.5317 8.45919 13.8981 8.29664L13.5802 5.19332ZM13.4523 3.85157C13.4523 4.10981 13.2429 4.31916 12.9847 4.31916C12.7264 4.31916 12.5171 4.10981 12.5171 3.85157C12.5171 3.59332 12.7264 3.38397 12.9847 3.38397C13.2429 3.38397 13.4523 3.59332 13.4523 3.85157ZM9.73712 8.34089C9.99537 8.34089 10.2047 8.13154 10.2047 7.87329C10.2047 7.61505 9.99537 7.4057 9.73712 7.4057C9.47888 7.4057 9.26953 7.61505 9.26953 7.87329C9.26953 8.13154 9.47888 8.34089 9.73712 8.34089ZM13.9999 9.71826C13.9999 9.97651 13.7905 10.1859 13.5323 10.1859C13.274 10.1859 13.0647 9.97651 13.0647 9.71826C13.0647 9.46002 13.274 9.25067 13.5323 9.25067C13.7905 9.25067 13.9999 9.46002 13.9999 9.71826ZM9.90705 14.0001C10.1653 14.0001 10.3746 13.7907 10.3746 13.5325C10.3746 13.2742 10.1653 13.0649 9.90705 13.0649C9.6488 13.0649 9.43945 13.2742 9.43945 13.5325C9.43945 13.7907 9.6488 14.0001 9.90705 14.0001Z" fill="white"/>
</svg>
