<svg width="16" height="16" viewBox="0 0 16 16" fill="none" xmlns="http://www.w3.org/2000/svg">
<path fill-rule="evenodd" clip-rule="evenodd" d="M11.341 7.82182C11.3567 7.52645 11.2886 7.22388 11.1286 6.95072C10.6916 6.20429 9.71863 5.93359 8.94856 6.37196C8.1785 6.81034 7.9298 7.77648 8.36687 8.52291C8.56461 8.86063 8.87206 9.10096 9.22077 9.2223L9.2978 11.9672C9.23353 11.9934 9.17019 12.0241 9.10817 12.0594C8.3381 12.4978 8.0894 13.4639 8.52647 14.2104C8.96354 14.9568 9.93646 15.2275 10.7065 14.7891C11.4766 14.3508 11.7253 13.3846 11.2882 12.6382C11.0905 12.3005 10.783 12.0601 10.4343 11.9388L10.3573 9.19392C10.4216 9.16769 10.4849 9.13698 10.5469 9.10167C10.6729 9.02997 10.7849 8.94415 10.8822 8.84749L12.0645 9.36573C12.0488 9.66109 12.1169 9.96367 12.2769 10.2368C12.7139 10.9833 13.6869 11.254 14.4569 10.8156C15.227 10.3772 15.4757 9.41107 15.0386 8.66463C14.8212 8.29322 14.471 8.03959 14.0792 7.9325L13.7796 4.89398C13.8095 4.87932 13.8391 4.86365 13.8685 4.84695C14.6385 4.40857 14.8872 3.44243 14.4502 2.696C14.0131 1.94957 13.0402 1.67886 12.2701 2.11724C11.5 2.55562 11.2513 3.52176 11.6884 4.26819C11.9059 4.6396 12.256 4.89323 12.6479 5.00032L12.9474 8.03884C12.9175 8.0535 12.8879 8.06917 12.8586 8.08588C12.7326 8.15758 12.6206 8.24339 12.5233 8.34006L11.341 7.82182ZM13.32 8.87383C12.9877 9.06299 12.8873 9.47432 13.0695 9.78558C13.2518 10.0968 13.6633 10.2168 13.9956 10.0276C14.3278 9.83846 14.4282 9.42713 14.246 9.11588C14.0637 8.80462 13.6522 8.68467 13.32 8.87383ZM9.40994 7.15992C9.07765 7.34908 8.97728 7.76041 9.15953 8.07167C9.34179 8.38293 9.75325 8.50288 10.0855 8.31372C10.4178 8.12455 10.5182 7.71322 10.336 7.40196C10.1537 7.09071 9.74223 6.97076 9.40994 7.15992ZM9.56955 12.8474C9.23726 13.0365 9.13688 13.4479 9.31913 13.7591C9.50139 14.0704 9.91286 14.1903 10.2451 14.0012C10.5774 13.812 10.6778 13.4007 10.4956 13.0894C10.3133 12.7782 9.90184 12.6582 9.56955 12.8474ZM12.7315 2.9052C12.3992 3.09436 12.2988 3.50569 12.4811 3.81695C12.6633 4.1282 13.0748 4.24816 13.4071 4.05899C13.7394 3.86983 13.8398 3.4585 13.6575 3.14724C13.4753 2.83599 13.0638 2.71603 12.7315 2.9052Z" fill="white"/>
<path fill-rule="evenodd" clip-rule="evenodd" d="M3.89405 2.66696C3.89791 2.59853 3.89729 2.52898 3.89189 2.45862C3.82487 1.5839 3.04932 0.944529 2.17812 1.00943C1.30692 1.07433 0.637603 1.82134 0.704628 2.69605C0.771653 3.57076 1.5472 4.21014 2.4184 4.14524C2.81269 4.11587 3.16562 3.94678 3.42766 3.68937L5.95191 4.80244C5.95796 4.8051 5.96404 4.80766 5.97013 4.8101C5.96625 4.87865 5.96687 4.94831 5.97227 5.0188C5.98322 5.16176 6.0131 5.29844 6.05923 5.42678L5.07314 6.25288C4.80991 6.11087 4.5038 6.04024 4.18486 6.064C3.31366 6.1289 2.64435 6.87592 2.71137 7.75063C2.7784 8.62533 3.55395 9.26471 4.42515 9.19981C5.29634 9.13491 5.96566 8.3879 5.89864 7.51319C5.88768 7.37023 5.8578 7.23355 5.81167 7.10521L6.79777 6.27911C7.06099 6.42112 7.36711 6.49175 7.68604 6.46799C8.55724 6.40309 9.22656 5.65607 9.15953 4.78136C9.09251 3.90665 8.31696 3.26728 7.44576 3.33218C7.05131 3.36156 6.69825 3.53078 6.43617 3.78837C6.4295 3.78511 6.42274 3.78197 6.41589 3.77895L3.89405 2.66696ZM7.08246 5.36768C7.21879 5.50561 7.41315 5.58326 7.61708 5.56807C7.9801 5.54103 8.26833 5.22761 8.23939 4.84991C8.21045 4.47221 7.87774 4.20505 7.51472 4.2321C7.1517 4.25914 6.86347 4.57256 6.89241 4.95025C6.90246 5.08151 6.94921 5.19942 7.02116 5.29627C7.03204 5.307 7.04256 5.31826 7.05269 5.33002C7.06324 5.34227 7.07317 5.35483 7.08246 5.36768ZM4.9785 7.58173C4.94956 7.20404 4.61684 6.93688 4.25382 6.96392C3.8908 6.99096 3.60257 7.30438 3.63151 7.68208C3.66045 8.05978 3.99317 8.32694 4.35619 8.29989C4.71921 8.27285 5.00744 7.95943 4.9785 7.58173ZM2.97176 2.52716C2.94281 2.14946 2.6101 1.8823 2.24708 1.90935C1.88406 1.93639 1.59583 2.24981 1.62477 2.62751C1.65371 3.00521 1.98643 3.27236 2.34945 3.24532C2.71247 3.21828 3.0007 2.90486 2.97176 2.52716Z" fill="white"/>
</svg>
