<svg width="16" height="16" viewBox="0 0 16 16" fill="none" xmlns="http://www.w3.org/2000/svg">
<path fill-rule="evenodd" clip-rule="evenodd" d="M7.92597 2.5C7.66855 2.5 7.4603 2.7095 7.46184 2.96692L7.48661 7.10153L7.48662 7.103L7.49266 8.10961C7.49431 8.38575 7.2718 8.61095 6.99566 8.6126C6.71952 8.61426 6.49433 8.39174 6.49267 8.11561L6.48665 7.11046L6.48664 7.10899L6.46412 4.58697C6.46211 4.36162 6.27886 4.18 6.05349 4.18C5.8267 4.18 5.64285 4.36385 5.64285 4.59064V9.2C5.64285 9.4184 5.50111 9.61153 5.29275 9.677C5.0844 9.74248 4.85766 9.66515 4.73273 9.48601L4.24041 8.78004C4.07792 8.54705 3.75421 8.49605 3.52796 8.66781L3.08418 9.00471C2.86711 9.16949 2.82199 9.47775 2.98272 9.69784L5.75948 13.5H11.6325L12.5 9.62472V5.76C12.5 5.48386 12.2761 5.26 12 5.26H11.8242C11.548 5.26 11.3242 5.48386 11.3242 5.76V8.11261C11.3242 8.38875 11.1003 8.61261 10.8242 8.61261C10.548 8.61261 10.3242 8.38875 10.3242 8.11261V4.04703C10.3242 3.7891 10.1151 3.58 9.85714 3.58C9.5992 3.58 9.39011 3.7891 9.39011 4.04703V8.11261C9.39011 8.38875 9.16625 8.61261 8.89011 8.61261C8.61396 8.61261 8.39011 8.38875 8.39011 8.11261V2.96414C8.39011 2.7078 8.18231 2.5 7.92597 2.5ZM9.35982 2.66644C9.22229 2.00057 8.63259 1.5 7.92597 1.5C7.11392 1.5 6.457 2.16088 6.46186 2.97291L6.46346 3.24051C6.3337 3.20116 6.19605 3.18 6.05349 3.18C5.27442 3.18 4.64285 3.81156 4.64285 4.59064V7.80465C4.12926 7.47406 3.44118 7.47818 2.92331 7.87132L2.47952 8.20822C1.82833 8.70257 1.69296 9.62736 2.17515 10.2876L5.10171 14.2949C5.19585 14.4238 5.34587 14.5 5.50549 14.5H12.033C12.267 14.5 12.4698 14.3376 12.5209 14.1092L13.4879 9.78922C13.4959 9.75337 13.5 9.71674 13.5 9.68V5.76C13.5 4.93157 12.8284 4.26 12 4.26H11.8242C11.6489 4.26 11.4806 4.29008 11.3242 4.34535V4.04703C11.3242 3.23681 10.6674 2.58 9.85714 2.58C9.68257 2.58 9.51512 2.61049 9.35982 2.66644Z" fill="white"/>
</svg>
