<svg width="16" height="16" viewBox="0 0 16 16" fill="none" xmlns="http://www.w3.org/2000/svg">
<path fill-rule="evenodd" clip-rule="evenodd" d="M8.17877 2.33389V8.22748C8.17877 8.50363 7.95491 8.72748 7.67877 8.72748C7.40263 8.72748 7.17877 8.50363 7.17877 8.22748V4.25983C7.16229 4.20429 7.12191 4.11555 7.04681 4.03929C6.96897 3.96024 6.83976 3.87868 6.60464 3.87868C6.37134 3.87868 6.27966 3.95743 6.23691 4.0087C6.17921 4.07788 6.15714 4.16673 6.15506 4.21237V9.62444C6.15506 9.83706 6.0206 10.0264 5.81986 10.0965C5.61912 10.1666 5.39602 10.102 5.26369 9.93561L4.56202 9.05312L4.50907 8.98383C4.26086 8.65969 3.79388 8.60477 3.47725 8.86248C3.17595 9.1077 3.1219 9.547 3.35476 9.85795L3.56905 10.1441L6.50924 14H12.2778L13.2499 9.77777V5.34585C13.2334 5.2903 13.193 5.20157 13.1179 5.1253C13.0401 5.04626 12.9109 4.96469 12.6758 4.96469C12.4425 4.96469 12.3508 5.04345 12.308 5.09471C12.2503 5.1639 12.2283 5.25274 12.2262 5.29838V8.22748C12.2262 8.50363 12.0023 8.72748 11.7262 8.72748C11.45 8.72748 11.2262 8.50363 11.2262 8.22748V3.36561C11.2097 3.31007 11.1693 3.22133 11.0942 3.14506C11.0164 3.06602 10.8872 2.98445 10.6521 2.98445C10.4188 2.98445 10.3271 3.06321 10.2843 3.11447C10.2266 3.18366 10.2046 3.27252 10.2025 3.31815V8.22748C10.2025 8.50363 9.97862 8.72748 9.70248 8.72748C9.42634 8.72748 9.20248 8.50363 9.20248 8.22748V2.38135C9.186 2.32577 9.14559 2.23697 9.07046 2.16066C8.99261 2.08157 8.86341 2 8.62835 2C8.39512 2 8.30344 2.07875 8.26066 2.13007C8.20293 2.19931 8.18085 2.28823 8.17877 2.33389ZM10.1478 2.05722C9.99918 1.61433 9.55533 1 8.62835 1C8.11685 1 7.73684 1.19672 7.49257 1.48972C7.26486 1.76286 7.18412 2.08405 7.1789 2.31502L7.17877 2.96962C7.01227 2.91235 6.8217 2.87868 6.60464 2.87868C6.0932 2.87868 5.71321 3.07529 5.46891 3.36824C5.24116 3.64134 5.16041 3.96251 5.15519 4.1935L5.15506 8.20642C4.54008 7.58809 3.54097 7.52127 2.84601 8.08689C2.12854 8.67082 1.99982 9.71693 2.55432 10.4574L2.76993 10.7453L5.86413 14.8032C5.9587 14.9272 6.10575 15 6.26172 15H12.6758C12.9087 15 13.1108 14.8392 13.163 14.6122L14.2372 9.94676C14.2456 9.90997 14.2499 9.87234 14.2499 9.83458V5.29081C14.2499 5.26218 14.2474 5.23361 14.2425 5.2054C14.1679 4.77506 13.7405 3.96469 12.6758 3.96469C12.5125 3.96469 12.3626 3.98474 12.2262 4.02157V3.31057C12.2262 3.28194 12.2237 3.25337 12.2188 3.22516C12.1442 2.79482 11.7168 1.98445 10.6521 1.98445C10.4666 1.98445 10.2985 2.0103 10.1478 2.05722Z" fill="white"/>
</svg>
