<svg width="16" height="16" viewBox="0 0 16 16" fill="none" xmlns="http://www.w3.org/2000/svg">
<path fill-rule="evenodd" clip-rule="evenodd" d="M8 2C4.90721 2 2 4.90721 2 8C2 11.0928 4.90721 14 8 14C11.0928 14 14 11.0928 14 8C14 4.90721 11.0928 2 8 2ZM1 8C1 4.13401 4.13401 1 8 1C11.866 1 15 4.13401 15 8C15 11.866 11.866 15 8 15C4.13401 15 1 11.866 1 8Z" fill="white"/>
<path d="M7.23859 10.4519C7.24681 9.97176 7.3023 9.59247 7.40506 9.31406C7.50781 9.03564 7.71743 8.72697 8.03391 8.38803L8.84155 7.57095C9.18681 7.18763 9.35943 6.77606 9.35943 6.33625C9.35943 5.91258 9.2464 5.58171 9.02035 5.34365C8.79429 5.10155 8.46547 4.9805 8.03391 4.9805C7.61467 4.9805 7.27764 5.08944 7.02281 5.30733C6.76798 5.52522 6.64057 5.81775 6.64057 6.18494H5.5C5.50822 5.53127 5.74455 5.00471 6.209 4.60525C6.67756 4.20175 7.28586 4 8.03391 4C8.81073 4 9.41492 4.20578 9.84649 4.61735C10.2822 5.02488 10.5 5.58574 10.5 6.29993C10.5 7.00605 10.1671 7.70208 9.50123 8.38803L8.82922 9.04169C8.52918 9.36853 8.37916 9.8386 8.37916 10.4519H7.23859ZM7.18927 12.3705C7.18927 12.189 7.24476 12.0377 7.35573 11.9166C7.47082 11.7915 7.63933 11.729 7.86128 11.729C8.08323 11.729 8.25175 11.7915 8.36683 11.9166C8.48192 12.0377 8.53946 12.189 8.53946 12.3705C8.53946 12.5521 8.48192 12.7034 8.36683 12.8245C8.25175 12.9415 8.08323 13 7.86128 13C7.63933 13 7.47082 12.9415 7.35573 12.8245C7.24476 12.7034 7.18927 12.5521 7.18927 12.3705Z" fill="white"/>
</svg>
