<svg width="16" height="16" viewBox="0 0 16 16" fill="none" xmlns="http://www.w3.org/2000/svg">
<path d="M5.39079 4.19674C5.39764 3.80998 5.53902 3.20882 5.93445 2.71542C6.31267 2.24349 6.95246 1.83163 8.05048 1.83163C9.13499 1.83163 9.75106 2.26437 10.111 2.74921C10.4901 3.25998 10.609 3.86459 10.609 4.18789C10.609 4.44421 10.6078 4.75096 10.4997 5.13009C10.3922 5.50719 10.1716 5.97843 9.70209 6.52686C9.52109 6.73829 9.31095 6.94094 9.07286 7.17055L8.99452 7.24615C8.73145 7.50031 8.44339 7.78372 8.18151 8.10959C7.6447 8.77757 7.22003 9.62162 7.22003 10.826C7.22003 11.1021 7.44388 11.326 7.72003 11.326C7.99617 11.326 8.22003 11.1021 8.22003 10.826C8.22003 9.89343 8.53667 9.26402 8.96099 8.73601C9.17968 8.46388 9.42713 8.21866 9.68935 7.96532L9.76944 7.88808C10.0015 7.66444 10.2475 7.42739 10.4617 7.1772C11.0193 6.52594 11.3122 5.92789 11.4614 5.40423C11.609 4.88657 11.609 4.46362 11.609 4.19407V4.18789C11.609 3.68829 11.4422 2.86478 10.9139 2.15315C10.3664 1.41558 9.4532 0.831635 8.05048 0.831635C6.66128 0.831635 5.72969 1.37187 5.15412 2.09004C4.59577 2.78674 4.40096 3.61371 4.39095 4.17903C4.38606 4.45513 4.60592 4.68292 4.88202 4.68781C5.15812 4.6927 5.3859 4.47284 5.39079 4.19674Z" fill="white"/>
<path d="M7.72772 14.6684C8.1717 14.6684 8.53162 14.3084 8.53162 13.8645C8.53162 13.4205 8.1717 13.0606 7.72772 13.0606C7.28374 13.0606 6.92383 13.4205 6.92383 13.8645C6.92383 14.3084 7.28374 14.6684 7.72772 14.6684Z" fill="white"/>
</svg>
