<svg width="16" height="16" viewBox="0 0 16 16" fill="none" xmlns="http://www.w3.org/2000/svg">
<path d="M7.19302 10.8908C7.20531 10.2017 7.30369 9.6469 7.48814 9.22642C7.6726 8.80593 8.06917 8.31244 8.67787 7.74596C9.28656 7.17363 9.67699 6.77066 9.84914 6.53706C10.0274 6.29762 10.1627 6.03774 10.2549 5.75741C10.3533 5.47125 10.4025 5.14712 10.4025 4.78504C10.4025 4.05503 10.1965 3.4827 9.78458 3.06806C9.37879 2.64757 8.81006 2.43733 8.07839 2.43733C7.34058 2.43733 6.74418 2.63881 6.2892 3.04178C5.84036 3.4389 5.60979 3.97911 5.5975 4.6624H4.5C4.5123 3.70463 4.85354 2.93958 5.52372 2.36725C6.1939 1.78908 7.04545 1.5 8.07839 1.5C9.13592 1.5 9.96904 1.79492 10.5777 2.38477C11.1926 2.96878 11.5 3.76303 11.5 4.76752C11.5 5.39825 11.3494 5.99102 11.0481 6.54582C10.7468 7.09479 10.175 7.7372 9.33267 8.47305C8.6379 9.02785 8.29051 9.83378 8.29051 10.8908H7.19302ZM7.04545 13.8167C7.04545 13.6181 7.11001 13.4517 7.23913 13.3174C7.3744 13.1772 7.56192 13.1071 7.80171 13.1071C8.03535 13.1071 8.21981 13.1772 8.35507 13.3174C8.49649 13.4517 8.56719 13.6181 8.56719 13.8167C8.56719 14.0094 8.49649 14.173 8.35507 14.3073C8.21981 14.4358 8.03535 14.5 7.80171 14.5C7.56192 14.5 7.3744 14.4358 7.23913 14.3073C7.11001 14.173 7.04545 14.0094 7.04545 13.8167Z" fill="white"/>
</svg>
