<svg width="16" height="16" viewBox="0 0 16 16" fill="none" xmlns="http://www.w3.org/2000/svg">
<path d="M13.5205 5.46203L8.88409 2.32889C8.63757 2.11657 8.32462 2 8.00114 2C7.67765 2 7.3647 2.11657 7.11818 2.32889L2.48182 5.46203C2.33102 5.59162 2.20982 5.75291 2.12662 5.9347C2.04342 6.1165 2.00022 6.31446 2 6.51486V12.6177C2 12.9843 2.14367 13.3359 2.3994 13.5951C2.65513 13.8544 3.00198 14 3.36364 14H5.95455C6.25593 14 6.54497 13.8786 6.75808 13.6626C6.97119 13.4466 7.09091 13.1536 7.09091 12.8481V9.88759C7.09151 9.73564 7.15132 9.59008 7.25732 9.48264C7.36332 9.37519 7.50691 9.31456 7.65682 9.31395H8.33864C8.41325 9.31365 8.48719 9.32825 8.55624 9.35691C8.62529 9.38557 8.6881 9.42774 8.74107 9.48101C8.79404 9.53428 8.83614 9.5976 8.86497 9.66736C8.8938 9.73712 8.90879 9.81196 8.90909 9.88759V12.8481C8.90909 13.1536 9.02881 13.4466 9.24192 13.6626C9.45503 13.8786 9.74407 14 10.0455 14H12.6364C12.998 14 13.3449 13.8544 13.6006 13.5951C13.8563 13.3359 14 12.9843 14 12.6177V6.51486C14.0001 6.31463 13.9572 6.11679 13.8744 5.935C13.7916 5.75322 13.6708 5.59184 13.5205 5.46203ZM13.0909 12.6177C13.0909 12.7399 13.043 12.8571 12.9578 12.9435C12.8725 13.0299 12.7569 13.0785 12.6364 13.0785H10.0455C9.98518 13.0785 9.92737 13.0542 9.88475 13.011C9.84213 12.9678 9.81818 12.9092 9.81818 12.8481V9.88759C9.81758 9.49124 9.66199 9.1113 9.3855 8.83103C9.10901 8.55077 8.73419 8.39305 8.34318 8.39244H7.66136C7.46737 8.39214 7.27521 8.43057 7.09586 8.50554C6.91652 8.58052 6.7535 8.69057 6.61611 8.8294C6.47872 8.96824 6.36965 9.13315 6.29514 9.31472C6.22062 9.49628 6.18212 9.69094 6.18182 9.88759V12.8481C6.18182 12.9092 6.15787 12.9678 6.11525 13.011C6.07263 13.0542 6.01482 13.0785 5.95455 13.0785H3.36364C3.24308 13.0785 3.12747 13.0299 3.04222 12.9435C2.95698 12.8571 2.90909 12.7399 2.90909 12.6177V6.51486C2.90909 6.44831 2.92331 6.38254 2.95077 6.32209C2.97823 6.26164 3.01829 6.20794 3.06818 6.16468L7.70455 3.03154C7.78672 2.96077 7.89104 2.92191 7.99886 2.92191C8.10669 2.92191 8.21101 2.96077 8.29318 3.03154L12.9295 6.16468C12.9799 6.20773 13.0203 6.26133 13.0482 6.32179C13.0761 6.38225 13.0906 6.44813 13.0909 6.51486V12.6177Z" fill="white"/>
</svg>
