<svg width="16" height="16" viewBox="0 0 16 16" fill="none" xmlns="http://www.w3.org/2000/svg">
<path fill-rule="evenodd" clip-rule="evenodd" d="M7.19469 2.41981C7.68604 2.10713 8.31396 2.10713 8.80531 2.41981L13.3053 5.28345C13.738 5.55878 14 6.03609 14 6.54894V12.5C14 13.3284 13.3284 14 12.5 14H10.5C9.67157 14 9 13.3284 9 12.5V9.99999C9 9.72385 8.77614 9.49999 8.5 9.49999H7.5C7.22386 9.49999 7 9.72385 7 9.99999V12.5C7 13.3284 6.32843 14 5.5 14H3.5C2.67157 14 2 13.3284 2 12.5V6.54894C2 6.03609 2.26202 5.55878 2.69469 5.28345L7.19469 2.41981ZM8.26844 3.26347C8.10465 3.15925 7.89535 3.15925 7.73156 3.26347L3.23156 6.12711C3.08734 6.21889 3 6.37799 3 6.54894V12.5C3 12.7761 3.22386 13 3.5 13H5.5C5.77614 13 6 12.7761 6 12.5V9.99999C6 9.17157 6.67157 8.49999 7.5 8.49999H8.5C9.32843 8.49999 10 9.17157 10 9.99999V12.5C10 12.7761 10.2239 13 10.5 13H12.5C12.7761 13 13 12.7761 13 12.5V6.54894C13 6.37799 12.9127 6.21889 12.7684 6.12711L8.26844 3.26347Z" fill="white"/>
</svg>
