<svg width="16" height="16" viewBox="0 0 16 16" fill="none" xmlns="http://www.w3.org/2000/svg">
<path d="M8 1C6.68565 1 5.45825 1.36656 4.40534 1.98971C4.1677 2.13036 4.08907 2.43702 4.22972 2.67466C4.37036 2.9123 4.67702 2.99093 4.91466 2.85029C5.82176 2.31344 6.87436 2 8 2C9.18251 2 10.2888 2.34155 11.2194 2.94045C11.4516 3.0899 11.761 3.0228 11.9105 2.79059C12.0599 2.55838 11.9928 2.24899 11.7606 2.09955C10.6712 1.39845 9.37749 1 8 1Z" fill="white"/>
<path d="M2.77763 4.08766C3.01088 4.23547 3.08015 4.54438 2.93235 4.77764C2.34166 5.70981 2 6.81737 2 8.00001C2 9.19212 2.34133 10.2885 2.94045 11.2194C3.0899 11.4516 3.0228 11.761 2.79059 11.9105C2.55838 12.0599 2.24899 11.9928 2.09955 11.7606C1.39867 10.6715 1 9.3879 1 8.00001C1 6.62265 1.39834 5.33021 2.08765 4.24238C2.23546 4.00913 2.54437 3.93986 2.77763 4.08766Z" fill="white"/>
<path d="M14.0072 4.41009C13.8637 4.17416 13.5561 4.09924 13.3202 4.24274C13.0842 4.38624 13.0093 4.69383 13.1528 4.92976C13.695 5.82113 14 6.87119 14 7.99992C14 9.12557 13.6865 10.1782 13.1497 11.0853C13.0091 11.3229 13.0877 11.6296 13.3253 11.7702C13.563 11.9109 13.8696 11.8322 14.0103 11.5946C14.6334 10.5417 15 9.31428 15 7.99992C15 6.68866 14.645 5.45872 14.0072 4.41009Z" fill="white"/>
<path d="M11.7576 13.9123C11.9909 13.7645 12.0602 13.4556 11.9124 13.2224C11.7646 12.9891 11.4556 12.9198 11.2224 13.0676C10.2902 13.6583 9.18265 14 8.00001 14C6.87401 14 5.82223 13.6864 4.92661 13.1509C4.6896 13.0091 4.38259 13.0864 4.24088 13.3234C4.09916 13.5604 4.17641 13.8674 4.41342 14.0091C5.4578 14.6336 6.68602 15 8.00001 15C9.37737 15 10.6698 14.6017 11.7576 13.9123Z" fill="white"/>
<path d="M9.99992 5.5858V5.00001C9.99992 4.72387 9.77607 4.50001 9.49992 4.50001C9.22378 4.50001 8.99992 4.72387 8.99992 5.00001V7.00001C8.99992 7.27616 9.22378 7.50001 9.49992 7.50001H11.4999C11.7761 7.50001 11.9999 7.27616 11.9999 7.00001C11.9999 6.72387 11.7761 6.50001 11.4999 6.50001H10.4999L14.1464 2.85357C14.3416 2.65831 14.3416 2.34172 14.1464 2.14646C13.9511 1.9512 13.6345 1.9512 13.4393 2.14646L9.99992 5.5858Z" fill="white"/>
<path d="M10.9141 10H11.4999C11.7761 10 11.9999 9.77616 11.9999 9.50001C11.9999 9.22387 11.7761 9.00001 11.4999 9.00001H9.49992C9.22378 9.00001 8.99992 9.22387 8.99992 9.50001V11.5C8.99992 11.7762 9.22378 12 9.49992 12C9.77607 12 9.99992 11.7762 9.99992 11.5V10.5L13.6464 14.1465C13.8416 14.3417 14.1582 14.3417 14.3535 14.1465C14.5487 13.9512 14.5487 13.6346 14.3535 13.4394L10.9141 10Z" fill="white"/>
<path d="M6.49992 5.5858V5.00001C6.49992 4.72387 6.72378 4.50001 6.99992 4.50001C7.27607 4.50001 7.49992 4.72387 7.49992 5.00001V7.00001C7.49992 7.27616 7.27607 7.50001 6.99992 7.50001H4.99992C4.72378 7.50001 4.49992 7.27616 4.49992 7.00001C4.49992 6.72387 4.72378 6.50001 4.99992 6.50001H5.99992L2.35348 2.85357C2.15822 2.65831 2.15822 2.34172 2.35348 2.14646C2.54874 1.9512 2.86532 1.9512 3.06058 2.14646L6.49992 5.5858Z" fill="white"/>
<path d="M5.58571 10H4.99992C4.72378 10 4.49992 9.77616 4.49992 9.50001C4.49992 9.22387 4.72378 9.00001 4.99992 9.00001H6.79233C6.792 9.00001 6.79265 9.00001 6.79233 9.00001H6.99992C7.27607 9.00001 7.49992 9.22387 7.49992 9.50001V11.5C7.49992 11.7762 7.27607 12 6.99992 12C6.72378 12 6.49992 11.7762 6.49992 11.5V10.5L2.85348 14.1465C2.65822 14.3417 2.34163 14.3417 2.14637 14.1465C1.95111 13.9512 1.95111 13.6346 2.14637 13.4394L5.58571 10Z" fill="white"/>
</svg>
