<svg width="20" height="21" viewBox="0 0 20 21" fill="none" xmlns="http://www.w3.org/2000/svg">
<path d="M10 1.875C8.38065 1.875 6.86825 2.32656 5.57034 3.09471C5.3327 3.23536 5.25407 3.54202 5.39472 3.77966C5.53536 4.0173 5.84202 4.09593 6.07967 3.95529C7.23176 3.27344 8.56936 2.875 10 2.875C11.5025 2.875 12.9088 3.30905 14.0919 4.07045C14.3241 4.2199 14.6335 4.1528 14.783 3.92059C14.9324 3.68838 14.8653 3.37899 14.6331 3.22955C13.2912 2.36595 11.6975 1.875 10 1.875Z" fill="white"/>
<path d="M3.40513 5.71517C3.63838 5.86297 3.70765 6.17188 3.55985 6.40514C2.80916 7.58981 2.375 8.99737 2.375 10.5C2.375 12.0146 2.80883 13.4085 3.57045 14.5919C3.7199 14.8241 3.6528 15.1335 3.42059 15.283C3.18838 15.4324 2.87899 15.3653 2.72955 15.1331C1.86617 13.7915 1.375 12.2104 1.375 10.5C1.375 8.80265 1.86584 7.21021 2.71515 5.86989C2.86296 5.63663 3.17187 5.56736 3.40513 5.71517Z" fill="white"/>
<path d="M17.4022 6.07757C17.2587 5.84164 16.9511 5.76672 16.7151 5.91022C16.4792 6.05372 16.4043 6.36131 16.5478 6.59724C17.2375 7.73111 17.625 9.06617 17.625 10.4999C17.625 11.9305 17.2265 13.2682 16.5447 14.4202C16.404 14.6579 16.4827 14.9645 16.7203 15.1052C16.958 15.2458 17.2646 15.1672 17.4053 14.9296C18.1734 13.6317 18.625 12.1193 18.625 10.4999C18.625 8.88364 18.1875 7.3687 17.4022 6.07757Z" fill="white"/>
<path d="M14.6301 17.7848C14.8634 17.637 14.9327 17.3281 14.7849 17.0949C14.6371 16.8616 14.3281 16.7923 14.0949 16.9401C12.9102 17.6908 11.5027 18.125 10 18.125C8.56901 18.125 7.23223 17.7264 6.09411 17.0459C5.85711 16.9041 5.5501 16.9814 5.40838 17.2184C5.26667 17.4554 5.34391 17.7624 5.58092 17.9041C6.8678 18.6736 8.38102 19.125 10 19.125C11.6974 19.125 13.2898 18.6341 14.6301 17.7848Z" fill="white"/>
<path d="M12.375 7.96086V6.75008C12.375 6.47393 12.1511 6.25008 11.875 6.25008C11.5988 6.25008 11.375 6.47393 11.375 6.75008V9.25008C11.375 9.52622 11.5988 9.75008 11.875 9.75008H14.375C14.6511 9.75008 14.875 9.52622 14.875 9.25008C14.875 8.97393 14.6511 8.75008 14.375 8.75008H13L17.7714 3.97863C17.9667 3.78337 17.9667 3.46678 17.7714 3.27152C17.5762 3.07626 17.2596 3.07626 17.0643 3.27152L12.375 7.96086Z" fill="white"/>
<path d="M13.1642 12.8751H14.375C14.6511 12.8751 14.875 12.6512 14.875 12.3751C14.875 12.0989 14.6511 11.8751 14.375 11.8751H11.875C11.5988 11.8751 11.375 12.0989 11.375 12.3751V14.8751C11.375 15.1512 11.5988 15.3751 11.875 15.3751C12.1511 15.3751 12.375 15.1512 12.375 14.8751V13.5001L17.1464 18.2715C17.3417 18.4668 17.6583 18.4668 17.8535 18.2715C18.0488 18.0763 18.0488 17.7597 17.8535 17.5644L13.1642 12.8751Z" fill="white"/>
<path d="M8.24999 7.96086L8.24999 6.75008C8.24999 6.47393 8.47384 6.25008 8.74999 6.25008C9.02613 6.25008 9.24999 6.47393 9.24999 6.75008L9.24999 9.25008C9.24999 9.52622 9.02613 9.75008 8.74999 9.75008H6.24999C5.97384 9.75008 5.74999 9.52622 5.74999 9.25008C5.74999 8.97393 5.97384 8.75008 6.24999 8.75008H7.62499L2.85354 3.97863C2.65828 3.78337 2.65828 3.46678 2.85354 3.27152C3.0488 3.07626 3.36538 3.07626 3.56065 3.27152L8.24999 7.96086Z" fill="white"/>
<path d="M7.46077 12.8751H6.24999C5.97385 12.8751 5.74999 12.6512 5.74999 12.3751C5.74999 12.0989 5.97385 11.8751 6.24999 11.8751H8.66739C8.66706 11.8751 8.66772 11.8751 8.66739 11.8751H8.74999C9.02613 11.8751 9.24999 12.0989 9.24999 12.3751V14.8751C9.24999 15.1512 9.02613 15.3751 8.74999 15.3751C8.47385 15.3751 8.24999 15.1512 8.24999 14.8751V13.5001L3.47854 18.2715C3.28328 18.4668 2.9667 18.4668 2.77143 18.2715C2.57617 18.0763 2.57617 17.7597 2.77143 17.5644L7.46077 12.8751Z" fill="white"/>
</svg>
