<svg width="16" height="16" viewBox="0 0 16 16" fill="none" xmlns="http://www.w3.org/2000/svg">
<path d="M9.28599 1.37069C9.21447 1.10397 8.94025 0.945655 8.67351 1.01708C8.40676 1.0885 8.2485 1.36262 8.32002 1.62935L8.78306 3.35626C8.85458 3.62298 9.1288 3.7813 9.39554 3.70988C9.66229 3.63845 9.82055 3.36433 9.74903 3.09761L9.28599 1.37069Z" fill="white"/>
<path d="M6.74588 3.26328C6.50653 3.12556 6.20029 3.20761 6.06186 3.44656C5.92344 3.6855 6.00525 3.99084 6.2446 4.12856L7.79798 5.02236C8.03733 5.16008 8.34358 5.07802 8.482 4.83908C8.62042 4.60014 8.53861 4.29479 8.29926 4.15707L6.74588 3.26328Z" fill="white"/>
<path fill-rule="evenodd" clip-rule="evenodd" d="M9.93786 4.4035C9.16673 4.4035 8.54102 5.02828 8.54102 5.79972C8.54102 6.27222 8.77575 6.68971 9.13487 6.94231L8.11792 10.4246C8.02446 10.4323 7.93361 10.4491 7.84625 10.4742L6.78462 9.07546C6.93507 8.85273 7.02293 8.58425 7.02293 8.29517C7.02293 7.52374 6.39722 6.89895 5.62609 6.89895C4.85496 6.89895 4.22925 7.52374 4.22925 8.29517C4.22925 8.62975 4.34694 8.93673 4.54315 9.17713L2.90171 12.2188C2.84343 12.2114 2.78403 12.2076 2.72375 12.2076C1.95262 12.2076 1.3269 12.8324 1.3269 13.6038C1.3269 14.3752 1.95262 15 2.72375 15C3.49487 15 4.12059 14.3752 4.12059 13.6038C4.12059 13.2556 3.99309 12.9372 3.78227 12.6927L5.41084 9.67491C5.481 9.68576 5.55289 9.69139 5.62609 9.69139C5.74304 9.69139 5.85665 9.67702 5.96524 9.64995L7.04815 11.0768C6.91399 11.2911 6.83643 11.5446 6.83643 11.8162C6.83643 12.5876 7.46214 13.2124 8.23327 13.2124C9.0044 13.2124 9.63011 12.5876 9.63011 11.8162C9.63011 11.3623 9.41348 10.9591 9.07806 10.7042L10.1055 7.18599C10.7977 7.10323 11.3347 6.51441 11.3347 5.79972C11.3347 5.02828 10.709 4.4035 9.93786 4.4035ZM9.54102 5.79972C9.54102 5.58122 9.71836 5.4035 9.93786 5.4035C10.1574 5.4035 10.3347 5.58122 10.3347 5.79972C10.3347 6.01822 10.1574 6.19594 9.93786 6.19594C9.71836 6.19594 9.54102 6.01822 9.54102 5.79972ZM5.22925 8.29517C5.22925 8.07667 5.40659 7.89895 5.62609 7.89895C5.84559 7.89895 6.02293 8.07667 6.02293 8.29517C6.02293 8.51367 5.84559 8.69139 5.62609 8.69139C5.40659 8.69139 5.22925 8.51367 5.22925 8.29517ZM2.3269 13.6038C2.3269 13.3853 2.50425 13.2076 2.72375 13.2076C2.94324 13.2076 3.12059 13.3853 3.12059 13.6038C3.12059 13.8223 2.94324 14 2.72375 14C2.50425 14 2.3269 13.8223 2.3269 13.6038ZM8.23327 11.4199C8.01377 11.4199 7.83643 11.5977 7.83643 11.8162C7.83643 12.0347 8.01377 12.2124 8.23327 12.2124C8.45277 12.2124 8.63011 12.0347 8.63011 11.8162C8.63011 11.5977 8.45277 11.4199 8.23327 11.4199Z" fill="white"/>
<path d="M11.4986 6.57491C11.6371 6.33597 11.9433 6.25391 12.1826 6.39163L13.736 7.28543C13.9754 7.42315 14.0572 7.72849 13.9188 7.96744C13.7803 8.20638 13.4741 8.28844 13.2347 8.15072L11.6814 7.25692C11.442 7.1192 11.3602 6.81386 11.4986 6.57491Z" fill="white"/>
<path d="M11.9575 5.18152C11.8858 4.91485 12.0439 4.64091 12.3107 4.56967L14.0436 4.10692C14.3104 4.03568 14.5848 4.1941 14.6565 4.46077C14.7282 4.72745 14.57 5.00138 14.3032 5.07263L12.5704 5.53537C12.3036 5.60662 12.0292 5.44819 11.9575 5.18152Z" fill="white"/>
<path d="M10.9536 4.04413C10.7143 3.90641 10.6325 3.60107 10.7709 3.36212L11.6676 1.81429C11.806 1.57535 12.1123 1.49329 12.3516 1.63101C12.591 1.76873 12.6728 2.07407 12.5343 2.31302L11.6377 3.86085C11.4992 4.09979 11.193 4.18185 10.9536 4.04413Z" fill="white"/>
</svg>
