<svg width="16" height="16" viewBox="0 0 16 16" fill="none" xmlns="http://www.w3.org/2000/svg">
<path fill-rule="evenodd" clip-rule="evenodd" d="M8 2C4.90721 2 2 4.90721 2 8C2 11.0928 4.90721 14 8 14C11.0928 14 14 11.0928 14 8C14 4.90721 11.0928 2 8 2ZM1 8C1 4.13401 4.13401 1 8 1C11.866 1 15 4.13401 15 8C15 11.866 11.866 15 8 15C4.13401 15 1 11.866 1 8Z" fill="white"/>
<path d="M8.69167 6.75422V12.4998H7.30847V6.75422H8.69167ZM8.89887 5.07982C8.89887 5.19929 8.87461 5.31129 8.82607 5.41582C8.77754 5.52035 8.71221 5.61182 8.63007 5.69022C8.55167 5.76862 8.45834 5.83209 8.35007 5.88062C8.24181 5.92542 8.12607 5.94782 8.00287 5.94782C7.88341 5.94782 7.76954 5.92542 7.66127 5.88062C7.55674 5.83209 7.46527 5.76862 7.38687 5.69022C7.30847 5.61182 7.24501 5.52035 7.19647 5.41582C7.15167 5.31129 7.12927 5.19929 7.12927 5.07982C7.12927 4.95662 7.15167 4.84089 7.19647 4.73262C7.24501 4.62435 7.30847 4.53102 7.38687 4.45262C7.46527 4.37422 7.55674 4.31262 7.66127 4.26782C7.76954 4.21929 7.88341 4.19502 8.00287 4.19502C8.12607 4.19502 8.24181 4.21929 8.35007 4.26782C8.45834 4.31262 8.55167 4.37422 8.63007 4.45262C8.71221 4.53102 8.77754 4.62435 8.82607 4.73262C8.87461 4.84089 8.89887 4.95662 8.89887 5.07982Z" fill="white"/>
</svg>
