<svg width="16" height="16" viewBox="0 0 16 16" fill="none" xmlns="http://www.w3.org/2000/svg">
<path fill-rule="evenodd" clip-rule="evenodd" d="M1.5 2C1.5 1.72386 1.72386 1.5 2 1.5H7C7.27614 1.5 7.5 1.72386 7.5 2C7.5 2.27614 7.27614 2.5 7 2.5H2C1.72386 2.5 1.5 2.27614 1.5 2ZM9.5 2C9.5 1.72386 9.72386 1.5 10 1.5H14C14.2761 1.5 14.5 1.72386 14.5 2C14.5 2.27614 14.2761 2.5 14 2.5H10C9.72386 2.5 9.5 2.27614 9.5 2ZM1.5 5C1.5 4.72386 1.72386 4.5 2 4.5H4C4.27614 4.5 4.5 4.72386 4.5 5C4.5 5.27614 4.27614 5.5 4 5.5H2C1.72386 5.5 1.5 5.27614 1.5 5ZM6.5 5C6.5 4.72386 6.72386 4.5 7 4.5H11C11.2761 4.5 11.5 4.72386 11.5 5C11.5 5.27614 11.2761 5.5 11 5.5H7C6.72386 5.5 6.5 5.27614 6.5 5ZM1.5 8C1.5 7.72386 1.72386 7.5 2 7.5H8C8.27614 7.5 8.5 7.72386 8.5 8C8.5 8.27614 8.27614 8.5 8 8.5H2C1.72386 8.5 1.5 8.27614 1.5 8ZM10.5 8C10.5 7.72386 10.7239 7.5 11 7.5H14C14.2761 7.5 14.5 7.72386 14.5 8C14.5 8.27614 14.2761 8.5 14 8.5H11C10.7239 8.5 10.5 8.27614 10.5 8ZM1.5 11C1.5 10.7239 1.72386 10.5 2 10.5H5C5.27614 10.5 5.5 10.7239 5.5 11C5.5 11.2761 5.27614 11.5 5 11.5H2C1.72386 11.5 1.5 11.2761 1.5 11ZM7.5 11C7.5 10.7239 7.72386 10.5 8 10.5H12C12.2761 10.5 12.5 10.7239 12.5 11C12.5 11.2761 12.2761 11.5 12 11.5H8C7.72386 11.5 7.5 11.2761 7.5 11ZM1.5 14C1.5 13.7239 1.72386 13.5 2 13.5H8C8.27614 13.5 8.5 13.7239 8.5 14C8.5 14.2761 8.27614 14.5 8 14.5H2C1.72386 14.5 1.5 14.2761 1.5 14ZM10.5 14C10.5 13.7239 10.7239 13.5 11 13.5H13C13.2761 13.5 13.5 13.7239 13.5 14C13.5 14.2761 13.2761 14.5 13 14.5H11C10.7239 14.5 10.5 14.2761 10.5 14Z" fill="white"/>
</svg>
