<svg width="16" height="16" viewBox="0 0 16 16" fill="none" xmlns="http://www.w3.org/2000/svg">
<path fill-rule="evenodd" clip-rule="evenodd" d="M8 14C11.3137 14 14 11.3137 14 8C14 4.68629 11.3137 2 8 2C4.68629 2 2 4.68629 2 8C2 11.3137 4.68629 14 8 14ZM8 15C11.866 15 15 11.866 15 8C15 4.13401 11.866 1 8 1C4.13401 1 1 4.13401 1 8C1 11.866 4.13401 15 8 15Z" fill="white"/>
<path d="M8.5 4.47925C8.5 4.75539 8.27614 4.97925 8 4.97925C7.72386 4.97925 7.5 4.75539 7.5 4.47925C7.5 4.20311 7.72386 3.97925 8 3.97925C8.27614 3.97925 8.5 4.20311 8.5 4.47925Z" fill="white"/>
<path fill-rule="evenodd" clip-rule="evenodd" d="M7.5 11.5208L7.5 6H8.5L8.5 11.5208C8.5 11.7969 8.27614 12.0208 8 12.0208C7.72386 12.0208 7.5 11.7969 7.5 11.5208Z" fill="white"/>
</svg>
