<svg width="16" height="16" viewBox="0 0 16 16" fill="none" xmlns="http://www.w3.org/2000/svg">
<path fill-rule="evenodd" clip-rule="evenodd" d="M6.52789 1.74556C6.69321 1.31018 7.12148 1 7.62375 1C8.12602 1 8.55429 1.31018 8.7196 1.74556H9.48C9.76952 1.74556 10.0068 1.96457 10.0284 2.2426H11.35C12.2613 2.2426 13 2.96584 13 3.85799V13.3846C13 14.2768 12.2613 15 11.35 15H3.65C2.73873 15 2 14.2768 2 13.3846V3.85799C2 2.96584 2.73873 2.2426 3.65 2.2426H4.9716C4.99321 1.96457 5.23048 1.74556 5.52 1.74556H6.52789ZM4.97 3.31953H3.65C3.34624 3.31953 3.1 3.5606 3.1 3.85799V13.3846C3.1 13.682 3.34624 13.9231 3.65 13.9231H11.35C11.6538 13.9231 11.9 13.682 11.9 13.3846V3.85799C11.9 3.5606 11.6538 3.31953 11.35 3.31953H10.03V3.52663C10.03 3.82401 9.78376 4.06509 9.48 4.06509H5.52C5.21624 4.06509 4.97 3.82401 4.97 3.52663V3.31953ZM4.2275 6.26036C4.2275 5.96297 4.47374 5.72189 4.7775 5.72189H7.2525C7.55626 5.72189 7.8025 5.96297 7.8025 6.26036C7.8025 6.55774 7.55626 6.79882 7.2525 6.79882H4.7775C4.47374 6.79882 4.2275 6.55774 4.2275 6.26036ZM4.2275 8.96154C4.2275 8.66415 4.47374 8.42308 4.7775 8.42308H10.2225C10.5263 8.42308 10.7725 8.66415 10.7725 8.96154C10.7725 9.25892 10.5263 9.5 10.2225 9.5H4.7775C4.47374 9.5 4.2275 9.25892 4.2275 8.96154ZM4.2275 11.5385C4.2275 11.2411 4.47374 11 4.7775 11H10.2225C10.5263 11 10.7725 11.2411 10.7725 11.5385C10.7725 11.8358 10.5263 12.0769 10.2225 12.0769H4.7775C4.47374 12.0769 4.2275 11.8358 4.2275 11.5385Z" fill="white"/>
</svg>
