<svg width="16" height="16" viewBox="0 0 16 16" fill="none" xmlns="http://www.w3.org/2000/svg">
<path fill-rule="evenodd" clip-rule="evenodd" d="M1 1.5C1 1.22386 1.22386 1 1.5 1H6.91667C7.19281 1 7.41667 1.22386 7.41667 1.5C7.41667 1.77614 7.19281 2 6.91667 2H1.5C1.22386 2 1 1.77614 1 1.5ZM9.66667 1.5C9.66667 1.22386 9.89052 1 10.1667 1H14.5C14.7761 1 15 1.22386 15 1.5C15 1.77614 14.7761 2 14.5 2H10.1667C9.89052 2 9.66667 1.77614 9.66667 1.5ZM1 4.75C1 4.47386 1.22386 4.25 1.5 4.25H3.66667C3.94281 4.25 4.16667 4.47386 4.16667 4.75C4.16667 5.02614 3.94281 5.25 3.66667 5.25H1.5C1.22386 5.25 1 5.02614 1 4.75ZM6.41667 4.75C6.41667 4.47386 6.64052 4.25 6.91667 4.25H11.25C11.5261 4.25 11.75 4.47386 11.75 4.75C11.75 5.02614 11.5261 5.25 11.25 5.25H6.91667C6.64052 5.25 6.41667 5.02614 6.41667 4.75ZM1 8C1 7.72386 1.22386 7.5 1.5 7.5H8C8.27614 7.5 8.5 7.72386 8.5 8C8.5 8.27614 8.27614 8.5 8 8.5H1.5C1.22386 8.5 1 8.27614 1 8ZM10.75 8C10.75 7.72386 10.9739 7.5 11.25 7.5H14.5C14.7761 7.5 15 7.72386 15 8C15 8.27614 14.7761 8.5 14.5 8.5H11.25C10.9739 8.5 10.75 8.27614 10.75 8ZM1 11.25C1 10.9739 1.22386 10.75 1.5 10.75H4.75C5.02614 10.75 5.25 10.9739 5.25 11.25C5.25 11.5261 5.02614 11.75 4.75 11.75H1.5C1.22386 11.75 1 11.5261 1 11.25ZM7.5 11.25C7.5 10.9739 7.72386 10.75 8 10.75H12.3333C12.6095 10.75 12.8333 10.9739 12.8333 11.25C12.8333 11.5261 12.6095 11.75 12.3333 11.75H8C7.72386 11.75 7.5 11.5261 7.5 11.25ZM1 14.5C1 14.2239 1.22386 14 1.5 14H8C8.27614 14 8.5 14.2239 8.5 14.5C8.5 14.7761 8.27614 15 8 15H1.5C1.22386 15 1 14.7761 1 14.5ZM10.75 14.5C10.75 14.2239 10.9739 14 11.25 14H13.4167C13.6928 14 13.9167 14.2239 13.9167 14.5C13.9167 14.7761 13.6928 15 13.4167 15H11.25C10.9739 15 10.75 14.7761 10.75 14.5Z" fill="white"/>
</svg>
