<svg width="16" height="16" viewBox="0 0 16 16" fill="none" xmlns="http://www.w3.org/2000/svg">
<path fill-rule="evenodd" clip-rule="evenodd" d="M2.49999 1.70005C2.39115 1.70005 2.28786 1.72167 2.19381 1.76067C2.09178 1.80299 1.97477 1.75457 1.93245 1.65254C1.89014 1.55051 1.93856 1.4335 2.04059 1.39118C2.18236 1.3324 2.33765 1.30005 2.49999 1.30005H2.93749C3.04794 1.30005 3.13749 1.38959 3.13749 1.50005C3.13749 1.61051 3.04794 1.70005 2.93749 1.70005H2.49999ZM3.61249 1.50005C3.61249 1.38959 3.70203 1.30005 3.81249 1.30005H4.68749C4.79794 1.30005 4.88749 1.38959 4.88749 1.50005C4.88749 1.61051 4.79794 1.70005 4.68749 1.70005H3.81249C3.70203 1.70005 3.61249 1.61051 3.61249 1.50005ZM5.36249 1.50005C5.36249 1.38959 5.45203 1.30005 5.56249 1.30005H6.43749C6.54794 1.30005 6.63749 1.38959 6.63749 1.50005C6.63749 1.61051 6.54794 1.70005 6.43749 1.70005H5.56249C5.45203 1.70005 5.36249 1.61051 5.36249 1.50005ZM7.11249 1.50005C7.11249 1.38959 7.20203 1.30005 7.31249 1.30005H8.18749C8.29794 1.30005 8.38749 1.38959 8.38749 1.50005C8.38749 1.61051 8.29794 1.70005 8.18749 1.70005H7.31249C7.20203 1.70005 7.11249 1.61051 7.11249 1.50005ZM8.86249 1.50005C8.86249 1.38959 8.95203 1.30005 9.06249 1.30005H9.49999C9.66233 1.30005 9.81762 1.3324 9.95939 1.39118C10.0614 1.4335 10.1098 1.55051 10.0675 1.65254C10.0252 1.75457 9.9082 1.80299 9.80616 1.76067C9.71212 1.72167 9.60883 1.70005 9.49999 1.70005H9.06249C8.95203 1.70005 8.86249 1.61051 8.86249 1.50005ZM1.65248 1.93252C1.75451 1.97483 1.80292 2.09184 1.76061 2.19387C1.72161 2.28792 1.69999 2.39121 1.69999 2.50005V2.93755C1.69999 3.04801 1.61044 3.13755 1.49999 3.13755C1.38953 3.13755 1.29999 3.04801 1.29999 2.93755V2.50005C1.29999 2.33771 1.33233 2.18242 1.39112 2.04065C1.43343 1.93862 1.55045 1.8902 1.65248 1.93252ZM10.3475 1.93252C10.4495 1.8902 10.5665 1.93862 10.6089 2.04065C10.6676 2.18242 10.7 2.33771 10.7 2.50005V2.87505C10.7 2.98551 10.6104 3.07505 10.5 3.07505C10.3895 3.07505 10.3 2.98551 10.3 2.87505V2.50005C10.3 2.39121 10.2784 2.28792 10.2394 2.19387C10.1971 2.09184 10.2455 1.97483 10.3475 1.93252ZM10.5 3.42505C10.6104 3.42505 10.7 3.51459 10.7 3.62505V4.37505C10.7 4.48551 10.6104 4.57505 10.5 4.57505C10.3895 4.57505 10.3 4.48551 10.3 4.37505V3.62505C10.3 3.51459 10.3895 3.42505 10.5 3.42505ZM1.49999 3.61255C1.61044 3.61255 1.69999 3.70209 1.69999 3.81255V4.68755C1.69999 4.79801 1.61044 4.88755 1.49999 4.88755C1.38953 4.88755 1.29999 4.79801 1.29999 4.68755V3.81255C1.29999 3.70209 1.38953 3.61255 1.49999 3.61255ZM11.425 5.50005C11.425 5.38959 11.5145 5.30005 11.625 5.30005H12.375C12.4854 5.30005 12.575 5.38959 12.575 5.50005C12.575 5.61051 12.4854 5.70005 12.375 5.70005H11.625C11.5145 5.70005 11.425 5.61051 11.425 5.50005ZM12.925 5.50005C12.925 5.38959 13.0145 5.30005 13.125 5.30005H13.5C13.6623 5.30005 13.8176 5.3324 13.9594 5.39118C14.0614 5.4335 14.1098 5.55051 14.0675 5.65254C14.0252 5.75457 13.9082 5.80299 13.8062 5.76067C13.7121 5.72167 13.6088 5.70005 13.5 5.70005H13.125C13.0145 5.70005 12.925 5.61051 12.925 5.50005ZM1.49999 5.36255C1.61044 5.36255 1.69999 5.45209 1.69999 5.56255V6.43755C1.69999 6.54801 1.61044 6.63755 1.49999 6.63755C1.38953 6.63755 1.29999 6.54801 1.29999 6.43755V5.56255C1.29999 5.45209 1.38953 5.36255 1.49999 5.36255ZM14.3475 5.93252C14.4495 5.8902 14.5665 5.93862 14.6089 6.04065C14.6676 6.18242 14.7 6.33771 14.7 6.50005V6.93755C14.7 7.04801 14.6104 7.13755 14.5 7.13755C14.3895 7.13755 14.3 7.04801 14.3 6.93755V6.50005C14.3 6.39121 14.2784 6.28792 14.2394 6.19387C14.1971 6.09184 14.2455 5.97483 14.3475 5.93252ZM1.49999 7.11255C1.61044 7.11255 1.69999 7.20209 1.69999 7.31255V8.18755C1.69999 8.29801 1.61044 8.38755 1.49999 8.38755C1.38953 8.38755 1.29999 8.29801 1.29999 8.18755V7.31255C1.29999 7.20209 1.38953 7.11255 1.49999 7.11255ZM14.5 7.61255C14.6104 7.61255 14.7 7.70209 14.7 7.81255V8.68755C14.7 8.79801 14.6104 8.88755 14.5 8.88755C14.3895 8.88755 14.3 8.79801 14.3 8.68755V7.81255C14.3 7.70209 14.3895 7.61255 14.5 7.61255ZM1.49999 8.86255C1.61044 8.86255 1.69999 8.95209 1.69999 9.06255V9.50005C1.69999 9.60889 1.72161 9.71218 1.76061 9.80623C1.80292 9.90826 1.75451 10.0253 1.65248 10.0676C1.55045 10.1099 1.43343 10.0615 1.39112 9.95945C1.33233 9.81768 1.29999 9.66239 1.29999 9.50005V9.06255C1.29999 8.95209 1.38953 8.86255 1.49999 8.86255ZM14.5 9.36255C14.6104 9.36255 14.7 9.45209 14.7 9.56255V10.4375C14.7 10.548 14.6104 10.6375 14.5 10.6375C14.3895 10.6375 14.3 10.548 14.3 10.4375V9.56255C14.3 9.45209 14.3895 9.36255 14.5 9.36255ZM1.93245 10.3476C1.97477 10.2455 2.09178 10.1971 2.19381 10.2394C2.28786 10.2784 2.39115 10.3 2.49999 10.3H2.87499C2.98544 10.3 3.07499 10.3896 3.07499 10.5C3.07499 10.6105 2.98544 10.7 2.87499 10.7H2.49999C2.33765 10.7 2.18236 10.6677 2.04059 10.6089C1.93856 10.5666 1.89014 10.4496 1.93245 10.3476ZM3.42499 10.5C3.42499 10.3896 3.51453 10.3 3.62499 10.3H4.37499C4.48544 10.3 4.57499 10.3896 4.57499 10.5C4.57499 10.6105 4.48544 10.7 4.37499 10.7H3.62499C3.51453 10.7 3.42499 10.6105 3.42499 10.5ZM14.5 11.1125C14.6104 11.1125 14.7 11.2021 14.7 11.3125V12.1875C14.7 12.298 14.6104 12.3875 14.5 12.3875C14.3895 12.3875 14.3 12.298 14.3 12.1875V11.3125C14.3 11.2021 14.3895 11.1125 14.5 11.1125ZM5.49999 11.425C5.61044 11.425 5.69999 11.5146 5.69999 11.625V12.375C5.69999 12.4855 5.61044 12.575 5.49999 12.575C5.38953 12.575 5.29999 12.4855 5.29999 12.375V11.625C5.29999 11.5146 5.38953 11.425 5.49999 11.425ZM14.5 12.8625C14.6104 12.8625 14.7 12.9521 14.7 13.0625V13.5C14.7 13.6624 14.6676 13.8177 14.6089 13.9594C14.5665 14.0615 14.4495 14.1099 14.3475 14.0676C14.2455 14.0253 14.1971 13.9083 14.2394 13.8062C14.2784 13.7122 14.3 13.6089 14.3 13.5V13.0625C14.3 12.9521 14.3895 12.8625 14.5 12.8625ZM5.49999 12.925C5.61044 12.925 5.69999 13.0146 5.69999 13.125V13.5C5.69999 13.6089 5.72161 13.7122 5.76061 13.8062C5.80292 13.9083 5.75451 14.0253 5.65248 14.0676C5.55045 14.1099 5.43343 14.0615 5.39112 13.9594C5.33233 13.8177 5.29999 13.6624 5.29999 13.5V13.125C5.29999 13.0146 5.38953 12.925 5.49999 12.925ZM5.93245 14.3476C5.97477 14.2455 6.09178 14.1971 6.19381 14.2394C6.28786 14.2784 6.39115 14.3 6.49999 14.3H6.93749C7.04794 14.3 7.13749 14.3896 7.13749 14.5C7.13749 14.6105 7.04794 14.7 6.93749 14.7H6.49999C6.33765 14.7 6.18236 14.6677 6.04059 14.6089C5.93856 14.5666 5.89014 14.4496 5.93245 14.3476ZM14.0675 14.3476C14.1098 14.4496 14.0614 14.5666 13.9594 14.6089C13.8176 14.6677 13.6623 14.7 13.5 14.7H13.0625C12.952 14.7 12.8625 14.6105 12.8625 14.5C12.8625 14.3896 12.952 14.3 13.0625 14.3H13.5C13.6088 14.3 13.7121 14.2784 13.8062 14.2394C13.9082 14.1971 14.0252 14.2455 14.0675 14.3476ZM7.61249 14.5C7.61249 14.3896 7.70203 14.3 7.81249 14.3H8.68749C8.79794 14.3 8.88749 14.3896 8.88749 14.5C8.88749 14.6105 8.79794 14.7 8.68749 14.7H7.81249C7.70203 14.7 7.61249 14.6105 7.61249 14.5ZM9.36249 14.5C9.36249 14.3896 9.45203 14.3 9.56249 14.3H10.4375C10.5479 14.3 10.6375 14.3896 10.6375 14.5C10.6375 14.6105 10.5479 14.7 10.4375 14.7H9.56249C9.45203 14.7 9.36249 14.6105 9.36249 14.5ZM11.1125 14.5C11.1125 14.3896 11.202 14.3 11.3125 14.3H12.1875C12.2979 14.3 12.3875 14.3896 12.3875 14.5C12.3875 14.6105 12.2979 14.7 12.1875 14.7H11.3125C11.202 14.7 11.1125 14.6105 11.1125 14.5Z" fill="white"/>
<path fill-rule="evenodd" clip-rule="evenodd" d="M4.99999 6.50005C4.99999 5.67162 5.67156 5.00005 6.49999 5.00005H10.5C11 5 11 5.00005 11 5.50005V9.50005C11 10.3285 10.3284 11 9.49999 11H5.49999C5 11 4.99999 11 4.99999 10.5V6.50005ZM6.49999 6.00005C6.22385 6.00005 5.99999 6.22391 5.99999 6.50005V10H9.49999C9.77613 10 9.99999 9.77619 9.99999 9.50005V6.00005H6.49999Z" fill="white"/>
</svg>
