<svg width="16" height="16" viewBox="0 0 16 16" fill="none" xmlns="http://www.w3.org/2000/svg">
<path d="M1.5 1C1.22386 1 1 1.22386 1 1.5V2.54464C1 2.82079 1.22386 3.04464 1.5 3.04464C1.77614 3.04464 2 2.82079 2 2.54464V2H2.54464C2.82078 2 3.04464 1.77614 3.04464 1.5C3.04464 1.22386 2.82078 1 2.54464 1H1.5Z" fill="white"/>
<path d="M4.63393 1C4.35779 1 4.13393 1.22386 4.13393 1.5C4.13393 1.77614 4.35779 2 4.63393 2H6.72321C6.99936 2 7.22321 1.77614 7.22321 1.5C7.22321 1.22386 6.99936 1 6.72321 1H4.63393Z" fill="white"/>
<path d="M8.8125 1C8.53636 1 8.3125 1.22386 8.3125 1.5C8.3125 1.77614 8.53636 2 8.8125 2H9.35714V2.66071C9.35714 2.93686 9.581 3.16071 9.85714 3.16071C10.1333 3.16071 10.3571 2.93686 10.3571 2.66071V1.5C10.3571 1.22386 10.1333 1 9.85714 1H8.8125Z" fill="white"/>
<path d="M2 4.63393C2 4.35779 1.77614 4.13393 1.5 4.13393C1.22386 4.13393 1 4.35779 1 4.63393V6.72321C1 6.99936 1.22386 7.22321 1.5 7.22321C1.77614 7.22321 2 6.99936 2 6.72321V4.63393Z" fill="white"/>
<path fill-rule="evenodd" clip-rule="evenodd" d="M10.3571 4.98214C10.3571 4.706 10.1333 4.48214 9.85714 4.48214C9.581 4.48214 9.35714 4.706 9.35714 4.98214V5.64285H6.14282C5.86668 5.64285 5.64282 5.86671 5.64282 6.14285V9.35714H4.98214C4.706 9.35714 4.48214 9.581 4.48214 9.85714C4.48214 10.1333 4.706 10.3571 4.98214 10.3571H5.64286V11.3661C5.64286 11.6422 5.86671 11.8661 6.14286 11.8661C6.419 11.8661 6.64286 11.6422 6.64286 11.3661V10.3571H9.85711C10.1333 10.3571 10.3571 10.1333 10.3571 9.85714V6.64286H11.0179C11.294 6.64286 11.5179 6.419 11.5179 6.14286C11.5179 5.86671 11.294 5.64286 11.0179 5.64286H10.3571V4.98214ZM6.64282 9.35714V6.64285H9.35711V9.35714H6.64282Z" fill="white"/>
<path d="M13.3393 5.64286C13.0631 5.64286 12.8393 5.86671 12.8393 6.14286C12.8393 6.419 13.0631 6.64286 13.3393 6.64286H14V7.1875C14 7.46364 14.2239 7.6875 14.5 7.6875C14.7761 7.6875 15 7.46364 15 7.1875V6.14286C15 5.86671 14.7761 5.64286 14.5 5.64286H13.3393Z" fill="white"/>
<path d="M2 8.8125C2 8.53636 1.77614 8.3125 1.5 8.3125C1.22386 8.3125 1 8.53636 1 8.8125V9.85714C1 10.1333 1.22386 10.3571 1.5 10.3571H2.66071C2.93686 10.3571 3.16071 10.1333 3.16071 9.85714C3.16071 9.581 2.93686 9.35714 2.66071 9.35714H2V8.8125Z" fill="white"/>
<path d="M15 9.27678C15 9.00064 14.7761 8.77679 14.5 8.77679C14.2239 8.77679 14 9.00064 14 9.27678V11.3661C14 11.6422 14.2239 11.8661 14.5 11.8661C14.7761 11.8661 15 11.6422 15 11.3661V9.27678Z" fill="white"/>
<path d="M6.64286 13.4554C6.64286 13.1792 6.419 12.9554 6.14286 12.9554C5.86671 12.9554 5.64286 13.1792 5.64286 13.4554V14.5C5.64286 14.7761 5.86671 15 6.14286 15H7.1875C7.46364 15 7.6875 14.7761 7.6875 14.5C7.6875 14.2239 7.46364 14 7.1875 14H6.64286V13.4554Z" fill="white"/>
<path d="M15 13.4554C15 13.1792 14.7761 12.9554 14.5 12.9554C14.2239 12.9554 14 13.1792 14 13.4554V14H13.4554C13.1792 14 12.9554 14.2239 12.9554 14.5C12.9554 14.7761 13.1792 15 13.4554 15H14.5C14.7761 15 15 14.7761 15 14.5V13.4554Z" fill="white"/>
<path d="M9.27678 14C9.00064 14 8.77679 14.2239 8.77679 14.5C8.77679 14.7761 9.00064 15 9.27678 15H11.3661C11.6422 15 11.8661 14.7761 11.8661 14.5C11.8661 14.2239 11.6422 14 11.3661 14H9.27678Z" fill="white"/>
</svg>
