<svg width="16" height="16" viewBox="0 0 16 16" fill="none" xmlns="http://www.w3.org/2000/svg">
<path fill-rule="evenodd" clip-rule="evenodd" d="M1.65633 13.1825C1.45055 13.2563 1.30357 13.4508 1.30357 13.6792C1.30357 13.971 1.54341 14.2075 1.83928 14.2075C2.13514 14.2075 2.37499 13.971 2.37499 13.6792C2.37499 13.639 2.37042 13.5997 2.36176 13.5621C2.30771 13.3267 2.0943 13.1509 1.83928 13.1509C1.77503 13.1509 1.71342 13.1621 1.65633 13.1825ZM2.09846 12.3832C2.0146 12.367 1.92795 12.3585 1.83928 12.3585C1.09961 12.3585 0.5 12.9498 0.5 13.6792C0.5 14.4087 1.09961 15 1.83928 15C2.57894 15 3.17855 14.4087 3.17855 13.6792C3.17855 13.3234 3.03584 13.0004 2.80378 12.7629L4.79436 8.89982C4.87821 8.91603 4.96487 8.92453 5.05354 8.92453C5.2046 8.92453 5.34982 8.89986 5.48529 8.8544L6.92037 10.7843C6.75712 11.0032 6.66067 11.2735 6.66067 11.566C6.66067 12.2955 7.26029 12.8868 7.99995 12.8868C8.73961 12.8868 9.33923 12.2955 9.33923 11.566C9.33923 11.1771 9.16877 10.8275 8.89751 10.5858L10.7792 6.40502C10.834 6.41174 10.8898 6.4152 10.9464 6.4152C11.686 6.4152 12.2856 5.82388 12.2856 5.09445C12.2856 4.36501 11.686 3.77369 10.9464 3.77369C10.2067 3.77369 9.60708 4.36501 9.60708 5.09445C9.60708 5.48336 9.77754 5.83302 10.0488 6.07472L8.16708 10.2555C8.11232 10.2487 8.05655 10.2453 7.99995 10.2453C7.84889 10.2453 7.70367 10.2699 7.5682 10.3154L6.13311 8.38554C6.29637 8.16666 6.39282 7.89632 6.39282 7.60377C6.39282 6.87434 5.7932 6.28302 5.05354 6.28302C4.31388 6.28302 3.71426 6.87434 3.71426 7.60377C3.71426 7.95963 3.85698 8.28262 4.08904 8.52012L2.09846 12.3832ZM4.53106 7.72096C4.57679 7.92011 4.73661 8.07657 4.93919 8.12001C4.97603 8.12791 5.01429 8.13208 5.05354 8.13208C5.11779 8.13208 5.1794 8.12092 5.23648 8.10047C5.42784 8.03191 5.56835 7.85887 5.58711 7.65129C5.58853 7.63564 5.58925 7.61979 5.58925 7.60377C5.58925 7.312 5.34941 7.07547 5.05354 7.07547C4.75768 7.07547 4.51783 7.312 4.51783 7.60377C4.51783 7.64405 4.5224 7.68327 4.53106 7.72096ZM7.78242 11.0831C7.60889 11.1592 7.48399 11.3237 7.46638 11.5185C7.46496 11.5342 7.46424 11.55 7.46424 11.566C7.46424 11.8578 7.70408 12.0943 7.99995 12.0943C8.29581 12.0943 8.53566 11.8578 8.53566 11.566C8.53566 11.5129 8.52771 11.4616 8.51292 11.4133C8.45725 11.2312 8.30466 11.0906 8.11431 11.0498C8.07746 11.0419 8.0392 11.0377 7.99995 11.0377C7.9225 11.0377 7.8489 11.0539 7.78242 11.0831ZM10.4334 5.24721C10.4998 5.4645 10.7044 5.62275 10.9464 5.62275C11.0238 5.62275 11.0974 5.60654 11.1639 5.57738C11.3514 5.49514 11.4821 5.30985 11.4821 5.09445C11.4821 4.80267 11.2422 4.56615 10.9464 4.56615C10.6505 4.56615 10.4106 4.80267 10.4106 5.09445C10.4106 5.14756 10.4186 5.19885 10.4334 5.24721ZM9.21217 1.02044C9.42268 0.95124 9.65022 1.06344 9.72039 1.27104L10.2561 2.85594C10.3263 3.06354 10.2125 3.28793 10.002 3.35713C9.79148 3.42633 9.56394 3.31414 9.49377 3.10654L8.95806 1.52163C8.88789 1.31403 9.00166 1.08964 9.21217 1.02044ZM12.0628 3.57507C11.8781 3.45369 11.8282 3.20768 11.9513 3.0256L13.0228 1.4407C13.1458 1.25862 13.3953 1.20942 13.5799 1.3308C13.7646 1.45219 13.8144 1.69819 13.6914 1.88027L12.6199 3.46518C12.4969 3.64725 12.2474 3.69646 12.0628 3.57507Z" fill="white"/>
<path d="M6.95737 3.89069C7.03978 3.68751 7.27361 3.58868 7.47964 3.66995L8.81891 4.19826C9.02494 4.27953 9.12515 4.51012 9.04274 4.7133C8.96033 4.91648 8.7265 5.0153 8.52048 4.93403L7.1812 4.40573C6.97517 4.32446 6.87496 4.09387 6.95737 3.89069Z" fill="white"/>
<path d="M12.8254 4.88627C12.7941 4.66964 12.9467 4.46894 13.1664 4.43799L15.0413 4.17384C15.261 4.1429 15.4645 4.29342 15.4959 4.51005C15.5273 4.72668 15.3747 4.92739 15.155 4.95833L13.28 5.22248C13.0603 5.25343 12.8568 5.1029 12.8254 4.88627Z" fill="white"/>
<path d="M12.2881 6.39159C12.4103 6.20898 12.6596 6.15868 12.8448 6.27925L14.2585 7.19976C14.4436 7.32033 14.4946 7.56612 14.3724 7.74873C14.2501 7.93135 14.0009 7.98164 13.8157 7.86107L12.402 6.94057C12.2168 6.81999 12.1658 6.57421 12.2881 6.39159Z" fill="white"/>
</svg>
