<svg width="17" height="16" viewBox="0 0 17 16" fill="none" xmlns="http://www.w3.org/2000/svg">
<path fill-rule="evenodd" clip-rule="evenodd" d="M13.3584 4.24274C13.5943 4.09924 13.9019 4.17416 14.0454 4.41009C14.6832 5.45872 15.0382 6.68866 15.0382 7.99992C15.0382 9.31428 14.6717 10.5417 14.0485 11.5946C13.9079 11.8322 13.6012 11.9109 13.3636 11.7702C13.1259 11.6296 13.0473 11.3229 13.1879 11.0853C13.7248 10.1782 14.0382 9.12557 14.0382 7.99992C14.0382 6.87119 13.7332 5.82113 13.191 4.92976C13.0475 4.69383 13.1225 4.38624 13.3584 4.24274Z" fill="white"/>
<path fill-rule="evenodd" clip-rule="evenodd" d="M11.9506 13.2224C12.0984 13.4556 12.0291 13.7645 11.7959 13.9123C10.7081 14.6017 9.41561 15 8.03825 15C6.72426 15 5.49604 14.6336 4.45165 14.0091C4.21465 13.8674 4.1374 13.5604 4.27912 13.3234C4.42083 13.0864 4.72784 13.0091 4.96485 13.1509C5.86047 13.6864 6.91225 14 8.03825 14C9.22089 14 10.3285 13.6583 11.2606 13.0676C11.4939 12.9198 11.8028 12.9891 11.9506 13.2224Z" fill="white"/>
<path fill-rule="evenodd" clip-rule="evenodd" d="M2.81586 4.08766C3.04912 4.23547 3.11839 4.54438 2.97058 4.77764C2.3799 5.70981 2.03824 6.81737 2.03824 8.00001C2.03824 9.19212 2.37957 10.2885 2.97869 11.2194C3.12813 11.4516 3.06104 11.761 2.82883 11.9105C2.59662 12.0599 2.28723 11.9928 2.13778 11.7606C1.43691 10.6715 1.03824 9.3879 1.03824 8.00001C1.03824 6.62265 1.43658 5.33021 2.12589 4.24238C2.2737 4.00913 2.58261 3.93986 2.81586 4.08766Z" fill="white"/>
<path fill-rule="evenodd" clip-rule="evenodd" d="M4.44358 1.98971C5.49649 1.36656 6.72389 1 8.03824 1C9.41573 1 10.7094 1.39845 11.7988 2.09955C12.031 2.24899 12.0981 2.55838 11.9487 2.79059C11.7993 3.0228 11.4899 3.0899 11.2577 2.94045C10.3271 2.34155 9.22075 2 8.03824 2C6.9126 2 5.85999 2.31344 4.9529 2.85029C4.71526 2.99093 4.4086 2.9123 4.26795 2.67466C4.12731 2.43702 4.20594 2.13036 4.44358 1.98971Z" fill="white"/>
<path d="M6.53822 5.58586V5.00008C6.53822 4.72393 6.76208 4.50008 7.03822 4.50008C7.31437 4.50008 7.53822 4.72393 7.53822 5.00008V7.00008C7.53822 7.27622 7.31437 7.50008 7.03822 7.50008H5.03822C4.76208 7.50008 4.53822 7.27622 4.53822 7.00008C4.53822 6.72393 4.76208 6.50008 5.03822 6.50008H6.03822L2.39178 2.85363C2.19652 2.65837 2.19652 2.34178 2.39178 2.14652C2.58704 1.95126 2.90362 1.95126 3.09888 2.14652L6.53822 5.58586Z" fill="white"/>
<path d="M10.5383 6.50008H11.5383C11.8144 6.50008 12.0383 6.72393 12.0383 7.00008C12.0383 7.27622 11.8144 7.50008 11.5383 7.50008H9.53825C9.26211 7.50008 9.03825 7.27622 9.03825 7.00008V5.00008C9.03825 4.72393 9.26211 4.50008 9.53825 4.50008C9.8144 4.50008 10.0383 4.72393 10.0383 5.00008V5.58586L13.4776 2.14652C13.6729 1.95126 13.9894 1.95126 14.1847 2.14652C14.38 2.34178 14.38 2.65837 14.1847 2.85363L10.5383 6.50008Z" fill="white"/>
<path d="M10.9524 10.0001H11.5382C11.8144 10.0001 12.0382 9.77622 12.0382 9.50008C12.0382 9.22393 11.8144 9.00008 11.5382 9.00008H9.53823C9.26208 9.00008 9.03822 9.22393 9.03822 9.50008V11.5001C9.03822 11.7762 9.26208 12.0001 9.53823 12.0001C9.81437 12.0001 10.0382 11.7762 10.0382 11.5001V10.5001L13.6847 14.1465C13.8799 14.3418 14.1965 14.3418 14.3918 14.1465C14.587 13.9513 14.587 13.6347 14.3918 13.4394L10.9524 10.0001Z" fill="white"/>
<path d="M5.62404 10.0001H5.03825C4.76211 10.0001 4.53825 9.77622 4.53825 9.50008C4.53825 9.22393 4.76211 9.00008 5.03825 9.00008H6.8308C6.83057 9.00008 6.83103 9.00008 6.8308 9.00008H7.03825C7.3144 9.00008 7.53825 9.22393 7.53825 9.50008V11.5001C7.53825 11.7762 7.3144 12.0001 7.03825 12.0001C6.76211 12.0001 6.53825 11.7762 6.53825 11.5001V10.5001L2.89181 14.1465C2.69654 14.3418 2.37996 14.3418 2.1847 14.1465C1.98944 13.9513 1.98944 13.6347 2.1847 13.4394L5.62404 10.0001Z" fill="white"/>
</svg>
