<svg width="16" height="16" viewBox="0 0 16 16" fill="none" xmlns="http://www.w3.org/2000/svg">
<path fill-rule="evenodd" clip-rule="evenodd" d="M1 2.5C1 1.67157 1.67157 1 2.5 1H9.5C10.3284 1 11 1.67157 11 2.5V5H13.5C14.3284 5 15 5.67157 15 6.5V13.5C15 14.3284 14.3284 15 13.5 15H6.5C5.67157 15 5 14.3284 5 13.5V11H2.5C1.67157 11 1 10.3284 1 9.5V2.5ZM2.5 2C2.22386 2 2 2.22386 2 2.5V9.5C2 9.77614 2.22386 10 2.5 10H6V13.5C6 13.7761 6.22386 14 6.5 14H13.5C13.7761 14 14 13.7761 14 13.5V6.5C14 6.22386 13.7761 6 13.5 6H10V2.5C10 2.22386 9.77614 2 9.5 2H2.5Z" fill="white"/>
<path fill-rule="evenodd" clip-rule="evenodd" d="M6.19589 5.36478C6.29308 5.3388 6.39507 5.325 6.5 5.325H6.72222C6.81887 5.325 6.89722 5.40335 6.89722 5.5C6.89722 5.59665 6.81887 5.675 6.72222 5.675H6.5C6.42585 5.675 6.35425 5.68474 6.28628 5.70291C6.19291 5.72787 6.09698 5.67241 6.07202 5.57903C6.04706 5.48566 6.10252 5.38974 6.19589 5.36478ZM7.43611 5.5C7.43611 5.40335 7.51446 5.325 7.61111 5.325H8.05556C8.15221 5.325 8.23056 5.40335 8.23056 5.5C8.23056 5.59665 8.15221 5.675 8.05556 5.675H7.61111C7.51446 5.675 7.43611 5.59665 7.43611 5.5ZM8.76944 5.5C8.76944 5.40335 8.84779 5.325 8.94444 5.325H9.38889C9.48554 5.325 9.56389 5.40335 9.56389 5.5C9.56389 5.59665 9.48554 5.675 9.38889 5.675H8.94444C8.84779 5.675 8.76944 5.59665 8.76944 5.5ZM10.1028 5.5C10.1028 5.40335 10.1811 5.325 10.2778 5.325H10.5C10.5966 5.325 10.675 5.40335 10.675 5.5V5.72222C10.675 5.81887 10.5966 5.89722 10.5 5.89722C10.4034 5.89722 10.325 5.81887 10.325 5.72222V5.675H10.2778C10.1811 5.675 10.1028 5.59665 10.1028 5.5ZM5.57903 6.07202C5.67241 6.09698 5.72787 6.19291 5.70291 6.28628C5.68474 6.35425 5.675 6.42585 5.675 6.5V6.72222C5.675 6.81887 5.59665 6.89722 5.5 6.89722C5.40335 6.89722 5.325 6.81887 5.325 6.72222V6.5C5.325 6.39507 5.3388 6.29308 5.36478 6.19589C5.38974 6.10252 5.48566 6.04706 5.57903 6.07202ZM10.5 6.43611C10.5966 6.43611 10.675 6.51446 10.675 6.61111V7.05556C10.675 7.15221 10.5966 7.23056 10.5 7.23056C10.4034 7.23056 10.325 7.15221 10.325 7.05556V6.61111C10.325 6.51446 10.4034 6.43611 10.5 6.43611ZM5.5 7.43611C5.59665 7.43611 5.675 7.51446 5.675 7.61111V8.05556C5.675 8.15221 5.59665 8.23056 5.5 8.23056C5.40335 8.23056 5.325 8.15221 5.325 8.05556V7.61111C5.325 7.51446 5.40335 7.43611 5.5 7.43611ZM10.5 7.76944C10.5966 7.76944 10.675 7.84779 10.675 7.94444V8.38889C10.675 8.48554 10.5966 8.56389 10.5 8.56389C10.4034 8.56389 10.325 8.48554 10.325 8.38889V7.94444C10.325 7.84779 10.4034 7.76944 10.5 7.76944ZM5.5 8.76944C5.59665 8.76944 5.675 8.84779 5.675 8.94444V9.38889C5.675 9.48554 5.59665 9.56389 5.5 9.56389C5.40335 9.56389 5.325 9.48554 5.325 9.38889V8.94444C5.325 8.84779 5.40335 8.76944 5.5 8.76944ZM10.5 9.10278C10.5966 9.10278 10.675 9.18113 10.675 9.27778V9.5C10.675 9.60493 10.6612 9.70691 10.6352 9.8041C10.6103 9.89748 10.5143 9.95294 10.421 9.92798C10.3276 9.90302 10.2721 9.80709 10.2971 9.71372C10.3153 9.64575 10.325 9.57415 10.325 9.5V9.27778C10.325 9.18113 10.4034 9.10278 10.5 9.10278ZM5.5 10.1028C5.59665 10.1028 5.675 10.1811 5.675 10.2778V10.325H5.72222C5.81887 10.325 5.89722 10.4034 5.89722 10.5C5.89722 10.5966 5.81887 10.675 5.72222 10.675H5.5C5.40335 10.675 5.325 10.5966 5.325 10.5V10.2778C5.325 10.1811 5.40335 10.1028 5.5 10.1028ZM9.92798 10.421C9.95294 10.5143 9.89748 10.6103 9.8041 10.6352C9.70691 10.6612 9.60493 10.675 9.5 10.675H9.27778C9.18113 10.675 9.10278 10.5966 9.10278 10.5C9.10278 10.4034 9.18113 10.325 9.27778 10.325H9.5C9.57415 10.325 9.64575 10.3153 9.71372 10.2971C9.80709 10.2721 9.90302 10.3276 9.92798 10.421ZM6.43611 10.5C6.43611 10.4034 6.51446 10.325 6.61111 10.325H7.05556C7.15221 10.325 7.23056 10.4034 7.23056 10.5C7.23056 10.5966 7.15221 10.675 7.05556 10.675H6.61111C6.51446 10.675 6.43611 10.5966 6.43611 10.5ZM7.76944 10.5C7.76944 10.4034 7.84779 10.325 7.94444 10.325H8.38889C8.48554 10.325 8.56389 10.4034 8.56389 10.5C8.56389 10.5966 8.48554 10.675 8.38889 10.675H7.94444C7.84779 10.675 7.76944 10.5966 7.76944 10.5Z" fill="white"/>
</svg>
