<svg width="16" height="16" viewBox="0 0 16 16" fill="none" xmlns="http://www.w3.org/2000/svg">
<path d="M6.14282 5.64285C5.86668 5.64285 5.64282 5.86671 5.64282 6.14285V7.07142C5.64282 7.34757 5.86668 7.57142 6.14282 7.57142C6.41896 7.57142 6.64282 7.34757 6.64282 7.07142V6.64285H7.07139C7.34754 6.64285 7.57139 6.419 7.57139 6.14285C7.57139 5.86671 7.34754 5.64285 7.07139 5.64285H6.14282Z" fill="white"/>
<path d="M10.3571 8.92857C10.3571 8.65242 10.1333 8.42857 9.85711 8.42857C9.58097 8.42857 9.35711 8.65242 9.35711 8.92857V9.35714H8.92854C8.65239 9.35714 8.42854 9.581 8.42854 9.85714C8.42854 10.1333 8.65239 10.3571 8.92854 10.3571H9.85711C10.1333 10.3571 10.3571 10.1333 10.3571 9.85714V8.92857Z" fill="white"/>
<path fill-rule="evenodd" clip-rule="evenodd" d="M1.5 1C1.22386 1 1 1.22386 1 1.5V9.85714C1 10.1333 1.22386 10.3571 1.5 10.3571H5.64286V14.5C5.64286 14.7761 5.86671 15 6.14286 15H14.5C14.7761 15 15 14.7761 15 14.5V6.14286C15 5.86671 14.7761 5.64286 14.5 5.64286H10.3571V1.5C10.3571 1.22386 10.1333 1 9.85714 1H1.5ZM2 9.35714V2H9.35714V5.64285H8.92854C8.65239 5.64285 8.42854 5.86671 8.42854 6.14285C8.42854 6.419 8.65239 6.64285 8.92854 6.64285H9.35711V7.07142C9.35711 7.34757 9.58097 7.57142 9.85711 7.57142C10.1333 7.57142 10.3571 7.34757 10.3571 7.07142V6.64286H14V14H6.64286V10.3571H7.07139C7.34754 10.3571 7.57139 10.1333 7.57139 9.85714C7.57139 9.581 7.34754 9.35714 7.07139 9.35714H6.64282V8.92857C6.64282 8.65242 6.41896 8.42857 6.14282 8.42857C5.86668 8.42857 5.64282 8.65242 5.64282 8.92857V9.35714H2Z" fill="white"/>
</svg>
