<svg width="16" height="16" viewBox="0 0 16 16" fill="none" xmlns="http://www.w3.org/2000/svg">
<path fill-rule="evenodd" clip-rule="evenodd" d="M1 3.27027C1 2.01643 2.01643 1 3.27027 1H12.7297C13.9836 1 15 2.01643 15 3.27027V12.7297C15 13.9836 13.9836 15 12.7297 15H3.27027C2.01643 15 1 13.9836 1 12.7297V3.27027ZM3.27027 1.75676C2.43438 1.75676 1.75676 2.43438 1.75676 3.27027V12.7297C1.75676 13.5656 2.43438 14.2432 3.27027 14.2432H12.7297C13.5656 14.2432 14.2432 13.5656 14.2432 12.7297V3.27027C14.2432 2.43438 13.5656 1.75676 12.7297 1.75676H3.27027ZM7.62666 4.07992C7.81602 3.83646 8.18398 3.83646 8.37334 4.07992L11.4907 8.088C11.7324 8.39868 11.511 8.85135 11.1174 8.85135H9.7973V11.6892C9.7973 11.9504 9.58554 12.1622 9.32432 12.1622H6.67568C6.41446 12.1622 6.2027 11.9504 6.2027 11.6892V8.85135H4.8826C4.48902 8.85135 4.26762 8.39868 4.50926 8.088L7.62666 4.07992ZM8 4.83253L5.46284 8.09459H6.48649C6.7477 8.09459 6.95946 8.30635 6.95946 8.56757V11.4054H9.04054V8.56757C9.04054 8.30635 9.2523 8.09459 9.51351 8.09459H10.5372L8 4.83253Z" fill="white"/>
</svg>
