<svg width="16" height="16" viewBox="0 0 16 16" fill="none" xmlns="http://www.w3.org/2000/svg">
<path fill-rule="evenodd" clip-rule="evenodd" d="M8.4 3.95C8.30558 3.8241 8.15738 3.75 8 3.75C7.84262 3.75 7.69443 3.8241 7.6 3.95L4.6 7.95C4.48637 8.10151 4.46809 8.30421 4.55279 8.47361C4.63749 8.643 4.81062 8.75 5 8.75H6V11.75C6 12.0261 6.22386 12.25 6.5 12.25H9.5C9.77615 12.25 10 12.0261 10 11.75V8.75H11C11.1894 8.75 11.3625 8.643 11.4472 8.47361C11.5319 8.30421 11.5136 8.10151 11.4 7.95L8.4 3.95ZM6.5 7.75H6L8 5.08333L10 7.75H9.5C9.22386 7.75 9 7.97386 9 8.25V11.25H7V8.25C7 7.97386 6.77614 7.75 6.5 7.75Z" fill="white"/>
<path fill-rule="evenodd" clip-rule="evenodd" d="M3.5 1C2.11929 1 1 2.11929 1 3.5V12.5C1 13.8807 2.11929 15 3.5 15H12.5C13.8807 15 15 13.8807 15 12.5V3.5C15 2.11929 13.8807 1 12.5 1H3.5ZM2 3.5C2 2.67157 2.67157 2 3.5 2H12.5C13.3284 2 14 2.67157 14 3.5V12.5C14 13.3284 13.3284 14 12.5 14H3.5C2.67157 14 2 13.3284 2 12.5V3.5Z" fill="white"/>
</svg>
