<svg width="16" height="16" viewBox="0 0 16 16" fill="none" xmlns="http://www.w3.org/2000/svg">
<path fill-rule="evenodd" clip-rule="evenodd" d="M2 1.5C1.72386 1.5 1.5 1.72386 1.5 2V7C1.5 7.27614 1.72386 7.5 2 7.5C2.27614 7.5 2.5 7.27614 2.5 7V6.5H13.5V7C13.5 7.27614 13.7239 7.5 14 7.5C14.2761 7.5 14.5 7.27614 14.5 7V2C14.5 1.72386 14.2761 1.5 14 1.5H2ZM2.5 2.5V5.5H13.5V2.5H2.5Z" fill="white"/>
<path d="M2.5 9C2.5 8.72386 2.27614 8.5 2 8.5C1.72386 8.5 1.5 8.72386 1.5 9V11C1.5 11.2761 1.72386 11.5 2 11.5C2.27614 11.5 2.5 11.2761 2.5 11V9Z" fill="white"/>
<path d="M14.5 9C14.5 8.72386 14.2761 8.5 14 8.5C13.7239 8.5 13.5 8.72386 13.5 9V11C13.5 11.2761 13.7239 11.5 14 11.5C14.2761 11.5 14.5 11.2761 14.5 11V9Z" fill="white"/>
<path d="M2.5 13C2.5 12.7239 2.27614 12.5 2 12.5C1.72386 12.5 1.5 12.7239 1.5 13V14C1.5 14.2761 1.72386 14.5 2 14.5H3C3.27614 14.5 3.5 14.2761 3.5 14C3.5 13.7239 3.27614 13.5 3 13.5H2.5V13Z" fill="white"/>
<path d="M14.5 13C14.5 12.7239 14.2761 12.5 14 12.5C13.7239 12.5 13.5 12.7239 13.5 13V13.5H13C12.7239 13.5 12.5 13.7239 12.5 14C12.5 14.2761 12.7239 14.5 13 14.5H14C14.2761 14.5 14.5 14.2761 14.5 14V13Z" fill="white"/>
<path d="M5 13.5C4.72386 13.5 4.5 13.7239 4.5 14C4.5 14.2761 4.72386 14.5 5 14.5H7C7.27614 14.5 7.5 14.2761 7.5 14C7.5 13.7239 7.27614 13.5 7 13.5H5Z" fill="white"/>
<path d="M9 13.5C8.72386 13.5 8.5 13.7239 8.5 14C8.5 14.2761 8.72386 14.5 9 14.5H11C11.2761 14.5 11.5 14.2761 11.5 14C11.5 13.7239 11.2761 13.5 11 13.5H9Z" fill="white"/>
</svg>
