<svg width="16" height="16" viewBox="0 0 16 16" fill="none" xmlns="http://www.w3.org/2000/svg">
<path fill-rule="evenodd" clip-rule="evenodd" d="M1.75 2C1.75 1.86193 1.86193 1.75 2 1.75H3V2.25H2.25V3H1.75V2ZM5 1.75H7V2.25H5V1.75ZM9 1.75H11V2.25H9V1.75ZM13 1.75H14C14.1381 1.75 14.25 1.86193 14.25 2V3H13.75V2.25H13V1.75ZM1.75 7V5H2.25V7H1.75ZM14.25 5V7H13.75V5H14.25ZM1.75 11V9H2.25V11H1.75ZM14.25 9V11H13.75V9H14.25ZM1.75 14V13H2.25V13.75H3V14.25H2C1.86193 14.25 1.75 14.1381 1.75 14ZM14.25 13V14C14.25 14.1381 14.1381 14.25 14 14.25H13V13.75H13.75V13H14.25ZM7 14.25H5V13.75H7V14.25ZM11 14.25H9V13.75H11V14.25Z" fill="white"/>
<path fill-rule="evenodd" clip-rule="evenodd" d="M1.5 2C1.5 1.72386 1.72386 1.5 2 1.5H14C14.2761 1.5 14.5 1.72386 14.5 2V6C14.5 6.27614 14.2761 6.5 14 6.5H2C1.72386 6.5 1.5 6.27614 1.5 6V2ZM2.5 2.5V5.5H13.5V2.5H2.5Z" fill="white"/>
</svg>
