<svg width="16" height="16" viewBox="0 0 16 16" fill="none" xmlns="http://www.w3.org/2000/svg">
<path fill-rule="evenodd" clip-rule="evenodd" d="M13.815 1.50183C14.23 1.47736 14.5435 1.79082 14.519 2.20587L14.2048 7.53752C14.1928 7.74109 14.0995 7.94222 13.9459 8.09584L7.59421 14.4475C7.27752 14.7642 6.79616 14.7963 6.51906 14.5192L1.50168 9.50181C1.22458 9.2247 1.25667 8.74334 1.57336 8.42665L7.92503 2.07498C8.07865 1.92136 8.27978 1.8281 8.48334 1.8161L13.815 1.50183ZM8.6459 3.2761L2.96193 8.96007L7.08584 13.084L12.7023 7.33249L13.0416 2.97921L8.6459 3.2761Z" fill="#0091E4"/>
<path d="M10.8913 5.12952C11.1289 5.36704 11.1289 5.75212 10.8913 5.98964C10.6538 6.22716 10.2687 6.22716 10.0312 5.98964C9.79371 5.75212 9.79371 5.36704 10.0312 5.12952C10.2687 4.892 10.6538 4.892 10.8913 5.12952Z" fill="#0091E4"/>
</svg>
