<svg width="16" height="16" viewBox="0 0 16 16" fill="none" xmlns="http://www.w3.org/2000/svg">
<path d="M11.9796 4.73188C11.9796 5.12481 11.661 5.44334 11.2681 5.44334C10.8752 5.44334 10.5566 5.12481 10.5566 4.73188C10.5566 4.33895 10.8752 4.02042 11.2681 4.02042C11.661 4.02042 11.9796 4.33895 11.9796 4.73188Z" fill="white"/>
<path fill-rule="evenodd" clip-rule="evenodd" d="M8.53597 1.50006C8.40336 1.50006 8.27618 1.55274 8.18242 1.64651L1.64645 8.18248C1.45118 8.37774 1.45118 8.69432 1.64645 8.88958L7.11048 14.3536C7.30574 14.5489 7.62232 14.5489 7.81758 14.3536L14.3536 7.81765C14.4473 7.72388 14.5 7.5967 14.5 7.46409V2.00006C14.5 1.72392 14.2761 1.50006 14 1.50006H8.53597ZM2.70711 8.53603L8.74307 2.50006H13.5V7.25699L7.46403 13.293L2.70711 8.53603Z" fill="white"/>
</svg>
