<svg width="16" height="16" viewBox="0 0 16 16" fill="none" xmlns="http://www.w3.org/2000/svg">
<path fill-rule="evenodd" clip-rule="evenodd" d="M7 12.75C6.86193 12.75 6.75 12.8619 6.75 13V14C6.75 14.1381 6.86193 14.25 7 14.25H14C14.1381 14.25 14.25 14.1381 14.25 14V13C14.25 12.8619 14.1381 12.75 14 12.75H7ZM7 7.25C6.86193 7.25 6.75 7.36193 6.75 7.5V8.5C6.75 8.63807 6.86193 8.75 7 8.75H14C14.1381 8.75 14.25 8.63807 14.25 8.5V7.5C14.25 7.36193 14.1381 7.25 14 7.25H7ZM7 1.75C6.86193 1.75 6.75 1.86193 6.75 2V3C6.75 3.13807 6.86193 3.25 7 3.25H14C14.1381 3.25 14.25 3.13807 14.25 3V2C14.25 1.86193 14.1381 1.75 14 1.75H7ZM3 1.75H2C1.86193 1.75 1.75 1.86193 1.75 2V14C1.75 14.1381 1.86193 14.25 2 14.25H3C3.13807 14.25 3.25 14.1381 3.25 14V2C3.25 1.86193 3.13807 1.75 3 1.75ZM2 1C1.44772 1 1 1.44772 1 2V14C1 14.5523 1.44772 15 2 15H3C3.55228 15 4 14.5523 4 14V2C4 1.44772 3.55228 1 3 1H2ZM6 2C6 1.44772 6.44772 1 7 1H14C14.5523 1 15 1.44772 15 2V3C15 3.55228 14.5523 4 14 4H7C6.44772 4 6 3.55228 6 3V2ZM7 6.5C6.44772 6.5 6 6.94772 6 7.5V8.5C6 9.05228 6.44772 9.5 7 9.5H14C14.5523 9.5 15 9.05228 15 8.5V7.5C15 6.94772 14.5523 6.5 14 6.5H7ZM7 12C6.44772 12 6 12.4477 6 13V14C6 14.5523 6.44772 15 7 15H14C14.5523 15 15 14.5523 15 14V13C15 12.4477 14.5523 12 14 12H7Z" fill="white"/>
</svg>
