<svg width="16" height="16" viewBox="0 0 16 16" fill="none" xmlns="http://www.w3.org/2000/svg">
<path d="M2 1.5C2 1.22386 1.77614 1 1.5 1C1.22386 1 1 1.22386 1 1.5V13.5C1 14.3284 1.67157 15 2.5 15H14.5C14.7761 15 15 14.7761 15 14.5C15 14.2239 14.7761 14 14.5 14H2.5C2.22386 14 2 13.7761 2 13.5V1.5Z" fill="white"/>
<path d="M9.2075 2.06918C9.2075 2.34533 9.43136 2.56918 9.7075 2.56918H12.8777L3.88229 11.5646C3.68702 11.7599 3.68702 12.0765 3.88229 12.2717C4.07755 12.467 4.39413 12.467 4.58939 12.2717L13.5848 3.27629V6.44651C13.5848 6.72265 13.8087 6.94651 14.0848 6.94651C14.361 6.94651 14.5848 6.72265 14.5848 6.44651V2.06918C14.5848 1.79304 14.361 1.56918 14.0848 1.56918H9.7075C9.43136 1.56918 9.2075 1.79304 9.2075 2.06918Z" fill="white"/>
</svg>
