<svg width="16" height="16" viewBox="0 0 16 16" fill="none" xmlns="http://www.w3.org/2000/svg">
<path fill-rule="evenodd" clip-rule="evenodd" d="M2 1.5C2.27614 1.5 2.5 1.72386 2.5 2V13C2.5 13.2761 2.72386 13.5 3 13.5H14C14.2761 13.5 14.5 13.7239 14.5 14C14.5 14.2761 14.2761 14.5 14 14.5H3C2.17157 14.5 1.5 13.8284 1.5 13V2C1.5 1.72386 1.72386 1.5 2 1.5ZM12 2C12 1.72386 12.2239 1.5 12.5 1.5H14C14.2761 1.5 14.5 1.72386 14.5 2V3.5C14.5 3.77614 14.2761 4 14 4C13.7239 4 13.5 3.77614 13.5 3.5V3.20711L4.85355 11.8536C4.65829 12.0488 4.34171 12.0488 4.14645 11.8536C3.95118 11.6583 3.95118 11.3417 4.14645 11.1464L12.7929 2.5H12.5C12.2239 2.5 12 2.27614 12 2Z" fill="white"/>
</svg>
