<svg width="16" height="16" viewBox="0 0 16 16" fill="none" xmlns="http://www.w3.org/2000/svg">
<path d="M2 3C2.55228 3 3 2.55228 3 2C3 1.44772 2.55228 1 2 1C1.44772 1 1 1.44772 1 2C1 2.55228 1.44772 3 2 3Z" fill="white"/>
<path d="M4.5 1.5C4.22386 1.5 4 1.72386 4 2C4 2.27614 4.22386 2.5 4.5 2.5H14.5C14.7761 2.5 15 2.27614 15 2C15 1.72386 14.7761 1.5 14.5 1.5H4.5Z" fill="white"/>
<path d="M4.5 7.5C4.22386 7.5 4 7.72386 4 8C4 8.27614 4.22386 8.5 4.5 8.5H14.5C14.7761 8.5 15 8.27614 15 8C15 7.72386 14.7761 7.5 14.5 7.5H4.5Z" fill="white"/>
<path d="M4 14C4 13.7239 4.22386 13.5 4.5 13.5H14.5C14.7761 13.5 15 13.7239 15 14C15 14.2761 14.7761 14.5 14.5 14.5H4.5C4.22386 14.5 4 14.2761 4 14Z" fill="white"/>
<path d="M3 7.83334C3 8.38563 2.55228 8.83334 2 8.83334C1.44772 8.83334 1 8.38563 1 7.83334C1 7.28106 1.44772 6.83334 2 6.83334C2.55228 6.83334 3 7.28106 3 7.83334Z" fill="white"/>
<path d="M2 14.6667C2.55228 14.6667 3 14.2189 3 13.6667C3 13.1144 2.55228 12.6667 2 12.6667C1.44772 12.6667 1 13.1144 1 13.6667C1 14.2189 1.44772 14.6667 2 14.6667Z" fill="white"/>
</svg>
