<svg width="16" height="16" viewBox="0 0 16 16" fill="none" xmlns="http://www.w3.org/2000/svg">
<path fill-rule="evenodd" clip-rule="evenodd" d="M1 2C1 1.44772 1.44772 1 2 1H3C3.55228 1 4 1.44772 4 2V14C4 14.5523 3.55228 15 3 15H2C1.44772 15 1 14.5523 1 14V2ZM2 2H3V14H2L2 2Z" fill="white"/>
<path fill-rule="evenodd" clip-rule="evenodd" d="M6 2C6 1.44772 6.44772 1 7 1H14C14.5523 1 15 1.44772 15 2V3C15 3.55228 14.5523 4 14 4H7C6.44772 4 6 3.55228 6 3V2ZM7 2H14V3H7V2Z" fill="white"/>
<path fill-rule="evenodd" clip-rule="evenodd" d="M7 6.5C6.44772 6.5 6 6.94772 6 7.5V8.5C6 9.05228 6.44772 9.5 7 9.5H14C14.5523 9.5 15 9.05228 15 8.5V7.5C15 6.94772 14.5523 6.5 14 6.5H7ZM14 7.5H7V8.5H14V7.5Z" fill="white"/>
<path fill-rule="evenodd" clip-rule="evenodd" d="M6 13C6 12.4477 6.44772 12 7 12H14C14.5523 12 15 12.4477 15 13V14C15 14.5523 14.5523 15 14 15H7C6.44772 15 6 14.5523 6 14V13ZM7 13H14V14H7V13Z" fill="white"/>
</svg>
