<svg width="16" height="16" viewBox="0 0 16 16" fill="none" xmlns="http://www.w3.org/2000/svg">
<path fill-rule="evenodd" clip-rule="evenodd" d="M2.55 1.25015C1.83203 1.25015 1.25 1.83218 1.25 2.55015V3.45015C1.25 4.16812 1.83203 4.75015 2.55 4.75015H13.45C14.168 4.75015 14.75 4.16812 14.75 3.45015V2.55015C14.75 1.83218 14.168 1.25015 13.45 1.25015H2.55ZM2.25 2.55015C2.25 2.38447 2.38431 2.25015 2.55 2.25015H13.45C13.6157 2.25015 13.75 2.38447 13.75 2.55015V3.45015C13.75 3.61584 13.6157 3.75015 13.45 3.75015H2.55C2.38431 3.75015 2.25 3.61584 2.25 3.45015V2.55015Z" fill="white"/>
<path fill-rule="evenodd" clip-rule="evenodd" d="M1.25 7.55015C1.25 6.83218 1.83203 6.25015 2.55 6.25015H13.45C14.168 6.25015 14.75 6.83218 14.75 7.55015V8.45015C14.75 9.16812 14.168 9.75015 13.45 9.75015H2.55C1.83203 9.75015 1.25 9.16812 1.25 8.45015V7.55015ZM2.55 7.25015C2.38431 7.25015 2.25 7.38447 2.25 7.55015V8.45015C2.25 8.61584 2.38431 8.75015 2.55 8.75015H13.45C13.6157 8.75015 13.75 8.61584 13.75 8.45015V7.55015C13.75 7.38447 13.6157 7.25015 13.45 7.25015H2.55Z" fill="white"/>
<path fill-rule="evenodd" clip-rule="evenodd" d="M1.25 12.5502C1.25 11.8322 1.83203 11.2502 2.55 11.2502H13.45C14.168 11.2502 14.75 11.8322 14.75 12.5502V13.4502C14.75 14.1681 14.168 14.7502 13.45 14.7502H2.55C1.83203 14.7502 1.25 14.1681 1.25 13.4502V12.5502ZM2.55 12.2502C2.38431 12.2502 2.25 12.3845 2.25 12.5502V13.4502C2.25 13.6158 2.38431 13.7502 2.55 13.7502H13.45C13.6157 13.7502 13.75 13.6158 13.75 13.4502V12.5502C13.75 12.3845 13.6157 12.2502 13.45 12.2502H2.55Z" fill="white"/>
</svg>
