<svg width="16" height="16" viewBox="0 0 16 16" fill="none" xmlns="http://www.w3.org/2000/svg">
<path fill-rule="evenodd" clip-rule="evenodd" d="M2 7.25C1.86193 7.25 1.75 7.36193 1.75 7.5V8.5C1.75 8.63807 1.86193 8.75 2 8.75H14C14.1381 8.75 14.25 8.63807 14.25 8.5V7.5C14.25 7.36193 14.1381 7.25 14 7.25H2ZM2 1.75C1.86193 1.75 1.75 1.86193 1.75 2V3C1.75 3.13807 1.86193 3.25 2 3.25H14C14.1381 3.25 14.25 3.13807 14.25 3V2C14.25 1.86193 14.1381 1.75 14 1.75H2ZM2 12.75C1.86193 12.75 1.75 12.8619 1.75 13V14C1.75 14.1381 1.86193 14.25 2 14.25H14C14.1381 14.25 14.25 14.1381 14.25 14V13C14.25 12.8619 14.1381 12.75 14 12.75H2ZM1 2C1 1.44772 1.44772 1 2 1H14C14.5523 1 15 1.44772 15 2V3C15 3.55228 14.5523 4 14 4H2C1.44772 4 1 3.55228 1 3V2ZM1 7.5C1 6.94772 1.44772 6.5 2 6.5H14C14.5523 6.5 15 6.94772 15 7.5V8.5C15 9.05228 14.5523 9.5 14 9.5H2C1.44772 9.5 1 9.05228 1 8.5V7.5ZM2 12C1.44772 12 1 12.4477 1 13V14C1 14.5523 1.44772 15 2 15H14C14.5523 15 15 14.5523 15 14V13C15 12.4477 14.5523 12 14 12H2Z" fill="white"/>
</svg>
