<svg width="16" height="16" viewBox="0 0 16 16" fill="none" xmlns="http://www.w3.org/2000/svg">
<path d="M1.08823 7.63925C0.991923 7.72987 0.931885 7.85792 0.931885 7.99984C0.931885 8.04809 0.938825 8.09473 0.951769 8.13885C0.974574 8.21681 1.01702 8.29034 1.07909 8.35179L3.22206 10.4731C3.41831 10.6674 3.7365 10.6674 3.93275 10.4731C4.129 10.2788 4.129 9.96387 3.93275 9.7696L2.64746 8.49729L10.9587 8.4973C11.2362 8.4973 11.4612 8.27458 11.4612 7.99984C11.4612 7.7251 11.2362 7.50238 10.9587 7.50238L2.64787 7.50238L3.93275 6.23048C4.129 6.03621 4.129 5.72124 3.93275 5.52697C3.7365 5.33271 3.41831 5.33271 3.22206 5.52697L1.08823 7.63925Z" fill="white"/>
<path fill-rule="evenodd" clip-rule="evenodd" d="M9.89334 1.5C9.89334 1.77614 10.1172 2 10.3933 2L13.9343 2L13.9343 14H10.3933C10.1172 14 9.89334 14.2239 9.89334 14.5C9.89334 14.7761 10.1172 15 10.3933 15H14.4343C14.7105 15 14.9343 14.7761 14.9343 14.5L14.9343 1.5C14.9343 1.22386 14.7105 1 14.4343 1L10.3933 1C10.1172 1 9.89334 1.22386 9.89334 1.5Z" fill="white"/>
</svg>
