<svg width="16" height="16" viewBox="0 0 16 16" fill="none" xmlns="http://www.w3.org/2000/svg">
<path fill-rule="evenodd" clip-rule="evenodd" d="M9.49559 14.3846C9.49559 14.0447 9.7805 13.7692 10.132 13.7692H13.3136L13.3136 2.23077H10.132C9.78051 2.23077 9.49559 1.95525 9.49559 1.61538C9.49559 1.27552 9.78051 1 10.132 1L13.95 1C14.3015 1 14.5864 1.27552 14.5864 1.61538L14.5864 14.3846C14.5864 14.7245 14.3015 15 13.95 15H10.132C9.7805 15 9.49559 14.7245 9.49559 14.3846Z" fill="#0091E4"/>
<path d="M11.8542 7.89675C11.8542 8.23662 11.5693 8.51214 11.2178 8.51214H3.57266L5.03173 9.92316C5.28024 10.1635 5.28023 10.5531 5.03171 10.7934C4.78318 11.0338 4.38025 11.0338 4.13174 10.7934L1.58638 8.33188C1.33788 8.09156 1.33788 7.70194 1.58638 7.46162L4.13174 5.00008C4.38026 4.75975 4.78318 4.75974 5.03171 5.00006C5.28023 5.24038 5.28024 5.63002 5.03173 5.87035L3.57266 7.28137H11.2178C11.5693 7.28137 11.8542 7.55688 11.8542 7.89675Z" fill="#0091E4"/>
</svg>
