<svg width="16" height="16" viewBox="0 0 16 16" fill="none" xmlns="http://www.w3.org/2000/svg">
<path fill-rule="evenodd" clip-rule="evenodd" d="M2 1.5C2.27614 1.5 2.5 1.72386 2.5 2V13C2.5 13.2761 2.72386 13.5 3 13.5H14C14.2761 13.5 14.5 13.7239 14.5 14C14.5 14.2761 14.2761 14.5 14 14.5H3C2.17157 14.5 1.5 13.8284 1.5 13V2C1.5 1.72386 1.72386 1.5 2 1.5ZM12.6464 4.64645C12.8417 4.45118 13.1583 4.45118 13.3536 4.64645L14.3536 5.64645C14.5488 5.84171 14.5488 6.15829 14.3536 6.35355L13.3536 7.35355C13.1583 7.54882 12.8417 7.54882 12.6464 7.35355C12.4512 7.15829 12.4512 6.84171 12.6464 6.64645L12.8473 6.44557C12.7438 6.44448 12.6344 6.44429 12.52 6.44529C11.6513 6.45291 10.504 6.52934 9.36523 6.79904C8.22186 7.06984 7.12642 7.52632 6.32311 8.26621C5.53604 8.99115 5 10.0137 5 11.5C5 11.7761 4.77614 12 4.5 12C4.22386 12 4 11.7761 4 11.5C4 9.7363 4.65146 8.44635 5.64564 7.53066C6.62358 6.62993 7.90314 6.11766 9.13477 5.82596C10.371 5.53316 11.5987 5.45334 12.5112 5.44533C12.589 5.44465 12.6645 5.44449 12.7377 5.44477L12.6464 5.35355C12.4512 5.15829 12.4512 4.84171 12.6464 4.64645Z" fill="white"/>
</svg>
