<svg width="16" height="16" viewBox="0 0 16 16" fill="none" xmlns="http://www.w3.org/2000/svg">
<path d="M2.5 14H14.5C14.78 14 15 14.22 15 14.5C15 14.78 14.78 15 14.5 15H2.5C1.67 15 1 14.33 1 13.5V1.5C1 1.22 1.22 1 1.5 1C1.78 1 2 1.22 2 1.5V13.5C2 13.78 2.22 14 2.5 14Z" fill="white"/>
<path d="M5 10.98C5 11.26 4.78 11.48 4.5 11.48C4.22 11.48 4 11.26 4 10.98C4 9.02 4.66 7.48 5.95 6.41C8.03 4.7 11.24 4.65 13.11 4.8L11.64 3.33C11.44 3.13 11.44 2.82 11.64 2.62C11.84 2.42 12.15 2.42 12.35 2.62L14.87 5.14C14.96 5.24 15 5.36 15 5.48C15 5.61 14.95 5.74 14.85 5.84L12.35 8.34C12.15 8.54 11.84 8.54 11.64 8.34C11.44 8.14 11.44 7.83 11.64 7.63L13.43 5.84C11.81 5.67 8.53 5.57 6.58 7.18C5.53 8.05 5 9.33 5 10.98Z" fill="white"/>
</svg>
