<svg width="16" height="16" viewBox="0 0 16 16" fill="none" xmlns="http://www.w3.org/2000/svg">
<path fill-rule="evenodd" clip-rule="evenodd" d="M9.54939 1.03834C9.76398 0.983057 9.98369 1.1099 10.0401 1.32164L10.471 2.93819C10.5275 3.14994 10.3993 3.36641 10.1847 3.42169C9.97008 3.47697 9.75037 3.35013 9.69393 3.13839L9.26304 1.52183C9.2066 1.31009 9.3348 1.09362 9.54939 1.03834ZM12.2268 3.77396C12.0505 3.64076 12.0168 3.39202 12.1515 3.21838L13.3243 1.70695C13.4591 1.53332 13.7112 1.50054 13.8875 1.63374C14.0638 1.76694 14.0975 2.01569 13.9627 2.18932L12.7899 3.70075C12.6552 3.87439 12.4031 3.90716 12.2268 3.77396Z" fill="white"/>
<path d="M12.902 5.13224C12.8849 4.91402 13.0503 4.72374 13.2716 4.70723L15.1598 4.56629C15.381 4.54978 15.5743 4.71329 15.5914 4.93151C15.6086 5.14973 15.4431 5.34002 15.2219 5.35653L13.3336 5.49747C13.1124 5.51398 12.9192 5.35046 12.902 5.13224Z" fill="white"/>
<path d="M12.314 6.58634C12.4642 6.42591 12.7183 6.4166 12.8816 6.56554L14.1277 7.70264C14.291 7.85158 14.3015 8.10238 14.1513 8.26281C14.0011 8.42324 13.747 8.43255 13.5838 8.2836L12.3376 7.14651C12.1744 6.99756 12.1638 6.74677 12.314 6.58634Z" fill="white"/>
<path d="M6.57846 3.14988C6.69983 2.96728 6.94869 2.9172 7.13431 3.03802L8.34093 3.82341C8.52655 3.94423 8.57864 4.1902 8.45727 4.3728C8.3359 4.5554 8.08704 4.60548 7.90142 4.48466L6.6948 3.69927C6.50918 3.57845 6.45709 3.33248 6.57846 3.14988Z" fill="white"/>
<path fill-rule="evenodd" clip-rule="evenodd" d="M11.3338 4.43428L11.5653 4.66577C12.0339 5.1344 12.0339 5.8942 11.5653 6.36283L3.36288 14.5653C2.89425 15.0339 2.13445 15.0339 1.66582 14.5653L1.43433 14.3338C0.965698 13.8651 0.965698 13.1053 1.43433 12.6367L9.63677 4.43428C10.1054 3.96565 10.8652 3.96565 11.3338 4.43428ZM10.3439 5.14139C10.422 5.06328 10.5486 5.06328 10.6267 5.14139L10.8582 5.37288C10.9363 5.45099 10.9363 5.57762 10.8582 5.65572L2.65577 13.8582C2.57767 13.9363 2.45103 13.9363 2.37293 13.8582L2.14143 13.6267C2.06333 13.5486 2.06333 13.4219 2.14143 13.3438L10.3439 5.14139Z" fill="white"/>
<path fill-rule="evenodd" clip-rule="evenodd" d="M11.3338 4.43428L11.5653 4.66577C12.0339 5.1344 12.0339 5.8942 11.5653 6.36283L10.3318 7.59632C9.86321 8.06495 9.10341 8.06495 8.63478 7.59632L8.40328 7.36482C7.93466 6.8962 7.93466 6.1364 8.40329 5.66777L9.63677 4.43428C10.1054 3.96565 10.8652 3.96565 11.3338 4.43428ZM10.3439 5.14139C10.422 5.06328 10.5486 5.06328 10.6267 5.14139L10.8582 5.37288C10.9363 5.45099 10.9363 5.57762 10.8582 5.65572L9.62473 6.88921C9.54663 6.96732 9.41999 6.96732 9.34189 6.88921L9.11039 6.65772C9.03229 6.57961 9.03229 6.45298 9.11039 6.37488L10.3439 5.14139Z" fill="white"/>
</svg>
