<svg width="16" height="16" viewBox="0 0 16 16" fill="none" xmlns="http://www.w3.org/2000/svg">
<path d="M10.1013 1.50018C10.1013 1.22404 9.87746 1.00018 9.60132 1.00018C9.32518 1.00018 9.10132 1.22404 9.10132 1.50018V3.33939C9.10132 3.61553 9.32518 3.83939 9.60132 3.83939C9.87746 3.83939 10.1013 3.61553 10.1013 3.33939V1.50018Z" fill="white"/>
<path d="M13.4187 3.28876C13.614 3.0935 13.614 2.77692 13.4187 2.58166C13.2234 2.3864 12.9069 2.3864 12.7116 2.58166L11.4255 3.86776C11.2302 4.06303 11.2302 4.37961 11.4255 4.57487C11.6208 4.77013 11.9373 4.77013 12.1326 4.57487L13.4187 3.28876Z" fill="white"/>
<path d="M9.96208 6.74506C10.1573 6.5498 10.1573 6.23322 9.96208 6.03796C9.76681 5.84269 9.45023 5.84269 9.25497 6.03796L1.14645 14.1465C0.951184 14.3417 0.951184 14.6583 1.14645 14.8536C1.34171 15.0488 1.65829 15.0488 1.85355 14.8536L9.96208 6.74506Z" fill="white"/>
<path d="M11.4019 8.19672C11.5974 8.00165 11.914 8.00197 12.109 8.19744L13.4192 9.51026C13.6143 9.70572 13.6139 10.0223 13.4185 10.2174C13.223 10.4124 12.9064 10.4121 12.7114 10.2166L11.4012 8.90382C11.2062 8.70836 11.2065 8.39178 11.4019 8.19672Z" fill="white"/>
<path d="M6.49027 2.58166C6.29501 2.3864 5.97843 2.3864 5.78317 2.58166C5.5879 2.77692 5.5879 3.0935 5.78317 3.28876L7.0764 4.582C7.27166 4.77726 7.58824 4.77726 7.7835 4.582C7.97877 4.38673 7.97877 4.07015 7.7835 3.87489L6.49027 2.58166Z" fill="white"/>
<path d="M12.1794 6.39877C12.1794 6.12263 12.4033 5.89877 12.6794 5.89877H14.4999C14.7761 5.89877 14.9999 6.12263 14.9999 6.39877C14.9999 6.67492 14.7761 6.89877 14.4999 6.89877H12.6794C12.4033 6.89877 12.1794 6.67492 12.1794 6.39877Z" fill="white"/>
<path d="M4.70288 5.89877C4.42674 5.89877 4.20288 6.12263 4.20288 6.39877C4.20288 6.67492 4.42674 6.89877 4.70288 6.89877H6.55633C6.83248 6.89877 7.05633 6.67492 7.05633 6.39877C7.05633 6.12263 6.83248 5.89877 6.55633 5.89877H4.70288Z" fill="white"/>
<path d="M9.60132 8.98032C9.87746 8.98032 10.1013 9.20417 10.1013 9.48032V11.2973C10.1013 11.5734 9.87746 11.7973 9.60132 11.7973C9.32518 11.7973 9.10132 11.5734 9.10132 11.2973V9.48032C9.10132 9.20417 9.32518 8.98032 9.60132 8.98032Z" fill="white"/>
</svg>
