<svg width="16" height="16" viewBox="0 0 16 16" fill="none" xmlns="http://www.w3.org/2000/svg">
<path d="M8.00628 15C7.84291 15 7.69001 14.9712 7.54759 14.9136C7.40098 14.8518 7.27531 14.7695 7.17059 14.6666C7.06167 14.5596 6.97789 14.4361 6.91925 14.2962C6.85641 14.1562 6.825 14.006 6.825 13.8455C6.825 13.6809 6.85641 13.5286 6.91925 13.3886C6.97789 13.2446 7.06167 13.1211 7.17059 13.0182C7.27531 12.9112 7.40098 12.8268 7.54759 12.7651C7.69001 12.7033 7.84291 12.6725 8.00628 12.6725C8.16965 12.6725 8.32255 12.7033 8.46497 12.7651C8.60321 12.8268 8.72678 12.9112 8.83569 13.0182C8.94042 13.1211 9.0242 13.2446 9.08703 13.3886C9.14567 13.5286 9.175 13.6809 9.175 13.8455C9.175 14.006 9.14567 14.1562 9.08703 14.2962C9.0242 14.4361 8.94042 14.5596 8.83569 14.6666C8.72678 14.7695 8.60321 14.8518 8.46497 14.9136C8.32255 14.9712 8.16965 15 8.00628 15Z" fill="white"/>
<path d="M8.00628 9.16377C7.84291 9.16377 7.69001 9.13496 7.54759 9.07734C7.40098 9.0156 7.27531 8.93328 7.17059 8.83038C7.06167 8.72337 6.97789 8.59989 6.91925 8.45995C6.85641 8.32001 6.825 8.16978 6.825 8.00926C6.825 7.84462 6.85641 7.69234 6.91925 7.5524C6.97789 7.40834 7.06167 7.28486 7.17059 7.18196C7.27531 7.07495 7.40098 6.99057 7.54759 6.92883C7.69001 6.8671 7.84291 6.83623 8.00628 6.83623C8.16965 6.83623 8.32255 6.8671 8.46497 6.92883C8.60321 6.99057 8.72678 7.07495 8.83569 7.18196C8.94042 7.28486 9.0242 7.40834 9.08703 7.5524C9.14567 7.69234 9.175 7.84462 9.175 8.00926C9.175 8.16978 9.14567 8.32001 9.08703 8.45995C9.0242 8.59989 8.94042 8.72337 8.83569 8.83038C8.72678 8.93328 8.60321 9.0156 8.46497 9.07734C8.32255 9.13496 8.16965 9.16377 8.00628 9.16377Z" fill="white"/>
<path d="M8.00628 3.32755C7.84291 3.32755 7.69001 3.29874 7.54759 3.24111C7.40098 3.17937 7.27531 3.09705 7.17059 2.99416C7.06167 2.88714 6.97789 2.76367 6.91925 2.62373C6.85641 2.48379 6.825 2.33356 6.825 2.17303C6.825 2.0084 6.85641 1.85611 6.91925 1.71617C6.97789 1.57211 7.06167 1.44864 7.17059 1.34574C7.27531 1.23872 7.40098 1.15435 7.54759 1.09261C7.69001 1.03087 7.84291 1 8.00628 1C8.16965 1 8.32255 1.03087 8.46497 1.09261C8.60321 1.15435 8.72678 1.23872 8.83569 1.34574C8.94042 1.44864 9.0242 1.57211 9.08703 1.71617C9.14567 1.85611 9.175 2.0084 9.175 2.17303C9.175 2.33356 9.14567 2.48379 9.08703 2.62373C9.0242 2.76367 8.94042 2.88714 8.83569 2.99416C8.72678 3.09705 8.60321 3.17937 8.46497 3.24111C8.32255 3.29874 8.16965 3.32755 8.00628 3.32755Z" fill="white"/>
</svg>
