<svg width="16" height="16" viewBox="0 0 16 16" fill="none" xmlns="http://www.w3.org/2000/svg">
<path d="M3.79874 5.5722C3.79874 5.5722 5.51773 3.98057 6.94602 6.10639C7.4713 6.88819 7.86509 7.52269 8.1998 8.09143C8.58202 7.43585 9.00304 6.74545 9.50001 6C10.1906 4.96412 11.3983 5.04156 12 5.5C12.2696 5.7054 12.3149 6.00385 12.3149 6.28431C11.9281 6.10639 10.8757 5.21615 10.0933 6.46237C9.49963 7.40788 9.05852 8.18054 8.66474 8.9021C9.19666 9.84975 9.65308 10.7149 10.4635 11.9814C11.3314 13.3376 12.5 13.2277 12.5 13.2277C12.5 13.2277 11.2756 15.28 9.05399 12.6936C8.48387 12.0298 8.03858 11.4208 7.64542 10.8045C7.3352 11.3783 6.99585 11.9881 6.57574 12.6936C5.50001 14.5 4.31876 14 3.79875 13.5C3.54312 13.2542 3.61363 12.5155 3.61363 12.5155C3.61363 12.5155 3.8874 12.9327 4.16903 13.0496C4.65229 13.2502 5.17298 13.1147 5.46494 12.6936C6.10543 11.7697 6.62015 10.8827 7.13926 9.96175C6.68445 9.16118 6.26038 8.30475 5.7216 7.26845C4.98108 5.84415 3.79874 5.5722 3.79874 5.5722Z" fill="white"/>
<path d="M3.5 2.5687C3.50112 2.25349 3.75386 1.99887 4.06452 2L11.9395 2.02871C12.2502 2.02984 12.5011 2.28629 12.5 2.60151C12.4989 2.91672 12.2461 3.17134 11.9355 3.1702L4.06048 3.1415C3.74982 3.14037 3.49889 2.88392 3.5 2.5687Z" fill="white"/>
</svg>
