<svg width="16" height="16" viewBox="0 0 16 16" fill="none" xmlns="http://www.w3.org/2000/svg">
<path d="M9.44245 6.86806C9.16631 6.86806 8.94245 6.64421 8.94245 6.36806V3.96066C8.94245 3.68452 9.16631 3.46066 9.44245 3.46066C9.7186 3.46066 9.94245 3.68452 9.94245 3.96066V5.15969L13.8963 1.19996C14.0914 1.00455 14.408 1.00432 14.6034 1.19944C14.7988 1.39456 14.7991 1.71114 14.604 1.90654L10.6483 5.86806H11.8463C12.1224 5.86806 12.3463 6.09192 12.3463 6.36806C12.3463 6.64421 12.1224 6.86806 11.8463 6.86806H9.44245Z" fill="white"/>
<path d="M9.44245 9.23855C9.16631 9.23855 8.94245 9.46241 8.94245 9.73855V12.146C8.94245 12.4221 9.16631 12.646 9.44245 12.646C9.7186 12.646 9.94245 12.4221 9.94245 12.146V10.9469L13.8963 14.9067C14.0914 15.1021 14.408 15.1023 14.6034 14.9072C14.7988 14.7121 14.7991 14.3955 14.604 14.2001L10.6483 10.2385H11.8463C12.1224 10.2385 12.3463 10.0147 12.3463 9.73855C12.3463 9.46241 12.1224 9.23855 11.8463 9.23855H9.44245Z" fill="white"/>
<path d="M7.05769 9.73855C7.05769 9.46241 6.83383 9.23855 6.55769 9.23855H4.15384C3.8777 9.23855 3.65384 9.46241 3.65384 9.73855C3.65384 10.0147 3.8777 10.2385 4.15384 10.2385H5.35184L1.39618 14.2001C1.20107 14.3955 1.2013 14.7121 1.39671 14.9072C1.59211 15.1023 1.9087 15.1021 2.10382 14.9067L6.05769 10.9469V12.146C6.05769 12.4221 6.28154 12.646 6.55769 12.646C6.83383 12.646 7.05769 12.4221 7.05769 12.146V9.73855Z" fill="white"/>
<path d="M6.55769 6.86806C6.83383 6.86806 7.05769 6.64421 7.05769 6.36806V3.96066C7.05769 3.68452 6.83383 3.46066 6.55769 3.46066C6.28154 3.46066 6.05769 3.68452 6.05769 3.96066V5.15969L2.10382 1.19996C1.9087 1.00455 1.59211 1.00432 1.39671 1.19944C1.2013 1.39456 1.20107 1.71114 1.39618 1.90654L5.35184 5.86806H4.15384C3.8777 5.86806 3.65384 6.09192 3.65384 6.36806C3.65384 6.64421 3.8777 6.86806 4.15384 6.86806H6.55769Z" fill="white"/>
</svg>
