<svg width="16" height="16" viewBox="0 0 16 16" fill="none" xmlns="http://www.w3.org/2000/svg">
<path fill-rule="evenodd" clip-rule="evenodd" d="M8.81395 9.48712C8.81395 9.12893 9.10549 8.83855 9.46511 8.83855H11.7907C12.1503 8.83855 12.4419 9.12893 12.4419 9.48712C12.4419 9.84532 12.1503 10.1357 11.7907 10.1357H11.0372L14.8093 13.8928C15.0636 14.1461 15.0636 14.5568 14.8093 14.81C14.555 15.0633 14.1427 15.0633 13.8884 14.81L10.1163 11.0529V11.8035C10.1163 12.1617 9.82474 12.452 9.46511 12.452C9.10549 12.452 8.81395 12.1617 8.81395 11.8035V9.48712ZM4.96284 10.1356H4.2093C3.84967 10.1356 3.55814 9.84526 3.55814 9.48706C3.55814 9.12886 3.84967 8.83849 4.2093 8.83849H6.53488C6.89451 8.83849 7.18604 9.12886 7.18604 9.48706V11.8034C7.18604 12.1616 6.89451 12.452 6.53488 12.452C6.17526 12.452 5.88372 12.1616 5.88372 11.8034V11.0529L2.1116 14.81C1.85731 15.0633 1.44502 15.0633 1.19072 14.81C0.936426 14.5567 0.936426 14.146 1.19072 13.8928L4.96284 10.1356ZM14.8093 1.19002C15.0636 1.44331 15.0636 1.85396 14.8093 2.10724L11.0372 5.86435H11.7907C12.1503 5.86435 12.4419 6.15473 12.4419 6.51293C12.4419 6.87113 12.1503 7.1615 11.7907 7.1615H9.46512C9.10549 7.1615 8.81395 6.87113 8.81395 6.51293V4.19659C8.81395 3.8384 9.10549 3.54802 9.46512 3.54802C9.82474 3.54802 10.1163 3.8384 10.1163 4.19659V4.94713L13.8884 1.19002C14.1427 0.936738 14.555 0.936738 14.8093 1.19002ZM1.19072 1.18996C1.44502 0.936679 1.85731 0.936679 2.1116 1.18996L5.88372 4.94707V4.19653C5.88372 3.83834 6.17526 3.54796 6.53488 3.54796C6.89451 3.54796 7.18605 3.83834 7.18605 4.19653V6.51286C7.18605 6.87106 6.89451 7.16143 6.53488 7.16143H4.2093C3.84967 7.16143 3.55814 6.87106 3.55814 6.51286C3.55814 6.15466 3.84967 5.86429 4.2093 5.86429H4.96284L1.19072 2.10718C0.936426 1.8539 0.936426 1.44325 1.19072 1.18996Z" fill="#0091E4"/>
</svg>
