<svg width="16" height="16" viewBox="0 0 16 16" fill="none" xmlns="http://www.w3.org/2000/svg">
<path d="M1.96298 1.55681C2.05106 1.52029 2.14785 1.5 2.25 1.5H2.72917C2.86724 1.5 2.97917 1.38807 2.97917 1.25C2.97917 1.11193 2.86724 1 2.72917 1H2.25C2.08097 1 1.91918 1.03369 1.77145 1.09495C1.64391 1.14784 1.58339 1.2941 1.63628 1.42164C1.68917 1.54918 1.83544 1.6097 1.96298 1.55681Z" fill="white"/>
<path d="M3.6875 1C3.54943 1 3.4375 1.11193 3.4375 1.25C3.4375 1.38807 3.54943 1.5 3.6875 1.5H4.64583C4.7839 1.5 4.89583 1.38807 4.89583 1.25C4.89583 1.11193 4.7839 1 4.64583 1H3.6875Z" fill="white"/>
<path d="M5.60417 1C5.4661 1 5.35417 1.11193 5.35417 1.25C5.35417 1.38807 5.4661 1.5 5.60417 1.5H6.5625C6.70057 1.5 6.8125 1.38807 6.8125 1.25C6.8125 1.11193 6.70057 1 6.5625 1H5.60417Z" fill="white"/>
<path d="M7.52083 1C7.38276 1 7.27083 1.11193 7.27083 1.25C7.27083 1.38807 7.38276 1.5 7.52083 1.5H8.47917C8.61724 1.5 8.72917 1.38807 8.72917 1.25C8.72917 1.11193 8.61724 1 8.47917 1H7.52083Z" fill="white"/>
<path d="M9.4375 1C9.29943 1 9.1875 1.11193 9.1875 1.25C9.1875 1.38807 9.29943 1.5 9.4375 1.5H10.3958C10.5339 1.5 10.6458 1.38807 10.6458 1.25C10.6458 1.11193 10.5339 1 10.3958 1H9.4375Z" fill="white"/>
<path d="M11.3542 1C11.2161 1 11.1042 1.11193 11.1042 1.25C11.1042 1.38807 11.2161 1.5 11.3542 1.5H12.3125C12.4506 1.5 12.5625 1.38807 12.5625 1.25C12.5625 1.11193 12.4506 1 12.3125 1H11.3542Z" fill="white"/>
<path d="M13.2708 1C13.1328 1 13.0208 1.11193 13.0208 1.25C13.0208 1.38807 13.1328 1.5 13.2708 1.5H13.75C13.8522 1.5 13.9489 1.52029 14.037 1.55681C14.1646 1.6097 14.3108 1.54918 14.3637 1.42164C14.4166 1.2941 14.3561 1.14784 14.2286 1.09495C14.0808 1.03369 13.919 1 13.75 1H13.2708Z" fill="white"/>
<path d="M1.55681 1.96298C1.6097 1.83544 1.54918 1.68917 1.42164 1.63628C1.2941 1.58339 1.14784 1.64391 1.09495 1.77145C1.03369 1.91918 1 2.08097 1 2.25V2.72917C1 2.86724 1.11193 2.97917 1.25 2.97917C1.38807 2.97917 1.5 2.86724 1.5 2.72917V2.25C1.5 2.14785 1.52029 2.05106 1.55681 1.96298Z" fill="white"/>
<path d="M14.9051 1.77145C14.8522 1.64391 14.7059 1.58339 14.5784 1.63628C14.4508 1.68917 14.3903 1.83544 14.4432 1.96298C14.4797 2.05106 14.5 2.14785 14.5 2.25V2.72917C14.5 2.86724 14.6119 2.97917 14.75 2.97917C14.8881 2.97917 15 2.86724 15 2.72917V2.25C15 2.08097 14.9663 1.91918 14.9051 1.77145Z" fill="white"/>
<path d="M15 3.6875C15 3.54943 14.8881 3.4375 14.75 3.4375C14.6119 3.4375 14.5 3.54943 14.5 3.6875V4.64583C14.5 4.7839 14.6119 4.89583 14.75 4.89583C14.8881 4.89583 15 4.7839 15 4.64583V3.6875Z" fill="white"/>
<path d="M1.5 3.6875C1.5 3.54943 1.38807 3.4375 1.25 3.4375C1.11193 3.4375 1 3.54943 1 3.6875V4.64583C1 4.7839 1.11193 4.89583 1.25 4.89583C1.38807 4.89583 1.5 4.7839 1.5 4.64583V3.6875Z" fill="white"/>
<path d="M1.5 5.60417C1.5 5.46609 1.38807 5.35417 1.25 5.35417C1.11193 5.35417 1 5.46609 1 5.60417V6.5625C1 6.70057 1.11193 6.8125 1.25 6.8125C1.38807 6.8125 1.5 6.70057 1.5 6.5625V5.60417Z" fill="white"/>
<path d="M15 5.60417C15 5.4661 14.8881 5.35417 14.75 5.35417C14.6119 5.35417 14.5 5.4661 14.5 5.60417V6.5625C14.5 6.70057 14.6119 6.8125 14.75 6.8125C14.8881 6.8125 15 6.70057 15 6.5625V5.60417Z" fill="white"/>
<path d="M1.5 7.52083C1.5 7.38276 1.38807 7.27083 1.25 7.27083C1.11193 7.27083 1 7.38276 1 7.52083V8.47917C1 8.61724 1.11193 8.72917 1.25 8.72917C1.38807 8.72917 1.5 8.61724 1.5 8.47917V7.52083Z" fill="white"/>
<path d="M15 7.52083C15 7.38276 14.8881 7.27083 14.75 7.27083C14.6119 7.27083 14.5 7.38276 14.5 7.52083V8.47917C14.5 8.61724 14.6119 8.72917 14.75 8.72917C14.8881 8.72917 15 8.61724 15 8.47917V7.52083Z" fill="white"/>
<path d="M1.5 9.4375C1.5 9.29943 1.38807 9.1875 1.25 9.1875C1.11193 9.1875 1 9.29943 1 9.4375V10.3958C1 10.5339 1.11193 10.6458 1.25 10.6458C1.38807 10.6458 1.5 10.5339 1.5 10.3958V9.4375Z" fill="white"/>
<path d="M15 9.4375C15 9.29943 14.8881 9.1875 14.75 9.1875C14.6119 9.1875 14.5 9.29943 14.5 9.4375V10.3958C14.5 10.5339 14.6119 10.6458 14.75 10.6458C14.8881 10.6458 15 10.5339 15 10.3958V9.4375Z" fill="white"/>
<path d="M1.5 11.3542C1.5 11.2161 1.38807 11.1042 1.25 11.1042C1.11193 11.1042 1 11.2161 1 11.3542V12.3125C1 12.4506 1.11193 12.5625 1.25 12.5625C1.38807 12.5625 1.5 12.4506 1.5 12.3125V11.3542Z" fill="white"/>
<path d="M15 11.3542C15 11.2161 14.8881 11.1042 14.75 11.1042C14.6119 11.1042 14.5 11.2161 14.5 11.3542V12.3125C14.5 12.4506 14.6119 12.5625 14.75 12.5625C14.8881 12.5625 15 12.4506 15 12.3125V11.3542Z" fill="white"/>
<path d="M1.5 13.2708C1.5 13.1328 1.38807 13.0208 1.25 13.0208C1.11193 13.0208 1 13.1328 1 13.2708V13.75C1 13.919 1.03369 14.0808 1.09495 14.2286C1.14784 14.3561 1.2941 14.4166 1.42164 14.3637C1.54918 14.3108 1.6097 14.1646 1.55681 14.037C1.52029 13.9489 1.5 13.8522 1.5 13.75V13.2708Z" fill="white"/>
<path d="M15 13.2708C15 13.1328 14.8881 13.0208 14.75 13.0208C14.6119 13.0208 14.5 13.1328 14.5 13.2708V13.75C14.5 13.8522 14.4797 13.9489 14.4432 14.037C14.3903 14.1646 14.4508 14.3108 14.5784 14.3637C14.7059 14.4166 14.8522 14.3561 14.9051 14.2286C14.9663 14.0808 15 13.919 15 13.75V13.2708Z" fill="white"/>
<path d="M1.96298 14.4432C1.83544 14.3903 1.68917 14.4508 1.63628 14.5784C1.58339 14.7059 1.64391 14.8522 1.77145 14.9051C1.91918 14.9663 2.08097 15 2.25 15H2.72917C2.86724 15 2.97917 14.8881 2.97917 14.75C2.97917 14.6119 2.86724 14.5 2.72917 14.5H2.25C2.14785 14.5 2.05106 14.4797 1.96298 14.4432Z" fill="white"/>
<path d="M14.2286 14.9051C14.3561 14.8522 14.4166 14.7059 14.3637 14.5784C14.3108 14.4508 14.1646 14.3903 14.037 14.4432C13.9489 14.4797 13.8522 14.5 13.75 14.5H13.2708C13.1328 14.5 13.0208 14.6119 13.0208 14.75C13.0208 14.8881 13.1328 15 13.2708 15H13.75C13.919 15 14.0808 14.9663 14.2286 14.9051Z" fill="white"/>
<path d="M3.6875 14.5C3.54943 14.5 3.4375 14.6119 3.4375 14.75C3.4375 14.8881 3.54943 15 3.6875 15H4.64583C4.7839 15 4.89583 14.8881 4.89583 14.75C4.89583 14.6119 4.7839 14.5 4.64583 14.5H3.6875Z" fill="white"/>
<path d="M5.60417 14.5C5.46609 14.5 5.35417 14.6119 5.35417 14.75C5.35417 14.8881 5.46609 15 5.60417 15H6.5625C6.70057 15 6.8125 14.8881 6.8125 14.75C6.8125 14.6119 6.70057 14.5 6.5625 14.5H5.60417Z" fill="white"/>
<path d="M7.52083 14.5C7.38276 14.5 7.27083 14.6119 7.27083 14.75C7.27083 14.8881 7.38276 15 7.52083 15H8.47917C8.61724 15 8.72917 14.8881 8.72917 14.75C8.72917 14.6119 8.61724 14.5 8.47917 14.5H7.52083Z" fill="white"/>
<path d="M9.4375 14.5C9.29943 14.5 9.1875 14.6119 9.1875 14.75C9.1875 14.8881 9.29943 15 9.4375 15H10.3958C10.5339 15 10.6458 14.8881 10.6458 14.75C10.6458 14.6119 10.5339 14.5 10.3958 14.5H9.4375Z" fill="white"/>
<path d="M11.3542 14.5C11.2161 14.5 11.1042 14.6119 11.1042 14.75C11.1042 14.8881 11.2161 15 11.3542 15H12.3125C12.4506 15 12.5625 14.8881 12.5625 14.75C12.5625 14.6119 12.4506 14.5 12.3125 14.5H11.3542Z" fill="white"/>
<path fill-rule="evenodd" clip-rule="evenodd" d="M5.5 4C4.67157 4 4 4.67157 4 5.5V10.5C4 11.3284 4.67157 12 5.5 12H10.5C11.3284 12 12 11.3284 12 10.5V5.5C12 4.67157 11.3284 4 10.5 4H5.5ZM5 5.5C5 5.22386 5.22386 5 5.5 5H10.5C10.7761 5 11 5.22386 11 5.5V10.5C11 10.7761 10.7761 11 10.5 11H5.5C5.22386 11 5 10.7761 5 10.5V5.5Z" fill="white"/>
</svg>
