<svg width="16" height="16" viewBox="0 0 16 16" fill="none" xmlns="http://www.w3.org/2000/svg">
<path d="M7.45895 5.02145C7.65421 4.82618 7.97079 4.82618 8.16605 5.02145L9.79105 6.64645C9.98632 6.84171 9.98632 7.15829 9.79105 7.35355L8.16605 8.97855C7.97079 9.17382 7.65421 9.17382 7.45895 8.97855C7.26368 8.78329 7.26368 8.46671 7.45895 8.27145L8.23039 7.5H4.5625C4.28636 7.5 4.0625 7.27614 4.0625 7C4.0625 6.72386 4.28636 6.5 4.5625 6.5H8.23039L7.45895 5.72855C7.26368 5.53329 7.26368 5.21671 7.45895 5.02145Z" fill="white"/>
<path fill-rule="evenodd" clip-rule="evenodd" d="M1 2.5C1 1.67157 1.67157 1 2.5 1H11.5C12.3284 1 13 1.67157 13 2.5V3H13.5C14.3284 3 15 3.67157 15 4.5V13.5C15 14.3284 14.3284 15 13.5 15H4.5C3.67157 15 3 14.3284 3 13.5V13H2.5C1.67157 13 1 12.3284 1 11.5V2.5ZM4 13V13.5C4 13.7761 4.22386 14 4.5 14H13.5C13.7761 14 14 13.7761 14 13.5V4.5C14 4.22386 13.7761 4 13.5 4H13V11.5C13 12.3284 12.3284 13 11.5 13H4ZM12 11.5C12 11.7761 11.7761 12 11.5 12H2.5C2.22386 12 2 11.7761 2 11.5V2.5C2 2.22386 2.22386 2 2.5 2H11.5C11.7761 2 12 2.22386 12 2.5V11.5Z" fill="white"/>
</svg>
