<svg width="16" height="16" viewBox="0 0 16 16" fill="none" xmlns="http://www.w3.org/2000/svg">
<path fill-rule="evenodd" clip-rule="evenodd" d="M5 11.25L11 11.25C11.1381 11.25 11.25 11.1381 11.25 11L11.25 5C11.25 4.86193 11.1381 4.75 11 4.75L5 4.75C4.86193 4.75 4.75 4.86193 4.75 5L4.75 11C4.75 11.1381 4.86193 11.25 5 11.25ZM11 12C11.5523 12 12 11.5523 12 11L12 5C12 4.44772 11.5523 4 11 4L5 4C4.44772 4 4 4.44772 4 5L4 11C4 11.5523 4.44772 12 5 12H11Z" fill="white"/>
<path fill-rule="evenodd" clip-rule="evenodd" d="M2.5 1.75C2.42659 1.75 2.35605 1.76047 2.28958 1.77985C2.15703 1.81849 2.01825 1.74236 1.97961 1.60981C1.94096 1.47726 2.01709 1.33848 2.14965 1.29983C2.2611 1.26734 2.37874 1.25 2.5 1.25H2.89787C3.03594 1.25 3.14787 1.36193 3.14787 1.5C3.14787 1.63807 3.03594 1.75 2.89787 1.75H2.5ZM4.05213 1.5C4.05213 1.36193 4.16406 1.25 4.30213 1.25H5.09787C5.23594 1.25 5.34787 1.36193 5.34787 1.5C5.34787 1.63807 5.23594 1.75 5.09787 1.75H4.30213C4.16406 1.75 4.05213 1.63807 4.05213 1.5ZM6.25213 1.5C6.25213 1.36193 6.36406 1.25 6.50213 1.25H7.29787C7.43594 1.25 7.54787 1.36193 7.54787 1.5C7.54787 1.63807 7.43594 1.75 7.29787 1.75H6.50213C6.36406 1.75 6.25213 1.63807 6.25213 1.5ZM8.45213 1.5C8.45213 1.36193 8.56406 1.25 8.70213 1.25H9.49787C9.63594 1.25 9.74787 1.36193 9.74787 1.5C9.74787 1.63807 9.63594 1.75 9.49787 1.75H8.70213C8.56406 1.75 8.45213 1.63807 8.45213 1.5ZM10.6521 1.5C10.6521 1.36193 10.7641 1.25 10.9021 1.25H11.6979C11.8359 1.25 11.9479 1.36193 11.9479 1.5C11.9479 1.63807 11.8359 1.75 11.6979 1.75H10.9021C10.7641 1.75 10.6521 1.63807 10.6521 1.5ZM12.8521 1.5C12.8521 1.36193 12.9641 1.25 13.1021 1.25H13.5C13.6213 1.25 13.7389 1.26734 13.8504 1.29983C13.9829 1.33848 14.059 1.47726 14.0204 1.60981C13.9818 1.74236 13.843 1.81849 13.7104 1.77985C13.644 1.76047 13.5734 1.75 13.5 1.75H13.1021C12.9641 1.75 12.8521 1.63807 12.8521 1.5ZM1.60981 1.97961C1.74236 2.01825 1.81849 2.15703 1.77985 2.28958C1.76047 2.35605 1.75 2.42659 1.75 2.5V2.89787C1.75 3.03594 1.63807 3.14787 1.5 3.14787C1.36193 3.14787 1.25 3.03594 1.25 2.89787V2.5C1.25 2.37874 1.26734 2.2611 1.29983 2.14964C1.33848 2.01709 1.47726 1.94096 1.60981 1.97961ZM14.3902 1.97961C14.5227 1.94096 14.6615 2.01709 14.7002 2.14965C14.7327 2.2611 14.75 2.37874 14.75 2.5V2.89787C14.75 3.03594 14.6381 3.14787 14.5 3.14787C14.3619 3.14787 14.25 3.03594 14.25 2.89787V2.5C14.25 2.42659 14.2395 2.35605 14.2201 2.28958C14.1815 2.15703 14.2576 2.01825 14.3902 1.97961ZM1.5 4.05213C1.63807 4.05213 1.75 4.16406 1.75 4.30213V5.09787C1.75 5.23594 1.63807 5.34787 1.5 5.34787C1.36193 5.34787 1.25 5.23594 1.25 5.09787V4.30213C1.25 4.16406 1.36193 4.05213 1.5 4.05213ZM14.5 4.05213C14.6381 4.05213 14.75 4.16406 14.75 4.30213V5.09787C14.75 5.23594 14.6381 5.34787 14.5 5.34787C14.3619 5.34787 14.25 5.23594 14.25 5.09787V4.30213C14.25 4.16406 14.3619 4.05213 14.5 4.05213ZM1.5 6.25213C1.63807 6.25213 1.75 6.36406 1.75 6.50213V7.29787C1.75 7.43594 1.63807 7.54787 1.5 7.54787C1.36193 7.54787 1.25 7.43594 1.25 7.29787V6.50213C1.25 6.36406 1.36193 6.25213 1.5 6.25213ZM14.5 6.25213C14.6381 6.25213 14.75 6.36406 14.75 6.50213V7.29787C14.75 7.43594 14.6381 7.54787 14.5 7.54787C14.3619 7.54787 14.25 7.43594 14.25 7.29787V6.50213C14.25 6.36406 14.3619 6.25213 14.5 6.25213ZM1.5 8.45213C1.63807 8.45213 1.75 8.56406 1.75 8.70213V9.49787C1.75 9.63594 1.63807 9.74787 1.5 9.74787C1.36193 9.74787 1.25 9.63594 1.25 9.49787V8.70213C1.25 8.56406 1.36193 8.45213 1.5 8.45213ZM14.5 8.45213C14.6381 8.45213 14.75 8.56406 14.75 8.70213V9.49787C14.75 9.63594 14.6381 9.74787 14.5 9.74787C14.3619 9.74787 14.25 9.63594 14.25 9.49787V8.70213C14.25 8.56406 14.3619 8.45213 14.5 8.45213ZM1.5 10.6521C1.63807 10.6521 1.75 10.7641 1.75 10.9021V11.6979C1.75 11.8359 1.63807 11.9479 1.5 11.9479C1.36193 11.9479 1.25 11.8359 1.25 11.6979V10.9021C1.25 10.7641 1.36193 10.6521 1.5 10.6521ZM14.5 10.6521C14.6381 10.6521 14.75 10.7641 14.75 10.9021V11.6979C14.75 11.8359 14.6381 11.9479 14.5 11.9479C14.3619 11.9479 14.25 11.8359 14.25 11.6979V10.9021C14.25 10.7641 14.3619 10.6521 14.5 10.6521ZM1.5 12.8521C1.63807 12.8521 1.75 12.9641 1.75 13.1021V13.5C1.75 13.5734 1.76047 13.644 1.77985 13.7104C1.81849 13.843 1.74236 13.9818 1.60981 14.0204C1.47726 14.059 1.33848 13.9829 1.29983 13.8504C1.26734 13.7389 1.25 13.6213 1.25 13.5V13.1021C1.25 12.9641 1.36193 12.8521 1.5 12.8521ZM14.5 12.8521C14.6381 12.8521 14.75 12.9641 14.75 13.1021V13.5C14.75 13.6213 14.7327 13.7389 14.7002 13.8504C14.6615 13.9829 14.5227 14.059 14.3902 14.0204C14.2576 13.9818 14.1815 13.843 14.2201 13.7104C14.2395 13.644 14.25 13.5734 14.25 13.5V13.1021C14.25 12.9641 14.3619 12.8521 14.5 12.8521ZM1.97961 14.3902C2.01825 14.2576 2.15703 14.1815 2.28958 14.2201C2.35605 14.2395 2.42659 14.25 2.5 14.25H2.89787C3.03594 14.25 3.14787 14.3619 3.14787 14.5C3.14787 14.6381 3.03594 14.75 2.89787 14.75H2.5C2.37874 14.75 2.2611 14.7327 2.14964 14.7002C2.01709 14.6615 1.94096 14.5227 1.97961 14.3902ZM14.0204 14.3902C14.059 14.5227 13.9829 14.6615 13.8504 14.7002C13.7389 14.7327 13.6213 14.75 13.5 14.75H13.1021C12.9641 14.75 12.8521 14.6381 12.8521 14.5C12.8521 14.3619 12.9641 14.25 13.1021 14.25H13.5C13.5734 14.25 13.644 14.2395 13.7104 14.2201C13.843 14.1815 13.9818 14.2576 14.0204 14.3902ZM4.05213 14.5C4.05213 14.3619 4.16406 14.25 4.30213 14.25H5.09787C5.23594 14.25 5.34787 14.3619 5.34787 14.5C5.34787 14.6381 5.23594 14.75 5.09787 14.75H4.30213C4.16406 14.75 4.05213 14.6381 4.05213 14.5ZM6.25213 14.5C6.25213 14.3619 6.36406 14.25 6.50213 14.25H7.29787C7.43594 14.25 7.54787 14.3619 7.54787 14.5C7.54787 14.6381 7.43594 14.75 7.29787 14.75H6.50213C6.36406 14.75 6.25213 14.6381 6.25213 14.5ZM8.45213 14.5C8.45213 14.3619 8.56406 14.25 8.70213 14.25H9.49787C9.63594 14.25 9.74787 14.3619 9.74787 14.5C9.74787 14.6381 9.63594 14.75 9.49787 14.75H8.70213C8.56406 14.75 8.45213 14.6381 8.45213 14.5ZM10.6521 14.5C10.6521 14.3619 10.7641 14.25 10.9021 14.25H11.6979C11.8359 14.25 11.9479 14.3619 11.9479 14.5C11.9479 14.6381 11.8359 14.75 11.6979 14.75H10.9021C10.7641 14.75 10.6521 14.6381 10.6521 14.5Z" fill="white"/>
</svg>
