<svg width="16" height="16" viewBox="0 0 16 16" fill="none" xmlns="http://www.w3.org/2000/svg">
<path fill-rule="evenodd" clip-rule="evenodd" d="M1 8.00295C1.00044 7.68896 1.25533 7.43431 1.56932 7.43418L14.4323 7.42878C14.7463 7.42864 15.0004 7.68308 15 7.99706C14.9996 8.31105 14.7447 8.5657 14.4307 8.56583L1.56773 8.57123C1.25374 8.57137 0.999561 8.31693 1 8.00295Z" fill="#0091E4"/>
<path fill-rule="evenodd" clip-rule="evenodd" d="M8.00973 15C7.69575 15.001 7.44085 14.7473 7.44042 14.4333L7.42247 1.57036C7.42203 1.25637 7.67621 1.00101 7.9902 1C8.30419 0.998993 8.55908 1.25271 8.55952 1.5667L8.57746 14.4296C8.5779 14.7436 8.32372 14.999 8.00973 15Z" fill="#0091E4"/>
</svg>
