<svg width="17" height="16" viewBox="0 0 17 16" fill="none" xmlns="http://www.w3.org/2000/svg">
<path fill-rule="evenodd" clip-rule="evenodd" d="M8.61536 14.25C12.0671 14.25 14.8654 11.4518 14.8654 8C14.8654 4.54822 12.0671 1.75 8.61536 1.75C5.16358 1.75 2.36536 4.54822 2.36536 8C2.36536 11.4518 5.16358 14.25 8.61536 14.25ZM8.61536 15C12.4813 15 15.6154 11.866 15.6154 8C15.6154 4.13401 12.4813 1 8.61536 1C4.74936 1 1.61536 4.13401 1.61536 8C1.61536 11.866 4.74936 15 8.61536 15Z" fill="white"/>
<path fill-rule="evenodd" clip-rule="evenodd" d="M5.61536 8C5.61536 7.72386 5.83921 7.5 6.11536 7.5H11.1154C11.3915 7.5 11.6154 7.72386 11.6154 8C11.6154 8.27614 11.3915 8.5 11.1154 8.5H6.11536C5.83921 8.5 5.61536 8.27614 5.61536 8Z" fill="white"/>
</svg>
