<svg width="16" height="16" viewBox="0 0 16 16" fill="none" xmlns="http://www.w3.org/2000/svg">
<path d="M8.73218 1.5C8.73218 1.22386 8.50832 1 8.23218 1C7.95604 1 7.73218 1.22386 7.73218 1.5V14.5C7.73218 14.7761 7.95604 15 8.23218 15C8.50832 15 8.73218 14.7761 8.73218 14.5V1.5Z" fill="white"/>
<path d="M5.44653 2.85715C5.72268 2.85715 5.94653 3.081 5.94653 3.35715L5.94653 14.5C5.94653 14.7761 5.72268 15 5.44653 15C5.17039 15 4.94653 14.7761 4.94653 14.5L4.94653 3.35715C4.94653 3.081 5.17039 2.85715 5.44653 2.85715Z" fill="white"/>
<path d="M2.19653 6.57144C2.47268 6.57144 2.69653 6.7953 2.69653 7.07144V14.5C2.69653 14.7762 2.47268 15 2.19653 15C1.92039 15 1.69653 14.7762 1.69653 14.5V7.07144C1.69653 6.7953 1.92039 6.57144 2.19653 6.57144Z" fill="white"/>
<path d="M11.5181 7.53571C11.5181 7.25956 11.2942 7.03571 11.0181 7.03571C10.7419 7.03571 10.5181 7.25956 10.5181 7.53571L10.5181 14.5C10.5181 14.7761 10.7419 15 11.0181 15C11.2942 15 11.5181 14.7761 11.5181 14.5L11.5181 7.53571Z" fill="white"/>
<path d="M13.8037 4.71429C14.0799 4.71429 14.3037 4.93815 14.3037 5.21429V14.5C14.3037 14.7762 14.0799 15 13.8037 15C13.5276 15 13.3037 14.7762 13.3037 14.5V5.21429C13.3037 4.93815 13.5276 4.71429 13.8037 4.71429Z" fill="white"/>
</svg>
