<svg width="16" height="16" viewBox="0 0 16 16" fill="none" xmlns="http://www.w3.org/2000/svg">
<path fill-rule="evenodd" clip-rule="evenodd" d="M4.96284 10.1356H4.2093C3.84967 10.1356 3.55814 9.84526 3.55814 9.48706C3.55814 9.12886 3.84967 8.83849 4.2093 8.83849H6.53488C6.89451 8.83849 7.18604 9.12886 7.18604 9.48706V11.8034C7.18604 12.1616 6.89451 12.452 6.53488 12.452C6.17526 12.452 5.88372 12.1616 5.88372 11.8034V11.0529L2.1116 14.81C1.85731 15.0633 1.44502 15.0633 1.19072 14.81C0.936426 14.5567 0.936426 14.146 1.19072 13.8928L4.96284 10.1356Z" fill="#0091E4"/>
<path fill-rule="evenodd" clip-rule="evenodd" d="M1 1.63636C1 1.28491 1.28491 1 1.63636 1H14.3636C14.7151 1 15 1.28491 15 1.63636V14.3636C15 14.7151 14.7151 15 14.3636 15H8.5303C8.17885 15 7.89394 14.7151 7.89394 14.3636C7.89394 14.0122 8.17885 13.7273 8.5303 13.7273H13.7273V2.27273H2.27273V7.4697C2.27273 7.82115 1.98782 8.10606 1.63636 8.10606C1.28491 8.10606 1 7.82115 1 7.4697V1.63636Z" fill="#0091E4"/>
</svg>
