<svg width="16" height="16" viewBox="0 0 16 16" fill="none" xmlns="http://www.w3.org/2000/svg">
<path d="M1.05957 1.49997L1.05957 7.99997C1.05957 8.27611 1.28343 8.49997 1.55957 8.49997C1.83571 8.49997 2.05957 8.27611 2.05957 7.99997L2.05957 1.99997L13.9404 1.99997V14H7.94016C7.66401 14 7.44016 14.2238 7.44016 14.5C7.44016 14.7761 7.66401 15 7.94016 15H14.4404C14.573 15 14.7002 14.9473 14.7939 14.8535C14.8877 14.7598 14.9404 14.6326 14.9404 14.5V1.49997C14.9404 1.22383 14.7165 0.999969 14.4404 0.999969L1.55957 0.99997C1.28343 0.99997 1.05957 1.22383 1.05957 1.49997Z" fill="white"/>
<path d="M6.91312 9.14648C6.96106 9.19442 6.99723 9.24967 7.02163 9.30864C7.04609 9.36775 7.05872 9.4306 7.05953 9.49358L7.05957 9.50081L7.05957 12.5C7.05957 12.7762 6.83571 13 6.55957 13C6.28343 13 6.05957 12.7762 6.05957 12.5V10.7071L1.91312 14.8536C1.71786 15.0488 1.40128 15.0488 1.20602 14.8536C1.01076 14.6583 1.01076 14.3417 1.20602 14.1465L5.35246 10H3.55957C3.28343 10 3.05957 9.77617 3.05957 9.50003C3.05957 9.22389 3.28343 9.00003 3.55957 9.00003H6.55957C6.62736 9.00003 6.69201 9.01353 6.75096 9.03797C6.80993 9.06237 6.86519 9.09854 6.91312 9.14648Z" fill="white"/>
</svg>
