<svg width="17" height="16" viewBox="0 0 17 16" fill="none" xmlns="http://www.w3.org/2000/svg">
<path d="M8.65416 10.9364C8.6618 11.0735 8.61324 11.2131 8.50849 11.3179L6.38717 13.4392C6.19191 13.6345 5.87533 13.6345 5.68007 13.4392C5.48481 13.2439 5.48481 12.9274 5.68007 12.7321L6.94807 11.4641H2.11929C1.84315 11.4641 1.61929 11.2402 1.61929 10.9641C1.61929 10.688 1.84315 10.4641 2.11929 10.4641H6.9476L5.68007 9.19657C5.48481 9.00131 5.48481 8.68473 5.68007 8.48946C5.87533 8.2942 6.19191 8.2942 6.38718 8.48946L8.49965 10.6019C8.58906 10.6871 8.64698 10.805 8.65416 10.9364Z" fill="white"/>
<path fill-rule="evenodd" clip-rule="evenodd" d="M2.11942 7.5C1.84327 7.5 1.61941 7.27614 1.61941 7L1.61941 1.5C1.61941 1.22386 1.84327 0.999999 2.11941 0.999999L15.0002 0.999998C15.2764 0.999998 15.5002 1.22386 15.5002 1.5L15.5002 14.5C15.5002 14.6326 15.4475 14.7598 15.3538 14.8536C15.26 14.9473 15.1328 15 15.0002 15L9.5 15C9.22386 15 9 14.7761 9 14.5C9 14.2239 9.22386 14 9.5 14L14.5002 14L14.5002 2L2.61941 2L2.61941 7C2.61941 7.27614 2.39556 7.5 2.11942 7.5Z" fill="white"/>
</svg>
