<svg width="16" height="16" viewBox="0 0 16 16" fill="none" xmlns="http://www.w3.org/2000/svg">
<path d="M8.09519 10.9642C8.09522 11.0922 8.0464 11.2202 7.94874 11.3179L5.82742 13.4392C5.63215 13.6345 5.31557 13.6345 5.12031 13.4392C4.92505 13.244 4.92505 12.9274 5.12031 12.7321L6.38833 11.4641H1.55957C1.28343 11.4641 1.05957 11.2402 1.05957 10.9641C1.05957 10.688 1.28343 10.4641 1.55957 10.4641L6.38782 10.4641L5.12031 9.19659C4.92505 9.00132 4.92505 8.68474 5.12031 8.48948C5.31557 8.29422 5.63215 8.29422 5.82742 8.48948L7.93903 10.6011C8.0352 10.6922 8.09519 10.8213 8.09519 10.9642C8.09519 10.9642 8.09519 10.9643 8.09519 10.9642Z" fill="white"/>
<path fill-rule="evenodd" clip-rule="evenodd" d="M1.55974 7.5C1.2836 7.5 1.05974 7.27614 1.05974 7L1.05974 1.5C1.05974 1.22386 1.2836 1 1.55974 1L14.4405 1C14.7167 1 14.9405 1.22386 14.9405 1.5V14.5C14.9405 14.6326 14.8879 14.7598 14.7941 14.8536C14.7003 14.9473 14.5732 15 14.4405 15H8.94033C8.66418 15 8.44033 14.7761 8.44033 14.5C8.44033 14.2239 8.66418 14 8.94033 14H13.9405V2L2.05974 2L2.05974 7C2.05974 7.27614 1.83588 7.5 1.55974 7.5Z" fill="white"/>
</svg>
