<svg width="16" height="16" viewBox="0 0 16 16" fill="none" xmlns="http://www.w3.org/2000/svg">
<path fill-rule="evenodd" clip-rule="evenodd" d="M4.5 3.5C4.5 4.07759 4.17355 4.57893 3.69509 4.82957L4.22452 8.01669C4.94645 8.12505 5.5 8.74788 5.5 9.5C5.5 10.3284 4.82843 11 4 11C3.17157 11 2.5 10.3284 2.5 9.5C2.5 8.94804 2.79813 8.46571 3.24214 8.20525L2.70488 4.97098C2.01778 4.83389 1.5 4.22741 1.5 3.5C1.5 2.67157 2.17157 2 3 2C3.82843 2 4.5 2.67157 4.5 3.5ZM3 4C3.27614 4 3.5 3.77614 3.5 3.5C3.5 3.22386 3.27614 3 3 3C2.72386 3 2.5 3.22386 2.5 3.5C2.5 3.77614 2.72386 4 3 4ZM4 10C4.27614 10 4.5 9.77614 4.5 9.5C4.5 9.22386 4.27614 9 4 9C3.72386 9 3.5 9.22386 3.5 9.5C3.5 9.77614 3.72386 10 4 10Z" fill="white"/>
<path fill-rule="evenodd" clip-rule="evenodd" d="M7.63824 6.85783C7.44458 6.94902 7.22824 7 7 7C6.17157 7 5.5 6.32843 5.5 5.5C5.5 4.67157 6.17157 4 7 4C7.82843 4 8.5 4.67157 8.5 5.5C8.5 5.73489 8.44601 5.95716 8.34977 6.1551L9.35034 7.1476C9.5469 7.05301 9.76726 7 10 7C10.1575 7 10.3093 7.02427 10.452 7.06929L11.7532 5.33426C11.5933 5.09573 11.5 4.80876 11.5 4.5C11.5 3.67157 12.1716 3 13 3C13.8284 3 14.5 3.67157 14.5 4.5C14.5 5.32843 13.8284 6 13 6C12.8448 6 12.6952 5.97644 12.5544 5.9327L11.2505 7.67126C11.4081 7.9087 11.5 8.19362 11.5 8.5C11.5 9.32843 10.8284 10 10 10C9.17157 10 8.5 9.32843 8.5 8.5C8.5 8.26959 8.55195 8.05132 8.64477 7.85625L7.63824 6.85783ZM7.5 5.5C7.5 5.77614 7.27614 6 7 6C6.72386 6 6.5 5.77614 6.5 5.5C6.5 5.22386 6.72386 5 7 5C7.27614 5 7.5 5.22386 7.5 5.5ZM10 9C10.2761 9 10.5 8.77614 10.5 8.5C10.5 8.22386 10.2761 8 10 8C9.72386 8 9.5 8.22386 9.5 8.5C9.5 8.77614 9.72386 9 10 9ZM13.5 4.5C13.5 4.77614 13.2761 5 13 5C12.7239 5 12.5 4.77614 12.5 4.5C12.5 4.22386 12.7239 4 13 4C13.2761 4 13.5 4.22386 13.5 4.5Z" fill="white"/>
<path fill-rule="evenodd" clip-rule="evenodd" d="M13 12C13.8284 12 14.5 11.3284 14.5 10.5C14.5 9.67157 13.8284 9 13 9C12.1716 9 11.5 9.67157 11.5 10.5C11.5 11.3284 12.1716 12 13 12ZM13 11C13.2761 11 13.5 10.7761 13.5 10.5C13.5 10.2239 13.2761 10 13 10C12.7239 10 12.5 10.2239 12.5 10.5C12.5 10.7761 12.7239 11 13 11Z" fill="white"/>
<path fill-rule="evenodd" clip-rule="evenodd" d="M10.5 12.5C10.5 13.3284 9.82843 14 9 14C8.17157 14 7.5 13.3284 7.5 12.5C7.5 11.6716 8.17157 11 9 11C9.82843 11 10.5 11.6716 10.5 12.5ZM9.5 12.5C9.5 12.7761 9.27614 13 9 13C8.72386 13 8.5 12.7761 8.5 12.5C8.5 12.2239 8.72386 12 9 12C9.27614 12 9.5 12.2239 9.5 12.5Z" fill="white"/>
</svg>
