<svg width="16" height="16" viewBox="0 0 16 16" fill="none" xmlns="http://www.w3.org/2000/svg">
<path fill-rule="evenodd" clip-rule="evenodd" d="M3 2.5C2.72386 2.5 2.5 2.72386 2.5 3C2.5 3.27614 2.72386 3.5 3 3.5C3.27614 3.5 3.5 3.27614 3.5 3C3.5 2.72386 3.27614 2.5 3 2.5ZM1.5 3C1.5 2.17157 2.17157 1.5 3 1.5C3.82843 1.5 4.5 2.17157 4.5 3C4.5 3.82843 3.82843 4.5 3 4.5C2.17157 4.5 1.5 3.82843 1.5 3Z" fill="white"/>
<path fill-rule="evenodd" clip-rule="evenodd" d="M7 4.5C6.72386 4.5 6.5 4.72386 6.5 5C6.5 5.27614 6.72386 5.5 7 5.5C7.27614 5.5 7.5 5.27614 7.5 5C7.5 4.72386 7.27614 4.5 7 4.5ZM5.5 5C5.5 4.17157 6.17157 3.5 7 3.5C7.82843 3.5 8.5 4.17157 8.5 5C8.5 5.82843 7.82843 6.5 7 6.5C6.17157 6.5 5.5 5.82843 5.5 5Z" fill="white"/>
<path fill-rule="evenodd" clip-rule="evenodd" d="M4 8.5C3.72386 8.5 3.5 8.72386 3.5 9C3.5 9.27614 3.72386 9.5 4 9.5C4.27614 9.5 4.5 9.27614 4.5 9C4.5 8.72386 4.27614 8.5 4 8.5ZM2.5 9C2.5 8.17157 3.17157 7.5 4 7.5C4.82843 7.5 5.5 8.17157 5.5 9C5.5 9.82843 4.82843 10.5 4 10.5C3.17157 10.5 2.5 9.82843 2.5 9Z" fill="white"/>
<path fill-rule="evenodd" clip-rule="evenodd" d="M10 7.5C9.72386 7.5 9.5 7.72386 9.5 8C9.5 8.27614 9.72386 8.5 10 8.5C10.2761 8.5 10.5 8.27614 10.5 8C10.5 7.72386 10.2761 7.5 10 7.5ZM8.5 8C8.5 7.17157 9.17157 6.5 10 6.5C10.8284 6.5 11.5 7.17157 11.5 8C11.5 8.82843 10.8284 9.5 10 9.5C9.17157 9.5 8.5 8.82843 8.5 8Z" fill="white"/>
<path fill-rule="evenodd" clip-rule="evenodd" d="M9 11.5C8.72386 11.5 8.5 11.7239 8.5 12C8.5 12.2761 8.72386 12.5 9 12.5C9.27614 12.5 9.5 12.2761 9.5 12C9.5 11.7239 9.27614 11.5 9 11.5ZM7.5 12C7.5 11.1716 8.17157 10.5 9 10.5C9.82843 10.5 10.5 11.1716 10.5 12C10.5 12.8284 9.82843 13.5 9 13.5C8.17157 13.5 7.5 12.8284 7.5 12Z" fill="white"/>
<path fill-rule="evenodd" clip-rule="evenodd" d="M13 9.5C12.7239 9.5 12.5 9.72386 12.5 10C12.5 10.2761 12.7239 10.5 13 10.5C13.2761 10.5 13.5 10.2761 13.5 10C13.5 9.72386 13.2761 9.5 13 9.5ZM11.5 10C11.5 9.17157 12.1716 8.5 13 8.5C13.8284 8.5 14.5 9.17157 14.5 10C14.5 10.8284 13.8284 11.5 13 11.5C12.1716 11.5 11.5 10.8284 11.5 10Z" fill="white"/>
<path fill-rule="evenodd" clip-rule="evenodd" d="M13 3.5C12.7239 3.5 12.5 3.72386 12.5 4C12.5 4.27614 12.7239 4.5 13 4.5C13.2761 4.5 13.5 4.27614 13.5 4C13.5 3.72386 13.2761 3.5 13 3.5ZM11.5 4C11.5 3.17157 12.1716 2.5 13 2.5C13.8284 2.5 14.5 3.17157 14.5 4C14.5 4.82843 13.8284 5.5 13 5.5C12.1716 5.5 11.5 4.82843 11.5 4Z" fill="white"/>
<path fill-rule="evenodd" clip-rule="evenodd" d="M8.99999 8.00008L6.99999 6.00008L7.70709 5.29297L9.70709 7.29297L8.99999 8.00008Z" fill="white"/>
<path fill-rule="evenodd" clip-rule="evenodd" d="M3.51493 8.1212L2.51493 4.1212L3.48508 3.87866L4.48508 7.87866L3.51493 8.1212Z" fill="white"/>
<path fill-rule="evenodd" clip-rule="evenodd" d="M10 6.99999L12 3.99999L12.8321 4.55469L10.8321 7.55469L10 6.99999Z" fill="white"/>
</svg>
