<svg width="16" height="16" viewBox="0 0 16 16" fill="none" xmlns="http://www.w3.org/2000/svg">
<path fill-rule="evenodd" clip-rule="evenodd" d="M8.87502 1.875C8.87502 2.19887 8.69905 2.48165 8.43752 2.63294V6.04796C9.33165 6.2475 9.99999 7.04568 9.99999 7.99996C9.99999 8.95424 9.33165 9.75243 8.43752 9.95196V13.3671C8.69905 13.5184 8.87502 13.8011 8.87502 14.125C8.87502 14.6082 8.48326 15 8.00002 15C7.51677 15 7.12502 14.6082 7.12502 14.125C7.12502 13.8011 7.30098 13.5184 7.56252 13.3671V9.95197C7.33428 9.90104 7.12076 9.81111 6.92931 9.68953L4.51429 12.1045C4.59224 12.3965 4.51671 12.7208 4.2877 12.9499C3.94599 13.2916 3.39197 13.2916 3.05026 12.9499C2.70855 12.6081 2.70855 12.0541 3.05026 11.7124C3.27928 11.4834 3.60365 11.4079 3.89557 11.4858L6.31055 9.07085C6.18892 8.87936 6.09895 8.66579 6.048 8.4375H2.63294C2.48165 8.69904 2.19887 8.875 1.875 8.875C1.39175 8.875 1 8.48325 1 8C1 7.51675 1.39175 7.125 1.875 7.125C2.19887 7.125 2.48165 7.30096 2.63294 7.5625H6.04798C6.09893 7.33417 6.18891 7.12056 6.31057 6.92905L3.89557 4.51406C3.60366 4.59201 3.27928 4.51648 3.05027 4.28747C2.70856 3.94576 2.70856 3.39174 3.05027 3.05003C3.39198 2.70833 3.946 2.70833 4.28771 3.05003C4.51672 3.27905 4.59225 3.60342 4.51429 3.89534L6.92933 6.31038C7.12078 6.18881 7.33429 6.09888 7.56252 6.04796V2.63294C7.30098 2.48165 7.12502 2.19887 7.12502 1.875C7.12502 1.39175 7.51677 1 8.00002 1C8.48326 1 8.87502 1.39175 8.87502 1.875ZM8.99999 7.99996C8.99999 8.55225 8.55228 8.99996 8 8.99996C7.44771 8.99996 7 8.55225 7 7.99996C7 7.44768 7.44771 6.99996 8 6.99996C8.55228 6.99996 8.99999 7.44768 8.99999 7.99996Z" fill="white"/>
<path d="M9.68957 6.92926C9.53146 6.68029 9.31984 6.46864 9.07089 6.31051L11.4857 3.89566C11.4078 3.60375 11.4833 3.27937 11.7123 3.05036C12.054 2.70865 12.608 2.70865 12.9498 3.05036C13.2915 3.39207 13.2915 3.94609 12.9498 4.2878C12.7207 4.51681 12.3964 4.59234 12.1045 4.51438L9.68957 6.92926Z" fill="white"/>
<path d="M9.99999 7.99996C9.99999 7.84969 9.98344 7.7033 9.95202 7.5625H13.3671C13.5184 7.30096 13.8011 7.125 14.125 7.125C14.6082 7.125 15 7.51675 15 8C15 8.48325 14.6082 8.875 14.125 8.875C13.8011 8.875 13.5184 8.69904 13.3671 8.4375H9.952C9.98343 8.29668 9.99999 8.15026 9.99999 7.99996Z" fill="white"/>
<path d="M9.07091 9.6894C9.31986 9.53126 9.53148 9.31961 9.68959 9.07064L12.1045 11.4855C12.3964 11.4075 12.7207 11.4831 12.9498 11.7121C13.2915 12.0538 13.2915 12.6078 12.9498 12.9495C12.6081 13.2912 12.054 13.2912 11.7123 12.9495C11.4833 12.7205 11.4078 12.3961 11.4857 12.1042L9.07091 9.6894Z" fill="white"/>
</svg>
