<svg width="16" height="16" viewBox="0 0 16 16" fill="none" xmlns="http://www.w3.org/2000/svg">
<path fill-rule="evenodd" clip-rule="evenodd" d="M8.27292 1.16796C8.49732 0.944015 8.86114 0.944015 9.08554 1.16796L14.8317 6.90232C15.0561 7.12626 15.0561 7.48934 14.8317 7.71328L13.1079 9.43359C12.8835 9.65753 12.5196 9.65753 12.2952 9.43359L11.5523 8.6922L10.4522 9.79003L10.9664 12.3563C11.0041 12.5443 10.9451 12.7386 10.8093 12.8742L9.66007 14.0211C9.43567 14.245 9.07184 14.245 8.84744 14.0211L8.84647 14.0201L8.84459 14.0182L5.82827 11.0081L1.98093 14.832C1.75653 15.056 1.3927 15.056 1.1683 14.832C0.9439 14.6081 0.9439 14.245 1.1683 14.0211L5.01565 10.1971L1.9525 7.14021C1.72811 6.91627 1.72774 6.55282 1.95214 6.32888L3.10137 5.18201C3.23722 5.04644 3.43199 4.98759 3.62038 5.02519L6.19191 5.53844L7.29199 4.44062L6.55477 3.70492L6.55062 3.70077L6.54971 3.69987C6.32531 3.47593 6.32467 3.11221 6.54907 2.88826L8.27292 1.16796ZM7.76801 3.29375L8.51093 4.03514C8.73533 4.25908 8.73533 4.62216 8.51093 4.8461L6.78941 6.56409L6.78852 6.56497L6.78767 6.56582C6.65181 6.7014 6.45647 6.76083 6.26808 6.72323L3.69655 6.20998L3.17108 6.73437L9.25376 12.8046L9.77923 12.2802L9.265 9.71399C9.22733 9.52599 9.2863 9.33163 9.42215 9.19606L11.146 7.47576C11.3704 7.25181 11.7342 7.25181 11.9586 7.47576L12.7015 8.21715L13.6128 7.3078L8.67923 2.3844L7.76801 3.29375Z" fill="white"/>
</svg>
