<svg width="16" height="16" viewBox="0 0 16 16" fill="none" xmlns="http://www.w3.org/2000/svg">
<path fill-rule="evenodd" clip-rule="evenodd" d="M8.84545 1.14686C8.65054 0.951792 8.33449 0.951359 8.13904 1.14589L6.28487 2.99136C6.19048 3.0853 6.13747 3.21302 6.13759 3.34619C6.13771 3.47936 6.19095 3.60698 6.2855 3.70076L7.05285 4.46178L5.73409 5.77437L2.8849 5.20781C2.72106 5.17523 2.55177 5.22662 2.4337 5.34479L1.17732 6.60215C0.982236 6.79738 0.982236 7.11375 1.17732 7.30898L4.58019 10.7191L1.14678 14.146C0.951335 14.341 0.951034 14.6576 1.14611 14.8531C1.34119 15.0485 1.65777 15.0488 1.85322 14.8537L5.28655 11.4269L8.68473 14.8323C8.77847 14.9264 8.90577 14.9793 9.03856 14.9794C9.17135 14.9795 9.29873 14.9267 9.39259 14.8328L10.6591 13.5653C10.7774 13.4469 10.8286 13.2771 10.7955 13.113L10.2204 10.2628L11.5314 8.95071L12.2922 9.71214C12.4872 9.90721 12.8032 9.90764 12.9986 9.71311L14.8528 7.86764C14.9469 7.77397 14.9999 7.64672 15.0001 7.51394C15.0003 7.38116 14.9476 7.25377 14.8538 7.15984L8.84545 1.14686ZM8.11434 4.10612L7.347 3.34511L8.4908 2.20669L13.7923 7.51229L12.6469 8.65232L11.8851 7.88992C11.7913 7.79607 11.6641 7.74333 11.5314 7.74333C11.3987 7.74333 11.2715 7.79607 11.1777 7.88992L9.32353 9.74553C9.2052 9.86395 9.15399 10.0337 9.1871 10.1978L9.76227 13.0481L9.03938 13.7715L5.64371 10.3641L2.23784 6.95556L2.9521 6.24075L5.80043 6.80714C5.9638 6.83963 6.13261 6.78863 6.25067 6.67112L8.11498 4.81552C8.20936 4.72157 8.26237 4.59386 8.26225 4.46069C8.26213 4.32752 8.20889 4.1999 8.11434 4.10612Z" fill="white"/>
</svg>
