<svg width="16" height="16" viewBox="0 0 16 16" fill="none" xmlns="http://www.w3.org/2000/svg">
<path d="M2.64645 1.64645C2.74021 1.55268 2.86739 1.5 3 1.5H6C6.27614 1.5 6.5 1.72386 6.5 2C6.5 2.27614 6.27614 2.5 6 2.5H3.5V13.5H12.5V9C12.5 8.72386 12.7239 8.5 13 8.5C13.2761 8.5 13.5 8.72386 13.5 9V14C13.5 14.2761 13.2761 14.5 13 14.5H3C2.72386 14.5 2.5 14.2761 2.5 14V2C2.5 1.86739 2.55268 1.74021 2.64645 1.64645Z" fill="white"/>
<path d="M4.25 6C4.25 5.72386 4.47386 5.5 4.75 5.5H6.25C6.52614 5.5 6.75 5.72386 6.75 6C6.75 6.27614 6.52614 6.5 6.25 6.5H4.75C4.47386 6.5 4.25 6.27614 4.25 6Z" fill="white"/>
<path d="M4.75 8C4.47386 8 4.25 8.22386 4.25 8.5C4.25 8.77614 4.47386 9 4.75 9H11.25C11.5261 9 11.75 8.77614 11.75 8.5C11.75 8.22386 11.5261 8 11.25 8H4.75Z" fill="white"/>
<path d="M4.25 11C4.25 10.7239 4.47386 10.5 4.75 10.5H11.25C11.5261 10.5 11.75 10.7239 11.75 11C11.75 11.2761 11.5261 11.5 11.25 11.5H4.75C4.47386 11.5 4.25 11.2761 4.25 11Z" fill="white"/>
<path d="M10 1.5C9.72386 1.5 9.5 1.72386 9.5 2C9.5 2.27614 9.72386 2.5 10 2.5H11.7929L8.64645 5.64645C8.45118 5.84171 8.45118 6.15829 8.64645 6.35355C8.84171 6.54882 9.15829 6.54882 9.35355 6.35355L12.5 3.20711V5C12.5 5.27614 12.7239 5.5 13 5.5C13.2761 5.5 13.5 5.27614 13.5 5V2C13.5 1.72386 13.2761 1.5 13 1.5H10Z" fill="white"/>
</svg>
