<svg width="16" height="16" viewBox="0 0 16 16" fill="none" xmlns="http://www.w3.org/2000/svg">
<path fill-rule="evenodd" clip-rule="evenodd" d="M14 14.3636C14 14.7151 13.7151 15 13.3636 15L2.63636 15C2.28491 15 2 14.7151 2 14.3636L2 1.63636C2 1.28491 2.28491 1 2.63637 1L6.4697 1C6.82115 1 7.10606 1.28491 7.10606 1.63636C7.10606 1.98782 6.82115 2.27273 6.4697 2.27273L3.27273 2.27273L3.27273 13.7273L12.7273 13.7273V8.5303C12.7273 8.17885 13.0122 7.89394 13.3636 7.89394C13.7151 7.89394 14 8.17885 14 8.5303L14 14.3636Z" fill="#0091E4"/>
<path d="M4 5.5C4 5.22386 4.22386 5 4.5 5H6.25C6.52614 5 6.75 5.22386 6.75 5.5C6.75 5.77614 6.52614 6 6.25 6H4.5C4.22386 6 4 5.77614 4 5.5Z" fill="#0091E4"/>
<path d="M4 7.61538C4 7.33924 4.22386 7.11538 4.5 7.11538H11C11.2761 7.11538 11.5 7.33924 11.5 7.61538C11.5 7.89153 11.2761 8.11538 11 8.11538H4.5C4.22386 8.11538 4 7.89153 4 7.61538Z" fill="#0091E4"/>
<path d="M4 9.69584C4 9.4197 4.22386 9.19584 4.5 9.19584H11C11.2761 9.19584 11.5 9.4197 11.5 9.69584C11.5 9.97199 11.2761 10.1958 11 10.1958H4.5C4.22386 10.1958 4 9.97199 4 9.69584Z" fill="#0091E4"/>
<path fill-rule="evenodd" clip-rule="evenodd" d="M11.7728 2.29715H11.0193C10.6597 2.29715 10.3681 2.00677 10.3681 1.64857C10.3681 1.29038 10.6597 1 11.0193 1H13.3449C13.7045 1 13.996 1.29038 13.996 1.64857V3.96491C13.996 4.32311 13.7045 4.61349 13.3449 4.61349C12.9853 4.61349 12.6937 4.32311 12.6937 3.96491V3.21437L9.92088 5.91722C9.66658 6.1705 9.25429 6.1705 8.99999 5.91722C8.7457 5.66394 8.7457 5.25328 8.99999 5L11.7728 2.29715Z" fill="#0091E4"/>
</svg>
