<svg width="16" height="16" viewBox="0 0 16 16" fill="none" xmlns="http://www.w3.org/2000/svg">
<path fill-rule="evenodd" clip-rule="evenodd" d="M1.10001 3.0001C1.10001 1.95076 1.95067 1.1001 3.00001 1.1001H11.5C12.5493 1.1001 13.4 1.95076 13.4 3.0001V11.1001H14C14.4971 11.1001 14.9 11.503 14.9 12.0001V13.0001C14.9 14.0494 14.0493 14.9001 13 14.9001H5.00001C4.91639 14.9001 4.83877 14.8744 4.77458 14.8306C4.09507 14.6265 3.60001 13.9961 3.60001 13.2501V4.9001H2.00001C1.50295 4.9001 1.10001 4.49715 1.10001 4.0001V3.0001ZM3.60001 4.1001V2.5001C3.60001 2.16873 3.33138 1.9001 3.00001 1.9001C2.39249 1.9001 1.90001 2.39258 1.90001 3.0001V4.0001C1.90001 4.05533 1.94478 4.1001 2.00001 4.1001H3.60001ZM4.26528 1.9001C4.35167 2.08195 4.40001 2.28538 4.40001 2.5001V13.2501C4.40001 13.7195 4.78056 14.1001 5.25001 14.1001C5.71945 14.1001 6.10001 13.7195 6.10001 13.2501V12.0001C6.10001 11.503 6.50295 11.1001 7.00001 11.1001H12.6V3.0001C12.6 2.39258 12.1075 1.9001 11.5 1.9001H4.26528ZM6.66451 14.1001H13C13.6075 14.1001 14.1 13.6076 14.1 13.0001V12.0001C14.1 11.9449 14.0552 11.9001 14 11.9001H7.00001C6.94478 11.9001 6.90001 11.9449 6.90001 12.0001V13.2501C6.90001 13.561 6.81401 13.8518 6.66451 14.1001ZM5.60001 4.0001C5.60001 3.77918 5.77909 3.6001 6.00001 3.6001H9.50001C9.72092 3.6001 9.90001 3.77918 9.90001 4.0001C9.90001 4.22101 9.72092 4.4001 9.50001 4.4001H6.00001C5.77909 4.4001 5.60001 4.22101 5.60001 4.0001ZM5.60001 6.0001C5.60001 5.77918 5.77909 5.6001 6.00001 5.6001H11C11.2209 5.6001 11.4 5.77918 11.4 6.0001C11.4 6.22101 11.2209 6.4001 11 6.4001H6.00001C5.77909 6.4001 5.60001 6.22101 5.60001 6.0001ZM5.60001 8.0001C5.60001 7.77918 5.77909 7.6001 6.00001 7.6001H11C11.2209 7.6001 11.4 7.77918 11.4 8.0001C11.4 8.22101 11.2209 8.4001 11 8.4001H6.00001C5.77909 8.4001 5.60001 8.22101 5.60001 8.0001Z" fill="white"/>
</svg>
