<svg width="20" height="20" viewBox="0 0 20 20" fill="none" xmlns="http://www.w3.org/2000/svg">
<path fill-rule="evenodd" clip-rule="evenodd" d="M9.74185 1.25C9.97657 1.25 10.1668 1.44312 10.1668 1.68134V3.05593C10.1668 3.29415 9.97657 3.48727 9.74185 3.48727C9.50713 3.48727 9.31685 3.29415 9.31685 3.05593V1.68134C9.31685 1.44312 9.50713 1.25 9.74185 1.25ZM3.98097 3.27671C4.11877 3.08386 4.38451 3.04089 4.57453 3.18074L5.62772 3.95587C5.81774 4.09571 5.86007 4.36542 5.72228 4.55827C5.58449 4.75112 5.31874 4.79409 5.12873 4.65424L4.07553 3.87912C3.88552 3.73927 3.84318 3.46956 3.98097 3.27671ZM14.9595 3.23822C15.1182 3.4137 15.1068 3.68656 14.9339 3.84766L14.102 4.62279C13.9291 4.7839 13.6602 4.77225 13.5015 4.59677C13.3428 4.42129 13.3542 4.14843 13.5271 3.98732L14.359 3.21219C14.5319 3.05108 14.8008 3.06274 14.9595 3.23822ZM9.73017 5.19363C7.65055 5.19363 5.96464 6.90464 5.9647 9.01524C5.96472 9.48905 6.052 9.83614 6.18029 10.1168C6.31045 10.4015 6.49184 10.6382 6.71088 10.8862C6.77509 10.959 6.84364 11.0333 6.91476 11.1104C7.31357 11.5428 7.79305 12.0627 8.0409 12.8748C8.29883 13.7198 8.45283 14.9015 8.52646 15.5791C8.53805 15.6858 8.62533 15.7608 8.71946 15.7608H10.5327C10.6202 15.7608 10.7011 15.6964 10.7202 15.6013C10.8541 14.9336 11.1185 13.715 11.4259 12.8553C11.7014 12.0845 12.1633 11.5338 12.5529 11.0691C12.6274 10.9803 12.6993 10.8946 12.7667 10.8111C13.1916 10.285 13.4956 9.79903 13.4956 9.01526C13.4956 6.90463 11.8098 5.19363 9.73017 5.19363ZM5.1147 9.01527C5.11462 6.42818 7.18113 4.33095 9.73017 4.33095C12.2792 4.33095 14.3456 6.42819 14.3456 9.01526C14.3456 10.0922 13.8986 10.7704 13.4241 11.3579C13.3411 11.4607 13.2589 11.5594 13.1782 11.6561C12.7929 12.1183 12.4439 12.5371 12.2249 13.1495C11.9413 13.9428 11.6873 15.1046 11.5531 15.7735C11.455 16.2622 11.0324 16.6235 10.5327 16.6235H8.71946C8.18034 16.6235 7.7394 16.2058 7.68158 15.6737C7.6079 14.9955 7.46031 13.888 7.22897 13.13C7.04315 12.5212 6.70975 12.1565 6.31667 11.7264C6.23919 11.6416 6.15938 11.5543 6.07793 11.462C5.83749 11.1898 5.59154 10.8787 5.40923 10.4798C5.22505 10.0769 5.11472 9.60471 5.1147 9.01527ZM1.875 8.67699C1.875 8.43877 2.06528 8.24565 2.3 8.24565H3.63278C3.8675 8.24565 4.05777 8.43877 4.05777 8.67699C4.05777 8.91521 3.8675 9.10833 3.63278 9.10833H2.3C2.06528 9.10833 1.875 8.91521 1.875 8.67699ZM15.2334 8.67699C15.2334 8.43877 15.4237 8.24565 15.6584 8.24565H17.075C17.3097 8.24565 17.5 8.43877 17.5 8.67699C17.5 8.91521 17.3097 9.10833 17.075 9.10833H15.6584C15.4237 9.10833 15.2334 8.91521 15.2334 8.67699ZM8.04287 17.3645C8.04287 17.1263 8.23314 16.9332 8.46786 16.9332H10.7202C10.9549 16.9332 11.1452 17.1263 11.1452 17.3645C11.1452 17.6027 10.9549 17.7959 10.7202 17.7959H8.46786C8.23314 17.7959 8.04287 17.6027 8.04287 17.3645ZM8.04287 18.4605C8.04287 18.2223 8.23314 18.0292 8.46786 18.0292H10.7202C10.9549 18.0292 11.1452 18.2223 11.1452 18.4605C11.1452 18.6987 10.9549 18.8918 10.7202 18.8918H8.46786C8.23314 18.8918 8.04287 18.6987 8.04287 18.4605Z" fill="white"/>
</svg>
