<svg width="16" height="16" viewBox="0 0 16 16" fill="none" xmlns="http://www.w3.org/2000/svg">
<path fill-rule="evenodd" clip-rule="evenodd" d="M7.79348 1C7.98125 1 8.13348 1.15449 8.13348 1.34507V2.44475C8.13348 2.63532 7.98125 2.78982 7.79348 2.78982C7.6057 2.78982 7.45348 2.63532 7.45348 2.44475V1.34507C7.45348 1.15449 7.6057 1 7.79348 1ZM3.18478 2.62137C3.29501 2.46709 3.50761 2.43271 3.65962 2.54459L4.50218 3.16469C4.65419 3.27657 4.68806 3.49234 4.57783 3.64662C4.46759 3.8009 4.255 3.83527 4.10298 3.7234L3.26043 3.10329C3.10841 2.99142 3.07454 2.77565 3.18478 2.62137ZM11.9676 2.59057C12.0946 2.73096 12.0854 2.94925 11.9471 3.07813L11.2816 3.69823C11.1433 3.82712 10.9282 3.8178 10.8012 3.67741C10.6742 3.53703 10.6834 3.31874 10.8217 3.18986L11.4872 2.56975C11.6255 2.44087 11.8406 2.45019 11.9676 2.59057ZM7.78413 4.1549C6.12044 4.1549 4.77171 5.52371 4.77176 7.21219C4.77177 7.59124 4.8416 7.86892 4.94423 8.09343C5.04836 8.32123 5.19347 8.51058 5.3687 8.70899C5.42008 8.76716 5.47492 8.82662 5.53181 8.88831C5.85086 9.23427 6.23444 9.65019 6.43272 10.2998C6.63906 10.9759 6.76227 11.9212 6.82117 12.4633C6.83044 12.5487 6.90026 12.6086 6.97557 12.6086H8.42618C8.49612 12.6086 8.56088 12.5571 8.57614 12.4811C8.68332 11.9469 8.89484 10.972 9.14071 10.2842C9.36116 9.66759 9.73062 9.22702 10.0423 8.85528C10.1019 8.78421 10.1594 8.71566 10.2134 8.64887C10.5532 8.22798 10.7965 7.83923 10.7965 7.21221C10.7965 5.5237 9.44782 4.1549 7.78413 4.1549ZM4.09176 7.21222C4.0917 5.14254 5.7449 3.46476 7.78413 3.46476C9.82337 3.46476 11.4765 5.14255 11.4765 7.21221C11.4765 8.07372 11.1189 8.61628 10.7393 9.08634C10.6729 9.16855 10.6071 9.2475 10.5426 9.32492C10.2343 9.69466 9.9551 10.0297 9.77993 10.5196C9.55305 11.1543 9.34981 12.0837 9.24246 12.6188C9.16401 13.0098 8.8259 13.2988 8.42618 13.2988H6.97557C6.54427 13.2988 6.19152 12.9646 6.14527 12.539C6.08632 11.9964 5.96825 11.1104 5.78317 10.504C5.63452 10.017 5.3678 9.72516 5.05334 9.38109C4.99135 9.31327 4.92751 9.24341 4.86235 9.16963C4.66999 8.95183 4.47323 8.70292 4.32738 8.38387C4.18004 8.06153 4.09178 7.68376 4.09176 7.21222ZM1.5 6.94159C1.5 6.75101 1.65222 6.59652 1.84 6.59652H2.90622C3.094 6.59652 3.24622 6.75101 3.24622 6.94159C3.24622 7.13217 3.094 7.28666 2.90622 7.28666H1.84C1.65222 7.28666 1.5 7.13217 1.5 6.94159ZM12.1867 6.94159C12.1867 6.75101 12.339 6.59652 12.5267 6.59652H13.66C13.8478 6.59652 14 6.75101 14 6.94159C14 7.13217 13.8478 7.28666 13.66 7.28666H12.5267C12.339 7.28666 12.1867 7.13217 12.1867 6.94159ZM6.43429 13.8916C6.43429 13.701 6.58652 13.5465 6.77429 13.5465H8.57614C8.76391 13.5465 8.91614 13.701 8.91614 13.8916C8.91614 14.0822 8.76391 14.2367 8.57614 14.2367H6.77429C6.58652 14.2367 6.43429 14.0822 6.43429 13.8916ZM6.43429 14.7684C6.43429 14.5778 6.58652 14.4233 6.77429 14.4233H8.57614C8.76391 14.4233 8.91614 14.5778 8.91614 14.7684C8.91614 14.959 8.76391 15.1135 8.57614 15.1135H6.77429C6.58652 15.1135 6.43429 14.959 6.43429 14.7684Z" fill="white"/>
</svg>
