<svg width="16" height="16" viewBox="0 0 16 16" fill="none" xmlns="http://www.w3.org/2000/svg">
<path fill-rule="evenodd" clip-rule="evenodd" d="M5.6 1.56C5.6 1.25072 5.86863 1 6.2 1H9.8C10.1314 1 10.4 1.25072 10.4 1.56H13.4C13.7314 1.56 14 1.81072 14 2.12V14.44C14 14.7493 13.7314 15 13.4 15H2.6C2.26863 15 2 14.7493 2 14.44V2.12C2 1.81072 2.26863 1.56 2.6 1.56H5.6ZM5.6 2.53125H3.01538V14.0375H12.9846V2.53125H10.4C10.4 2.84053 10.1314 3.1 9.8 3.1H6.2C5.86863 3.1 5.6 2.84053 5.6 2.53125ZM7.49611 4.92723C7.75713 4.92723 7.93244 5.13479 7.98571 5.35852L8.81911 8.85879L9.26334 8.02956C9.36498 7.83984 9.57274 7.825 9.8 7.825H11.6C11.9314 7.825 12.2 7.97072 12.2 8.28C12.2 8.58928 11.9314 8.84 11.6 8.84H10.1708L9.13666 10.7704C9.13666 10.7704 8.92308 11.0758 8.64615 11.0758C8.39218 11.0758 8.23971 10.8729 8.18462 10.6415L7.26154 6.97197L6.1145 8.56812C6.00606 8.73679 5.81076 8.84 5.6 8.84H4.4C4.06863 8.84 3.8 8.58928 3.8 8.28C3.8 7.97072 4.06863 7.825 4.4 7.825H5.41538L6.98462 5.19188C7.11095 4.99536 7.26154 4.92723 7.49611 4.92723Z" fill="white"/>
</svg>
