<svg width="16" height="16" viewBox="0 0 16 16" fill="none" xmlns="http://www.w3.org/2000/svg">
<path fill-rule="evenodd" clip-rule="evenodd" d="M5.10111 1.01043C5.37155 1.06627 5.54551 1.33078 5.48967 1.60121L5.28493 2.59272C6.11139 2.21229 7.03129 2.0001 8 2.0001C8.81697 2.0001 9.59986 2.15106 10.3215 2.42706C12.7641 3.36128 14.5 5.72734 14.5 8.5001C14.5 12.09 11.5899 15.0001 8 15.0001C4.41015 15.0001 1.5 12.09 1.5 8.5001C1.5 8.22396 1.72386 8.0001 2 8.0001C2.27614 8.0001 2.5 8.22396 2.5 8.5001C2.5 11.5377 4.96243 14.0001 8 14.0001C11.0376 14.0001 13.5 11.5377 13.5 8.5001C13.5 6.15538 12.0326 4.15215 9.96424 3.36107C9.35489 3.12802 8.69297 3.0001 8 3.0001C7.29207 3.0001 6.61588 3.13364 5.99482 3.37692L6.6075 3.51179C6.87718 3.57116 7.04768 3.83791 6.98831 4.10759C6.92894 4.37728 6.66219 4.54778 6.3925 4.48841L4.46393 4.06386C4.19673 4.00503 4.02643 3.74238 4.08176 3.47443L4.51033 1.39899C4.56617 1.12855 4.83068 0.954587 5.10111 1.01043ZM8 5.5001C8.27614 5.5001 8.5 5.72396 8.5 6.0001V8.29299L10.3536 10.1465C10.5488 10.3418 10.5488 10.6584 10.3536 10.8537C10.1583 11.0489 9.84171 11.0489 9.64645 10.8537L7.64645 8.85365C7.55268 8.75988 7.5 8.63271 7.5 8.5001V6.0001C7.5 5.72396 7.72386 5.5001 8 5.5001Z" fill="white"/>
</svg>
