<svg width="16" height="16" viewBox="0 0 16 16" fill="none" xmlns="http://www.w3.org/2000/svg">
<path d="M7.99097 0.999969C8.26711 0.999969 8.49097 1.22383 8.49097 1.49997V2.64144C8.49097 2.91758 8.26711 3.14144 7.99097 3.14144C7.71482 3.14144 7.49097 2.91758 7.49097 2.64144V1.49997C7.49097 1.22383 7.71482 0.999969 7.99097 0.999969Z" fill="white"/>
<path d="M12.1252 3.22542C12.3185 3.02821 12.3153 2.71165 12.1181 2.51835C11.9209 2.32505 11.6043 2.32823 11.411 2.52543L10.6234 3.32903C10.4301 3.52623 10.4333 3.8428 10.6305 4.0361C10.8277 4.22939 11.1442 4.22622 11.3375 4.02901L12.1252 3.22542Z" fill="white"/>
<path fill-rule="evenodd" clip-rule="evenodd" d="M5.8452 4.19836C6.57558 3.69133 7.4341 3.54407 8.00883 3.54407C8.58344 3.54407 9.44385 3.69127 10.1763 4.19788C10.9368 4.724 11.5162 5.6106 11.5162 6.97535V6.98675C11.5052 7.46951 11.4138 8.39172 10.3807 9.50663C10.0998 9.81008 9.87666 10.4107 9.73115 11.1054C9.59044 11.7773 9.54308 12.431 9.54706 12.7435C9.54876 12.8772 9.49684 13.006 9.40289 13.1012C9.30895 13.1963 9.18081 13.2499 9.0471 13.2499H6.97951C6.84579 13.2499 6.71763 13.1963 6.62369 13.1011C6.52974 13.006 6.47783 12.8771 6.47955 12.7434C6.48354 12.4346 6.4382 11.7829 6.29866 11.1115C6.15442 10.4176 5.93129 9.81469 5.64604 9.50674L5.64458 9.50517C4.61374 8.38268 4.52156 7.47132 4.51051 6.98674L4.51025 6.97535C4.51025 5.61155 5.08671 4.72491 5.8452 4.19836ZM5.51039 6.96973C5.51756 7.27301 5.55549 7.9294 6.38045 8.82804C6.86445 9.35115 7.12892 10.1921 7.27773 10.908C7.37832 11.392 7.43582 11.8696 7.46213 12.2499H8.56487C8.59183 11.8666 8.65068 11.386 8.75239 10.9004C8.90226 10.1849 9.16695 9.34571 9.64684 8.8273C10.4701 7.93896 10.509 7.27491 10.5162 6.96972C10.5147 5.93636 10.0967 5.3588 9.60737 5.0203C9.08892 4.66168 8.44564 4.54407 8.00883 4.54407C7.57214 4.54407 6.93144 4.66163 6.41546 5.01982C5.92846 5.3579 5.51189 5.93541 5.51039 6.96973Z" fill="white"/>
<path d="M6.54224 14.5C6.54224 14.2238 6.76609 14 7.04224 14H8.81445C9.09059 14 9.31445 14.2238 9.31445 14.5C9.31445 14.7761 9.09059 15 8.81445 15H7.04224C6.76609 15 6.54224 14.7761 6.54224 14.5Z" fill="white"/>
<path d="M4.57094 2.52543C4.37765 2.32823 4.06108 2.32505 3.86387 2.51835C3.66666 2.71165 3.66349 3.02821 3.85679 3.22542L4.64444 4.02901C4.83774 4.22622 5.1543 4.22939 5.35151 4.0361C5.54872 3.8428 5.55189 3.52623 5.3586 3.32903L4.57094 2.52543Z" fill="white"/>
<path d="M2.12061 6.94778C2.12061 6.67164 2.34446 6.44778 2.62061 6.44778H3.73943C4.01557 6.44778 4.23943 6.67164 4.23943 6.94778C4.23943 7.22393 4.01557 7.44778 3.73943 7.44778H2.62061C2.34446 7.44778 2.12061 7.22393 2.12061 6.94778Z" fill="white"/>
<path d="M12.2605 6.44778C11.9844 6.44778 11.7605 6.67164 11.7605 6.94778C11.7605 7.22393 11.9844 7.44778 12.2605 7.44778H13.3793C13.6555 7.44778 13.8793 7.22393 13.8793 6.94778C13.8793 6.67164 13.6555 6.44778 13.3793 6.44778H12.2605Z" fill="white"/>
</svg>
