<svg width="16" height="16" viewBox="0 0 16 16" fill="none" xmlns="http://www.w3.org/2000/svg">
<path fill-rule="evenodd" clip-rule="evenodd" d="M12.3228 1.18639C12.5713 0.937871 12.9742 0.937871 13.2227 1.18639L14.8136 2.77729C15.0621 3.02581 15.0621 3.42873 14.8136 3.67725L5.26817 13.2227C5.21981 13.2711 5.16396 13.3113 5.10278 13.3419L1.92097 14.9328C1.67598 15.0553 1.38009 15.0073 1.1864 14.8136C0.99272 14.6199 0.944704 14.324 1.0672 14.079L2.65811 10.8972C2.6887 10.836 2.72895 10.7802 2.77731 10.7318L12.3228 1.18639ZM3.75028 11.5588L3.05933 12.9407L4.44124 12.2497L13.4637 3.22727L12.7727 2.53632L3.75028 11.5588Z" fill="white"/>
</svg>
