<svg width="16" height="16" viewBox="0 0 16 16" fill="none" xmlns="http://www.w3.org/2000/svg">
<path fill-rule="evenodd" clip-rule="evenodd" d="M11.6464 0.896447C11.4512 1.09171 11.4512 1.40829 11.6464 1.60355L13.2929 3.25H7C3.68629 3.25 1 5.93629 1 9.25C1 12.5637 3.68629 15.25 7 15.25C7.27614 15.25 7.5 15.0261 7.5 14.75C7.5 14.4739 7.27614 14.25 7 14.25C4.23858 14.25 2 12.0114 2 9.25C2 6.48858 4.23858 4.25 7 4.25H13.2929L11.6464 5.89645C11.4512 6.09171 11.4512 6.40829 11.6464 6.60355C11.8417 6.79882 12.1583 6.79882 12.3536 6.60355L14.8536 4.10355C15.0488 3.90829 15.0488 3.59171 14.8536 3.39645L12.3536 0.896447C12.1583 0.701184 11.8417 0.701184 11.6464 0.896447Z" fill="white"/>
</svg>
