<svg width="16" height="16" viewBox="0 0 16 16" fill="none" xmlns="http://www.w3.org/2000/svg">
<path d="M4.9736 1.58662C5.02148 1.31466 4.83983 1.05538 4.56787 1.0075C4.29591 0.959625 4.03663 1.14128 3.98875 1.41324L3.43221 4.57445C3.38469 4.84438 3.56334 5.10226 3.83275 5.15263L6.88834 5.72394C7.15978 5.7747 7.42096 5.59579 7.47171 5.32436C7.52247 5.05292 7.34356 4.79173 7.07213 4.74098L5.06607 4.3659C5.90445 3.80188 6.91356 3.47308 8 3.47308C10.9069 3.47308 13.2634 5.82959 13.2634 8.7365C13.2634 11.6434 10.9069 13.9999 8 13.9999C5.09309 13.9999 2.73657 11.6434 2.73657 8.7365C2.73657 8.46036 2.51271 8.2365 2.23657 8.2365C1.96043 8.2365 1.73657 8.46036 1.73657 8.7365C1.73657 12.1957 4.5408 14.9999 8 14.9999C11.4592 14.9999 14.2634 12.1957 14.2634 8.7365C14.2634 5.27731 11.4592 2.47308 8 2.47308C6.76648 2.47308 5.61584 2.82999 4.6463 3.44575L4.9736 1.58662Z" fill="white"/>
<path d="M9.41988 10.8333C9.61515 11.0286 9.93173 11.0286 10.127 10.8333C10.3223 10.638 10.3223 10.3214 10.127 10.1262L8.50007 8.49927L8.50007 6.91461C8.50008 6.63847 8.27622 6.41461 8.00008 6.41461C7.72393 6.41461 7.50007 6.63847 7.50007 6.91461L7.50007 8.70637C7.50007 8.83898 7.55275 8.96616 7.64652 9.05993L9.41988 10.8333Z" fill="white"/>
</svg>
