<svg width="16" height="16" viewBox="0 0 16 16" fill="none" xmlns="http://www.w3.org/2000/svg">
<path fill-rule="evenodd" clip-rule="evenodd" d="M3.69003 7C3.69003 7.28 3.91003 7.5 4.19003 7.5C4.47003 7.5 4.69003 7.28 4.69003 7V2.85L4.69024 2.83336C4.69183 2.73805 4.69776 2.38205 4.53003 2H11.75C12.05 2 12.27 2.07 12.4 2.21C12.6032 2.4228 12.6004 2.75722 12.6001 2.80604L12.6 2.81V4.95C12.6 5.23 12.82 5.45 13.1 5.45C13.38 5.45 13.6 5.23 13.6 4.95V2.84L13.6003 2.82313C13.6027 2.68937 13.6147 2.0326 13.14 1.52C12.91 1.29 12.49 1 11.75 1H2.84003C2.11003 1 1.68003 1.29 1.46003 1.54C0.982512 2.04617 0.997523 2.70739 0.999839 2.80939L1.00003 2.82V4.68C1.00003 4.81 1.05003 4.94 1.15003 5.03C1.24003 5.12 1.37003 5.18 1.50003 5.18L3.69003 5.17V7ZM2.00003 4.17V2.78C2.00003 2.78 1.98003 2.43 2.19003 2.21C2.33003 2.07 2.55003 2 2.84003 2C3.14003 2 3.36003 2.07 3.49003 2.21C3.69315 2.4228 3.69045 2.75722 3.69005 2.80604L3.69003 2.81V4.16L2.00003 4.17Z" fill="white"/>
<path fill-rule="evenodd" clip-rule="evenodd" d="M15.0001 13.18V11.4C15.0001 11.12 14.7801 10.9 14.5001 10.9H13.6001V9.25C13.6001 8.97 13.3801 8.75 13.1001 8.75C12.8201 8.75 12.6001 8.97 12.6001 9.25V10.9H6.89012C6.61012 10.9 6.39012 11.12 6.39012 11.4V13.21C6.39012 13.21 6.40012 13.56 6.19012 13.78C5.92012 14.06 5.15012 14.06 4.88012 13.78C4.67529 13.5654 4.67976 13.2367 4.6801 13.2113L4.68012 13.21V11.6C4.68012 11.32 4.46012 11.1 4.18012 11.1C3.90012 11.1 3.68012 11.32 3.68012 11.6V13.18C3.67012 13.32 3.67012 13.97 4.14012 14.47C4.48012 14.82 4.95012 15 5.54012 15H13.1501C13.8801 15 14.3101 14.71 14.5401 14.47C15.0176 13.9543 15.0026 13.2926 15.0003 13.1906L15.0001 13.18ZM13.8101 13.78C13.6701 13.93 13.4501 14 13.1501 14H7.23012C7.39898 13.6154 7.39183 13.2659 7.3903 13.1911L7.39012 13.18V11.9H14.0001V13.21C14.0001 13.21 14.0201 13.56 13.8101 13.78Z" fill="white"/>
<path d="M6.37012 3.67999H9.52012C9.80012 3.67999 10.0201 3.89999 10.0201 4.17999C10.0201 4.45999 9.80012 4.67999 9.52012 4.67999H6.37012C6.09012 4.67999 5.87012 4.45999 5.87012 4.17999C5.87012 3.89999 6.09012 3.67999 6.37012 3.67999Z" fill="white"/>
<path d="M9.52012 5.59H6.37012C6.09012 5.59 5.87012 5.81 5.87012 6.09C5.87012 6.37 6.09012 6.59 6.37012 6.59H9.52012C9.80012 6.59 10.0201 6.37 10.0201 6.09C10.0201 5.81 9.80012 5.59 9.52012 5.59Z" fill="white"/>
<path d="M14.3501 6.06C14.6101 5.98 14.8901 6.13 14.9701 6.39C15.0501 6.66 14.9001 6.94 14.6301 7.02L2.48011 10.67C2.44011 10.68 2.39011 10.69 2.34011 10.69C2.12011 10.69 1.92011 10.55 1.86011 10.33C1.78011 10.07 1.93011 9.79 2.20011 9.71L14.3501 6.06Z" fill="white"/>
</svg>
