<svg width="16" height="16" viewBox="0 0 16 16" fill="none" xmlns="http://www.w3.org/2000/svg">
<path fill-rule="evenodd" clip-rule="evenodd" d="M12.3451 1.14649C12.1499 0.951245 11.8333 0.951251 11.638 1.14651L3.70961 9.07494C3.67452 9.11002 3.64486 9.15013 3.62158 9.19395L1.95516 12.3313C1.85409 12.5216 1.88629 12.7552 2.03507 12.9111C2.18386 13.0669 2.41575 13.11 2.61053 13.0178L5.93523 11.4452C5.98713 11.4207 6.0344 11.3874 6.07499 11.3468L13.9567 3.46506C14.0505 3.37129 14.1031 3.24411 14.1031 3.1115C14.1031 2.97889 14.0505 2.85171 13.9567 2.75794L12.3451 1.14649ZM4.46963 9.72913L11.9916 2.20716L12.896 3.11152L5.42922 10.5783L3.54524 11.4695L4.46963 9.72913Z" fill="white"/>
<path d="M1.5 14.0001C1.22386 14.0001 1 14.2239 1 14.5001C1 14.7762 1.22386 15.0001 1.5 15.0001H14.5C14.7761 15.0001 15 14.7762 15 14.5001C15 14.2239 14.7761 14.0001 14.5 14.0001H1.5Z" fill="white"/>
</svg>
