<svg width="16" height="16" viewBox="0 0 16 16" fill="none" xmlns="http://www.w3.org/2000/svg">
<path fill-rule="evenodd" clip-rule="evenodd" d="M11.6464 1.14645C11.4512 1.34171 11.4512 1.65829 11.6464 1.85355L13.2929 3.5H6.75C3.57436 3.5 1 6.07436 1 9.25C1 12.4256 3.57436 15 6.75 15H7.5C7.77614 15 8 14.7761 8 14.5C8 14.2239 7.77614 14 7.5 14H6.75C4.12665 14 2 11.8734 2 9.25C2 6.62665 4.12665 4.5 6.75 4.5H13.2929L11.6464 6.14645C11.4512 6.34171 11.4512 6.65829 11.6464 6.85355C11.8417 7.04882 12.1583 7.04882 12.3536 6.85355L14.8536 4.35355C15.0488 4.15829 15.0488 3.84171 14.8536 3.64645L12.3536 1.14645C12.1583 0.951184 11.8417 0.951184 11.6464 1.14645Z" fill="white"/>
</svg>
