<svg width="16" height="16" viewBox="0 0 16 16" fill="none" xmlns="http://www.w3.org/2000/svg">
<path fill-rule="evenodd" clip-rule="evenodd" d="M1.20001 3.0001C1.20001 1.95076 2.05067 1.1001 3.10001 1.1001H11.6C12.6494 1.1001 13.5 1.95076 13.5 3.0001L13.5 4.0001C13.5 4.22101 13.3209 4.4001 13.1 4.4001L13.1 8.82374C13.3209 8.82379 13.5 9.00291 13.5 9.22384L13.5 11.1001H14.1C14.5971 11.1001 15 11.503 15 12.0001V13.0001C15 14.0494 14.1494 14.9001 13.1 14.9001H5.10001C5.0164 14.9001 4.93878 14.8744 4.87459 14.8306C4.19508 14.6265 3.70001 13.9961 3.70001 13.2501V12.1324C3.70001 11.9114 3.8791 11.7324 4.10001 11.7324V6.4001C3.8791 6.4001 3.70001 6.22101 3.70001 6.0001V4.9001H2.10001C1.60296 4.9001 1.20001 4.49715 1.20001 4.0001V3.0001ZM3.70001 4.1001V2.5001C3.70001 2.16873 3.43138 1.9001 3.10001 1.9001C2.4925 1.9001 2.00001 2.39258 2.00001 3.0001V4.0001C2.00001 4.05533 2.04478 4.1001 2.10001 4.1001H3.70001ZM4.36529 1.9001C4.45167 2.08195 4.50001 2.28538 4.50001 2.5001V6.0001C4.50001 6.22101 4.32093 6.4001 4.10001 6.4001V11.7324C4.32093 11.7324 4.50001 11.9114 4.50001 12.1324V13.2501C4.50001 13.7195 4.88057 14.1001 5.35001 14.1001C5.81945 14.1001 6.20001 13.7195 6.20001 13.2501V12.0001C6.20001 11.503 6.60296 11.1001 7.10001 11.1001H12.7L12.7 9.22383C12.7 9.0029 12.8791 8.82379 13.1 8.82374L13.1 4.4001C12.8791 4.4001 12.7 4.22101 12.7 4.0001L12.7 3.0001C12.7 2.39258 12.2075 1.9001 11.6 1.9001H4.36529ZM6.76451 14.1001H13.1C13.7075 14.1001 14.2 13.6076 14.2 13.0001V12.0001C14.2 11.9449 14.1552 11.9001 14.1 11.9001H7.10001C7.04478 11.9001 7.00001 11.9449 7.00001 12.0001V13.2501C7.00001 13.561 6.91402 13.8518 6.76451 14.1001ZM5.70001 4.0001C5.70001 3.77918 5.8791 3.6001 6.10001 3.6001H9.60001C9.82093 3.6001 10 3.77918 10 4.0001C10 4.22101 9.82093 4.4001 9.60001 4.4001H6.10001C5.8791 4.4001 5.70001 4.22101 5.70001 4.0001ZM5.70001 6.0001C5.70001 5.77918 5.8791 5.6001 6.10001 5.6001H9.70001C9.92092 5.6001 10.1 5.77918 10.1 6.0001C10.1 6.22101 9.92092 6.4001 9.70001 6.4001H6.10001C5.8791 6.4001 5.70001 6.22101 5.70001 6.0001Z" fill="white"/>
<path fill-rule="evenodd" clip-rule="evenodd" d="M14.7824 6.28257C14.8474 6.49371 14.7289 6.71755 14.5177 6.78252L1.99999 10.5001C1.78885 10.5651 1.56501 10.4466 1.50005 10.2354C1.43508 10.0243 1.55358 9.80044 1.76472 9.73547L14.2825 6.01789C14.4936 5.95292 14.7174 6.07142 14.7824 6.28257Z" fill="white"/>
</svg>
