<svg width="16" height="16" viewBox="0 0 16 16" fill="none" xmlns="http://www.w3.org/2000/svg">
<path d="M9.52012 4.67999H6.37012C6.10012 4.67999 5.87012 4.45999 5.87012 4.17999C5.87012 3.89999 6.09012 3.67999 6.37012 3.67999H9.52012C9.80012 3.67999 10.0201 3.89999 10.0201 4.17999C10.0201 4.45999 9.80012 4.67999 9.52012 4.67999Z" fill="white"/>
<path d="M10.8701 5.59H6.37012C6.09012 5.59 5.87012 5.81 5.87012 6.09C5.87012 6.37 6.09012 6.59 6.37012 6.59H10.8701C11.1501 6.59 11.3701 6.37 11.3701 6.09C11.3701 5.81 11.1501 5.59 10.8701 5.59Z" fill="white"/>
<path d="M6.37012 7.5H10.8701C11.1501 7.5 11.3701 7.72 11.3701 8C11.3701 8.28 11.1501 8.5 10.8701 8.5H6.37012C6.09012 8.5 5.87012 8.28 5.87012 8C5.87012 7.72 6.09012 7.5 6.37012 7.5Z" fill="white"/>
<path fill-rule="evenodd" clip-rule="evenodd" d="M15 11.4V13.18L15.0002 13.1906C15.0025 13.2926 15.0176 13.9543 14.54 14.47C14.31 14.71 13.88 15 13.15 15H5.54003C4.81003 15 4.38003 14.71 4.16003 14.47C3.69003 13.97 3.69003 13.32 3.70003 13.18V5.17L1.51003 5.18C1.33003 5.16 1.24003 5.12 1.15003 5.03C1.05003 4.94 1.00003 4.81 1.00003 4.68V2.82L0.999839 2.80939C0.997523 2.70739 0.982512 2.04617 1.46003 1.54C1.68003 1.29 2.11003 1 2.84003 1H11.75C12.49 1 12.91 1.29 13.14 1.53C13.6147 2.0426 13.6027 2.69937 13.6003 2.83313L13.6 2.85V10.9H14.5C14.78 10.9 15 11.12 15 11.4ZM2.00003 2.78V4.17L3.70003 4.16V2.81L3.70005 2.80604C3.70045 2.75722 3.70315 2.4228 3.50003 2.21C3.36003 2.07 3.13003 2 2.84003 2C2.55003 2 2.33003 2.07 2.19003 2.21C1.98003 2.43 2.00003 2.78 2.00003 2.78ZM6.39003 13.21V11.4C6.39003 11.13 6.61003 10.9 6.89003 10.9H12.6V2.81L12.6001 2.80604C12.6004 2.75722 12.6032 2.4228 12.4 2.21C12.27 2.07 12.05 2 11.75 2H4.53003C4.69776 2.38205 4.69183 2.73805 4.69024 2.83336L4.69003 2.85V13.2L4.69001 13.2013C4.68967 13.2267 4.6852 13.5554 4.89003 13.77C5.16003 14.06 5.93003 14.06 6.20003 13.77C6.40003 13.56 6.39003 13.21 6.39003 13.21ZM13.15 14C13.45 14 13.67 13.93 13.81 13.78C14.02 13.56 14 13.21 14 13.21V11.9H7.39003V13.18L7.39021 13.1911C7.39174 13.2659 7.39889 13.6154 7.23003 14H13.15Z" fill="white"/>
</svg>
