<svg width="17" height="16" viewBox="0 0 17 16" fill="none" xmlns="http://www.w3.org/2000/svg">
  <path fill-rule="evenodd" clip-rule="evenodd" d="M12.4834 0.646447C12.6786 0.45119 12.9952 0.451184 13.1905 0.646434L14.926 2.38184C15.0198 2.4756 15.0724 2.60278 15.0724 2.73539C15.0724 2.868 15.0198 2.99518 14.926 3.08896L6.43801 11.5769C6.39742 11.6175 6.35014 11.6508 6.29825 11.6754L2.7178 13.369C2.52302 13.4611 2.29113 13.4181 2.14234 13.2622C1.99356 13.1064 1.96136 12.8727 2.06243 12.6824L3.85704 9.30377C3.88031 9.25995 3.90998 9.21984 3.94506 9.18476L12.4834 0.646447ZM12.8369 1.70709L4.70509 9.83895L3.65251 11.8206L5.79224 10.8085L13.8653 2.73541L12.8369 1.70709Z" fill="white"/>
  <path fill-rule="evenodd" clip-rule="evenodd" d="M1.03824 15C1.03824 14.7239 1.2621 14.5 1.53824 14.5H15.5382C15.8144 14.5 16.0382 14.7239 16.0382 15C16.0382 15.2761 15.8144 15.5 15.5382 15.5H1.53824C1.2621 15.5 1.03824 15.2761 1.03824 15Z" fill="white"/>
</svg>
