<svg width="16" height="16" viewBox="0 0 16 16" fill="none" xmlns="http://www.w3.org/2000/svg">
<path fill-rule="evenodd" clip-rule="evenodd" d="M2.5 2C2.22386 2 2 2.22386 2 2.5V13.5C2 13.7761 2.22386 14 2.5 14H13.5C13.7761 14 14 13.7761 14 13.5V5.37475C14 5.06965 13.907 4.77179 13.7333 4.52094L12.4354 2.64619C12.1552 2.24149 11.6943 2 11.2021 2H10.9375V4.5625C10.9375 5.39093 10.2659 6.0625 9.4375 6.0625H5.34375C4.51532 6.0625 3.84375 5.39093 3.84375 4.5625V2H2.5ZM4.84375 2V4.5625C4.84375 4.83864 5.06761 5.0625 5.34375 5.0625H9.4375C9.71364 5.0625 9.9375 4.83864 9.9375 4.5625V2H4.84375ZM1 2.5C1 1.67157 1.67157 1 2.5 1H11.2021C12.0225 1 12.7906 1.40248 13.2576 2.07698L14.5555 3.95173C14.8449 4.36982 15 4.86624 15 5.37475V13.5C15 14.3284 14.3284 15 13.5 15H2.5C1.67157 15 1 14.3284 1 13.5V2.5ZM3.84375 8.8125C3.84375 8.53636 4.06761 8.3125 4.34375 8.3125H10.4375C10.7136 8.3125 10.9375 8.53636 10.9375 8.8125C10.9375 9.08864 10.7136 9.3125 10.4375 9.3125H4.34375C4.06761 9.3125 3.84375 9.08864 3.84375 8.8125ZM3.84375 11.25C3.84375 10.9739 4.06761 10.75 4.34375 10.75H8C8.27614 10.75 8.5 10.9739 8.5 11.25C8.5 11.5261 8.27614 11.75 8 11.75H4.34375C4.06761 11.75 3.84375 11.5261 3.84375 11.25Z" fill="white"/>
</svg>
