<svg width="16" height="16" viewBox="0 0 16 16" fill="none" xmlns="http://www.w3.org/2000/svg">
<path d="M4.5 8.5C4.22386 8.5 4 8.72386 4 9C4 9.27614 4.22386 9.5 4.5 9.5H10.5C10.7761 9.5 11 9.27614 11 9C11 8.72386 10.7761 8.5 10.5 8.5H4.5Z" fill="white"/>
<path d="M4.5 11C4.22386 11 4 11.2239 4 11.5C4 11.7761 4.22386 12 4.5 12H8C8.27614 12 8.5 11.7761 8.5 11.5C8.5 11.2239 8.27614 11 8 11H4.5Z" fill="white"/>
<path fill-rule="evenodd" clip-rule="evenodd" d="M2.5 1C1.67157 1 1 1.67157 1 2.5V13.5C1 14.3284 1.67157 15 2.5 15H13.5C14.3284 15 15 14.3284 15 13.5V5.32047C15 5.00783 14.9023 4.70301 14.7206 4.44861L12.706 1.62814C12.4244 1.23395 11.9698 1 11.4854 1H2.5ZM2 2.5C2 2.22386 2.22386 2 2.5 2H4V4.5C4 5.32843 4.67157 6 5.5 6H9.5C10.3284 6 11 5.32843 11 4.5V2H11.4854C11.6469 2 11.7984 2.07798 11.8922 2.20938L13.9069 5.02985C13.9674 5.11465 14 5.21625 14 5.32047V13.5C14 13.7761 13.7761 14 13.5 14H2.5C2.22386 14 2 13.7761 2 13.5V2.5ZM5 4.5V2H10V4.5C10 4.77614 9.77614 5 9.5 5H5.5C5.22386 5 5 4.77614 5 4.5Z" fill="white"/>
</svg>
