<svg width="16" height="16" viewBox="0 0 16 16" fill="none" xmlns="http://www.w3.org/2000/svg">
<path fill-rule="evenodd" clip-rule="evenodd" d="M6.57697 1.36062C6.66041 1.14332 6.8684 1 7.1003 1H8.83639C9.06685 1 9.27386 1.14157 9.35829 1.35693L9.79081 2.46017C10.0669 2.54883 10.3289 2.65874 10.5838 2.78682L11.6513 2.29518C11.8644 2.19703 12.1158 2.24235 12.2816 2.4088L13.5195 3.65132C13.6829 3.81536 13.7294 4.06326 13.6367 4.2758L13.1589 5.37083C13.2856 5.62731 13.3946 5.89335 13.4826 6.16559L14.6388 6.60811C14.8563 6.69134 15 6.90077 15 7.13447V8.85704C15 9.08867 14.8588 9.29669 14.6441 9.38135L13.5316 9.82009C13.4435 10.0962 13.3343 10.3585 13.2067 10.6141L13.6842 11.7083C13.7769 11.9208 13.7304 12.1686 13.5671 12.3327L12.33 13.5752C12.1642 13.7417 11.9128 13.7871 11.6997 13.689L10.6305 13.1969C10.3744 13.3243 10.1084 13.434 9.83599 13.5227L9.40721 14.6394C9.32377 14.8567 9.11578 15 8.88387 15H7.11613C6.88486 15 6.6773 14.8574 6.59342 14.641L6.16038 13.5235C5.8848 13.4349 5.62319 13.3252 5.36872 13.1973L4.30121 13.6889C4.0881 13.7871 3.8367 13.7418 3.67088 13.5753L2.43304 12.3328C2.26962 12.1687 2.22309 11.9208 2.31583 11.7083L2.79364 10.6133C2.66654 10.3561 2.55732 10.0892 2.46916 9.81619L1.35758 9.38202C1.142 9.29781 1 9.08934 1 8.85704V7.14296C1 6.91214 1.14022 6.70469 1.35381 6.61947L2.45218 6.18126C2.54029 5.9047 2.6497 5.64192 2.77746 5.38593L2.3 4.2917C2.20729 4.07922 2.25376 3.83139 2.4171 3.66734L3.65418 2.42481C3.81996 2.2583 4.07137 2.21292 4.28452 2.31102L5.35363 2.80312C5.60981 2.67566 5.87578 2.56596 6.14819 2.47729L6.57697 1.36062ZM7.48517 2.12658L7.09552 3.14132C7.03095 3.30949 6.89014 3.43647 6.71673 3.48292C6.34838 3.58158 5.9854 3.73157 5.6427 3.9228C5.48671 4.00984 5.2988 4.01714 5.13658 3.94248L4.17169 3.49836L3.48121 4.19187L3.91352 5.18262C3.98381 5.34369 3.97515 5.52849 3.89012 5.68223C3.69594 6.03329 3.5521 6.37594 3.45763 6.74365C3.41288 6.91779 3.28803 7.06 3.1216 7.1264L2.12179 7.52529V8.47173L3.13216 8.86637C3.29891 8.9315 3.42471 9.07261 3.47081 9.24623C3.56817 9.61294 3.71641 9.97512 3.90594 10.3178C3.99098 10.4715 3.99964 10.6563 3.92935 10.8174L3.49709 11.808L4.18809 12.5016L5.1523 12.0576C5.31454 11.9829 5.50251 11.9901 5.65853 12.0772C6.00938 12.273 6.35302 12.4187 6.72278 12.5145C6.89751 12.5598 7.03987 12.6867 7.10531 12.8556L7.49972 13.8734H8.49901L8.88865 12.8587C8.95323 12.6905 9.09404 12.5635 9.26745 12.5171C9.63579 12.4184 9.99877 12.2684 10.3415 12.0772C10.4975 11.9902 10.6854 11.9829 10.8476 12.0575L11.8125 12.5016L12.503 11.8081L12.0706 10.8174C12.0004 10.6563 12.009 10.4715 12.0941 10.3178C12.2882 9.96671 12.4321 9.62406 12.5265 9.25635C12.5715 9.08145 12.6972 8.93879 12.8646 8.87277L13.8782 8.47307V7.52261L12.8239 7.11911C12.6555 7.05464 12.5282 6.9128 12.4817 6.73787C12.3844 6.37117 12.2361 6.00899 12.0466 5.66633C11.9615 5.5126 11.9529 5.3278 12.0232 5.16672L12.4554 4.17608L11.7644 3.48247L10.8002 3.92653C10.638 4.00125 10.45 3.99396 10.294 3.9069C9.94314 3.71113 9.5995 3.56544 9.22974 3.4696C9.05577 3.42451 8.91384 3.29844 8.84801 3.13054L8.45442 2.12658H7.48517Z" fill="white"/>
<path fill-rule="evenodd" clip-rule="evenodd" d="M8 9.12658C8.61955 9.12658 9.1218 8.62219 9.1218 8C9.1218 7.37781 8.61955 6.87342 8 6.87342C7.38045 6.87342 6.87821 7.37781 6.87821 8C6.87821 8.62219 7.38045 9.12658 8 9.12658ZM8 10.2532C9.2391 10.2532 10.2436 9.24438 10.2436 8C10.2436 6.75562 9.2391 5.74685 8 5.74685C6.7609 5.74685 5.75641 6.75562 5.75641 8C5.75641 9.24438 6.7609 10.2532 8 10.2532Z" fill="white"/>
</svg>
