<svg width="16" height="16" viewBox="0 0 16 16" fill="none" xmlns="http://www.w3.org/2000/svg">
<path fill-rule="evenodd" clip-rule="evenodd" d="M8 5.74991C6.75736 5.74991 5.75 6.75727 5.75 7.99991C5.75 9.24255 6.75736 10.2499 8 10.2499C9.24264 10.2499 10.25 9.24255 10.25 7.99991C10.25 6.75727 9.24264 5.74991 8 5.74991ZM6.75 7.99991C6.75 7.30955 7.30964 6.74991 8 6.74991C8.69036 6.74991 9.25 7.30955 9.25 7.99991C9.25 8.69026 8.69036 9.24991 8 9.24991C7.30964 9.24991 6.75 8.69026 6.75 7.99991Z" fill="white"/>
<path fill-rule="evenodd" clip-rule="evenodd" d="M7.15671 1.00003C6.97753 1.00003 6.81206 1.0959 6.72294 1.25134L5.99311 2.52429L5.54966 2.70722L4.12135 2.32464C3.94882 2.27842 3.76473 2.32776 3.63843 2.45406L2.45403 3.63846C2.32773 3.76476 2.27839 3.94885 2.32461 4.12138L2.70719 5.54969L2.52426 5.99314L1.25131 6.72297C1.09587 6.81209 1 6.97756 1 7.15674V8.83385C1 9.01213 1.09492 9.17692 1.24914 9.26637L2.52373 10.0056L2.70703 10.45L2.3248 11.8685C2.27826 12.0412 2.32754 12.2256 2.45403 12.3521L3.63843 13.5365C3.76403 13.6621 3.94683 13.7117 4.11866 13.6667L5.54823 13.2923L5.99311 13.4758L6.72294 14.7487C6.81206 14.9042 6.97753 15 7.15671 15H8.83382C9.0121 15 9.17689 14.9051 9.26633 14.7509L10.0056 13.4763L10.4514 13.2924L11.8712 13.6665C12.0432 13.7118 12.2263 13.6623 12.3521 13.5365L13.5365 12.3521C13.6623 12.2263 13.7118 12.0432 13.6664 11.8712L13.2924 10.4514L13.4763 10.0056L14.7509 9.26637C14.9051 9.17692 15 9.01213 15 8.83385V7.15674C15 6.97756 14.9041 6.81209 14.7487 6.72297L13.4757 5.99314L13.2922 5.54826L13.6666 4.11869C13.7116 3.94686 13.6621 3.76406 13.5365 3.63846L12.3521 2.45406C12.2256 2.32757 12.0412 2.27829 11.8685 2.32483L10.45 2.70706L10.0056 2.52376L9.26633 1.24917C9.17689 1.09496 9.0121 1.00003 8.83382 1.00003H7.15671ZM6.7756 3.17001L7.44639 2.00003H8.5458L9.22565 3.17217C9.28082 3.26731 9.36583 3.34159 9.4675 3.38353L10.2255 3.69621C10.3273 3.73818 10.44 3.74541 10.5463 3.71678L11.8494 3.36562L12.6266 4.14277L12.2823 5.45717C12.2548 5.56247 12.2623 5.67389 12.3038 5.77452L12.6165 6.53253C12.6588 6.63499 12.7339 6.72051 12.83 6.77563L14 7.44642V8.54584L12.8279 9.22568C12.7327 9.28086 12.6584 9.36586 12.6165 9.46753L12.3038 10.2255C12.2622 10.3264 12.2547 10.4381 12.2825 10.5436L12.6263 11.8482L11.8481 12.6263L10.5436 12.2826C10.4381 12.2548 10.3264 12.2622 10.2255 12.3038L9.4675 12.6165C9.36583 12.6585 9.28082 12.7328 9.22565 12.8279L8.54581 14H7.44639L6.7756 12.8301C6.72047 12.7339 6.63496 12.6588 6.5325 12.6165L5.77448 12.3038C5.67386 12.2623 5.56244 12.2548 5.45714 12.2824L4.14274 12.6266L3.36559 11.8495L3.71674 10.5463C3.74538 10.44 3.73815 10.3273 3.69618 10.2255L3.3835 9.46753C3.34156 9.36586 3.26728 9.28086 3.17214 9.22568L2 8.54584V7.44642L3.16997 6.77563C3.26613 6.72051 3.34124 6.63499 3.3835 6.53253L3.69618 5.77452C3.73805 5.67301 3.74535 5.56054 3.71694 5.45448L3.36524 4.14146L4.14143 3.36527L5.45445 3.71697C5.56051 3.74538 5.67298 3.73809 5.77448 3.69621L6.5325 3.38353C6.63496 3.34127 6.72047 3.26616 6.7756 3.17001Z" fill="white"/>
</svg>
