<svg width="16" height="16" viewBox="0 0 16 16" fill="none" xmlns="http://www.w3.org/2000/svg">
<path fill-rule="evenodd" clip-rule="evenodd" d="M1 1.50515C1 1.22616 1.22617 1 1.50515 1H2.54433C2.82332 1 3.04948 1.22616 3.04948 1.50515C3.04948 1.78414 2.82332 2.0103 2.54433 2.0103H2.01031V2.54431C2.01031 2.8233 1.78414 3.04946 1.50515 3.04946C1.22617 3.04946 1 2.8233 1 2.54431V1.50515ZM5.1567 1.50515C5.1567 1.22616 5.38286 1 5.66185 1H7.7402C8.01919 1 8.24536 1.22616 8.24536 1.50515C8.24536 1.78414 8.01919 2.0103 7.7402 2.0103H5.66185C5.38286 2.0103 5.1567 1.78414 5.1567 1.50515ZM10.3526 1.50515C10.3526 1.22616 10.5787 1 10.8577 1H11.8969C12.1759 1 12.4021 1.22616 12.4021 1.50515V2.54431C12.4021 2.8233 12.1759 3.04946 11.8969 3.04946C11.6179 3.04946 11.3917 2.8233 11.3917 2.54431V2.0103H10.8577C10.5787 2.0103 10.3526 1.78414 10.3526 1.50515ZM1.50515 5.15666C1.78414 5.15666 2.01031 5.38282 2.01031 5.66181V7.74013C2.01031 8.01912 1.78414 8.24528 1.50515 8.24528C1.22617 8.24528 1 8.01912 1 7.74013V5.66181C1 5.38282 1.22617 5.15666 1.50515 5.15666ZM11.8969 5.15666C12.1759 5.15666 12.4021 5.38282 12.4021 5.66181V7.74013C12.4021 8.01912 12.1759 8.24528 11.8969 8.24528C11.6179 8.24528 11.3917 8.01912 11.3917 7.74013V5.66181C11.3917 5.38282 11.6179 5.15666 11.8969 5.15666ZM1.50515 10.3525C1.78414 10.3525 2.01031 10.5786 2.01031 10.8576V11.3916H2.54433C2.82332 11.3916 3.04948 11.6178 3.04948 11.8968C3.04948 12.1758 2.82332 12.4019 2.54433 12.4019H1.50515C1.22617 12.4019 1 12.1758 1 11.8968V10.8576C1 10.5786 1.22617 10.3525 1.50515 10.3525ZM5.1567 11.8968C5.1567 11.6178 5.38286 11.3916 5.66185 11.3916H7.7402C8.01919 11.3916 8.24536 11.6178 8.24536 11.8968C8.24536 12.1758 8.01919 12.4019 7.7402 12.4019H5.66185C5.38286 12.4019 5.1567 12.1758 5.1567 11.8968Z" fill="#0091E4"/>
<path fill-rule="evenodd" clip-rule="evenodd" d="M9.07752 6.24692C9.2511 6.16225 9.45777 6.18397 9.60996 6.30287L14.8058 10.3621C14.9442 10.4702 15.0165 10.6424 14.9968 10.8168C14.9771 10.9913 14.8682 11.143 14.7092 11.2176L12.6133 12.2L11.6982 12.629L9.51337 13.6531C9.35691 13.7264 9.17381 13.7147 9.02797 13.622C8.88214 13.5293 8.79381 13.3685 8.79381 13.1957V6.70094C8.79381 6.50781 8.90393 6.33158 9.07752 6.24692Z" fill="#0091E4"/>
<path fill-rule="evenodd" clip-rule="evenodd" d="M12.1826 12.4019C12.4321 12.2772 12.6133 12.2 12.6133 12.2L13.6477 14.2688C13.7725 14.5184 13.6713 14.8218 13.4218 14.9466C13.1722 15.0713 12.8688 14.9702 12.744 14.7206L11.6982 12.629C11.6982 12.629 11.933 12.5267 12.1826 12.4019Z" fill="#0091E4"/>
</svg>
