<svg width="16" height="16" viewBox="0 0 16 16" fill="none" xmlns="http://www.w3.org/2000/svg">
<path d="M1.76489 1.03629C1.48875 1.03629 1.26489 1.26014 1.26489 1.53629V2.66129C1.26489 2.93743 1.48875 3.16129 1.76489 3.16129C2.04103 3.16129 2.26489 2.93743 2.26489 2.66129V2.03629H2.88989C3.16603 2.03629 3.38989 1.81243 3.38989 1.53629C3.38989 1.26014 3.16603 1.03629 2.88989 1.03629H1.76489Z" fill="white"/>
<path d="M5.13989 1.03629C4.86375 1.03629 4.63989 1.26014 4.63989 1.53629C4.63989 1.81243 4.86375 2.03629 5.13989 2.03629H7.38989C7.66604 2.03629 7.88989 1.81243 7.88989 1.53629C7.88989 1.26014 7.66604 1.03629 7.38989 1.03629H5.13989Z" fill="white"/>
<path d="M9.63989 1.03629C9.36375 1.03629 9.13989 1.26014 9.13989 1.53629C9.13989 1.81243 9.36375 2.03629 9.63989 2.03629H10.2649V2.66129C10.2649 2.93743 10.4888 3.16129 10.7649 3.16129C11.041 3.16129 11.2649 2.93743 11.2649 2.66129V1.53629C11.2649 1.26014 11.041 1.03629 10.7649 1.03629H9.63989Z" fill="white"/>
<path d="M2.26489 4.91129C2.26489 4.63514 2.04103 4.41129 1.76489 4.41129C1.48875 4.41129 1.26489 4.63514 1.26489 4.91129V7.16129C1.26489 7.43743 1.48875 7.66129 1.76489 7.66129C2.04103 7.66129 2.26489 7.43743 2.26489 7.16129V4.91129Z" fill="white"/>
<path d="M11.2649 4.91129C11.2649 4.63514 11.041 4.41129 10.7649 4.41129C10.4888 4.41129 10.2649 4.63514 10.2649 4.91129V7.16129C10.2649 7.43743 10.4888 7.66129 10.7649 7.66129C11.041 7.66129 11.2649 7.43743 11.2649 7.16129V4.91129Z" fill="white"/>
<path d="M2.26489 9.41129C2.26489 9.13514 2.04103 8.91129 1.76489 8.91129C1.48875 8.91129 1.26489 9.13514 1.26489 9.41129V10.5363C1.26489 10.8124 1.48875 11.0363 1.76489 11.0363H2.88989C3.16603 11.0363 3.38989 10.8124 3.38989 10.5363C3.38989 10.2601 3.16603 10.0363 2.88989 10.0363H2.26489V9.41129Z" fill="white"/>
<path d="M5.13989 10.0363C4.86375 10.0363 4.63989 10.2601 4.63989 10.5363C4.63989 10.8124 4.86375 11.0363 5.13989 11.0363H7.38989C7.66604 11.0363 7.88989 10.8124 7.88989 10.5363C7.88989 10.2601 7.66604 10.0363 7.38989 10.0363H5.13989Z" fill="white"/>
<path d="M8.84866 7.21713C9.01267 7.12244 9.21611 7.12854 9.37415 7.23289L13.2609 9.79911C13.4055 9.89459 13.4903 10.0581 13.4851 10.2313C13.4799 10.4046 13.3854 10.5627 13.2354 10.6494L11.8646 11.4408L12.8643 13.1725C13.0024 13.4116 12.9205 13.7174 12.6813 13.8555C12.4422 13.9935 12.1364 13.9116 11.9983 13.6725L10.9985 11.9408L9.62771 12.7323C9.47764 12.8189 9.2934 12.8217 9.1408 12.7396C8.9882 12.6574 8.88899 12.5022 8.87861 12.3292L8.59956 7.6801C8.58821 7.49106 8.68464 7.31183 8.84866 7.21713Z" fill="white"/>
</svg>
