<svg width="16" height="16" viewBox="0 0 16 16" fill="none" xmlns="http://www.w3.org/2000/svg">
<path fill-rule="evenodd" clip-rule="evenodd" d="M1 6.81236C1 3.59989 3.66218 1 6.94073 1C10.2193 1 12.8815 3.59989 12.8815 6.81236C12.8815 8.26708 12.3351 9.59688 11.4329 10.616L14.8104 13.919C15.0632 14.1663 15.0632 14.5683 14.8104 14.8156C14.5589 15.0615 14.1523 15.0615 13.9009 14.8156L10.4864 11.4764C9.49662 12.1979 8.26937 12.6247 6.94073 12.6247C3.66218 12.6247 1 10.0248 1 6.81236ZM6.94073 2.26544C4.3691 2.26544 2.28878 4.30356 2.28878 6.81236C2.28878 9.32116 4.3691 11.3593 6.94073 11.3593C9.51236 11.3593 11.5927 9.32116 11.5927 6.81236C11.5927 4.30356 9.51236 2.26544 6.94073 2.26544Z" fill="white"/>
</svg>
