<svg width="16" height="16" viewBox="0 0 16 16" fill="none" xmlns="http://www.w3.org/2000/svg">
<path fill-rule="evenodd" clip-rule="evenodd" d="M10.5206 11.2298C9.56687 12.0229 8.34069 12.4999 7.00305 12.4999C3.9638 12.4999 1.5 10.0375 1.5 6.99995C1.5 3.96241 3.9638 1.5 7.00305 1.5C10.0423 1.5 12.5061 3.96241 12.5061 6.99995C12.5061 8.34063 12.0261 9.56927 11.2286 10.5236L14.8535 14.1464C15.0488 14.3417 15.0489 14.6582 14.8537 14.8536C14.6584 15.0489 14.3419 15.049 14.1465 14.8538L10.5206 11.2298ZM11.5061 6.99995C11.5061 9.48467 9.49055 11.4999 7.00305 11.4999C4.51555 11.4999 2.5 9.48467 2.5 6.99995C2.5 4.51523 4.51555 2.5 7.00305 2.5C9.49055 2.5 11.5061 4.51523 11.5061 6.99995Z" fill="white"/>
</svg>
