<svg width="16" height="16" viewBox="0 0 16 16" fill="none" xmlns="http://www.w3.org/2000/svg">
<path fill-rule="evenodd" clip-rule="evenodd" d="M8 2C4.90721 2 2 4.90721 2 8C2 11.0928 4.90721 14 8 14C11.0928 14 14 11.0928 14 8C14 4.90721 11.0928 2 8 2ZM1 8C1 4.13401 4.13401 1 8 1C11.866 1 15 4.13401 15 8C15 11.866 11.866 15 8 15C4.13401 15 1 11.866 1 8Z" fill="white"/>
<path d="M6 8.132C6 8.25147 5.97573 8.36347 5.9272 8.468C5.87867 8.57253 5.81333 8.664 5.7312 8.7424C5.6528 8.8208 5.55947 8.88427 5.4512 8.9328C5.34293 8.9776 5.2272 9 5.104 9C4.98453 9 4.87067 8.9776 4.7624 8.9328C4.65787 8.88427 4.5664 8.8208 4.488 8.7424C4.4096 8.664 4.34613 8.57253 4.2976 8.468C4.2528 8.36347 4.2304 8.25147 4.2304 8.132C4.2304 8.0088 4.2528 7.89307 4.2976 7.7848C4.34613 7.67653 4.4096 7.5832 4.488 7.5048C4.5664 7.4264 4.65787 7.3648 4.7624 7.32C4.87067 7.27147 4.98453 7.2472 5.104 7.2472C5.2272 7.2472 5.34293 7.27147 5.4512 7.32C5.55947 7.3648 5.6528 7.4264 5.7312 7.5048C5.81333 7.5832 5.87867 7.67653 5.9272 7.7848C5.97573 7.89307 6 8.0088 6 8.132Z" fill="white"/>
<path d="M9 8.132C9 8.25147 8.97573 8.36347 8.9272 8.468C8.87867 8.57253 8.81333 8.664 8.7312 8.7424C8.6528 8.8208 8.55947 8.88427 8.4512 8.9328C8.34293 8.9776 8.2272 9 8.104 9C7.98453 9 7.87067 8.9776 7.7624 8.9328C7.65787 8.88427 7.5664 8.8208 7.488 8.7424C7.4096 8.664 7.34613 8.57253 7.2976 8.468C7.2528 8.36347 7.2304 8.25147 7.2304 8.132C7.2304 8.0088 7.2528 7.89307 7.2976 7.7848C7.34613 7.67653 7.4096 7.5832 7.488 7.5048C7.5664 7.4264 7.65787 7.3648 7.7624 7.32C7.87067 7.27147 7.98453 7.2472 8.104 7.2472C8.2272 7.2472 8.34293 7.27147 8.4512 7.32C8.55947 7.3648 8.6528 7.4264 8.7312 7.5048C8.81333 7.5832 8.87867 7.67653 8.9272 7.7848C8.97573 7.89307 9 8.0088 9 8.132Z" fill="white"/>
<path d="M12 8.132C12 8.25147 11.9757 8.36347 11.9272 8.468C11.8787 8.57253 11.8133 8.664 11.7312 8.7424C11.6528 8.8208 11.5595 8.88427 11.4512 8.9328C11.3429 8.9776 11.2272 9 11.104 9C10.9845 9 10.8707 8.9776 10.7624 8.9328C10.6579 8.88427 10.5664 8.8208 10.488 8.7424C10.4096 8.664 10.3461 8.57253 10.2976 8.468C10.2528 8.36347 10.2304 8.25147 10.2304 8.132C10.2304 8.0088 10.2528 7.89307 10.2976 7.7848C10.3461 7.67653 10.4096 7.5832 10.488 7.5048C10.5664 7.4264 10.6579 7.3648 10.7624 7.32C10.8707 7.27147 10.9845 7.2472 11.104 7.2472C11.2272 7.2472 11.3429 7.27147 11.4512 7.32C11.5595 7.3648 11.6528 7.4264 11.7312 7.5048C11.8133 7.5832 11.8787 7.67653 11.9272 7.7848C11.9757 7.89307 12 8.0088 12 8.132Z" fill="white"/>
</svg>
