<svg width="16" height="16" viewBox="0 0 16 16" fill="none" xmlns="http://www.w3.org/2000/svg">
<path d="M14.2441 3.2301C14.2441 4.47274 13.2368 5.4801 11.9941 5.4801C11.3472 5.4801 10.764 5.20704 10.3535 4.76987L6.14018 7.28567C6.21521 7.51003 6.25586 7.75015 6.25586 7.99976C6.25586 8.19886 6.23 8.39192 6.18145 8.57577L10.4558 11.128C10.8581 10.7508 11.3992 10.5199 11.9941 10.5199C13.2368 10.5199 14.2441 11.5273 14.2441 12.7699C14.2441 14.0125 13.2368 15.0199 11.9941 15.0199C10.7515 15.0199 9.74414 14.0125 9.74414 12.7699C9.74414 12.4836 9.79761 12.2098 9.89512 11.9579L5.71568 9.46235C5.30301 9.94432 4.69011 10.2498 4.00586 10.2498C2.76322 10.2498 1.75586 9.2424 1.75586 7.99976C1.75586 6.75712 2.76322 5.74976 4.00586 5.74976C4.63882 5.74976 5.21074 6.01112 5.61958 6.43182L9.84779 3.90714C9.78045 3.69347 9.74414 3.46602 9.74414 3.2301C9.74414 1.98746 10.7515 0.980103 11.9941 0.980103C13.2368 0.980103 14.2441 1.98746 14.2441 3.2301Z" fill="white"/>
</svg>
