<svg width="16" height="16" viewBox="0 0 16 16" fill="none" xmlns="http://www.w3.org/2000/svg">
  <path fill-rule="evenodd" clip-rule="evenodd" d="M14.4884 3.25C14.4884 4.49264 13.481 5.5 12.2384 5.5C11.5914 5.5 11.0082 5.22692 10.5977 4.78973L6.38429 7.3056C6.45934 7.52999 6.5 7.77013 6.5 8.01978C6.5 8.21878 6.47416 8.41174 6.42567 8.59551L10.7001 11.1478C11.1025 10.7707 11.6435 10.5398 12.2384 10.5398C13.481 10.5398 14.4884 11.5472 14.4884 12.7898C14.4884 14.0324 13.481 15.0398 12.2384 15.0398C10.9958 15.0398 9.9884 14.0324 9.9884 12.7898C9.9884 12.5035 10.0419 12.2296 10.1394 11.9777L5.96 9.48216C5.54734 9.96425 4.93435 10.2698 4.25 10.2698C3.00736 10.2698 2 9.26242 2 8.01978C2 6.77713 3.00736 5.76978 4.25 5.76978C4.88293 5.76978 5.45482 6.03112 5.86365 6.45177L10.092 3.92699C10.0247 3.71333 9.9884 3.48591 9.9884 3.25C9.9884 2.00736 10.9958 1 12.2384 1C13.481 1 14.4884 2.00736 14.4884 3.25Z" fill="white"/>
</svg>
