<svg width="16" height="16" viewBox="0 0 16 16" fill="none" xmlns="http://www.w3.org/2000/svg">
  <path d="M3.5 10.5C4.88071 10.5 5.99999 9.38071 5.99999 8C5.99999 6.61929 4.88071 5.5 3.5 5.5C2.11929 5.5 1 6.61929 1 8C1 9.38071 2.11929 10.5 3.5 10.5Z" fill="white"/>
  <path d="M12 5C13.3807 5 14.5 3.88071 14.5 2.5C14.5 1.11929 13.3807 0 12 0C10.6193 0 9.5 1.11929 9.5 2.5C9.5 3.88071 10.6193 5 12 5Z" fill="white"/>
  <path d="M12 16C13.3807 16 14.5 14.8807 14.5 13.5C14.5 12.1193 13.3807 11 12 11C10.6193 11 9.5 12.1193 9.5 13.5C9.5 14.8807 10.6193 16 12 16Z" fill="white"/>
  <path fill-rule="evenodd" clip-rule="evenodd" d="M12.4198 2.22843C12.5698 2.46027 12.5035 2.76983 12.2716 2.91984L4.42038 8.00006L12.2716 13.0803C12.5035 13.2303 12.5698 13.5398 12.4198 13.7717C12.2698 14.0035 11.9602 14.0699 11.7284 13.9198L3.22837 8.41984C3.08598 8.32771 3 8.16966 3 8.00006C3 7.83045 3.08598 7.67241 3.22837 7.58027L11.7284 2.08027C11.9602 1.93026 12.2698 1.99659 12.4198 2.22843Z" fill="white"/>
</svg>
