<svg width="16" height="16" viewBox="0 0 16 16" fill="none" xmlns="http://www.w3.org/2000/svg">
<path fill-rule="evenodd" clip-rule="evenodd" d="M8 13.8333C8.64433 13.8333 9.16667 13.311 9.16667 12.6667C9.16667 12.0223 8.64433 11.5 8 11.5C7.35567 11.5 6.83333 12.0223 6.83333 12.6667C6.83333 13.311 7.35567 13.8333 8 13.8333Z" fill="#0091E4"/>
<path fill-rule="evenodd" clip-rule="evenodd" d="M8 13.8333C8.64433 13.8333 9.16667 13.311 9.16667 12.6667C9.16667 12.0223 8.64433 11.5 8 11.5C7.35567 11.5 6.83333 12.0223 6.83333 12.6667C6.83333 13.311 7.35567 13.8333 8 13.8333Z" fill="#0091E4"/>
<path fill-rule="evenodd" clip-rule="evenodd" d="M8 13.8333C11.2217 13.8333 13.8333 11.2217 13.8333 8C13.8333 4.77834 11.2217 2.16667 8 2.16667C4.77834 2.16667 2.16667 4.77834 2.16667 8C2.16667 10.392 3.60646 12.4477 5.66667 13.3478C6.38121 13.6601 7.17038 13.8333 8 13.8333ZM8 15C11.866 15 15 11.866 15 8C15 4.13401 11.866 1 8 1C4.13401 1 1 4.13401 1 8C1 11.866 4.13401 15 8 15Z" fill="#0091E4"/>
<path fill-rule="evenodd" clip-rule="evenodd" d="M8 13.8333C11.2217 13.8333 13.8333 11.2217 13.8333 8C13.8333 4.77834 11.2217 2.16667 8 2.16667C4.77834 2.16667 2.16667 4.77834 2.16667 8C2.16667 10.392 3.60646 12.4477 5.66667 13.3478C6.38121 13.6601 7.17038 13.8333 8 13.8333ZM8 15C11.866 15 15 11.866 15 8C15 4.13401 11.866 1 8 1C4.13401 1 1 4.13401 1 8C1 11.866 4.13401 15 8 15Z" fill="#0091E4"/>
<path d="M11.2254 12.8612C10.3015 13.4753 9.19255 13.8333 8 13.8333C9.28866 13.8333 10.3333 12.7886 10.3333 11.5C10.3333 10.2114 9.28866 9.16667 8 9.16667C6.71134 9.16667 5.66667 10.2114 5.66667 11.5C5.66667 12.7886 6.71134 13.8333 8 13.8333C7.17038 13.8333 6.38121 13.6601 5.66667 13.3478C5.35408 13.2113 5.05578 13.0481 4.77463 12.8612C4.59779 12.4428 4.5 11.9828 4.5 11.5C4.5 9.56714 6.067 8 8 8C9.933 8 11.5 9.56714 11.5 11.5C11.5 11.9828 11.4022 12.4428 11.2254 12.8612Z" fill="#0091E4"/>
<path d="M11.2254 12.8612C10.3015 13.4753 9.19255 13.8333 8 13.8333C9.28866 13.8333 10.3333 12.7886 10.3333 11.5C10.3333 10.2114 9.28866 9.16667 8 9.16667C6.71134 9.16667 5.66667 10.2114 5.66667 11.5C5.66667 12.7886 6.71134 13.8333 8 13.8333C7.17038 13.8333 6.38121 13.6601 5.66667 13.3478C5.35408 13.2113 5.05578 13.0481 4.77463 12.8612C4.59779 12.4428 4.5 11.9828 4.5 11.5C4.5 9.56714 6.067 8 8 8C9.933 8 11.5 9.56714 11.5 11.5C11.5 11.9828 11.4022 12.4428 11.2254 12.8612Z" fill="#0091E4"/>
</svg>
