<svg width="16" height="16" viewBox="0 0 16 16" fill="none" xmlns="http://www.w3.org/2000/svg">
<path fill-rule="evenodd" clip-rule="evenodd" d="M9.25435 6.17981L5.07567 9.01085C4.71931 9.25229 4.52976 9.85672 4.92793 10.4118C5.3261 10.967 5.97519 11.0032 6.33155 10.7618L10.5102 7.93074C10.8834 7.67795 11.3967 7.76699 11.6568 8.12962L13.122 10.1724C13.3821 10.535 13.2905 11.0339 12.9173 11.2867L8.73866 14.1177C6.32232 15.7548 3.09328 15.0076 1.47489 12.7513C-0.143495 10.4949 0.252218 7.29198 2.66856 5.65491L6.84724 2.82387C7.22036 2.57108 7.73369 2.66012 7.99379 3.02275L9.45899 5.0655C9.71909 5.42813 9.62747 5.92702 9.25435 6.17981ZM7.3344 6.61331C7.37586 6.58522 7.38604 6.52979 7.35714 6.4895L5.89194 4.44675C5.86304 4.40646 5.80601 4.39656 5.76455 4.42465L3.08719 6.23855C1.03226 7.63076 0.666939 10.3807 2.07542 12.3444C3.4839 14.3081 6.2651 14.9263 8.32003 13.5341L10.9974 11.7202C11.0388 11.6921 11.049 11.6367 11.0201 11.5964L9.55493 9.55362C9.52603 9.51333 9.469 9.50344 9.42754 9.53152L6.75018 11.3454C6.04126 11.8257 4.94194 11.6755 4.3274 10.8187C3.71287 9.96193 3.94812 8.9075 4.65704 8.42721L7.3344 6.61331Z" fill="white" fill-opacity="0.5"/>
<path fill-rule="evenodd" clip-rule="evenodd" d="M11.8131 3.81351C11.8848 4.04937 11.7461 4.297 11.5034 4.36662L10.5209 4.64849C10.2782 4.71811 10.0234 4.58335 9.95175 4.34749C9.88012 4.11164 10.0188 3.864 10.2615 3.79438L11.244 3.51251C11.4867 3.44289 11.7415 3.57765 11.8131 3.81351Z" fill="white" fill-opacity="0.5"/>
<path fill-rule="evenodd" clip-rule="evenodd" d="M15.4811 8.92739C15.5528 9.16324 15.4141 9.41088 15.1714 9.4805L14.1889 9.76237C13.9462 9.83199 13.6914 9.69723 13.6198 9.46137C13.5481 9.22551 13.6868 8.97788 13.9295 8.90826L14.912 8.62639C15.1547 8.55677 15.4095 8.69153 15.4811 8.92739Z" fill="white" fill-opacity="0.5"/>
<path fill-rule="evenodd" clip-rule="evenodd" d="M13.6312 6.34821C13.4283 6.2013 13.1412 6.24207 12.9901 6.43928L12.378 7.23773C12.2269 7.43494 12.2688 7.7139 12.4717 7.86082C12.6747 8.00773 12.9617 7.96696 13.1129 7.76975L13.7249 6.9713C13.876 6.77409 13.8341 6.49512 13.6312 6.34821Z" fill="white" fill-opacity="0.5"/>
<path fill-rule="evenodd" clip-rule="evenodd" d="M9.85836 1.08822C9.65545 0.941307 9.36841 0.982079 9.21725 1.17929L8.60522 1.97774C8.45406 2.17495 8.49601 2.45391 8.69893 2.60083C8.90184 2.74774 9.18888 2.70697 9.34004 2.50976L9.95207 1.71131C10.1032 1.5141 10.0613 1.23513 9.85836 1.08822Z" fill="white" fill-opacity="0.5"/>
</svg>
