<svg width="16" height="16" viewBox="0 0 16 16" fill="none" xmlns="http://www.w3.org/2000/svg">
<path fill-rule="evenodd" clip-rule="evenodd" d="M8.7037 2.5C8.7037 1.67157 9.37528 1 10.2037 1H13.5C14.3284 1 15 1.67157 15 2.5V13.5C15 14.3284 14.3284 15 13.5 15H10.2037C9.37528 15 8.7037 14.3284 8.7037 13.5V2.5ZM10.2037 2C9.92756 2 9.7037 2.22386 9.7037 2.5V13.5C9.7037 13.7761 9.92756 14 10.2037 14H13.5C13.7761 14 14 13.7761 14 13.5V2.5C14 2.22386 13.7761 2 13.5 2H10.2037Z" fill="white"/>
<path fill-rule="evenodd" clip-rule="evenodd" d="M2.5 1.75C2.39785 1.75 2.30106 1.77029 2.21298 1.80681C2.08544 1.8597 1.93917 1.79918 1.88628 1.67164C1.83339 1.5441 1.89391 1.39784 2.02145 1.34495C2.16918 1.28369 2.33097 1.25 2.5 1.25H3.03241C3.17048 1.25 3.28241 1.36193 3.28241 1.5C3.28241 1.63807 3.17048 1.75 3.03241 1.75H2.5ZM3.84722 1.5C3.84722 1.36193 3.95915 1.25 4.09722 1.25H5.16204C5.30011 1.25 5.41204 1.36193 5.41204 1.5C5.41204 1.63807 5.30011 1.75 5.16204 1.75H4.09722C3.95915 1.75 3.84722 1.63807 3.84722 1.5ZM5.97685 1.5C5.97685 1.36193 6.08878 1.25 6.22685 1.25H6.75926C6.92829 1.25 7.09008 1.28369 7.23781 1.34495C7.36535 1.39784 7.42587 1.5441 7.37298 1.67164C7.32009 1.79918 7.17382 1.8597 7.04628 1.80681C6.9582 1.77029 6.86141 1.75 6.75926 1.75H6.22685C6.08878 1.75 5.97685 1.63807 5.97685 1.5ZM7.58762 1.88628C7.71516 1.83339 7.86142 1.89391 7.91431 2.02145C7.97557 2.16918 8.00926 2.33097 8.00926 2.5V2.84259C8.00926 2.98066 7.89733 3.09259 7.75926 3.09259C7.62119 3.09259 7.50926 2.98066 7.50926 2.84259V2.5C7.50926 2.39785 7.48897 2.30106 7.45245 2.21298C7.39956 2.08544 7.46008 1.93917 7.58762 1.88628ZM1.67164 1.88628C1.79918 1.93917 1.8597 2.08544 1.80681 2.21298C1.77029 2.30106 1.75 2.39785 1.75 2.5V2.84259C1.75 2.98066 1.63807 3.09259 1.5 3.09259C1.36193 3.09259 1.25 2.98066 1.25 2.84259V2.5C1.25 2.33097 1.28369 2.16918 1.34495 2.02145C1.39784 1.89391 1.5441 1.83339 1.67164 1.88628ZM7.75926 3.27778C7.89733 3.27778 8.00926 3.38971 8.00926 3.52778V3.87037C8.00926 4.0394 7.97557 4.20119 7.91431 4.34892C7.86142 4.47646 7.71516 4.53698 7.58762 4.48409C7.46008 4.4312 7.39956 4.28493 7.45245 4.15739C7.48897 4.06931 7.50926 3.97252 7.50926 3.87037V3.52778C7.50926 3.38971 7.62119 3.27778 7.75926 3.27778ZM1.5 3.27778C1.63807 3.27778 1.75 3.38971 1.75 3.52778V3.87037C1.75 3.97252 1.77029 4.06931 1.80681 4.15739C1.8597 4.28493 1.79918 4.4312 1.67164 4.48409C1.5441 4.53698 1.39784 4.47646 1.34495 4.34892C1.28369 4.20119 1.25 4.0394 1.25 3.87037V3.52778C1.25 3.38971 1.36193 3.27778 1.5 3.27778ZM1.88628 4.69873C1.93917 4.57119 2.08544 4.51067 2.21298 4.56356C2.30106 4.60009 2.39785 4.62037 2.5 4.62037H3.03241C3.17048 4.62037 3.28241 4.7323 3.28241 4.87037C3.28241 5.00844 3.17048 5.12037 3.03241 5.12037H2.5C2.33097 5.12037 2.16918 5.08668 2.02145 5.02542C1.89391 4.97253 1.83339 4.82627 1.88628 4.69873ZM7.37298 4.69873C7.42587 4.82627 7.36535 4.97253 7.23781 5.02542C7.09008 5.08668 6.92829 5.12037 6.75926 5.12037H6.22685C6.08878 5.12037 5.97685 5.00844 5.97685 4.87037C5.97685 4.7323 6.08878 4.62037 6.22685 4.62037H6.75926C6.86141 4.62037 6.9582 4.60009 7.04628 4.56356C7.17382 4.51067 7.32009 4.57119 7.37298 4.69873ZM3.84722 4.87037C3.84722 4.7323 3.95915 4.62037 4.09722 4.62037H5.16204C5.30011 4.62037 5.41204 4.7323 5.41204 4.87037C5.41204 5.00844 5.30011 5.12037 5.16204 5.12037H4.09722C3.95915 5.12037 3.84722 5.00844 3.84722 4.87037Z" fill="white"/>
<path fill-rule="evenodd" clip-rule="evenodd" d="M2.5 6.56482C2.39785 6.56482 2.30106 6.5851 2.21298 6.62163C2.08544 6.67452 1.93917 6.614 1.88628 6.48646C1.83339 6.35892 1.89391 6.21266 2.02145 6.15977C2.16918 6.09851 2.33097 6.06482 2.5 6.06482H3.03241C3.17048 6.06482 3.28241 6.17675 3.28241 6.31482C3.28241 6.45289 3.17048 6.56482 3.03241 6.56482H2.5ZM3.84722 6.31482C3.84722 6.17675 3.95915 6.06482 4.09722 6.06482H5.16204C5.30011 6.06482 5.41204 6.17675 5.41204 6.31482C5.41204 6.45289 5.30011 6.56482 5.16204 6.56482H4.09722C3.95915 6.56482 3.84722 6.45289 3.84722 6.31482ZM5.97685 6.31482C5.97685 6.17675 6.08878 6.06482 6.22685 6.06482H6.75926C6.92829 6.06482 7.09008 6.09851 7.23781 6.15977C7.36535 6.21266 7.42587 6.35892 7.37298 6.48646C7.32009 6.614 7.17382 6.67452 7.04628 6.62163C6.9582 6.5851 6.86141 6.56482 6.75926 6.56482H6.22685C6.08878 6.56482 5.97685 6.45289 5.97685 6.31482ZM7.58762 6.7011C7.71516 6.64821 7.86142 6.70873 7.91431 6.83627C7.97557 6.984 8.00926 7.14579 8.00926 7.31482V7.65741C8.00926 7.79548 7.89733 7.90741 7.75926 7.90741C7.62119 7.90741 7.50926 7.79548 7.50926 7.65741V7.31482C7.50926 7.21267 7.48897 7.11588 7.45245 7.02779C7.39956 6.90025 7.46008 6.75399 7.58762 6.7011ZM1.67164 6.7011C1.79918 6.75399 1.8597 6.90026 1.80681 7.0278C1.77029 7.11588 1.75 7.21267 1.75 7.31482V7.65741C1.75 7.79548 1.63807 7.90741 1.5 7.90741C1.36193 7.90741 1.25 7.79548 1.25 7.65741V7.31482C1.25 7.14579 1.28369 6.984 1.34495 6.83627C1.39784 6.70873 1.5441 6.64821 1.67164 6.7011ZM7.75926 8.0926C7.89733 8.0926 8.00926 8.20453 8.00926 8.3426V8.68519C8.00926 8.85422 7.97557 9.01601 7.91431 9.16374C7.86142 9.29128 7.71516 9.3518 7.58762 9.29891C7.46008 9.24602 7.39956 9.09975 7.45245 8.97221C7.48897 8.88413 7.50926 8.78734 7.50926 8.68519V8.3426C7.50926 8.20453 7.62119 8.0926 7.75926 8.0926ZM1.5 8.0926C1.63807 8.0926 1.75 8.20453 1.75 8.3426V8.68519C1.75 8.78734 1.77029 8.88413 1.80681 8.97221C1.8597 9.09975 1.79918 9.24602 1.67164 9.29891C1.5441 9.3518 1.39784 9.29128 1.34495 9.16374C1.28369 9.01601 1.25 8.85422 1.25 8.68519V8.3426C1.25 8.20453 1.36193 8.0926 1.5 8.0926ZM1.88628 9.51355C1.93917 9.38601 2.08544 9.32549 2.21298 9.37838C2.30106 9.4149 2.39785 9.43519 2.5 9.43519H3.03241C3.17048 9.43519 3.28241 9.54712 3.28241 9.68519C3.28241 9.82326 3.17048 9.93519 3.03241 9.93519H2.5C2.33097 9.93519 2.16918 9.9015 2.02145 9.84024C1.89391 9.78735 1.83339 9.64109 1.88628 9.51355ZM7.37298 9.51355C7.42587 9.64109 7.36535 9.78735 7.23781 9.84024C7.09008 9.9015 6.92829 9.93519 6.75926 9.93519H6.22685C6.08878 9.93519 5.97685 9.82326 5.97685 9.68519C5.97685 9.54712 6.08878 9.43519 6.22685 9.43519H6.75926C6.86141 9.43519 6.9582 9.4149 7.04628 9.37838C7.17382 9.32549 7.32009 9.38601 7.37298 9.51355ZM3.84722 9.68519C3.84722 9.54712 3.95915 9.43519 4.09722 9.43519H5.16204C5.30011 9.43519 5.41204 9.54712 5.41204 9.68519C5.41204 9.82326 5.30011 9.93519 5.16204 9.93519H4.09722C3.95915 9.93519 3.84722 9.82326 3.84722 9.68519Z" fill="white"/>
<path fill-rule="evenodd" clip-rule="evenodd" d="M2.5 11.3796C2.39785 11.3796 2.30106 11.3999 2.21298 11.4365C2.08544 11.4893 1.93917 11.4288 1.88628 11.3013C1.83339 11.1737 1.89391 11.0275 2.02145 10.9746C2.16918 10.9133 2.33097 10.8796 2.5 10.8796H3.03241C3.17048 10.8796 3.28241 10.9916 3.28241 11.1296C3.28241 11.2677 3.17048 11.3796 3.03241 11.3796H2.5ZM3.84722 11.1296C3.84722 10.9916 3.95915 10.8796 4.09722 10.8796H5.16204C5.30011 10.8796 5.41204 10.9916 5.41204 11.1296C5.41204 11.2677 5.30011 11.3796 5.16204 11.3796H4.09722C3.95915 11.3796 3.84722 11.2677 3.84722 11.1296ZM5.97685 11.1296C5.97685 10.9916 6.08878 10.8796 6.22685 10.8796H6.75926C6.92829 10.8796 7.09008 10.9133 7.23781 10.9746C7.36535 11.0275 7.42587 11.1737 7.37298 11.3013C7.32009 11.4288 7.17382 11.4893 7.04628 11.4365C6.9582 11.3999 6.86141 11.3796 6.75926 11.3796H6.22685C6.08878 11.3796 5.97685 11.2677 5.97685 11.1296ZM7.58762 11.5159C7.71516 11.463 7.86142 11.5235 7.91431 11.6511C7.97557 11.7988 8.00926 11.9606 8.00926 12.1296V12.4722C8.00926 12.6103 7.89733 12.7222 7.75926 12.7222C7.62119 12.7222 7.50926 12.6103 7.50926 12.4722V12.1296C7.50926 12.0275 7.48897 11.9307 7.45245 11.8426C7.39956 11.7151 7.46008 11.5688 7.58762 11.5159ZM1.67164 11.5159C1.79918 11.5688 1.8597 11.7151 1.80681 11.8426C1.77029 11.9307 1.75 12.0275 1.75 12.1296V12.4722C1.75 12.6103 1.63807 12.7222 1.5 12.7222C1.36193 12.7222 1.25 12.6103 1.25 12.4722V12.1296C1.25 11.9606 1.28369 11.7988 1.34495 11.6511C1.39784 11.5235 1.5441 11.463 1.67164 11.5159ZM7.75926 12.9074C7.89733 12.9074 8.00926 13.0193 8.00926 13.1574V13.5C8.00926 13.669 7.97557 13.8308 7.91431 13.9786C7.86142 14.1061 7.71516 14.1666 7.58762 14.1137C7.46008 14.0608 7.39956 13.9146 7.45245 13.787C7.48897 13.6989 7.50926 13.6022 7.50926 13.5V13.1574C7.50926 13.0193 7.62119 12.9074 7.75926 12.9074ZM1.5 12.9074C1.63807 12.9074 1.75 13.0193 1.75 13.1574V13.5C1.75 13.6022 1.77029 13.6989 1.80681 13.787C1.8597 13.9146 1.79918 14.0608 1.67164 14.1137C1.5441 14.1666 1.39784 14.1061 1.34495 13.9786C1.28369 13.8308 1.25 13.669 1.25 13.5V13.1574C1.25 13.0193 1.36193 12.9074 1.5 12.9074ZM1.88628 14.3284C1.93917 14.2008 2.08544 14.1403 2.21298 14.1932C2.30106 14.2297 2.39785 14.25 2.5 14.25H3.03241C3.17048 14.25 3.28241 14.3619 3.28241 14.5C3.28241 14.6381 3.17048 14.75 3.03241 14.75H2.5C2.33097 14.75 2.16918 14.7163 2.02145 14.6551C1.89391 14.6022 1.83339 14.4559 1.88628 14.3284ZM7.37298 14.3284C7.42587 14.4559 7.36535 14.6022 7.23781 14.6551C7.09008 14.7163 6.92829 14.75 6.75926 14.75H6.22685C6.08878 14.75 5.97685 14.6381 5.97685 14.5C5.97685 14.3619 6.08878 14.25 6.22685 14.25H6.75926C6.86141 14.25 6.9582 14.2297 7.04628 14.1932C7.17382 14.1403 7.32009 14.2008 7.37298 14.3284ZM3.84722 14.5C3.84722 14.3619 3.95915 14.25 4.09722 14.25H5.16204C5.30011 14.25 5.41204 14.3619 5.41204 14.5C5.41204 14.6381 5.30011 14.75 5.16204 14.75H4.09722C3.95915 14.75 3.84722 14.6381 3.84722 14.5Z" fill="white"/>
</svg>
