<svg width="16" height="16" viewBox="0 0 16 16" fill="none" xmlns="http://www.w3.org/2000/svg">
<path fill-rule="evenodd" clip-rule="evenodd" d="M10 14.25L14 14.25C14.1381 14.25 14.25 14.1381 14.25 14L14.25 2C14.25 1.86193 14.1381 1.75 14 1.75L10 1.75C9.86193 1.75 9.75 1.86193 9.75 2L9.75 14C9.75 14.1381 9.86193 14.25 10 14.25ZM14 15C14.5523 15 15 14.5523 15 14L15 2C15 1.44772 14.5523 1 14 1L10 1C9.44772 1 9 1.44772 9 2L9 14C9 14.5523 9.44771 15 10 15H14Z" fill="white"/>
<path fill-rule="evenodd" clip-rule="evenodd" d="M2.34615 1.51852C2.26709 1.51852 2.19113 1.52938 2.11955 1.54947C1.9768 1.58955 1.82735 1.5106 1.78573 1.37314C1.74411 1.23567 1.8261 1.09175 1.96885 1.05168C2.08888 1.01798 2.21557 1 2.34615 1H2.73568C2.88437 1 3.00491 1.11607 3.00491 1.25926C3.00491 1.40244 2.88437 1.51852 2.73568 1.51852H2.34615ZM3.84124 1.25926C3.84124 1.11607 3.96178 1 4.11048 1H4.88953C5.03822 1 5.15876 1.11607 5.15876 1.25926C5.15876 1.40244 5.03822 1.51852 4.88953 1.51852H4.11048C3.96178 1.51852 3.84124 1.40244 3.84124 1.25926ZM5.99509 1.25926C5.99509 1.11607 6.11563 1 6.26432 1H6.65385C6.78443 1 6.91112 1.01798 7.03115 1.05168C7.1739 1.09175 7.25589 1.23567 7.21427 1.37314C7.17266 1.5106 7.0232 1.58955 6.88045 1.54947C6.80887 1.52938 6.73291 1.51852 6.65385 1.51852H6.26432C6.11563 1.51852 5.99509 1.40244 5.99509 1.25926ZM1.38749 1.75663C1.53024 1.7967 1.61222 1.94062 1.57061 2.07809C1.54974 2.14701 1.53846 2.22016 1.53846 2.2963V2.48385C1.53846 2.62703 1.41792 2.7431 1.26923 2.7431C1.12054 2.7431 1 2.62703 1 2.48385V2.2963C1 2.17055 1.01867 2.04855 1.05367 1.93296C1.09528 1.7955 1.24474 1.71655 1.38749 1.75663ZM7.61251 1.75663C7.75526 1.71655 7.90472 1.7955 7.94633 1.93297C7.98133 2.04855 8 2.17055 8 2.2963V2.48385C8 2.62703 7.87946 2.7431 7.73077 2.7431C7.58208 2.7431 7.46154 2.62703 7.46154 2.48385V2.2963C7.46154 2.22016 7.45026 2.14701 7.42939 2.07809C7.38778 1.94062 7.46976 1.7967 7.61251 1.75663ZM1.26923 2.88652C1.41792 2.88652 1.53846 3.0026 1.53846 3.14578V3.33333C1.53846 3.40947 1.54974 3.48262 1.57061 3.55154C1.61222 3.689 1.53024 3.83293 1.38749 3.873C1.24474 3.91308 1.09528 3.83413 1.05367 3.69666C1.01867 3.58108 1 3.45908 1 3.33333V3.14578C1 3.0026 1.12054 2.88652 1.26923 2.88652ZM7.73077 2.88652C7.87946 2.88652 8 3.0026 8 3.14578V3.33333C8 3.45908 7.98133 3.58108 7.94633 3.69666C7.90472 3.83413 7.75526 3.91308 7.61251 3.873C7.46976 3.83293 7.38778 3.689 7.42939 3.55154C7.45026 3.48262 7.46154 3.40947 7.46154 3.33333V3.14578C7.46154 3.0026 7.58208 2.88652 7.73077 2.88652ZM1.78573 4.25649C1.82734 4.11903 1.9768 4.04008 2.11955 4.08015C2.19113 4.10025 2.26709 4.11111 2.34615 4.11111H2.73568C2.88437 4.11111 3.00491 4.22719 3.00491 4.37037C3.00491 4.51356 2.88437 4.62963 2.73568 4.62963H2.34615C2.21557 4.62963 2.08888 4.61165 1.96885 4.57795C1.8261 4.53788 1.74411 4.39395 1.78573 4.25649ZM7.21427 4.25649C7.25589 4.39395 7.1739 4.53788 7.03115 4.57795C6.91112 4.61165 6.78443 4.62963 6.65385 4.62963H6.26432C6.11563 4.62963 5.99509 4.51356 5.99509 4.37037C5.99509 4.22719 6.11563 4.11111 6.26432 4.11111H6.65385C6.73291 4.11111 6.80887 4.10025 6.88045 4.08015C7.0232 4.04008 7.17266 4.11903 7.21427 4.25649ZM3.84124 4.37037C3.84124 4.22719 3.96178 4.11111 4.11047 4.11111H4.88953C5.03822 4.11111 5.15876 4.22719 5.15876 4.37037C5.15876 4.51356 5.03822 4.62963 4.88953 4.62963H4.11047C3.96178 4.62963 3.84124 4.51356 3.84124 4.37037ZM2.34615 6.7037C2.26709 6.7037 2.19113 6.71457 2.11955 6.73466C1.9768 6.77473 1.82735 6.69579 1.78573 6.55832C1.74411 6.42086 1.8261 6.27694 1.96885 6.23686C2.08888 6.20317 2.21557 6.18518 2.34615 6.18518H2.73568C2.88437 6.18518 3.00491 6.30126 3.00491 6.44444C3.00491 6.58763 2.88437 6.7037 2.73568 6.7037H2.34615ZM3.84124 6.44444C3.84124 6.30126 3.96178 6.18518 4.11048 6.18518H4.88953C5.03822 6.18518 5.15876 6.30126 5.15876 6.44444C5.15876 6.58763 5.03822 6.7037 4.88953 6.7037H4.11048C3.96178 6.7037 3.84124 6.58763 3.84124 6.44444ZM5.99509 6.44444C5.99509 6.30126 6.11563 6.18518 6.26432 6.18518H6.65385C6.78443 6.18518 6.91112 6.20317 7.03115 6.23686C7.1739 6.27694 7.25589 6.42086 7.21427 6.55832C7.17266 6.69579 7.0232 6.77473 6.88045 6.73466C6.80887 6.71457 6.73291 6.7037 6.65385 6.7037H6.26432C6.11563 6.7037 5.99509 6.58763 5.99509 6.44444ZM1.38749 6.94181C1.53024 6.98189 1.61222 7.12581 1.57061 7.26327C1.54974 7.3322 1.53846 7.40535 1.53846 7.48148V7.66903C1.53846 7.81222 1.41792 7.92829 1.26923 7.92829C1.12054 7.92829 1 7.81222 1 7.66903V7.48148C1 7.35573 1.01867 7.23374 1.05367 7.11815C1.09528 6.98069 1.24474 6.90174 1.38749 6.94181ZM7.61251 6.94181C7.75526 6.90174 7.90472 6.98069 7.94633 7.11815C7.98133 7.23374 8 7.35573 8 7.48148V7.66903C8 7.81222 7.87946 7.92829 7.73077 7.92829C7.58208 7.92829 7.46154 7.81222 7.46154 7.66903V7.48148C7.46154 7.40535 7.45026 7.3322 7.42939 7.26327C7.38778 7.12581 7.46976 6.98189 7.61251 6.94181ZM1.26923 8.07171C1.41792 8.07171 1.53846 8.18778 1.53846 8.33097V8.51852C1.53846 8.59465 1.54974 8.6678 1.57061 8.73673C1.61222 8.87419 1.53024 9.01811 1.38749 9.05819C1.24474 9.09826 1.09528 9.01931 1.05367 8.88185C1.01867 8.76626 1 8.64427 1 8.51852V8.33097C1 8.18778 1.12054 8.07171 1.26923 8.07171ZM7.73077 8.07171C7.87946 8.07171 8 8.18778 8 8.33097V8.51852C8 8.64427 7.98133 8.76626 7.94633 8.88185C7.90472 9.01931 7.75526 9.09826 7.61251 9.05819C7.46976 9.01811 7.38778 8.87419 7.42939 8.73673C7.45026 8.6678 7.46154 8.59465 7.46154 8.51852V8.33097C7.46154 8.18778 7.58208 8.07171 7.73077 8.07171ZM1.78573 9.44168C1.82734 9.30421 1.9768 9.22527 2.11955 9.26534C2.19113 9.28543 2.26709 9.2963 2.34615 9.2963H2.73568C2.88437 9.2963 3.00491 9.41237 3.00491 9.55556C3.00491 9.69874 2.88437 9.81481 2.73568 9.81481H2.34615C2.21557 9.81481 2.08888 9.79683 1.96885 9.76314C1.8261 9.72306 1.74411 9.57914 1.78573 9.44168ZM7.21427 9.44168C7.25589 9.57914 7.1739 9.72306 7.03115 9.76314C6.91112 9.79683 6.78443 9.81481 6.65385 9.81481H6.26432C6.11563 9.81481 5.99509 9.69874 5.99509 9.55556C5.99509 9.41237 6.11563 9.2963 6.26432 9.2963H6.65385C6.73291 9.2963 6.80887 9.28543 6.88045 9.26534C7.0232 9.22527 7.17266 9.30421 7.21427 9.44168ZM3.84124 9.55556C3.84124 9.41237 3.96178 9.2963 4.11047 9.2963H4.88953C5.03822 9.2963 5.15876 9.41237 5.15876 9.55556C5.15876 9.69874 5.03822 9.81481 4.88953 9.81481H4.11047C3.96178 9.81481 3.84124 9.69874 3.84124 9.55556ZM2.34615 11.8889C2.26709 11.8889 2.19113 11.8998 2.11955 11.9198C1.9768 11.9599 1.82735 11.881 1.78573 11.7435C1.74411 11.606 1.8261 11.4621 1.96885 11.422C2.08888 11.3884 2.21557 11.3704 2.34615 11.3704H2.73568C2.88437 11.3704 3.00491 11.4864 3.00491 11.6296C3.00491 11.7728 2.88437 11.8889 2.73568 11.8889H2.34615ZM3.84124 11.6296C3.84124 11.4864 3.96178 11.3704 4.11048 11.3704H4.88953C5.03822 11.3704 5.15876 11.4864 5.15876 11.6296C5.15876 11.7728 5.03822 11.8889 4.88953 11.8889H4.11048C3.96178 11.8889 3.84124 11.7728 3.84124 11.6296ZM5.99509 11.6296C5.99509 11.4864 6.11563 11.3704 6.26432 11.3704H6.65385C6.78443 11.3704 6.91112 11.3884 7.03115 11.422C7.1739 11.4621 7.25589 11.606 7.21427 11.7435C7.17266 11.881 7.0232 11.9599 6.88045 11.9198C6.80887 11.8998 6.73291 11.8889 6.65385 11.8889H6.26432C6.11563 11.8889 5.99509 11.7728 5.99509 11.6296ZM1.38749 12.127C1.53024 12.1671 1.61222 12.311 1.57061 12.4485C1.54974 12.5174 1.53846 12.5905 1.53846 12.6667V12.8542C1.53846 12.9974 1.41792 13.1135 1.26923 13.1135C1.12054 13.1135 1 12.9974 1 12.8542V12.6667C1 12.5409 1.01867 12.4189 1.05367 12.3033C1.09528 12.1659 1.24474 12.0869 1.38749 12.127ZM7.61251 12.127C7.75526 12.0869 7.90472 12.1659 7.94633 12.3033C7.98133 12.4189 8 12.5409 8 12.6667V12.8542C8 12.9974 7.87946 13.1135 7.73077 13.1135C7.58208 13.1135 7.46154 12.9974 7.46154 12.8542V12.6667C7.46154 12.5905 7.45026 12.5174 7.42939 12.4485C7.38778 12.311 7.46976 12.1671 7.61251 12.127ZM1.26923 13.2569C1.41792 13.2569 1.53846 13.373 1.53846 13.5162V13.7037C1.53846 13.7798 1.54974 13.853 1.57061 13.9219C1.61222 14.0594 1.53024 14.2033 1.38749 14.2434C1.24474 14.2834 1.09528 14.2045 1.05367 14.067C1.01867 13.9514 1 13.8295 1 13.7037V13.5162C1 13.373 1.12054 13.2569 1.26923 13.2569ZM7.73077 13.2569C7.87946 13.2569 8 13.373 8 13.5162V13.7037C8 13.8295 7.98133 13.9514 7.94633 14.067C7.90472 14.2045 7.75526 14.2834 7.61251 14.2434C7.46976 14.2033 7.38778 14.0594 7.42939 13.9219C7.45026 13.853 7.46154 13.7798 7.46154 13.7037V13.5162C7.46154 13.373 7.58208 13.2569 7.73077 13.2569ZM1.78573 14.6269C1.82734 14.4894 1.9768 14.4104 2.11955 14.4505C2.19113 14.4706 2.26709 14.4815 2.34615 14.4815H2.73568C2.88437 14.4815 3.00491 14.5976 3.00491 14.7407C3.00491 14.8839 2.88437 15 2.73568 15H2.34615C2.21557 15 2.08888 14.982 1.96885 14.9483C1.8261 14.9082 1.74411 14.7643 1.78573 14.6269ZM7.21427 14.6269C7.25589 14.7643 7.1739 14.9082 7.03115 14.9483C6.91112 14.982 6.78443 15 6.65385 15H6.26432C6.11563 15 5.99509 14.8839 5.99509 14.7407C5.99509 14.5976 6.11563 14.4815 6.26432 14.4815H6.65385C6.73291 14.4815 6.80887 14.4706 6.88045 14.4505C7.0232 14.4104 7.17266 14.4894 7.21427 14.6269ZM3.84124 14.7407C3.84124 14.5976 3.96178 14.4815 4.11047 14.4815H4.88953C5.03822 14.4815 5.15876 14.5976 5.15876 14.7407C5.15876 14.8839 5.03822 15 4.88953 15H4.11047C3.96178 15 3.84124 14.8839 3.84124 14.7407Z" fill="white"/>
</svg>
