<svg width="16" height="16" viewBox="0 0 16 16" fill="none" xmlns="http://www.w3.org/2000/svg">
<path fill-rule="evenodd" clip-rule="evenodd" d="M1.5 8C1.5 5.17485 3.79024 2.88461 6.61538 2.88461H10.2308C11.0592 2.88461 11.7308 3.55619 11.7308 4.38461V5.61538C11.7308 6.44381 11.0592 7.11538 10.2308 7.11538H6.69231C6.41616 7.11538 6.19231 7.33924 6.19231 7.61538V8.38461C6.19231 8.66076 6.41616 8.88461 6.69231 8.88461H10.2308C11.0592 8.88461 11.7308 9.55619 11.7308 10.3846V11.6154C11.7308 12.4438 11.0592 13.1154 10.2308 13.1154H6.61538C3.79024 13.1154 1.5 10.8251 1.5 8ZM6.61538 3.88461C4.34252 3.88461 2.5 5.72713 2.5 8C2.5 10.2729 4.34252 12.1154 6.61538 12.1154H9.38452V9.88461H6.69231C5.86388 9.88461 5.19231 9.21304 5.19231 8.38461V7.61538C5.19231 6.78696 5.86388 6.11538 6.69231 6.11538H9.38452V3.88461H6.61538Z" fill="white"/>
<path d="M14.4473 3.62254C14.5708 3.86953 14.4707 4.16987 14.2237 4.29336L13.3006 4.7549C13.0536 4.8784 12.7533 4.77828 12.6298 4.53129C12.5063 4.2843 12.6064 3.98397 12.8534 3.86047L13.7765 3.39893C14.0235 3.27544 14.3238 3.37555 14.4473 3.62254Z" fill="white"/>
<path d="M12.6298 5.93023C12.7533 5.68324 13.0536 5.58313 13.3006 5.70663L14.2237 6.16817C14.4707 6.29166 14.5708 6.592 14.4473 6.83899C14.3238 7.08597 14.0235 7.18609 13.7765 7.06259L12.8534 6.60105C12.6064 6.47756 12.5063 6.17722 12.6298 5.93023Z" fill="white"/>
<path d="M14.2237 9.83181C14.4707 9.70832 14.5708 9.40798 14.4473 9.16099C14.3238 8.914 14.0235 8.81389 13.7765 8.93739L12.8534 9.39893C12.6064 9.52242 12.5063 9.82276 12.6298 10.0697C12.7533 10.3167 13.0536 10.4168 13.3006 10.2934L14.2237 9.83181Z" fill="white"/>
<path d="M13.3006 11.2451C13.0536 11.1216 12.7533 11.2217 12.6298 11.4687C12.5063 11.7157 12.6064 12.016 12.8534 12.1395L13.7765 12.601C14.0235 12.7245 14.3238 12.6244 14.4473 12.3774C14.5708 12.1304 14.4707 11.8301 14.2237 11.7066L13.3006 11.2451Z" fill="white"/>
</svg>
