<svg width="16" height="16" viewBox="0 0 16 16" fill="none" xmlns="http://www.w3.org/2000/svg">
<path fill-rule="evenodd" clip-rule="evenodd" d="M15 8C15 11.866 11.866 15 8 15C4.13401 15 1 11.866 1 8C1 4.13401 4.13401 1 8 1C11.866 1 15 4.13401 15 8ZM10.5 11.5C10.5 12.8807 9.38071 14 8 14C8.69036 14 9.25 13.4404 9.25 12.75C9.25 12.0596 8.69036 11.5 8 11.5C7.30964 11.5 6.75 12.0596 6.75 12.75C6.75 13.4404 7.30964 14 8 14C6.61929 14 5.5 12.8807 5.5 11.5C5.5 10.1193 6.61929 9 8 9C9.38071 9 10.5 10.1193 10.5 11.5ZM11.0908 13.1437C12.834 12.094 14 10.1832 14 8C14 4.68629 11.3137 2 8 2C4.68629 2 2 4.68629 2 8C2 10.1832 3.16599 12.094 4.90919 13.1437C4.64802 12.6536 4.5 12.0941 4.5 11.5C4.5 9.567 6.067 8 8 8C9.933 8 11.5 9.567 11.5 11.5C11.5 12.0941 11.352 12.6536 11.0908 13.1437Z" fill="white"/>
</svg>
