<svg width="16" height="16" viewBox="0 0 16 16" fill="none" xmlns="http://www.w3.org/2000/svg">
<path d="M3.86218 14.8446C3.66215 15.0518 3.33785 15.0518 3.13782 14.8446L0.150019 11.7493C-0.0500062 11.5421 -0.0500062 11.2062 0.150019 10.999C0.350043 10.7917 0.674348 10.7917 0.874372 10.999L2.9878 13.1884V2.53061C2.9878 2.23756 3.21712 2 3.5 2C3.78288 2 4.01219 2.23756 4.01219 2.53061V13.1884L6.12563 10.999C6.32565 10.7917 6.64996 10.7917 6.84998 10.999C7.05001 11.2062 7.05001 11.5421 6.84998 11.7493L3.86218 14.8446Z" fill="#0091E4"/>
<path d="M8 2.5C8 2.77614 8.22386 3 8.5 3H14.5C14.7761 3 15 2.77614 15 2.5C15 2.22386 14.7761 2 14.5 2H8.5C8.22386 2 8 2.22386 8 2.5Z" fill="#0091E4"/>
<path d="M8.5 6.6001C8.22386 6.6001 8 6.37624 8 6.1001C8 5.82396 8.22386 5.6001 8.5 5.6001H12.5C12.7761 5.6001 13 5.82396 13 6.1001C13 6.37624 12.7761 6.6001 12.5 6.6001H8.5Z" fill="#0091E4"/>
<path d="M8 9.80005C8 10.0762 8.22386 10.3 8.5 10.3H11.5C11.7761 10.3 12 10.0762 12 9.80005C12 9.52391 11.7761 9.30005 11.5 9.30005H8.5C8.22386 9.30005 8 9.52391 8 9.80005Z" fill="#0091E4"/>
<path d="M8.5 14C8.22386 14 8 13.7761 8 13.5C8 13.2239 8.22386 13 8.5 13H9.5C9.77614 13 10 13.2239 10 13.5C10 13.7761 9.77614 14 9.5 14H8.5Z" fill="#0091E4"/>
</svg>
