<svg width="16" height="16" viewBox="0 0 16 16" fill="none" xmlns="http://www.w3.org/2000/svg">
<path d="M4.85355 1.14645C4.65829 0.951184 4.34171 0.951184 4.14645 1.14645L0.646447 4.64645C0.451184 4.84171 0.451184 5.15829 0.646447 5.35355C0.841709 5.54882 1.15829 5.54882 1.35355 5.35355L4 2.70711V14.5C4 14.7761 4.22386 15 4.5 15C4.77614 15 5 14.7761 5 14.5V2.70711L7.64645 5.35355C7.84171 5.54882 8.15829 5.54882 8.35355 5.35355C8.54882 5.15829 8.54882 4.84171 8.35355 4.64645L4.85355 1.14645Z" fill="white"/>
<path d="M7.64645 11.3536L11.1464 14.8536C11.3417 15.0488 11.6583 15.0488 11.8536 14.8536L15.3536 11.3536C15.5488 11.1583 15.5488 10.8417 15.3536 10.6464C15.1583 10.4512 14.8417 10.4512 14.6464 10.6464L12 13.2929V1.5C12 1.22386 11.7761 1 11.5 1C11.2239 1 11 1.22386 11 1.5V13.2929L8.35355 10.6464C8.15829 10.4512 7.84171 10.4512 7.64645 10.6464C7.45118 10.8417 7.45118 11.1583 7.64645 11.3536Z" fill="white"/>
</svg>
