<svg width="16" height="16" viewBox="0 0 16 16" fill="none" xmlns="http://www.w3.org/2000/svg">
<path d="M4.14645 14.8536L0.646447 11.3536C0.451184 11.1583 0.451184 10.8417 0.646447 10.6464C0.841709 10.4512 1.15829 10.4512 1.35355 10.6464L4 13.2929V1.5C4 1.22386 4.22386 1 4.5 1C4.77614 1 5 1.22386 5 1.5V13.2929L7.64645 10.6464C7.84171 10.4512 8.15829 10.4512 8.35355 10.6464C8.54882 10.8417 8.54882 11.1583 8.35355 11.3536L4.85355 14.8536C4.65829 15.0488 4.34171 15.0488 4.14645 14.8536Z" fill="white"/>
<path d="M9.37036 9.75C9.37036 9.47386 9.59422 9.25 9.87036 9.25H13.2037C13.4798 9.25 13.7037 9.47386 13.7037 9.75C13.7037 10.0261 13.4798 10.25 13.2037 10.25H9.87036C9.59422 10.25 9.37036 10.0261 9.37036 9.75Z" fill="white"/>
<path d="M9.87036 12.75C9.59422 12.75 9.37036 12.9739 9.37036 13.25C9.37036 13.5261 9.59422 13.75 9.87036 13.75H14.8704C15.1465 13.75 15.3704 13.5261 15.3704 13.25C15.3704 12.9739 15.1465 12.75 14.8704 12.75H9.87036Z" fill="white"/>
<path d="M9.37036 2.75C9.37036 2.47386 9.59422 2.25 9.87036 2.25H10.7037C10.9798 2.25 11.2037 2.47386 11.2037 2.75C11.2037 3.02614 10.9798 3.25 10.7037 3.25H9.87036C9.59422 3.25 9.37036 3.02614 9.37036 2.75Z" fill="white"/>
<path d="M9.87036 5.75C9.59422 5.75 9.37036 5.97386 9.37036 6.25C9.37036 6.52614 9.59422 6.75 9.87036 6.75H12.3704C12.6465 6.75 12.8704 6.52614 12.8704 6.25C12.8704 5.97386 12.6465 5.75 12.3704 5.75H9.87036Z" fill="white"/>
</svg>
