<svg width="16" height="16" viewBox="0 0 16 16" fill="none" xmlns="http://www.w3.org/2000/svg">
<path fill-rule="evenodd" clip-rule="evenodd" d="M4.13782 14.8446C4.33785 15.0518 4.66215 15.0518 4.86218 14.8446L7.84998 11.7493C8.05001 11.5421 8.05001 11.2062 7.84998 10.999C7.64996 10.7917 7.32565 10.7917 7.12563 10.999L5.0122 13.1884L5.01219 1.53061C5.01219 1.23756 4.78288 1 4.5 1C4.21712 1 3.9878 1.23756 3.9878 1.53061L3.98781 13.1884L1.87437 10.999C1.67435 10.7917 1.35004 10.7917 1.15002 10.999C0.949993 11.2062 0.949994 11.5421 1.15002 11.7493L4.13782 14.8446Z" fill="#0091E4"/>
<path fill-rule="evenodd" clip-rule="evenodd" d="M11.8622 1.15541C11.6622 0.948196 11.3378 0.948196 11.1378 1.15541L8.15002 4.25065C7.94999 4.45787 7.94999 4.79383 8.15002 5.00105C8.35004 5.20827 8.67435 5.20827 8.87437 5.00105L10.9878 2.81162V14.4694C10.9878 14.7624 11.2171 15 11.5 15C11.7829 15 12.0122 14.7624 12.0122 14.4694V2.81162L14.1256 5.00105C14.3257 5.20827 14.65 5.20827 14.85 5.00105C15.05 4.79383 15.05 4.45787 14.85 4.25065L11.8622 1.15541Z" fill="#0091E4"/>
</svg>
