<svg width="16" height="16" viewBox="0 0 16 16" fill="none" xmlns="http://www.w3.org/2000/svg">
<path d="M3.86218 1.15541C3.66215 0.948196 3.33785 0.948196 3.13782 1.15541L0.150019 4.25065C-0.0500062 4.45787 -0.0500062 4.79383 0.150019 5.00105C0.350043 5.20827 0.674348 5.20827 0.874372 5.00105L2.9878 2.81162V13.4694C2.9878 13.7624 3.21712 14 3.5 14C3.78288 14 4.01219 13.7624 4.01219 13.4694V2.81162L6.12563 5.00105C6.32565 5.20827 6.64996 5.20827 6.84998 5.00105C7.05001 4.79383 7.05001 4.45787 6.84998 4.25065L3.86218 1.15541Z" fill="#0091E4"/>
<path d="M8 13.5C8 13.2239 8.22386 13 8.5 13H14.5C14.7761 13 15 13.2239 15 13.5C15 13.7761 14.7761 14 14.5 14H8.5C8.22386 14 8 13.7761 8 13.5Z" fill="#0091E4"/>
<path d="M8.5 9.3999C8.22386 9.3999 8 9.62376 8 9.8999C8 10.176 8.22386 10.3999 8.5 10.3999H12.5C12.7761 10.3999 13 10.176 13 9.8999C13 9.62376 12.7761 9.3999 12.5 9.3999H8.5Z" fill="#0091E4"/>
<path d="M8 6.19995C8 5.92381 8.22386 5.69995 8.5 5.69995H11.5C11.7761 5.69995 12 5.92381 12 6.19995C12 6.47609 11.7761 6.69995 11.5 6.69995H8.5C8.22386 6.69995 8 6.47609 8 6.19995Z" fill="#0091E4"/>
<path d="M8.5 2C8.22386 2 8 2.22386 8 2.5C8 2.77614 8.22386 3 8.5 3H9.5C9.77614 3 10 2.77614 10 2.5C10 2.22386 9.77614 2 9.5 2H8.5Z" fill="#0091E4"/>
</svg>
