<svg width="16" height="16" viewBox="0 0 16 16" fill="none" xmlns="http://www.w3.org/2000/svg">
<path fill-rule="evenodd" clip-rule="evenodd" d="M4.22578 1.50058C4.42366 1.49103 4.60851 1.59921 4.6971 1.7764L5.81179 4.00577L6.33387 3.22265C6.4398 3.06376 6.62698 2.97908 6.81626 3.00443C7.00553 3.02977 7.16384 3.16072 7.22423 3.34189L8.13744 6.0815L11.8712 7.01493C12.0535 7.06051 12.1948 7.20446 12.2371 7.38757L13.3783 12.3327L13.7857 11.3143C13.8882 11.0579 14.1792 10.9332 14.4356 11.0358C14.692 11.1383 14.8167 11.4293 14.7141 11.6857L13.7141 14.1857C13.633 14.3886 13.4294 14.5153 13.2115 14.4985C12.9936 14.4817 12.8118 14.3254 12.7627 14.1124L11.3315 7.91081L7.62862 6.98507C7.46278 6.94361 7.32961 6.82029 7.27555 6.65812L6.59883 4.62797L6.16592 5.27735C6.06705 5.42565 5.89671 5.51011 5.71882 5.49904C5.54093 5.48796 5.38239 5.38303 5.30268 5.22361L4.30963 3.23752L2.21656 8.67949C2.11743 8.93723 1.82814 9.0658 1.5704 8.96668C1.31266 8.86755 1.18409 8.57825 1.28322 8.32051L3.78322 1.82051C3.85433 1.63561 4.02791 1.51014 4.22578 1.50058Z" fill="white"/>
</svg>
