<svg width="16" height="16" viewBox="0 0 16 16" fill="none" xmlns="http://www.w3.org/2000/svg">
<path fill-rule="evenodd" clip-rule="evenodd" d="M4.32572 2.00036C4.56928 2.00915 4.78196 2.17565 4.85902 2.41786L5.67361 4.97803L6.17226 4.28148C6.29723 4.10692 6.50155 4.01541 6.70835 4.04138C6.91514 4.06735 7.09303 4.20687 7.17508 4.40742L8.1902 6.88889H11.6944C11.9454 6.88889 12.1684 7.05721 12.2478 7.30675L13.3181 10.6708L13.8804 9.29631C14.0073 8.98609 14.3502 8.84239 14.6463 8.97534C14.9424 9.10829 15.0796 9.46755 14.9527 9.77776L13.786 12.6296C13.6906 12.8628 13.4676 13.01 13.2256 12.9995C12.9837 12.9889 12.7731 12.8228 12.6965 12.5821L11.2739 8.11111H7.80556C7.57222 8.11111 7.36132 7.96542 7.26941 7.74073L6.50021 5.86043L5.93894 6.64444C5.80876 6.82628 5.593 6.91741 5.37884 6.881C5.16468 6.84459 4.9875 6.68666 4.91889 6.47103L4.24805 4.36264L2.12286 9.76972C2.0002 10.0818 1.65927 10.2306 1.36137 10.1021C1.06348 9.97361 0.921428 9.61644 1.04409 9.30436L3.76625 2.37843C3.85904 2.14235 4.08215 1.99158 4.32572 2.00036Z" fill="white"/>
</svg>
