<svg width="16" height="16" viewBox="0 0 16 16" fill="none" xmlns="http://www.w3.org/2000/svg">
<path fill-rule="evenodd" clip-rule="evenodd" d="M1.5 1C1.22386 1 1 1.22386 1 1.5V9.85714C1 10.1333 1.22386 10.3571 1.5 10.3571H5.64282V11.0179C5.64282 11.294 5.86668 11.5179 6.14282 11.5179C6.41896 11.5179 6.64282 11.294 6.64282 11.0179V10.3571H7.07139C7.34754 10.3571 7.57139 10.1333 7.57139 9.85714C7.57139 9.581 7.34754 9.35714 7.07139 9.35714H6.64286V6.64286H9.35711V7.07142C9.35711 7.34757 9.58097 7.57142 9.85711 7.57142C10.1333 7.57142 10.3571 7.34757 10.3571 7.07142V6.64285H11.0178C11.294 6.64285 11.5178 6.419 11.5178 6.14285C11.5178 5.86671 11.294 5.64285 11.0178 5.64285H10.3571V1.5C10.3571 1.22386 10.1333 1 9.85714 1H1.5ZM2 9.35714V2H9.35714V5.64286H6.14286C5.86671 5.64286 5.64286 5.86671 5.64286 6.14286V9.35714H2ZM13.3393 5.64285C13.0631 5.64285 12.8393 5.86671 12.8393 6.14285C12.8393 6.419 13.0631 6.64285 13.3393 6.64285H14V7.1875C14 7.46364 14.2238 7.6875 14.5 7.6875C14.7761 7.6875 15 7.46364 15 7.1875V6.14285C15 5.86671 14.7761 5.64285 14.5 5.64285H13.3393ZM10.3571 8.92857C10.3571 8.65242 10.1333 8.42857 9.85711 8.42857C9.58097 8.42857 9.35711 8.65242 9.35711 8.92857V9.35714H8.92854C8.65239 9.35714 8.42854 9.581 8.42854 9.85714C8.42854 10.1333 8.65239 10.3571 8.92854 10.3571H9.85711C10.1333 10.3571 10.3571 10.1333 10.3571 9.85714V8.92857ZM15 9.27678C15 9.00064 14.7761 8.77678 14.5 8.77678C14.2238 8.77678 14 9.00064 14 9.27678V11.3661C14 11.6422 14.2238 11.8661 14.5 11.8661C14.7761 11.8661 15 11.6422 15 11.3661V9.27678ZM6.64282 13.3393C6.64282 13.0631 6.41896 12.8393 6.14282 12.8393C5.86668 12.8393 5.64282 13.0631 5.64282 13.3393V14.5C5.64282 14.7761 5.86668 15 6.14282 15H7.18747C7.46361 15 7.68747 14.7761 7.68747 14.5C7.68747 14.2239 7.46361 14 7.18747 14H6.64282V13.3393ZM15 13.4554C15 13.1792 14.7761 12.9554 14.5 12.9554C14.2238 12.9554 14 13.1792 14 13.4554V14H13.4553C13.1792 14 12.9553 14.2239 12.9553 14.5C12.9553 14.7761 13.1792 15 13.4553 15H14.5C14.7761 15 15 14.7761 15 14.5V13.4554ZM9.27675 14C9.00061 14 8.77675 14.2239 8.77675 14.5C8.77675 14.7761 9.00061 15 9.27675 15H11.366C11.6422 15 11.866 14.7761 11.866 14.5C11.866 14.2239 11.6422 14 11.366 14H9.27675Z" fill="white"/>
</svg>
