<svg width="16" height="16" viewBox="0 0 16 16" fill="none" xmlns="http://www.w3.org/2000/svg">
<path fill-rule="evenodd" clip-rule="evenodd" d="M2.5 2C2.22386 2 2 2.22386 2 2.5V9.5C2 9.77614 2.22386 10 2.5 10H5V6.5C5 5.67157 5.67157 5 6.5 5H10V2.5C10 2.22386 9.77614 2 9.5 2H2.5ZM1 2.5C1 1.67157 1.67157 1 2.5 1H9.5C10.3284 1 11 1.67157 11 2.5V6H6.5C6.22386 6 6 6.22386 6 6.5V11H2.5C1.67157 11 1 10.3284 1 9.5V2.5Z" fill="white"/>
<path fill-rule="evenodd" clip-rule="evenodd" d="M13.8041 14.6352C13.7069 14.6612 13.6049 14.675 13.5 14.675H13.2667C13.17 14.675 13.0917 14.5967 13.0917 14.5C13.0917 14.4033 13.17 14.325 13.2667 14.325H13.5C13.5741 14.325 13.6457 14.3153 13.7137 14.2971C13.8071 14.2721 13.903 14.3276 13.928 14.421C13.9529 14.5143 13.8975 14.6103 13.8041 14.6352ZM12.5083 14.5C12.5083 14.5967 12.43 14.675 12.3333 14.675H11.8667C11.77 14.675 11.6917 14.5967 11.6917 14.5C11.6917 14.4033 11.77 14.325 11.8667 14.325H12.3333C12.43 14.325 12.5083 14.4033 12.5083 14.5ZM11.1083 14.5C11.1083 14.5967 11.03 14.675 10.9333 14.675H10.4667C10.37 14.675 10.2917 14.5967 10.2917 14.5C10.2917 14.4033 10.37 14.325 10.4667 14.325H10.9333C11.03 14.325 11.1083 14.4033 11.1083 14.5ZM9.70833 14.5C9.70833 14.5967 9.62998 14.675 9.53333 14.675L9.06667 14.675C8.97002 14.675 8.89167 14.5967 8.89167 14.5C8.89167 14.4033 8.97002 14.325 9.06667 14.325H9.53333C9.62998 14.325 9.70833 14.4033 9.70833 14.5ZM8.30833 14.5C8.30833 14.5967 8.22998 14.675 8.13333 14.675H7.66667C7.57002 14.675 7.49167 14.5967 7.49167 14.5C7.49167 14.4033 7.57002 14.325 7.66667 14.325H8.13333C8.22998 14.325 8.30833 14.4033 8.30833 14.5ZM6.90833 14.5C6.90833 14.5966 6.82998 14.675 6.73333 14.675H6.5C6.39507 14.675 6.29309 14.6612 6.1959 14.6352C6.10252 14.6103 6.04706 14.5143 6.07202 14.421C6.09698 14.3276 6.19291 14.2721 6.28628 14.2971C6.35425 14.3153 6.42585 14.325 6.5 14.325H6.73333C6.82998 14.325 6.90833 14.4033 6.90833 14.5ZM5.57903 13.928C5.48566 13.9529 5.38974 13.8975 5.36478 13.8041C5.3388 13.7069 5.325 13.6049 5.325 13.5V13.25C5.325 13.1533 5.40335 13.075 5.5 13.075C5.59665 13.075 5.675 13.1533 5.675 13.25V13.5C5.675 13.5741 5.68474 13.6457 5.70291 13.7137C5.72787 13.8071 5.67241 13.903 5.57903 13.928ZM14.421 13.928C14.3276 13.903 14.2721 13.8071 14.2971 13.7137C14.3153 13.6457 14.325 13.5741 14.325 13.5V13.2667C14.325 13.17 14.4033 13.0917 14.5 13.0917C14.5967 13.0917 14.675 13.17 14.675 13.2667V13.5C14.675 13.6049 14.6612 13.7069 14.6352 13.8041C14.6103 13.8975 14.5143 13.9529 14.421 13.928ZM14.5 12.5083C14.4033 12.5083 14.325 12.43 14.325 12.3333V11.8667C14.325 11.77 14.4033 11.6917 14.5 11.6917C14.5967 11.6917 14.675 11.77 14.675 11.8667V12.3333C14.675 12.43 14.5967 12.5083 14.5 12.5083ZM5.5 12.425C5.40335 12.425 5.325 12.3466 5.325 12.25L5.325 11.75C5.325 11.6533 5.40335 11.575 5.5 11.575C5.59665 11.575 5.675 11.6533 5.675 11.75L5.675 12.25C5.675 12.3466 5.59665 12.425 5.5 12.425ZM14.5 11.1083C14.4034 11.1083 14.325 11.03 14.325 10.9333V10.4667C14.325 10.37 14.4034 10.2917 14.5 10.2917C14.5967 10.2917 14.675 10.37 14.675 10.4667V10.9333C14.675 11.03 14.5967 11.1083 14.5 11.1083ZM5.5 10.925C5.40335 10.925 5.325 10.8466 5.325 10.75V10.5C5.325 10.4033 5.40335 10.325 5.5 10.325H5.72222C5.81887 10.325 5.89722 10.4033 5.89722 10.5C5.89722 10.5966 5.81887 10.675 5.72222 10.675H5.675V10.75C5.675 10.8466 5.59665 10.925 5.5 10.925ZM9.5 10.325C9.57415 10.325 9.64575 10.3153 9.71372 10.2971C9.80709 10.2721 9.90302 10.3276 9.92798 10.421C9.95294 10.5143 9.89748 10.6103 9.8041 10.6352C9.70691 10.6612 9.60493 10.675 9.5 10.675H9.27778C9.18113 10.675 9.10278 10.5966 9.10278 10.5C9.10278 10.4033 9.18113 10.325 9.27778 10.325H9.5ZM8.56389 10.5C8.56389 10.5966 8.48554 10.675 8.38889 10.675H7.94444C7.8478 10.675 7.76944 10.5966 7.76944 10.5C7.76944 10.4033 7.8478 10.325 7.94444 10.325H8.38889C8.48554 10.325 8.56389 10.4033 8.56389 10.5ZM7.23056 10.5C7.23056 10.5966 7.15221 10.675 7.05556 10.675H6.61111C6.51446 10.675 6.43611 10.5966 6.43611 10.5C6.43611 10.4033 6.51446 10.325 6.61111 10.325H7.05556C7.15221 10.325 7.23056 10.4033 7.23056 10.5ZM10.421 9.92798C10.3276 9.90302 10.2721 9.80709 10.2971 9.71372C10.3153 9.64575 10.325 9.57415 10.325 9.5V9.27778C10.325 9.18113 10.4034 9.10278 10.5 9.10278C10.5967 9.10278 10.675 9.18113 10.675 9.27778V9.5C10.675 9.60493 10.6612 9.70691 10.6352 9.8041C10.6103 9.89748 10.5143 9.95294 10.421 9.92798ZM14.5 9.70833C14.4034 9.70833 14.325 9.62998 14.325 9.53333V9.06667C14.325 8.97002 14.4034 8.89167 14.5 8.89167C14.5967 8.89167 14.675 8.97002 14.675 9.06667L14.675 9.53333C14.675 9.62998 14.5967 9.70833 14.5 9.70833ZM10.5 8.56389C10.4034 8.56389 10.325 8.48554 10.325 8.38889V7.94444C10.325 7.84779 10.4034 7.76944 10.5 7.76944C10.5967 7.76944 10.675 7.84779 10.675 7.94444V8.38889C10.675 8.48554 10.5967 8.56389 10.5 8.56389ZM14.5 8.30833C14.4034 8.30833 14.325 8.22998 14.325 8.13333V7.66667C14.325 7.57002 14.4034 7.49167 14.5 7.49167C14.5967 7.49167 14.675 7.57002 14.675 7.66667V8.13333C14.675 8.22998 14.5967 8.30833 14.5 8.30833ZM10.5 7.23056C10.4034 7.23056 10.325 7.1522 10.325 7.05555V6.61111C10.325 6.51446 10.4034 6.43611 10.5 6.43611C10.5967 6.43611 10.675 6.51446 10.675 6.61111V7.05555C10.675 7.1522 10.5967 7.23056 10.5 7.23056ZM14.5 6.90833C14.4034 6.90833 14.325 6.82998 14.325 6.73333V6.5C14.325 6.42585 14.3153 6.35425 14.2971 6.28628C14.2721 6.19291 14.3276 6.09698 14.421 6.07202C14.5143 6.04706 14.6103 6.10252 14.6352 6.1959C14.6612 6.29309 14.675 6.39507 14.675 6.5V6.73333C14.675 6.82998 14.5967 6.90833 14.5 6.90833ZM10.5 5.89722C10.4034 5.89722 10.325 5.81887 10.325 5.72222V5.5C10.325 5.40335 10.4034 5.325 10.5 5.325H10.75C10.8467 5.325 10.925 5.40335 10.925 5.5C10.925 5.59665 10.8467 5.675 10.75 5.675H10.675V5.72222C10.675 5.81887 10.5967 5.89722 10.5 5.89722ZM13.928 5.57903C13.903 5.67241 13.8071 5.72787 13.7137 5.70291C13.6458 5.68474 13.5741 5.675 13.5 5.675H13.25C13.1534 5.675 13.075 5.59665 13.075 5.5C13.075 5.40335 13.1534 5.325 13.25 5.325H13.5C13.6049 5.325 13.7069 5.3388 13.8041 5.36478C13.8975 5.38974 13.9529 5.48566 13.928 5.57903ZM12.425 5.5C12.425 5.59665 12.3467 5.675 12.25 5.675L11.75 5.675C11.6534 5.675 11.575 5.59665 11.575 5.5C11.575 5.40335 11.6534 5.325 11.75 5.325L12.25 5.325C12.3467 5.325 12.425 5.40335 12.425 5.5Z" fill="white"/>
</svg>
