<svg width="16" height="16" viewBox="0 0 16 16" fill="none" xmlns="http://www.w3.org/2000/svg">
<path fill-rule="evenodd" clip-rule="evenodd" d="M8.37838 1.37838C8.37838 1.16941 8.20897 1 8 1C7.79103 1 7.62162 1.16941 7.62162 1.37838V2.33663C4.78847 2.5231 2.52314 4.78846 2.33672 7.62162H1.37838C1.16941 7.62162 1 7.79103 1 8C1 8.20897 1.16941 8.37838 1.37838 8.37838H2.33673C2.52326 11.2114 4.78854 13.4767 7.62162 13.6632V14.6216C7.62162 14.8306 7.79103 15 8 15C8.20897 15 8.37838 14.8306 8.37838 14.6216V13.6632C11.2114 13.4767 13.4767 11.2114 13.6632 8.37838H14.6216C14.8306 8.37838 15 8.20897 15 8C15 7.79103 14.8306 7.62162 14.6216 7.62162H13.6633C13.4768 4.78847 11.2115 2.52312 8.37838 2.33663V1.37838ZM7.62162 3.09531C5.20662 3.27902 3.27906 5.2066 3.0954 7.62162L5.18714 7.62162C5.35559 6.35694 6.35696 5.35555 7.62162 5.18706V3.09531ZM8.37838 5.18706V3.09531C10.7934 3.27903 12.7209 5.20661 12.9046 7.62162L10.8128 7.62162C10.6444 6.35695 9.64303 5.35557 8.37838 5.18706ZM7.62162 5.95313C6.77559 6.10852 6.10856 6.77557 5.9532 7.62162H7.62162V5.95313ZM5.18717 8.37838H3.09541C3.27917 10.7933 5.20669 12.7208 7.62162 12.9045V10.8127C6.35703 10.6442 5.3557 9.64296 5.18717 8.37838ZM7.62162 10.0467C6.77566 9.89128 6.10867 9.22433 5.95324 8.37838H7.62162V10.0467ZM8.37838 10.8127V12.9045C10.7933 12.7208 12.7208 10.7933 12.9046 8.37838H10.8128C10.6443 9.64295 9.64296 10.6442 8.37838 10.8127ZM10.0467 8.37838C9.8913 9.22432 9.22433 9.89126 8.37838 10.0467V8.37838H10.0467ZM10.0468 7.62162H8.37838V5.95313C9.2244 6.10854 9.89141 6.77558 10.0468 7.62162Z" fill="white"/>
</svg>
