<svg width="16" height="16" viewBox="0 0 16 16" fill="none" xmlns="http://www.w3.org/2000/svg">
<path d="M2.3 5.75C1.85817 5.75 1.5 6.10817 1.5 6.55V4.95C1.5 5.39183 1.85817 5.75 2.3 5.75ZM1.5 9.45C1.5 9.89183 1.85817 10.25 2.3 10.25C1.85817 10.25 1.5 10.6082 1.5 11.05V9.45ZM5.2 10.25C5.64183 10.25 6 9.89183 6 9.45C6 9.89183 6.35817 10.25 6.8 10.25C6.35817 10.25 6 10.6082 6 11.05C6 10.6082 5.64183 10.25 5.2 10.25ZM6 6.55C6 6.10817 5.64183 5.75 5.2 5.75C5.64183 5.75 6 5.39183 6 4.95C6 5.39183 6.35817 5.75 6.8 5.75C6.35817 5.75 6 6.10817 6 6.55ZM6 2.3C6 1.85817 5.64183 1.5 5.2 1.5H6.8C6.35817 1.5 6 1.85817 6 2.3ZM13.7 10.25C14.1418 10.25 14.5 9.89183 14.5 9.45V11.05C14.5 10.6082 14.1418 10.25 13.7 10.25ZM14.5 6.55C14.5 6.10817 14.1418 5.75 13.7 5.75C14.1418 5.75 14.5 5.39183 14.5 4.95V6.55ZM6 13.7C6 14.1418 6.35817 14.5 6.8 14.5H5.2C5.64183 14.5 6 14.1418 6 13.7Z" fill="white" stroke="white"/>
</svg>
