<svg width="16" height="16" viewBox="0 0 16 16" fill="none" xmlns="http://www.w3.org/2000/svg">
<path fill-rule="evenodd" clip-rule="evenodd" d="M1.5 7.25666C1.5 4.13811 4.50395 1.75006 8.00502 1.75006C11.5073 1.75006 14.5 4.13908 14.5 7.25666C14.5 10.3752 11.4961 12.7633 7.99498 12.7633C6.99239 12.7633 6.03859 12.5712 5.18095 12.2241L2.78422 14.1406C2.6135 14.2771 2.37388 14.2869 2.19259 14.1647C2.0113 14.0426 1.93037 13.8168 1.99277 13.6073L2.8735 10.6504C2.02274 9.72191 1.5 8.54939 1.5 7.25666ZM8.00502 2.75006C4.87848 2.75006 2.5 4.85278 2.5 7.25666C2.5 8.348 2.97425 9.35718 3.78678 10.1572C3.91859 10.287 3.96798 10.4789 3.91518 10.6562L3.40707 12.3621L4.79067 11.2558C4.938 11.138 5.13908 11.1131 5.31067 11.1915C6.10847 11.5559 7.02166 11.7633 7.99498 11.7633C11.1215 11.7633 13.5 9.66054 13.5 7.25666C13.5 4.8518 11.1304 2.75006 8.00502 2.75006Z" fill="white"/>
</svg>
