<svg width="16" height="16" viewBox="0 0 16 16" fill="none" xmlns="http://www.w3.org/2000/svg">
<path fill-rule="evenodd" clip-rule="evenodd" d="M8.5 1.5C8.5 1.22386 8.27614 1 8 1C7.72386 1 7.5 1.22386 7.5 1.5V2.52239C4.86142 2.76017 2.76018 4.86142 2.52242 7.5H1.5C1.22386 7.5 1 7.72386 1 8C1 8.27614 1.22386 8.5 1.5 8.5H2.52242C2.76021 11.1386 4.86144 13.2398 7.5 13.4775V14.5C7.5 14.7761 7.72386 15 8 15C8.27614 15 8.5 14.7761 8.5 14.5V13.4775C11.1386 13.2398 13.2398 11.1386 13.4776 8.5H14.5C14.7761 8.5 15 8.27614 15 8C15 7.72386 14.7761 7.5 14.5 7.5H13.4776C13.2398 4.86142 11.1386 2.76017 8.5 2.52239V1.5ZM7.5 12.4725C5.4142 12.2419 3.75805 10.5858 3.52747 8.5H5.29536C5.50074 9.61788 6.38211 10.4992 7.5 10.7046V12.4725ZM8.5 10.7046V12.4725C10.5858 12.2419 12.2419 10.5858 12.4725 8.5H10.7046C10.4993 9.61788 9.61789 10.4992 8.5 10.7046ZM9.6775 8.5C9.50949 9.0644 9.06441 9.50946 8.5 9.67744V8.5H9.6775ZM10.7047 7.5H12.4725C12.242 5.41418 10.5858 3.75801 8.5 3.52743V5.29525C9.61795 5.5006 10.4994 6.38204 10.7047 7.5ZM8.5 6.32238C9.06448 6.49037 9.50959 6.93551 9.67756 7.5H8.5V6.32238ZM7.5 5.29525V3.52743C5.41418 3.75801 3.75802 5.41418 3.52746 7.5H5.29533C5.50064 6.38204 6.38205 5.5006 7.5 5.29525ZM6.32244 7.5C6.49041 6.93551 6.93552 6.49037 7.5 6.32238V7.5H6.32244ZM6.3225 8.5H7.5V9.67744C6.93559 9.50946 6.4905 9.0644 6.3225 8.5Z" fill="white"/>
</svg>
