<svg width="16" height="16" viewBox="0 0 16 16" fill="none" xmlns="http://www.w3.org/2000/svg">
<path fill-rule="evenodd" clip-rule="evenodd" d="M8 11.855C11.2328 11.855 13.5 9.74067 13.5 7.52746C13.5 5.31426 11.2328 3.19995 8 3.19995C4.76722 3.19995 2.5 5.31426 2.5 7.52746C2.5 8.57029 2.97561 9.55882 3.83046 10.3416L3.5 11L3.1551 11.0791C2.12585 10.1366 1.5 8.89194 1.5 7.52746C1.5 4.58516 4.41015 2.19995 8 2.19995C11.5899 2.19995 14.5 4.58516 14.5 7.52746C14.5 10.4698 11.5899 12.855 8 12.855C7.48256 12.855 6.97924 12.8054 6.49672 12.7118C6.47309 12.7072 6.44951 12.7025 6.42598 12.6977C6.10738 12.6328 5.79807 12.5486 5.5 12.4467C5.37477 12.3957 5.02844 12.5801 4.61226 12.8387C4.59593 12.8488 4.57948 12.8591 4.56295 12.8694C4.38704 12.9797 4.2 13.1018 4.01282 13.2239C3.84942 13.3306 3.68592 13.4373 3.52963 13.5363C3.4869 13.5633 3.44471 13.5898 3.40321 13.6156C2.97147 13.8834 2.61428 14.0714 2.5 14C2.37374 13.9212 2.48124 13.5103 2.6462 13.0194C2.66212 12.9721 2.67856 12.924 2.69539 12.8753C2.737 12.7551 2.78092 12.6317 2.82474 12.5086C3.05845 11.8518 3.2896 11.2023 3.1551 11.0791L3.5 11L3.83046 10.3416C4.06855 10.5597 4.14513 10.8215 4.17241 10.967C4.20103 11.1195 4.19683 11.2566 4.18933 11.3493C4.17424 11.5359 4.12896 11.7256 4.08686 11.8785C4.07495 11.9218 4.06207 11.9663 4.04842 12.0118C4.17983 11.9297 4.30853 11.8518 4.42863 11.7839C4.58003 11.6983 4.75427 11.6072 4.92551 11.5427C5.01069 11.5106 5.12689 11.4728 5.25939 11.4527C5.27593 11.4502 5.29493 11.4477 5.31608 11.4454C5.32593 11.4438 5.33473 11.4425 5.3413 11.4416C5.36057 11.4395 5.39647 11.4365 5.41309 11.4355C5.42741 11.4349 5.45426 11.4344 5.4668 11.4344C5.49693 11.4345 5.52229 11.436 5.54086 11.4375C5.55988 11.439 5.57622 11.4408 5.58903 11.4425C5.60202 11.4441 5.61338 11.4459 5.62269 11.4474C5.64091 11.4504 5.656 11.4533 5.66653 11.4555C5.67742 11.4578 5.68672 11.4599 5.69386 11.4616C5.70778 11.4649 5.71915 11.4679 5.72646 11.4699C5.74091 11.4739 5.75269 11.4774 5.75924 11.4794C5.77288 11.4836 5.78527 11.4876 5.79374 11.4904C5.80745 11.4948 5.82138 11.4994 5.83528 11.5045C6.49681 11.7291 7.22787 11.855 8 11.855Z" fill="white"/>
</svg>
