<svg width="16" height="16" viewBox="0 0 16 16" fill="none" xmlns="http://www.w3.org/2000/svg">
<path fill-rule="evenodd" clip-rule="evenodd" d="M6.91089 5.11164C6.91089 3.32818 8.35676 1.88248 10.1403 1.88248C11.9238 1.88248 13.3696 3.32818 13.3696 5.11164C13.3696 5.73714 13.1918 6.32109 12.8839 6.8157C13.1699 6.97343 13.5133 7.21369 13.8405 7.57198C14.6105 8.41539 15.2238 9.83835 14.9212 12.1629L14.8928 12.3806L14.7134 12.5071C14.7134 12.5071 14.7134 12.5071 14.4254 12.0984L14.7134 12.5071L14.7122 12.5079L14.7103 12.5093L14.7041 12.5136L14.6824 12.5285C14.6639 12.5411 14.6375 12.5589 14.6035 12.5813C14.5357 12.6259 14.4378 12.6887 14.3143 12.7635C14.0676 12.9128 13.7165 13.1114 13.2959 13.3101C12.4645 13.7028 11.3169 14.1176 10.1494 14.1176C8.98176 14.1176 7.83421 13.7028 7.00286 13.3101C6.58219 13.1114 6.23111 12.9128 5.98443 12.7635C5.86091 12.6887 5.76305 12.6259 5.69519 12.5813C5.66125 12.5589 5.63477 12.5411 5.61629 12.5285L5.59463 12.5136L5.58842 12.5093L5.58649 12.5079L5.58557 12.5073L5.87334 12.0984C5.58536 12.5071 5.58557 12.5073 5.58557 12.5073L5.40693 12.3814L5.37781 12.1651C5.37256 12.126 5.36757 12.0873 5.36284 12.0488C5.06178 12.1185 4.74384 12.1616 4.4177 12.1616C3.60026 12.1616 2.80519 11.8718 2.23893 11.6043C1.95077 11.4681 1.71031 11.3321 1.54113 11.2297C1.45635 11.1784 1.38896 11.1352 1.34188 11.1042C1.31833 11.0887 1.29982 11.0762 1.28672 11.0673L1.27115 11.0566L1.26648 11.0533L1.26494 11.0522L1.26394 11.0515L1.085 10.9255L1.0562 10.7085C0.844208 9.11128 1.26405 8.10803 1.81908 7.50285C2.00061 7.30491 2.1894 7.15763 2.36081 7.0491C2.19303 6.72821 2.09814 6.36317 2.09814 5.97596C2.09814 4.69494 3.13669 3.65652 4.41772 3.65652C5.69876 3.65652 6.7373 4.69494 6.7373 5.97596C6.7373 6.36464 6.6417 6.73097 6.47273 7.05275C6.56461 7.11153 6.6616 7.18152 6.75984 7.26452C6.98338 7.06993 7.20365 6.92444 7.39747 6.81704C7.08906 6.32214 6.91089 5.7377 6.91089 5.11164ZM10.1403 2.88248C8.90897 2.88248 7.91089 3.88054 7.91089 5.11164C7.91089 6.34273 8.90897 7.3408 10.1403 7.3408C11.3715 7.3408 12.3696 6.34273 12.3696 5.11164C12.3696 3.88054 11.3715 2.88248 10.1403 2.88248ZM8.07592 7.59499C8.04381 7.60927 8.00913 7.62557 7.97231 7.64409C7.75206 7.75486 7.45953 7.94284 7.18165 8.24873C6.66121 8.82163 6.13006 9.87738 6.34159 11.8084C6.38734 11.8375 6.44114 11.871 6.50231 11.908C6.72617 12.0435 7.04663 12.2248 7.42998 12.4059C8.20669 12.7728 9.19714 13.1176 10.1494 13.1176C11.1016 13.1176 12.092 12.7728 12.8687 12.4059C13.2521 12.2248 13.5725 12.0435 13.7964 11.908C13.8571 11.8713 13.9105 11.838 13.956 11.8091C14.1594 9.87429 13.6244 8.81842 13.102 8.24625C12.8231 7.94078 12.5301 7.75352 12.3097 7.64339C12.2726 7.62486 12.2377 7.60858 12.2054 7.59434C11.6456 8.06044 10.9257 8.3408 10.1403 8.3408C9.35523 8.3408 8.63561 8.0607 8.07592 7.59499ZM6.09744 8.01419C6.00056 7.93444 5.90706 7.87532 5.82673 7.8322L5.81621 7.82661C5.42738 8.12086 4.94293 8.2954 4.41772 8.2954C3.89133 8.2954 3.40589 8.12007 3.01662 7.82462C2.8858 7.89218 2.71716 8.00311 2.55607 8.17876C2.24948 8.51304 1.90966 9.14849 2.02197 10.3516L2.05899 10.3742C2.20539 10.4628 2.41528 10.5816 2.66617 10.7001C3.17801 10.942 3.81585 11.1616 4.4177 11.1616C4.71071 11.1616 5.00663 11.1138 5.29441 11.0348C5.28418 9.68155 5.62835 8.70671 6.09744 8.01419ZM4.41772 4.65652C3.6889 4.65652 3.09814 5.24729 3.09814 5.97596C3.09814 6.70463 3.6889 7.2954 4.41772 7.2954C5.14654 7.2954 5.7373 6.70463 5.7373 5.97596C5.7373 5.24729 5.14654 4.65652 4.41772 4.65652Z" fill="white"/>
</svg>
