<svg width="16" height="16" viewBox="0 0 16 16" fill="none" xmlns="http://www.w3.org/2000/svg">
<path fill-rule="evenodd" clip-rule="evenodd" d="M6.97576 4.7087C6.97576 2.93262 8.48299 1.5 10.3248 1.5C12.1742 1.5 13.6877 2.93262 13.6877 4.7087C13.6877 5.3892 13.4639 6.02381 13.0832 6.54415C13.3809 6.70254 13.6654 6.88972 13.9239 7.10685C14.1825 7.32397 14.5424 7.74323 14.5424 7.74323C15.1281 8.47803 15.4943 9.42291 15.4943 10.5567V11.7424C15.5196 11.7473 15.4526 12.5998 15.4526 12.5998C13.6236 14.2309 9.49162 15.8986 5.21782 12.6065L5.21562 12.6044L5.21093 12.5998C3.7178 12.856 2.46123 12.6679 0.777931 11.528C0.771785 11.5229 0.765491 11.5177 0.759083 11.5124C0.648156 11.421 0.503157 11.3014 0.5 11.1194V9.80644C0.5 8.46989 1.2045 7.47711 2.15371 6.91928C1.91717 6.55468 1.77848 6.1264 1.77848 5.66662C1.77848 4.33776 2.91258 3.26177 4.28681 3.26177C5.66102 3.26177 6.79513 4.33776 6.79513 5.66662C6.79513 6.1264 6.65643 6.55468 6.4199 6.91928C6.42799 6.92397 6.43607 6.92863 6.44413 6.93329C6.5433 6.99059 6.63988 7.04639 6.73258 7.11356C6.99242 6.89418 7.27337 6.70422 7.57333 6.54415C7.19337 6.02381 6.97576 5.38919 6.97576 4.7087ZM12.7984 4.7087C12.7984 3.39851 11.7015 2.35744 10.3248 2.35744C8.9582 2.35744 7.86514 3.39851 7.86514 4.7087C7.86514 6.00917 8.9598 7.06666 10.3248 7.06666C11.6552 7.04756 12.7136 6.06585 12.7984 4.7087ZM5.90575 5.66662C5.90575 4.80305 5.18669 4.11921 4.28681 4.11921C3.38691 4.11921 2.66785 4.80305 2.66785 5.66662C2.68244 6.6067 3.37844 7.14728 4.28681 7.20063C5.18669 7.20063 5.90575 6.51995 5.90575 5.66662ZM10.3248 7.92408C9.52028 7.92408 8.78532 7.64396 8.20561 7.18723C6.95579 7.75901 6.05166 8.83768 6.05166 10.5568V12.1712C8.96858 14.0837 11.7209 14.0806 14.6049 12.1845V10.5567C14.6049 8.84416 13.7006 7.76308 12.4579 7.19394C11.8773 7.64919 11.1312 7.92408 10.3248 7.92408ZM6.09181 7.73492C6.00074 7.67387 5.90918 7.61248 5.80846 7.56235C5.38516 7.87225 4.85663 8.05806 4.28681 8.05806C3.72043 8.05806 3.1941 7.87557 2.77209 7.56906C1.9628 7.96355 1.38938 8.66609 1.38938 9.80644V10.8916C2.68159 11.7185 3.90773 11.9878 5.16228 11.7357V10.5567C5.16228 9.42452 5.53153 8.48378 6.11418 7.74991C6.10672 7.74492 6.09927 7.73993 6.09181 7.73492Z" fill="white"/>
</svg>
