<svg width="16" height="16" viewBox="0 0 16 16" fill="none" xmlns="http://www.w3.org/2000/svg">
<path fill-rule="evenodd" clip-rule="evenodd" d="M8 14.25C11.4518 14.25 14.25 11.4518 14.25 8C14.25 4.54822 11.4518 1.75 8 1.75C4.54822 1.75 1.75 4.54822 1.75 8C1.75 11.4518 4.54822 14.25 8 14.25ZM8 15C11.866 15 15 11.866 15 8C15 4.13401 11.866 1 8 1C4.13401 1 1 4.13401 1 8C1 11.866 4.13401 15 8 15Z" fill="white"/>
<path d="M4.66669 8.00008C4.66669 8.36827 4.96516 8.66675 5.33335 8.66675H10.6667C11.0349 8.66675 11.3334 8.36827 11.3334 8.00008C11.3334 7.63189 11.0349 7.33341 10.6667 7.33341H5.33335C4.96516 7.33341 4.66669 7.63189 4.66669 8.00008Z" fill="white"/>
</svg>
