<svg width="16" height="16" viewBox="0 0 16 16" fill="none" xmlns="http://www.w3.org/2000/svg">
<path d="M12.8682 2L13 4.81416H12.6661C12.6016 4.31858 12.5138 3.9646 12.4025 3.75221C12.2209 3.41003 11.9777 3.15929 11.6731 3C11.3743 2.83481 10.9789 2.75221 10.4868 2.75221H8.80844V11.9204C8.80844 12.6578 8.88752 13.118 9.04569 13.3009C9.26831 13.5487 9.61101 13.6726 10.0738 13.6726H10.4868V14H5.43409V13.6726H5.85589C6.3597 13.6726 6.71705 13.5192 6.92794 13.2124C7.05682 13.0236 7.12127 12.5929 7.12127 11.9204V2.75221H5.68893C5.1324 2.75221 4.73697 2.79351 4.50264 2.87611C4.19801 2.9882 3.93732 3.20354 3.72056 3.52212C3.50381 3.84071 3.37493 4.27139 3.33392 4.81416H3L3.1406 2H12.8682Z" fill="white"/>
</svg>
