<svg width="16" height="16" viewBox="0 0 16 16" fill="none" xmlns="http://www.w3.org/2000/svg">
<path fill-rule="evenodd" clip-rule="evenodd" d="M6 3C6.74028 3 7.38663 3.4022 7.73244 4H11C11.5523 4 12 4.44772 12 5C12 5.55228 11.5523 6 11 6H7.73244C7.38663 6.5978 6.74028 7 6 7C4.89543 7 4 6.10457 4 5C4 3.89543 4.89543 3 6 3ZM8 5C8 5.17265 7.97812 5.34019 7.93699 5.5H11C11.2761 5.5 11.5 5.27614 11.5 5C11.5 4.72386 11.2761 4.5 11 4.5H7.93699C7.97812 4.65981 8 4.82735 8 5Z" fill="white"/>
<path d="M3 6.5C3 6.22386 2.77614 6 2.5 6C2.22386 6 2 6.22386 2 6.5V9.5C2 9.77614 2.22386 10 2.5 10C2.77614 10 3 9.77614 3 9.5L3 6.5Z" fill="white"/>
<path d="M14 6.5C14 6.22386 13.7761 6 13.5 6C13.2239 6 13 6.22386 13 6.5V9.5C13 9.77614 13.2239 10 13.5 10C13.7761 10 14 9.77614 14 9.5V6.5Z" fill="white"/>
<path fill-rule="evenodd" clip-rule="evenodd" d="M8.26756 10L5 10C4.44772 10 4 10.4477 4 11C4 11.5523 4.44772 12 5 12L8.26756 12C8.61337 12.5978 9.25972 13 10 13C11.1046 13 12 12.1046 12 11C12 9.89543 11.1046 9 10 9C9.25972 9 8.61337 9.4022 8.26756 10ZM8.06301 10.5C8.02188 10.6598 8 10.8273 8 11C8 11.1726 8.02188 11.3402 8.06301 11.5L5 11.5C4.72386 11.5 4.5 11.2761 4.5 11C4.5 10.7239 4.72386 10.5 5 10.5L8.06301 10.5Z" fill="white"/>
</svg>
