<svg width="16" height="16" viewBox="0 0 16 16" fill="none" xmlns="http://www.w3.org/2000/svg">
<path fill-rule="evenodd" clip-rule="evenodd" d="M4.58859 3.26316C3.87377 3.26316 3.2943 3.82869 3.2943 4.52632C3.2943 5.22394 3.87377 5.78947 4.58859 5.78947C5.30341 5.78947 5.88289 5.22394 5.88289 4.52632C5.88289 3.82869 5.30341 3.26316 4.58859 3.26316ZM2 4.52632C2 3.13107 3.15895 2 4.58859 2C6.01823 2 7.17719 3.13107 7.17719 4.52632C7.17719 5.92156 6.01823 7.05263 4.58859 7.05263C3.15895 7.05263 2 5.92156 2 4.52632ZM13.6209 3.29025C13.8736 3.5369 13.8736 3.93679 13.6209 4.18344L3.4545 12.9985C3.20177 13.2451 2.79202 13.2451 2.53929 12.9985C2.28656 12.7518 2.28656 12.3519 2.53929 12.1053L12.7057 3.29025C12.9584 3.0436 13.3682 3.0436 13.6209 3.29025ZM11.4114 10.2105C10.6966 10.2105 10.1171 10.7761 10.1171 11.4737C10.1171 12.1713 10.6966 12.7368 11.4114 12.7368C12.1262 12.7368 12.7057 12.1713 12.7057 11.4737C12.7057 10.7761 12.1262 10.2105 11.4114 10.2105ZM8.82281 11.4737C8.82281 10.0784 9.98177 8.94737 11.4114 8.94737C12.841 8.94737 14 10.0784 14 11.4737C14 12.8689 12.841 14 11.4114 14C9.98177 14 8.82281 12.8689 8.82281 11.4737Z" fill="white"/>
</svg>
