<svg width="16" height="16" viewBox="0 0 16 16" fill="none" xmlns="http://www.w3.org/2000/svg">
<path fill-rule="evenodd" clip-rule="evenodd" d="M13.5 6C13.7761 6 14 6.22386 14 6.5L14 9.5C14 9.77614 13.7761 10 13.5 10C13.2239 10 13 9.77614 13 9.5L13 6.5C13 6.22386 13.2239 6 13.5 6Z" fill="white"/>
<path fill-rule="evenodd" clip-rule="evenodd" d="M2.5 6C2.77614 6 3 6.22386 3 6.5L3 9.5C3 9.77614 2.77614 10 2.5 10C2.22386 10 2 9.77614 2 9.5L2 6.5C2 6.22386 2.22386 6 2.5 6Z" fill="white"/>
<path d="M8 5C8 6.10457 7.10457 7 6 7C4.89543 7 4 6.10457 4 5C4 3.89543 4.89543 3 6 3C7.10457 3 8 3.89543 8 5Z" fill="white"/>
<path d="M8 11C8 9.89543 8.89543 9 10 9C11.1046 9 12 9.89543 12 11C12 12.1046 11.1046 13 10 13C8.89543 13 8 12.1046 8 11Z" fill="white"/>
<path fill-rule="evenodd" clip-rule="evenodd" d="M11 4.5H6C5.72386 4.5 5.5 4.72386 5.5 5C5.5 5.27614 5.72386 5.5 6 5.5H11C11.2761 5.5 11.5 5.27614 11.5 5C11.5 4.72386 11.2761 4.5 11 4.5ZM6 4C5.44772 4 5 4.44772 5 5C5 5.55228 5.44772 6 6 6H11C11.5523 6 12 5.55228 12 5C12 4.44772 11.5523 4 11 4H6Z" fill="white"/>
<path fill-rule="evenodd" clip-rule="evenodd" d="M5 11.5L10 11.5C10.2761 11.5 10.5 11.2761 10.5 11C10.5 10.7239 10.2761 10.5 10 10.5L5 10.5C4.72386 10.5 4.5 10.7239 4.5 11C4.5 11.2761 4.72386 11.5 5 11.5ZM10 12C10.5523 12 11 11.5523 11 11C11 10.4477 10.5523 10 10 10L5 10C4.44772 10 4 10.4477 4 11C4 11.5523 4.44772 12 5 12L10 12Z" fill="white"/>
</svg>
