<svg width="16" height="16" viewBox="0 0 16 16" fill="none" xmlns="http://www.w3.org/2000/svg">
<path fill-rule="evenodd" clip-rule="evenodd" d="M5.75 6.5C6.7165 6.5 7.5 5.7165 7.5 4.75C7.5 3.7835 6.7165 3 5.75 3C4.7835 3 4 3.7835 4 4.75C4 5.7165 4.7835 6.5 5.75 6.5ZM5.75 6C6.44036 6 7 5.44036 7 4.75C7 4.05964 6.44036 3.5 5.75 3.5C5.05964 3.5 4.5 4.05964 4.5 4.75C4.5 5.44036 5.05964 6 5.75 6Z" fill="white"/>
<path d="M3 6.5C3 6.22386 2.77614 6 2.5 6C2.22386 6 2 6.22386 2 6.5V9.5C2 9.77614 2.22386 10 2.5 10C2.77614 10 3 9.77614 3 9.5L3 6.5Z" fill="white"/>
<path d="M14 6.5C14 6.22386 13.7761 6 13.5 6C13.2239 6 13 6.22386 13 6.5V9.5C13 9.77614 13.2239 10 13.5 10C13.7761 10 14 9.77614 14 9.5V6.5Z" fill="white"/>
<path fill-rule="evenodd" clip-rule="evenodd" d="M9 4C9 3.44772 9.44772 3 10 3H11.5C12.0523 3 12.5 3.44772 12.5 4V5.5C12.5 6.05228 12.0523 6.5 11.5 6.5H10C9.44772 6.5 9 6.05228 9 5.5V4ZM10 3.5H11.5C11.7761 3.5 12 3.72386 12 4V5.5C12 5.77614 11.7761 6 11.5 6H10C9.72386 6 9.5 5.77614 9.5 5.5V4C9.5 3.72386 9.72386 3.5 10 3.5Z" fill="white"/>
<path fill-rule="evenodd" clip-rule="evenodd" d="M10.933 8.94995C10.7405 8.61662 10.2594 8.61662 10.067 8.94995L8.76793 11.2C8.57548 11.5333 8.81604 11.95 9.20094 11.95H11.799C12.1839 11.95 12.4245 11.5333 12.232 11.2L10.933 8.94995ZM11.799 11.45L10.5 9.19995L9.20094 11.45H11.799Z" fill="white"/>
<path fill-rule="evenodd" clip-rule="evenodd" d="M5.70602 8.61344C5.88126 8.48611 6.11856 8.48611 6.2938 8.61344L7.60813 9.56835C7.78337 9.69567 7.8567 9.92136 7.78976 10.1274L7.28774 11.6725C7.2208 11.8785 7.02882 12.0179 6.81221 12.0179H5.18761C4.971 12.0179 4.77902 11.8785 4.71208 11.6725L4.21005 10.1274C4.14312 9.92136 4.21644 9.69567 4.39169 9.56835L5.70602 8.61344ZM5.99991 9.01794L7.31424 9.97286L6.81221 11.5179H5.18761L4.68558 9.97286L5.99991 9.01794Z" fill="white"/>
</svg>
