<svg width="16" height="16" viewBox="0 0 16 16" fill="none" xmlns="http://www.w3.org/2000/svg">
<path fill-rule="evenodd" clip-rule="evenodd" d="M1 4.59091C1 3.71227 1.68556 3 2.53125 3H13.4688C14.3144 3 15 3.71227 15 4.59091V11.4091C15 12.2877 14.3144 13 13.4688 13H2.53125C1.68556 13 1 12.2877 1 11.4091V4.59091ZM2.53125 3.90909C2.16881 3.90909 1.875 4.21435 1.875 4.59091V11.4091C1.875 11.7856 2.16881 12.0909 2.53125 12.0909H13.4688C13.8312 12.0909 14.125 11.7856 14.125 11.4091V4.59091C14.125 4.21435 13.8312 3.90909 13.4688 3.90909H2.53125Z" fill="white"/>
<path fill-rule="evenodd" clip-rule="evenodd" d="M8.83029 5.66667C7.58093 5.66667 6.55556 6.70431 6.55556 8C6.55556 9.29569 7.58093 10.3333 8.83029 10.3333C9.45264 10.3333 10.0173 10.0773 10.4293 9.6595C10.5586 9.52843 10.7697 9.52697 10.9007 9.65624C11.0318 9.78551 11.0333 9.99656 10.904 10.1276C10.3734 10.6656 9.64041 11 8.83029 11C7.19886 11 5.88889 9.64983 5.88889 8C5.88889 6.35017 7.19886 5 8.83029 5C9.64041 5 10.3734 5.33437 10.904 5.87237C11.0333 6.00344 11.0318 6.21449 10.9007 6.34376C10.7697 6.47303 10.5586 6.47157 10.4293 6.3405C10.0173 5.9227 9.45264 5.66667 8.83029 5.66667Z" fill="white"/>
<path fill-rule="evenodd" clip-rule="evenodd" d="M5 7.33333C5 7.14924 5.14924 7 5.33333 7H8.44444C8.62854 7 8.77778 7.14924 8.77778 7.33333C8.77778 7.51743 8.62854 7.66667 8.44444 7.66667H5.33333C5.14924 7.66667 5 7.51743 5 7.33333Z" fill="white"/>
<path fill-rule="evenodd" clip-rule="evenodd" d="M5 8.66667C5 8.48257 5.14924 8.33333 5.33333 8.33333H8.44444C8.62854 8.33333 8.77778 8.48257 8.77778 8.66667C8.77778 8.85076 8.62854 9 8.44444 9H5.33333C5.14924 9 5 8.85076 5 8.66667Z" fill="white"/>
<path fill-rule="evenodd" clip-rule="evenodd" d="M8.83029 5.66667C7.58093 5.66667 6.55556 6.70431 6.55556 8C6.55556 9.29569 7.58093 10.3333 8.83029 10.3333C9.45264 10.3333 10.0173 10.0773 10.4293 9.6595C10.5586 9.52843 10.7697 9.52697 10.9007 9.65624C11.0318 9.78551 11.0333 9.99656 10.904 10.1276C10.3734 10.6656 9.64041 11 8.83029 11C7.19886 11 5.88889 9.64983 5.88889 8C5.88889 6.35017 7.19886 5 8.83029 5C9.64041 5 10.3734 5.33437 10.904 5.87237C11.0333 6.00344 11.0318 6.21449 10.9007 6.34376C10.7697 6.47303 10.5586 6.47157 10.4293 6.3405C10.0173 5.9227 9.45264 5.66667 8.83029 5.66667Z" fill="white"/>
<path fill-rule="evenodd" clip-rule="evenodd" d="M5 7.33333C5 7.14924 5.14924 7 5.33333 7H8.44444C8.62854 7 8.77778 7.14924 8.77778 7.33333C8.77778 7.51743 8.62854 7.66667 8.44444 7.66667H5.33333C5.14924 7.66667 5 7.51743 5 7.33333Z" fill="white"/>
<path fill-rule="evenodd" clip-rule="evenodd" d="M5 8.66667C5 8.48257 5.14924 8.33333 5.33333 8.33333H8.44444C8.62854 8.33333 8.77778 8.48257 8.77778 8.66667C8.77778 8.85076 8.62854 9 8.44444 9H5.33333C5.14924 9 5 8.85076 5 8.66667Z" fill="white"/>
</svg>
