<svg width="16" height="16" viewBox="0 0 16 16" fill="none" xmlns="http://www.w3.org/2000/svg">
<path d="M6.33709 7.875C6.33455 7.91634 6.33325 7.95802 6.33325 8C6.33325 8.04198 6.33455 8.08366 6.33709 8.125H7.5C7.77614 8.125 8 8.34886 8 8.625C8 8.90114 7.77614 9.125 7.5 9.125H6.67942C7.03942 9.65319 7.64583 10 8.33325 10C8.88567 10 9.38499 9.77669 9.74747 9.41421C9.94273 9.21895 10.2593 9.21895 10.4546 9.41421C10.6498 9.60948 10.6498 9.92606 10.4546 10.1213C9.91223 10.6637 9.16154 11 8.33325 11C7.07424 11 5.99636 10.2244 5.55132 9.125H5C4.72386 9.125 4.5 8.90114 4.5 8.625C4.5 8.34886 4.72386 8.125 5 8.125H5.33581C5.33411 8.08354 5.33325 8.04187 5.33325 8C5.33325 7.95813 5.33411 7.91646 5.33581 7.875H5C4.72386 7.875 4.5 7.65114 4.5 7.375C4.5 7.09886 4.72386 6.875 5 6.875H5.55132C5.99636 5.77556 7.07424 5 8.33325 5C9.16154 5 9.91223 5.33633 10.4546 5.87868C10.6498 6.07394 10.6498 6.39052 10.4546 6.58579C10.2593 6.78105 9.94273 6.78105 9.74747 6.58579C9.38499 6.22331 8.88568 6 8.33325 6C7.64583 6 7.03942 6.34681 6.67942 6.875H7.5C7.77614 6.875 8 7.09886 8 7.375C8 7.65114 7.77614 7.875 7.5 7.875H6.33709Z" fill="white"/>
<path fill-rule="evenodd" clip-rule="evenodd" d="M1 4.5C1 3.67157 1.67157 3 2.5 3H13.5C14.3284 3 15 3.67157 15 4.5V11.5C15 12.3284 14.3284 13 13.5 13H2.5C1.67157 13 1 12.3284 1 11.5V4.5ZM2.5 4C2.22386 4 2 4.22386 2 4.5V11.5C2 11.7761 2.22386 12 2.5 12H13.5C13.7761 12 14 11.7761 14 11.5V4.5C14 4.22386 13.7761 4 13.5 4H2.5Z" fill="white"/>
</svg>
