<svg width="16" height="16" viewBox="0 0 16 16" fill="none" xmlns="http://www.w3.org/2000/svg">
<path fill-rule="evenodd" clip-rule="evenodd" d="M4.5 2.83333C3.57953 2.83333 2.83333 3.57953 2.83333 4.5C2.83333 5.42047 3.57953 6.16667 4.5 6.16667C5.42047 6.16667 6.16667 5.42047 6.16667 4.5C6.16667 3.57953 5.42047 2.83333 4.5 2.83333ZM2 4.5C2 3.11929 3.11929 2 4.5 2C5.88071 2 7 3.11929 7 4.5C7 5.88071 5.88071 7 4.5 7C3.11929 7 2 5.88071 2 4.5Z" fill="white"/>
<path fill-rule="evenodd" clip-rule="evenodd" d="M9 3.45833C9 2.65292 9.65292 2 10.4583 2H12.5417C13.3471 2 14 2.65292 14 3.45833V5.54167C14 6.34708 13.3471 7 12.5417 7H10.4583C9.65292 7 9 6.34708 9 5.54167V3.45833ZM10.4583 2.83333C10.1132 2.83333 9.83333 3.11316 9.83333 3.45833V5.54167C9.83333 5.88684 10.1132 6.16667 10.4583 6.16667H12.5417C12.8868 6.16667 13.1667 5.88684 13.1667 5.54167V3.45833C13.1667 3.11316 12.8868 2.83333 12.5417 2.83333H10.4583Z" fill="white"/>
<path fill-rule="evenodd" clip-rule="evenodd" d="M2 10.4583C2 9.65292 2.65292 9 3.45833 9H5.54167C6.34708 9 7 9.65292 7 10.4583V12.5417C7 13.3471 6.34708 14 5.54167 14H3.45833C2.65292 14 2 13.3471 2 12.5417V10.4583ZM3.45833 9.83333C3.11316 9.83333 2.83333 10.1132 2.83333 10.4583V12.5417C2.83333 12.8868 3.11316 13.1667 3.45833 13.1667H5.54167C5.88684 13.1667 6.16667 12.8868 6.16667 12.5417V10.4583C6.16667 10.1132 5.88684 9.83333 5.54167 9.83333H3.45833Z" fill="white"/>
<path fill-rule="evenodd" clip-rule="evenodd" d="M10.9228 9.33498C11.178 8.88834 11.822 8.88834 12.0772 9.33498L13.8638 12.8918C14.117 13.335 13.797 13.8864 13.2865 13.8864H9.61815C9.10768 13.8864 8.78766 13.335 9.04092 12.8918L10.9228 9.33498ZM11.5 10.1115L10 13H12.9047L11.5 10.1115Z" fill="white"/>
</svg>
