<svg width="16" height="16" viewBox="0 0 16 16" fill="none" xmlns="http://www.w3.org/2000/svg">
<path d="M6.01424 7.73077C5.91956 7.73077 5.84281 7.81342 5.84281 7.91538V8.46923C5.84281 8.57119 5.91956 8.65385 6.01424 8.65385H6.52852C6.6232 8.65385 6.69995 8.57119 6.69995 8.46923V7.91538C6.69995 7.81342 6.6232 7.73077 6.52852 7.73077H6.01424Z" fill="white"/>
<path d="M5.84281 9.76154C5.84281 9.65958 5.91956 9.57692 6.01424 9.57692H6.52852C6.6232 9.57692 6.69995 9.65958 6.69995 9.76154V10.3154C6.69995 10.4173 6.6232 10.5 6.52852 10.5H6.01424C5.91956 10.5 5.84281 10.4173 5.84281 10.3154V9.76154Z" fill="white"/>
<path d="M7.55709 7.91538C7.55709 7.81342 7.63384 7.73077 7.72852 7.73077H8.24281C8.33749 7.73077 8.41424 7.81342 8.41424 7.91538V8.46923C8.41424 8.57119 8.33749 8.65385 8.24281 8.65385H7.72852C7.63384 8.65385 7.55709 8.57119 7.55709 8.46923V7.91538Z" fill="white"/>
<path d="M7.55709 9.76154C7.55709 9.65958 7.63384 9.57692 7.72852 9.57692H8.24281C8.33749 9.57692 8.41424 9.65958 8.41424 9.76154V10.3154C8.41424 10.4173 8.33749 10.5 8.24281 10.5H7.72852C7.63384 10.5 7.55709 10.4173 7.55709 10.3154V9.76154Z" fill="white"/>
<path d="M9.19995 7.91538C9.19995 7.81342 9.2767 7.73077 9.37138 7.73077H9.88567C9.98034 7.73077 10.0571 7.81342 10.0571 7.91538V8.46923C10.0571 8.57119 9.98034 8.65385 9.88567 8.65385H9.37138C9.2767 8.65385 9.19995 8.57119 9.19995 8.46923V7.91538Z" fill="white"/>
<path d="M9.19995 9.76154C9.19995 9.65958 9.2767 9.57692 9.37138 9.57692H9.88567C9.98034 9.57692 10.0571 9.65958 10.0571 9.76154V10.3154C10.0571 10.4173 9.98034 10.5 9.88567 10.5H9.37138C9.2767 10.5 9.19995 10.4173 9.19995 10.3154V9.76154Z" fill="white"/>
<path fill-rule="evenodd" clip-rule="evenodd" d="M9.77138 2.92308H6.12852V2.46154C6.12852 2.20664 5.93664 2 5.69995 2C5.46326 2 5.27138 2.20664 5.27138 2.46154V2.92308H4.98567C4.27559 2.92308 3.69995 3.54299 3.69995 4.30769V11.6154C3.69995 12.3801 4.27559 13 4.98567 13H10.9142C11.6243 13 12.2 12.3801 12.2 11.6154V4.30769C12.2 3.54299 11.6243 2.92308 10.9142 2.92308H10.6285V2.46154C10.6285 2.20664 10.4366 2 10.2 2C9.96326 2 9.77138 2.20664 9.77138 2.46154V2.92308ZM5.69995 4.76923C5.46326 4.76923 5.27138 4.56259 5.27138 4.30769V3.84615H4.98567C4.74897 3.84615 4.55709 4.05279 4.55709 4.30769V5.69231H11.3428V4.30769C11.3428 4.05279 11.1509 3.84615 10.9142 3.84615H10.6285V4.30769C10.6285 4.56259 10.4366 4.76923 10.2 4.76923C9.96326 4.76923 9.77138 4.56259 9.77138 4.30769V3.84615H6.12852V4.30769C6.12852 4.56259 5.93664 4.76923 5.69995 4.76923ZM4.55709 6.61538H11.3428V11.6154C11.3428 11.8703 11.1509 12.0769 10.9142 12.0769H4.98567C4.74897 12.0769 4.55709 11.8703 4.55709 11.6154V6.61538Z" fill="white"/>
<path d="M13.5 6C13.7761 6 14 6.22386 14 6.5V9.5C14 9.77614 13.7761 10 13.5 10C13.2239 10 13 9.77614 13 9.5V6.5C13 6.22386 13.2239 6 13.5 6Z" fill="white"/>
<path d="M3 6.5C3 6.22386 2.77614 6 2.5 6C2.22386 6 2 6.22386 2 6.5V9.5C2 9.77614 2.22386 10 2.5 10C2.77614 10 3 9.77614 3 9.5L3 6.5Z" fill="white"/>
</svg>
