<svg width="16" height="16" viewBox="0 0 16 16" fill="none" xmlns="http://www.w3.org/2000/svg">
<path d="M4.5 8.6C4.5 8.54477 4.54477 8.5 4.6 8.5H5.4C5.45523 8.5 5.5 8.54477 5.5 8.6V9.4C5.5 9.45523 5.45523 9.5 5.4 9.5H4.6C4.54477 9.5 4.5 9.45523 4.5 9.4V8.6Z" fill="white"/>
<path d="M4.6 10.5C4.54477 10.5 4.5 10.5448 4.5 10.6V11.4C4.5 11.4552 4.54477 11.5 4.6 11.5H5.4C5.45523 11.5 5.5 11.4552 5.5 11.4V10.6C5.5 10.5448 5.45523 10.5 5.4 10.5H4.6Z" fill="white"/>
<path d="M6.5 8.6C6.5 8.54477 6.54477 8.5 6.6 8.5H7.4C7.45523 8.5 7.5 8.54477 7.5 8.6V9.4C7.5 9.45523 7.45523 9.5 7.4 9.5H6.6C6.54477 9.5 6.5 9.45523 6.5 9.4V8.6Z" fill="white"/>
<path d="M6.6 10.5C6.54477 10.5 6.5 10.5448 6.5 10.6V11.4C6.5 11.4552 6.54477 11.5 6.6 11.5H7.4C7.45523 11.5 7.5 11.4552 7.5 11.4V10.6C7.5 10.5448 7.45523 10.5 7.4 10.5H6.6Z" fill="white"/>
<path d="M8.5 8.6C8.5 8.54477 8.54477 8.5 8.6 8.5H9.4C9.45523 8.5 9.5 8.54477 9.5 8.6V9.4C9.5 9.45523 9.45523 9.5 9.4 9.5H8.6C8.54477 9.5 8.5 9.45523 8.5 9.4V8.6Z" fill="white"/>
<path d="M8.6 10.5C8.54477 10.5 8.5 10.5448 8.5 10.6V11.4C8.5 11.4552 8.54477 11.5 8.6 11.5H9.4C9.45523 11.5 9.5 11.4552 9.5 11.4V10.6C9.5 10.5448 9.45523 10.5 9.4 10.5H8.6Z" fill="white"/>
<path d="M10.5 8.6C10.5 8.54477 10.5448 8.5 10.6 8.5H11.4C11.4552 8.5 11.5 8.54477 11.5 8.6V9.4C11.5 9.45523 11.4552 9.5 11.4 9.5H10.6C10.5448 9.5 10.5 9.45523 10.5 9.4V8.6Z" fill="white"/>
<path d="M10.6 10.5C10.5448 10.5 10.5 10.5448 10.5 10.6V11.4C10.5 11.4552 10.5448 11.5 10.6 11.5H11.4C11.4552 11.5 11.5 11.4552 11.5 11.4V10.6C11.5 10.5448 11.4552 10.5 11.4 10.5H10.6Z" fill="white"/>
<path fill-rule="evenodd" clip-rule="evenodd" d="M5 2C5.27614 2 5.5 2.22386 5.5 2.5V3H10.5V2.5C10.5 2.22386 10.7239 2 11 2C11.2761 2 11.5 2.22386 11.5 2.5V3H12.5C13.3284 3 14 3.67157 14 4.5V12.5C14 13.3284 13.3284 14 12.5 14H3.5C2.67157 14 2 13.3284 2 12.5V4.5C2 3.67157 2.67157 3 3.5 3H4.5V2.5C4.5 2.22386 4.72386 2 5 2ZM10.5 4V4.5C10.5 4.77614 10.7239 5 11 5C11.2761 5 11.5 4.77614 11.5 4.5V4H12.5C12.7761 4 13 4.22386 13 4.5V6.16479H3V4.5C3 4.22386 3.22386 4 3.5 4H4.5V4.5C4.5 4.77614 4.72386 5 5 5C5.27614 5 5.5 4.77614 5.5 4.5V4H10.5ZM3 7.16479H13V12.5C13 12.7761 12.7761 13 12.5 13H3.5C3.22386 13 3 12.7761 3 12.5V7.16479Z" fill="white"/>
</svg>
