<svg width="16" height="16" viewBox="0 0 16 16" fill="none" xmlns="http://www.w3.org/2000/svg">
<path fill-rule="evenodd" clip-rule="evenodd" d="M7 4.5C7 5.88071 5.88071 7 4.5 7C3.11929 7 2 5.88071 2 4.5C2 3.11929 3.11929 2 4.5 2C5.88071 2 7 3.11929 7 4.5ZM6 4.5C6 5.32843 5.32843 6 4.5 6C3.67157 6 3 5.32843 3 4.5C3 3.67157 3.67157 3 4.5 3C5.32843 3 6 3.67157 6 4.5Z" fill="white"/>
<path d="M13.8784 2.9232C14.0589 3.13219 14.0358 3.44793 13.8268 3.62842L2.82682 13.1284C2.61783 13.3089 2.30209 13.2858 2.1216 13.0768C1.9411 12.8678 1.96421 12.5521 2.1732 12.3716L13.1732 2.8716C13.3822 2.6911 13.6979 2.71421 13.8784 2.9232Z" fill="white"/>
<path fill-rule="evenodd" clip-rule="evenodd" d="M11.5 14C12.8807 14 14 12.8807 14 11.5C14 10.1193 12.8807 9 11.5 9C10.1193 9 9 10.1193 9 11.5C9 12.8807 10.1193 14 11.5 14ZM11.5 13C12.3284 13 13 12.3284 13 11.5C13 10.6716 12.3284 10 11.5 10C10.6716 10 10 10.6716 10 11.5C10 12.3284 10.6716 13 11.5 13Z" fill="white"/>
</svg>
