<svg width="16" height="16" viewBox="0 0 16 16" fill="none" xmlns="http://www.w3.org/2000/svg">
<path d="M4.00567 3.12539L2.85567 4.26539C2.66567 4.45539 2.34567 4.45539 2.14567 4.25539C1.95567 4.05539 1.95567 3.73539 2.15567 3.54539L4.15567 1.57539C4.29567 1.43539 4.51567 1.39539 4.69567 1.47539C4.88567 1.55539 5.00567 1.73539 5.00567 1.93539V6.85539C5.00567 7.13539 4.78567 7.35539 4.50567 7.35539C4.22567 7.35539 4.00567 7.13539 4.00567 6.85539V3.12539Z" fill="white"/>
<path d="M9.96577 3.57539C10.2258 3.66539 10.5058 3.51539 10.5958 3.25539C10.5958 3.24539 10.8858 2.43539 11.6558 2.43539C12.0658 2.43539 12.3058 2.69539 12.4058 2.93539C12.4458 3.02539 12.5458 3.35539 12.2958 3.58539L9.77577 5.96539C9.62577 6.10539 9.57577 6.32539 9.65577 6.51539C9.73577 6.70539 9.91577 6.82539 10.1158 6.82539H12.9458C13.2258 6.82539 13.4458 6.60539 13.4458 6.32539C13.4458 6.04539 13.2258 5.82539 12.9458 5.82539H11.3758L12.9758 4.31539C13.4458 3.87539 13.5858 3.19539 13.3358 2.56539C13.0558 1.87539 12.3958 1.43539 11.6558 1.43539C10.1758 1.43539 9.67577 2.87539 9.65577 2.93539C9.56577 3.20539 9.70577 3.48539 9.96577 3.57539Z" fill="white"/>
<path fill-rule="evenodd" clip-rule="evenodd" d="M12.7857 12.3054H13.5057C13.7857 12.3054 13.9957 12.5154 13.9957 12.7954C13.9957 13.0754 13.7757 13.2954 13.4957 13.2954H12.7757V14.0454C12.7757 14.3254 12.5557 14.5454 12.2757 14.5454C11.9957 14.5454 11.7757 14.3254 11.7757 14.0454V13.2954H9.57567C9.38567 13.2954 9.20567 13.1854 9.12567 13.0054C9.04567 12.8354 9.07567 12.6254 9.20567 12.4754L11.9057 9.33538C12.0357 9.17538 12.2657 9.12538 12.4557 9.19538C12.6557 9.26538 12.7857 9.45538 12.7857 9.66538V12.3054ZM10.6757 12.3054H11.7857V11.0154L10.6757 12.3054Z" fill="white"/>
<path d="M5.22562 11.5554L5.16562 11.6154L5.19562 11.6454C5.44562 11.8654 5.73562 12.2654 5.73562 12.9554C5.73562 14.0154 4.80562 14.5654 3.87562 14.5654C3.40562 14.5654 2.97562 14.4354 2.63562 14.1954C2.23562 13.8954 2.00562 13.4554 2.00562 12.9554C2.00562 12.6754 2.22562 12.4554 2.50562 12.4554C2.78562 12.4554 3.00562 12.6754 3.00562 12.9554C3.00562 13.4354 3.54562 13.5654 3.88562 13.5454C4.20562 13.5454 4.74562 13.4154 4.74562 12.9354C4.74562 12.6854 4.68562 12.4954 4.54562 12.3754C4.34562 12.2054 4.02562 12.1554 3.80562 12.1454C3.72562 12.1554 3.64562 12.1554 3.56562 12.1554C3.29562 12.1554 3.07562 11.9454 3.06562 11.6854C3.04562 11.4254 3.24562 11.1954 3.50562 11.1654C3.51535 11.1654 3.53351 11.1643 3.55804 11.1629C3.60911 11.16 3.68781 11.1554 3.77562 11.1554C4.09562 11.1354 4.33562 11.0454 4.45562 10.9054C4.56769 10.784 4.55765 10.6277 4.55583 10.5994L4.55562 10.5954C4.54562 10.4054 4.44562 10.1654 3.92562 10.1654C3.34562 10.1654 3.16562 10.5954 3.13562 10.6854C3.04562 10.9454 2.76562 11.0954 2.50562 11.0054C2.24562 10.9154 2.09562 10.6454 2.17562 10.3854C2.30562 9.96539 2.84562 9.16539 3.92562 9.16539C5.09562 9.16539 5.54562 9.97539 5.55562 10.5254C5.56562 10.5254 5.63562 11.0754 5.22562 11.5554Z" fill="white"/>
</svg>
