<svg width="16" height="16" viewBox="0 0 16 16" fill="none" xmlns="http://www.w3.org/2000/svg">
<path fill-rule="evenodd" clip-rule="evenodd" d="M8.55353 6.44444C7.72062 6.44444 7.03704 7.13621 7.03704 8C7.03704 8.86379 7.72062 9.55556 8.55353 9.55556C8.96843 9.55556 9.34485 9.38487 9.61956 9.10633C9.70574 9.01895 9.84644 9.01798 9.93382 9.10416C10.0212 9.19034 10.0222 9.33104 9.936 9.41842C9.58225 9.77709 9.09361 10 8.55353 10C7.4659 10 6.59259 9.09989 6.59259 8C6.59259 6.90011 7.4659 6 8.55353 6C9.09361 6 9.58225 6.22291 9.936 6.58158C10.0222 6.66896 10.0212 6.80966 9.93382 6.89584C9.84644 6.98202 9.70574 6.98105 9.61956 6.89367C9.34485 6.61513 8.96843 6.44444 8.55353 6.44444Z" fill="white"/>
<path fill-rule="evenodd" clip-rule="evenodd" d="M6 7.55556C6 7.43283 6.09949 7.33333 6.22222 7.33333H8.2963C8.41903 7.33333 8.51852 7.43283 8.51852 7.55556C8.51852 7.67829 8.41903 7.77778 8.2963 7.77778H6.22222C6.09949 7.77778 6 7.67829 6 7.55556Z" fill="white"/>
<path fill-rule="evenodd" clip-rule="evenodd" d="M6 8.44444C6 8.32171 6.09949 8.22222 6.22222 8.22222H8.2963C8.41903 8.22222 8.51852 8.32171 8.51852 8.44444C8.51852 8.56717 8.41903 8.66667 8.2963 8.66667H6.22222C6.09949 8.66667 6 8.56717 6 8.44444Z" fill="white"/>
<path fill-rule="evenodd" clip-rule="evenodd" d="M8.55353 6.44444C7.72062 6.44444 7.03704 7.13621 7.03704 8C7.03704 8.86379 7.72062 9.55556 8.55353 9.55556C8.96843 9.55556 9.34485 9.38487 9.61956 9.10633C9.70574 9.01895 9.84644 9.01798 9.93382 9.10416C10.0212 9.19034 10.0222 9.33104 9.936 9.41842C9.58225 9.77709 9.09361 10 8.55353 10C7.4659 10 6.59259 9.09989 6.59259 8C6.59259 6.90011 7.4659 6 8.55353 6C9.09361 6 9.58225 6.22291 9.936 6.58158C10.0222 6.66896 10.0212 6.80966 9.93382 6.89584C9.84644 6.98202 9.70574 6.98105 9.61956 6.89367C9.34485 6.61513 8.96843 6.44444 8.55353 6.44444Z" fill="white"/>
<path fill-rule="evenodd" clip-rule="evenodd" d="M6 7.55556C6 7.43283 6.09949 7.33333 6.22222 7.33333H8.2963C8.41903 7.33333 8.51852 7.43283 8.51852 7.55556C8.51852 7.67829 8.41903 7.77778 8.2963 7.77778H6.22222C6.09949 7.77778 6 7.67829 6 7.55556Z" fill="white"/>
<path fill-rule="evenodd" clip-rule="evenodd" d="M6 8.44444C6 8.32171 6.09949 8.22222 6.22222 8.22222H8.2963C8.41903 8.22222 8.51852 8.32171 8.51852 8.44444C8.51852 8.56717 8.41903 8.66667 8.2963 8.66667H6.22222C6.09949 8.66667 6 8.56717 6 8.44444Z" fill="white"/>
<path fill-rule="evenodd" clip-rule="evenodd" d="M13.5 6C13.7761 6 14 6.22386 14 6.5L14 9.5C14 9.77614 13.7761 10 13.5 10C13.2239 10 13 9.77614 13 9.5L13 6.5C13 6.22386 13.2239 6 13.5 6Z" fill="white"/>
<path fill-rule="evenodd" clip-rule="evenodd" d="M2.5 6C2.77614 6 3 6.22386 3 6.5L3 9.5C3 9.77614 2.77614 10 2.5 10C2.22386 10 2 9.77614 2 9.5L2 6.5C2 6.22386 2.22386 6 2.5 6Z" fill="white"/>
<path fill-rule="evenodd" clip-rule="evenodd" d="M10 5H6C5.44772 5 5 5.44772 5 6V10C5 10.5523 5.44772 11 6 11H10C10.5523 11 11 10.5523 11 10V6C11 5.44772 10.5523 5 10 5ZM6 4C4.89543 4 4 4.89543 4 6V10C4 11.1046 4.89543 12 6 12H10C11.1046 12 12 11.1046 12 10V6C12 4.89543 11.1046 4 10 4H6Z" fill="white"/>
</svg>
