<svg width="16" height="16" viewBox="0 0 16 16" fill="none" xmlns="http://www.w3.org/2000/svg">
<path fill-rule="evenodd" clip-rule="evenodd" d="M4 1C2.34315 1 1 2.34315 1 4C1 5.65685 2.34315 7 4 7C5.65685 7 7 5.65685 7 4C7 2.34315 5.65685 1 4 1ZM2 4C2 2.89543 2.89543 2 4 2C5.10457 2 6 2.89543 6 4C6 5.10457 5.10457 6 4 6C2.89543 6 2 5.10457 2 4Z" fill="white"/>
<path fill-rule="evenodd" clip-rule="evenodd" d="M10.5 1C9.67157 1 9 1.67157 9 2.5V5.5C9 6.32843 9.67157 7 10.5 7H13.5C14.3284 7 15 6.32843 15 5.5V2.5C15 1.67157 14.3284 1 13.5 1H10.5ZM10 2.5C10 2.22386 10.2239 2 10.5 2H13.5C13.7761 2 14 2.22386 14 2.5V5.5C14 5.77614 13.7761 6 13.5 6H10.5C10.2239 6 10 5.77614 10 5.5V2.5Z" fill="white"/>
<path fill-rule="evenodd" clip-rule="evenodd" d="M1 10.5C1 9.67157 1.67157 9 2.5 9H5.5C6.32843 9 7 9.67157 7 10.5V13.5C7 14.3284 6.32843 15 5.5 15H2.5C1.67157 15 1 14.3284 1 13.5V10.5ZM2.5 10C2.22386 10 2 10.2239 2 10.5V13.5C2 13.7761 2.22386 14 2.5 14H5.5C5.77614 14 6 13.7761 6 13.5V10.5C6 10.2239 5.77614 10 5.5 10H2.5Z" fill="white"/>
<path fill-rule="evenodd" clip-rule="evenodd" d="M12.4472 9.27639C12.3625 9.107 12.1894 9 12 9C11.8106 9 11.6375 9.107 11.5528 9.27639L9.05279 14.2764C8.97529 14.4314 8.98357 14.6155 9.07468 14.7629C9.16578 14.9103 9.32671 15 9.5 15H14.5C14.6733 15 14.8342 14.9103 14.9253 14.7629C15.0164 14.6155 15.0247 14.4314 14.9472 14.2764L12.4472 9.27639ZM12 10.618L13.691 14H10.309L12 10.618Z" fill="white"/>
</svg>
