<svg width="16" height="16" viewBox="0 0 16 16" fill="none" xmlns="http://www.w3.org/2000/svg">
<path d="M12 5.5C12 5.77614 11.7761 6 11.5 6H7.91465C7.70873 6.5826 7.15311 7 6.5 7C5.84689 7 5.29127 6.5826 5.08535 6H4.5C4.22386 6 4 5.77614 4 5.5C4 5.22386 4.22386 5 4.5 5H5.08535C5.29127 4.4174 5.84689 4 6.5 4C7.15311 4 7.70873 4.4174 7.91465 5H11.5C11.7761 5 12 5.22386 12 5.5Z" fill="white"/>
<path d="M11.5 11C11.7761 11 12 10.7761 12 10.5C12 10.2239 11.7761 10 11.5 10H10.9146C10.7087 9.4174 10.1531 9 9.5 9C8.84689 9 8.29127 9.4174 8.08535 10H4.5C4.22386 10 4 10.2239 4 10.5C4 10.7761 4.22386 11 4.5 11H8.08535C8.29127 11.5826 8.84689 12 9.5 12C10.1531 12 10.7087 11.5826 10.9146 11H11.5Z" fill="white"/>
</svg>
