<svg width="16" height="16" viewBox="0 0 16 16" fill="none" xmlns="http://www.w3.org/2000/svg">
<path fill-rule="evenodd" clip-rule="evenodd" d="M6.63574 0.999878C6.3596 0.999878 6.13574 1.22374 6.13574 1.49988C6.13574 1.77602 6.3596 1.99988 6.63574 1.99988H7.64811L6.68145 2.96655C6.13527 2.56632 5.46146 2.32999 4.73245 2.32999C2.90946 2.32999 1.43164 3.80781 1.43164 5.63079C1.43164 7.45378 2.90946 8.9316 4.73245 8.9316C6.55543 8.9316 8.03325 7.45378 8.03325 5.63079C8.03325 4.8976 7.7942 4.22025 7.38979 3.67241L8.35522 2.70699V3.71936C8.35522 3.9955 8.57908 4.21936 8.85522 4.21936C9.13136 4.21936 9.35522 3.9955 9.35522 3.71936V1.49988C9.35522 1.22374 9.13136 0.999878 8.85522 0.999878H6.63574ZM2.43164 5.63079C2.43164 4.36009 3.46175 3.32999 4.73245 3.32999C6.00315 3.32999 7.03325 4.36009 7.03325 5.63079C7.03325 6.90149 6.00315 7.9316 4.73245 7.9316C3.46175 7.9316 2.43164 6.90149 2.43164 5.63079Z" fill="white"/>
<path fill-rule="evenodd" clip-rule="evenodd" d="M11.7676 12.1614C13.3533 11.9205 14.5684 10.5513 14.5684 8.89825C14.5684 7.07526 13.0906 5.59744 11.2676 5.59744C9.44462 5.59744 7.9668 7.07526 7.9668 8.89825C7.9668 10.5513 9.18188 11.9205 10.7676 12.1614V12.5994H9.86719C9.59105 12.5994 9.36719 12.8232 9.36719 13.0994C9.36719 13.3755 9.59105 13.5994 9.86719 13.5994H10.7676V14.4998C10.7676 14.7759 10.9914 14.9998 11.2676 14.9998C11.5437 14.9998 11.7676 14.7759 11.7676 14.4998V13.5994H12.668C12.9441 13.5994 13.168 13.3755 13.168 13.0994C13.168 12.8232 12.9441 12.5994 12.668 12.5994H11.7676V12.1614ZM11.2676 6.59744C9.9969 6.59744 8.9668 7.62755 8.9668 8.89825C8.9668 10.1662 9.99244 11.1946 11.2593 11.199C11.2621 11.199 11.2648 11.199 11.2676 11.199C11.2703 11.199 11.2731 11.199 11.2758 11.199C12.5428 11.1946 13.5684 10.1662 13.5684 8.89825C13.5684 7.62755 12.5383 6.59744 11.2676 6.59744Z" fill="white"/>
</svg>
