<svg width="16" height="16" viewBox="0 0 16 16" fill="none" xmlns="http://www.w3.org/2000/svg">
<path fill-rule="evenodd" clip-rule="evenodd" d="M4.5 7C3.11929 7 2 5.88071 2 4.5C2 3.11929 3.11929 2 4.5 2C5.31791 2 6.04408 2.39278 6.50018 3H12.5C13.3284 3 14 3.67157 14 4.5C14 5.32843 13.3284 6 12.5 6H6.50018C6.04408 6.60722 5.31791 7 4.5 7ZM7 4.5C7 4.67123 6.98278 4.83844 6.94999 5H12.5C12.7761 5 13 4.77614 13 4.5C13 4.22386 12.7761 4 12.5 4H6.94999C6.98278 4.16156 7 4.32877 7 4.5Z" fill="white"/>
<path fill-rule="evenodd" clip-rule="evenodd" d="M9.49982 13C9.95592 13.6072 10.6821 14 11.5 14C12.8807 14 14 12.8807 14 11.5C14 10.1193 12.8807 9 11.5 9C10.6821 9 9.95592 9.39278 9.49982 10H3.5C2.67157 10 2 10.6716 2 11.5C2 12.3284 2.67157 13 3.5 13H9.49982ZM9.05001 12C9.01722 11.8384 9 11.6712 9 11.5C9 11.3288 9.01722 11.1616 9.05001 11H3.5C3.22386 11 3 11.2239 3 11.5C3 11.7761 3.22386 12 3.5 12H9.05001Z" fill="white"/>
</svg>
