<svg width="16" height="16" viewBox="0 0 16 16" fill="none" xmlns="http://www.w3.org/2000/svg">
<path d="M10.01 3.49001C9.34995 3.49001 8.72995 3.75001 8.25995 4.22001L7.34995 5.13001C7.14995 5.33001 7.14995 5.64001 7.34995 5.84001C7.54995 6.04001 7.85995 6.04001 8.05995 5.84001L8.96995 4.93001C9.24995 4.64001 9.61995 4.49001 10.01 4.49001C10.81 4.49001 11.47 5.14001 11.47 5.95001C11.47 6.33001 11.31 6.69001 11.16 6.85001L10.11 7.89001C9.90995 8.09001 9.90995 8.40001 10.11 8.60001C10.21 8.70001 10.34 8.75001 10.46 8.75001C10.58 8.75001 10.72 8.70001 10.81 8.60001L11.86 7.54001C12.22 7.17001 12.45 6.54001 12.45 5.94001C12.47 4.59001 11.36 3.49001 10.01 3.49001Z" fill="white"/>
<path d="M2.5 5.90001C2.22 5.90001 2 6.13001 2 6.40001V9.40001C2 9.68001 2.22 9.90001 2.5 9.90001C2.78 9.90001 3 9.68001 3 9.40001V6.40001C3 6.13001 2.78 5.90001 2.5 5.90001Z" fill="white"/>
<path d="M13.5 5.90001C13.22 5.90001 13 6.12001 13 6.40001V9.40001C13 9.68001 13.22 9.90001 13.5 9.90001C13.78 9.90001 14 9.68001 14 9.40001V6.40001C14 6.13001 13.78 5.90001 13.5 5.90001Z" fill="white"/>
<path d="M6.94995 11.07L7.97995 10.04C8.16995 9.84001 8.48995 9.84001 8.68995 10.04C8.87995 10.24 8.87995 10.55 8.68995 10.75L7.65995 11.78C7.18995 12.25 6.56995 12.51 5.90995 12.51C4.54995 12.51 3.44995 11.4 3.44995 10.05C3.44995 9.39001 3.70995 8.76001 4.18995 8.30001L5.19995 7.28001C5.39995 7.09001 5.70995 7.09001 5.90995 7.28001C6.10995 7.48001 6.10995 7.79001 5.90995 7.99001L4.88995 9.01001C4.60995 9.29001 4.44995 9.66001 4.44995 10.05C4.44995 10.86 5.10995 11.51 5.90995 11.51C6.29995 11.51 6.66995 11.35 6.94995 11.07Z" fill="white"/>
<path d="M6.65 8.55001L8.65 6.55001C8.84 6.35001 9.15 6.34001 9.35 6.54001C9.55 6.74001 9.55 7.05001 9.35 7.25001L7.35 9.25001C7.26 9.35001 7.13 9.40001 7 9.40001C6.87 9.40001 6.74 9.35001 6.65 9.26001C6.45 9.06001 6.45 8.75001 6.65 8.55001Z" fill="white"/>
</svg>
