<svg width="16" height="16" viewBox="0 0 16 16" fill="none" xmlns="http://www.w3.org/2000/svg">
<path d="M8.80797 2V4.93182H10.7464V5.61364H8.80797V11.3994C8.80797 11.9773 8.88345 12.3669 9.03442 12.5682C9.19142 12.7695 9.3907 12.8701 9.63225 12.8701C9.83152 12.8701 10.0248 12.8052 10.212 12.6753C10.3992 12.539 10.5441 12.3409 10.6467 12.0812H11C10.7886 12.7175 10.4897 13.1981 10.1033 13.5227C9.71679 13.8409 9.31824 14 8.90761 14C8.62983 14 8.35809 13.9188 8.09239 13.7565C7.82669 13.5877 7.63043 13.3506 7.50362 13.0455C7.37681 12.7338 7.31341 12.2565 7.31341 11.6136V5.61364H6V5.29221C6.33213 5.14935 6.67029 4.90909 7.01449 4.57143C7.36473 4.22727 7.67572 3.82143 7.94746 3.3539C8.08635 3.10714 8.27959 2.65584 8.52717 2H8.80797Z" fill="white"/>
<path d="M13.5 6C13.7761 6 14 6.22386 14 6.5V9.5C14 9.77614 13.7761 10 13.5 10C13.2239 10 13 9.77614 13 9.5V6.5C13 6.22386 13.2239 6 13.5 6Z" fill="white"/>
<path d="M3 6.5C3 6.22386 2.77614 6 2.5 6C2.22386 6 2 6.22386 2 6.5V9.5C2 9.77614 2.22386 10 2.5 10C2.77614 10 3 9.77614 3 9.5L3 6.5Z" fill="white"/>
</svg>
