<svg width="16" height="16" viewBox="0 0 16 16" fill="none" xmlns="http://www.w3.org/2000/svg">
<path d="M5.24594 5.56778L5.23458 3.00019C4.76461 3.34659 4.45942 3.66101 4.29708 3.66101C4.21915 3.66101 4.15016 3.63136 4.09009 3.57207C4.03003 3.512 4 3.44334 4 3.36532C4 3.27482 4.03003 3.20773 4.08847 3.1656C4.14691 3.12347 5.46673 2.08037 5.49757 2.04838C5.52842 2.01639 5.58848 2 5.67533 2C5.77354 2 5.85228 2.03667 5.91153 2.10923C5.97078 2.18178 6 2.28243 6 2.41038V5.46402C6 5.82134 5.87337 6 5.62013 6C5.5073 6 5.41721 5.96333 5.34822 5.89077C5.27922 5.81822 5.24594 5.71055 5.24594 5.56778Z" fill="white"/>
<path d="M10.0066 5.3607H11.5322C11.6844 5.3607 11.7999 5.39005 11.8803 5.44716C11.9607 5.50427 12 5.58359 12 5.68273C12 5.77157 11.9684 5.84613 11.9051 5.90799C11.8418 5.96986 11.7452 6 11.6169 6H9.46522C9.31898 6 9.20524 5.96272 9.12314 5.88737C9.04105 5.81202 9 5.72398 9 5.62325C9 5.55821 9.02651 5.47174 9.07867 5.36387C9.1317 5.25679 10.6924 3.90839 10.7993 3.8021C10.9054 3.69661 10.9866 3.58794 11.0413 3.4769C11.0969 3.36585 11.1251 3.25719 11.1251 3.15011C11.1251 3.0343 11.0952 2.9312 11.0362 2.83998C10.9772 2.74877 10.8959 2.67738 10.7942 2.62662C10.6916 2.57585 10.5804 2.55047 10.4589 2.55047C10.2041 2.55047 10.0031 2.65438 9.8569 2.86219C9.83723 2.88916 9.80473 2.96292 9.75941 3.08428C9.71323 3.20564 9.66191 3.29844 9.60376 3.36348C9.54646 3.42852 9.4618 3.46104 9.35148 3.46104C9.25399 3.46104 9.1736 3.4309 9.10861 3.37141C9.04361 3.31192 9.01197 3.23022 9.01197 3.12711C9.01197 3.00258 9.0419 2.8725 9.10262 2.73686C9.16334 2.60123 9.25314 2.47829 9.37287 2.36804C9.49259 2.25779 9.64395 2.16895 9.82867 2.10153C10.0125 2.03332 10.228 2 10.4761 2C10.7745 2 11.0285 2.04363 11.2389 2.13008C11.3757 2.18798 11.4954 2.2673 11.5981 2.36883C11.7007 2.47035 11.7819 2.58696 11.8392 2.72021C11.8965 2.85267 11.9256 2.99068 11.9256 3.13345C11.9256 3.35792 11.8657 3.56177 11.746 3.74499C11.6254 3.92822 11.504 4.07178 11.3791 4.17569C11.2551 4.28118 10.0553 5.29248 10.0066 5.3607Z" fill="white"/>
<path d="M5.34953 10.5698C5.52872 10.5698 5.6839 10.5214 5.81423 10.4253C5.94455 10.3292 6.00972 10.1909 6.00972 10.0111C6.00972 9.87438 5.95741 9.75639 5.85452 9.65715C5.75078 9.55869 5.61102 9.50947 5.43526 9.50947C5.31608 9.50947 5.21835 9.5251 5.14032 9.55479C5.06316 9.58527 5.00229 9.62512 4.9577 9.67513C4.91312 9.72514 4.87025 9.78922 4.82995 9.86736C4.79051 9.9455 4.75364 10.0197 4.7202 10.0893C4.70048 10.1268 4.66533 10.1557 4.61474 10.1776C4.56416 10.1994 4.50587 10.2096 4.43899 10.2096C4.36097 10.2096 4.28894 10.1807 4.22378 10.1229C4.15776 10.0651 4.12517 9.98848 4.12517 9.89236C4.12517 9.79938 4.15604 9.70248 4.21777 9.59934C4.27865 9.49697 4.36868 9.40007 4.487 9.30708C4.60532 9.2141 4.75193 9.13986 4.92769 9.08438C5.10346 9.02812 5.29979 9 5.51671 9C5.7062 9 5.8794 9.02344 6.03544 9.07032C6.19149 9.11799 6.3278 9.18597 6.44269 9.27505C6.55758 9.36413 6.64504 9.46727 6.70334 9.58448C6.76164 9.70169 6.79165 9.82828 6.79165 9.96346C6.79165 10.1416 6.74963 10.294 6.66389 10.4214C6.57901 10.5487 6.45727 10.673 6.29951 10.7941C6.45213 10.8691 6.58073 10.9543 6.68534 11.0504C6.78994 11.1465 6.86795 11.2528 6.92111 11.37C6.97427 11.4864 7 11.6122 7 11.7474C7 11.9099 6.96399 12.0662 6.89283 12.2178C6.82166 12.3694 6.7162 12.5038 6.57816 12.6226C6.43927 12.7414 6.27464 12.8343 6.0843 12.9C5.89396 12.9672 5.68391 13 5.45328 13C5.21921 13 5.00829 12.9617 4.8231 12.8851C4.6379 12.8086 4.48443 12.7124 4.36439 12.5984C4.2435 12.4835 4.15347 12.3647 4.09174 12.2413C4.03086 12.1186 4 12.017 4 11.9365C4 11.8334 4.03687 11.7498 4.10975 11.6865C4.18349 11.6232 4.27436 11.5919 4.38411 11.5919C4.43898 11.5919 4.49128 11.6068 4.54272 11.6365C4.59331 11.6654 4.62676 11.7013 4.64219 11.7419C4.74422 11.9896 4.8531 12.1733 4.96885 12.2936C5.0846 12.4132 5.24835 12.4733 5.45927 12.4733C5.58016 12.4733 5.69677 12.446 5.80908 12.3921C5.9214 12.3382 6.014 12.2577 6.08773 12.1506C6.16061 12.0436 6.19748 11.9201 6.19748 11.7794C6.19748 11.5708 6.1349 11.4075 6.00972 11.2895C5.88454 11.1707 5.71049 11.1114 5.48843 11.1114C5.44985 11.1114 5.38897 11.1145 5.30666 11.1223C5.22435 11.1301 5.17205 11.1332 5.14804 11.1332C5.04087 11.1332 4.9577 11.109 4.89854 11.0598C4.84024 11.0105 4.81024 10.9426 4.81024 10.855C4.81024 10.7699 4.84539 10.7003 4.9157 10.648C4.986 10.5956 5.0906 10.5691 5.2295 10.5691H5.34953V10.5698Z" fill="white"/>
<path d="M10.7979 12.5978V12.1048H9.49393C9.32979 12.1048 9.20593 12.0668 9.12387 11.9909C9.0418 11.9149 9 11.8119 9 11.6809C9 11.6476 9.00608 11.6135 9.01824 11.5793C9.0304 11.5445 9.04863 11.5088 9.07294 11.4701C9.09726 11.4321 9.12233 11.3957 9.14817 11.36C9.17401 11.3244 9.20593 11.281 9.24392 11.2306L10.6208 9.35265C10.7112 9.22864 10.785 9.13951 10.8427 9.08371C10.9005 9.0279 10.9704 9 11.0517 9C11.3146 9 11.4468 9.15346 11.4468 9.46115V11.5119H11.5585C11.6915 11.5119 11.7986 11.5305 11.8792 11.5677C11.9597 11.6049 12 11.6863 12 11.8111C12 11.9134 11.9673 11.9886 11.9012 12.0351C11.8359 12.0816 11.7371 12.1048 11.6048 12.1048H11.4468V12.5978C11.4468 12.7334 11.4172 12.8349 11.3586 12.9008C11.2994 12.9675 11.2211 13 11.1223 13C11.0258 13 10.9476 12.9659 10.8868 12.8985C10.8275 12.8303 10.7979 12.7295 10.7979 12.5978ZM9.68086 11.5111H10.7979V9.9719L9.68086 11.5111Z" fill="white"/>
<path fill-rule="evenodd" clip-rule="evenodd" d="M13.5 6C13.7761 6 14 6.22386 14 6.5L14 9.5C14 9.77614 13.7761 10 13.5 10C13.2239 10 13 9.77614 13 9.5L13 6.5C13 6.22386 13.2239 6 13.5 6Z" fill="white"/>
<path fill-rule="evenodd" clip-rule="evenodd" d="M2.5 6C2.77614 6 3 6.22386 3 6.5L3 9.5C3 9.77614 2.77614 10 2.5 10C2.22386 10 2 9.77614 2 9.5L2 6.5C2 6.22386 2.22386 6 2.5 6Z" fill="white"/>
</svg>
