<svg width="16" height="16" viewBox="0 0 16 16" fill="none" xmlns="http://www.w3.org/2000/svg">
<path fill-rule="evenodd" clip-rule="evenodd" d="M13.5 6C13.7761 6 14 6.22386 14 6.5L14 9.5C14 9.77614 13.7761 10 13.5 10C13.2239 10 13 9.77614 13 9.5L13 6.5C13 6.22386 13.2239 6 13.5 6Z" fill="white"/>
<path fill-rule="evenodd" clip-rule="evenodd" d="M2.5 6C2.77614 6 3 6.22386 3 6.5L3 9.5C3 9.77614 2.77614 10 2.5 10C2.22386 10 2 9.77614 2 9.5L2 6.5C2 6.22386 2.22386 6 2.5 6Z" fill="white"/>
<path fill-rule="evenodd" clip-rule="evenodd" d="M5.75 5.75C6.30228 5.75 6.75 5.30228 6.75 4.75C6.75 4.19772 6.30228 3.75 5.75 3.75C5.19772 3.75 4.75 4.19772 4.75 4.75C4.75 5.30228 5.19772 5.75 5.75 5.75ZM5.75 6.5C6.7165 6.5 7.5 5.7165 7.5 4.75C7.5 3.7835 6.7165 3 5.75 3C4.7835 3 4 3.7835 4 4.75C4 5.7165 4.7835 6.5 5.75 6.5Z" fill="white"/>
<path fill-rule="evenodd" clip-rule="evenodd" d="M11.5 3.75H10C9.86193 3.75 9.75 3.86193 9.75 4V5.5C9.75 5.63807 9.86193 5.75 10 5.75H11.5C11.6381 5.75 11.75 5.63807 11.75 5.5V4C11.75 3.86193 11.6381 3.75 11.5 3.75ZM10 3C9.44772 3 9 3.44772 9 4V5.5C9 6.05228 9.44772 6.5 10 6.5H11.5C12.0523 6.5 12.5 6.05228 12.5 5.5V4C12.5 3.44772 12.0523 3 11.5 3H10Z" fill="white"/>
<path fill-rule="evenodd" clip-rule="evenodd" d="M10.5 9.69995L9.63395 11.2H11.366L10.5 9.69995ZM10.933 8.94995C10.7405 8.61662 10.2594 8.61662 10.067 8.94995L8.76793 11.2C8.57548 11.5333 8.81604 11.95 9.20094 11.95H11.799C12.1839 11.95 12.4245 11.5333 12.232 11.2L10.933 8.94995Z" fill="white"/>
<path fill-rule="evenodd" clip-rule="evenodd" d="M5.99997 9.32708L4.97953 10.0685L5.36931 11.2681H6.63063L7.02041 10.0685L5.99997 9.32708ZM6.29386 8.61356C6.11862 8.48624 5.88132 8.48624 5.70608 8.61356L4.39175 9.56847C4.21651 9.6958 4.14318 9.92148 4.21011 10.1275L4.71214 11.6726C4.77908 11.8786 4.97106 12.0181 5.18767 12.0181H6.81227C7.02888 12.0181 7.22086 11.8786 7.2878 11.6726L7.78983 10.1275C7.85676 9.92148 7.78343 9.6958 7.60819 9.56847L6.29386 8.61356Z" fill="white"/>
</svg>
