<svg width="16" height="16" viewBox="0 0 16 16" fill="none" xmlns="http://www.w3.org/2000/svg">
<path fill-rule="evenodd" clip-rule="evenodd" d="M13.5 5.93408C13.7761 5.93408 14 6.15794 14 6.43408V9.43408C14 9.71022 13.7761 9.93408 13.5 9.93408C13.2239 9.93408 13 9.71022 13 9.43408V6.43408C13 6.15794 13.2239 5.93408 13.5 5.93408Z" fill="white"/>
<path fill-rule="evenodd" clip-rule="evenodd" d="M2.5 5.93408C2.77614 5.93408 3 6.15794 3 6.43408V9.43408C3 9.71022 2.77614 9.93408 2.5 9.93408C2.22386 9.93408 2 9.71022 2 9.43408V6.43408C2 6.15794 2.22386 5.93408 2.5 5.93408Z" fill="white"/>
<path fill-rule="evenodd" clip-rule="evenodd" d="M8.26228 4.25261C8.70666 3.80264 9.32458 3.521 10.01 3.521C11.3683 3.521 12.467 4.62102 12.467 5.978C12.467 6.55697 12.2481 7.18695 11.876 7.57297L11.8696 7.57961L11.8696 7.57955C11.87 7.57913 11.8432 7.60606 11.7911 7.65853L11.5718 7.87897C11.385 8.06661 11.1231 8.32954 10.8218 8.63126C10.6267 8.82668 10.3102 8.82694 10.1147 8.63184C9.91932 8.43674 9.91905 8.12016 10.1142 7.92474C10.4149 7.62345 10.6765 7.36088 10.863 7.17352L11.1582 6.8767C11.3173 6.70967 11.467 6.3473 11.467 5.978C11.467 5.17297 10.8157 4.521 10.01 4.521C9.60409 4.521 9.23855 4.6868 8.97302 4.95607L8.97056 4.95856L8.97055 4.95855L8.06055 5.86855C7.86529 6.06381 7.54871 6.06381 7.35345 5.86855C7.15819 5.67329 7.15819 5.3567 7.35345 5.16144L8.26228 4.25261Z" fill="white"/>
<path fill-rule="evenodd" clip-rule="evenodd" d="M9.35355 6.58053C9.54882 6.77579 9.54882 7.09237 9.35355 7.28764L7.35355 9.28764C7.15829 9.4829 6.84171 9.4829 6.64645 9.28764C6.45118 9.09237 6.45118 8.77579 6.64645 8.58053L8.64645 6.58053C8.84171 6.38527 9.15829 6.38527 9.35355 6.58053Z" fill="white"/>
<path fill-rule="evenodd" clip-rule="evenodd" d="M7.71623 11.7474C7.27186 12.1974 6.65393 12.479 5.96851 12.479C4.61021 12.479 3.51151 11.379 3.51151 10.022C3.51151 9.44303 3.73046 8.81305 4.1025 8.42703L4.1089 8.42039L4.10896 8.42045C4.10854 8.42087 4.13529 8.39394 4.18746 8.34147L4.40676 8.12103C4.59352 7.93339 4.85545 7.67046 5.15667 7.36874C5.35177 7.17332 5.66835 7.17306 5.86377 7.36816C6.0592 7.56326 6.05946 7.87984 5.86436 8.07526C5.56358 8.37655 5.30201 8.63912 5.11552 8.82648L4.8203 9.1233C4.66117 9.29033 4.51151 9.6527 4.51151 10.022C4.51151 10.827 5.16282 11.479 5.96851 11.479C6.37443 11.479 6.73997 11.3132 7.0055 11.0439L7.00795 11.0414L7.00796 11.0415L7.91796 10.1315C8.11322 9.93619 8.42981 9.93619 8.62507 10.1315C8.82033 10.3267 8.82033 10.6433 8.62507 10.8386L7.71623 11.7474Z" fill="white"/>
</svg>
