<svg width="16" height="16" viewBox="0 0 16 16" fill="none" xmlns="http://www.w3.org/2000/svg">
<path fill-rule="evenodd" clip-rule="evenodd" d="M6 7C7.10457 7 8 6.10457 8 5C8 3.89543 7.10457 3 6 3C4.89543 3 4 3.89543 4 5C4 6.10457 4.89543 7 6 7ZM6 6C6.55228 6 7 5.55228 7 5C7 4.44772 6.55228 4 6 4C5.44772 4 5 4.44772 5 5C5 5.55228 5.44772 6 6 6Z" fill="white"/>
<path d="M4.64652 10.9394C4.45126 11.1346 4.45126 11.4512 4.64652 11.6465C4.84178 11.8417 5.15837 11.8417 5.35363 11.6465L11.6465 5.35357C11.8418 5.15831 11.8418 4.84172 11.6465 4.64646C11.4513 4.4512 11.1347 4.4512 10.9394 4.64646L4.64652 10.9394Z" fill="white"/>
<path d="M2.5 6C2.77614 6 3 6.22386 3 6.5L3 9.5C3 9.77614 2.77614 10 2.5 10C2.22386 10 2 9.77614 2 9.5V6.5C2 6.22386 2.22386 6 2.5 6Z" fill="white"/>
<path d="M13.5 6C13.7761 6 14 6.22386 14 6.5V9.5C14 9.77614 13.7761 10 13.5 10C13.2239 10 13 9.77614 13 9.5V6.5C13 6.22386 13.2239 6 13.5 6Z" fill="white"/>
<path fill-rule="evenodd" clip-rule="evenodd" d="M12 11C12 12.1046 11.1046 13 10 13C8.89543 13 8 12.1046 8 11C8 9.89543 8.89543 9 10 9C11.1046 9 12 9.89543 12 11ZM11 11C11 11.5523 10.5523 12 10 12C9.44772 12 9 11.5523 9 11C9 10.4477 9.44772 10 10 10C10.5523 10 11 10.4477 11 11Z" fill="white"/>
</svg>
