<svg width="16" height="16" viewBox="0 0 16 16" fill="none" xmlns="http://www.w3.org/2000/svg">
<path d="M5.84287 7.91538C5.84287 7.81342 5.91962 7.73077 6.0143 7.73077H6.52858C6.62326 7.73077 6.70001 7.81342 6.70001 7.91538V8.46923C6.70001 8.57119 6.62326 8.65385 6.52858 8.65385H6.0143C5.91962 8.65385 5.84287 8.57119 5.84287 8.46923V7.91538Z" fill="white"/>
<path d="M6.0143 9.57692C5.91962 9.57692 5.84287 9.65958 5.84287 9.76154V10.3154C5.84287 10.4173 5.91962 10.5 6.0143 10.5H6.52858C6.62326 10.5 6.70001 10.4173 6.70001 10.3154V9.76154C6.70001 9.65958 6.62326 9.57692 6.52858 9.57692H6.0143Z" fill="white"/>
<path d="M7.55716 7.91538C7.55716 7.81342 7.63391 7.73077 7.72858 7.73077H8.24287C8.33755 7.73077 8.4143 7.81342 8.4143 7.91538V8.46923C8.4143 8.57119 8.33755 8.65385 8.24287 8.65385H7.72858C7.63391 8.65385 7.55716 8.57119 7.55716 8.46923V7.91538Z" fill="white"/>
<path d="M7.72858 9.57692C7.63391 9.57692 7.55716 9.65958 7.55716 9.76154V10.3154C7.55716 10.4173 7.63391 10.5 7.72858 10.5H8.24287C8.33755 10.5 8.4143 10.4173 8.4143 10.3154V9.76154C8.4143 9.65958 8.33755 9.57692 8.24287 9.57692H7.72858Z" fill="white"/>
<path d="M9.20001 7.91538C9.20001 7.81342 9.27676 7.73077 9.37144 7.73077H9.88573C9.9804 7.73077 10.0572 7.81342 10.0572 7.91538V8.46923C10.0572 8.57119 9.9804 8.65385 9.88573 8.65385H9.37144C9.27676 8.65385 9.20001 8.57119 9.20001 8.46923V7.91538Z" fill="white"/>
<path d="M9.37144 9.57692C9.27676 9.57692 9.20001 9.65958 9.20001 9.76154V10.3154C9.20001 10.4173 9.27676 10.5 9.37144 10.5H9.88573C9.9804 10.5 10.0572 10.4173 10.0572 10.3154V9.76154C10.0572 9.65958 9.9804 9.57692 9.88573 9.57692H9.37144Z" fill="white"/>
<path fill-rule="evenodd" clip-rule="evenodd" d="M9.77144 2.92308H6.12858V2.46154C6.12858 2.20664 5.93671 2 5.70001 2C5.46332 2 5.27144 2.20664 5.27144 2.46154V2.92308H4.98573C4.27565 2.92308 3.70001 3.54299 3.70001 4.30769V11.6154C3.70001 12.3801 4.27565 13 4.98573 13H10.9143C11.6244 13 12.2 12.3801 12.2 11.6154V4.30769C12.2 3.54299 11.6244 2.92308 10.9143 2.92308H10.6286V2.46154C10.6286 2.20664 10.4367 2 10.2 2C9.96332 2 9.77144 2.20664 9.77144 2.46154V2.92308ZM5.70001 4.76923C5.46332 4.76923 5.27144 4.56259 5.27144 4.30769V3.84615H4.98573C4.74903 3.84615 4.55716 4.05279 4.55716 4.30769V5.69231H11.3429V4.30769C11.3429 4.05279 11.151 3.84615 10.9143 3.84615H10.6286V4.30769C10.6286 4.56259 10.4367 4.76923 10.2 4.76923C9.96332 4.76923 9.77144 4.56259 9.77144 4.30769V3.84615H6.12858V4.30769C6.12858 4.56259 5.93671 4.76923 5.70001 4.76923ZM4.55716 6.61538H11.3429V11.6154C11.3429 11.8703 11.151 12.0769 10.9143 12.0769H4.98573C4.74903 12.0769 4.55716 11.8703 4.55716 11.6154V6.61538Z" fill="white"/>
<path fill-rule="evenodd" clip-rule="evenodd" d="M13.5 6C13.7761 6 14 6.22386 14 6.5L14 9.5C14 9.77614 13.7761 10 13.5 10C13.2239 10 13 9.77614 13 9.5L13 6.5C13 6.22386 13.2239 6 13.5 6Z" fill="white"/>
<path fill-rule="evenodd" clip-rule="evenodd" d="M2.5 6C2.77614 6 3 6.22386 3 6.5L3 9.5C3 9.77614 2.77614 10 2.5 10C2.22386 10 2 9.77614 2 9.5L2 6.5C2 6.22386 2.22386 6 2.5 6Z" fill="white"/>
</svg>
