<svg width="16" height="16" viewBox="0 0 16 16" fill="none" xmlns="http://www.w3.org/2000/svg">
<path d="M7.1828 7.33333C7.42687 6.80628 7.95115 6.44444 8.55353 6.44444C8.96843 6.44444 9.34485 6.61513 9.61956 6.89367C9.70574 6.98105 9.84644 6.98202 9.93382 6.89584C10.0212 6.80966 10.0222 6.66896 9.936 6.58158C9.58225 6.22291 9.09361 6 8.55353 6C7.69676 6 6.97297 6.55856 6.70432 7.33333H6.22222C6.09949 7.33333 6 7.43283 6 7.55556C6 7.67829 6.09949 7.77778 6.22222 7.77778H6.60459C6.59666 7.85077 6.59259 7.92492 6.59259 8C6.59259 8.07508 6.59666 8.14923 6.60459 8.22222H6.22222C6.09949 8.22222 6 8.32171 6 8.44444C6 8.56717 6.09949 8.66667 6.22222 8.66667H6.70432C6.97297 9.44144 7.69676 10 8.55353 10C9.09361 10 9.58225 9.77709 9.936 9.41842C10.0222 9.33104 10.0212 9.19034 9.93382 9.10416C9.84644 9.01798 9.70574 9.01895 9.61956 9.10633C9.34485 9.38487 8.96843 9.55556 8.55353 9.55556C7.95115 9.55556 7.42687 9.19372 7.1828 8.66667H8.2963C8.41903 8.66667 8.51852 8.56717 8.51852 8.44444C8.51852 8.32171 8.41903 8.22222 8.2963 8.22222H7.05235C7.04226 8.14969 7.03704 8.0755 7.03704 8C7.03704 7.9245 7.04226 7.85031 7.05235 7.77778H8.2963C8.41903 7.77778 8.51852 7.67829 8.51852 7.55556C8.51852 7.43283 8.41903 7.33333 8.2963 7.33333H7.1828Z" fill="white"/>
<path fill-rule="evenodd" clip-rule="evenodd" d="M4 6C4 4.89543 4.89543 4 6 4H10C11.1046 4 12 4.89543 12 6V10C12 11.1046 11.1046 12 10 12H6C4.89543 12 4 11.1046 4 10V6ZM6 5H10C10.5523 5 11 5.44772 11 6V10C11 10.5523 10.5523 11 10 11H6C5.44772 11 5 10.5523 5 10V6C5 5.44772 5.44772 5 6 5Z" fill="white"/>
<path d="M2.5 6C2.77614 6 3 6.22386 3 6.5L3 9.5C3 9.77614 2.77614 10 2.5 10C2.22386 10 2 9.77614 2 9.5V6.5C2 6.22386 2.22386 6 2.5 6Z" fill="white"/>
<path d="M14 6.5C14 6.22386 13.7761 6 13.5 6C13.2239 6 13 6.22386 13 6.5V9.5C13 9.77614 13.2239 10 13.5 10C13.7761 10 14 9.77614 14 9.5V6.5Z" fill="white"/>
</svg>
