<svg width="16" height="16" viewBox="0 0 16 16" fill="none" xmlns="http://www.w3.org/2000/svg">
<path fill-rule="evenodd" clip-rule="evenodd" d="M4.5 7C3.11929 7 2 5.88071 2 4.5C2 3.11929 3.11929 2 4.5 2C5.31791 2 6.04408 2.39278 6.50018 3H12.5C13.3284 3 14 3.67157 14 4.5C14 5.32843 13.3284 6 12.5 6H6.50018C6.04408 6.60722 5.31791 7 4.5 7ZM7 4.5C7 4.74299 6.96533 4.97788 6.90068 5.2H12.5C12.8866 5.2 13.2 4.8866 13.2 4.5C13.2 4.1134 12.8866 3.8 12.5 3.8H6.90068C6.96533 4.02212 7 4.25701 7 4.5Z" fill="white"/>
<path fill-rule="evenodd" clip-rule="evenodd" d="M9.49982 13C9.95592 13.6072 10.6821 14 11.5 14C12.8807 14 14 12.8807 14 11.5C14 10.1193 12.8807 9 11.5 9C10.6821 9 9.95592 9.39278 9.49982 10H3.5C2.67157 10 2 10.6716 2 11.5C2 12.3284 2.67157 13 3.5 13H9.49982ZM9.09932 12.2C9.03467 11.9779 9 11.743 9 11.5C9 11.257 9.03467 11.0221 9.09932 10.8H3.5C3.1134 10.8 2.8 11.1134 2.8 11.5C2.8 11.8866 3.1134 12.2 3.5 12.2H9.09932Z" fill="white"/>
</svg>
