<svg width="16" height="16" viewBox="0 0 16 16" fill="none" xmlns="http://www.w3.org/2000/svg">
<path fill-rule="evenodd" clip-rule="evenodd" d="M4.35355 1.14645C4.54882 1.34171 4.54882 1.65829 4.35355 1.85355L2.70711 3.5H9.25C12.4256 3.5 15 6.07436 15 9.25C15 12.4256 12.4256 15 9.25 15H8.5C8.22386 15 8 14.7761 8 14.5C8 14.2239 8.22386 14 8.5 14H9.25C11.8734 14 14 11.8734 14 9.25C14 6.62665 11.8734 4.5 9.25 4.5H2.70711L4.35355 6.14645C4.54882 6.34171 4.54882 6.65829 4.35355 6.85355C4.15829 7.04882 3.84171 7.04882 3.64645 6.85355L1.14645 4.35355C0.951184 4.15829 0.951184 3.84171 1.14645 3.64645L3.64645 1.14645C3.84171 0.951184 4.15829 0.951184 4.35355 1.14645Z" fill="white"/>
</svg>
