<svg width="16" height="16" viewBox="0 0 16 16" fill="none" xmlns="http://www.w3.org/2000/svg">
<path fill-rule="evenodd" clip-rule="evenodd" d="M4.35355 0.896447C4.54882 1.09171 4.54882 1.40829 4.35355 1.60355L2.70711 3.25H9C12.3137 3.25 15 5.93629 15 9.25C15 12.5637 12.3137 15.25 9 15.25C8.72386 15.25 8.5 15.0261 8.5 14.75C8.5 14.4739 8.72386 14.25 9 14.25C11.7614 14.25 14 12.0114 14 9.25C14 6.48858 11.7614 4.25 9 4.25H2.70711L4.35355 5.89645C4.54882 6.09171 4.54882 6.40829 4.35355 6.60355C4.15829 6.79882 3.84171 6.79882 3.64645 6.60355L1.14645 4.10355C0.951184 3.90829 0.951184 3.59171 1.14645 3.39645L3.64645 0.896447C3.84171 0.701184 4.15829 0.701184 4.35355 0.896447Z" fill="white"/>
</svg>
