<svg width="16" height="16" viewBox="0 0 16 16" fill="none" xmlns="http://www.w3.org/2000/svg">
<g clip-path="url(#clip0)">
<path d="M4.36023 12.5053C6.46619 14.2923 9.53219 14.4726 11.7777 12.7252C13.1147 11.6819 13.8968 10.1496 14.073 8.5429C14.1031 8.26841 13.905 8.02149 13.6305 7.99139C13.356 7.9613 13.109 8.15943 13.0789 8.43393C12.9299 9.79373 12.2709 11.0718 11.1633 11.9362C9.23862 13.4337 6.55346 13.2295 4.78432 11.5428L6.97329 11.384C7.24871 11.3641 7.45579 11.1246 7.43582 10.8492C7.41585 10.5738 7.17638 10.3667 6.90097 10.3867L3.76354 10.6142C3.71208 10.6124 3.66017 10.6186 3.60975 10.633C3.5096 10.6583 3.41898 10.7143 3.35119 10.7941C3.26435 10.8964 3.22225 11.0293 3.23437 11.1629L3.53687 14.4982C3.56182 14.7732 3.80498 14.9759 4.07999 14.951C4.355 14.926 4.55773 14.6829 4.53278 14.4079L4.36023 12.5053Z" fill="white"/>
<path d="M11.6393 3.49442C9.53339 1.70762 6.46755 1.52747 4.22213 3.27478C2.88512 4.3181 2.103 5.85034 1.92685 7.45705C1.89676 7.73155 2.09488 7.97847 2.36938 8.00856C2.64388 8.03866 2.8908 7.84053 2.92089 7.56603C3.06997 6.20622 3.72896 4.92816 4.83655 4.06376C6.76122 2.56627 9.44639 2.77049 11.2155 4.45719L9.0263 4.61594C8.75088 4.63591 8.5438 4.87538 8.56377 5.1508C8.58374 5.42622 8.82321 5.6333 9.09863 5.61332L12.2364 5.38579C12.2882 5.38751 12.3404 5.38125 12.391 5.36667C12.4907 5.34121 12.5809 5.28538 12.6484 5.20586C12.7352 5.10359 12.7773 4.9707 12.7652 4.83707L12.4627 1.5018C12.4378 1.22679 12.1946 1.02407 11.9196 1.04901C11.6446 1.07395 11.4419 1.31712 11.4668 1.59213L11.6393 3.49442Z" fill="white"/>
</g>
<defs>
<clipPath id="clip0">
<rect width="16" height="16" fill="white"/>
</clipPath>
</defs>
</svg>
