<svg width="16" height="16" viewBox="0 0 16 16" fill="none" xmlns="http://www.w3.org/2000/svg">
<path fill-rule="evenodd" clip-rule="evenodd" d="M12.5151 0.5C12.7912 0.5 13.0151 0.723858 13.0151 1V3.41379C13.0151 3.68994 12.7912 3.91379 12.5151 3.91379H10.0335C9.75734 3.91379 9.53348 3.68994 9.53348 3.41379C9.53348 3.13765 9.75734 2.91379 10.0335 2.91379H10.9438C6.51999 0.475306 1.25385 4.24958 2.08885 9.12245C2.13549 9.39462 1.95266 9.65307 1.68048 9.69971C1.40831 9.74635 1.14986 9.56352 1.10322 9.29134C0.0873526 3.36299 6.77832 -1.14458 12.0151 2.39669V1C12.0151 0.723858 12.2389 0.5 12.5151 0.5ZM14.3203 6.30029C14.5925 6.25365 14.8509 6.43648 14.8976 6.70866C15.9134 12.637 9.22246 17.1446 3.98569 13.6033L3.98569 15C3.98569 15.2761 3.76183 15.5 3.48569 15.5C3.20955 15.5 2.98569 15.2761 2.98569 15L2.98569 12.5862C2.98569 12.3101 3.20955 12.0862 3.48569 12.0862H5.96729C6.24344 12.0862 6.46729 12.3101 6.46729 12.5862C6.46729 12.8623 6.24344 13.0862 5.96729 13.0862H5.05696C9.48078 15.5247 14.7469 11.7504 13.9119 6.87755C13.8653 6.60538 14.0481 6.34693 14.3203 6.30029Z" fill="white"/>
</svg>
