<svg width="16" height="16" viewBox="0 0 16 16" fill="none" xmlns="http://www.w3.org/2000/svg">
<path d="M13.0895 6.48725C13.3331 6.25455 13.5278 5.97552 13.6621 5.66656C13.7963 5.35759 13.8674 5.02492 13.8713 4.68809C13.8751 4.35125 13.8116 4.01705 13.6844 3.7051C13.5572 3.39316 13.369 3.10976 13.1307 2.87157C12.8924 2.63338 12.6089 2.44519 12.2969 2.31805C11.9848 2.19092 11.6505 2.12741 11.3136 2.13125C10.9766 2.13508 10.6438 2.2062 10.3348 2.34041C10.0257 2.47462 9.74658 2.66922 9.5138 2.91278L7.72401 4.69418C7.61338 4.79724 7.46705 4.85335 7.31585 4.85068C7.16465 4.84801 7.02039 4.78678 6.91346 4.67989C6.80653 4.57299 6.74528 4.42878 6.74261 4.27763C6.73994 4.12649 6.79606 3.9802 6.89916 3.86961L8.687 2.08237C9.03049 1.73913 9.43824 1.46688 9.88698 1.28116C10.3357 1.09545 10.8167 0.99991 11.3023 1C12.2832 1.00018 13.2238 1.38987 13.9173 2.08334C14.6107 2.77681 15.0002 3.71726 15 4.69779C14.9998 5.67832 14.61 6.61862 13.9163 7.31183L12.1284 9.09907C12.0166 9.19439 11.8728 9.244 11.726 9.23799C11.5791 9.23197 11.4399 9.17077 11.3362 9.06662C11.2325 8.96246 11.1719 8.82303 11.1666 8.67618C11.1613 8.52933 11.2116 8.38587 11.3075 8.27449L13.0895 6.48725Z" fill="white"/>
<path d="M3.87378 6.89968C3.98588 6.8046 4.12974 6.75531 4.27661 6.76167C4.42348 6.76802 4.56255 6.82955 4.666 6.93396C4.76946 7.03837 4.82969 7.17796 4.83466 7.32483C4.83963 7.47171 4.78897 7.61505 4.69281 7.7262L2.90496 9.51344C2.67018 9.74852 2.48402 10.0275 2.3571 10.3345C2.23018 10.6416 2.165 10.9705 2.16527 11.3027C2.16554 11.6349 2.23126 11.9638 2.35868 12.2706C2.4861 12.5774 2.67271 12.8561 2.90788 13.0908C3.14305 13.3255 3.42216 13.5116 3.72927 13.6385C4.03638 13.7654 4.36548 13.8305 4.69779 13.8303C5.03009 13.83 5.35909 13.7643 5.66599 13.6369C5.9729 13.5095 6.2517 13.323 6.48648 13.0879L8.27433 11.3065C8.38496 11.2034 8.5313 11.1473 8.68249 11.15C8.83369 11.1527 8.97795 11.2139 9.08488 11.3208C9.19182 11.4277 9.25307 11.5719 9.25573 11.7231C9.2584 11.8742 9.20228 12.0205 9.09919 12.1311L7.31134 13.9183C6.96786 14.2614 6.56013 14.5336 6.11143 14.7192C5.66274 14.9047 5.18188 15.0002 4.69629 15C4.21071 14.9998 3.72991 14.904 3.28136 14.7181C2.83281 14.5322 2.42528 14.2597 2.08205 13.9164C1.73882 13.573 1.4666 13.1654 1.28094 12.7169C1.09528 12.2683 0.999819 11.7876 1 11.3022C1.00018 10.8168 1.096 10.3362 1.282 9.88776C1.46799 9.43936 1.74051 9.03197 2.08399 8.68886L3.87378 6.89968Z" fill="white"/>
<path d="M5.75153 10.409C5.84682 10.4734 5.95902 10.5082 6.07404 10.5091C6.15093 10.5085 6.22695 10.4928 6.29773 10.4627C6.36851 10.4327 6.43265 10.389 6.48647 10.3341L10.3345 6.48734C10.4255 6.37531 10.4718 6.23354 10.4643 6.08942C10.4568 5.9453 10.3962 5.80905 10.2941 5.70701C10.1921 5.60496 10.0558 5.54436 9.9116 5.5369C9.76743 5.52945 9.62562 5.57567 9.51355 5.66665L5.66551 9.51338C5.58422 9.59474 5.52879 9.6983 5.50619 9.81104C5.48358 9.92379 5.49481 10.0407 5.53846 10.1471C5.58211 10.2535 5.65624 10.3446 5.75153 10.409Z" fill="white"/>
<path d="M13.0895 6.48725C13.3331 6.25455 13.5278 5.97552 13.6621 5.66656C13.7963 5.35759 13.8674 5.02492 13.8713 4.68809C13.8751 4.35125 13.8116 4.01705 13.6844 3.7051C13.5572 3.39316 13.369 3.10976 13.1307 2.87157C12.8924 2.63338 12.6089 2.44519 12.2969 2.31805C11.9848 2.19092 11.6505 2.12741 11.3136 2.13125C10.9766 2.13508 10.6438 2.2062 10.3348 2.34041C10.0257 2.47462 9.74658 2.66922 9.5138 2.91278L7.72401 4.69418C7.61338 4.79724 7.46705 4.85335 7.31585 4.85068C7.16465 4.84801 7.02039 4.78678 6.91346 4.67989C6.80653 4.57299 6.74528 4.42878 6.74261 4.27763C6.73994 4.12649 6.79606 3.9802 6.89916 3.86961L8.687 2.08237C9.03049 1.73913 9.43824 1.46688 9.88698 1.28116C10.3357 1.09545 10.8167 0.99991 11.3023 1C12.2832 1.00018 13.2238 1.38987 13.9173 2.08334C14.6107 2.77681 15.0002 3.71726 15 4.69779C14.9998 5.67832 14.61 6.61862 13.9163 7.31183L12.1284 9.09907C12.0166 9.19439 11.8728 9.244 11.726 9.23799C11.5791 9.23197 11.4399 9.17077 11.3362 9.06662C11.2325 8.96246 11.1719 8.82303 11.1666 8.67618C11.1613 8.52933 11.2116 8.38587 11.3075 8.27449L13.0895 6.48725Z" stroke="black" stroke-width="0.2"/>
<path d="M3.87378 6.89968C3.98588 6.8046 4.12974 6.75531 4.27661 6.76167C4.42348 6.76802 4.56255 6.82955 4.666 6.93396C4.76946 7.03837 4.82969 7.17796 4.83466 7.32483C4.83963 7.47171 4.78897 7.61505 4.69281 7.7262L2.90496 9.51344C2.67018 9.74852 2.48402 10.0275 2.3571 10.3345C2.23018 10.6416 2.165 10.9705 2.16527 11.3027C2.16554 11.6349 2.23126 11.9638 2.35868 12.2706C2.4861 12.5774 2.67271 12.8561 2.90788 13.0908C3.14305 13.3255 3.42216 13.5116 3.72927 13.6385C4.03638 13.7654 4.36548 13.8305 4.69779 13.8303C5.03009 13.83 5.35909 13.7643 5.66599 13.6369C5.9729 13.5095 6.2517 13.323 6.48648 13.0879L8.27433 11.3065C8.38496 11.2034 8.5313 11.1473 8.68249 11.15C8.83369 11.1527 8.97795 11.2139 9.08488 11.3208C9.19182 11.4277 9.25307 11.5719 9.25573 11.7231C9.2584 11.8742 9.20228 12.0205 9.09919 12.1311L7.31134 13.9183C6.96786 14.2614 6.56013 14.5336 6.11143 14.7192C5.66274 14.9047 5.18188 15.0002 4.69629 15C4.21071 14.9998 3.72991 14.904 3.28136 14.7181C2.83281 14.5322 2.42528 14.2597 2.08205 13.9164C1.73882 13.573 1.4666 13.1654 1.28094 12.7169C1.09528 12.2683 0.999819 11.7876 1 11.3022C1.00018 10.8168 1.096 10.3362 1.282 9.88776C1.46799 9.43936 1.74051 9.03197 2.08399 8.68886L3.87378 6.89968Z" stroke="black" stroke-width="0.2"/>
<path d="M5.75153 10.409C5.84682 10.4734 5.95902 10.5082 6.07404 10.5091C6.15093 10.5085 6.22695 10.4928 6.29773 10.4627C6.36851 10.4327 6.43265 10.389 6.48647 10.3341L10.3345 6.48734C10.4255 6.37531 10.4718 6.23354 10.4643 6.08942C10.4568 5.9453 10.3962 5.80905 10.2941 5.70701C10.1921 5.60496 10.0558 5.54436 9.9116 5.5369C9.76743 5.52945 9.62562 5.57567 9.51355 5.66665L5.66551 9.51338C5.58422 9.59474 5.52879 9.6983 5.50619 9.81104C5.48358 9.92379 5.49481 10.0407 5.53846 10.1471C5.58211 10.2535 5.65624 10.3446 5.75153 10.409Z" stroke="black" stroke-width="0.2"/>
</svg>
