<svg width="16" height="16" viewBox="0 0 16 16" fill="none" xmlns="http://www.w3.org/2000/svg">
<path d="M13.2103 2.78988C12.1571 1.73675 10.4488 1.73675 9.39563 2.78988L7.29203 4.89348C7.09677 5.08874 6.78019 5.08874 6.58492 4.89348C6.38966 4.69821 6.38966 4.38163 6.58492 4.18637L8.68852 2.08277C10.1322 0.639116 12.4737 0.639116 13.9174 2.08277C15.361 3.52643 15.361 5.86797 13.9174 7.31163L11.8138 9.41523C11.6185 9.61049 11.3019 9.61049 11.1067 9.41523C10.9114 9.21996 10.9114 8.90338 11.1067 8.70812L13.2103 6.60452C14.2634 5.55139 14.2634 3.84301 13.2103 2.78988Z" fill="white"/>
<path d="M4.89345 6.58492C5.08871 6.78019 5.08871 7.09677 4.89345 7.29203L2.78985 9.39563C1.73672 10.4488 1.73672 12.1571 2.78985 13.2103C3.84298 14.2634 5.55136 14.2634 6.60449 13.2103L8.70809 11.1067C8.90335 10.9114 9.21993 10.9114 9.4152 11.1067C9.61046 11.3019 9.61046 11.6185 9.4152 11.8138L7.3116 13.9174C5.86794 15.361 3.5264 15.361 2.08274 13.9174C0.639086 12.4737 0.639086 10.1322 2.08274 8.68852L4.18634 6.58492C4.3816 6.38966 4.69818 6.38966 4.89345 6.58492Z" fill="white"/>
<path d="M10.3491 6.35825C10.5444 6.16299 10.5444 5.84641 10.3491 5.65115C10.1539 5.45588 9.83729 5.45588 9.64203 5.65115L6.17208 9.1211C5.97682 9.31636 5.97682 9.63294 6.17208 9.8282C6.36734 10.0235 6.68393 10.0235 6.87919 9.8282L10.3491 6.35825Z" fill="white"/>
</svg>
