<svg width="16" height="16" viewBox="0 0 16 16" fill="none" xmlns="http://www.w3.org/2000/svg">
<path fill-rule="evenodd" clip-rule="evenodd" d="M8 6.15C9.18741 6.15 10.15 5.18741 10.15 4C10.15 2.81259 9.18741 1.85 8 1.85C6.81259 1.85 5.85 2.81259 5.85 4C5.85 5.18741 6.81259 6.15 8 6.15ZM8 7C9.65685 7 11 5.65685 11 4C11 2.34315 9.65685 1 8 1C6.34315 1 5 2.34315 5 4C5 5.65685 6.34315 7 8 7Z" fill="white"/>
<path fill-rule="evenodd" clip-rule="evenodd" d="M2 12.4286C2 8.87817 4.68629 6.5 8 6.5C11.3137 6.5 14 8.87817 14 12.4286C14 12.4286 11.3137 15 8 15C4.68629 15 2 12.4286 2 12.4286ZM13.1383 12.0527C13.0965 12.0871 13.0504 12.1246 12.9999 12.1647C12.7201 12.3869 12.3127 12.685 11.8096 12.9829C10.7917 13.5856 9.44478 14.15 8 14.15C6.55522 14.15 5.20834 13.5856 4.19041 12.9829C3.68732 12.685 3.27994 12.3869 3.00006 12.1647C2.94962 12.1246 2.90345 12.0871 2.86173 12.0527C3.04047 9.21688 5.23974 7.35 8 7.35C10.7603 7.35 12.9595 9.21688 13.1383 12.0527ZM2.58674 11.8136C2.58656 11.8134 2.58659 11.8134 2.58674 11.8136V11.8136Z" fill="white"/>
</svg>
