<svg width="16" height="16" viewBox="0 0 16 16" fill="none" xmlns="http://www.w3.org/2000/svg">
<path fill-rule="evenodd" clip-rule="evenodd" d="M7.99209 1.00003C5.97181 1.00003 4.33398 2.63768 4.33398 4.6579C4.33398 5.39699 4.5532 6.08488 4.93016 6.66011C4.59206 6.83846 4.17024 7.12252 3.7705 7.56256C2.90012 8.52065 2.20072 10.1434 2.55945 12.8088L2.58857 13.0252L2.76721 13.151L2.7682 13.1517L2.77031 13.1532L2.77726 13.158L2.80182 13.1749C2.82286 13.1893 2.85314 13.2097 2.89204 13.2353C2.96981 13.2865 3.08219 13.3586 3.2242 13.4445C3.50783 13.6162 3.91165 13.8446 4.39548 14.0732C5.35313 14.5256 6.6686 15 8.00269 15C9.33678 15 10.6523 14.5256 11.6099 14.0732C12.0937 13.8446 12.4976 13.6162 12.7812 13.4445C12.9232 13.3586 13.0356 13.2865 13.1133 13.2353C13.1522 13.2097 13.1825 13.1893 13.2036 13.1749L13.2281 13.158L13.2351 13.1532L13.2372 13.1517L13.2384 13.1509L13.4179 13.0244L13.4462 12.8067C13.7938 10.1363 13.0888 8.51399 12.2156 7.55768C11.8151 7.11906 11.3933 6.83621 11.055 6.65868C11.4314 6.08374 11.6502 5.39638 11.6502 4.6579C11.6502 2.63768 10.0124 1.00003 7.99209 1.00003ZM5.33398 4.6579C5.33398 3.19003 6.52402 2.00003 7.99209 2.00003C9.46016 2.00003 10.6502 3.19003 10.6502 4.6579C10.6502 6.12576 9.46016 7.31577 7.99209 7.31577C6.52402 7.31577 5.33398 6.12576 5.33398 4.6579ZM10.3681 7.43925C9.72887 7.98575 8.89902 8.31577 7.99209 8.31577C7.08556 8.31577 6.25603 7.98603 5.61692 7.43995C5.56664 7.46121 5.50999 7.487 5.44837 7.51799C5.1867 7.64959 4.83991 7.87255 4.51068 8.23497C3.88781 8.9206 3.26504 10.1755 3.52289 12.4526C3.58258 12.4909 3.65611 12.537 3.74208 12.5891C4.00289 12.747 4.3761 12.9581 4.8226 13.169C5.7256 13.5955 6.88398 14 8.00269 14C9.1214 14 10.2798 13.5955 11.1828 13.169C11.6293 12.9581 12.0025 12.747 12.2633 12.5891C12.3487 12.5374 12.4219 12.4915 12.4814 12.4533C12.7296 10.1717 12.1023 8.91668 11.4771 8.23195C11.1467 7.87003 10.7993 7.64795 10.5374 7.51709C10.4755 7.48613 10.4186 7.46041 10.3681 7.43925ZM13.2351 13.1532C13.2384 13.1509 13.2384 13.1509 13.2384 13.1509L13.2351 13.1532Z" fill="white"/>
</svg>
