<svg width="16" height="16" viewBox="0 0 16 16" fill="none" xmlns="http://www.w3.org/2000/svg">
<path fill-rule="evenodd" clip-rule="evenodd" d="M12.9002 1.87388C13.0721 1.62552 13.0164 1.28038 12.7756 1.10298C12.5349 0.92558 12.2003 0.983104 12.0283 1.23146L10.4806 3.46673C9.70694 3.18042 8.87292 3 7.99859 3C5.75315 3 3.77354 4.18997 2.39987 5.3075C1.70469 5.87306 1.14353 6.4373 0.755774 6.86035C0.561528 7.07228 0.409824 7.24983 0.305586 7.37583C0.253443 7.43886 0.213107 7.48908 0.185192 7.52434L0.152689 7.5658L0.143552 7.57763L0.140787 7.58124L0.139859 7.58246C-0.0462022 7.82719 -0.0468274 8.17199 0.139233 8.41672L0.140787 8.41876L0.143552 8.42237L0.152689 8.4342L0.185192 8.47565C0.213107 8.51092 0.253443 8.56114 0.305586 8.62417C0.409824 8.75017 0.561528 8.92772 0.755774 9.13965C1.14353 9.56269 1.70469 10.1269 2.39987 10.6925C2.99788 11.179 3.71072 11.6792 4.51034 12.089L3.09983 14.1261C2.92786 14.3745 2.98362 14.7196 3.22438 14.897C3.46513 15.0744 3.79971 15.0169 3.97168 14.7685L5.51884 12.5341C6.29185 12.8199 7.12511 13 7.99859 13C10.244 13 12.2236 11.81 13.5973 10.6925C14.2925 10.1269 14.8536 9.56269 15.2414 9.13965C15.4356 8.92772 15.5874 8.75017 15.6916 8.62417C15.7437 8.56114 15.7841 8.51092 15.812 8.47565L15.8445 8.4342L15.8536 8.42237L15.8573 8.41754C15.9872 8.24665 16.0266 8.0268 15.9752 7.82636C15.953 7.73975 15.9138 7.65676 15.8577 7.58292L15.8564 7.58124L15.8536 7.57763L15.8445 7.5658L15.812 7.52434C15.7841 7.48908 15.7437 7.43886 15.6916 7.37583C15.5874 7.24983 15.4356 7.07228 15.2414 6.86035C14.8536 6.4373 14.2925 5.87306 13.5973 5.3075C12.9998 4.82142 12.2877 4.32164 11.4889 3.91203L12.9002 1.87388ZM9.68324 4.61826C9.13992 4.45002 8.57525 4.35135 7.99859 4.35135C6.18847 4.35135 4.49644 5.32354 3.21238 6.36818C2.57869 6.8837 2.06445 7.40053 1.70904 7.78829C1.63935 7.86432 1.57592 7.93523 1.51904 8C1.57592 8.06477 1.63935 8.13567 1.70904 8.2117C2.06445 8.59947 2.57869 9.1163 3.21238 9.63182C3.82121 10.1271 4.52176 10.6061 5.28312 10.973L6.45892 9.27487C6.17228 8.92876 6 8.4845 6 8C6 6.89543 6.89543 6 8 6C8.22806 6 8.4472 6.03817 8.65139 6.10847L9.68324 4.61826ZM9.54108 6.72513L10.7162 5.02804C11.4767 5.39474 12.1765 5.87333 12.7848 6.36818C13.4185 6.8837 13.9327 7.40053 14.2881 7.78829C14.3578 7.86432 14.4213 7.93523 14.4781 8C14.4213 8.06477 14.3578 8.13567 14.2881 8.2117C13.9327 8.59947 13.4185 9.1163 12.7848 9.63182C11.5007 10.6765 9.80871 11.6486 7.99859 11.6486C7.42275 11.6486 6.85886 11.5503 6.31626 11.3825L7.34861 9.89152C7.5528 9.96183 7.77194 10 8 10C9.10457 10 10 9.10457 10 8C10 7.5155 9.82772 7.07124 9.54108 6.72513ZM7.85069 7.26486C7.50801 7.33409 7.25 7.63691 7.25 8C7.25 8.04045 7.2532 8.08014 7.25937 8.11886L7.85069 7.26486ZM8.14931 8.73514L8.74063 7.88114C8.7468 7.91985 8.75 7.95955 8.75 8C8.75 8.36308 8.49199 8.66591 8.14931 8.73514Z" fill="#0091E4"/>
</svg>
