<svg width="16" height="16" viewBox="0 0 16 16" fill="none" xmlns="http://www.w3.org/2000/svg">
<path fill-rule="evenodd" clip-rule="evenodd" d="M7.99986 6.05557C6.92598 6.05557 6.05542 6.92613 6.05542 8.00002C6.05542 9.0739 6.92598 9.94446 7.99986 9.94446C9.07375 9.94446 9.94431 9.0739 9.94431 8.00002C9.94431 6.92613 9.07375 6.05557 7.99986 6.05557ZM7.05542 8.00002C7.05542 7.47841 7.47826 7.05557 7.99986 7.05557C8.52147 7.05557 8.94431 7.47841 8.94431 8.00002C8.94431 8.52162 8.52147 8.94446 7.99986 8.94446C7.47826 8.94446 7.05542 8.52162 7.05542 8.00002Z" fill="white"/>
<path fill-rule="evenodd" clip-rule="evenodd" d="M7.99992 3.64816C6.20444 3.64816 4.46529 4.70401 3.2264 5.68157C2.59597 6.17901 2.07144 6.67525 1.70455 7.04689C1.52081 7.233 1.37586 7.38863 1.27614 7.49855C1.22626 7.55353 1.18765 7.59714 1.1611 7.62746L1.13042 7.66279L1.12205 7.67255L1.11964 7.67538L1.11861 7.67659C0.960611 7.86309 0.960878 8.13725 1.11888 8.32375L1.11964 8.32465L1.12205 8.32748L1.13042 8.33724L1.1611 8.37256C1.18765 8.40289 1.22626 8.4465 1.27614 8.50148C1.37586 8.6114 1.52081 8.76703 1.70455 8.95314C2.07144 9.32477 2.59597 9.82102 3.2264 10.3185C4.46529 11.296 6.20444 12.3519 7.99992 12.3519C9.7954 12.3519 11.5345 11.296 12.7734 10.3185C13.4039 9.82102 13.9284 9.32477 14.2953 8.95314C14.479 8.76703 14.624 8.6114 14.7237 8.50148C14.7736 8.4465 14.8122 8.40289 14.8387 8.37256L14.8694 8.33724L14.8778 8.32748L14.8802 8.32465L14.8812 8.32344C15.0392 8.13694 15.039 7.86278 14.881 7.67628L14.8802 7.67538L14.8778 7.67255L14.8694 7.66279L14.8387 7.62746C14.8122 7.59714 14.7736 7.55353 14.7237 7.49855C14.624 7.38863 14.479 7.233 14.2953 7.04689C13.9284 6.67525 13.4039 6.17901 12.7734 5.68157C11.5345 4.70401 9.7954 3.64816 7.99992 3.64816ZM2.41619 8.25059C2.3248 8.15802 2.2439 8.07376 2.17444 8.00001C2.2439 7.92627 2.3248 7.84201 2.41619 7.74944C2.7623 7.39885 3.25586 6.93213 3.84584 6.46661C5.04774 5.51824 6.55859 4.64816 7.99992 4.64816C9.44124 4.64816 10.9521 5.51824 12.154 6.46661C12.744 6.93213 13.2375 7.39885 13.5837 7.74944C13.675 7.84201 13.7559 7.92627 13.8254 8.00001C13.7559 8.07376 13.675 8.15802 13.5837 8.25059C13.2375 8.60118 12.744 9.0679 12.154 9.53342C10.9521 10.4818 9.44124 11.3519 7.99992 11.3519C6.55859 11.3519 5.04774 10.4818 3.84584 9.53342C3.25586 9.0679 2.7623 8.60118 2.41619 8.25059Z" fill="white"/>
</svg>
