<svg width="16" height="16" viewBox="0 0 16 16" fill="none" xmlns="http://www.w3.org/2000/svg">
<path fill-rule="evenodd" clip-rule="evenodd" d="M1.51904 8C1.57592 8.06477 1.63935 8.13567 1.70904 8.2117C2.06445 8.59947 2.57869 9.1163 3.21238 9.63182C4.49644 10.6765 6.18847 11.6486 7.99859 11.6486C9.80871 11.6486 11.5007 10.6765 12.7848 9.63182C13.4185 9.1163 13.9327 8.59947 14.2881 8.2117C14.3578 8.13568 14.4213 8.06477 14.4781 8C14.4213 7.93523 14.3578 7.86432 14.2881 7.7883C13.9327 7.40053 13.4185 6.8837 12.7848 6.36818C11.5007 5.32354 9.80871 4.35135 7.99859 4.35135C6.18847 4.35135 4.49644 5.32354 3.21238 6.36818C2.57869 6.8837 2.06445 7.40053 1.70904 7.7883C1.63935 7.86433 1.57592 7.93523 1.51904 8ZM15.8445 8.4342C16.0548 8.2117 16.0445 7.82861 15.8577 7.58292L15.8564 7.58124L15.8536 7.57763L15.8445 7.5658L15.812 7.52435C15.7841 7.48908 15.7437 7.43886 15.6916 7.37583C15.5874 7.24983 15.4356 7.07228 15.2414 6.86035C14.8536 6.43731 14.2925 5.87306 13.5973 5.3075C12.2236 4.18997 10.244 3 7.99859 3C5.75315 3 3.77354 4.18997 2.39987 5.3075C1.70469 5.87306 1.14353 6.43731 0.755774 6.86035C0.561528 7.07228 0.409824 7.24983 0.305586 7.37583C0.253443 7.43886 0.213107 7.48908 0.185192 7.52435L0.152689 7.5658L0.143552 7.57763L0.140787 7.58124L0.139859 7.58246C-0.0462022 7.82719 -0.0468274 8.17199 0.139233 8.41672L0.140787 8.41876L0.143552 8.42237L0.152689 8.4342L0.185192 8.47565C0.213107 8.51092 0.253443 8.56114 0.305586 8.62417C0.409824 8.75017 0.561528 8.92772 0.755774 9.13965C1.14353 9.56269 1.70469 10.1269 2.39987 10.6925C3.77354 11.81 5.75315 13 7.99859 13C10.244 13 12.2236 11.81 13.5973 10.6925C14.2925 10.1269 14.8536 9.56269 15.2414 9.13965C15.4356 8.92772 15.5874 8.75017 15.6916 8.62417C15.7437 8.56114 15.7841 8.51092 15.812 8.47565C15.812 8.47565 15.8318 8.45039 15.8445 8.4342C15.8481 8.42958 15.8536 8.42237 15.8536 8.42237L15.8564 8.41876L15.8573 8.41754C15.8573 8.41754 15.8495 8.4277 15.8445 8.4342ZM15.8445 8.4342C15.8495 8.4277 15.8573 8.41754 15.8573 8.41754C16.0434 8.17281 16.0437 7.82765 15.8577 7.58292C16.0445 7.82861 16.0548 8.2117 15.8445 8.4342Z" fill="#0091E4"/>
<path fill-rule="evenodd" clip-rule="evenodd" d="M8 7.25C8.41421 7.25 8.75 7.58579 8.75 8C8.75 8.41421 8.41421 8.75 8 8.75C7.58579 8.75 7.25 8.41421 7.25 8C7.25 7.58579 7.58579 7.25 8 7.25ZM8 6C9.10457 6 10 6.89543 10 8C10 9.10457 9.10457 10 8 10C6.89543 10 6 9.10457 6 8C6 6.89543 6.89543 6 8 6Z" fill="#0091E4"/>
</svg>
