<svg width="16" height="16" viewBox="0 0 16 16" fill="none" xmlns="http://www.w3.org/2000/svg">
<path fill-rule="evenodd" clip-rule="evenodd" d="M14.9861 1.72117C15.1813 1.5259 15.1813 1.20932 14.9861 1.01406C14.7908 0.818799 14.4742 0.8188 14.2789 1.01406L10.8626 4.43041C9.97648 3.97359 8.997 3.64813 8.00016 3.64813C6.20468 3.64813 4.46553 4.70398 3.22664 5.68154C2.59621 6.17898 2.07168 6.67522 1.70479 7.04686C1.52106 7.23297 1.3761 7.3886 1.27638 7.49852C1.2265 7.5535 1.18789 7.59711 1.16135 7.62743L1.13067 7.66276L1.12229 7.67252L1.11988 7.67535L1.11885 7.67656C0.960855 7.86306 0.961122 8.13722 1.11912 8.32372L1.11988 8.32462L1.12229 8.32745L1.13067 8.33721L1.16135 8.37253C1.18789 8.40286 1.2265 8.44647 1.27638 8.50145C1.3761 8.61137 1.52106 8.767 1.70479 8.95311C2.07168 9.32474 2.59621 9.82099 3.22664 10.3184C3.53668 10.5631 3.87804 10.8126 4.24378 11.0493L1.01412 14.279C0.81886 14.4742 0.818861 14.7908 1.01412 14.9861C1.20939 15.1813 1.52597 15.1813 1.72123 14.9861L5.13771 11.5696C6.02385 12.0264 7.00332 12.3518 8.00016 12.3518C9.79564 12.3518 11.5348 11.296 12.7737 10.3184C13.4041 9.82099 13.9286 9.32474 14.2955 8.95311C14.4793 8.767 14.6242 8.61137 14.7239 8.50145C14.7738 8.44647 14.8124 8.40286 14.839 8.37253L14.8697 8.33721L14.878 8.32745L14.8804 8.32462L14.8815 8.32341C15.0395 8.13691 15.0392 7.86275 14.8812 7.67624L14.8804 7.67535L14.878 7.67252L14.8697 7.66276L14.839 7.62743C14.8124 7.59711 14.7738 7.5535 14.7239 7.49852C14.6242 7.3886 14.4793 7.23297 14.2955 7.04686C13.9286 6.67522 13.4041 6.17898 12.7737 5.68154C12.4636 5.4369 12.1223 5.18736 11.7565 4.95069L14.9861 1.72117ZM10.1155 5.17752C9.42315 4.85525 8.70338 4.64813 8.00016 4.64813C6.55884 4.64813 5.04799 5.51821 3.84608 6.46658C3.25611 6.9321 2.76254 7.39882 2.41643 7.74941C2.32504 7.84198 2.24415 7.92624 2.17469 7.99998C2.24415 8.07373 2.32504 8.15799 2.41643 8.25056C2.76254 8.60115 3.25611 9.06787 3.84608 9.53339C4.19705 9.81032 4.57437 10.0806 4.9686 10.3245L6.31765 8.9754C6.15106 8.68868 6.05566 8.35547 6.05566 7.99999C6.05566 6.9261 6.92622 6.05554 8.00011 6.05554C8.35559 6.05554 8.68879 6.15094 8.97551 6.31752L10.1155 5.17752ZM9.68261 7.02464L11.0317 5.67552C11.426 5.91938 11.8033 6.18964 12.1542 6.46658C12.7442 6.9321 13.2378 7.39882 13.5839 7.74941C13.6753 7.84198 13.7562 7.92624 13.8256 7.99998C13.7562 8.07373 13.6753 8.15799 13.5839 8.25056C13.2378 8.60115 12.7442 9.06787 12.1542 9.53339C10.9523 10.4818 9.44149 11.3518 8.00016 11.3518C7.29695 11.3518 6.57718 11.1447 5.88482 10.8224L7.02477 9.68249C7.31148 9.84905 7.64465 9.94443 8.00011 9.94443C9.074 9.94443 9.94455 9.07387 9.94455 7.99999C9.94455 7.64453 9.84917 7.31135 9.68261 7.02464ZM8.21333 7.07971C8.14481 7.0639 8.07343 7.05554 8.00011 7.05554C7.47851 7.05554 7.05566 7.47838 7.05566 7.99999C7.05566 8.07331 7.06402 8.14469 7.07983 8.21321L8.21333 7.07971ZM7.78698 8.92028L8.9204 7.78685C8.9362 7.85534 8.94455 7.92669 8.94455 7.99999C8.94455 8.52159 8.52171 8.94443 8.00011 8.94443C7.92681 8.94443 7.85547 8.93608 7.78698 8.92028Z" fill="white"/>
</svg>
