<svg width="16" height="16" viewBox="0 0 16 16" fill="none" xmlns="http://www.w3.org/2000/svg">
<path fill-rule="evenodd" clip-rule="evenodd" d="M8.00001 5.23245C8.25991 5.23245 8.4706 5.44274 8.4706 5.70215V10.634C8.4706 10.8934 8.25991 11.1037 8.00001 11.1037C7.74011 11.1037 7.52942 10.8934 7.52942 10.634V5.70215C7.52942 5.44274 7.74011 5.23245 8.00001 5.23245Z" fill="white"/>
<path d="M8.00001 13.2173C8.38986 13.2173 8.70589 12.9019 8.70589 12.5127C8.70589 12.1236 8.38986 11.8082 8.00001 11.8082C7.61016 11.8082 7.29413 12.1236 7.29413 12.5127C7.29413 12.9019 7.61016 13.2173 8.00001 13.2173Z" fill="white"/>
<path fill-rule="evenodd" clip-rule="evenodd" d="M8 0C8.17607 0 8.33742 0.0981067 8.41817 0.254274L15.9476 14.8149C16.0229 14.9605 16.0167 15.1347 15.9313 15.2747C15.8459 15.4146 15.6936 15.5 15.5294 15.5H0.470589C0.306419 15.5 0.154117 15.4146 0.0687047 15.2747C-0.0167073 15.1347 -0.0228809 14.9605 0.0524141 14.8149L7.58183 0.254274C7.66258 0.0981067 7.82393 0 8 0ZM1.24304 14.5606H14.757L8 1.4938L1.24304 14.5606Z" fill="white"/>
</svg>
