<svg width="16" height="16" viewBox="0 0 16 16" fill="none" xmlns="http://www.w3.org/2000/svg">
<path d="M8.5 12.5208C8.5 12.7969 8.27614 13.0208 8 13.0208C7.72386 13.0208 7.5 12.7969 7.5 12.5208C7.5 12.2446 7.72386 12.0208 8 12.0208C8.27614 12.0208 8.5 12.2446 8.5 12.5208Z" fill="white"/>
<path d="M7.5 5.5L7.5 11.0208H8.5L8.5 5.5C8.5 5.22386 8.27614 5 8 5C7.72386 5 7.5 5.22386 7.5 5.5Z" fill="white"/>
<path fill-rule="evenodd" clip-rule="evenodd" d="M7.99994 1C8.18932 1 8.36246 1.107 8.44715 1.27639L14.9472 14.2764C15.0247 14.4314 15.0164 14.6155 14.9253 14.7629C14.8342 14.9103 14.6733 15 14.5 15H1.5C1.32671 15 1.16578 14.9103 1.07468 14.7629C0.983572 14.6155 0.97529 14.4314 1.05279 14.2764L7.55272 1.27639C7.63742 1.107 7.81055 1 7.99994 1ZM7.99994 2.61803L2.30901 14H13.691L7.99994 2.61803Z" fill="white"/>
</svg>
