<svg width="16" height="16" viewBox="0 0 16 16" fill="none" xmlns="http://www.w3.org/2000/svg">
<path fill-rule="evenodd" clip-rule="evenodd" d="M1 6.81236C1 3.59989 3.66218 1 6.94073 1C10.2193 1 12.8815 3.59989 12.8815 6.81236C12.8815 8.26708 12.3351 9.59688 11.4329 10.616L14.8104 13.919C15.0632 14.1663 15.0632 14.5683 14.8104 14.8156C14.5589 15.0615 14.1523 15.0615 13.9009 14.8156L10.4864 11.4764C9.49662 12.1979 8.26937 12.6247 6.94073 12.6247C3.66218 12.6247 1 10.0248 1 6.81236ZM6.94073 2.26544C4.3691 2.26544 2.28878 4.30356 2.28878 6.81236C2.28878 9.32116 4.3691 11.3593 6.94073 11.3593C9.51236 11.3593 11.5927 9.32116 11.5927 6.81236C11.5927 4.30356 9.51236 2.26544 6.94073 2.26544Z" fill="white"/>
<path fill-rule="evenodd" clip-rule="evenodd" d="M7 4C7.27614 4 7.5 4.22386 7.5 4.5V6.5H9.5C9.77614 6.5 10 6.72386 10 7C10 7.27614 9.77614 7.5 9.5 7.5H7.5V9.5C7.5 9.77614 7.27614 10 7 10C6.72386 10 6.5 9.77614 6.5 9.5V7.5H4.5C4.22386 7.5 4 7.27614 4 7C4 6.72386 4.22386 6.5 4.5 6.5H6.5V4.5C6.5 4.22386 6.72386 4 7 4Z" fill="white"/>
</svg>
