<svg width="16" height="16" viewBox="0 0 16 16" fill="none" xmlns="http://www.w3.org/2000/svg">
<path d="M7.53711 4.38885C7.53711 4.11271 7.31325 3.88885 7.03711 3.88885C6.76097 3.88885 6.53711 4.11271 6.53711 4.38885V6.29626H4.62964C4.3535 6.29626 4.12964 6.52012 4.12964 6.79626C4.12964 7.07241 4.3535 7.29626 4.62964 7.29626H6.53711V9.20367C6.53711 9.47981 6.76097 9.70367 7.03711 9.70367C7.31325 9.70367 7.53711 9.47981 7.53711 9.20367V7.29626H9.44445C9.7206 7.29626 9.94445 7.07241 9.94445 6.79626C9.94445 6.52012 9.7206 6.29626 9.44445 6.29626H7.53711V4.38885Z" fill="white"/>
<path fill-rule="evenodd" clip-rule="evenodd" d="M7.03702 1C3.83581 1 1.24072 3.59509 1.24072 6.7963C1.24072 9.9975 3.83581 12.5926 7.03702 12.5926C8.33451 12.5926 9.53243 12.1663 10.4983 11.4461L13.9058 14.8535C14.1011 15.0488 14.4177 15.0488 14.6129 14.8535C14.8082 14.6583 14.8082 14.3417 14.6129 14.1464L11.247 10.7805C12.2303 9.74181 12.8333 8.33948 12.8333 6.7963C12.8333 3.59509 10.2382 1 7.03702 1ZM2.24072 6.7963C2.24072 4.14737 4.3881 2 7.03702 2C9.68594 2 11.8333 4.14737 11.8333 6.7963C11.8333 9.44522 9.68594 11.5926 7.03702 11.5926C4.3881 11.5926 2.24072 9.44522 2.24072 6.7963Z" fill="white"/>
</svg>
